<svg id="Layer_1" data-name="Layer 1" xmlns="http://www.w3.org/2000/svg" viewBox="0 0 340 403.16"><defs><style>.cls-1{fill:#999;}</style></defs><title>logo-elastic-999</title><path class="cls-1" d="M306.79,142.78A53.85,53.85,0,0,0,271.18,92a76.32,76.32,0,0,0,1.43-14.7A77.27,77.27,0,0,0,132.68,32.06,41,41,0,0,0,69.1,78.8a54.55,54.55,0,0,0-35.89,51A53.87,53.87,0,0,0,69,180.7a77.09,77.09,0,0,0,75.71,91.82,76.78,76.78,0,0,0,62.58-32.2,41,41,0,0,0,63.62-46.57A54.54,54.54,0,0,0,306.79,142.78ZM139.13,40.29a67.51,67.51,0,0,1,123.2,38.17A66.53,66.53,0,0,1,261,91.74l-60.4,52.92-59.86-27.29-11.69-25Zm-30.34-6.72a32.44,32.44,0,0,1,19.65,6.63l-9,46.65-41-9.69a32.48,32.48,0,0,1,30.37-43.59Zm-65,96.33a45.69,45.69,0,0,1,31.07-43l45,10.64,10.56,22.58-57.55,52A45.25,45.25,0,0,1,43.79,129.9ZM201.14,232.29a67.68,67.68,0,0,1-123.66-38,69.08,69.08,0,0,1,1.32-13.48l58.9-53.23,60.1,27.39,13.31,25.43ZM231.21,239a32.13,32.13,0,0,1-19.55-6.69l8.92-46.48,41,9.59A32.47,32.47,0,0,1,231.21,239Zm33.92-53.36L220,175.06l-12-22.9,59-51.71a45.16,45.16,0,0,1,29.17,42.2A45.66,45.66,0,0,1,265.13,185.62Z"/><path class="cls-1" d="M48.26,393.43l3.86-.4.27,7.86a191.84,191.84,0,0,1-26,2.14Q12,403,6,394.69T0,368.76q0-35.06,27.86-35.06,13.47,0,20.13,7.54t6.67,23.66l-.54,7.6h-44q0,11.07,4,16.39t13.93,5.34Q38,394.23,48.26,393.43Zm-3.6-28.93q0-12.27-3.93-17.33t-12.8-5.07q-8.87,0-13.33,5.34T10,364.5Z"/><path class="cls-1" d="M68.6,402.51V314.77h10v87.74Z"/><path class="cls-1" d="M141.56,355.17v33.62c0,3.33,8.3,3.2,8.3,3.2l-.51,8.83c-7,0-12.84.59-16.33-2.79a58.22,58.22,0,0,1-24,5q-9.19,0-14-5.2t-4.8-14.93q0-9.73,4.93-14.34t15.46-5.66l20.93-2v-5.73q0-6.8-2.93-9.73a10.8,10.8,0,0,0-8-2.94l-26.27,0V333.7H120q11.34,0,16.47,5.2T141.56,355.17ZM100.5,382.36q0,12.27,10.13,12.27a53.82,53.82,0,0,0,17.87-3.07l3.06-1.07v-22l-19.73,1.86q-6,.54-8.66,3.47T100.5,382.36Z"/><path class="cls-1" d="M180.58,342.64q-14.54,0-14.53,10.13,0,4.67,3.33,6.6t15.2,4q11.86,2.06,16.8,5.79t4.93,14q0,10.27-6.6,15.07T180.45,403c-5.51,0-23.9-2-23.9-2l.53-8.66c10.57,1,18.21,1.77,23.37,1.77s9.09-.82,11.8-2.46,4.06-4.4,4.06-8.27-1.15-6.48-3.46-7.86-7.38-2.69-15.2-3.94S164.27,368.5,161,366.1s-4.94-6.84-4.94-13.33,2.29-11.29,6.87-14.4,10.28-4.67,17.13-4.67c5.42,0,24.23,1.38,24.23,1.38v8.72C194.38,343.35,186.27,342.64,180.58,342.64Z"/><path class="cls-1" d="M254.53,343.7H233.34v31.86q0,11.47,1.66,15.07c1.11,2.4,3.76,3.6,7.93,3.6l11.87-.8.67,8.26a91.07,91.07,0,0,1-13.6,1.47q-10.4,0-14.4-5.07t-4-19.33V343.7H214V335h9.46v-20.4h9.87V335h21.19Z"/><path class="cls-1" d="M268.43,326.52v-11.6h10v11.6Zm0,76V335h10v67.47Z"/><path class="cls-1" d="M321.74,333.7a116.41,116.41,0,0,1,14.93,1.6l3.2.4-.4,8.14a156.5,156.5,0,0,0-15.73-1.2q-11.34,0-15.4,5.4t-4.07,20q0,14.6,3.8,20.33t15.8,5.73l15.73-1.2.4,8.27A138,138,0,0,1,321.47,403q-15.6,0-21.53-8T294,368q0-19,6.4-26.66T321.74,333.7Z"/></svg>