<?xml version="1.0" standalone="no"?>
<!DOCTYPE svg PUBLIC "-//W3C//DTD SVG 1.1//EN" "http://www.w3.org/Graphics/SVG/1.1/DTD/svg11.dtd" >
<svg xmlns="http://www.w3.org/2000/svg">
<metadata></metadata>
<defs>
<font id="gorditalight_italic" horiz-adv-x="1296" >
<font-face units-per-em="2048" ascent="1638" descent="-410" />
<missing-glyph horiz-adv-x="600" />
<glyph unicode="ff" horiz-adv-x="1249" d="M1517 1578q-40 19 -106 19q-95 0 -159.5 -48t-94.5 -163l-77 -293h296l-20 -73h-295l-269 -1020h-80l268 1020h-515l-269 -1020h-80l268 1020h-205l20 73h205l82 312q36 134 117 201t215 67q77 0 123 -20l-20 -75q-40 19 -106 19q-95 0 -159.5 -48t-94.5 -163l-77 -293 h516l82 312q36 134 117 201t215 67q77 0 123 -20z" />
<glyph unicode="fi" horiz-adv-x="1174" d="M755 0l269 1020h-560l-268 -1020h-80l268 1020h-205l20 73h205l82 312q36 134 117 201t215 67q77 0 122 -20l-19 -75q-40 19 -106 19q-95 0 -159.5 -48t-94.5 -163l-77 -293h640l-287 -1093h-82zM1175 1390q-32 0 -52.5 20.5t-20.5 52.5q0 38 26 64.5t63 26.5 q32 0 53.5 -20.5t21.5 -52.5q0 -38 -26.5 -64.5t-64.5 -26.5z" />
<glyph unicode="fl" horiz-adv-x="1132" d="M982 1020h-518l-268 -1020h-80l268 1020h-205l19 73h206l82 312q36 134 117 201t215 67q77 0 122 -20l-19 -75q-40 19 -107 19q-94 0 -158.5 -48t-94.5 -163l-77 -293h518l151 575h81l-439 -1668h-81z" />
<glyph unicode="ffi" horiz-adv-x="1730" d="M1312 0l268 1020h-517l-269 -1020h-80l268 1020h-517l-269 -1020h-80l268 1020h-205l20 73h205l82 312q36 134 117 201t215 67q77 0 123 -20l-20 -75q-40 19 -106 19q-95 0 -159.5 -48t-94.5 -163l-77 -293h518l82 312q36 134 117 201t215 67q77 0 123 -20l-20 -75 q-40 19 -106 19q-95 0 -159.5 -48t-94.5 -163l-77 -293h598l-287 -1093h-81zM1731 1390q-32 0 -52.5 20.5t-20.5 52.5q0 38 26 64.5t63 26.5q32 0 53.5 -20.5t21.5 -52.5q0 -38 -26.5 -64.5t-64.5 -26.5z" />
<glyph unicode="ffl" horiz-adv-x="1730" d="M1581 1020h-518l-269 -1020h-80l268 1020h-517l-269 -1020h-80l268 1020h-205l20 73h205l82 312q36 134 117 201t215 67q77 0 123 -20l-20 -75q-40 19 -106 19q-95 0 -159.5 -48t-94.5 -163l-77 -293h518l82 312q36 134 117 201t215 67q77 0 123 -20l-20 -75 q-40 19 -106 19q-95 0 -159.5 -48t-94.5 -163l-77 -293h518l151 575h82l-440 -1668h-81z" />
<glyph horiz-adv-x="0" />
<glyph horiz-adv-x="0" />
<glyph unicode="&#xd;" horiz-adv-x="600" />
<glyph unicode=" "  horiz-adv-x="600" />
<glyph unicode="&#x09;" horiz-adv-x="600" />
<glyph unicode="&#xa0;" horiz-adv-x="600" />
<glyph unicode="!" horiz-adv-x="541" d="M206 426l306 1178h83l-315 -1178h-74zM138 -18q-32 0 -52.5 20t-20.5 52q0 38 26 65t64 27q32 0 53 -21t21 -53q0 -38 -26.5 -64t-64.5 -26z" />
<glyph unicode="&#x22;" horiz-adv-x="730" d="M506 1449l-130 -368h-37l74 393q1 3 3 14.5t3 17.5t4 17.5t5.5 18t6.5 16t9 15t11 11t13.5 8t16.5 2.5q45 0 45 -52q0 -28 -24 -93zM810 1449l-129 -368h-37l74 393q12 73 29 96q16 24 43 24q44 0 44 -52q0 -28 -24 -93z" />
<glyph unicode="#" horiz-adv-x="1573" d="M1414 447h-313l-172 -447h-78l168 447h-573l-171 -447h-80l170 447h-270l20 75h278l214 561h-318l20 75h327l170 446h79l-168 -446h573l170 446h79l-168 -446h257l-20 -75h-265l-214 -561h304zM1047 522l215 561h-573l-214 -561h572z" />
<glyph unicode="$" horiz-adv-x="1284" d="M501 -209h-81l58 219q-163 48 -265.5 187t-102.5 317l81 14q-1 -157 83.5 -278.5t223.5 -164.5l184 700l-38 19q-50 25 -87.5 46.5t-86.5 57.5t-80 73t-53 89t-22 108q0 101 42.5 184.5t115 137t164.5 82.5t193 29q25 0 67 -4l58 218h81l-60 -232q185 -47 278 -210 q56 -101 56 -197l-80 -15q0 29 -7 64t-26.5 79.5t-49 83t-80 72t-113.5 49.5l-181 -690l29 -14q59 -29 101 -53.5t90.5 -61.5t79 -74.5t51 -89.5t20.5 -110q0 -104 -43 -189t-116 -138t-165 -81.5t-194 -28.5q-34 0 -72 5zM631 66q83 0 158.5 22.5t136.5 65t97 112t36 157.5 q0 49 -19.5 93t-45.5 74t-72 62.5t-78 50t-86 44.5l-6 3l-179 -681q29 -3 58 -3zM828 1535q-83 0 -159 -22.5t-137 -65t-97 -111t-36 -154.5q0 -56 25 -104.5t73 -87.5t89 -64t102 -55l15 -8l176 669q-25 3 -51 3z" />
<glyph unicode="%" horiz-adv-x="1956" d="M1822 386q0 -166 -113.5 -281.5t-277.5 -115.5q-138 0 -229.5 89t-91.5 232q0 164 113 281.5t276 117.5q138 0 230.5 -91t92.5 -232zM993 1297q0 -166 -113 -281.5t-277 -115.5q-138 0 -229.5 89t-91.5 232q0 164 113 281.5t276 117.5q138 0 230 -91t92 -232zM1698 1604 h93l-1386 -1604h-96zM1752 387q0 106 -72 179t-182 73q-139 0 -228 -100t-89 -232q0 -107 72 -177.5t181 -70.5q138 0 228 97.5t90 230.5zM923 1298q0 106 -72 179t-182 73q-92 0 -166 -48.5t-112.5 -124t-38.5 -159.5q0 -107 72.5 -178t181.5 -71q137 0 227 98t90 231z" />
<glyph unicode="&#x26;" horiz-adv-x="1437" d="M1168 1272q0 -74 -31 -136.5t-89 -111t-112.5 -81t-130.5 -67.5l-121 -56l347 -493q169 160 277 354l67 -34q-116 -209 -299 -381l190 -266h-94l-153 216q-273 -230 -532 -230q-79 0 -149 21.5t-127.5 63t-91 110.5t-33.5 158q0 71 25 135.5t64 112.5t96.5 92.5 t112.5 75.5t123 62l65 30l-40 61q-123 180 -123 320q0 160 116 275.5t277 115.5q162 0 264 -98.5t102 -248.5zM491 61q233 0 485 216l-362 511l-67 -31q-78 -37 -137 -72.5t-118.5 -86.5t-92 -116t-32.5 -140q0 -132 94 -206.5t230 -74.5zM490 1230q0 -73 30.5 -144.5 t92.5 -164.5l27 -42l142 65q49 22 85.5 42t81 51t73.5 63t48.5 76t19.5 92q0 120 -79 200.5t-211 80.5q-134 0 -222 -93.5t-88 -225.5z" />
<glyph unicode="'" horiz-adv-x="426" d="M506 1449l-130 -368h-37l74 393q12 73 29 96q16 24 43 24q45 0 45 -52q0 -11 -2.5 -24.5t-5 -22t-8.5 -25t-8 -21.5z" />
<glyph unicode="(" horiz-adv-x="869" d="M1105 1770l27 -63q-217 -84 -386.5 -207.5t-277.5 -270t-164 -309.5t-56 -333q0 -132 30 -250.5t85.5 -215t119.5 -173t146 -148.5l-45 -51q-418 343 -418 835q0 246 105.5 471.5t320 414t513.5 300.5z" />
<glyph unicode=")" horiz-adv-x="870" d="M-112 -256l-27 62q174 67 318 160.5t248 203t175.5 234t106.5 256t35 267.5q0 455 -380 786l45 52q418 -343 418 -836q0 -246 -105.5 -471.5t-320 -413.5t-513.5 -300z" />
<glyph unicode="*" horiz-adv-x="1087" d="M704 1140l-292 -237l-43 55l311 225l-330 212l39 57l315 -224l95 384l69 -19l-118 -378l386 29l3 -69l-392 -11l151 -353l-65 -25z" />
<glyph unicode="+" horiz-adv-x="1202" d="M1154 732h-451l-122 -464h-80l122 464h-463l19 74h464l120 458h80l-121 -458h451z" />
<glyph unicode="," horiz-adv-x="541" d="M-4 -274l14 55q77 14 130.5 70.5t64.5 150.5q-24 -14 -60 -14q-34 0 -57 19t-23 52q0 40 32.5 69.5t72.5 29.5q48 0 72 -31t24 -82q0 -140 -80.5 -224.5t-189.5 -94.5z" />
<glyph unicode="-" horiz-adv-x="939" d="M791 610h-601l20 79h601z" />
<glyph unicode="." horiz-adv-x="503" d="M144 -16q-35 0 -57.5 22t-22.5 57q0 41 28.5 70t68.5 29q35 0 58 -22.5t23 -57.5q0 -41 -28.5 -69.5t-69.5 -28.5z" />
<glyph unicode="/" horiz-adv-x="999" d="M1182 1668l-1112 -1678h-88l1113 1678h87z" />
<glyph unicode="0" horiz-adv-x="1561" d="M713 -17q-170 0 -290 79t-177.5 211t-57.5 305q0 193 61 380.5t165.5 334.5t257 237.5t322.5 90.5q169 0 290 -79t179 -211.5t58 -305.5q0 -154 -38.5 -306.5t-111.5 -284t-170.5 -233t-224 -160t-263.5 -58.5zM718 60q149 0 284 84t229 219.5t149 309t55 349.5 q0 152 -47.5 267.5t-150 185t-248.5 69.5q-149 0 -284 -84.5t-229 -220t-149 -309.5t-55 -350q0 -112 27.5 -206t81.5 -164.5t140 -110t197 -39.5z" />
<glyph unicode="1" horiz-adv-x="846" d="M889 1604l-428 -1604h-85l400 1497l-505 -251l-30 66l579 292h69z" />
<glyph unicode="2" horiz-adv-x="1267" d="M114 77h930l-20 -77h-1018q24 112 70 205t114 166t149.5 130t185.5 106l319 150q83 39 147 81t118.5 95t84 118.5t29.5 139.5q0 159 -100 256t-284 97q-191 0 -319 -120.5t-128 -313.5l-81 9q0 91 34 178.5t97 160.5t167 118t232 45q216 0 341 -119t125 -309 q0 -154 -106.5 -278t-323.5 -227l-320 -151q-114 -54 -197 -115t-131 -123t-73 -113t-42 -109z" />
<glyph unicode="3" horiz-adv-x="1278" d="M557 -17q-102 0 -186.5 31.5t-138.5 81.5t-90.5 113.5t-50.5 126t-10 120.5l85 15q-3 -51 7.5 -105t39 -109.5t72.5 -98.5t115.5 -70.5t159.5 -27.5q96 0 184.5 31.5t156.5 87.5t108.5 142t40.5 188q0 161 -122 245.5t-320 84.5h-44l-17 62l709 626h-878l21 77h986 l-21 -81l-695 -611q214 -4 342 -119.5t128 -280.5q0 -161 -81.5 -283.5t-212.5 -184t-288 -61.5z" />
<glyph unicode="4" horiz-adv-x="1344" d="M1233 396h-253l-106 -396h-84l105 396h-870l23 87l1157 1121h98l-302 -1131h252zM916 473l269 1012l-1043 -1012h774z" />
<glyph unicode="5" horiz-adv-x="1274" d="M570 -17q-140 0 -253 59t-174.5 158.5t-58.5 217.5l79 17q-7 -162 115 -268.5t297 -106.5q218 0 357 144t139 366q0 157 -99 266t-264 109q-121 0 -233.5 -49.5t-193.5 -126.5l-64 35l345 800h785l-21 -78h-715l-280 -645h2q79 62 181 101.5t198 39.5q101 0 186 -37 t141 -99.5t87 -143.5t31 -169q0 -172 -78.5 -307.5t-212 -209t-296.5 -73.5z" />
<glyph unicode="6" horiz-adv-x="1374" d="M1405 1540l-37 -69q-156 77 -306 77q-169 0 -313 -76t-250 -208q-92 -114 -151.5 -262t-80.5 -292h3q27 58 76 112.5t114.5 101t152.5 74.5t179 28q151 0 272 -79q95 -62 150.5 -162t55.5 -219q0 -153 -76.5 -286.5t-214 -215t-302.5 -81.5q-119 0 -219.5 46.5 t-163.5 122.5q-117 141 -117 371q0 155 36 310t111 297.5t178.5 252.5t249 175.5t312.5 65.5q89 0 182 -23t159 -61zM1185 563q0 173 -113.5 280t-283.5 107q-134 0 -254.5 -61t-195.5 -171.5t-75 -241.5q0 -187 118.5 -301.5t301.5 -114.5q110 0 205 41.5t159.5 111 t101 161t36.5 189.5z" />
<glyph unicode="7" horiz-adv-x="1140" d="M1339 1527l-1094 -1527h-101l1098 1527h-945l21 77h1041z" />
<glyph unicode="8" horiz-adv-x="1394" d="M1358 1233q0 -159 -126 -277.5t-313 -148.5q138 -40 228 -141t90 -231q0 -124 -75 -228t-209 -165t-298 -61q-240 0 -391 115.5t-151 295.5q0 176 141 298t367 151q-121 44 -194.5 133.5t-73.5 208.5q0 128 74 229.5t193.5 155t259.5 53.5q209 0 343.5 -108t134.5 -280z M1272 1229q0 138 -112 226.5t-281 88.5q-189 0 -315 -102.5t-126 -260.5q0 -137 108.5 -230.5t266.5 -93.5q196 0 327.5 107.5t131.5 264.5zM1150 433q0 151 -123.5 251.5t-320.5 100.5q-223 0 -365.5 -112t-142.5 -274q0 -104 65 -183t168.5 -118.5t225.5 -39.5 q209 0 351 105.5t142 269.5z" />
<glyph unicode="9" horiz-adv-x="1376" d="M113 70l38 69q166 -81 312 -81q167 0 310.5 77.5t250.5 209.5q93 115 151.5 258t78.5 286h-2q-27 -58 -75.5 -112.5t-114.5 -100t-153 -73.5t-179 -28q-151 0 -272 79q-94 61 -149.5 162t-55.5 221q0 114 45.5 221.5t123 188t188.5 129t235 48.5q120 0 223 -46.5 t165 -121.5q114 -137 114 -372q0 -210 -66.5 -418t-190.5 -366q-117 -149 -276.5 -233t-353.5 -84q-196 0 -347 87zM337 1041q0 -174 115 -282t285 -108q134 0 253.5 62.5t194 174t74.5 243.5q0 161 -89 270q-56 69 -142.5 107t-189.5 38q-108 0 -203 -42t-159.5 -112 t-101.5 -161.5t-37 -189.5z" />
<glyph unicode=":" horiz-adv-x="518" d="M130 -16q-35 0 -57.5 22t-22.5 57q0 41 28.5 70t68.5 29q35 0 58 -22.5t23 -57.5q0 -41 -28.5 -69.5t-69.5 -28.5zM380 932q-35 0 -57.5 22t-22.5 57q0 41 28 70t69 29q35 0 58 -22t23 -57q0 -41 -28.5 -70t-69.5 -29z" />
<glyph unicode=";" horiz-adv-x="589" d="M400 932q-35 0 -57.5 22t-22.5 57q0 41 28.5 70t68.5 29q35 0 58 -22t23 -57q0 -41 -28.5 -70t-69.5 -29zM-3 -275l15 56q77 14 130.5 71t63.5 151q-25 -16 -58 -16q-34 0 -57 19.5t-23 52.5q0 40 31.5 69.5t72.5 29.5q48 0 71.5 -31t23.5 -81q0 -141 -80.5 -225.5 t-189.5 -95.5z" />
<glyph unicode="&#x3c;" horiz-adv-x="1325" d="M162 808l1202 535l-25 -95l-1108 -488l850 -494l-21 -77l-919 538z" />
<glyph unicode="=" horiz-adv-x="1300" d="M1234 973h-941l20 77h941zM1107 490h-942l21 77h941z" />
<glyph unicode="&#x3e;" horiz-adv-x="1327" d="M1294 724l-1201 -535l24 95l1108 488l-849 494l21 77l919 -539z" />
<glyph unicode="?" horiz-adv-x="1134" d="M357 64q0 34 23 57.5t56 23.5t56 -23.5t23 -57.5t-23 -58t-56 -24t-56 24t-23 58zM574 426h-86q15 79 56 149.5t100.5 128t117.5 103.5t128.5 101t112.5 96q120 118 120 256q0 123 -97.5 203t-238.5 80q-96 0 -180 -35.5t-139.5 -93t-87 -130t-31.5 -146.5l-85 7 q8 198 158 337t371 139q173 0 295 -102.5t122 -254.5q0 -163 -140 -309q-42 -44 -107.5 -95.5t-121 -93.5t-111 -92.5t-96.5 -113.5t-60 -134z" />
<glyph unicode="@" horiz-adv-x="1801" d="M1335 255q-79 0 -130.5 48t-41.5 121h-3q-55 -78 -147 -123.5t-186 -45.5q-127 0 -212 87t-85 215q0 132 62 245t173 180t245 67q106 0 176 -61.5t90 -142.5h3l60 196h76l-171 -568q-10 -32 -10 -60q0 -43 29.5 -66.5t75.5 -23.5q99 0 185 90t135 219q44 116 44 214 q0 100 -35 189.5t-96 156t-141.5 115.5t-173 74t-188.5 25q-170 0 -325.5 -71t-267 -188t-178 -275t-66.5 -326q0 -187 85.5 -334.5t235 -228t336.5 -80.5q116 0 242.5 42.5t224.5 111.5l29 -57q-98 -74 -236 -119.5t-263 -45.5q-203 0 -368 89.5t-260 252t-95 366.5 q0 182 72.5 353t193.5 298t290 203.5t353 76.5q134 0 260 -45t223.5 -125t156.5 -199t59 -256q0 -108 -46 -234q-25 -69 -62 -130.5t-85.5 -114.5t-111.5 -84t-131 -31zM1001 979q-107 0 -199 -57.5t-144.5 -151t-52.5 -197.5q0 -112 67 -180t172 -68q104 0 197.5 62 t148 160.5t54.5 201.5q0 98 -71.5 164t-171.5 66z" />
<glyph unicode="A" horiz-adv-x="1548" d="M1397 0h-84l-78 457h-928l-325 -457h-95l1141 1604h90zM1056 1513l-694 -979h861z" />
<glyph unicode="B" horiz-adv-x="1499" d="M997 1604q211 0 343 -95.5t132 -263.5q0 -92 -37 -169t-100 -129t-140.5 -85t-164.5 -45q151 -35 238 -121t87 -224q0 -206 -174.5 -339t-487.5 -133h-588l428 1604h464zM988 1527h-392l-178 -670h413q257 0 405.5 102.5t148.5 279.5q0 138 -107.5 213t-289.5 75z M817 779h-421l-187 -702h486q273 0 424.5 111.5t151.5 291.5q0 143 -125 221t-329 78z" />
<glyph unicode="C" horiz-adv-x="1739" d="M1585 543l77 -30q-101 -242 -306.5 -386t-485.5 -144q-192 0 -347 89.5t-242.5 250t-87.5 361.5q0 183 72 355t194 300t292.5 205t357.5 77q156 0 295 -65.5t236 -189t121 -282.5l-79 -24q-33 214 -197.5 349t-386.5 135q-167 0 -319.5 -72t-261 -190t-173 -274.5 t-64.5 -320.5q0 -179 73 -321.5t210.5 -225t316.5 -82.5q243 0 424.5 132.5t280.5 352.5z" />
<glyph unicode="D" horiz-adv-x="1651" d="M539 0h-434l428 1604h261q208 0 370.5 -57t266.5 -160q176 -175 176 -457q0 -186 -66 -345.5t-185 -278.5q-146 -147 -359.5 -226.5t-457.5 -79.5zM1520 925q0 248 -154 405q-92 95 -238 146t-329 51h-202l-387 -1450h341q459 0 738 276q112 111 171.5 258t59.5 314z" />
<glyph unicode="E" horiz-adv-x="1338" d="M1092 77l-20 -77h-967l428 1604h957l-20 -77h-875l-178 -670h804l-21 -78h-803l-187 -702h882z" />
<glyph unicode="F" horiz-adv-x="1287" d="M1483 1604l-22 -77h-865l-184 -690h797l-22 -78h-795l-203 -759h-84l428 1604h950z" />
<glyph unicode="G" horiz-adv-x="1772" d="M1635 670h-748l20 77h825q-22 -176 -101.5 -322t-197 -241.5t-263 -148t-300.5 -52.5q-199 0 -354 87t-240 242.5t-85 353.5q0 129 33.5 252.5t92.5 228t143 193t183 150.5t215 96.5t236 34.5t224.5 -32.5t175.5 -84.5t125.5 -119.5t83.5 -133.5t40 -130l-78 -23 q-9 43 -27 90.5t-62 114.5t-103.5 117.5t-159.5 87t-222 36.5q-143 0 -272 -49t-227 -134.5t-170 -196t-109.5 -238.5t-37.5 -258q0 -270 166 -440t432 -170q200 0 355.5 81.5t259.5 217.5q114 147 147 313z" />
<glyph unicode="H" horiz-adv-x="1696" d="M1311 0h-85l207 779h-1035l-209 -779h-84l428 1604h85l-200 -747h1035l202 747h84z" />
<glyph unicode="I" horiz-adv-x="574" d="M189 0h-84l428 1604h85z" />
<glyph unicode="J" horiz-adv-x="1247" d="M481 -17q-193 0 -304 114t-111 290q0 85 29 196l18 67l82 3l-23 -97q-22 -94 -22 -154q0 -155 91.5 -248.5t243.5 -93.5q169 0 276.5 108t154.5 283l308 1153h84l-309 -1163q-122 -458 -518 -458z" />
<glyph unicode="K" horiz-adv-x="1323" d="M1084 0l-667 813h-10l-218 -813h-84l428 1604h85l-199 -745h10l1020 745h126l-1067 -780l687 -824h-111z" />
<glyph unicode="L" horiz-adv-x="1161" d="M1011 77l-21 -77h-885l428 1604h85l-408 -1527h801z" />
<glyph unicode="M" horiz-adv-x="2123" d="M1654 0l395 1482l-1087 -1482h-75l-303 1483l-397 -1483h-82l428 1604h105l306 -1506l1106 1506h116l-428 -1604h-84z" />
<glyph unicode="N" horiz-adv-x="1752" d="M1367 0h-93l-685 1504l-402 -1504h-82l428 1604h100l680 -1495l399 1495h84z" />
<glyph unicode="O" horiz-adv-x="1814" d="M868 -17q-147 0 -274.5 53t-216 145t-138.5 217.5t-50 267.5q0 146 45 288.5t128.5 261.5t194 210.5t249.5 143t286 51.5q197 0 353.5 -91t242 -246.5t85.5 -345.5q0 -146 -45.5 -288.5t-129 -261.5t-194.5 -210.5t-250 -143t-286 -51.5zM871 58q168 0 321 74t260.5 195 t171 280.5t63.5 326.5q0 171 -74 309.5t-211.5 219.5t-312.5 81q-135 0 -261 -47.5t-225.5 -131.5t-174.5 -193t-115 -239.5t-40 -264.5q0 -170 74.5 -308.5t212 -220t311.5 -81.5z" />
<glyph unicode="P" horiz-adv-x="1369" d="M707 660h-342l-176 -660h-84l428 1604h384q255 0 392 -109t137 -302q0 -245 -197.5 -389t-541.5 -144zM1362 1188q0 138 -85 224q-115 115 -363 115h-319l-211 -790h332q305 0 475.5 123.5t170.5 327.5z" />
<glyph unicode="Q" horiz-adv-x="1819" d="M1442 210l163 -181l-59 -52l-163 183q-235 -177 -515 -177q-147 0 -274.5 53t-216 145t-138.5 217.5t-50 267.5q0 146 45 288.5t128.5 261.5t194 210.5t249.5 143t286 51.5q197 0 353.5 -91t242 -246.5t85.5 -345.5q0 -206 -88.5 -398t-242.5 -330zM1687 934 q0 171 -74 309.5t-211.5 219.5t-312.5 81q-135 0 -261 -47.5t-225.5 -131.5t-174.5 -193t-115 -239.5t-40 -264.5q0 -170 74.5 -308.5t212 -220t311.5 -81.5q254 0 462 159l-279 311l62 51l274 -313q138 127 217.5 303t79.5 365z" />
<glyph unicode="R" horiz-adv-x="1437" d="M843 686l373 -686h-98l-365 680h-382l-182 -680h-84l428 1604h399q252 0 391.5 -105.5t139.5 -297.5q0 -105 -38.5 -190t-97.5 -142q-167 -165 -484 -183zM1377 1194q0 159 -115.5 246t-334.5 87h-331l-205 -769h372q343 0 504 162q110 112 110 274z" />
<glyph unicode="S" d="M630 -19q-144 0 -264 71t-188.5 192.5t-68.5 266.5l81 14q-1 -196 125.5 -331.5t318.5 -135.5q84 0 160.5 22.5t138.5 65.5t98.5 113.5t36.5 159.5q0 36 -10.5 69t-25 58.5t-41 51.5t-49 43.5t-58.5 39.5t-59 34t-62 31l-115 58q-51 26 -88.5 47t-87 58t-81 74t-54 89.5 t-22.5 109.5q0 102 43.5 186.5t116 138.5t166 83t195.5 29q159 0 265 -64.5t163 -165.5q56 -101 56 -199l-80 -15q0 29 -7 63.5t-23.5 77t-48 81.5t-74.5 72.5t-108.5 53t-144.5 19.5q-114 0 -210.5 -38t-160 -121t-63.5 -197q0 -46 19 -88t45.5 -72.5t70.5 -61.5 t76.5 -49.5t81.5 -42.5l114 -57q76 -38 127.5 -70t106.5 -80t83.5 -109t28.5 -133q0 -106 -43.5 -191.5t-117 -139.5t-166.5 -82.5t-196 -28.5z" />
<glyph unicode="T" horiz-adv-x="1245" d="M1461 1527h-530l-408 -1527h-84l407 1527h-540l21 77h1155z" />
<glyph unicode="U" horiz-adv-x="1603" d="M1322 622l262 982h85l-266 -995q-80 -297 -231 -448q-179 -179 -435 -179q-234 0 -371.5 119.5t-137.5 335.5q0 110 35 239l245 928h85l-254 -956q-28 -103 -28 -203q0 -183 115 -284t316 -101q217 0 369 153q138 139 211 409z" />
<glyph unicode="V" horiz-adv-x="1549" d="M1764 1604l-1088 -1604h-93l-244 1604h86l223 -1511l1021 1511h95z" />
<glyph unicode="W" horiz-adv-x="2273" d="M2393 1604h92l-942 -1604h-92l-73 1475l-843 -1475h-92l-105 1604h84l93 -1502l850 1502h81l75 -1502z" />
<glyph unicode="X" horiz-adv-x="1410" d="M1257 0h-91l-393 758l-768 -758h-108l838 828l-408 776h89l379 -725l736 725h107l-807 -792z" />
<glyph unicode="Y" horiz-adv-x="1470" d="M1682 1604l-884 -927l-180 -677h-85l187 697l-379 907h92l345 -839l793 839h111z" />
<glyph unicode="Z" horiz-adv-x="1243" d="M49 77h1007l-21 -77h-1117l20 75l1390 1452h-969l20 77h1079l-22 -76z" />
<glyph unicode="[" horiz-adv-x="833" d="M564 -229h-533l521 1978h532l-18 -72h-453l-483 -1835h452z" />
<glyph unicode="\" horiz-adv-x="964" d="M657 -10l-267 1678h76l268 -1678h-77z" />
<glyph unicode="]" horiz-adv-x="833" d="M407 -229h-533l19 71h453l483 1835h-453l19 72h532z" />
<glyph unicode="^" horiz-adv-x="1131" d="M1126 923h-82l-195 603l-514 -603h-97l583 681h82z" />
<glyph unicode="_" horiz-adv-x="1071" d="M884 -171l-19 -71h-1070l18 71h1071z" />
<glyph unicode="`" horiz-adv-x="192" d="M365 1280l-155 353h82l138 -353h-65z" />
<glyph unicode="a" horiz-adv-x="1397" d="M1040 237l5 21h-1q-68 -108 -201 -191.5t-291 -83.5q-191 0 -315.5 129.5t-124.5 326.5q0 103 29.5 203t84.5 184.5t129 149t168 101t196 36.5q99 0 181 -30.5t136.5 -82t88.5 -112.5t49 -129h1l90 334h80l-221 -838q-43 -168 -42 -255h-80q0 91 38 237zM727 1039 q-115 0 -216 -51.5t-169 -134.5t-107 -188.5t-39 -213.5q0 -172 103.5 -283t265.5 -111q114 0 221.5 53.5t182.5 136t120 184t45 197.5q0 177 -112.5 294t-294.5 117z" />
<glyph unicode="b" horiz-adv-x="1394" d="M1293 655q0 -129 -46.5 -251t-126 -215t-193.5 -149.5t-241 -56.5q-99 0 -181 30.5t-136.5 82t-88.5 112.5t-49 129h-1l-91 -337h-79l439 1668h80l-219 -832h1q69 108 201.5 192.5t289.5 84.5q193 0 317 -130t124 -328zM679 57q115 0 216 51.5t168.5 134.5t106.5 188 t39 213q0 172 -103.5 283.5t-265.5 111.5q-114 0 -221.5 -53.5t-182.5 -136t-120 -184t-45 -197.5q0 -177 113 -294t295 -117z" />
<glyph unicode="c" horiz-adv-x="1265" d="M601 -19q-214 0 -350.5 135t-136.5 353q0 163 83.5 311.5t228.5 240.5t310 92q184 0 308.5 -101.5t151.5 -266.5l-76 -25q-21 141 -125.5 230t-267.5 89q-104 0 -202.5 -48.5t-169 -127t-113 -182t-42.5 -210.5q0 -184 113 -299t296 -115q148 0 271.5 83t185.5 220 l71 -31q-73 -163 -215.5 -255.5t-320.5 -92.5z" />
<glyph unicode="d" horiz-adv-x="1397" d="M1496 1668l-372 -1412q-42 -164 -41 -256h-80q0 95 37 237l6 21h-2q-68 -108 -201 -191.5t-291 -83.5q-191 0 -315.5 129.5t-124.5 326.5q0 103 29.5 203t84.5 184.5t129 149t168 101t196 36.5q99 0 181.5 -31t137 -83t88.5 -113t49 -129h1l240 911h80zM727 1039 q-115 0 -216 -51.5t-169 -134.5t-107 -188.5t-39 -213.5q0 -172 103.5 -283t265.5 -111q114 0 221.5 53.5t182.5 136t120 184t45 197.5q0 177 -112.5 294t-294.5 117z" />
<glyph unicode="e" horiz-adv-x="1251" d="M1144 533h-942q-3 -27 -3 -55q0 -183 112 -302t292 -119q290 0 438 275l66 -37q-172 -313 -511 -313q-212 0 -346 140t-134 353q0 119 48 235t127.5 204.5t190.5 143.5t229 55q214 0 328.5 -124.5t114.5 -339.5q0 -40 -10 -116zM211 606h859q2 30 2 44q0 179 -94 284 t-273 105q-106 0 -214 -61t-184.5 -162t-95.5 -210z" />
<glyph unicode="f" horiz-adv-x="653" d="M941 1653l-20 -75q-40 19 -106 19q-95 0 -159.5 -48t-94.5 -163l-77 -293h296l-20 -73h-295l-269 -1020h-80l268 1020h-205l20 73h205l82 312q36 134 117 201t215 67q77 0 123 -20z" />
<glyph unicode="g" horiz-adv-x="1396" d="M1267 1093h79l-296 -1130q-63 -241 -223 -375.5t-400 -134.5q-101 0 -184.5 28t-138.5 73t-93 104t-55.5 118.5t-19.5 118.5l78 16q0 -42 10 -87.5t39 -99.5t73.5 -96t120.5 -70.5t172 -28.5q207 0 347 115t198 337l79 299h-2q-65 -103 -202 -182.5t-288 -79.5 q-186 0 -313 130.5t-127 320.5q0 175 79.5 322.5t220.5 234.5t311 87q90 0 170 -29.5t136 -78t93 -109t50 -124.5h1zM1143 647q0 165 -115 277.5t-296 112.5q-116 0 -215.5 -46.5t-167 -124.5t-106 -179.5t-38.5 -211.5q0 -164 106 -272.5t265 -108.5q115 0 222 50.5 t181.5 130t119 178.5t44.5 194z" />
<glyph unicode="h" horiz-adv-x="1291" d="M802 1113q169 0 261.5 -95.5t92.5 -247.5q0 -70 -27 -170l-157 -600h-80l161 608q19 71 19 157q0 127 -72 200t-217 73q-150 0 -290 -116.5t-191 -305.5l-163 -616h-79l439 1668h80l-219 -829q73 118 184.5 196t257.5 78z" />
<glyph unicode="i" horiz-adv-x="479" d="M429 1093l-287 -1093h-81l287 1093h81zM480 1390q-32 0 -52.5 20.5t-20.5 52.5q0 38 26 64.5t63 26.5q32 0 53.5 -20.5t21.5 -52.5q0 -38 -26.5 -64.5t-64.5 -26.5z" />
<glyph unicode="j" horiz-adv-x="494" d="M445 1093l-362 -1374q-16 -63 -40 -109t-61.5 -82.5t-93 -55t-129.5 -18.5q-54 0 -91 16l19 72q37 -13 75 -13q58 0 102 16.5t71.5 46.5t43.5 62.5t27 74.5l359 1364h80zM497 1390q-32 0 -53 20.5t-21 52.5q0 38 26.5 64.5t63.5 26.5q32 0 53 -20.5t21 -52.5 q0 -38 -26 -64.5t-64 -26.5z" />
<glyph unicode="k" horiz-adv-x="1034" d="M579 1668l-276 -1049h4l708 474h136l-765 -503l506 -590h-104l-491 577h-5l-152 -577h-80l439 1668h80z" />
<glyph unicode="l" horiz-adv-x="479" d="M142 0h-82l440 1668h81z" />
<glyph unicode="m" horiz-adv-x="1988" d="M904 0h-80l159 601q28 106 28 172q0 125 -70.5 195t-190.5 70q-149 0 -275 -126.5t-171 -297.5l-163 -614h-80l287 1093h80l-66 -254q35 56 71 99.5t86 86t114 65.5t136 23q142 0 226.5 -86.5t89.5 -222.5q32 61 74 113.5t97 98t126 71.5t149 26q145 0 234.5 -93.5 t89.5 -241.5q0 -69 -28 -178l-159 -600h-80l161 608q23 89 23 165q0 57 -15 103t-39.5 76t-58.5 49.5t-70 28t-76 8.5q-149 0 -275 -127t-172 -299z" />
<glyph unicode="n" horiz-adv-x="1292" d="M803 1113q169 0 261.5 -95t92.5 -248q0 -70 -27 -170l-157 -600h-80l161 608q19 71 19 157q0 127 -72 200t-217 73q-97 0 -193.5 -50t-175 -148t-111.5 -224l-163 -616h-80l287 1093h80l-67 -254q73 118 184.5 196t257.5 78z" />
<glyph unicode="o" horiz-adv-x="1341" d="M601 -18q-214 0 -351 135.5t-137 344.5q0 121 49 238.5t132 209t203 147.5t252 56q214 0 352.5 -136t138.5 -344q0 -164 -83.5 -313.5t-232 -243.5t-323.5 -94zM610 57q148 0 274.5 81.5t198.5 212.5t72 275q0 183 -113.5 298t-297.5 115q-149 0 -276.5 -82.5t-199 -213 t-71.5 -273.5q0 -183 114 -298t299 -115z" />
<glyph unicode="p" horiz-adv-x="1395" d="M1294 655q0 -129 -46.5 -251t-126 -215t-193.5 -149.5t-241 -56.5q-80 0 -149.5 20.5t-119.5 54.5t-89.5 80.5t-63 96t-34.5 103.5h-1l-231 -877h-80l430 1632h79l-67 -257h1q69 108 201.5 192.5t289.5 84.5q193 0 317 -130t124 -328zM680 57q115 0 216 51.5t168.5 134.5 t106.5 188t39 213q0 172 -103.5 283.5t-265.5 111.5q-114 0 -221.5 -53.5t-182.5 -136t-120 -184t-45 -197.5q0 -177 113 -294t295 -117z" />
<glyph unicode="q" horiz-adv-x="1394" d="M112 439q0 103 29.5 203t84.5 184.5t129 149t168 101t196 36.5q99 0 181 -30.5t136.5 -82t88.5 -112.5t49 -129h1l90 334h80l-430 -1632h-80l210 798h-1q-68 -108 -201 -192t-291 -84q-191 0 -315.5 129.5t-124.5 326.5zM727 1039q-115 0 -216 -51.5t-169 -134.5 t-107 -188.5t-39 -213.5q0 -172 103.5 -283t265.5 -111q114 0 221.5 53.5t182.5 136t120 184t45 197.5q0 177 -112.5 294t-294.5 117z" />
<glyph unicode="r" horiz-adv-x="722" d="M852 1108l-21 -83h-5q-98 0 -188.5 -39.5t-158 -105t-116 -145.5t-71.5 -165l-151 -570h-80l287 1093h81l-74 -279l1 1q72 127 213.5 212t282.5 81z" />
<glyph unicode="s" horiz-adv-x="1004" d="M577 1113q75 0 137.5 -20t103.5 -51t70.5 -71.5t44 -79t18.5 -75.5l-76 -20q-4 29 -14.5 58t-34 63t-55 59.5t-83 43t-114.5 17.5q-73 0 -137.5 -23.5t-109.5 -77.5t-45 -129q0 -35 14.5 -64.5t42 -51.5t53.5 -37t63 -31l149 -63q230 -99 230 -262q0 -77 -32.5 -139 t-87.5 -100t-122 -58t-140 -20q-104 0 -184.5 34t-125.5 88.5t-67.5 114t-22.5 118.5l79 19q-1 -51 16.5 -101.5t53.5 -95.5t101.5 -73t151.5 -28q75 0 141 24t112 79.5t46 132.5q0 38 -16.5 70.5t-47 57t-60 41t-69.5 33.5l-140 60q-46 20 -81.5 41.5t-68.5 51t-51 68 t-18 84.5q0 99 56.5 172t140 107t179.5 34z" />
<glyph unicode="t" horiz-adv-x="694" d="M742 1020h-281l-191 -726q-15 -57 -15 -104q0 -71 42.5 -98t118.5 -27q34 0 87 11l-20 -76q-51 -11 -84 -11q-226 0 -226 194q0 49 20 125l187 712h-208l19 73h208l82 312h82l-84 -312h282z" />
<glyph unicode="u" d="M938 237l5 17q-74 -117 -185.5 -195.5t-256.5 -78.5q-169 0 -261.5 95.5t-92.5 247.5q0 77 25 170l159 600h80l-161 -608q-21 -78 -21 -156q0 -128 73 -201t218 -73q150 0 289 116.5t190 305.5l163 616h81l-220 -837q-43 -162 -42 -256h-80q0 95 37 237z" />
<glyph unicode="v" horiz-adv-x="1148" d="M1242 1093l-764 -1093h-83l-193 1093h82l170 -1003l696 1003h92z" />
<glyph unicode="w" horiz-adv-x="1753" d="M1754 1093h88l-671 -1093h-84l-92 981l-607 -981h-82l-102 1093h81l86 -993l611 993h80l89 -993z" />
<glyph unicode="x" horiz-adv-x="1070" d="M590 557l299 -557h-87l-268 507l-524 -507h-104l596 567l-284 526h87l250 -478l495 478h104z" />
<glyph unicode="y" horiz-adv-x="1181" d="M1279 1093l-1133 -1632h-98l380 541l-233 1091h86l208 -1009l694 1009h96z" />
<glyph unicode="z" horiz-adv-x="1005" d="M809 71l-19 -71h-857l18 69l1000 953h-731l19 71h835l-18 -68l-997 -954h750z" />
<glyph unicode="{" horiz-adv-x="822" d="M276 161q-19 -47 -30.5 -79.5t-18.5 -66.5t-4.5 -56t13.5 -43t34.5 -33.5t59 -22.5t85 -14t115.5 -4h41l-18 -71h-50q-88 0 -153.5 11t-106.5 29.5t-64 49t-30.5 62.5t-0.5 77t20 87t36 97l89 217q35 85 35.5 149.5t-29 101t-74.5 54.5t-105 18h-25l19 71h17 q60 0 115.5 18t105.5 55t84.5 101t44.5 149l27 233q9 78 23.5 132t48 108t86 86t139 51.5t205.5 19.5h63l-18 -71h-36q-105 0 -177.5 -13.5t-119 -37.5t-74.5 -68t-41 -92t-22 -123l-26 -220q-36 -318 -319 -362l-1 -2q54 -12 90.5 -37.5t52 -60t21 -71.5t-1.5 -78.5 t-16 -73.5t-22 -64z" />
<glyph unicode="|" horiz-adv-x="536" d="M29 -238l543 2063h78l-543 -2063h-78z" />
<glyph unicode="}" horiz-adv-x="822" d="M672 1359q22 54 34 90t18 72.5t-2 59t-27.5 43t-56.5 31t-91 16.5t-130 6h-41l19 71h50q88 0 153 -11t106.5 -29.5t64 -48.5t30 -62.5t1 -77.5t-19.5 -87t-36 -97l-89 -217q-35 -85 -35.5 -149t28.5 -101t74.5 -55t105.5 -18h24l-18 -71h-17q-60 0 -116 -18t-106 -55 t-84.5 -101t-44.5 -149l-27 -233q-9 -78 -23.5 -132t-48 -108t-86 -86t-139 -51.5t-205.5 -19.5h-63l19 71h35q105 0 178 13.5t119 37.5t74 68t41 92t22 123l26 221q36 317 320 361v3q-64 13 -103 47.5t-51.5 75.5t-9.5 92.5t13.5 90.5t26.5 78z" />
<glyph unicode="~" horiz-adv-x="1281" d="M439 791q48 0 98 -18t82.5 -37.5t81.5 -53.5q50 -35 72 -49.5t62 -31t74 -16.5q53 0 93 22t84 65l48 -49q-42 -53 -103 -84.5t-126 -31.5q-39 0 -82.5 16t-72 32.5t-75.5 48.5q-102 70 -145 88q-50 22 -96 22q-52 0 -92.5 -22.5t-84.5 -65.5l-48 49q42 53 103 84.5 t127 31.5z" />
<glyph unicode="&#xa1;" horiz-adv-x="484" d="M384 1113q32 0 52.5 -20t20.5 -52q0 -38 -26 -65t-64 -27q-32 0 -53 21t-21 53q0 38 26.5 64t64.5 26zM-73 -509l315 1178h74l-306 -1178h-83z" />
<glyph unicode="&#xa2;" horiz-adv-x="1293" d="M555 -16l-51 -193h-81l54 207q-160 40 -255.5 165.5t-95.5 305.5q0 163 83.5 311.5t228.5 240.5t310 92q15 0 23 -1l50 192h81l-53 -200q145 -26 240.5 -122t118.5 -237l-76 -25q-18 120 -97.5 203.5t-206.5 107.5l-255 -972q32 -2 48 -2q148 0 271.5 83t185.5 220 l71 -31q-73 -163 -215.5 -255.5t-320.5 -92.5q-29 0 -58 3zM212 471q0 -151 77.5 -257.5t210.5 -141.5l253 966q-2 0 -6.5 0.5t-7.5 0.5q-104 0 -202.5 -48.5t-169 -127t-113 -182t-42.5 -210.5z" />
<glyph unicode="&#xa3;" horiz-adv-x="1281" d="M1066 381l82 -15q-28 -161 -145.5 -263.5t-280.5 -102.5h-726l22 80q229 150 326.5 294t97.5 306q0 31 -3 64h-244l21 77h215q-3 22 -11 71t-12 77t-7.5 69t-3.5 75q0 223 127.5 364t347.5 141q131 0 230 -58t138 -163q28 -73 26 -141l-1 -19l-80 -11v21q0 140 -86.5 218 t-229.5 78q-185 0 -286 -121t-101 -309q0 -44 5 -90t15.5 -112.5t13.5 -89.5h451l-21 -77h-421q2 -40 2 -59q0 -103 -37 -200t-99.5 -173.5t-125.5 -132t-135 -102.5h585q135 0 231 85t120 219z" />
<glyph unicode="&#xa4;" horiz-adv-x="1537" d="M273 -12l-56 55l197 197q-123 133 -123 313q0 179 122 314l-196 196l56 56l197 -198q135 106 308 106q172 0 308 -105l197 197l55 -56l-194 -194q127 -135 127 -316q0 -180 -127 -315l194 -195l-55 -55l-198 198q-135 -103 -307 -103q-173 0 -307 104zM1186 553 q0 172 -119 286t-289 114q-169 0 -286.5 -113.5t-117.5 -286.5q0 -172 117 -283.5t287 -111.5t289 111.5t119 283.5z" />
<glyph unicode="&#xa5;" horiz-adv-x="1466" d="M867 746h421l-20 -74h-466l-77 -289h466l-20 -75h-466l-82 -308h-85l83 308h-470l20 75h470l77 289h-470l20 74h438l-340 858h91l326 -839l773 839h111z" />
<glyph unicode="&#xa6;" horiz-adv-x="529" d="M569 1825h78l-210 -799h-78zM26 -238l210 800h78l-210 -800h-78z" />
<glyph unicode="&#xa7;" horiz-adv-x="1304" d="M1008 262q0 -121 -109 -200t-275 -79q-192 0 -327.5 95t-165.5 235l81 20q23 -115 133.5 -195.5t283.5 -80.5q131 0 214.5 58.5t83.5 144.5q0 94 -115 162q-28 17 -65 34t-56 24.5t-72 27t-61 22.5q-68 25 -111 42.5t-97 46.5t-85 58t-53 71t-22 91q0 124 120.5 200.5 t325.5 69.5v2q-183 92 -183 228q0 121 109 200t274 79t293 -82.5t161 -207.5l-81 -20q-27 98 -130.5 167.5t-245.5 69.5q-131 0 -214 -58.5t-83 -144.5q0 -94 115 -162q27 -17 64 -34t56 -24.5t72.5 -27.5t60.5 -22q47 -17 78.5 -29.5t74 -31.5t70 -36t57.5 -41t47 -48.5 t28.5 -56t11.5 -66.5q0 -124 -119.5 -200.5t-324.5 -69.5v-3q181 -90 181 -228zM1192 756q0 72 -69 129t-248 118q-138 47 -259 47q-160 0 -253.5 -60.5t-93.5 -144.5q0 -72 70 -128.5t249 -117.5q134 -47 260 -47q159 0 251.5 60.5t92.5 143.5z" />
<glyph unicode="&#xa8;" horiz-adv-x="429" d="M281 1369q-32 0 -52.5 20.5t-20.5 52.5q0 38 25.5 64.5t63.5 26.5q32 0 52 -20.5t20 -52.5q0 -38 -25.5 -64.5t-62.5 -26.5zM603 1369q-32 0 -52 20.5t-20 52.5q0 38 25.5 64.5t62.5 26.5q32 0 52.5 -20.5t20.5 -52.5q0 -38 -26 -64.5t-63 -26.5z" />
<glyph unicode="&#xa9;" horiz-adv-x="1909" d="M1027 -14q-218 0 -403 109.5t-292.5 297.5t-107.5 410q0 167 63.5 318t171 260.5t256 174t312.5 64.5t313 -64.5t257.5 -174t172.5 -261t64 -317.5q0 -222 -108.5 -410t-294.5 -297.5t-404 -109.5zM1027 1552q-199 0 -367.5 -100t-266.5 -272.5t-98 -376.5 q0 -152 58 -290.5t156 -238t233.5 -158t284.5 -58.5q150 0 285.5 58.5t233.5 158t156 237.5t58 291q0 204 -98 376.5t-266.5 272.5t-368.5 100zM1491 619q-21 -62 -58.5 -116.5t-92.5 -100.5t-132 -73t-166 -27q-204 0 -345 145t-141 354q0 137 64.5 253t177 183.5 t246.5 67.5q159 0 283.5 -90.5t160.5 -220.5l-71 -24q-9 35 -35 76.5t-70 85t-115.5 72.5t-154.5 29q-114 0 -208.5 -60t-146.5 -157.5t-52 -209.5q0 -111 51.5 -209.5t146.5 -160.5t211 -62q69 0 129 20.5t99.5 50t72 68t49 69.5t26.5 61z" />
<glyph unicode="&#xaa;" horiz-adv-x="1174" d="M1057 971q-29 -114 -28 -181h-73q0 74 27 175h-4q-52 -78 -132.5 -132.5t-188.5 -54.5q-136 0 -224.5 91.5t-88.5 229.5q0 120 55 227t154 174t218 67q69 0 123 -20.5t89 -56t56.5 -75.5t32.5 -88h4l60 226h74zM777 1497q-101 0 -183.5 -57.5t-126.5 -146.5t-44 -186 q0 -113 68.5 -185.5t174.5 -72.5q101 0 190.5 59.5t139.5 146.5t50 172q0 117 -74 193.5t-195 76.5zM969 467h-757l18 70h757z" />
<glyph unicode="&#xab;" horiz-adv-x="1133" d="M135 617l469 364l45 -58l-410 -318l233 -301l-58 -45zM564 617l469 364l46 -58l-411 -318l233 -301l-58 -45z" />
<glyph unicode="&#xac;" horiz-adv-x="1322" d="M1192 988h-952l16 61h1018l-131 -499h-66z" />
<glyph unicode="&#xad;" horiz-adv-x="939" d="M791 610h-601l20 79h601z" />
<glyph unicode="&#xae;" horiz-adv-x="1305" d="M797 563q-141 0 -261 71t-189.5 192.5t-69.5 265.5q0 108 41 205.5t111 168t166 112.5t202 42q142 0 262 -70.5t190 -192t70 -265.5t-70 -265.5t-190 -192.5t-262 -71zM797 1563q-124 0 -229 -63.5t-166 -172t-61 -235.5q0 -194 133.5 -332.5t322.5 -138.5t323 138 t134 333q0 194 -134 332.5t-323 138.5zM968 788l-168 245h-125v-245h-63v606h210q104 0 158 -50t54 -126q0 -74 -47 -119t-119 -55l176 -256h-76zM970 1215q0 51 -36.5 85.5t-116.5 34.5h-142v-244h141q77 0 115.5 36.5t38.5 87.5z" />
<glyph unicode="&#xb0;" horiz-adv-x="955" d="M1021 1298q0 -165 -112.5 -280t-276.5 -115q-138 0 -228.5 88.5t-90.5 231.5q0 162 112.5 279.5t274.5 117.5q138 0 229.5 -90.5t91.5 -231.5zM950 1299q0 105 -71.5 177.5t-180.5 72.5q-92 0 -165 -48t-111 -122.5t-38 -158.5q0 -107 71 -177t180 -70q136 0 225.5 97 t89.5 229z" />
<glyph unicode="&#xb1;" horiz-adv-x="1306" d="M642 308h-80l117 444h-453l19 74h453l116 438h79l-115 -438h441l-19 -74h-441zM1002 0h-974l19 73h974z" />
<glyph unicode="&#xb2;" horiz-adv-x="944" d="M250 871q46 222 319 356l192 94q202 99 202 239q0 84 -54.5 140t-157.5 56q-65 0 -115.5 -25.5t-78 -65.5t-41 -81.5t-13.5 -80.5l-76 8q0 50 20 102.5t58.5 100.5t104 79t145.5 31q134 0 210 -78.5t76 -184.5q0 -92 -64.5 -167.5t-178.5 -131.5l-193 -95 q-88 -44 -149.5 -96.5t-94.5 -128.5h545l-18 -71h-638z" />
<glyph unicode="&#xb3;" horiz-adv-x="884" d="M562 850q-74 0 -133 27.5t-92.5 70.5t-49.5 89.5t-14 89.5l75 15q-3 -52 17 -100.5t72 -85t127 -36.5q112 0 190.5 65t78.5 175q0 187 -241 187h-17l-19 64l388 324h-501l18 70h599l-19 -74l-382 -320q78 -6 138 -40q113 -64 113 -209q0 -98 -51.5 -170.5t-129 -107 t-167.5 -34.5z" />
<glyph unicode="&#xb4;" horiz-adv-x="381" d="M210 1280l323 353h99l-341 -353h-81z" />
<glyph unicode="&#xb5;" horiz-adv-x="1363" d="M452 1093l-161 -608q-23 -86 -23 -156q0 -127 73.5 -200.5t219.5 -73.5q150 0 289.5 116.5t189.5 305.5l163 616h82l-221 -837q-43 -162 -42 -256h-80q0 18 1 35.5t3.5 37t4.5 33t7 35.5t7 31t8 34t7 31l4 17q-74 -117 -185.5 -195.5t-256.5 -78.5q-134 0 -215 61.5 t-108 168.5h-1l-144 -546h-79l377 1429h80z" />
<glyph unicode="&#xb6;" horiz-adv-x="992" d="M508 0l203 767q-212 4 -328 99.5t-116 261.5q0 221 167.5 348.5t455.5 127.5h127l-423 -1604h-86z" />
<glyph unicode="&#xb7;" horiz-adv-x="516" d="M279 557q-35 0 -57.5 22t-22.5 57q0 41 28.5 70t68.5 29q35 0 58 -22t23 -57q0 -41 -28.5 -70t-69.5 -29z" />
<glyph unicode="&#xb9;" horiz-adv-x="646" d="M556 871h-76l222 852l-337 -151l-24 59l385 174l76 -1z" />
<glyph unicode="&#xba;" horiz-adv-x="1162" d="M1151 1232q0 -115 -58 -219t-161.5 -169.5t-225.5 -65.5q-149 0 -245 95t-96 240q0 84 34 166.5t92 146t142 102.5t176 39q149 0 245.5 -95t96.5 -240zM1072 1224q0 122 -73 198t-197 76q-147 0 -253.5 -115t-106.5 -260q0 -122 75 -198.5t197 -76.5q148 0 253 114 t105 262zM955 467h-765l18 70h766z" />
<glyph unicode="&#xbb;" horiz-adv-x="1131" d="M617 623l-468 -364l-46 58l411 318l-234 301l59 45zM1047 623l-469 -364l-46 58l411 318l-233 301l58 45z" />
<glyph unicode="&#xbc;" horiz-adv-x="1694" d="M244 0h-96l1389 1604h93zM532 671h-77l223 851l-337 -151l-25 59l385 174h76zM1359 206l-55 -206h-74l55 206h-516l20 76l682 654h79l-174 -662h160l-18 -68h-159zM1447 825l-574 -551h429z" />
<glyph unicode="&#xbd;" horiz-adv-x="1821" d="M244 0h-96l1389 1604h93zM532 671h-77l223 851l-337 -151l-25 59l385 174h76zM947 0q45 221 318 356l192 94q203 100 203 239q0 84 -55 140t-157 56q-53 0 -96.5 -17.5t-71 -44.5t-46 -61.5t-26.5 -67t-8 -62.5l-76 8q0 50 20 102.5t58 100.5t103.5 78.5t145.5 30.5 q134 0 210.5 -78t76.5 -184q0 -91 -65 -167t-179 -132l-193 -95q-184 -90 -243 -225h545l-19 -71h-637z" />
<glyph unicode="&#xbe;" horiz-adv-x="1894" d="M489 649q-74 0 -133 27.5t-92.5 70.5t-49.5 89.5t-14 89.5l75 15q-3 -52 17 -100.5t72 -85t127 -36.5q112 0 190.5 65t78.5 175q0 187 -241 187h-17l-19 64l388 324h-501l18 70h599l-19 -74l-382 -320q78 -6 138 -40q113 -64 113 -209q0 -144 -104 -228t-244 -84zM451 0 h-96l1389 1604h93zM1566 206l-55 -206h-74l55 206h-516l20 76l682 654h79l-174 -662h160l-18 -68h-159zM1654 825l-574 -551h429z" />
<glyph unicode="&#xbf;" horiz-adv-x="1103" d="M766 1031q0 -34 -23 -57.5t-56 -23.5t-56 23.5t-23 57.5t23 58t56 24t56 -24t23 -58zM635 669q-15 -79 -56 -149.5t-100.5 -128t-117.5 -103.5t-128.5 -101t-112.5 -96q-120 -118 -120 -256q0 -123 97.5 -203t238.5 -80q96 0 180 35.5t139.5 93t87 130t31.5 146.5l85 -7 q-8 -198 -158 -337t-371 -139q-173 0 -295 102.5t-122 254.5q0 163 140 309q42 44 107.5 95.5t121 93.5t111 92.5t96.5 113.5t60 134h86z" />
<glyph unicode="&#xc0;" horiz-adv-x="1548" d="M980 2103l138 -353h-65l-155 353h82zM1313 0h84l-279 1604h-90l-1141 -1604h95l325 457h928zM362 534l694 979l167 -979h-861z" />
<glyph unicode="&#xc1;" horiz-adv-x="1548" d="M1035 1750l323 353h99l-341 -353h-81zM1313 0h84l-279 1604h-90l-1141 -1604h95l325 457h928zM362 534l694 979l167 -979h-861z" />
<glyph unicode="&#xc2;" horiz-adv-x="1548" d="M1313 0h84l-279 1604h-90l-1141 -1604h95l325 457h928zM362 534l694 979l167 -979h-861zM1170 2041l-315 -291h-87l364 353h89l181 -352h-73z" />
<glyph unicode="&#xc3;" horiz-adv-x="1548" d="M1515 1929q-33 -74 -85 -125.5t-119 -51.5q-39 0 -79 21.5t-67 47.5t-64.5 47.5t-72.5 21.5q-84 0 -149 -126l-54 25q85 171 211 171q43 0 84.5 -21.5t68.5 -47t62.5 -47t67.5 -21.5q45 0 82 37.5t61 87.5zM1313 0h84l-279 1604h-90l-1141 -1604h95l325 457h928zM362 534 l694 979l167 -979h-861z" />
<glyph unicode="&#xc4;" horiz-adv-x="1548" d="M876 1921q0 34 23 58t56 24t56 -24t23 -58t-23 -58t-56 -24t-56 24t-23 58zM1218 1921q0 34 23.5 58t55.5 24q33 0 56.5 -24t23.5 -58t-23.5 -58t-56.5 -24q-32 0 -55.5 24t-23.5 58zM1313 0h84l-279 1604h-90l-1141 -1604h95l325 457h928zM362 534l694 979l167 -979 h-861z" />
<glyph unicode="&#xc5;" horiz-adv-x="1548" d="M1290 1756q0 -77 -45 -136t-116 -79l268 -1541h-84l-78 457h-928l-325 -457h-95l1101 1547q-48 21 -76 64.5t-28 101.5q0 93 64.5 159.5t157.5 66.5q79 0 131.5 -51.5t52.5 -131.5zM1219 1753q0 50 -33.5 84.5t-84.5 34.5q-61 0 -104 -48t-43 -109q0 -51 33.5 -84.5 t84.5 -33.5q62 0 104.5 47t42.5 109zM362 534h861l-167 979z" />
<glyph unicode="&#xc6;" horiz-adv-x="2105" d="M363 457l-399 -457h-103l1399 1604h998l-21 -77h-835l-179 -670h765l-21 -78h-766l-187 -702h846l-21 -77h-930l123 457h-669zM1318 1527h-26l-863 -993h623z" />
<glyph unicode="&#xc7;" horiz-adv-x="1739" d="M817 0q12 -10 17 -16q-138 6 -256.5 61t-203.5 146t-133 218.5t-48 274.5q0 183 72 355t194 300t292.5 205t357.5 77q156 0 295 -65.5t236 -189t121 -282.5l-79 -24q-33 214 -197.5 349t-386.5 135q-167 0 -319.5 -72t-261 -190t-173 -274.5t-64.5 -320.5 q0 -179 73 -321.5t210.5 -225t316.5 -82.5q243 0 424.5 132.5t280.5 352.5l77 -30q-97 -232 -291 -374.5t-458 -154.5q-5 6 -17 16h-79zM870 -17q-6 0 -18 0.5t-18 0.5q84 -82 84 -180q0 -100 -70.5 -163t-175.5 -63q-85 0 -165 31l-17 -63q69 -40 191 -40q134 0 224.5 79.5 t90.5 211.5q0 49 -23 99.5t-60 87.5q-7 0 -21.5 -0.5t-21.5 -0.5z" />
<glyph unicode="&#xc8;" horiz-adv-x="1338" d="M935 2103l138 -353h-65l-155 353h82zM210 77l187 702h803l21 78h-804l178 670h875l20 77h-957l-428 -1604h967l20 77h-882z" />
<glyph unicode="&#xc9;" horiz-adv-x="1338" d="M975 1750l323 353h99l-341 -353h-81zM105 0l428 1604h957l-20 -77h-875l-178 -670h804l-21 -78h-803l-187 -702h882l-20 -77h-967z" />
<glyph unicode="&#xca;" horiz-adv-x="1338" d="M105 0l428 1604h957l-20 -77h-875l-178 -670h804l-21 -78h-803l-187 -702h882l-20 -77h-967zM1122 2041l-315 -291h-87l364 353h89l181 -352h-73z" />
<glyph unicode="&#xcb;" horiz-adv-x="1338" d="M822 1921q0 34 23.5 58t56.5 24q32 0 55.5 -24t23.5 -58t-23.5 -58t-55.5 -24q-33 0 -56.5 24t-23.5 58zM1165 1921q0 34 23 58t56 24t56.5 -24t23.5 -58t-23.5 -58t-56.5 -24t-56 24t-23 58zM105 0l428 1604h957l-20 -77h-875l-178 -670h804l-21 -78h-803l-187 -702h882 l-20 -77h-967z" />
<glyph unicode="&#xcc;" horiz-adv-x="574" d="M489 2103l138 -353h-65l-155 353h82zM618 1604h-85l-428 -1604h84z" />
<glyph unicode="&#xcd;" horiz-adv-x="574" d="M565 1750l323 353h99l-341 -353h-81zM533 1604h85l-429 -1604h-84z" />
<glyph unicode="&#xce;" horiz-adv-x="574" d="M533 1604h85l-429 -1604h-84zM689 2041l-315 -291h-87l364 353h89l181 -352h-73z" />
<glyph unicode="&#xcf;" horiz-adv-x="574" d="M414 1921q0 34 23.5 58t56.5 24t56 -24t23 -58t-23 -58t-56 -24t-56.5 24t-23.5 58zM728 1921q0 34 23.5 58t55.5 24q33 0 56.5 -24t23.5 -58t-23.5 -58t-56.5 -24q-32 0 -55.5 24t-23.5 58zM533 1604h85l-429 -1604h-84z" />
<glyph unicode="&#xd0;" horiz-adv-x="1679" d="M133 0l208 779h-168l21 78h168l199 747h261q208 0 370.5 -57t266.5 -160q176 -175 176 -457q0 -186 -66 -345.5t-185 -278.5q-146 -147 -359 -226.5t-458 -79.5h-434zM1548 925q0 248 -154 405q-92 95 -238 146t-329 51h-202l-179 -670h557l-20 -78h-557l-188 -702h341 q459 0 738 276q112 111 171.5 258t59.5 314z" />
<glyph unicode="&#xd1;" horiz-adv-x="1752" d="M1566 1929q-33 -74 -85 -125.5t-119 -51.5q-39 0 -79 21.5t-67 47.5t-64.5 47.5t-72.5 21.5q-84 0 -149 -126l-54 25q85 171 211 171q43 0 84.5 -21.5t68.5 -47t62.5 -47t67.5 -21.5q45 0 82 37.5t61 87.5zM1796 1604h-84l-399 -1495l-680 1495h-100l-428 -1604h82 l402 1504l685 -1504h93z" />
<glyph unicode="&#xd2;" horiz-adv-x="1814" d="M1009 2103l138 -353h-65l-155 353h82zM868 -17q-147 0 -274.5 53t-216 145t-138.5 217.5t-50 267.5q0 146 45 288.5t128.5 261.5t194 210.5t249.5 143t286 51.5q197 0 353.5 -91t242 -246.5t85.5 -345.5q0 -146 -45.5 -288.5t-129 -261.5t-194.5 -210.5t-250 -143 t-286 -51.5zM871 58q168 0 321 74t260.5 195t171 280.5t63.5 326.5q0 171 -74 309.5t-211.5 219.5t-312.5 81q-135 0 -261 -47.5t-225.5 -131.5t-174.5 -193t-115 -239.5t-40 -264.5q0 -170 74.5 -308.5t212 -220t311.5 -81.5z" />
<glyph unicode="&#xd3;" horiz-adv-x="1814" d="M1063 1750l323 353h99l-341 -353h-81zM868 -17q-147 0 -274.5 53t-216 145t-138.5 217.5t-50 267.5q0 146 45 288.5t128.5 261.5t194 210.5t249.5 143t286 51.5q197 0 353.5 -91t242 -246.5t85.5 -345.5q0 -146 -45.5 -288.5t-129 -261.5t-194.5 -210.5t-250 -143 t-286 -51.5zM871 58q168 0 321 74t260.5 195t171 280.5t63.5 326.5q0 171 -74 309.5t-211.5 219.5t-312.5 81q-135 0 -261 -47.5t-225.5 -131.5t-174.5 -193t-115 -239.5t-40 -264.5q0 -170 74.5 -308.5t212 -220t311.5 -81.5z" />
<glyph unicode="&#xd4;" horiz-adv-x="1814" d="M868 -17q-147 0 -274.5 53t-216 145t-138.5 217.5t-50 267.5q0 146 45 288.5t128.5 261.5t194 210.5t249.5 143t286 51.5q197 0 353.5 -91t242 -246.5t85.5 -345.5q0 -146 -45.5 -288.5t-129 -261.5t-194.5 -210.5t-250 -143t-286 -51.5zM871 58q168 0 321 74t260.5 195 t171 280.5t63.5 326.5q0 171 -74 309.5t-211.5 219.5t-312.5 81q-135 0 -261 -47.5t-225.5 -131.5t-174.5 -193t-115 -239.5t-40 -264.5q0 -170 74.5 -308.5t212 -220t311.5 -81.5zM1193 2041l-315 -291h-87l364 353h89l181 -352h-73z" />
<glyph unicode="&#xd5;" horiz-adv-x="1814" d="M1489 1929q-33 -74 -85 -125.5t-119 -51.5q-39 0 -79 21.5t-67 47.5t-64.5 47.5t-72.5 21.5q-84 0 -149 -126l-54 25q85 171 211 171q43 0 84.5 -21.5t68.5 -47t62.5 -47t67.5 -21.5q45 0 82 37.5t61 87.5zM868 -17q-147 0 -274.5 53t-216 145t-138.5 217.5t-50 267.5 q0 146 45 288.5t128.5 261.5t194 210.5t249.5 143t286 51.5q197 0 353.5 -91t242 -246.5t85.5 -345.5q0 -146 -45.5 -288.5t-129 -261.5t-194.5 -210.5t-250 -143t-286 -51.5zM871 58q168 0 321 74t260.5 195t171 280.5t63.5 326.5q0 171 -74 309.5t-211.5 219.5t-312.5 81 q-135 0 -261 -47.5t-225.5 -131.5t-174.5 -193t-115 -239.5t-40 -264.5q0 -170 74.5 -308.5t212 -220t311.5 -81.5z" />
<glyph unicode="&#xd6;" horiz-adv-x="1814" d="M916 1921q0 34 23.5 58t55.5 24q33 0 56.5 -24t23.5 -58t-23.5 -58t-56.5 -24q-32 0 -55.5 24t-23.5 58zM1259 1921q0 34 23 58t56 24t56 -24t23 -58t-23 -58t-56 -24t-56 24t-23 58zM868 -17q-147 0 -274.5 53t-216 145t-138.5 217.5t-50 267.5q0 146 45 288.5 t128.5 261.5t194 210.5t249.5 143t286 51.5q197 0 353.5 -91t242 -246.5t85.5 -345.5q0 -146 -45.5 -288.5t-129 -261.5t-194.5 -210.5t-250 -143t-286 -51.5zM871 58q168 0 321 74t260.5 195t171 280.5t63.5 326.5q0 171 -74 309.5t-211.5 219.5t-312.5 81 q-135 0 -261 -47.5t-225.5 -131.5t-174.5 -193t-115 -239.5t-40 -264.5q0 -170 74.5 -308.5t212 -220t311.5 -81.5z" />
<glyph unicode="&#xd7;" horiz-adv-x="1165" d="M662 644l295 -404l-58 -44l-294 401l-484 -402l-46 58l486 404l-309 422l59 45l307 -420l505 420l46 -59z" />
<glyph unicode="&#xd8;" horiz-adv-x="1814" d="M1603 1404q82 -92 126 -211.5t44 -254.5q0 -146 -45.5 -288.5t-129 -261.5t-194.5 -210.5t-250 -143t-286 -51.5q-289 0 -478 187l-195 -198l-55 54l198 201q-149 185 -149 439q0 146 45 288.5t128.5 261.5t194 210.5t249.5 143t286 51.5q270 0 455 -163l171 175l55 -54z M1089 1544q-135 0 -261 -47.5t-225.5 -131.5t-174.5 -193t-115 -239.5t-40 -264.5q0 -222 122 -383l1096 1114q-162 145 -402 145zM871 58q168 0 321 74t260.5 195t171 280.5t63.5 326.5q0 246 -143 412l-1099 -1120q168 -168 426 -168z" />
<glyph unicode="&#xd9;" horiz-adv-x="1603" d="M1013 2103l138 -353h-65l-155 353h82zM1322 622q-71 -268 -211 -409q-152 -153 -369 -153q-201 0 -316 101t-115 284q0 100 28 203l254 956h-85l-245 -928q-35 -135 -35 -239q0 -216 137.5 -335.5t371.5 -119.5q256 0 435 179q151 151 231 448l266 995h-85z" />
<glyph unicode="&#xda;" horiz-adv-x="1603" d="M1058 1750l323 353h99l-341 -353h-81zM1669 1604l-266 -995q-80 -297 -231 -448q-179 -179 -435 -179q-234 0 -371.5 119.5t-137.5 335.5q0 104 35 239l245 928h85l-254 -956q-28 -103 -28 -203q0 -183 115 -284t316 -101q217 0 369 153q140 141 211 409l262 982h85z" />
<glyph unicode="&#xdb;" horiz-adv-x="1603" d="M1669 1604l-266 -995q-80 -297 -231 -448q-179 -179 -435 -179q-234 0 -371.5 119.5t-137.5 335.5q0 104 35 239l245 928h85l-254 -956q-28 -103 -28 -203q0 -183 115 -284t316 -101q217 0 369 153q140 141 211 409l262 982h85zM1196 2041l-315 -291h-87l364 353h89 l181 -352h-73z" />
<glyph unicode="&#xdc;" horiz-adv-x="1603" d="M915 1921q0 34 23.5 58t56.5 24q32 0 55.5 -24t23.5 -58t-23.5 -58t-55.5 -24q-33 0 -56.5 24t-23.5 58zM1258 1921q0 34 23 58t56 24t56 -24t23 -58t-23 -58t-56 -24t-56 24t-23 58zM1669 1604l-266 -995q-80 -297 -231 -448q-179 -179 -435 -179q-234 0 -371.5 119.5 t-137.5 335.5q0 104 35 239l245 928h85l-254 -956q-28 -103 -28 -203q0 -183 115 -284t316 -101q217 0 369 153q140 141 211 409l262 982h85z" />
<glyph unicode="&#xdd;" horiz-adv-x="1470" d="M926 1750l323 353h99l-341 -353h-81zM618 0h-85l187 697l-379 907h92l345 -839l793 839h111l-884 -927z" />
<glyph unicode="&#xde;" horiz-adv-x="1359" d="M830 1286q257 0 394 -109t137 -302q0 -245 -197.5 -389.5t-541.5 -144.5h-342l-91 -341h-84l428 1605h85l-86 -319h298zM1277 870q0 139 -85 224q-115 115 -364 115h-318l-211 -790h332q305 0 475.5 123.5t170.5 327.5z" />
<glyph unicode="&#xdf;" horiz-adv-x="1314" d="M1091 267q0 39 -12 72t-36.5 60t-44 43.5t-51.5 39.5l-65 46q-70 49 -106.5 98.5t-36.5 121.5q0 155 177 236l103 46q105 47 160 120t55 165q0 96 -45.5 162t-116 94.5t-159.5 28.5q-189 0 -296.5 -100.5t-158.5 -294.5l-318 -1205h-79l319 1214q59 224 186 341.5 t350 117.5q191 0 296.5 -103t105.5 -252q0 -67 -23 -126t-63.5 -102t-85 -74t-96.5 -55l-91 -41q-65 -30 -91 -56q-46 -45 -46 -113q0 -38 18.5 -71.5t36.5 -49.5t51 -40l68 -49q95 -68 135 -132t40 -139q0 -48 -19 -96t-58 -92.5t-109.5 -72t-161.5 -27.5q-78 0 -140 23.5 t-98.5 58.5t-60 79t-31.5 82t-6 70l77 5q-3 -32 9 -71t39.5 -79.5t83.5 -67.5t130 -27q126 0 195.5 63.5t69.5 148.5z" />
<glyph unicode="&#xe0;" horiz-adv-x="1397" d="M646 1633l138 -353h-65l-155 353h82zM1045 258l-5 -21q-38 -146 -38 -237h80q-1 87 42 255l221 838h-80l-90 -334h-1q-15 68 -49 129t-88.5 112.5t-136.5 82t-181 30.5q-102 0 -196 -36.5t-168 -101t-129 -149t-84.5 -184.5t-29.5 -203q0 -197 124.5 -326.5t315.5 -129.5 q158 0 291 83.5t201 191.5h1zM727 1039q182 0 294.5 -117t112.5 -294q0 -96 -45 -197.5t-120 -184t-182.5 -136t-221.5 -53.5q-162 0 -265.5 111t-103.5 283q0 108 39 213.5t107 188.5t169 134.5t216 51.5z" />
<glyph unicode="&#xe1;" horiz-adv-x="1397" d="M720 1280l323 353h99l-341 -353h-81zM1045 258l-5 -21q-38 -146 -38 -237h80q-1 87 42 255l221 838h-80l-90 -334h-1q-15 68 -49 129t-88.5 112.5t-136.5 82t-181 30.5q-102 0 -196 -36.5t-168 -101t-129 -149t-84.5 -184.5t-29.5 -203q0 -197 124.5 -326.5t315.5 -129.5 q158 0 291 83.5t201 191.5h1zM727 1039q182 0 294.5 -117t112.5 -294q0 -96 -45 -197.5t-120 -184t-182.5 -136t-221.5 -53.5q-162 0 -265.5 111t-103.5 283q0 108 39 213.5t107 188.5t169 134.5t216 51.5z" />
<glyph unicode="&#xe2;" horiz-adv-x="1397" d="M1045 258l-5 -21q-38 -146 -38 -237h80q-1 87 42 255l221 838h-80l-90 -334h-1q-15 68 -49 129t-88.5 112.5t-136.5 82t-181 30.5q-102 0 -196 -36.5t-168 -101t-129 -149t-84.5 -184.5t-29.5 -203q0 -197 124.5 -326.5t315.5 -129.5q158 0 291 83.5t201 191.5h1z M727 1039q182 0 294.5 -117t112.5 -294q0 -96 -45 -197.5t-120 -184t-182.5 -136t-221.5 -53.5q-162 0 -265.5 111t-103.5 283q0 108 39 213.5t107 188.5t169 134.5t216 51.5zM882 1571l-315 -291h-87l364 353h89l181 -352h-73z" />
<glyph unicode="&#xe3;" horiz-adv-x="1397" d="M1184 1459q-33 -74 -85 -125.5t-119 -51.5q-39 0 -79 21.5t-67 47.5t-64.5 47.5t-72.5 21.5q-84 0 -149 -126l-54 25q85 171 211 171q43 0 84.5 -21.5t68.5 -47t62.5 -47t67.5 -21.5q45 0 82 37.5t61 87.5zM1045 258l-5 -21q-38 -146 -38 -237h80q-1 87 42 255l221 838 h-80l-90 -334h-1q-15 68 -49 129t-88.5 112.5t-136.5 82t-181 30.5q-102 0 -196 -36.5t-168 -101t-129 -149t-84.5 -184.5t-29.5 -203q0 -197 124.5 -326.5t315.5 -129.5q158 0 291 83.5t201 191.5h1zM727 1039q182 0 294.5 -117t112.5 -294q0 -96 -45 -197.5t-120 -184 t-182.5 -136t-221.5 -53.5q-162 0 -265.5 111t-103.5 283q0 108 39 213.5t107 188.5t169 134.5t216 51.5z" />
<glyph unicode="&#xe4;" horiz-adv-x="1397" d="M693 1369q-32 0 -52.5 20.5t-20.5 52.5q0 38 25.5 64.5t63.5 26.5q32 0 52 -20.5t20 -52.5q0 -38 -25.5 -64.5t-62.5 -26.5zM1015 1369q-32 0 -52 20.5t-20 52.5q0 38 25.5 64.5t62.5 26.5q32 0 52.5 -20.5t20.5 -52.5q0 -38 -26 -64.5t-63 -26.5zM1045 258l-5 -21 q-38 -146 -38 -237h80q-1 87 42 255l221 838h-80l-90 -334h-1q-15 68 -49 129t-88.5 112.5t-136.5 82t-181 30.5q-102 0 -196 -36.5t-168 -101t-129 -149t-84.5 -184.5t-29.5 -203q0 -197 124.5 -326.5t315.5 -129.5q158 0 291 83.5t201 191.5h1zM727 1039q182 0 294.5 -117 t112.5 -294q0 -96 -45 -197.5t-120 -184t-182.5 -136t-221.5 -53.5q-162 0 -265.5 111t-103.5 283q0 108 39 213.5t107 188.5t169 134.5t216 51.5z" />
<glyph unicode="&#xe5;" horiz-adv-x="1397" d="M1057 1463q0 -94 -64.5 -160t-158.5 -66q-79 0 -131 51t-52 132q0 93 64.5 159.5t157.5 66.5q79 0 131.5 -51.5t52.5 -131.5zM986 1460q0 50 -33.5 84.5t-84.5 34.5q-61 0 -104 -48t-43 -109q0 -51 33.5 -84.5t84.5 -33.5q62 0 104.5 47t42.5 109zM1045 258l-5 -21 q-38 -146 -38 -237h80q-1 87 42 255l221 838h-80l-90 -334h-1q-15 68 -49 129t-88.5 112.5t-136.5 82t-181 30.5q-102 0 -196 -36.5t-168 -101t-129 -149t-84.5 -184.5t-29.5 -203q0 -197 124.5 -326.5t315.5 -129.5q158 0 291 83.5t201 191.5h1zM727 1039q182 0 294.5 -117 t112.5 -294q0 -96 -45 -197.5t-120 -184t-182.5 -136t-221.5 -53.5q-162 0 -265.5 111t-103.5 283q0 108 39 213.5t107 188.5t169 134.5t216 51.5z" />
<glyph unicode="&#xe6;" horiz-adv-x="1964" d="M833 533l-297 -8q-75 -2 -140.5 -16t-127 -43.5t-97.5 -83.5t-36 -128q0 -89 74.5 -144t184.5 -55q144 0 264 86t184 217q-12 56 -12 117q0 29 3 58zM388 -19q-89 0 -164 29.5t-124 92.5t-49 150q0 71 27.5 129t73.5 96t108.5 64.5t129.5 39t140 14.5l315 8 q29 133 108 244q-16 85 -90 138t-179 53q-80 0 -148 -23t-111.5 -55.5t-77.5 -75t-50 -75.5t-25 -63l-76 25q11 37 32 77.5t62 89t94 86t133 63t172 25.5q112 0 199 -51.5t120 -144.5q84 91 191.5 143.5t224.5 52.5q214 0 328.5 -124.5t114.5 -339.5q0 -40 -10 -116h-943 q-3 -27 -3 -55q0 -185 112.5 -303t292.5 -118q290 0 438 275l66 -37q-172 -313 -511 -313q-154 0 -269.5 76.5t-169.5 207.5q-81 -129 -209 -207t-273 -78zM1785 650q0 179 -94 284t-273 105q-106 0 -214 -60.5t-185 -161t-96 -211.5h860q2 30 2 44z" />
<glyph unicode="&#xe7;" horiz-adv-x="1265" d="M609 57q148 0 271.5 83t185.5 220l71 -31q-68 -153 -199 -244.5t-296 -102.5q36 -37 58.5 -87t22.5 -98q0 -132 -90.5 -211.5t-224.5 -79.5q-122 0 -191 40l17 63q80 -31 165 -31q105 0 175.5 63t70.5 163q0 96 -82 178q-199 13 -324 146.5t-125 340.5q0 163 83.5 311.5 t228.5 240.5t310 92q184 0 308.5 -101.5t151.5 -266.5l-76 -25q-21 141 -125.5 230t-267.5 89q-104 0 -202.5 -48.5t-169 -127t-113 -182t-42.5 -210.5q0 -184 113 -299t296 -115z" />
<glyph unicode="&#xe8;" horiz-adv-x="1251" d="M616 1633l138 -353h-65l-155 353h82zM1144 533q10 76 10 116q0 215 -114.5 339.5t-328.5 124.5q-118 0 -229 -55t-190.5 -143.5t-127.5 -204.5t-48 -235q0 -213 134 -353t346 -140q339 0 511 313l-66 37q-148 -275 -438 -275q-180 0 -292 119t-112 302q0 28 3 55h942z M1070 606h-859q19 109 95.5 210t184.5 162t214 61q179 0 273 -105t94 -284q0 -14 -2 -44z" />
<glyph unicode="&#xe9;" horiz-adv-x="1251" d="M677 1280l323 353h99l-341 -353h-81zM1144 533q10 76 10 116q0 215 -114.5 339.5t-328.5 124.5q-118 0 -229 -55t-190.5 -143.5t-127.5 -204.5t-48 -235q0 -213 134 -353t346 -140q339 0 511 313l-66 37q-148 -275 -438 -275q-180 0 -292 119t-112 302q0 28 3 55h942z M1070 606h-859q19 109 95.5 210t184.5 162t214 61q179 0 273 -105t94 -284q0 -14 -2 -44z" />
<glyph unicode="&#xea;" horiz-adv-x="1251" d="M1144 533q10 76 10 116q0 215 -114.5 339.5t-328.5 124.5q-118 0 -229 -55t-190.5 -143.5t-127.5 -204.5t-48 -235q0 -213 134 -353t346 -140q339 0 511 313l-66 37q-148 -275 -438 -275q-180 0 -292 119t-112 302q0 28 3 55h942zM1070 606h-859q19 109 95.5 210 t184.5 162t214 61q179 0 273 -105t94 -284q0 -14 -2 -44zM822 1571l-315 -291h-87l364 353h89l181 -352h-73z" />
<glyph unicode="&#xeb;" horiz-adv-x="1251" d="M604 1369q-32 0 -52.5 20.5t-20.5 52.5q0 38 25.5 64.5t63.5 26.5q32 0 52 -20.5t20 -52.5q0 -38 -25.5 -64.5t-62.5 -26.5zM926 1369q-32 0 -52 20.5t-20 52.5q0 38 25.5 64.5t62.5 26.5q32 0 52.5 -20.5t20.5 -52.5q0 -38 -26 -64.5t-63 -26.5zM1144 533q10 76 10 116 q0 215 -114.5 339.5t-328.5 124.5q-118 0 -229 -55t-190.5 -143.5t-127.5 -204.5t-48 -235q0 -213 134 -353t346 -140q339 0 511 313l-66 37q-148 -275 -438 -275q-180 0 -292 119t-112 302q0 28 3 55h942zM1070 606h-859q19 109 95.5 210t184.5 162t214 61q179 0 273 -105 t94 -284q0 -14 -2 -44z" />
<glyph unicode="&#xec;" horiz-adv-x="480" d="M298 1633l138 -353h-65l-155 353h82zM349 1093l-288 -1093h82l288 1093h-82z" />
<glyph unicode="&#xed;" horiz-adv-x="480" d="M381 1280l323 353h99l-341 -353h-81zM61 0l288 1093h82l-288 -1093h-82z" />
<glyph unicode="&#xee;" horiz-adv-x="480" d="M61 0l288 1093h82l-288 -1093h-82zM500 1571l-315 -291h-87l364 353h89l181 -352h-73z" />
<glyph unicode="&#xef;" horiz-adv-x="480" d="M305 1369q-32 0 -52.5 20.5t-20.5 52.5q0 38 25.5 64.5t63.5 26.5q32 0 52 -20.5t20 -52.5q0 -38 -25.5 -64.5t-62.5 -26.5zM627 1369q-32 0 -52 20.5t-20 52.5q0 38 25.5 64.5t62.5 26.5q32 0 52.5 -20.5t20.5 -52.5q0 -38 -26 -64.5t-63 -26.5zM61 0l287 1093h82 l-287 -1093h-82z" />
<glyph unicode="&#xf0;" horiz-adv-x="1349" d="M1111 1203q134 -223 134 -476q0 -195 -46 -324q-66 -184 -225 -302.5t-368 -118.5q-212 0 -354 135.5t-142 333.5q0 120 49 234.5t131.5 201t198.5 139t241 52.5q133 0 246 -60.5t182 -175.5l2 1q-39 321 -305 547l-351 -165l-32 59l325 152q-149 110 -345 177l31 69 q227 -79 390 -211l278 130l31 -57l-254 -119q109 -100 183 -222zM610 57q114 0 217.5 46t175.5 122t114.5 177t42.5 207q0 118 -59 209t-157 138.5t-216 47.5q-110 0 -210 -45.5t-170 -121t-111.5 -175t-41.5 -205.5q0 -177 116 -288.5t299 -111.5z" />
<glyph unicode="&#xf1;" horiz-adv-x="1292" d="M1219 1459q-33 -74 -85 -125.5t-119 -51.5q-39 0 -79 21.5t-67 47.5t-64.5 47.5t-72.5 21.5q-84 0 -149 -126l-54 25q85 171 211 171q43 0 84.5 -21.5t68.5 -47t62.5 -47t67.5 -21.5q45 0 82 37.5t61 87.5zM803 1113q-146 0 -257.5 -78t-184.5 -196l67 254h-80 l-287 -1093h80l163 616q33 126 111.5 224t175 148t193.5 50q145 0 217 -73t72 -200q0 -86 -19 -157l-161 -608h80l157 600q27 100 27 170q0 153 -92.5 248t-261.5 95z" />
<glyph unicode="&#xf2;" horiz-adv-x="1341" d="M674 1633l138 -353h-65l-155 353h82zM601 -18q-214 0 -351 135.5t-137 344.5q0 121 49 238.5t132 209t203 147.5t252 56q214 0 352.5 -136t138.5 -344q0 -164 -83.5 -313.5t-232 -243.5t-323.5 -94zM610 57q148 0 274.5 81.5t198.5 212.5t72 275q0 183 -113.5 298 t-297.5 115q-149 0 -276.5 -82.5t-199 -213t-71.5 -273.5q0 -183 114 -298t299 -115z" />
<glyph unicode="&#xf3;" horiz-adv-x="1341" d="M721 1280l323 353h99l-341 -353h-81zM601 -18q-214 0 -351 135.5t-137 344.5q0 121 49 238.5t132 209t203 147.5t252 56q214 0 352.5 -136t138.5 -344q0 -164 -83.5 -313.5t-232 -243.5t-323.5 -94zM610 57q148 0 274.5 81.5t198.5 212.5t72 275q0 183 -113.5 298 t-297.5 115q-149 0 -276.5 -82.5t-199 -213t-71.5 -273.5q0 -183 114 -298t299 -115z" />
<glyph unicode="&#xf4;" horiz-adv-x="1341" d="M848 1571l-305 -291l-97 1l364 352h89l181 -352h-79zM601 -18q-214 0 -351 135.5t-137 344.5q0 121 49 238.5t132 209t203 147.5t252 56q214 0 352.5 -136t138.5 -344q0 -164 -83.5 -313.5t-232 -243.5t-323.5 -94zM610 57q148 0 274.5 81.5t198.5 212.5t72 275 q0 183 -113.5 298t-297.5 115q-149 0 -276.5 -82.5t-199 -213t-71.5 -273.5q0 -183 114 -298t299 -115z" />
<glyph unicode="&#xf5;" horiz-adv-x="1341" d="M1231 1459q-33 -74 -85 -125.5t-119 -51.5q-39 0 -79 21.5t-67 47.5t-64.5 47.5t-72.5 21.5q-84 0 -149 -126l-54 25q85 171 211 171q43 0 84.5 -21.5t68.5 -47t62.5 -47t67.5 -21.5q45 0 82 37.5t61 87.5zM601 -18q-214 0 -351 135.5t-137 344.5q0 121 49 238.5t132 209 t203 147.5t252 56q214 0 352.5 -136t138.5 -344q0 -164 -83.5 -313.5t-232 -243.5t-323.5 -94zM610 57q148 0 274.5 81.5t198.5 212.5t72 275q0 183 -113.5 298t-297.5 115q-149 0 -276.5 -82.5t-199 -213t-71.5 -273.5q0 -183 114 -298t299 -115z" />
<glyph unicode="&#xf6;" horiz-adv-x="1341" d="M657 1369q-32 0 -52.5 20.5t-20.5 52.5q0 38 25.5 64.5t63.5 26.5q32 0 52 -20.5t20 -52.5q0 -38 -25.5 -64.5t-62.5 -26.5zM979 1369q-32 0 -52 20.5t-20 52.5q0 38 25.5 64.5t62.5 26.5q32 0 52.5 -20.5t20.5 -52.5q0 -38 -26 -64.5t-63 -26.5zM601 -18 q-214 0 -351 135.5t-137 344.5q0 121 49 238.5t132 209t203 147.5t252 56q214 0 352.5 -136t138.5 -344q0 -164 -83.5 -313.5t-232 -243.5t-323.5 -94zM610 57q148 0 274.5 81.5t198.5 212.5t72 275q0 183 -113.5 298t-297.5 115q-149 0 -276.5 -82.5t-199 -213 t-71.5 -273.5q0 -183 114 -298t299 -115z" />
<glyph unicode="&#xf7;" horiz-adv-x="1371" d="M849 1089q-35 0 -56.5 21.5t-21.5 56.5q0 40 27.5 68t67.5 28q34 0 56 -21.5t22 -55.5q0 -41 -27.5 -69t-67.5 -28zM263 806h994l-19 -74h-994zM633 269q-35 0 -56.5 21.5t-21.5 55.5q0 40 27.5 68.5t67.5 28.5q34 0 56 -22t22 -56q0 -40 -27.5 -68t-67.5 -28z" />
<glyph unicode="&#xf8;" horiz-adv-x="1341" d="M1130 948q110 -132 110 -315q0 -164 -83.5 -313.5t-232 -243.5t-323.5 -94q-189 0 -322 109l-154 -156l-48 48l153 155q-117 131 -117 324q0 121 49 238.5t132 209t203 147.5t252 56q196 0 332 -118l149 150l47 -48zM197 470q0 -162 92 -274l739 745q-48 45 -123 71.5 t-161 26.5q-149 0 -276.5 -82.5t-199 -213t-71.5 -273.5zM1155 626q0 157 -83 265l-735 -742q108 -92 273 -92q148 0 274.5 81.5t198.5 212.5t72 275z" />
<glyph unicode="&#xf9;" d="M732 1633l138 -353h-65l-155 353h82zM943 254l-5 -17q-37 -142 -37 -237h80q-1 94 42 256l220 837h-81l-163 -616q-51 -189 -190 -305.5t-289 -116.5q-145 0 -218 73t-73 201q0 78 21 156l161 608h-80l-159 -600q-25 -93 -25 -170q0 -152 92.5 -247.5t261.5 -95.5 q145 0 256.5 78.5t185.5 195.5z" />
<glyph unicode="&#xfa;" d="M778 1280l323 353h99l-341 -353h-81zM943 254l-5 -17q-37 -142 -37 -237h80q-1 94 42 256l220 837h-81l-163 -616q-51 -189 -190 -305.5t-289 -116.5q-145 0 -218 73t-73 201q0 78 21 156l161 608h-80l-159 -600q-25 -93 -25 -170q0 -152 92.5 -247.5t261.5 -95.5 q145 0 256.5 78.5t185.5 195.5z" />
<glyph unicode="&#xfb;" d="M943 254l-5 -17q-37 -142 -37 -237h80q-1 94 42 256l220 837h-81l-163 -616q-51 -189 -190 -305.5t-289 -116.5q-145 0 -218 73t-73 201q0 78 21 156l161 608h-80l-159 -600q-25 -93 -25 -170q0 -152 92.5 -247.5t261.5 -95.5q145 0 256.5 78.5t185.5 195.5zM902 1571 l-315 -291h-87l364 353h89l181 -352h-73z" />
<glyph unicode="&#xfc;" d="M703 1369q-32 0 -52.5 20.5t-20.5 52.5q0 38 25.5 64.5t63.5 26.5q32 0 52 -20.5t20 -52.5q0 -38 -25.5 -64.5t-62.5 -26.5zM1025 1369q-32 0 -52 20.5t-20 52.5q0 38 25.5 64.5t62.5 26.5q32 0 52.5 -20.5t20.5 -52.5q0 -38 -26 -64.5t-63 -26.5zM943 254l-5 -17 q-37 -142 -37 -237h80q-1 94 42 256l220 837h-81l-163 -616q-51 -189 -190 -305.5t-289 -116.5q-145 0 -218 73t-73 201q0 78 21 156l161 608h-80l-159 -600q-25 -93 -25 -170q0 -152 92.5 -247.5t261.5 -95.5q145 0 256.5 78.5t185.5 195.5z" />
<glyph unicode="&#xfd;" horiz-adv-x="1181" d="M723 1280l323 353h99l-341 -353h-81zM48 -539l380 541l-233 1091h86l208 -1009l694 1009h96l-1133 -1632h-98z" />
<glyph unicode="&#xfe;" horiz-adv-x="1394" d="M1293 655q0 -129 -46.5 -251t-126 -215t-193.5 -149.5t-241 -56.5q-80 0 -149.5 20.5t-119.5 54.5t-89.5 80.5t-63 96t-34.5 103.5h-1l-231 -877h-80l581 2207h80l-219 -832h1q69 108 201.5 192.5t289.5 84.5q193 0 317 -130t124 -328zM679 57q115 0 216 51.5 t168.5 134.5t106.5 188t39 213q0 172 -103.5 283.5t-265.5 111.5q-114 0 -221.5 -53.5t-182.5 -136t-120 -184t-45 -197.5q0 -177 113 -294t295 -117z" />
<glyph unicode="&#xff;" horiz-adv-x="1181" d="M640 1369q-32 0 -52.5 20.5t-20.5 52.5q0 38 25.5 64.5t63.5 26.5q32 0 52 -20.5t20 -52.5q0 -38 -25.5 -64.5t-62.5 -26.5zM962 1369q-32 0 -52 20.5t-20 52.5q0 38 25.5 64.5t62.5 26.5q32 0 52.5 -20.5t20.5 -52.5q0 -38 -26 -64.5t-63 -26.5zM48 -539l380 541 l-233 1091h86l208 -1009l694 1009h96l-1133 -1632h-98z" />
<glyph unicode="&#x100;" horiz-adv-x="1548" d="M1473 1878l-19 -75h-683l19 75h683zM1235 457h-928l-325 -457h-95l1141 1604h90l279 -1604h-84zM1223 534l-167 979l-694 -979h861z" />
<glyph unicode="&#x101;" horiz-adv-x="1397" d="M1225 1388l-19 -75h-683l19 75h683zM1045 258l-5 -21q-38 -146 -38 -237h80q-1 87 42 255l221 838h-80l-90 -334h-1q-15 68 -49 129t-88.5 112.5t-136.5 82t-181 30.5q-102 0 -196 -36.5t-168 -101t-129 -149t-84.5 -184.5t-29.5 -203q0 -197 124.5 -326.5t315.5 -129.5 q158 0 291 83.5t201 191.5h1zM727 1039q182 0 294.5 -117t112.5 -294q0 -96 -45 -197.5t-120 -184t-182.5 -136t-221.5 -53.5q-162 0 -265.5 111t-103.5 283q0 108 39 213.5t107 188.5t169 134.5t216 51.5z" />
<glyph unicode="&#x102;" horiz-adv-x="1548" d="M1235 457h-928l-325 -457h-95l1141 1604h90l279 -1604h-84zM1223 534l-167 979l-694 -979h861zM1517 2100q-47 -152 -154 -240t-261 -88q-65 0 -116 16.5t-80.5 43.5t-50.5 61.5t-27 71t-9 72t4 63.5h61q-15 -254 230 -254q220 0 338 254h65z" />
<glyph unicode="&#x103;" horiz-adv-x="1397" d="M1149 1615q-35 -155 -133.5 -244.5t-233.5 -89.5q-72 0 -126.5 24t-84.5 59.5t-48 83t-23 87.5t-3 80h74q-5 -262 215 -262q111 0 186.5 75t102.5 187h74zM1045 258l-5 -21q-38 -146 -38 -237h80q-1 87 42 255l221 838h-80l-90 -334h-1q-15 68 -49 129t-88.5 112.5 t-136.5 82t-181 30.5q-102 0 -196 -36.5t-168 -101t-129 -149t-84.5 -184.5t-29.5 -203q0 -197 124.5 -326.5t315.5 -129.5q158 0 291 83.5t201 191.5h1zM727 1039q182 0 294.5 -117t112.5 -294q0 -96 -45 -197.5t-120 -184t-182.5 -136t-221.5 -53.5q-162 0 -265.5 111 t-103.5 283q0 108 39 213.5t107 188.5t169 134.5t216 51.5z" />
<glyph unicode="&#x104;" horiz-adv-x="1548" d="M1347 -493q-28 -6 -58 -6q-89 0 -151.5 50t-62.5 137q0 62 40.5 126t91.5 108t109 78h-3l-78 457h-928l-325 -457h-95l1141 1604h90l279 -1604q-245 -154 -245 -288q0 -73 48 -107t123 -34q15 0 41 2zM362 534h861l-167 979z" />
<glyph unicode="&#x105;" horiz-adv-x="1397" d="M1040 237l5 21h-1q-68 -108 -201 -191.5t-291 -83.5q-191 0 -315.5 129.5t-124.5 326.5q0 103 29.5 203t84.5 184.5t129 149t168 101t196 36.5q99 0 181 -30.5t136.5 -82t88.5 -112.5t49 -129h1l90 334h80l-221 -838q-43 -168 -42 -255h-80q0 91 38 237zM727 1039 q-115 0 -216 -51.5t-169 -134.5t-107 -188.5t-39 -213.5q0 -172 103.5 -283t265.5 -111q114 0 221.5 53.5t182.5 136t120 184t45 197.5q0 177 -112.5 294t-294.5 117z" />
<glyph unicode="&#x106;" horiz-adv-x="1739" d="M1080 1750l323 353h99l-341 -353h-81zM1662 513q-101 -242 -306.5 -386t-485.5 -144q-192 0 -347 89.5t-242.5 250t-87.5 361.5q0 183 72 355t194 300t292.5 205t357.5 77q156 0 295 -65.5t236 -189t121 -282.5l-79 -24q-33 214 -197.5 349t-386.5 135q-167 0 -319.5 -72 t-261 -190t-173 -274.5t-64.5 -320.5q0 -179 73 -321.5t210.5 -225t316.5 -82.5q243 0 424.5 132.5t280.5 352.5z" />
<glyph unicode="&#x107;" horiz-adv-x="1265" d="M723 1280l323 353h99l-341 -353h-81zM601 -19q-214 0 -350.5 135t-136.5 353q0 163 83.5 311.5t228.5 240.5t310 92q184 0 308.5 -101.5t151.5 -266.5l-76 -25q-21 141 -125.5 230t-267.5 89q-104 0 -202.5 -48.5t-169 -127t-113 -182t-42.5 -210.5q0 -184 113 -299 t296 -115q148 0 271.5 83t185.5 220l71 -31q-73 -163 -215.5 -255.5t-320.5 -92.5z" />
<glyph unicode="&#x108;" horiz-adv-x="1739" d="M1662 513q-101 -242 -306.5 -386t-485.5 -144q-192 0 -347 89.5t-242.5 250t-87.5 361.5q0 183 72 355t194 300t292.5 205t357.5 77q156 0 295 -65.5t236 -189t121 -282.5l-79 -24q-33 214 -197.5 349t-386.5 135q-167 0 -319.5 -72t-261 -190t-173 -274.5t-64.5 -320.5 q0 -179 73 -321.5t210.5 -225t316.5 -82.5q243 0 424.5 132.5t280.5 352.5zM1193 2041l-315 -291h-87l364 353h89l181 -352h-73z" />
<glyph unicode="&#x109;" horiz-adv-x="1265" d="M601 -19q-214 0 -350.5 135t-136.5 353q0 163 83.5 311.5t228.5 240.5t310 92q184 0 308.5 -101.5t151.5 -266.5l-76 -25q-21 141 -125.5 230t-267.5 89q-104 0 -202.5 -48.5t-169 -127t-113 -182t-42.5 -210.5q0 -184 113 -299t296 -115q148 0 271.5 83t185.5 220 l71 -31q-73 -163 -215.5 -255.5t-320.5 -92.5zM836 1571l-315 -291h-87l364 353h89l181 -352h-73z" />
<glyph unicode="&#x10a;" horiz-adv-x="1739" d="M1170 1842q-32 0 -53 20.5t-21 52.5q0 38 26.5 64.5t63.5 26.5q32 0 53 -20.5t21 -52.5q0 -38 -26.5 -64.5t-63.5 -26.5zM1662 513q-101 -242 -306.5 -386t-485.5 -144q-192 0 -347 89.5t-242.5 250t-87.5 361.5q0 183 72 355t194 300t292.5 205t357.5 77 q156 0 295 -65.5t236 -189t121 -282.5l-79 -24q-33 214 -197.5 349t-386.5 135q-167 0 -319.5 -72t-261 -190t-173 -274.5t-64.5 -320.5q0 -179 73 -321.5t210.5 -225t316.5 -82.5q243 0 424.5 132.5t280.5 352.5z" />
<glyph unicode="&#x10b;" horiz-adv-x="1265" d="M777 1369q-32 0 -53 20.5t-21 52.5q0 38 26.5 64.5t63.5 26.5q32 0 53 -20.5t21 -52.5q0 -38 -26.5 -64.5t-63.5 -26.5zM601 -19q-214 0 -350.5 135t-136.5 353q0 163 83.5 311.5t228.5 240.5t310 92q184 0 308.5 -101.5t151.5 -266.5l-76 -25q-21 141 -125.5 230 t-267.5 89q-104 0 -202.5 -48.5t-169 -127t-113 -182t-42.5 -210.5q0 -184 113 -299t296 -115q148 0 271.5 83t185.5 220l71 -31q-73 -163 -215.5 -255.5t-320.5 -92.5z" />
<glyph unicode="&#x10c;" horiz-adv-x="1739" d="M1662 513q-101 -242 -306.5 -386t-485.5 -144q-192 0 -347 89.5t-242.5 250t-87.5 361.5q0 183 72 355t194 300t292.5 205t357.5 77q156 0 295 -65.5t236 -189t121 -282.5l-79 -24q-33 214 -197.5 349t-386.5 135q-167 0 -319.5 -72t-261 -190t-173 -274.5t-64.5 -320.5 q0 -179 73 -321.5t210.5 -225t316.5 -82.5q243 0 424.5 132.5t280.5 352.5zM1145 1812l315 290h87l-364 -352h-89l-181 352h72z" />
<glyph unicode="&#x10d;" horiz-adv-x="1265" d="M601 -19q-214 0 -350.5 135t-136.5 353q0 163 83.5 311.5t228.5 240.5t310 92q184 0 308.5 -101.5t151.5 -266.5l-76 -25q-21 141 -125.5 230t-267.5 89q-104 0 -202.5 -48.5t-169 -127t-113 -182t-42.5 -210.5q0 -184 113 -299t296 -115q148 0 271.5 83t185.5 220 l71 -31q-73 -163 -215.5 -255.5t-320.5 -92.5zM778 1342l315 290h87l-364 -352h-89l-181 352h72z" />
<glyph unicode="&#x10e;" horiz-adv-x="1651" d="M105 0l428 1604h261q208 0 370.5 -57t266.5 -160q176 -175 176 -457q0 -186 -66 -345.5t-185 -278.5q-146 -147 -359.5 -226.5t-457.5 -79.5h-434zM1520 925q0 248 -154 405q-92 95 -238 146t-329 51h-202l-387 -1450h341q459 0 738 276q112 111 171.5 258t59.5 314z M1005 1812l315 290h87l-364 -352h-89l-181 352h72z" />
<glyph unicode="&#x10f;" horiz-adv-x="1437" d="M1549 1260l137 409h98l-177 -409h-58zM1416 1668l-240 -911h-1q-15 68 -49 129t-88.5 113t-137 83t-181.5 31q-102 0 -196 -36.5t-168 -101t-129 -149t-84.5 -184.5t-29.5 -203q0 -197 124.5 -326.5t315.5 -129.5q158 0 291 83.5t201 191.5h2l-6 -21q-37 -129 -37 -237 h80q-1 92 41 256l372 1412h-80zM727 1039q182 0 294.5 -117t112.5 -294q0 -96 -45 -197.5t-120 -184t-182.5 -136t-221.5 -53.5q-162 0 -265.5 111t-103.5 283q0 108 39 213.5t107 188.5t169 134.5t216 51.5z" />
<glyph unicode="&#x110;" horiz-adv-x="1679" d="M133 0l208 779h-168l21 78h168l199 747h261q208 0 370.5 -57t266.5 -160q176 -175 176 -457q0 -186 -66 -345.5t-185 -278.5q-146 -147 -359 -226.5t-458 -79.5h-434zM1548 925q0 248 -154 405q-92 95 -238 146t-329 51h-202l-179 -670h557l-20 -78h-557l-188 -702h341 q459 0 738 276q112 111 171.5 258t59.5 314z" />
<glyph unicode="&#x111;" horiz-adv-x="1394" d="M112 439q0 103 29.5 203t84.5 184.5t129 149t168 101t196 36.5q99 0 181.5 -31t137 -83t89 -113t49.5 -129h1l154 588h-446l19 73h446l66 250h80l-66 -250h162l-19 -73h-162l-354 -1345h-80l69 258h-2q-68 -108 -200.5 -191.5t-290.5 -83.5q-192 0 -316.5 129t-124.5 327 zM727 1039q-115 0 -216 -51.5t-169 -134.5t-107 -188.5t-39 -213.5q0 -172 103.5 -283t265.5 -111q114 0 221.5 53.5t182.5 136t120 184t45 197.5q0 177 -112.5 294t-294.5 117z" />
<glyph unicode="&#x112;" horiz-adv-x="1338" d="M1415 1878l-19 -75h-683l19 75h683zM105 0l428 1604h957l-20 -77h-875l-178 -670h804l-21 -78h-803l-187 -702h882l-20 -77h-967z" />
<glyph unicode="&#x113;" horiz-adv-x="1251" d="M1120 1388l-19 -75h-683l19 75h683zM1144 533q10 76 10 116q0 215 -114.5 339.5t-328.5 124.5q-118 0 -229 -55t-190.5 -143.5t-127.5 -204.5t-48 -235q0 -213 134 -353t346 -140q339 0 511 313l-66 37q-148 -275 -438 -275q-180 0 -292 119t-112 302q0 28 3 55h942z M1070 606h-859q19 109 95.5 210t184.5 162t214 61q179 0 273 -105t94 -284q0 -14 -2 -44z" />
<glyph unicode="&#x116;" horiz-adv-x="1338" d="M1064 1842q-32 0 -53 20.5t-21 52.5q0 38 26.5 64.5t63.5 26.5q32 0 53 -20.5t21 -52.5q0 -38 -26.5 -64.5t-63.5 -26.5zM105 0l428 1604h957l-20 -77h-875l-178 -670h804l-21 -78h-803l-187 -702h882l-20 -77h-967z" />
<glyph unicode="&#x117;" horiz-adv-x="1251" d="M747 1369q-32 0 -53 20.5t-21 52.5q0 38 26.5 64.5t63.5 26.5q32 0 53 -20.5t21 -52.5q0 -38 -26.5 -64.5t-63.5 -26.5zM1144 533q10 76 10 116q0 215 -114.5 339.5t-328.5 124.5q-118 0 -229 -55t-190.5 -143.5t-127.5 -204.5t-48 -235q0 -213 134 -353t346 -140 q339 0 511 313l-66 37q-148 -275 -438 -275q-180 0 -292 119t-112 302q0 28 3 55h942zM1070 606h-859q19 109 95.5 210t184.5 162t214 61q179 0 273 -105t94 -284q0 -14 -2 -44z" />
<glyph unicode="&#x118;" horiz-adv-x="1338" d="M1021 -493q-27 -6 -57 -6q-90 0 -152.5 50t-62.5 137q0 90 74 173.5t168 138.5h-886l428 1604h957l-20 -77h-875l-178 -670h804l-21 -78h-803l-187 -702h882l-20 -77q-245 -152 -245 -288q0 -73 48 -107t123 -34q13 0 41 2z" />
<glyph unicode="&#x119;" horiz-adv-x="1251" d="M202 533q-3 -27 -3 -55q0 -183 112 -302t292 -119q290 0 438 275l66 -37q-134 -245 -374 -298q-239 -151 -239 -285q0 -73 48 -107t123 -34q13 0 41 2l-18 -66q-28 -6 -57 -6q-90 0 -152.5 50t-62.5 137q0 82 63.5 160t150.5 135q-11 -1 -34 -1q-212 0 -346 140t-134 353 q0 119 48 235t127.5 204.5t190.5 143.5t229 55q214 0 328.5 -124.5t114.5 -339.5q0 -40 -10 -116h-942zM705 1039q-106 0 -214 -61t-184.5 -162t-95.5 -210h859q2 30 2 44q0 179 -94 284t-273 105z" />
<glyph unicode="&#x11a;" horiz-adv-x="1338" d="M105 0l428 1604h957l-20 -77h-875l-178 -670h804l-21 -78h-803l-187 -702h882l-20 -77h-967zM1038 1812l315 290h87l-364 -352h-89l-181 352h72z" />
<glyph unicode="&#x11b;" horiz-adv-x="1251" d="M1144 533q10 76 10 116q0 215 -114.5 339.5t-328.5 124.5q-118 0 -229 -55t-190.5 -143.5t-127.5 -204.5t-48 -235q0 -213 134 -353t346 -140q339 0 511 313l-66 37q-148 -275 -438 -275q-180 0 -292 119t-112 302q0 28 3 55h942zM1070 606h-859q19 109 95.5 210 t184.5 162t214 61q179 0 273 -105t94 -284q0 -14 -2 -44zM753 1342l315 290h87l-364 -352h-89l-181 352h72z" />
<glyph unicode="&#x11c;" horiz-adv-x="1772" d="M887 670l20 77h825q-22 -176 -101.5 -322t-197 -241.5t-263 -148t-300.5 -52.5q-199 0 -354 87t-240 242.5t-85 353.5q0 129 33.5 252.5t92.5 228t143 193t183 150.5t215 96.5t236 34.5t224.5 -32.5t175.5 -84.5t125.5 -119.5t83.5 -133.5t40 -130l-78 -23 q-9 43 -27 90.5t-62 114.5t-103.5 117.5t-159.5 87t-222 36.5q-143 0 -272 -49t-227 -134.5t-170 -196t-109.5 -238.5t-37.5 -258q0 -270 166 -440t432 -170q200 0 355.5 81.5t259.5 217.5q114 147 147 313h-748zM1179 2041l-315 -291h-87l364 353h89l181 -352h-73z" />
<glyph unicode="&#x11d;" horiz-adv-x="1396" d="M1346 1093h-79l-85 -321h-1q-13 64 -50 124.5t-93 109t-136 78t-170 29.5q-170 0 -311 -87t-220.5 -234.5t-79.5 -322.5q0 -190 127 -320.5t313 -130.5q151 0 288 79.5t202 182.5h2l-79 -299q-58 -222 -198 -337t-347 -115q-96 0 -172 28.5t-120.5 70.5t-73.5 96 t-39 99.5t-10 87.5l-78 -16q2 -59 19.5 -118.5t55.5 -118.5t93 -104t138.5 -73t184.5 -28q240 0 400 134.5t223 375.5zM1143 647q0 -95 -44.5 -194t-119 -178.5t-181.5 -130t-222 -50.5q-159 0 -265 108.5t-106 272.5q0 110 38.5 211.5t106 179.5t167 124.5t215.5 46.5 q181 0 296 -112.5t115 -277.5zM853 1571l-315 -291h-87l364 353h89l181 -352h-73z" />
<glyph unicode="&#x11e;" horiz-adv-x="1772" d="M1635 670q-33 -166 -147 -313q-104 -136 -259.5 -217.5t-355.5 -81.5q-266 0 -432 170t-166 440q0 130 37.5 258t109.5 238.5t170 196t227 134.5t272 49q122 0 222 -36.5t159.5 -87t103.5 -117.5t62 -114.5t27 -90.5l78 23q-11 64 -40 130t-83.5 133.5t-125.5 119.5 t-175.5 84.5t-224.5 32.5t-236 -34.5t-215 -96.5t-183 -150.5t-143 -193t-92.5 -228t-33.5 -252.5q0 -198 85 -353.5t240 -242.5t354 -87q155 0 300.5 52.5t263 148t197 241.5t101.5 322h-825l-20 -77h748zM1540 2100q-47 -152 -154 -240t-261 -88q-65 0 -116 16.5 t-80.5 43.5t-50.5 61.5t-27 71t-9 72t4 63.5h61q-15 -254 230 -254q220 0 338 254h65z" />
<glyph unicode="&#x11f;" horiz-adv-x="1396" d="M1346 1093h-79l-85 -321h-1q-13 64 -50 124.5t-93 109t-136 78t-170 29.5q-170 0 -311 -87t-220.5 -234.5t-79.5 -322.5q0 -190 127 -320.5t313 -130.5q151 0 288 79.5t202 182.5h2l-79 -299q-58 -222 -198 -337t-347 -115q-96 0 -172 28.5t-120.5 70.5t-73.5 96 t-39 99.5t-10 87.5l-78 -16q2 -59 19.5 -118.5t55.5 -118.5t93 -104t138.5 -73t184.5 -28q240 0 400 134.5t223 375.5zM1143 647q0 -95 -44.5 -194t-119 -178.5t-181.5 -130t-222 -50.5q-159 0 -265 108.5t-106 272.5q0 110 38.5 211.5t106 179.5t167 124.5t215.5 46.5 q181 0 296 -112.5t115 -277.5zM1179 1608q-47 -152 -154 -240t-261 -88q-65 0 -116 16.5t-80.5 43.5t-50.5 61.5t-27 71t-9 72t4 63.5h61q-15 -254 230 -254q220 0 338 254h65z" />
<glyph unicode="&#x120;" horiz-adv-x="1772" d="M1131 1842q-32 0 -53 20.5t-21 52.5q0 38 26.5 64.5t63.5 26.5q32 0 53 -20.5t21 -52.5q0 -38 -26.5 -64.5t-63.5 -26.5zM887 670l20 77h825q-22 -176 -101.5 -322t-197 -241.5t-263 -148t-300.5 -52.5q-199 0 -354 87t-240 242.5t-85 353.5q0 129 33.5 252.5t92.5 228 t143 193t183 150.5t215 96.5t236 34.5t224.5 -32.5t175.5 -84.5t125.5 -119.5t83.5 -133.5t40 -130l-78 -23q-9 43 -27 90.5t-62 114.5t-103.5 117.5t-159.5 87t-222 36.5q-143 0 -272 -49t-227 -134.5t-170 -196t-109.5 -238.5t-37.5 -258q0 -270 166 -440t432 -170 q200 0 355.5 81.5t259.5 217.5q114 147 147 313h-748z" />
<glyph unicode="&#x121;" horiz-adv-x="1396" d="M798 1369q-32 0 -53 20.5t-21 52.5q0 38 26.5 64.5t63.5 26.5q32 0 53 -20.5t21 -52.5q0 -38 -26.5 -64.5t-63.5 -26.5zM1346 1093h-79l-85 -321h-1q-13 64 -50 124.5t-93 109t-136 78t-170 29.5q-170 0 -311 -87t-220.5 -234.5t-79.5 -322.5q0 -190 127 -320.5 t313 -130.5q151 0 288 79.5t202 182.5h2l-79 -299q-58 -222 -198 -337t-347 -115q-96 0 -172 28.5t-120.5 70.5t-73.5 96t-39 99.5t-10 87.5l-78 -16q2 -59 19.5 -118.5t55.5 -118.5t93 -104t138.5 -73t184.5 -28q240 0 400 134.5t223 375.5zM1143 647q0 -95 -44.5 -194 t-119 -178.5t-181.5 -130t-222 -50.5q-159 0 -265 108.5t-106 272.5q0 110 38.5 211.5t106 179.5t167 124.5t215.5 46.5q181 0 296 -112.5t115 -277.5z" />
<glyph unicode="&#x122;" horiz-adv-x="1772" d="M887 670l20 77h825q-22 -176 -101.5 -322t-197 -241.5t-263 -148t-300.5 -52.5q-199 0 -354 87t-240 242.5t-85 353.5q0 129 33.5 252.5t92.5 228t143 193t183 150.5t215 96.5t236 34.5t224.5 -32.5t175.5 -84.5t125.5 -119.5t83.5 -133.5t40 -130l-78 -23 q-9 43 -27 90.5t-62 114.5t-103.5 117.5t-159.5 87t-222 36.5q-143 0 -272 -49t-227 -134.5t-170 -196t-109.5 -238.5t-37.5 -258q0 -270 166 -440t432 -170q200 0 355.5 81.5t259.5 217.5q114 147 147 313h-748zM686 -497q67 12 112 61t54 131q-20 -14 -48 -14 q-29 0 -49.5 18t-20.5 48q0 36 27 59t64 23q41 0 60.5 -29t19.5 -74q0 -119 -69 -191t-163 -81z" />
<glyph unicode="&#x123;" horiz-adv-x="1396" d="M950 1616q-67 -13 -112 -62t-54 -131q21 14 48 14q30 0 50 -18t20 -48q0 -36 -27 -59t-63 -23q-41 0 -61 29.5t-20 73.5q0 119 69 191t163 81zM1346 1093h-79l-85 -321h-1q-13 64 -50 124.5t-93 109t-136 78t-170 29.5q-170 0 -311 -87t-220.5 -234.5t-79.5 -322.5 q0 -190 127 -320.5t313 -130.5q151 0 288 79.5t202 182.5h2l-79 -299q-58 -222 -198 -337t-347 -115q-96 0 -172 28.5t-120.5 70.5t-73.5 96t-39 99.5t-10 87.5l-78 -16q2 -59 19.5 -118.5t55.5 -118.5t93 -104t138.5 -73t184.5 -28q240 0 400 134.5t223 375.5zM1143 647 q0 -95 -44.5 -194t-119 -178.5t-181.5 -130t-222 -50.5q-159 0 -265 108.5t-106 272.5q0 110 38.5 211.5t106 179.5t167 124.5t215.5 46.5q181 0 296 -112.5t115 -277.5z" />
<glyph unicode="&#x126;" horiz-adv-x="1696" d="M1803 1209h-169l-323 -1209h-85l207 779h-1035l-208 -779h-85l323 1209h-167l20 75h167l85 320h85l-86 -320h1037l86 320h84l-85 -320h169zM1549 1209h-1037l-94 -352h1036z" />
<glyph unicode="&#x127;" horiz-adv-x="1291" d="M803 1113q169 0 261 -95.5t92 -247.5q0 -70 -27 -170l-157 -600h-80l161 608q20 75 20 157q0 127 -72 200t-217 73q-97 0 -194 -50t-175.5 -148t-111.5 -224l-163 -616h-80l355 1345h-162l18 73h162l66 250h80l-66 -250h447l-19 -73h-447l-134 -506q74 118 185 196 t258 78z" />
<glyph unicode="&#x128;" horiz-adv-x="574" d="M971 1929q-33 -74 -85 -125.5t-119 -51.5q-39 0 -79 21.5t-67 47.5t-64.5 47.5t-72.5 21.5q-84 0 -149 -126l-54 25q85 171 211 171q43 0 84.5 -21.5t68.5 -47t62.5 -47t67.5 -21.5q45 0 82 37.5t61 87.5zM618 1604h-85l-428 -1604h84z" />
<glyph unicode="&#x129;" horiz-adv-x="480" d="M808 1459q-33 -74 -85 -125.5t-119 -51.5q-39 0 -79 21.5t-67 47.5t-64.5 47.5t-72.5 21.5q-84 0 -149 -126l-54 25q85 171 211 171q43 0 84.5 -21.5t68.5 -47t62.5 -47t67.5 -21.5q45 0 82 37.5t61 87.5zM348 1093l-287 -1093h82l287 1093h-82z" />
<glyph unicode="&#x12a;" horiz-adv-x="574" d="M907 1878l-20 -75h-552l19 75h553zM533 1604h85l-429 -1604h-84z" />
<glyph unicode="&#x12b;" horiz-adv-x="480" d="M739 1388l-20 -75h-543l20 75h543zM61 0l288 1093h82l-288 -1093h-82z" />
<glyph unicode="&#x12c;" horiz-adv-x="574" d="M533 1604h85l-429 -1604h-84zM1011 2100q-47 -152 -154 -240t-261 -88q-65 0 -116 16.5t-80.5 43.5t-50.5 61.5t-27 71t-9 72t4 63.5h61q-15 -254 230 -254q220 0 338 254h65z" />
<glyph unicode="&#x12d;" horiz-adv-x="480" d="M61 0l287 1093h82l-287 -1093h-82zM844 1608q-47 -152 -154 -240t-261 -88q-65 0 -116 16.5t-80.5 43.5t-50.5 61.5t-27 71t-9 72t4 63.5h61q-15 -254 230 -254q220 0 338 254h65z" />
<glyph unicode="&#x12e;" horiz-adv-x="575" d="M534 1604h84l-428 -1604q-245 -152 -245 -288q0 -73 48 -107t123 -34q13 0 41 2l-17 -66q-28 -6 -58 -6q-90 0 -152 50t-62 137q0 62 40.5 126t91.5 108t109 78h-4z" />
<glyph unicode="&#x12f;" horiz-adv-x="479" d="M496 1554q32 0 53.5 -20.5t21.5 -52.5q0 -38 -26.5 -64.5t-64.5 -26.5q-32 0 -52.5 20.5t-20.5 52.5q0 38 26 64.5t63 26.5zM348 1093h81l-287 -1093q-245 -152 -245 -288q0 -73 48 -107t123 -34q13 0 41 2l-18 -66q-29 -6 -57 -6q-90 0 -152.5 50t-62.5 137 q0 90 74 173.5t168 138.5z" />
<glyph unicode="&#x130;" horiz-adv-x="574" d="M626 1842q-32 0 -53 20.5t-21 52.5q0 38 26.5 64.5t63.5 26.5q32 0 53 -20.5t21 -52.5q0 -38 -26.5 -64.5t-63.5 -26.5zM533 1604h85l-429 -1604h-84z" />
<glyph unicode="&#x131;" horiz-adv-x="480" d="M61 0l288 1093h82l-288 -1093h-82z" />
<glyph unicode="&#x132;" horiz-adv-x="1390" d="M234 568l85 3l-4 -15q-22 -84 -22 -154q0 -155 91.5 -248.5t243.5 -93.5q87 0 160 30.5t125 85.5t88.5 123.5t58.5 151.5l307 1153h85l-310 -1163q-122 -458 -518 -458q-192 0 -303.5 114t-111.5 290q0 79 25 181zM510 1604l-212 -795h85l212 795h-85z" />
<glyph unicode="&#x136;" horiz-adv-x="1323" d="M407 813l-218 -813h-84l428 1604h85l-199 -745h10l1020 745h126l-1067 -780l687 -824h-111l-667 813h-10zM412 -497q67 12 112 61t54 131q-21 -14 -48 -14q-29 0 -49.5 18t-20.5 48q0 36 27 59t63 23q41 0 61 -29.5t20 -73.5q0 -119 -69 -191t-163 -81z" />
<glyph unicode="&#x137;" horiz-adv-x="1034" d="M307 619l708 474h136l-765 -503l506 -590h-104l-491 577h-5l-152 -577h-80l439 1668h80l-276 -1049h4zM247 -497q67 12 112 61t54 131q-20 -14 -48 -14q-29 0 -49 18t-20 48q0 36 27 59t63 23q41 0 60.5 -29t19.5 -74q0 -119 -69 -191t-163 -81z" />
<glyph unicode="&#x139;" horiz-adv-x="1161" d="M561 1750l323 353h99l-341 -353h-81zM105 0l428 1604h85l-408 -1527h801l-21 -77h-885z" />
<glyph unicode="&#x13a;" horiz-adv-x="479" d="M515 1809l323 353h99l-341 -353h-81zM500 1668h81l-439 -1668h-82z" />
<glyph unicode="&#x13b;" horiz-adv-x="1161" d="M105 0l428 1604h85l-408 -1527h801l-21 -77h-885zM392 -497q67 12 112 61t54 131q-21 -14 -48 -14q-29 0 -49.5 18t-20.5 48q0 36 27 59t63 23q41 0 61 -29.5t20 -73.5q0 -119 -69 -191t-163 -81z" />
<glyph unicode="&#x13c;" horiz-adv-x="479" d="M500 1668h81l-439 -1668h-82zM-92 -497q67 12 112 61t54 131q-20 -14 -48 -14q-29 0 -49 18t-20 48q0 36 27 59t63 23q41 0 60.5 -29t19.5 -74q0 -119 -69 -191t-163 -81z" />
<glyph unicode="&#x13d;" horiz-adv-x="1167" d="M982 1230l137 409h98l-177 -409h-58zM105 0l428 1604h85l-408 -1527h801l-21 -77h-885z" />
<glyph unicode="&#x13e;" horiz-adv-x="519" d="M634 1260l137 409h98l-177 -409h-58zM500 1668h81l-439 -1668h-82z" />
<glyph unicode="&#x13f;" horiz-adv-x="1204" d="M105 0l428 1604h85l-408 -1527h801l-21 -77h-885zM1103 689q-32 0 -52.5 20.5t-20.5 52.5q0 38 26 64.5t63 26.5q32 0 53.5 -20.5t21.5 -52.5q0 -38 -26.5 -64.5t-64.5 -26.5z" />
<glyph unicode="&#x140;" horiz-adv-x="650" d="M500 1668h81l-439 -1668h-82zM620 689q-32 0 -52.5 20.5t-20.5 52.5q0 38 26 64.5t63 26.5q32 0 53.5 -20.5t21.5 -52.5q0 -38 -26.5 -64.5t-64.5 -26.5z" />
<glyph unicode="&#x141;" horiz-adv-x="1180" d="M402 732l-175 -655h799l-20 -77h-886l186 694l-241 -97l21 91l244 97l219 819h85l-208 -782l562 225l-24 -91z" />
<glyph unicode="&#x142;" horiz-adv-x="634" d="M445 848l-222 -848h-82l213 809l-234 -101l25 88l233 101l203 771h81l-194 -732l235 101l-23 -87z" />
<glyph unicode="&#x143;" horiz-adv-x="1752" d="M1151 1750l323 353h99l-341 -353h-81zM589 1504l-402 -1504h-82l428 1604h100l680 -1495l399 1495h84l-429 -1604h-93z" />
<glyph unicode="&#x144;" horiz-adv-x="1292" d="M773 1280l323 353h99l-341 -353h-81zM803 1113q-146 0 -257.5 -78t-184.5 -196l67 254h-80l-287 -1093h80l163 616q33 126 111.5 224t175 148t193.5 50q145 0 217 -73t72 -200q0 -86 -19 -157l-161 -608h80l157 600q27 100 27 170q0 153 -92.5 248t-261.5 95z" />
<glyph unicode="&#x145;" horiz-adv-x="1752" d="M589 1504l-402 -1504h-82l428 1604h100l680 -1495l399 1495h84l-429 -1604h-93zM542 -497q67 12 112 61t54 131q-20 -14 -48 -14q-29 0 -49 18t-20 48q0 36 27 59t63 23q41 0 60.5 -29t19.5 -74q0 -119 -69 -191t-163 -81z" />
<glyph unicode="&#x146;" horiz-adv-x="1292" d="M369 -497q67 12 112 61t54 131q-20 -14 -48 -14q-29 0 -49 18t-20 48q0 36 27 59t63 23q41 0 60.5 -29t19.5 -74q0 -119 -69 -191t-163 -81zM803 1113q169 0 261.5 -95t92.5 -248q0 -70 -27 -170l-157 -600h-80l161 608q19 71 19 157q0 127 -72 200t-217 73 q-97 0 -193.5 -50t-175 -148t-111.5 -224l-163 -616h-80l287 1093h80l-67 -254q73 118 184.5 196t257.5 78z" />
<glyph unicode="&#x147;" horiz-adv-x="1752" d="M589 1504l-402 -1504h-82l428 1604h100l680 -1495l399 1495h84l-429 -1604h-93zM1215 1793l315 290h87l-364 -352h-89l-181 352h72z" />
<glyph unicode="&#x148;" horiz-adv-x="1292" d="M803 1113q-146 0 -257.5 -78t-184.5 -196l67 254h-80l-287 -1093h80l163 616q33 126 111.5 224t175 148t193.5 50q145 0 217 -73t72 -200q0 -86 -19 -157l-161 -608h80l157 600q27 100 27 170q0 153 -92.5 248t-261.5 95zM847 1342l315 290h87l-364 -352h-89l-181 352h72 z" />
<glyph unicode="&#x14a;" horiz-adv-x="1752" d="M589 1504l-402 -1504h-82l428 1604h100l680 -1495l399 1495h84l-504 -1884q-34 -129 -109.5 -197.5t-218.5 -68.5q-54 0 -91 16l19 72q37 -13 75 -13q58 0 102 16.5t71.5 46.5t44 62.5t27.5 74.5l69 258z" />
<glyph unicode="&#x14b;" horiz-adv-x="1292" d="M1054 608q19 71 19 157q0 127 -72 200t-217 73q-97 0 -193.5 -50t-175 -148t-111.5 -224l-163 -616h-80l287 1093h80l-67 -254q73 118 184.5 196t257.5 78q169 0 261.5 -95t92.5 -248q0 -70 -27 -170l-231 -880q-34 -130 -108 -198t-216 -68q-54 0 -91 16l19 72 q37 -13 75 -13q58 0 102 16.5t71.5 46.5t43.5 62.5t27 74.5z" />
<glyph unicode="&#x14c;" horiz-adv-x="1814" d="M1489 1878l-19 -75h-683l19 75h683zM868 -17q-147 0 -274.5 53t-216 145t-138.5 217.5t-50 267.5q0 146 45 288.5t128.5 261.5t194 210.5t249.5 143t286 51.5q197 0 353.5 -91t242 -246.5t85.5 -345.5q0 -146 -45.5 -288.5t-129 -261.5t-194.5 -210.5t-250 -143 t-286 -51.5zM871 58q168 0 321 74t260.5 195t171 280.5t63.5 326.5q0 171 -74 309.5t-211.5 219.5t-312.5 81q-135 0 -261 -47.5t-225.5 -131.5t-174.5 -193t-115 -239.5t-40 -264.5q0 -170 74.5 -308.5t212 -220t311.5 -81.5z" />
<glyph unicode="&#x14d;" horiz-adv-x="1341" d="M1149 1388l-19 -75h-683l19 75h683zM601 -18q-214 0 -351 135.5t-137 344.5q0 121 49 238.5t132 209t203 147.5t252 56q214 0 352.5 -136t138.5 -344q0 -164 -83.5 -313.5t-232 -243.5t-323.5 -94zM610 57q148 0 274.5 81.5t198.5 212.5t72 275q0 183 -113.5 298 t-297.5 115q-149 0 -276.5 -82.5t-199 -213t-71.5 -273.5q0 -183 114 -298t299 -115z" />
<glyph unicode="&#x150;" horiz-adv-x="1814" d="M918 1750l323 353h99l-341 -353h-81zM1218 1750l323 353h99l-341 -353h-81zM868 -17q-147 0 -274.5 53t-216 145t-138.5 217.5t-50 267.5q0 146 45 288.5t128.5 261.5t194 210.5t249.5 143t286 51.5q197 0 353.5 -91t242 -246.5t85.5 -345.5q0 -146 -45.5 -288.5 t-129 -261.5t-194.5 -210.5t-250 -143t-286 -51.5zM871 58q168 0 321 74t260.5 195t171 280.5t63.5 326.5q0 171 -74 309.5t-211.5 219.5t-312.5 81q-135 0 -261 -47.5t-225.5 -131.5t-174.5 -193t-115 -239.5t-40 -264.5q0 -170 74.5 -308.5t212 -220t311.5 -81.5z" />
<glyph unicode="&#x151;" horiz-adv-x="1341" d="M588 1280l323 353h99l-341 -353h-81zM888 1280l323 353h99l-341 -353h-81zM601 -18q-214 0 -351 135.5t-137 344.5q0 121 49 238.5t132 209t203 147.5t252 56q214 0 352.5 -136t138.5 -344q0 -164 -83.5 -313.5t-232 -243.5t-323.5 -94zM610 57q148 0 274.5 81.5 t198.5 212.5t72 275q0 183 -113.5 298t-297.5 115q-149 0 -276.5 -82.5t-199 -213t-71.5 -273.5q0 -183 114 -298t299 -115z" />
<glyph unicode="&#x152;" horiz-adv-x="2698" d="M1467 0l98 366h-3q-126 -178 -304 -280.5t-390 -102.5q-147 0 -274.5 53t-216 145t-138.5 217.5t-50 267.5q0 146 45 288.5t128.5 261.5t194 210.5t249.5 143t286 51.5q268 0 443.5 -163.5t205.5 -418.5h3l151 565h955l-21 -77h-871l-179 -670h801l-20 -78h-801 l-187 -702h880l-20 -77h-965zM871 58q224 0 415.5 126t298.5 327q103 194 103 422q0 128 -43.5 240t-121 194t-190 129.5t-244.5 47.5q-135 0 -261 -47.5t-225.5 -131.5t-174.5 -193t-115 -239.5t-40 -264.5q0 -170 74.5 -308.5t212 -220t311.5 -81.5z" />
<glyph unicode="&#x153;" horiz-adv-x="2268" d="M1219 533q-2 -36 -2 -55q0 -183 111.5 -302t291.5 -119q290 0 438 275l66 -37q-172 -313 -511 -313q-175 0 -296 99t-159 262q-79 -160 -226.5 -260.5t-329.5 -100.5q-214 0 -351.5 135.5t-137.5 344.5q0 121 49 238.5t132 209t203 147.5t253 56q182 0 304 -97.5 t155 -261.5q76 158 215 258.5t305 100.5q214 0 328 -124.5t114 -339.5q0 -40 -10 -116h-942zM611 57q148 0 274 81.5t197.5 212.5t71.5 275q0 183 -113 298t-296 115q-113 0 -215.5 -49t-175 -128t-115 -182.5t-42.5 -209.5q0 -183 114.5 -298t299.5 -115zM2087 606 q2 30 2 44q0 179 -94 284t-273 105q-106 0 -214 -61t-184.5 -162t-95.5 -210h859z" />
<glyph unicode="&#x154;" horiz-adv-x="1437" d="M1379 2103l-341 -353h-81l323 353h99zM932 1604q252 0 391.5 -105.5t139.5 -297.5q0 -105 -38.5 -190t-97.5 -142q-167 -165 -484 -183l373 -686h-98l-365 680h-382l-182 -680h-84l428 1604h399zM1267 920q110 112 110 274q0 159 -115.5 246t-334.5 87h-331l-205 -769 h372q343 0 504 162z" />
<glyph unicode="&#x155;" horiz-adv-x="722" d="M561 1280l323 353h99l-341 -353h-81zM852 1108q-141 4 -282.5 -81t-213.5 -212l-1 -1l74 279h-81l-287 -1093h80l151 570q23 85 71.5 165t116 145.5t158 105t188.5 39.5h5z" />
<glyph unicode="&#x156;" horiz-adv-x="1437" d="M932 1604q253 0 392 -105t139 -298q0 -105 -38.5 -190t-97.5 -142q-167 -165 -484 -183l373 -686h-98l-365 680h-382l-182 -680h-84l428 1604h399zM1267 920q110 112 110 274q0 159 -115.5 246t-334.5 87h-331l-205 -769h372q343 0 504 162zM439 -497q67 12 112 61 t54 131q-21 -14 -49 -14q-29 0 -49 18t-20 48q0 36 27 59t63 23q41 0 61 -29.5t20 -73.5q0 -119 -69 -191t-163 -81z" />
<glyph unicode="&#x157;" horiz-adv-x="722" d="M-76 -497q67 12 112 61t54 131q-21 -14 -49 -14q-29 0 -49 18t-20 48q0 36 27 59t63 23q41 0 61 -29.5t20 -73.5q0 -119 -69 -191t-163 -81zM852 1108l-21 -83h-5q-98 0 -188.5 -39.5t-158 -105t-116 -145.5t-71.5 -165l-151 -570h-80l287 1093h81l-74 -279l1 1 q72 127 213.5 212t282.5 81z" />
<glyph unicode="&#x158;" horiz-adv-x="1437" d="M932 1604q252 0 391.5 -105.5t139.5 -297.5q0 -105 -38.5 -190t-97.5 -142q-167 -165 -484 -183l373 -686h-98l-365 680h-382l-182 -680h-84l428 1604h399zM1267 920q110 112 110 274q0 159 -115.5 246t-334.5 87h-331l-205 -769h372q343 0 504 162zM1016 1812l315 290 h87l-364 -352h-89l-181 352h72z" />
<glyph unicode="&#x159;" horiz-adv-x="722" d="M852 1108q-142 4 -283 -81t-213 -212l-1 -1l73 279h-80l-287 -1093h80l151 570q22 85 70.5 165t116.5 145.5t158.5 105t188.5 39.5h5zM632 1342l315 290h87l-364 -352h-89l-181 352h72z" />
<glyph unicode="&#x15a;" d="M807 1750l323 353h99l-341 -353h-81zM630 -19q103 0 196 28.5t166.5 82.5t117 139.5t43.5 191.5q0 72 -28.5 133t-83.5 109t-106.5 80t-127.5 70l-114 57q-49 24 -81.5 42.5t-76.5 49.5t-70.5 61.5t-45.5 72.5t-19 88q0 114 63.5 197t160 121t210.5 38q79 0 144.5 -19.5 t108.5 -53t74.5 -72.5t48 -81.5t23.5 -77t7 -63.5l80 15q0 98 -56 199q-57 101 -163 165.5t-265 64.5q-102 0 -195.5 -29t-166 -83t-116 -138.5t-43.5 -186.5q0 -57 22.5 -109.5t54 -89.5t81 -74t87 -58t88.5 -47l115 -58q39 -19 62 -31t59 -34t58.5 -39.5t49 -43.5 t41 -51.5t25 -58.5t10.5 -69q0 -89 -36.5 -159.5t-98.5 -113.5t-138.5 -65.5t-160.5 -22.5q-192 0 -318.5 135.5t-125.5 331.5l-81 -14q0 -145 68.5 -266.5t188.5 -192.5t264 -71z" />
<glyph unicode="&#x15b;" horiz-adv-x="1004" d="M542 1280l323 353h99l-341 -353h-81zM577 1113q-96 0 -179.5 -34t-140 -107t-56.5 -172q0 -46 18 -84.5t51 -68t68.5 -51t81.5 -41.5l140 -60q40 -17 69.5 -33.5t60 -41t47 -57t16.5 -70.5q0 -77 -46 -132.5t-112 -79.5t-141 -24q-86 0 -151.5 28t-101.5 73t-53.5 95.5 t-16.5 101.5l-79 -19q0 -59 22.5 -118.5t67.5 -114t125.5 -88.5t184.5 -34q73 0 140 20t122 58t87.5 100t32.5 139q0 163 -230 262l-149 63q-37 16 -63 31t-53.5 37t-42 51.5t-14.5 64.5q0 75 45 129t109.5 77.5t137.5 23.5q63 0 114.5 -17.5t83 -43t55 -59.5t34 -63 t14.5 -58l76 20q-4 37 -18.5 75.5t-44 79t-70.5 71.5t-103.5 51t-137.5 20z" />
<glyph unicode="&#x15c;" d="M630 -19q103 0 196 28.5t166.5 82.5t117 139.5t43.5 191.5q0 72 -28.5 133t-83.5 109t-106.5 80t-127.5 70l-114 57q-49 24 -81.5 42.5t-76.5 49.5t-70.5 61.5t-45.5 72.5t-19 88q0 114 63.5 197t160 121t210.5 38q79 0 144.5 -19.5t108.5 -53t74.5 -72.5t48 -81.5 t23.5 -77t7 -63.5l80 15q0 98 -56 199q-57 101 -163 165.5t-265 64.5q-102 0 -195.5 -29t-166 -83t-116 -138.5t-43.5 -186.5q0 -57 22.5 -109.5t54 -89.5t81 -74t87 -58t88.5 -47l115 -58q39 -19 62 -31t59 -34t58.5 -39.5t49 -43.5t41 -51.5t25 -58.5t10.5 -69 q0 -89 -36.5 -159.5t-98.5 -113.5t-138.5 -65.5t-160.5 -22.5q-192 0 -318.5 135.5t-125.5 331.5l-81 -14q0 -145 68.5 -266.5t188.5 -192.5t264 -71zM938 2041l-315 -291h-87l364 353h89l181 -352h-73z" />
<glyph unicode="&#x15d;" horiz-adv-x="1004" d="M577 1113q-96 0 -179.5 -34t-140 -107t-56.5 -172q0 -46 18 -84.5t51 -68t68.5 -51t81.5 -41.5l140 -60q40 -17 69.5 -33.5t60 -41t47 -57t16.5 -70.5q0 -77 -46 -132.5t-112 -79.5t-141 -24q-86 0 -151.5 28t-101.5 73t-53.5 95.5t-16.5 101.5l-79 -19 q0 -59 22.5 -118.5t67.5 -114t125.5 -88.5t184.5 -34q73 0 140 20t122 58t87.5 100t32.5 139q0 163 -230 262l-149 63q-37 16 -63 31t-53.5 37t-42 51.5t-14.5 64.5q0 75 45 129t109.5 77.5t137.5 23.5q63 0 114.5 -17.5t83 -43t55 -59.5t34 -63t14.5 -58l76 20 q-4 37 -18.5 75.5t-44 79t-70.5 71.5t-103.5 51t-137.5 20zM688 1571l-315 -291h-87l364 353h89l181 -352h-73z" />
<glyph unicode="&#x15e;" d="M592 -18q-206 15 -344.5 166.5t-138.5 362.5l81 14q-1 -196 125.5 -331.5t318.5 -135.5q84 0 160.5 22.5t138.5 65.5t98.5 113.5t36.5 159.5q0 36 -10.5 69t-25 58.5t-41 51.5t-49 43.5t-58.5 39.5t-59 34t-62 31l-115 58q-51 26 -88.5 47t-87 58t-81 74t-54 89.5 t-22.5 109.5q0 102 43.5 186.5t116 138.5t166 83t195.5 29q159 0 265 -64.5t163 -165.5q56 -101 56 -199l-80 -15q0 29 -7 63.5t-23.5 77t-48 81.5t-74.5 72.5t-108.5 53t-144.5 19.5q-114 0 -210.5 -38t-160 -121t-63.5 -197q0 -46 19 -88t45.5 -72.5t70.5 -61.5 t76.5 -49.5t81.5 -42.5l114 -57q76 -38 127.5 -70t106.5 -80t83.5 -109t28.5 -133q0 -101 -39.5 -183.5t-106.5 -136t-153 -84.5t-183 -37q36 -37 58.5 -87t22.5 -98q0 -132 -91 -211.5t-225 -79.5q-121 0 -190 40l17 63q78 -31 164 -31q105 0 176 63t71 163q0 96 -82 178z " />
<glyph unicode="&#x15f;" horiz-adv-x="1004" d="M577 1113q75 0 137.5 -20t103.5 -51t70.5 -71.5t44 -79t18.5 -75.5l-76 -20q-4 29 -14.5 58t-34 63t-55 59.5t-83 43t-114.5 17.5q-73 0 -137.5 -23.5t-109.5 -77.5t-45 -129q0 -35 14.5 -64.5t42 -51.5t53.5 -37t63 -31l149 -63q230 -99 230 -262q0 -73 -29 -132 t-78.5 -97t-111 -60t-130.5 -27q36 -37 58 -86.5t22 -98.5q0 -132 -90.5 -211.5t-224.5 -79.5q-122 0 -191 40l17 63q80 -31 165 -31q105 0 175.5 63t70.5 163q0 97 -82 179q-91 7 -162 43.5t-111 88.5t-60 108.5t-20 112.5l79 19q-1 -51 16.5 -101.5t53.5 -95.5t101.5 -73 t151.5 -28q75 0 141 24t112 79.5t46 132.5q0 38 -16.5 70.5t-47 57t-60 41t-69.5 33.5l-140 60q-46 20 -81.5 41.5t-68.5 51t-51 68t-18 84.5q0 99 56.5 172t140 107t179.5 34z" />
<glyph unicode="&#x160;" d="M630 -19q103 0 196 28.5t166.5 82.5t117 139.5t43.5 191.5q0 72 -28.5 133t-83.5 109t-106.5 80t-127.5 70l-114 57q-49 24 -81.5 42.5t-76.5 49.5t-70.5 61.5t-45.5 72.5t-19 88q0 114 63.5 197t160 121t210.5 38q79 0 144.5 -19.5t108.5 -53t74.5 -72.5t48 -81.5 t23.5 -77t7 -63.5l80 15q0 98 -56 199q-57 101 -163 165.5t-265 64.5q-102 0 -195.5 -29t-166 -83t-116 -138.5t-43.5 -186.5q0 -57 22.5 -109.5t54 -89.5t81 -74t87 -58t88.5 -47l115 -58q39 -19 62 -31t59 -34t58.5 -39.5t49 -43.5t41 -51.5t25 -58.5t10.5 -69 q0 -89 -36.5 -159.5t-98.5 -113.5t-138.5 -65.5t-160.5 -22.5q-192 0 -318.5 135.5t-125.5 331.5l-81 -14q0 -145 68.5 -266.5t188.5 -192.5t264 -71zM868 1812l315 290h87l-364 -352h-89l-181 352h72z" />
<glyph unicode="&#x161;" horiz-adv-x="1004" d="M577 1113q-96 0 -179.5 -34t-140 -107t-56.5 -172q0 -46 18 -84.5t51 -68t68.5 -51t81.5 -41.5l140 -60q40 -17 69.5 -33.5t60 -41t47 -57t16.5 -70.5q0 -77 -46 -132.5t-112 -79.5t-141 -24q-86 0 -151.5 28t-101.5 73t-53.5 95.5t-16.5 101.5l-79 -19 q0 -59 22.5 -118.5t67.5 -114t125.5 -88.5t184.5 -34q73 0 140 20t122 58t87.5 100t32.5 139q0 163 -230 262l-149 63q-37 16 -63 31t-53.5 37t-42 51.5t-14.5 64.5q0 75 45 129t109.5 77.5t137.5 23.5q63 0 114.5 -17.5t83 -43t55 -59.5t34 -63t14.5 -58l76 20 q-4 37 -18.5 75.5t-44 79t-70.5 71.5t-103.5 51t-137.5 20zM630 1342l315 290h87l-364 -352h-89l-181 352h72z" />
<glyph unicode="&#x162;" horiz-adv-x="1245" d="M439 0l407 1527h-540l21 77h1155l-21 -77h-530l-408 -1527h-3q43 -36 71.5 -92t28.5 -111q0 -132 -91 -211.5t-225 -79.5q-121 0 -191 40l17 63q80 -31 165 -31q105 0 175.5 63t70.5 163q0 55 -29 108t-72 88h-1z" />
<glyph unicode="&#x163;" horiz-adv-x="696" d="M221 48q-46 46 -46 135q0 52 19 125l188 712h-208l19 73h208l82 312h82l-84 -312h282l-19 -73h-281l-191 -726q-15 -57 -15 -104q0 -71 42.5 -98t118.5 -27q34 0 87 11l-20 -76q-51 -11 -84 -11q-39 0 -74 6q52 -59 52 -132q0 -132 -90.5 -211.5t-224.5 -79.5 q-121 0 -190 40l17 63q80 -31 165 -31q105 0 175.5 63t70.5 163q0 95 -81 178z" />
<glyph unicode="&#x164;" horiz-adv-x="1245" d="M523 0h-84l407 1527h-540l21 77h1155l-21 -77h-530zM949 1812l315 290h87l-364 -352h-89l-181 352h72z" />
<glyph unicode="&#x165;" horiz-adv-x="694" d="M736 1260l137 409h98l-177 -409h-58zM270 294q-15 -57 -15 -104q0 -71 42.5 -98t118.5 -27q34 0 87 11l-20 -76q-51 -11 -84 -11q-226 0 -226 194q0 49 20 125l187 712h-208l19 73h208l82 312h82l-84 -312h282l-19 -73h-281z" />
<glyph unicode="&#x166;" d="M350 857h340l179 670h-540l20 77h1155l-20 -77h-530l-179 -670h340l-21 -78h-340l-208 -779h-85l208 779h-340z" />
<glyph unicode="&#x167;" horiz-adv-x="708" d="M471 1020l-100 -378h262l-19 -73h-262l-72 -275q-15 -57 -15 -104q0 -71 42.5 -98t118.5 -27q34 0 87 11l-20 -76q-51 -11 -84 -11q-226 0 -226 194q0 49 20 125l68 261h-197l19 73h197l100 378h-208l19 73h208l82 312h82l-84 -312h282l-19 -73h-281z" />
<glyph unicode="&#x168;" horiz-adv-x="1603" d="M1480 1929q-33 -74 -85 -125.5t-119 -51.5q-39 0 -79 21.5t-67 47.5t-64.5 47.5t-72.5 21.5q-84 0 -149 -126l-54 25q85 171 211 171q43 0 84.5 -21.5t68.5 -47t62.5 -47t67.5 -21.5q45 0 82 37.5t61 87.5zM1322 622q-71 -268 -211 -409q-152 -153 -369 -153 q-201 0 -316 101t-115 284q0 100 28 203l254 956h-85l-245 -928q-35 -135 -35 -239q0 -216 137.5 -335.5t371.5 -119.5q256 0 435 179q151 151 231 448l266 995h-85z" />
<glyph unicode="&#x169;" d="M1196 1459q-33 -74 -85 -125.5t-119 -51.5q-39 0 -79 21.5t-67 47.5t-64.5 47.5t-72.5 21.5q-84 0 -149 -126l-54 25q85 171 211 171q43 0 84.5 -21.5t68.5 -47t62.5 -47t67.5 -21.5q45 0 82 37.5t61 87.5zM943 254l-5 -17q-37 -142 -37 -237h80q-1 94 42 256l220 837 h-81l-163 -616q-51 -189 -190 -305.5t-289 -116.5q-145 0 -218 73t-73 201q0 78 21 156l161 608h-80l-159 -600q-25 -93 -25 -170q0 -152 92.5 -247.5t261.5 -95.5q145 0 256.5 78.5t185.5 195.5z" />
<glyph unicode="&#x16a;" horiz-adv-x="1603" d="M1491 1878l-19 -75h-683l19 75h683zM1669 1604l-266 -995q-80 -297 -231 -448q-179 -179 -435 -179q-234 0 -371.5 119.5t-137.5 335.5q0 104 35 239l245 928h85l-254 -956q-28 -103 -28 -203q0 -183 115 -284t316 -101q217 0 369 153q140 141 211 409l262 982h85z" />
<glyph unicode="&#x16b;" d="M1193 1388l-19 -75h-683l19 75h683zM943 254l-5 -17q-37 -142 -37 -237h80q-1 94 42 256l220 837h-81l-163 -616q-51 -189 -190 -305.5t-289 -116.5q-145 0 -218 73t-73 201q0 78 21 156l161 608h-80l-159 -600q-25 -93 -25 -170q0 -152 92.5 -247.5t261.5 -95.5 q145 0 256.5 78.5t185.5 195.5z" />
<glyph unicode="&#x16e;" horiz-adv-x="1603" d="M1314 1934q0 -94 -64.5 -160t-158.5 -66q-79 0 -131 51t-52 132q0 93 64.5 159.5t157.5 66.5q79 0 131.5 -51.5t52.5 -131.5zM1243 1931q0 50 -33.5 84.5t-84.5 34.5q-61 0 -104 -48t-43 -109q0 -51 33.5 -84.5t84.5 -33.5q62 0 104.5 47t42.5 109zM1669 1604l-266 -995 q-80 -297 -231 -448q-179 -179 -435 -179q-234 0 -371.5 119.5t-137.5 335.5q0 104 35 239l245 928h85l-254 -956q-28 -103 -28 -203q0 -183 115 -284t316 -101q217 0 369 153q140 141 211 409l262 982h85z" />
<glyph unicode="&#x16f;" d="M1038 1463q0 -94 -64.5 -160t-158.5 -66q-79 0 -131 51t-52 132q0 93 64.5 159.5t157.5 66.5q79 0 131.5 -51.5t52.5 -131.5zM967 1460q0 50 -33.5 84.5t-84.5 34.5q-61 0 -104 -48t-43 -109q0 -51 33.5 -84.5t84.5 -33.5q62 0 104.5 47t42.5 109zM943 254l-5 -17 q-37 -142 -37 -237h80q-1 94 42 256l220 837h-81l-163 -616q-51 -189 -190 -305.5t-289 -116.5q-145 0 -218 73t-73 201q0 78 21 156l161 608h-80l-159 -600q-25 -93 -25 -170q0 -152 92.5 -247.5t261.5 -95.5q145 0 256.5 78.5t185.5 195.5z" />
<glyph unicode="&#x170;" horiz-adv-x="1603" d="M895 1750l323 353h99l-341 -353h-81zM1195 1750l323 353h99l-341 -353h-81zM1669 1604l-266 -995q-80 -297 -231 -448q-179 -179 -435 -179q-234 0 -371.5 119.5t-137.5 335.5q0 104 35 239l245 928h85l-254 -956q-28 -103 -28 -203q0 -183 115 -284t316 -101 q217 0 369 153q140 141 211 409l262 982h85z" />
<glyph unicode="&#x171;" d="M629 1280l323 353h99l-331 -353h-91zM929 1280l323 353h99l-331 -353h-91zM943 254l-5 -17q-37 -142 -37 -237h80q-1 94 42 256l220 837h-81l-163 -616q-51 -189 -190 -305.5t-289 -116.5q-145 0 -218 73t-73 201q0 78 21 156l161 608h-80l-159 -600q-25 -93 -25 -170 q0 -152 92.5 -247.5t261.5 -95.5q145 0 256.5 78.5t185.5 195.5z" />
<glyph unicode="&#x172;" horiz-adv-x="1603" d="M1669 1604l-266 -995q-80 -297 -231 -448q-121 -121 -284 -161h10q-245 -152 -245 -288q0 -73 48 -107t123 -34q13 0 41 2l-18 -66q-29 -6 -57 -6q-90 0 -152.5 50t-62.5 137q0 83 64 161t152 135q-36 -2 -54 -2q-234 0 -371.5 119.5t-137.5 335.5q0 104 35 239l245 928 h85l-254 -956q-28 -103 -28 -203q0 -183 115 -284t316 -101q217 0 369 153q140 141 211 409l262 982h85z" />
<glyph unicode="&#x173;" d="M930 -493q-28 -6 -57 -6q-90 0 -152.5 50t-62.5 137q0 89 74 173.5t169 139.5q0 109 37 236l5 17q-74 -117 -185.5 -195.5t-256.5 -78.5q-169 0 -261.5 95.5t-92.5 247.5q0 77 25 170l159 600h80l-161 -608q-21 -78 -21 -156q0 -128 73 -201t218 -73q150 0 289.5 116.5 t189.5 305.5l163 616h81l-220 -837q-43 -162 -42 -256q-245 -152 -245 -288q0 -73 48 -107t123 -34q13 0 41 2z" />
<glyph unicode="&#x174;" horiz-adv-x="2273" d="M2485 1604h-92l-872 -1502l-75 1502h-81l-850 -1502l-93 1502h-84l105 -1604h92l843 1475l73 -1475h92zM1500 2041l-315 -291h-87l364 353h89l181 -352h-73z" />
<glyph unicode="&#x175;" horiz-adv-x="1753" d="M1171 0h-84l-92 981l-607 -981h-82l-102 1093h81l86 -993l611 993h80l89 -993l603 993h88zM1150 1571l-315 -291h-87l364 353h89l181 -352h-73z" />
<glyph unicode="&#x176;" horiz-adv-x="1470" d="M618 0h-85l187 697l-379 907h92l345 -839l793 839h111l-884 -927zM1092 2041l-315 -291h-87l364 353h89l181 -352h-73z" />
<glyph unicode="&#x177;" horiz-adv-x="1181" d="M48 -539l380 541l-233 1091h86l208 -1009l694 1009h96l-1133 -1632h-98zM870 1571l-315 -291h-87l364 353h89l181 -352h-73z" />
<glyph unicode="&#x178;" horiz-adv-x="1470" d="M823 1921q0 34 23.5 58t56.5 24q32 0 55.5 -24t23.5 -58t-23.5 -58t-55.5 -24q-33 0 -56.5 24t-23.5 58zM1166 1921q0 34 23 58t56 24t56.5 -24t23.5 -58t-23.5 -58t-56.5 -24t-56 24t-23 58zM618 0h-85l187 697l-379 907h92l345 -839l793 839h111l-884 -927z" />
<glyph unicode="&#x179;" horiz-adv-x="1243" d="M867 1750l323 353h99l-331 -353h-91zM1035 0h-1117l20 75l1390 1452h-969l20 77h1079l-22 -76l-1387 -1451h1007z" />
<glyph unicode="&#x17a;" horiz-adv-x="1005" d="M612 1280l323 353h99l-341 -353h-81zM-67 0l18 69l1000 953h-731l19 71h835l-18 -68l-997 -954h750l-19 -71h-857z" />
<glyph unicode="&#x17b;" horiz-adv-x="1243" d="M947 1842q-32 0 -53 20.5t-21 52.5q0 38 26.5 64.5t63.5 26.5q32 0 53 -20.5t21 -52.5q0 -38 -26.5 -64.5t-63.5 -26.5zM1035 0h-1117l20 75l1390 1452h-969l20 77h1079l-22 -76l-1387 -1451h1007z" />
<glyph unicode="&#x17c;" horiz-adv-x="1005" d="M719 1369q-32 0 -53 20.5t-21 52.5q0 38 26.5 64.5t63.5 26.5q32 0 53 -20.5t21 -52.5q0 -38 -26.5 -64.5t-63.5 -26.5zM-67 0l18 69l1000 953h-731l19 71h835l-18 -68l-997 -954h750l-19 -71h-857z" />
<glyph unicode="&#x17d;" horiz-adv-x="1243" d="M49 77h1007l-21 -77h-1117l20 75l1390 1452h-969l20 77h1079l-22 -76zM942 1812l315 290h87l-364 -352h-89l-181 352h72z" />
<glyph unicode="&#x17e;" horiz-adv-x="1005" d="M712 1342l305 291h97l-364 -353h-89l-181 352h79zM-67 0l18 69l1000 953h-731l19 71h835l-18 -68l-997 -954h750l-19 -71h-857z" />
<glyph unicode="&#x192;" horiz-adv-x="1109" d="M458 1020l20 73h263l114 248q123 268 366 268q64 0 116 -20l-20 -74q-44 18 -102 18q-188 0 -289 -218l-102 -222h300l-19 -73h-315l-354 -771q-122 -267 -366 -267q-69 0 -115 20l20 73q42 -18 101 -18q189 0 290 219l342 744h-250z" />
<glyph unicode="&#x1b5;" horiz-adv-x="1263" d="M695 857l642 670h-969l20 77h1079l-22 -76l-642 -671h459l-20 -78h-513l-671 -702h1007l-21 -77h-1117l20 75l674 704h-453l21 78h506z" />
<glyph unicode="&#x1b6;" horiz-adv-x="1019" d="M114 584h384l459 438h-731l19 71h835l-18 -68l-462 -441h346l-19 -72h-401l-461 -441h750l-19 -71h-857l18 69l465 443h-327z" />
<glyph unicode="&#x1cd;" horiz-adv-x="1548" d="M1235 457h-928l-325 -457h-95l1141 1604h90l279 -1604h-84zM1223 534l-167 979l-694 -979h861zM1097 1812l315 290h87l-364 -352h-89l-181 352h72z" />
<glyph unicode="&#x1ce;" horiz-adv-x="1397" d="M1045 258l-5 -21q-38 -146 -38 -237h80q-1 87 42 255l221 838h-80l-90 -334h-1q-15 68 -49 129t-88.5 112.5t-136.5 82t-181 30.5q-102 0 -196 -36.5t-168 -101t-129 -149t-84.5 -184.5t-29.5 -203q0 -197 124.5 -326.5t315.5 -129.5q158 0 291 83.5t201 191.5h1z M727 1039q182 0 294.5 -117t112.5 -294q0 -96 -45 -197.5t-120 -184t-182.5 -136t-221.5 -53.5q-162 0 -265.5 111t-103.5 283q0 108 39 213.5t107 188.5t169 134.5t216 51.5zM772 1342l315 290h87l-364 -352h-89l-181 352h72z" />
<glyph unicode="&#x1cf;" horiz-adv-x="574" d="M533 1604h85l-429 -1604h-84zM612 1812l315 290h87l-364 -352h-89l-181 352h72z" />
<glyph unicode="&#x1d0;" horiz-adv-x="480" d="M61 0l287 1093h82l-287 -1093h-82zM446 1342l315 290h87l-364 -352h-89l-181 352h72z" />
<glyph unicode="&#x1d1;" horiz-adv-x="1814" d="M868 -17q-147 0 -274.5 53t-216 145t-138.5 217.5t-50 267.5q0 146 45 288.5t128.5 261.5t194 210.5t249.5 143t286 51.5q197 0 353.5 -91t242 -246.5t85.5 -345.5q0 -182 -71.5 -356.5t-192 -306t-289.5 -212t-352 -80.5zM871 58q168 0 321 74t260.5 195t171 280.5 t63.5 326.5q0 171 -74 309.5t-211.5 219.5t-312.5 81q-135 0 -261 -47.5t-225.5 -131.5t-174.5 -193t-115 -239.5t-40 -264.5q0 -170 74.5 -308.5t212 -220t311.5 -81.5zM1122 1812l315 290h87l-364 -352h-89l-181 352h72z" />
<glyph unicode="&#x1d2;" horiz-adv-x="1341" d="M601 -18q-214 0 -351 135.5t-137 344.5q0 121 49 238.5t132 209t203 147.5t252 56q214 0 352.5 -136t138.5 -344q0 -164 -83.5 -313.5t-232 -243.5t-323.5 -94zM610 57q148 0 274.5 81.5t198.5 212.5t72 275q0 183 -113.5 298t-297.5 115q-149 0 -276.5 -82.5t-199 -213 t-71.5 -273.5q0 -183 114 -298t299 -115zM785 1342l315 290h87l-364 -352h-89l-181 352h72z" />
<glyph unicode="&#x1d3;" horiz-adv-x="1603" d="M1669 1604l-266 -995q-80 -297 -231 -448q-179 -179 -435 -179q-234 0 -371.5 119.5t-137.5 335.5q0 104 35 239l245 928h85l-254 -956q-28 -103 -28 -203q0 -183 115 -284t316 -101q217 0 369 153q140 141 211 409l262 982h85zM1123 1790l315 290h87l-364 -352h-89 l-181 352h72z" />
<glyph unicode="&#x1d4;" d="M943 254l-5 -17q-37 -142 -37 -237h80q-1 94 42 256l220 837h-81l-163 -616q-51 -189 -190 -305.5t-289 -116.5q-145 0 -218 73t-73 201q0 78 21 156l161 608h-80l-159 -600q-25 -93 -25 -170q0 -152 92.5 -247.5t261.5 -95.5q145 0 256.5 78.5t185.5 195.5zM838 1342 l315 290h87l-364 -352h-89l-181 352h72z" />
<glyph unicode="&#x1d5;" horiz-adv-x="1603" d="M1669 1604l-266 -995q-80 -297 -231 -448q-179 -179 -435 -179q-234 0 -371.5 119.5t-137.5 335.5q0 104 35 239l245 928h85l-254 -956q-28 -103 -28 -203q0 -183 115 -284t316 -101q217 0 369 153q140 141 211 409l262 982h85zM1546 2048l-18 -74h-684l18 74h684z M874 1761q0 34 23 58t57 24q32 0 55 -24t23 -58t-23 -58t-55 -24q-34 0 -57 24t-23 58zM1217 1761q0 34 23 58t56 24q32 0 55 -24t23 -58t-23 -58t-55 -24q-33 0 -56 24t-23 58z" />
<glyph unicode="&#x1d6;" d="M943 254l-5 -17q-37 -142 -37 -237h80q-1 94 42 256l220 837h-81l-163 -616q-51 -189 -190 -305.5t-289 -116.5q-145 0 -218 73t-73 201q0 78 21 156l161 608h-80l-159 -600q-25 -93 -25 -170q0 -152 92.5 -247.5t261.5 -95.5q145 0 256.5 78.5t185.5 195.5zM1294 1726 l-18 -75h-684l18 75h684zM692 1296q-32 0 -51.5 20.5t-19.5 53.5q0 37 25 63.5t63 26.5q32 0 51.5 -19.5t19.5 -51.5q0 -39 -25 -66t-63 -27zM1016 1296q-32 0 -52 21t-20 53q0 37 25 63.5t63 26.5q32 0 52 -19.5t20 -51.5q0 -39 -25.5 -66t-62.5 -27z" />
<glyph unicode="&#x1d7;" horiz-adv-x="1603" d="M1669 1604l-266 -995q-80 -297 -231 -448q-179 -179 -435 -179q-234 0 -371.5 119.5t-137.5 335.5q0 104 35 239l245 928h85l-254 -956q-28 -103 -28 -203q0 -183 115 -284t316 -101q217 0 369 153q140 141 211 409l262 982h85zM874 1761q0 34 23 58t57 24q32 0 55 -24 t23 -58t-23 -58t-55 -24q-34 0 -57 24t-23 58zM1217 1761q0 34 23 58t56 24q32 0 55 -24t23 -58t-23 -58t-55 -24q-33 0 -56 24t-23 58zM1112 1933l305 332h99l-323 -332h-81z" />
<glyph unicode="&#x1d8;" d="M943 254l-5 -17q-37 -142 -37 -237h80q-1 94 42 256l220 837h-81l-163 -616q-51 -189 -190 -305.5t-289 -116.5q-145 0 -218 73t-73 201q0 78 21 156l161 608h-80l-159 -600q-25 -93 -25 -170q0 -152 92.5 -247.5t261.5 -95.5q145 0 256.5 78.5t185.5 195.5zM866 1610 l303 332h99l-321 -332h-81zM692 1296q-32 0 -51.5 20.5t-19.5 53.5q0 37 25 63.5t63 26.5q32 0 51.5 -19.5t19.5 -51.5q0 -39 -25 -66t-63 -27zM1016 1296q-32 0 -52 21t-20 53q0 37 25 63.5t63 26.5q32 0 52 -19.5t20 -51.5q0 -39 -25.5 -66t-62.5 -27z" />
<glyph unicode="&#x1d9;" horiz-adv-x="1603" d="M1669 1604l-266 -995q-80 -297 -231 -448q-179 -179 -435 -179q-234 0 -371.5 119.5t-137.5 335.5q0 104 35 239l245 928h85l-254 -956q-28 -103 -28 -203q0 -183 115 -284t316 -101q217 0 369 153q140 141 211 409l262 982h85zM1174 1995l302 270h83l-347 -332h-88 l-172 332h69zM874 1761q0 34 23 58t57 24q32 0 55 -24t23 -58t-23 -58t-55 -24q-34 0 -57 24t-23 58zM1217 1761q0 34 23 58t56 24q32 0 55 -24t23 -58t-23 -58t-55 -24q-33 0 -56 24t-23 58z" />
<glyph unicode="&#x1da;" d="M943 254l-5 -17q-37 -142 -37 -237h80q-1 94 42 256l220 837h-81l-163 -616q-51 -189 -190 -305.5t-289 -116.5q-145 0 -218 73t-73 201q0 78 21 156l161 608h-80l-159 -600q-25 -93 -25 -170q0 -152 92.5 -247.5t261.5 -95.5q145 0 256.5 78.5t185.5 195.5zM924 1673 l300 271h83l-344 -332h-91l-170 332h71zM692 1296q-32 0 -51.5 20.5t-19.5 53.5q0 37 25 63.5t63 26.5q32 0 51.5 -19.5t19.5 -51.5q0 -39 -25 -66t-63 -27zM1016 1296q-32 0 -52 21t-20 53q0 37 25 63.5t63 26.5q32 0 52 -19.5t20 -51.5q0 -39 -25.5 -66t-62.5 -27z" />
<glyph unicode="&#x1db;" horiz-adv-x="1603" d="M1669 1604l-266 -995q-80 -297 -231 -448q-179 -179 -435 -179q-234 0 -371.5 119.5t-137.5 335.5q0 104 35 239l245 928h85l-254 -956q-28 -103 -28 -203q0 -183 115 -284t316 -101q217 0 369 153q140 141 211 409l262 982h85zM874 1761q0 34 23 58t57 24q32 0 55 -24 t23 -58t-23 -58t-55 -24q-34 0 -57 24t-23 58zM1217 1761q0 34 23 58t56 24q32 0 55 -24t23 -58t-23 -58t-55 -24q-33 0 -56 24t-23 58zM1053 2265l129 -332h-65l-146 332h82z" />
<glyph unicode="&#x1dc;" d="M943 254l-5 -17q-37 -142 -37 -237h80q-1 94 42 256l220 837h-81l-163 -616q-51 -189 -190 -305.5t-289 -116.5q-145 0 -218 73t-73 201q0 78 21 156l161 608h-80l-159 -600q-25 -93 -25 -170q0 -152 92.5 -247.5t261.5 -95.5q145 0 256.5 78.5t185.5 195.5zM805 1942 l131 -332h-64l-147 332h80zM692 1296q-32 0 -51.5 20.5t-19.5 53.5q0 37 25 63.5t63 26.5q32 0 51.5 -19.5t19.5 -51.5q0 -39 -25 -66t-63 -27zM1016 1296q-32 0 -52 21t-20 53q0 37 25 63.5t63 26.5q32 0 52 -19.5t20 -51.5q0 -39 -25.5 -66t-62.5 -27z" />
<glyph unicode="&#x1e6;" horiz-adv-x="1772" d="M887 670l20 77h825q-22 -176 -101.5 -322t-197 -241.5t-263 -148t-300.5 -52.5q-199 0 -354 87t-240 242.5t-85 353.5q0 129 33.5 252.5t92.5 228t143 193t183 150.5t215 96.5t236 34.5t224.5 -32.5t175.5 -84.5t125.5 -119.5t83.5 -133.5t40 -130l-78 -23 q-9 43 -27 90.5t-62 114.5t-103.5 117.5t-159.5 87t-222 36.5q-143 0 -272 -49t-227 -134.5t-170 -196t-109.5 -238.5t-37.5 -258q0 -270 166 -440t432 -170q200 0 355.5 81.5t259.5 217.5q114 147 147 313h-748zM1124 1812l315 290h87l-364 -352h-89l-181 352h72z" />
<glyph unicode="&#x1e7;" horiz-adv-x="1396" d="M1346 1093h-79l-85 -321h-1q-13 64 -50 124.5t-93 109t-136 78t-170 29.5q-170 0 -311 -87t-220.5 -234.5t-79.5 -322.5q0 -190 127 -320.5t313 -130.5q151 0 288 79.5t202 182.5h2l-79 -299q-58 -222 -198 -337t-347 -115q-96 0 -172 28.5t-120.5 70.5t-73.5 96 t-39 99.5t-10 87.5l-78 -16q2 -59 19.5 -118.5t55.5 -118.5t93 -104t138.5 -73t184.5 -28q240 0 400 134.5t223 375.5zM1143 647q0 -95 -44.5 -194t-119 -178.5t-181.5 -130t-222 -50.5q-159 0 -265 108.5t-106 272.5q0 110 38.5 211.5t106 179.5t167 124.5t215.5 46.5 q181 0 296 -112.5t115 -277.5zM785 1342l315 290h87l-364 -352h-89l-181 352h72z" />
<glyph unicode="&#x1e8;" horiz-adv-x="1323" d="M417 813l667 -813h111l-687 824l1067 780h-126l-1020 -745h-10l199 745h-85l-428 -1604h84l218 813h10zM1021 1793l315 290h87l-364 -352h-89l-181 352h72z" />
<glyph unicode="&#x1e9;" horiz-adv-x="1034" d="M307 619l708 474h136l-765 -503l506 -590h-104l-491 577h-5l-152 -577h-80l439 1668h80l-276 -1049h4zM968 1342l315 290h87l-364 -352h-89l-181 352h72z" />
<glyph unicode="&#x1f4;" horiz-adv-x="1772" d="M1040 1750l323 353h99l-341 -353h-81zM887 670l20 77h825q-22 -176 -101.5 -322t-197 -241.5t-263 -148t-300.5 -52.5q-199 0 -354 87t-240 242.5t-85 353.5q0 129 33.5 252.5t92.5 228t143 193t183 150.5t215 96.5t236 34.5t224.5 -32.5t175.5 -84.5t125.5 -119.5 t83.5 -133.5t40 -130l-78 -23q-9 43 -27 90.5t-62 114.5t-103.5 117.5t-159.5 87t-222 36.5q-143 0 -272 -49t-227 -134.5t-170 -196t-109.5 -238.5t-37.5 -258q0 -270 166 -440t432 -170q200 0 355.5 81.5t259.5 217.5q114 147 147 313h-748z" />
<glyph unicode="&#x1f5;" horiz-adv-x="1396" d="M733 1280l323 353h99l-341 -353h-81zM1050 -37q-63 -241 -223 -375.5t-400 -134.5q-101 0 -184.5 28t-138.5 73t-93 104t-55.5 118.5t-19.5 118.5l78 16q0 -42 10 -87.5t39 -99.5t73.5 -96t120.5 -70.5t172 -28.5q206 0 346 114.5t199 337.5l79 299h-2 q-65 -103 -202 -182.5t-288 -79.5q-186 0 -313 130.5t-127 320.5q0 175 79.5 322.5t220.5 234.5t311 87q90 0 170 -29.5t136 -78t93 -109t50 -124.5h1l85 321h79zM1143 647q0 165 -115 277.5t-296 112.5q-116 0 -215.5 -46.5t-167 -124.5t-106 -179.5t-38.5 -211.5 q0 -164 106 -272.5t265 -108.5q115 0 222 50.5t181.5 130t119 178.5t44.5 194z" />
<glyph unicode="&#x1fa;" horiz-adv-x="1548" d="M1219 1903q71 -53 71 -147q0 -77 -45 -136t-116 -79l268 -1541h-84l-78 457h-928l-325 -457h-95l1101 1547q-48 21 -76 64.5t-28 101.5q0 93 64.5 159.5t157.5 66.5q26 0 49 -6l268 293h99zM1219 1753q0 50 -33.5 84.5t-84.5 34.5q-61 0 -104 -48t-43 -109 q0 -51 33.5 -84.5t84.5 -33.5q62 0 104.5 47t42.5 109zM362 534h861l-167 979z" />
<glyph unicode="&#x1fb;" horiz-adv-x="1397" d="M987 1609q70 -54 70 -146q0 -94 -64.5 -160t-158.5 -66q-79 0 -131 51t-52 132q0 93 64.5 159.5t157.5 66.5q26 0 50 -6l268 292h99zM986 1460q0 50 -33.5 84.5t-84.5 34.5q-61 0 -104 -48t-43 -109q0 -51 33.5 -84.5t84.5 -33.5q62 0 104.5 47t42.5 109zM1045 258 l-5 -21q-38 -146 -38 -237h80q-1 87 42 255l221 838h-80l-90 -334h-1q-15 68 -49 129t-88.5 112.5t-136.5 82t-181 30.5q-102 0 -196 -36.5t-168 -101t-129 -149t-84.5 -184.5t-29.5 -203q0 -197 124.5 -326.5t315.5 -129.5q158 0 291 83.5t201 191.5h1zM727 1039 q182 0 294.5 -117t112.5 -294q0 -96 -45 -197.5t-120 -184t-182.5 -136t-221.5 -53.5q-162 0 -265.5 111t-103.5 283q0 108 39 213.5t107 188.5t169 134.5t216 51.5z" />
<glyph unicode="&#x1fc;" horiz-adv-x="2105" d="M1446 1750l323 353h99l-341 -353h-81zM363 457l-399 -457h-103l1399 1604h998l-21 -77h-835l-179 -670h765l-21 -78h-766l-187 -702h846l-21 -77h-930l123 457h-669zM1318 1527h-26l-863 -993h623z" />
<glyph unicode="&#x1fd;" horiz-adv-x="1964" d="M1042 1280l323 353h99l-341 -353h-81zM388 -19q-89 0 -164 29.5t-124 92.5t-49 150q0 88 41 155.5t111.5 106.5t152 59t174.5 22l315 8q29 133 108 244q-16 85 -90 138t-179 53q-80 0 -148 -23t-111.5 -55.5t-77.5 -75t-50 -75.5t-25 -63l-76 25q11 37 32 77.5t62 89 t94 86t133 63t172 25.5q112 0 199 -51.5t120 -144.5q84 91 191.5 143.5t224.5 52.5q214 0 328.5 -124.5t114.5 -339.5q0 -40 -10 -116h-943q-3 -27 -3 -55q0 -185 112.5 -303t292.5 -118q290 0 438 275l66 -37q-172 -313 -511 -313q-154 0 -269.5 76.5t-169.5 207.5 q-81 -129 -209 -207t-273 -78zM1785 650q0 179 -94 284t-273 105q-106 0 -214 -60.5t-185 -161t-96 -211.5h860q2 30 2 44zM536 525q-75 -2 -140.5 -16t-127 -43.5t-97.5 -83.5t-36 -128q0 -89 74.5 -144t184.5 -55q144 0 264 86t184 217q-12 56 -12 117q0 29 3 58z" />
<glyph unicode="&#x1fe;" horiz-adv-x="1814" d="M1063 1750l323 353h99l-341 -353h-81zM1603 1404q82 -92 126 -211.5t44 -254.5q0 -146 -45.5 -288.5t-129 -261.5t-194.5 -210.5t-250 -143t-286 -51.5q-289 0 -478 187l-195 -198l-55 54l198 201q-149 185 -149 439q0 146 45 288.5t128.5 261.5t194 210.5t249.5 143 t286 51.5q270 0 455 -163l171 175l55 -54zM1089 1544q-135 0 -261 -47.5t-225.5 -131.5t-174.5 -193t-115 -239.5t-40 -264.5q0 -222 122 -383l1096 1114q-162 145 -402 145zM871 58q168 0 321 74t260.5 195t171 280.5t63.5 326.5q0 246 -143 412l-1099 -1120 q168 -168 426 -168z" />
<glyph unicode="&#x1ff;" horiz-adv-x="1341" d="M721 1280l323 353h99l-341 -353h-81zM1130 948q110 -132 110 -315q0 -164 -83.5 -313.5t-232 -243.5t-323.5 -94q-189 0 -322 109l-154 -156l-48 48l153 155q-117 131 -117 324q0 121 49 238.5t132 209t203 147.5t252 56q196 0 332 -118l149 150l47 -48zM197 470 q0 -162 92 -274l739 745q-48 45 -123 71.5t-161 26.5q-149 0 -276.5 -82.5t-199 -213t-71.5 -273.5zM1155 626q0 157 -83 265l-735 -742q108 -92 273 -92q148 0 274.5 81.5t198.5 212.5t72 275z" />
<glyph unicode="&#x218;" d="M425 -497q67 12 112 61t54 131q-20 -14 -48 -14q-29 0 -49.5 18t-20.5 48q0 36 27 59t64 23q41 0 60.5 -29t19.5 -74q0 -119 -69 -191t-163 -81zM630 -19q-144 0 -264 71t-188.5 192.5t-68.5 266.5l81 14q-1 -196 125.5 -331.5t318.5 -135.5q84 0 160.5 22.5t138.5 65.5 t98.5 113.5t36.5 159.5q0 36 -10.5 69t-25 58.5t-41 51.5t-49 43.5t-58.5 39.5t-59 34t-62 31l-115 58q-51 26 -88.5 47t-87 58t-81 74t-54 89.5t-22.5 109.5q0 102 43.5 186.5t116 138.5t166 83t195.5 29q159 0 265 -64.5t163 -165.5q56 -101 56 -199l-80 -15q0 29 -7 63.5 t-23.5 77t-48 81.5t-74.5 72.5t-108.5 53t-144.5 19.5q-114 0 -210.5 -38t-160 -121t-63.5 -197q0 -46 19 -88t45.5 -72.5t70.5 -61.5t76.5 -49.5t81.5 -42.5l114 -57q76 -38 127.5 -70t106.5 -80t83.5 -109t28.5 -133q0 -106 -43.5 -191.5t-117 -139.5t-166.5 -82.5 t-196 -28.5z" />
<glyph unicode="&#x219;" horiz-adv-x="1004" d="M274 -497q67 12 112 61t54 131q-21 -14 -48 -14q-29 0 -49.5 18t-20.5 48q0 36 27 59t64 23q41 0 60.5 -29t19.5 -74q0 -119 -69 -191t-163 -81zM577 1113q75 0 137.5 -20t103.5 -51t70.5 -71.5t44 -79t18.5 -75.5l-76 -20q-4 29 -14.5 58t-34 63t-55 59.5t-83 43 t-114.5 17.5q-73 0 -137.5 -23.5t-109.5 -77.5t-45 -129q0 -35 14.5 -64.5t42 -51.5t53.5 -37t63 -31l149 -63q230 -99 230 -262q0 -77 -32.5 -139t-87.5 -100t-122 -58t-140 -20q-104 0 -184.5 34t-125.5 88.5t-67.5 114t-22.5 118.5l79 19q-1 -51 16.5 -101.5t53.5 -95.5 t101.5 -73t151.5 -28q75 0 141 24t112 79.5t46 132.5q0 38 -16.5 70.5t-47 57t-60 41t-69.5 33.5l-140 60q-46 20 -81.5 41.5t-68.5 51t-51 68t-18 84.5q0 99 56.5 172t140 107t179.5 34z" />
<glyph unicode="&#x21a;" horiz-adv-x="1245" d="M523 0h-84l407 1527h-540l21 77h1155l-21 -77h-530zM288 -497q66 12 112 61t55 131q-21 -14 -49 -14q-29 0 -49 18t-20 48q0 36 27 59t63 23q41 0 60.5 -29t19.5 -74q0 -119 -68.5 -191t-163.5 -81z" />
<glyph unicode="&#x21b;" horiz-adv-x="694" d="M270 294q-15 -57 -15 -104q0 -71 42.5 -98t118.5 -27q34 0 87 11l-20 -76q-51 -11 -84 -11q-226 0 -226 194q0 49 20 125l187 712h-208l19 73h208l82 312h82l-84 -312h282l-19 -73h-281zM79 -497q67 12 112 61t54 131q-20 -14 -48 -14q-29 0 -49 18t-20 48q0 36 27 59 t63 23q41 0 60.5 -29t19.5 -74q0 -119 -69 -191t-163 -81z" />
<glyph unicode="&#x237;" horiz-adv-x="494" d="M445 1093l-362 -1374q-34 -130 -108 -197.5t-216 -67.5q-54 0 -91 16l19 72q37 -13 75 -13q58 0 102 16.5t71.5 46.5t43.5 62.5t27 74.5l359 1364h80z" />
<glyph unicode="&#x300;" horiz-adv-x="0" d="M-28 1633l138 -353h-65l-155 353h82z" />
<glyph unicode="&#x301;" horiz-adv-x="0" d="M-211 1280l323 353h99l-341 -353h-81z" />
<glyph unicode="&#x302;" horiz-adv-x="0" d="M85 1571l-315 -291h-87l364 353h89l181 -352h-73z" />
<glyph unicode="&#x303;" horiz-adv-x="0" d="M345 1459q-33 -74 -85 -125.5t-119 -51.5q-39 0 -79 21.5t-67 47.5t-64.5 47.5t-72.5 21.5q-84 0 -149 -126l-54 25q85 171 211 171q43 0 84.5 -21.5t68.5 -47t62.5 -47t67.5 -21.5q45 0 82 37.5t61 87.5z" />
<glyph unicode="&#x304;" horiz-adv-x="0" d="M351 1388l-19 -75h-683l19 75h683z" />
<glyph unicode="&#x306;" horiz-adv-x="0" d="M354 1608q-47 -152 -154 -240t-261 -88q-65 0 -116 16.5t-80.5 43.5t-50.5 61.5t-27 71t-9 72t4 63.5h61q-15 -254 230 -254q220 0 338 254h65z" />
<glyph unicode="&#x307;" horiz-adv-x="0" d="M-8 1369q-32 0 -53 20.5t-21 52.5q0 38 26.5 64.5t63.5 26.5q32 0 53 -20.5t21 -52.5q0 -38 -26.5 -64.5t-63.5 -26.5z" />
<glyph unicode="&#x308;" horiz-adv-x="0" d="M-169 1369q-32 0 -52.5 20.5t-20.5 52.5q0 38 25.5 64.5t63.5 26.5q32 0 52 -20.5t20 -52.5q0 -38 -25.5 -64.5t-62.5 -26.5zM153 1369q-32 0 -52 20.5t-20 52.5q0 38 25.5 64.5t62.5 26.5q32 0 52.5 -20.5t20.5 -52.5q0 -38 -26 -64.5t-63 -26.5z" />
<glyph unicode="&#x30a;" horiz-adv-x="0" d="M203 1463q0 -94 -64.5 -160t-158.5 -66q-79 0 -131 51t-52 132q0 93 64.5 159.5t157.5 66.5q79 0 131.5 -51.5t52.5 -131.5zM132 1460q0 50 -33.5 84.5t-84.5 34.5q-61 0 -104 -48t-43 -109q0 -51 33.5 -84.5t84.5 -33.5q62 0 104.5 47t42.5 109z" />
<glyph unicode="&#x30b;" horiz-adv-x="0" d="M-361 1280l323 353h99l-341 -353h-81zM-61 1280l323 353h99l-341 -353h-81z" />
<glyph unicode="&#x30c;" horiz-adv-x="0" d="M-85 1342l315 290h87l-364 -352h-89l-181 352h72z" />
<glyph unicode="&#x312;" horiz-adv-x="0" d="M103 1616q-67 -13 -112 -62t-54 -131q21 14 48 14q30 0 50 -18t20 -48q0 -36 -27 -59t-64 -23q-41 0 -60.5 29.5t-19.5 73.5q0 119 69 191t163 81z" />
<glyph unicode="&#x326;" horiz-adv-x="0" d="M-103 -497q67 12 112 61t54 131q-21 -14 -48 -14q-29 0 -49.5 18t-20.5 48q0 36 27 59t64 23q41 0 60.5 -29t19.5 -74q0 -119 -69 -191t-163 -81z" />
<glyph unicode="&#x327;" horiz-adv-x="0" d="M153 0q44 -36 72 -92t28 -111q0 -132 -91 -211.5t-225 -79.5q-121 0 -190 40l17 63q80 -31 165 -31q105 0 175.5 63t70.5 163q0 55 -29 107.5t-72 88.5h79z" />
<glyph unicode="&#x328;" horiz-adv-x="0" d="M111 -493q-29 -6 -58 -6q-89 0 -151.5 50t-62.5 137q0 62 40.5 126t91.5 108t109 78h81q-245 -154 -245 -288q0 -73 48 -107t123 -34q15 0 41 2z" />
<glyph unicode="&#x398;" horiz-adv-x="1814" d="M868 -17q-147 0 -274.5 53t-216 145t-138.5 217.5t-50 267.5q0 146 45 288.5t128.5 261.5t194 210.5t249.5 143t286 51.5q197 0 353.5 -91t242 -246.5t85.5 -345.5q0 -182 -71.5 -356.5t-192 -306t-289.5 -212t-352 -80.5zM871 58q168 0 321 74t260.5 195t171 280.5 t63.5 326.5q0 171 -74 309.5t-211.5 219.5t-312.5 81q-135 0 -261 -47.5t-225.5 -131.5t-174.5 -193t-115 -239.5t-40 -264.5q0 -170 74.5 -308.5t212 -220t311.5 -81.5zM1496 780l21 76h-1045l-21 -76h1045z" />
<glyph unicode="&#x3a9;" horiz-adv-x="1818" d="M1008 235q146 27 274 96t222 168.5t148 232.5t54 280q0 152 -78 275t-208 190t-283 67q-168 0 -322 -61.5t-267 -166.5t-180.5 -254t-67.5 -316q0 -184 104 -330.5t272 -180.5l-62 -235h-592l20 77h514l27 103q-114 34 -199 124.5t-126.5 205.5t-41.5 239q0 147 49.5 283 t138 241.5t203.5 184.5t252 121t279 42t265.5 -49t208 -132t133 -193.5t48.5 -231.5q0 -202 -93 -379.5t-258 -298t-373 -165.5l-25 -95h502l-21 -77h-579z" />
<glyph unicode="&#x3b8;" horiz-adv-x="1486" d="M653 -18q-97 0 -177 32t-134.5 87t-92 131t-54.5 162t-17 182q0 133 25 266.5t70.5 255.5t115.5 227.5t154.5 182.5t192.5 121.5t225 44.5q122 0 215.5 -47t150 -130t85 -188.5t28.5 -229.5q0 -160 -35 -318.5t-104 -298.5t-162.5 -247.5t-219.5 -170t-266 -62.5z M291 869h1049q16 100 16 207q0 84 -14 159.5t-45.5 142.5t-77.5 116t-113 77t-150 28q-124 0 -235.5 -59t-195 -160.5t-143.5 -232t-91 -278.5zM1327 796h-1049q-17 -102 -17 -218q0 -85 15 -161.5t46.5 -142.5t78 -114t112 -75.5t145.5 -27.5q125 0 238 60t196.5 162.5 t144 234.5t90.5 282z" />
<glyph unicode="&#x3c0;" horiz-adv-x="1249" d="M1024 -9q-20 -2 -32 -2q-226 0 -226 194q0 49 20 125l187 712h-500l-269 -1020h-80l269 1020h-241l19 73h1143l-19 -73h-242l-190 -726q-15 -57 -15 -104q0 -71 42.5 -98t118.5 -27q13 0 35 2z" />
<glyph unicode="&#x401;" horiz-adv-x="1338" d="M822 1921q0 34 23.5 58t56.5 24q32 0 55.5 -24t23.5 -58t-23.5 -58t-55.5 -24q-33 0 -56.5 24t-23.5 58zM1165 1921q0 34 23 58t56 24t56.5 -24t23.5 -58t-23.5 -58t-56.5 -24t-56 24t-23 58zM105 0l428 1604h957l-20 -77h-875l-178 -670h804l-21 -78h-803l-187 -702h882 l-20 -77h-967z" />
<glyph unicode="&#x402;" horiz-adv-x="1688" d="M968 -17q-144 0 -239 54l42 68q81 -44 201 -44q235 0 389 148.5t154 381.5q0 151 -103.5 241t-263.5 90q-154 0 -284.5 -47.5t-270.5 -144.5l-195 -730h-84l407 1527h-414l21 77h1072l-21 -77h-573l-188 -704q136 86 266 131.5t272 45.5q193 0 319.5 -110t126.5 -295 q0 -135 -48 -250t-132.5 -194t-201.5 -123.5t-252 -44.5z" />
<glyph unicode="&#x403;" horiz-adv-x="1181" d="M882 1750l323 353h99l-341 -353h-81zM533 1604l-428 -1604h84l408 1527h781l20 77h-865z" />
<glyph unicode="&#x404;" horiz-adv-x="1744" d="M1585 543l77 -30q-101 -242 -306.5 -386t-485.5 -144q-192 0 -347 89.5t-242.5 250t-87.5 361.5q0 183 72 355t194 300t292.5 205t357.5 77q156 0 295.5 -65.5t236 -189t120.5 -282.5l-78 -24q-22 142 -105.5 252.5t-208.5 171t-270 60.5q-146 0 -282.5 -55.5 t-241 -149.5t-178 -219.5t-100.5 -262.5h828l-20 -78h-820q-5 -37 -5 -92q0 -179 73 -321.5t210.5 -225t316.5 -82.5q243 0 424.5 132.5t280.5 352.5z" />
<glyph unicode="&#x405;" d="M630 -19q-144 0 -264 71t-188.5 192.5t-68.5 266.5l81 14q-1 -196 125.5 -331.5t318.5 -135.5q84 0 160.5 22.5t138.5 65.5t98.5 113.5t36.5 159.5q0 36 -10.5 69t-25 58.5t-41 51.5t-49 43.5t-58.5 39.5t-59 34t-62 31l-115 58q-51 26 -88.5 47t-87 58t-81 74t-54 89.5 t-22.5 109.5q0 102 43.5 186.5t116 138.5t166 83t195.5 29q159 0 265 -64.5t163 -165.5q56 -101 56 -199l-80 -15q0 29 -7 63.5t-23.5 77t-48 81.5t-74.5 72.5t-108.5 53t-144.5 19.5q-114 0 -210.5 -38t-160 -121t-63.5 -197q0 -46 19 -88t45.5 -72.5t70.5 -61.5 t76.5 -49.5t81.5 -42.5l114 -57q76 -38 127.5 -70t106.5 -80t83.5 -109t28.5 -133q0 -106 -43.5 -191.5t-117 -139.5t-166.5 -82.5t-196 -28.5z" />
<glyph unicode="&#x406;" horiz-adv-x="574" d="M533 1604h85l-429 -1604h-84z" />
<glyph unicode="&#x407;" horiz-adv-x="574" d="M414 1921q0 34 23.5 58t56.5 24t56 -24t23 -58t-23 -58t-56 -24t-56.5 24t-23.5 58zM728 1921q0 34 23.5 58t55.5 24q33 0 56.5 -24t23.5 -58t-23.5 -58t-56.5 -24q-32 0 -55.5 24t-23.5 58zM533 1604h85l-429 -1604h-84z" />
<glyph unicode="&#x408;" horiz-adv-x="1247" d="M481 -17q-193 0 -304 114t-111 290q0 85 29 196l18 67l82 3l-23 -97q-22 -94 -22 -154q0 -155 91.5 -248.5t243.5 -93.5q169 0 276.5 108t154.5 283l308 1153h84l-309 -1163q-122 -458 -518 -458z" />
<glyph unicode="&#x409;" horiz-adv-x="2502" d="M1504 924h399q112 0 203.5 -23t161 -69.5t108 -123t38.5 -176.5q0 -252 -199.5 -392t-544.5 -140h-497l408 1527h-740l-234 -627q-60 -162 -114.5 -287.5t-122 -246t-133.5 -199t-145 -126t-162 -47.5q-12 0 -30 2l20 76q70 0 139.5 46.5t129.5 122.5t122 190.5 t113.5 233.5t107.5 269l251 670h903zM1657 77q326 0 499.5 118t173.5 337q0 84 -34 146.5t-94.5 98.5t-136 53t-166.5 17h-415l-206 -770h379z" />
<glyph unicode="&#x40a;" horiz-adv-x="2564" d="M1225 0l220 824h-1036l-220 -824h-84l428 1604h85l-188 -703h1036l188 703h86l-188 -703h422q231 0 365.5 -96.5t134.5 -285.5q0 -247 -196 -383t-538 -136h-515zM1971 824h-439l-200 -747h410q192 0 335 46.5t227.5 147t84.5 246.5q0 156 -112.5 231.5t-305.5 75.5z" />
<glyph unicode="&#x40b;" horiz-adv-x="1675" d="M1340 0l147 553q15 55 15 102q0 71 -28.5 124.5t-78 83.5t-108.5 44.5t-128 14.5q-229 0 -556 -157l-205 -765h-84l407 1527h-414l21 77h1072l-21 -77h-573l-180 -678q324 150 531 150q81 0 155 -18t136.5 -55.5t100 -102.5t37.5 -150q0 -62 -18 -129l-144 -544h-84z" />
<glyph unicode="&#x40c;" horiz-adv-x="1323" d="M921 1750l323 353h99l-341 -353h-81zM1195 0l-687 824l1067 780h-126l-1020 -745h-10l199 745h-85l-428 -1604h84l218 813h10l667 -813h111z" />
<glyph unicode="&#x40e;" horiz-adv-x="1423" d="M754 375q-66 -89 -126.5 -153t-136 -121.5t-163 -87.5t-185.5 -30q-90 0 -160 20l20 77q82 -19 143 -19q68 0 134 20.5t118 51.5t104.5 77.5t90.5 89.5t78 97l-366 1207h89l339 -1127l844 1127h99zM998 1771q-71 0 -124.5 20t-84 50t-49 71t-23.5 78t-2 76l64 14 q-5 -235 229 -235q216 0 330 233l64 -14q-53 -136 -156.5 -214.5t-247.5 -78.5z" />
<glyph unicode="&#x40f;" horiz-adv-x="1655" d="M1270 0h-540l-88 -329h-85l88 329h-540l428 1604h84l-408 -1527h996l408 1527h85z" />
<glyph unicode="&#x410;" horiz-adv-x="1548" d="M1397 0h-84l-78 457h-928l-325 -457h-95l1141 1604h90zM1056 1513l-694 -979h861z" />
<glyph unicode="&#x411;" horiz-adv-x="1483" d="M410 824l-200 -747h411q323 0 495 115t172 329q0 121 -75 197q-106 106 -345 106h-458zM105 0l428 1604h1022l-20 -77h-938l-167 -625h442q234 0 367 -98t133 -285q0 -245 -196 -382t-538 -137h-533z" />
<glyph unicode="&#x412;" horiz-adv-x="1499" d="M997 1604q211 0 343 -95.5t132 -263.5q0 -92 -37 -169t-100 -129t-140.5 -85t-164.5 -45q151 -35 238 -121t87 -224q0 -206 -174.5 -339t-487.5 -133h-588l428 1604h464zM988 1527h-392l-178 -670h413q257 0 405.5 102.5t148.5 279.5q0 138 -107.5 213t-289.5 75z M817 779h-421l-187 -702h486q273 0 424.5 111.5t151.5 291.5q0 143 -125 221t-329 78z" />
<glyph unicode="&#x413;" horiz-adv-x="1181" d="M597 1527l-408 -1527h-84l428 1604h865l-20 -77h-781z" />
<glyph unicode="&#x414;" horiz-adv-x="1667" d="M774 1604h905l-408 -1527h173l-108 -406h-85l88 329h-1371l-88 -329h-85l109 405q72 0 142.5 46t132 123t125.5 194t118 243t114 285zM1187 77l387 1450h-742l-222 -594q-144 -384 -260 -579t-263 -277h1100z" />
<glyph unicode="&#x415;" horiz-adv-x="1338" d="M105 0l428 1604h957l-20 -77h-875l-178 -670h804l-21 -78h-803l-187 -702h882l-20 -77h-967z" />
<glyph unicode="&#x416;" horiz-adv-x="1966" d="M1010 816l-1014 -816h-135l1070 850l-608 754h98l600 -748h11l200 748h84l-200 -748h11l971 748h127l-1019 -777l622 -827h-106l-605 816h-11l-218 -816h-85l218 816h-11z" />
<glyph unicode="&#x417;" horiz-adv-x="1283" d="M1150 512q0 -122 -48.5 -223t-130.5 -167t-188 -102.5t-223 -36.5h-21q-102 0 -187.5 31.5t-141 81.5t-93.5 113.5t-53 126t-12 120.5l86 15q-3 -51 8.5 -105t41.5 -109.5t75.5 -98.5t118 -70.5t160.5 -27.5h21q96 0 185.5 31.5t159.5 87.5t112 142t42 188 q0 162 -124.5 246t-334.5 84h-47l-18 65l730 623h-908l21 77h1016l-21 -81l-716 -611q224 -5 357 -120t133 -280z" />
<glyph unicode="&#x418;" horiz-adv-x="1712" d="M533 1604h83l-396 -1485l1429 1485h106l-428 -1604h-85l398 1486l-1428 -1486h-107z" />
<glyph unicode="&#x419;" horiz-adv-x="1712" d="M1640 1486l-398 -1486h85l428 1604h-106l-1429 -1485l396 1485h-83l-428 -1604h107zM1190 1771q-71 0 -124.5 20t-84 50t-49 71t-23.5 78t-2 76l64 14q-5 -235 229 -235q216 0 330 233l64 -14q-53 -136 -156.5 -214.5t-247.5 -78.5z" />
<glyph unicode="&#x41a;" horiz-adv-x="1323" d="M407 813l-218 -813h-84l428 1604h85l-199 -745h10l1020 745h126l-1067 -780l687 -824h-111l-667 813h-10z" />
<glyph unicode="&#x41b;" horiz-adv-x="1643" d="M607 900q-60 -162 -114.5 -287.5t-122 -246t-133.5 -199t-145 -126t-162 -47.5q-12 0 -30 2l20 76q70 0 139.5 46.5t129.5 122.5t122 190.5t113.5 233.5t107.5 269l251 670h903l-428 -1604h-85l408 1527h-740z" />
<glyph unicode="&#x41c;" horiz-adv-x="2123" d="M962 0h-75l-303 1483l-397 -1483h-82l428 1604h105l306 -1506l1106 1506h116l-428 -1604h-84l395 1482z" />
<glyph unicode="&#x41d;" horiz-adv-x="1696" d="M1433 779h-1035l-209 -779h-84l428 1604h85l-200 -747h1035l202 747h84l-428 -1604h-85z" />
<glyph unicode="&#x41e;" horiz-adv-x="1814" d="M868 -17q-147 0 -274.5 53t-216 145t-138.5 217.5t-50 267.5q0 146 45 288.5t128.5 261.5t194 210.5t249.5 143t286 51.5q197 0 353.5 -91t242 -246.5t85.5 -345.5q0 -182 -71.5 -356.5t-192 -306t-289.5 -212t-352 -80.5zM871 58q168 0 321 74t260.5 195t171 280.5 t63.5 326.5q0 171 -74 309.5t-211.5 219.5t-312.5 81q-135 0 -261 -47.5t-225.5 -131.5t-174.5 -193t-115 -239.5t-40 -264.5q0 -170 74.5 -308.5t212 -220t311.5 -81.5z" />
<glyph unicode="&#x41f;" horiz-adv-x="1654" d="M1593 1527h-996l-408 -1527h-84l428 1604h1165l-429 -1604h-84z" />
<glyph unicode="&#x420;" horiz-adv-x="1369" d="M189 0h-84l428 1604h384q255 0 392 -109t137 -302q0 -245 -197.5 -389t-541.5 -144h-342zM1362 1188q0 138 -85 224q-115 115 -363 115h-319l-211 -790h332q305 0 475.5 123.5t170.5 327.5z" />
<glyph unicode="&#x421;" horiz-adv-x="1739" d="M1662 513q-101 -242 -306.5 -386t-485.5 -144q-192 0 -347 89.5t-242.5 250t-87.5 361.5q0 183 72 355t194 300t292.5 205t357.5 77q156 0 295 -65.5t236 -189t121 -282.5l-79 -24q-33 214 -197.5 349t-386.5 135q-167 0 -319.5 -72t-261 -190t-173 -274.5t-64.5 -320.5 q0 -179 73 -321.5t210.5 -225t316.5 -82.5q243 0 424.5 132.5t280.5 352.5z" />
<glyph unicode="&#x422;" horiz-adv-x="1245" d="M523 0h-84l407 1527h-540l21 77h1155l-21 -77h-530z" />
<glyph unicode="&#x423;" horiz-adv-x="1423" d="M754 375q-66 -89 -126.5 -153t-136 -121.5t-163 -87.5t-185.5 -30q-90 0 -160 20l20 77q82 -19 143 -19q68 0 134 20.5t118 51.5t104.5 77.5t90.5 89.5t78 97l-366 1207h89l339 -1127l844 1127h99z" />
<glyph unicode="&#x424;" horiz-adv-x="1965" d="M1327 1654l-43 -161h3q151 0 273.5 -48.5t201 -132t120 -192t41.5 -231.5q0 -119 -38.5 -232t-115 -211t-182.5 -171.5t-249.5 -115.5t-306.5 -42h-115l-44 -167h-84l44 167h-3q-151 0 -274 48.5t-201.5 132t-120.5 192t-42 231.5q0 149 62 287.5t174 246.5t283 173 t374 65h115l43 161h85zM1179 1417h-110q-182 0 -333 -54t-251 -148t-155 -220t-55 -270q0 -236 151 -384t426 -148zM936 193h109q183 0 334 54t251 148t155 220t55 270q0 115 -37.5 211.5t-108.5 168t-182 112t-250 40.5z" />
<glyph unicode="&#x425;" horiz-adv-x="1410" d="M773 758l-768 -758h-108l838 828l-408 776h89l379 -725l736 725h107l-807 -792l426 -812h-91z" />
<glyph unicode="&#x426;" horiz-adv-x="1686" d="M533 1604h85l-408 -1527h995l408 1527h85l-408 -1527h173l-109 -406h-84l88 329h-1253z" />
<glyph unicode="&#x427;" horiz-adv-x="1505" d="M1238 761q-338 -164 -546 -164q-218 0 -332 89t-114 240q0 63 18 132l146 546h84l-148 -558q-19 -68 -19 -112q0 -129 91.5 -196t270.5 -67q215 0 573 180l201 753h85l-428 -1604h-86z" />
<glyph unicode="&#x428;" horiz-adv-x="2505" d="M2056 77l407 1527h85l-428 -1604h-2015l428 1604h85l-408 -1527h881l407 1527h85l-408 -1527h881z" />
<glyph unicode="&#x429;" horiz-adv-x="2536" d="M2313 77l-108 -406h-85l88 329h-2103l428 1604h85l-408 -1527h880l408 1527h85l-408 -1527h881l407 1527h85l-408 -1527h173z" />
<glyph unicode="&#x42a;" horiz-adv-x="1593" d="M995 924q112 0 203.5 -23t161 -69.5t108 -123t38.5 -176.5q0 -252 -200 -392t-544 -140h-497l408 1527h-391l21 77h475l-181 -680h398zM371 77h378q325 0 499 118t174 337q0 84 -34 146.5t-94.5 98.5t-136 53t-166.5 17h-415z" />
<glyph unicode="&#x42b;" horiz-adv-x="1954" d="M835 924q89 0 165.5 -14.5t140.5 -45t109 -76t70 -110.5t25 -146q0 -252 -199.5 -392t-544.5 -140h-496l428 1604h85l-182 -680h399zM1913 1604h85l-429 -1604h-84zM210 77h378q326 0 500 118t174 337q0 67 -22.5 121t-62 90t-94.5 59.5t-117.5 34t-134.5 10.5h-415z" />
<glyph unicode="&#x42c;" horiz-adv-x="1433" d="M835 924q89 0 165.5 -14.5t140.5 -45t109 -76t70 -110.5t25 -146q0 -252 -199.5 -392t-544.5 -140h-496l428 1604h85l-182 -680h399zM210 77h378q326 0 500 118t174 337q0 67 -22.5 121t-62 90t-94.5 59.5t-117.5 34t-134.5 10.5h-415z" />
<glyph unicode="&#x42d;" horiz-adv-x="1742" d="M786 -17q-253 0 -437.5 153t-222.5 396l79 24q34 -219 196.5 -358.5t394.5 -139.5q150 0 287.5 56t241.5 152.5t176 229t97 283.5h-838l20 78h828q3 26 3 77q0 171 -72.5 309t-210.5 219.5t-317 81.5q-238 0 -421 -123.5t-274 -338.5l-77 30q98 233 307.5 371t473.5 138 q192 0 347 -88.5t242.5 -245t87.5 -350.5q0 -129 -32.5 -252t-90.5 -227.5t-141.5 -193t-183.5 -150.5t-219 -96.5t-244 -34.5z" />
<glyph unicode="&#x42e;" horiz-adv-x="2292" d="M763 762h-370l-204 -762h-84l428 1604h85l-205 -765h361q41 223 165 402t303 279.5t379 100.5q188 0 332 -86.5t220 -236t76 -337.5q0 -159 -45 -308.5t-126 -269.5t-188 -210.5t-238 -140t-268 -49.5q-187 0 -331 86t-220.5 235.5t-76.5 337.5q0 46 7 120zM2164 961 q0 166 -67 299t-191.5 209.5t-284.5 76.5q-156 0 -300 -72.5t-249 -193.5t-168 -288t-63 -348q0 -166 66.5 -299t191 -210t285.5 -77q158 0 302.5 73t249 195t166.5 288.5t62 346.5z" />
<glyph unicode="&#x42f;" horiz-adv-x="1437" d="M1143 658h-398l-664 -658h-114l678 667q-61 12 -112.5 31.5t-97 52t-77 74.5t-50 101t-18.5 130q0 259 205.5 403.5t560.5 144.5h424l-428 -1604h-85zM1163 736l212 791h-320q-320 0 -499.5 -123t-179.5 -346q0 -86 33.5 -149t94.5 -100.5t139 -55t174 -17.5h346z" />
<glyph unicode="&#x430;" horiz-adv-x="1397" d="M1040 237l5 21h-1q-68 -108 -201 -191.5t-291 -83.5q-191 0 -315.5 129.5t-124.5 326.5q0 103 29.5 203t84.5 184.5t129 149t168 101t196 36.5q99 0 181 -30.5t136.5 -82t88.5 -112.5t49 -129h1l90 334h80l-221 -838q-43 -168 -42 -255h-80q0 91 38 237zM727 1039 q-115 0 -216 -51.5t-169 -134.5t-107 -188.5t-39 -213.5q0 -172 103.5 -283t265.5 -111q114 0 221.5 53.5t182.5 136t120 184t45 197.5q0 177 -112.5 294t-294.5 117z" />
<glyph unicode="&#x431;" horiz-adv-x="1385" d="M1396 1633l19 -69l-405 -95q-110 -26 -201.5 -61t-160 -74t-124 -88t-94 -98t-68.5 -107.5t-48 -112t-33 -117.5h5q85 134 218 215.5t299 81.5q210 0 347 -131.5t137 -338.5q0 -93 -32.5 -188.5t-92 -178t-136.5 -148t-174 -103.5t-196 -38q-222 0 -357 135.5t-135 388.5 q0 152 26 284t86.5 254.5t154 218t233.5 168.5t320 112zM1204 640q0 181 -114 287.5t-300 106.5q-111 0 -213.5 -50.5t-174 -129.5t-114 -177.5t-42.5 -194.5q0 -190 109.5 -307t299.5 -117q100 0 200 49t176.5 129t124.5 187t48 217z" />
<glyph unicode="&#x432;" horiz-adv-x="1246" d="M1150 845q0 -114 -81 -186t-211 -99q93 -23 152.5 -83.5t59.5 -155.5q0 -143 -124 -232t-333 -89h-552l287 1093h474q151 0 239.5 -66.5t88.5 -181.5zM1067 847q0 87 -66.5 130t-187.5 43h-402l-111 -422h391q171 0 273.5 68.5t102.5 180.5zM989 326q0 95 -82.5 147 t-214.5 52h-412l-118 -451h447q176 0 278 67t102 185z" />
<glyph unicode="&#x433;" horiz-adv-x="935" d="M140 0h-80l288 1093h694l-19 -73h-615z" />
<glyph unicode="&#x434;" horiz-adv-x="1339" d="M1254 1093l-269 -1020h129l-108 -411h-80l89 338h-1017l-89 -338h-80l108 412h9q56 0 110.5 43.5t105.5 127.5t95.5 183.5t94.5 234.5l158 430h744zM905 73l250 947h-590l-153 -418q-81 -221 -156 -344.5t-166 -184.5h815z" />
<glyph unicode="&#x435;" horiz-adv-x="1251" d="M1144 533h-942q-3 -27 -3 -55q0 -183 112 -302t292 -119q290 0 438 275l66 -37q-172 -313 -511 -313q-212 0 -346 140t-134 353q0 119 48 235t127.5 204.5t190.5 143.5t229 55q214 0 328.5 -124.5t114.5 -339.5q0 -40 -10 -116zM211 606h859q2 30 2 44q0 179 -94 284 t-273 105q-106 0 -214 -61t-184.5 -162t-95.5 -210z" />
<glyph unicode="&#x436;" horiz-adv-x="1544" d="M963 1093l-130 -491h9l681 491h126l-726 -523l456 -570h-101l-446 564h-9l-148 -564h-80l149 564h-9l-719 -564h-125l763 594l-457 499h102l446 -491h9l129 491h80z" />
<glyph unicode="&#x437;" horiz-adv-x="1034" d="M508 641q147 -3 251 -78q113 -80 113 -208q0 -89 -40 -161.5t-106 -118t-147.5 -70t-167.5 -24.5q-105 0 -185.5 32t-124.5 82.5t-65 105.5t-18 108l77 15q-2 -50 15.5 -96.5t54 -85.5t101 -62.5t149.5 -23.5q69 0 133.5 17.5t119.5 52t88 93t33 133.5q0 105 -93.5 162 t-236.5 57h-61l-20 61l523 389h-673l19 72h785l-22 -78l-502 -373v-1z" />
<glyph unicode="&#x438;" horiz-adv-x="1313" d="M141 0h-81l288 1093h80l-255 -967l1010 967h80l-287 -1093h-80l254 969z" />
<glyph unicode="&#x439;" horiz-adv-x="1313" d="M976 0l287 1093h-80l-1010 -967l255 967h-80l-288 -1093h81l1009 969l-254 -969h80zM827 1280q-71 0 -124.5 20t-84 50t-49 71t-23.5 78t-2 76l64 14q-5 -235 229 -235q216 0 330 233l64 -14q-53 -136 -156.5 -214.5t-247.5 -78.5z" />
<glyph unicode="&#x43a;" horiz-adv-x="1035" d="M306 612l714 481h132l-765 -512l506 -581h-105l-491 570h-6l-150 -570h-80l287 1093h80l-126 -481h4z" />
<glyph unicode="&#x43b;" horiz-adv-x="1281" d="M392 602q-31 -85 -57 -148.5t-61 -139t-71.5 -128t-79.5 -99t-93 -70t-105 -23.5q-15 0 -22 1l20 75q48 0 95 31.5t86 82t80 128.5t73 155.5t69 177.5l163 448h743l-288 -1093h-79l268 1020h-589z" />
<glyph unicode="&#x43c;" horiz-adv-x="1622" d="M720 0h-84l-242 975l-256 -975h-78l288 1093h94l249 -1014l777 1014h105l-288 -1093h-80l256 971z" />
<glyph unicode="&#x43d;" horiz-adv-x="1307" d="M1030 533h-750l-140 -533h-80l288 1093h80l-129 -487h751l128 487h80l-288 -1093h-80z" />
<glyph unicode="&#x43e;" horiz-adv-x="1341" d="M601 -18q-214 0 -351 135.5t-137 344.5q0 121 49 238.5t132 209t203 147.5t252 56q214 0 352.5 -136t138.5 -344q0 -164 -83.5 -313.5t-232 -243.5t-323.5 -94zM610 57q148 0 274.5 81.5t198.5 212.5t72 275q0 183 -113.5 298t-297.5 115q-149 0 -276.5 -82.5t-199 -213 t-71.5 -273.5q0 -183 114 -298t299 -115z" />
<glyph unicode="&#x43f;" horiz-adv-x="1285" d="M1137 1020h-729l-268 -1020h-80l288 1093h888l-288 -1093h-80z" />
<glyph unicode="&#x440;" horiz-adv-x="1394" d="M1293 655q0 -129 -46.5 -251t-126 -215t-193.5 -149.5t-241 -56.5q-80 0 -149.5 20.5t-119.5 54.5t-89.5 80.5t-63 96t-34.5 103.5h-1l-231 -877h-80l430 1632h79l-67 -257h1q69 108 201.5 192.5t289.5 84.5q193 0 317 -130t124 -328zM679 57q115 0 216 51.5t168.5 134.5 t106.5 188t39 213q0 172 -103.5 283.5t-265.5 111.5q-114 0 -221.5 -53.5t-182.5 -136t-120 -184t-45 -197.5q0 -177 113 -294t295 -117z" />
<glyph unicode="&#x441;" horiz-adv-x="1265" d="M601 -19q-214 0 -350.5 135t-136.5 353q0 163 83.5 311.5t228.5 240.5t310 92q184 0 308.5 -101.5t151.5 -266.5l-76 -25q-21 141 -125.5 230t-267.5 89q-104 0 -202.5 -48.5t-169 -127t-113 -182t-42.5 -210.5q0 -184 113 -299t296 -115q148 0 271.5 83t185.5 220 l71 -31q-73 -163 -215.5 -255.5t-320.5 -92.5z" />
<glyph unicode="&#x442;" horiz-adv-x="966" d="M387 0h-85l269 1020h-408l20 73h899l-19 -73h-408z" />
<glyph unicode="&#x443;" horiz-adv-x="1181" d="M48 -539l380 541l-233 1091h86l208 -1009l694 1009h96l-1133 -1632h-98z" />
<glyph unicode="&#x444;" horiz-adv-x="1755" d="M1039 988q154 125 292 125q155 0 244.5 -92t89.5 -279q0 -100 -23.5 -204.5t-72.5 -204t-117 -177.5t-165 -125.5t-209 -47.5q-172 0 -271 122l-159 -605h-80l157 595q-74 -55 -142 -83.5t-147 -28.5q-154 0 -243 96t-89 284q0 100 23 203.5t72 201.5t116.5 175 t164.5 123.5t209 46.5q163 0 271 -125l162 616h80zM941 918q-41 56 -111 88.5t-149 32.5q-93 0 -175 -43.5t-139 -114t-98.5 -160t-61 -181.5t-19.5 -178q0 -139 61 -222t192 -83q153 0 308 131zM826 178q42 -56 111.5 -88.5t148.5 -32.5q93 0 174.5 44t138.5 115.5t99 161 t62 182.5t20 179q0 299 -252 299q-152 0 -311 -134z" />
<glyph unicode="&#x445;" horiz-adv-x="1071" d="M803 0l-268 507l-524 -507h-104l596 567l-284 526h87l250 -478l495 478h104l-564 -536l299 -557h-87z" />
<glyph unicode="&#x446;" horiz-adv-x="1321" d="M348 1093h80l-268 -1020h728l268 1020h80l-268 -1020h129l-108 -411h-80l89 338h-937z" />
<glyph unicode="&#x447;" horiz-adv-x="1144" d="M1095 1093l-288 -1093h-80l123 465q-246 -114 -416 -114q-136 0 -218 61t-82 177q0 36 16 100l106 404h80l-111 -419q-11 -44 -11 -76q0 -172 230 -172q101 0 215.5 35t212.5 90l143 542h80z" />
<glyph unicode="&#x448;" horiz-adv-x="1900" d="M1851 1093l-288 -1093h-1503l288 1093h80l-269 -1020h637l269 1020h79l-268 -1020h627l268 1020h80z" />
<glyph unicode="&#x449;" horiz-adv-x="1937" d="M1713 73l-109 -411h-80l89 338h-1552l287 1093h80l-268 -1020h637l268 1020h80l-269 -1020h627l269 1020h80l-269 -1020h130z" />
<glyph unicode="&#x44a;" horiz-adv-x="1346" d="M579 1093l-116 -442h401q174 0 267.5 -72.5t93.5 -204.5q0 -178 -140 -276t-383 -98h-490l268 1020h-324l19 73h404zM859 578h-415l-133 -505h383q208 0 328 77t120 224q0 104 -82.5 154t-200.5 50z" />
<glyph unicode="&#x44b;" horiz-adv-x="1675" d="M311 651h401q174 0 268 -73t94 -204q0 -178 -140 -276t-384 -98h-490l288 1093h80zM1257 0l288 1093h81l-288 -1093h-81zM159 73h383q208 0 328.5 77t120.5 224q0 44 -16 79t-43.5 58t-64.5 38.5t-76.5 22t-83.5 6.5h-415z" />
<glyph unicode="&#x44c;" horiz-adv-x="1195" d="M311 651h401q174 0 268 -73t94 -204q0 -178 -140 -276t-384 -98h-490l288 1093h80zM159 73h383q208 0 328.5 77t120.5 224q0 44 -16 79t-43.5 58t-64.5 38.5t-76.5 22t-83.5 6.5h-415z" />
<glyph unicode="&#x44d;" horiz-adv-x="1257" d="M556 -19q-201 0 -323 99.5t-152 255.5l76 25q20 -103 80.5 -172.5t141.5 -100t180 -30.5q177 0 325 139t177 336h-589l19 73h577v20q0 179 -107.5 296t-289.5 117q-148 0 -272.5 -83.5t-188.5 -218.5l-73 27q69 154 213.5 251.5t323.5 97.5q143 0 253.5 -65.5t168.5 -175 t58 -244.5q0 -88 -27.5 -180t-81 -175t-124.5 -148.5t-166.5 -104.5t-198.5 -39z" />
<glyph unicode="&#x44e;" horiz-adv-x="1707" d="M996 57q142 0 263.5 82.5t191.5 221t70 296.5q0 174 -99.5 278t-269.5 104q-144 0 -266 -84.5t-191 -222.5t-69 -294q0 -175 99.5 -278t270.5 -103zM545 513h-269l-135 -513h-81l288 1093h81l-133 -504h263q50 226 215 375t385 149q205 0 326 -129t121 -329 q0 -131 -47.5 -254t-128.5 -215t-196.5 -148t-244.5 -56q-204 0 -325.5 128t-121.5 327q0 50 3 76z" />
<glyph unicode="&#x44f;" horiz-adv-x="1198" d="M861 0h-80l114 436h-376l-447 -436h-107l462 445q-119 22 -182.5 93.5t-63.5 182.5q0 170 142 271t376 101h449zM915 508l135 512h-352q-84 0 -159.5 -16.5t-140 -50.5t-102.5 -94.5t-38 -139.5q0 -62 27.5 -106.5t73 -65.5t89.5 -30t91 -9h376z" />
<glyph unicode="&#x451;" horiz-adv-x="1251" d="M604 1369q-32 0 -52.5 20.5t-20.5 52.5q0 38 25.5 64.5t63.5 26.5q32 0 52 -20.5t20 -52.5q0 -38 -25.5 -64.5t-62.5 -26.5zM926 1369q-32 0 -52 20.5t-20 52.5q0 38 25.5 64.5t62.5 26.5q32 0 52.5 -20.5t20.5 -52.5q0 -38 -26 -64.5t-63 -26.5zM1144 533q10 76 10 116 q0 215 -114.5 339.5t-328.5 124.5q-118 0 -229 -55t-190.5 -143.5t-127.5 -204.5t-48 -235q0 -213 134 -353t346 -140q339 0 511 313l-66 37q-148 -275 -438 -275q-180 0 -292 119t-112 302q0 28 3 55h942zM1070 606h-859q19 109 95.5 210t184.5 162t214 61q179 0 273 -105 t94 -284q0 -14 -2 -44z" />
<glyph unicode="&#x452;" horiz-adv-x="1241" d="M1157 770q0 -70 -27 -171l-180 -681q-56 -208 -194 -332.5t-340 -124.5q-127 0 -204 47l40 65q64 -38 170 -38q162 0 283 110t169 286l180 677q19 71 19 157q0 127 -72 200t-217 73q-97 0 -194 -50t-175.5 -148t-111.5 -224l-163 -616h-79l354 1345h-162l19 73h162 l66 250h80l-66 -250h447l-20 -73h-447l-133 -506q73 118 184.5 196t257.5 78q169 0 261.5 -95.5t92.5 -247.5z" />
<glyph unicode="&#x453;" horiz-adv-x="935" d="M640 1280l323 353h99l-341 -353h-81zM140 0h-80l288 1093h694l-19 -73h-615z" />
<glyph unicode="&#x454;" horiz-adv-x="1265" d="M600 -19q-214 0 -350 135t-136 353q0 163 83.5 311.5t228 240.5t309.5 92q184 0 308.5 -101.5t151.5 -266.5l-76 -25q-21 141 -125.5 230t-267.5 89q-177 0 -320.5 -126t-189.5 -307h587l-19 -73h-581q-4 -28 -4 -62q0 -184 113 -299t296 -115q148 0 271.5 83t185.5 220 l72 -31q-74 -163 -216.5 -255.5t-320.5 -92.5z" />
<glyph unicode="&#x455;" horiz-adv-x="1004" d="M577 1113q75 0 137.5 -20t103.5 -51t70.5 -71.5t44 -79t18.5 -75.5l-76 -20q-4 29 -14.5 58t-34 63t-55 59.5t-83 43t-114.5 17.5q-73 0 -137.5 -23.5t-109.5 -77.5t-45 -129q0 -66 47.5 -108.5t125.5 -75.5l149 -63q230 -97 230 -262q0 -77 -32.5 -139t-87.5 -100 t-122 -58t-140 -20q-104 0 -184.5 34t-125.5 88.5t-67.5 114t-22.5 118.5l79 19q-1 -51 16.5 -101.5t53.5 -95.5t101.5 -73t151.5 -28q75 0 141 24t112 79.5t46 132.5q0 38 -16.5 70.5t-47 57t-60 41t-69.5 33.5l-140 60q-98 42 -158.5 100t-60.5 145q0 99 56.5 172t140 107 t179.5 34z" />
<glyph unicode="&#x456;" horiz-adv-x="479" d="M480 1390q-32 0 -52.5 20.5t-20.5 52.5q0 38 26 64.5t63 26.5q32 0 53.5 -20.5t21.5 -52.5q0 -38 -26.5 -64.5t-64.5 -26.5zM61 0l287 1093h81l-287 -1093h-81z" />
<glyph unicode="&#x457;" horiz-adv-x="480" d="M305 1369q-32 0 -52.5 20.5t-20.5 52.5q0 38 25.5 64.5t63.5 26.5q32 0 52 -20.5t20 -52.5q0 -38 -25.5 -64.5t-62.5 -26.5zM627 1369q-32 0 -52 20.5t-20 52.5q0 38 25.5 64.5t62.5 26.5q32 0 52.5 -20.5t20.5 -52.5q0 -38 -26 -64.5t-63 -26.5zM61 0l287 1093h82 l-287 -1093h-82z" />
<glyph unicode="&#x458;" horiz-adv-x="493" d="M496 1390q-32 0 -53 20.5t-21 52.5q0 38 26.5 64.5t63.5 26.5q32 0 53 -20.5t21 -52.5q0 -38 -26 -64.5t-64 -26.5zM364 1093l-359 -1364q-11 -42 -27 -74.5t-43.5 -62.5t-71.5 -46.5t-102 -16.5q-38 0 -75 13l-19 -72q37 -16 91 -16q142 0 216 67.5t108 197.5l362 1374 h-80z" />
<glyph unicode="&#x459;" horiz-adv-x="1999" d="M865 0l268 1020h-589l-152 -418q-38 -104 -69 -178.5t-77 -161.5t-91 -141t-105 -90.5t-125 -36.5q-15 0 -22 1l20 75q48 0 95 31.5t86 82t80 129t73 155t69 177.5l163 448h743l-116 -442h400q174 0 268 -73t94 -204q0 -178 -140 -276t-383 -98h-490zM1097 578l-133 -505 h383q208 0 328 77t120 224q0 44 -16 79t-43.5 58t-64 38.5t-76.5 22t-83 6.5h-415z" />
<glyph unicode="&#x45a;" horiz-adv-x="2024" d="M890 0l144 548h-750l-144 -548h-80l288 1093h80l-125 -472h751l124 472h80l-124 -472h405q166 0 265 -70t99 -198q0 -163 -142.5 -258t-380.5 -95h-490zM1531 548h-417l-125 -475h383q202 0 325 75t123 201q0 54 -25 94t-67.5 62t-91.5 32.5t-105 10.5z" />
<glyph unicode="&#x45b;" horiz-adv-x="1291" d="M803 1113q169 0 261 -95.5t92 -247.5q0 -70 -27 -170l-157 -600h-80l161 608q20 75 20 157q0 127 -72 200t-217 73q-97 0 -194 -50t-175.5 -148t-111.5 -224l-163 -616h-80l355 1345h-162l18 73h162l66 250h80l-66 -250h447l-19 -73h-447l-134 -506q74 118 185 196 t258 78z" />
<glyph unicode="&#x45c;" horiz-adv-x="1035" d="M674 1280l323 353h99l-341 -353h-81zM348 1093l-287 -1093h80l150 570h6l491 -570h105l-506 581l765 512h-132l-714 -481h-4l126 481h-80z" />
<glyph unicode="&#x45e;" horiz-adv-x="1181" d="M48 -539l380 541l-233 1091h86l208 -1009l694 1009h96l-1133 -1632h-98zM764 1280q-71 0 -124.5 20t-84 50t-49 71t-23.5 78t-2 76l64 14q-5 -235 229 -235q216 0 330 233l64 -14q-53 -136 -156.5 -214.5t-247.5 -78.5z" />
<glyph unicode="&#x45f;" horiz-adv-x="1286" d="M465 0h-404l287 1093h80l-268 -1020h728l268 1020h80l-287 -1093h-404l-89 -338h-80z" />
<glyph unicode="&#x490;" horiz-adv-x="1181" d="M189 0h-84l428 1604h781l82 306h84l-102 -383h-781z" />
<glyph unicode="&#x491;" horiz-adv-x="935" d="M140 0h-79l287 1093h615l83 315h80l-103 -388h-614z" />
<glyph unicode="&#x496;" horiz-adv-x="1990" d="M1750 0h-28l-605 816h-11l-218 -816h-85l218 816h-11l-1014 -816h-135l1070 850l-608 754h98l600 -748h11l200 748h84l-200 -748h11l971 748h127l-1019 -777l564 -750h85l-109 -406h-84z" />
<glyph unicode="&#x497;" horiz-adv-x="1567" d="M1278 0l-446 564h-9l-148 -564h-80l149 564h-9l-719 -564h-125l763 594l-457 499h102l446 -491h9l129 491h80l-130 -491h9l681 491h126l-726 -523l398 -497h82l-109 -411h-80l89 338h-25z" />
<glyph unicode="&#x498;" horiz-adv-x="1283" d="M508 -16q-96 5 -176 38t-132 83t-87.5 111.5t-49.5 122.5t-11 117l86 15q-3 -51 8.5 -105t41.5 -109.5t75.5 -98.5t118 -70.5t160.5 -27.5h21q96 0 185.5 31.5t159.5 87.5t112 142t42 188q0 162 -124.5 246t-334.5 84h-47l-18 65l730 623h-908l21 77h1016l-21 -81 l-716 -611q224 -5 357 -120t133 -280q0 -117 -45.5 -216t-122.5 -164.5t-177.5 -104t-211.5 -43.5l-85 -313h-84z" />
<glyph unicode="&#x499;" horiz-adv-x="1034" d="M452 -18l-85 -320h-80l84 320q-76 5 -138.5 28.5t-102.5 57t-66.5 76t-37 84t-8.5 81.5l77 15q-2 -50 15.5 -96.5t54 -85.5t101 -62.5t149.5 -23.5q69 0 133.5 17.5t119.5 52t88 93t33 133.5q0 105 -93.5 162t-236.5 57h-61l-20 61l523 389h-673l19 72h785l-22 -78 l-502 -373v-1q147 -3 251 -78q113 -80 113 -208q0 -84 -35.5 -153.5t-95 -114.5t-133.5 -72t-156 -33z" />
<glyph unicode="&#x49a;" horiz-adv-x="1350" d="M1117 0h-33l-667 813h-10l-218 -813h-84l428 1604h85l-199 -745h10l1020 745h126l-1067 -780l623 -747h91l-109 -406h-84z" />
<glyph unicode="&#x49b;" horiz-adv-x="1061" d="M788 0l-491 570h-6l-150 -570h-80l287 1093h80l-126 -481h4l714 481h132l-765 -512l442 -508h89l-109 -411h-80l89 338h-30z" />
<glyph unicode="&#x4a2;" horiz-adv-x="1727" d="M1400 0h-174l207 779h-1035l-209 -779h-84l428 1604h85l-200 -747h1035l202 747h84l-407 -1527h173l-109 -406h-84z" />
<glyph unicode="&#x4a3;" horiz-adv-x="1343" d="M890 0l140 533h-750l-140 -533h-80l288 1093h80l-129 -487h751l128 487h80l-269 -1020h130l-109 -411h-80l89 338h-129z" />
<glyph unicode="&#x4aa;" horiz-adv-x="1739" d="M829 -16q-182 10 -327 101t-227 248t-82 351q0 183 72 355t194 300t292.5 205t357.5 77q156 0 295 -65.5t236 -189t121 -282.5l-79 -24q-33 214 -197.5 349t-386.5 135q-167 0 -319.5 -72t-261 -190t-173 -274.5t-64.5 -320.5q0 -179 73 -321.5t210.5 -225t316.5 -82.5 q243 0 424.5 132.5t280.5 352.5l77 -30q-97 -232 -291 -374.5t-457 -154.5l-84 -313h-84z" />
<glyph unicode="&#x4ab;" horiz-adv-x="1265" d="M561 -18q-198 14 -322.5 147t-124.5 340q0 163 83.5 311.5t228.5 240.5t310 92q184 0 308.5 -101.5t151.5 -266.5l-76 -25q-21 141 -125.5 230t-267.5 89q-104 0 -202.5 -48.5t-169 -127t-113 -182t-42.5 -210.5q0 -184 113 -299t296 -115q148 0 271.5 83t185.5 220 l71 -31q-68 -153 -199 -244.5t-296 -102.5l-85 -320h-80z" />
<glyph unicode="&#x4ac;" horiz-adv-x="1250" d="M612 0h-173l407 1527h-540l21 77h1155l-21 -77h-530l-387 -1450h173l-109 -406h-84z" />
<glyph unicode="&#x4ad;" horiz-adv-x="971" d="M436 0h-134l269 1020h-408l20 73h899l-19 -73h-408l-249 -947h130l-109 -411h-80z" />
<glyph unicode="&#x4b2;" horiz-adv-x="1430" d="M1179 0h-13l-393 758l-768 -758h-108l838 828l-408 776h89l379 -725l736 725h107l-807 -792l386 -735h67l-109 -406h-84z" />
<glyph unicode="&#x4b3;" horiz-adv-x="1092" d="M815 0h-12l-268 507l-524 -507h-104l596 567l-284 526h87l250 -478l495 478h104l-564 -536l260 -484h64l-109 -411h-80z" />
<glyph unicode="&#x4b6;" horiz-adv-x="1536" d="M1034 0l204 761q-338 -164 -546 -164q-218 0 -332 89t-114 240q0 63 18 132l146 546h84l-148 -558q-19 -68 -19 -112q0 -129 91.5 -196t270.5 -67q215 0 573 180l201 753h85l-407 -1527h172l-109 -406h-84l88 329h-174z" />
<glyph unicode="&#x4b7;" horiz-adv-x="1180" d="M727 0l123 465q-246 -114 -416 -114q-136 0 -218 61t-82 177q0 36 16 100l106 404h80l-111 -419q-11 -44 -11 -76q0 -172 230 -172q101 0 215.5 35t212.5 90l143 542h80l-269 -1020h130l-109 -411h-80l89 338h-129z" />
<glyph unicode="&#x4c0;" horiz-adv-x="574" d="M533 1604h85l-429 -1604h-84z" />
<glyph unicode="&#x4c1;" horiz-adv-x="1966" d="M1010 816l-1014 -816h-135l1070 850l-608 754h98l600 -748h11l200 748h84l-200 -748h11l971 748h127l-1019 -777l622 -827h-106l-605 816h-11l-218 -816h-85l218 816h-11zM1294 1771q-71 0 -124.5 20t-84 50t-49 71t-23.5 78t-2 76l64 14q-5 -235 229 -235q216 0 330 233 l64 -14q-53 -136 -156.5 -214.5t-247.5 -78.5z" />
<glyph unicode="&#x4c2;" horiz-adv-x="1544" d="M963 1093l-130 -491h9l681 491h126l-726 -523l456 -570h-101l-446 564h-9l-148 -564h-80l149 564h-9l-719 -564h-125l763 594l-457 499h102l446 -491h9l129 491h80zM962 1280q-71 0 -124.5 20t-84 50t-49 71t-23.5 78t-2 76l64 14q-5 -235 229 -235q216 0 330 233l64 -14 q-53 -136 -156.5 -214.5t-247.5 -78.5z" />
<glyph unicode="&#x4cf;" horiz-adv-x="479" d="M60 0l288 1093h82l-288 -1093h-82z" />
<glyph unicode="&#x4d0;" horiz-adv-x="1548" d="M1235 457h-928l-325 -457h-95l1141 1604h90l279 -1604h-84zM1223 534l-167 979l-694 -979h861zM1080 1771q-71 0 -124.5 20t-84 50t-49 71t-23.5 78t-2 76l64 14q-5 -235 229 -235q216 0 330 233l64 -14q-53 -136 -156.5 -214.5t-247.5 -78.5z" />
<glyph unicode="&#x4d1;" horiz-adv-x="1397" d="M1044 258q-68 -108 -201 -191.5t-291 -83.5q-191 0 -315.5 129.5t-124.5 326.5q0 103 29.5 203t84.5 184.5t129 149t168 101t196 36.5q99 0 181 -30.5t136.5 -82t88.5 -112.5t49 -129h1l90 334h80l-221 -838q-43 -168 -42 -255h-80q0 18 1 35.5t3.5 37t4.5 33t7 35.5 t7 31t8 34t7 31l5 21h-1zM727 1039q-115 0 -216 -51.5t-169 -134.5t-107 -188.5t-39 -213.5q0 -172 103.5 -283t265.5 -111q114 0 221.5 53.5t182.5 136t120 184t45 197.5q0 177 -112.5 294t-294.5 117zM749 1280q-71 0 -124.5 20t-84 50t-49 71t-23.5 78t-2 76l64 14 q-5 -235 229 -235q216 0 330 233l64 -14q-53 -136 -156.5 -214.5t-247.5 -78.5z" />
<glyph unicode="&#x4d2;" horiz-adv-x="1548" d="M894 1921q0 34 23 58t56 24t56 -24t23 -58t-23 -58t-56 -24t-56 24t-23 58zM1236 1921q0 34 23.5 58t55.5 24q33 0 56.5 -24t23.5 -58t-23.5 -58t-56.5 -24q-32 0 -55.5 24t-23.5 58zM1235 457h-928l-325 -457h-95l1141 1604h90l279 -1604h-84zM1223 534l-167 979 l-694 -979h861z" />
<glyph unicode="&#x4d3;" horiz-adv-x="1397" d="M627 1369q-32 0 -52.5 20.5t-20.5 52.5q0 38 25.5 64.5t63.5 26.5q32 0 52 -20.5t20 -52.5q0 -38 -25.5 -64.5t-62.5 -26.5zM949 1369q-32 0 -52 20.5t-20 52.5q0 38 25.5 64.5t62.5 26.5q32 0 52.5 -20.5t20.5 -52.5q0 -38 -26 -64.5t-63 -26.5zM1044 258 q-68 -108 -201 -191.5t-291 -83.5q-191 0 -315.5 129.5t-124.5 326.5q0 103 29.5 203t84.5 184.5t129 149t168 101t196 36.5q99 0 181 -30.5t136.5 -82t88.5 -112.5t49 -129h1l90 334h80l-221 -838q-43 -168 -42 -255h-80q0 18 1 35.5t3.5 37t4.5 33t7 35.5t7 31t8 34t7 31 l5 21h-1zM727 1039q-115 0 -216 -51.5t-169 -134.5t-107 -188.5t-39 -213.5q0 -172 103.5 -283t265.5 -111q114 0 221.5 53.5t182.5 136t120 184t45 197.5q0 177 -112.5 294t-294.5 117z" />
<glyph unicode="&#x4d4;" horiz-adv-x="2105" d="M363 457l-399 -457h-103l1399 1604h998l-21 -77h-835l-179 -670h765l-21 -78h-766l-187 -702h846l-21 -77h-930l123 457h-669zM1318 1527h-26l-863 -993h623z" />
<glyph unicode="&#x4d5;" horiz-adv-x="1964" d="M388 -19q-89 0 -164 29.5t-124 92.5t-49 150q0 88 41 155.5t111.5 106.5t152 59t174.5 22l315 8q29 133 108 244q-16 85 -90 138t-179 53q-80 0 -148 -23t-111.5 -55.5t-77.5 -75t-50 -75.5t-25 -63l-76 25q11 37 32 77.5t62 89t94 86t133 63t172 25.5q112 0 199 -51.5 t120 -144.5q84 91 191.5 143.5t224.5 52.5q214 0 328.5 -124.5t114.5 -339.5q0 -40 -10 -116h-943q-3 -27 -3 -55q0 -185 112.5 -303t292.5 -118q290 0 438 275l66 -37q-172 -313 -511 -313q-154 0 -269.5 76.5t-169.5 207.5q-81 -129 -209 -207t-273 -78zM1785 650 q0 179 -94 284t-273 105q-106 0 -214 -60.5t-185 -161t-96 -211.5h860q2 30 2 44zM536 525q-75 -2 -140.5 -16t-127 -43.5t-97.5 -83.5t-36 -128q0 -89 74.5 -144t184.5 -55q144 0 264 86t184 217q-12 56 -12 117q0 29 3 58z" />
<glyph unicode="&#x4d6;" horiz-adv-x="1338" d="M105 0l428 1604h957l-20 -77h-875l-178 -670h804l-21 -78h-803l-187 -702h882l-20 -77h-967zM1010 1771q-71 0 -124.5 20t-84 50t-49 71t-23.5 78t-2 76l64 14q-5 -235 229 -235q216 0 330 233l64 -14q-53 -136 -156.5 -214.5t-247.5 -78.5z" />
<glyph unicode="&#x4d7;" horiz-adv-x="1251" d="M1144 533q10 76 10 116q0 215 -114.5 339.5t-328.5 124.5q-118 0 -229 -55t-190.5 -143.5t-127.5 -204.5t-48 -235q0 -213 134 -353t346 -140q339 0 511 313l-66 37q-148 -275 -438 -275q-180 0 -292 119t-112 302q0 28 3 55h942zM1070 606h-859q19 109 95.5 210 t184.5 162t214 61q179 0 273 -105t94 -284q0 -14 -2 -44zM726 1280q-71 0 -124.5 20t-84 50t-49 71t-23.5 78t-2 76l64 14q-5 -235 229 -235q216 0 330 233l64 -14q-53 -136 -156.5 -214.5t-247.5 -78.5z" />
<glyph unicode="&#x4dc;" horiz-adv-x="1966" d="M1080 1921q0 34 23 58t56 24t56 -24t23 -58t-23 -58t-56 -24t-56 24t-23 58zM1422 1921q0 34 23.5 58t55.5 24q33 0 56.5 -24t23.5 -58t-23.5 -58t-56.5 -24q-32 0 -55.5 24t-23.5 58zM1010 816l-1014 -816h-135l1070 850l-608 754h98l600 -748h11l200 748h84l-200 -748 h11l971 748h127l-1019 -777l622 -827h-106l-605 816h-11l-218 -816h-85l218 816h-11z" />
<glyph unicode="&#x4dd;" horiz-adv-x="1544" d="M827 1369q-32 0 -52.5 20.5t-20.5 52.5q0 38 25.5 64.5t63.5 26.5q32 0 52 -20.5t20 -52.5q0 -38 -25.5 -64.5t-62.5 -26.5zM1149 1369q-32 0 -52 20.5t-20 52.5q0 38 25.5 64.5t62.5 26.5q32 0 52.5 -20.5t20.5 -52.5q0 -38 -26 -64.5t-63 -26.5zM963 1093l-130 -491h9 l681 491h126l-726 -523l456 -570h-101l-446 564h-9l-148 -564h-80l149 564h-9l-719 -564h-125l763 594l-457 499h102l446 -491h9l129 491h80z" />
<glyph unicode="&#x4de;" horiz-adv-x="1283" d="M696 1921q0 34 23 58t56 24t56 -24t23 -58t-23 -58t-56 -24t-56 24t-23 58zM1038 1921q0 34 23.5 58t55.5 24q33 0 56.5 -24t23.5 -58t-23.5 -58t-56.5 -24q-32 0 -55.5 24t-23.5 58zM1150 512q0 -122 -48.5 -223t-130.5 -167t-188 -102.5t-223 -36.5h-21 q-102 0 -187.5 31.5t-141 81.5t-93.5 113.5t-53 126t-12 120.5l86 15q-3 -51 8.5 -105t41.5 -109.5t75.5 -98.5t118 -70.5t160.5 -27.5h21q96 0 185.5 31.5t159.5 87.5t112 142t42 188q0 162 -124.5 246t-334.5 84h-47l-18 65l730 623h-908l21 77h1016l-21 -81l-716 -611 q224 -5 357 -120t133 -280z" />
<glyph unicode="&#x4df;" horiz-adv-x="1034" d="M547 1369q-32 0 -52.5 20.5t-20.5 52.5q0 38 25.5 64.5t63.5 26.5q32 0 52 -20.5t20 -52.5q0 -38 -25.5 -64.5t-62.5 -26.5zM869 1369q-32 0 -52 20.5t-20 52.5q0 38 25.5 64.5t62.5 26.5q32 0 52.5 -20.5t20.5 -52.5q0 -38 -26 -64.5t-63 -26.5zM508 641q147 -3 251 -78 q113 -80 113 -208q0 -89 -40 -161.5t-106 -118t-147.5 -70t-167.5 -24.5q-105 0 -185.5 32t-124.5 82.5t-65 105.5t-18 108l77 15q-2 -50 15.5 -96.5t54 -85.5t101 -62.5t149.5 -23.5q69 0 133.5 17.5t119.5 52t88 93t33 133.5q0 105 -93.5 162t-236.5 57h-61l-20 61 l523 389h-673l19 72h785l-22 -78l-502 -373v-1z" />
<glyph unicode="&#x4e2;" horiz-adv-x="1712" d="M1550 1878l-19 -75h-683l19 75h683zM533 1604h83l-396 -1485l1429 1485h106l-428 -1604h-85l398 1486l-1428 -1486h-107z" />
<glyph unicode="&#x4e3;" horiz-adv-x="1313" d="M1213 1388l-19 -75h-683l19 75h683zM141 0h-81l288 1093h80l-255 -967l1010 967h80l-287 -1093h-80l254 969z" />
<glyph unicode="&#x4e4;" horiz-adv-x="1712" d="M944 1921q0 34 23 58t56 24t56 -24t23 -58t-23 -58t-56 -24t-56 24t-23 58zM1286 1921q0 34 23.5 58t55.5 24q33 0 56.5 -24t23.5 -58t-23.5 -58t-56.5 -24q-32 0 -55.5 24t-23.5 58zM533 1604h83l-396 -1485l1429 1485h106l-428 -1604h-85l398 1486l-1428 -1486h-107z " />
<glyph unicode="&#x4e5;" horiz-adv-x="1313" d="M712 1369q-32 0 -52.5 20.5t-20.5 52.5q0 38 25.5 64.5t63.5 26.5q32 0 52 -20.5t20 -52.5q0 -38 -25.5 -64.5t-62.5 -26.5zM1034 1369q-32 0 -52 20.5t-20 52.5q0 38 25.5 64.5t62.5 26.5q32 0 52.5 -20.5t20.5 -52.5q0 -38 -26 -64.5t-63 -26.5zM141 0h-81l288 1093h80 l-255 -967l1010 967h80l-287 -1093h-80l254 969z" />
<glyph unicode="&#x4e6;" horiz-adv-x="1814" d="M916 1921q0 34 23.5 58t55.5 24q33 0 56.5 -24t23.5 -58t-23.5 -58t-56.5 -24q-32 0 -55.5 24t-23.5 58zM1259 1921q0 34 23 58t56 24t56 -24t23 -58t-23 -58t-56 -24t-56 24t-23 58zM868 -17q-147 0 -274.5 53t-216 145t-138.5 217.5t-50 267.5q0 146 45 288.5 t128.5 261.5t194 210.5t249.5 143t286 51.5q197 0 353.5 -91t242 -246.5t85.5 -345.5q0 -146 -45.5 -288.5t-129 -261.5t-194.5 -210.5t-250 -143t-286 -51.5zM871 58q168 0 321 74t260.5 195t171 280.5t63.5 326.5q0 171 -74 309.5t-211.5 219.5t-312.5 81 q-135 0 -261 -47.5t-225.5 -131.5t-174.5 -193t-115 -239.5t-40 -264.5q0 -170 74.5 -308.5t212 -220t311.5 -81.5z" />
<glyph unicode="&#x4e7;" horiz-adv-x="1341" d="M657 1369q-32 0 -52.5 20.5t-20.5 52.5q0 38 25.5 64.5t63.5 26.5q32 0 52 -20.5t20 -52.5q0 -38 -25.5 -64.5t-62.5 -26.5zM979 1369q-32 0 -52 20.5t-20 52.5q0 38 25.5 64.5t62.5 26.5q32 0 52.5 -20.5t20.5 -52.5q0 -38 -26 -64.5t-63 -26.5zM601 -18 q-214 0 -351 135.5t-137 344.5q0 121 49 238.5t132 209t203 147.5t252 56q214 0 352.5 -136t138.5 -344q0 -164 -83.5 -313.5t-232 -243.5t-323.5 -94zM610 57q148 0 274.5 81.5t198.5 212.5t72 275q0 183 -113.5 298t-297.5 115q-149 0 -276.5 -82.5t-199 -213 t-71.5 -273.5q0 -183 114 -298t299 -115z" />
<glyph unicode="&#x4e8;" horiz-adv-x="1814" d="M868 -17q-147 0 -274.5 53t-216 145t-138.5 217.5t-50 267.5q0 146 45 288.5t128.5 261.5t194 210.5t249.5 143t286 51.5q197 0 353.5 -91t242 -246.5t85.5 -345.5q0 -182 -71.5 -356.5t-192 -306t-289.5 -212t-352 -80.5zM293 857h1391q3 39 3 77q0 171 -74 309.5 t-211.5 219.5t-312.5 81q-145 0 -279 -55t-237 -148.5t-176 -218.5t-104 -265zM1673 779h-1393q-7 -52 -7 -111q0 -170 74.5 -308.5t212 -220t311.5 -81.5q149 0 286.5 58t241.5 157t176 230t98 276z" />
<glyph unicode="&#x4e9;" horiz-adv-x="1341" d="M601 -18q-214 0 -351 135.5t-137 344.5q0 121 49 238.5t132 209t203 147.5t252 56q214 0 352.5 -136t138.5 -344q0 -164 -83.5 -313.5t-232 -243.5t-323.5 -94zM209 586h945q2 26 2 40q0 183 -114 298t-298 115q-97 0 -188.5 -37t-160.5 -99.5t-118 -144.5t-68 -172z M1144 514h-946q-2 -30 -2 -44q0 -183 114.5 -298t299.5 -115q128 0 243.5 64t191 168t99.5 225z" />
<glyph unicode="&#x4ea;" horiz-adv-x="1814" d="M916 1921q0 34 23.5 58t55.5 24q33 0 56.5 -24t23.5 -58t-23.5 -58t-56.5 -24q-32 0 -55.5 24t-23.5 58zM1259 1921q0 34 23 58t56 24t56 -24t23 -58t-23 -58t-56 -24t-56 24t-23 58zM868 -17q-147 0 -274.5 53t-216 145t-138.5 217.5t-50 267.5q0 146 45 288.5 t128.5 261.5t194 210.5t249.5 143t286 51.5q197 0 353.5 -91t242 -246.5t85.5 -345.5q0 -182 -71.5 -356.5t-192 -306t-289.5 -212t-352 -80.5zM293 857h1391q3 39 3 77q0 171 -74 309.5t-211.5 219.5t-312.5 81q-145 0 -279 -55t-237 -148.5t-176 -218.5t-104 -265z M1673 779h-1393q-7 -52 -7 -111q0 -170 74.5 -308.5t212 -220t311.5 -81.5q149 0 286.5 58t241.5 157t176 230t98 276z" />
<glyph unicode="&#x4eb;" horiz-adv-x="1341" d="M657 1369q-32 0 -52.5 20.5t-20.5 52.5q0 38 25.5 64.5t63.5 26.5q32 0 52 -20.5t20 -52.5q0 -38 -25.5 -64.5t-62.5 -26.5zM979 1369q-32 0 -52 20.5t-20 52.5q0 38 25.5 64.5t62.5 26.5q32 0 52.5 -20.5t20.5 -52.5q0 -38 -26 -64.5t-63 -26.5zM601 -18 q-214 0 -351 135.5t-137 344.5q0 121 49 238.5t132 209t203 147.5t252 56q214 0 352.5 -136t138.5 -344q0 -164 -83.5 -313.5t-232 -243.5t-323.5 -94zM209 586h945q2 26 2 40q0 183 -114 298t-298 115q-97 0 -188.5 -37t-160.5 -99.5t-118 -144.5t-68 -172zM1144 514h-946 q-2 -30 -2 -44q0 -183 114.5 -298t299.5 -115q128 0 243.5 64t191 168t99.5 225z" />
<glyph unicode="&#x4ec;" horiz-adv-x="1742" d="M820 1921q0 34 23 58t56 24t56 -24t23 -58t-23 -58t-56 -24t-56 24t-23 58zM1162 1921q0 34 23.5 58t55.5 24q33 0 56.5 -24t23.5 -58t-23.5 -58t-56.5 -24q-32 0 -55.5 24t-23.5 58zM786 -17q-253 0 -437.5 153t-222.5 396l79 24q34 -219 196.5 -358.5t394.5 -139.5 q150 0 287.5 56t241.5 152.5t176 229t97 283.5h-838l20 78h828q3 26 3 77q0 171 -72.5 309t-210.5 219.5t-317 81.5q-238 0 -421 -123.5t-274 -338.5l-77 30q98 233 307.5 371t473.5 138q192 0 347 -88.5t242.5 -245t87.5 -350.5q0 -129 -32.5 -252t-90.5 -227.5 t-141.5 -193t-183.5 -150.5t-219 -96.5t-244 -34.5z" />
<glyph unicode="&#x4ed;" horiz-adv-x="1257" d="M570 1369q-32 0 -52.5 20.5t-20.5 52.5q0 38 25.5 64.5t63.5 26.5q32 0 52 -20.5t20 -52.5q0 -38 -25.5 -64.5t-62.5 -26.5zM892 1369q-32 0 -52 20.5t-20 52.5q0 38 25.5 64.5t62.5 26.5q32 0 52.5 -20.5t20.5 -52.5q0 -38 -26 -64.5t-63 -26.5zM556 -19 q-201 0 -323 99.5t-152 255.5l76 25q20 -103 80.5 -172.5t141.5 -100t180 -30.5q177 0 325 139t177 336h-589l19 73h577v20q0 179 -107.5 296t-289.5 117q-148 0 -272.5 -83.5t-188.5 -218.5l-73 27q69 154 213.5 251.5t323.5 97.5q143 0 253.5 -65.5t168.5 -175t58 -244.5 q0 -88 -27.5 -180t-81 -175t-124.5 -148.5t-166.5 -104.5t-198.5 -39z" />
<glyph unicode="&#x4ee;" horiz-adv-x="1423" d="M1394 1878l-19 -75h-683l19 75h683zM754 375q-66 -89 -126.5 -153t-136 -121.5t-163 -87.5t-185.5 -30q-90 0 -160 20l20 77q82 -19 143 -19q68 0 134 20.5t118 51.5t104.5 77.5t90.5 89.5t78 97l-366 1207h89l339 -1127l844 1127h99z" />
<glyph unicode="&#x4ef;" horiz-adv-x="1181" d="M1143 1388l-19 -75h-683l19 75h683zM48 -539l380 541l-233 1091h86l208 -1009l694 1009h96l-1133 -1632h-98z" />
<glyph unicode="&#x4f0;" horiz-adv-x="1423" d="M795 1921q0 34 23 58t56 24t56 -24t23 -58t-23 -58t-56 -24t-56 24t-23 58zM1137 1921q0 34 23.5 58t55.5 24q33 0 56.5 -24t23.5 -58t-23.5 -58t-56.5 -24q-32 0 -55.5 24t-23.5 58zM754 375q-66 -89 -126.5 -153t-136 -121.5t-163 -87.5t-185.5 -30q-90 0 -160 20 l20 77q82 -19 143 -19q68 0 134 20.5t118 51.5t104.5 77.5t90.5 89.5t78 97l-366 1207h89l339 -1127l844 1127h99z" />
<glyph unicode="&#x4f1;" horiz-adv-x="1181" d="M648 1369q-32 0 -52.5 20.5t-20.5 52.5q0 38 25.5 64.5t63.5 26.5q32 0 52 -20.5t20 -52.5q0 -38 -25.5 -64.5t-62.5 -26.5zM970 1369q-32 0 -52 20.5t-20 52.5q0 38 25.5 64.5t62.5 26.5q32 0 52.5 -20.5t20.5 -52.5q0 -38 -26 -64.5t-63 -26.5zM48 -539l380 541 l-233 1091h86l208 -1009l694 1009h96l-1133 -1632h-98z" />
<glyph unicode="&#x4f2;" horiz-adv-x="1423" d="M802 1750l323 353h99l-341 -353h-81zM1102 1750l323 353h99l-341 -353h-81zM754 375q-66 -89 -126.5 -153t-136 -121.5t-163 -87.5t-185.5 -30q-90 0 -160 20l20 77q82 -19 143 -19q68 0 134 20.5t118 51.5t104.5 77.5t90.5 89.5t78 97l-366 1207h89l339 -1127l844 1127 h99z" />
<glyph unicode="&#x4f3;" horiz-adv-x="1181" d="M557 1280l323 353h99l-341 -353h-81zM857 1280l323 353h99l-341 -353h-81zM48 -539l380 541l-233 1091h86l208 -1009l694 1009h96l-1133 -1632h-98z" />
<glyph unicode="&#x4f4;" horiz-adv-x="1505" d="M784 1921q0 34 23 58t56 24t56 -24t23 -58t-23 -58t-56 -24t-56 24t-23 58zM1126 1921q0 34 23.5 58t55.5 24q33 0 56.5 -24t23.5 -58t-23.5 -58t-56.5 -24q-32 0 -55.5 24t-23.5 58zM1034 0h86l428 1604h-85l-201 -753q-358 -180 -573 -180q-179 0 -270.5 67t-91.5 196 q0 44 19 112l148 558h-84l-146 -546q-18 -69 -18 -132q0 -151 114 -240t332 -89q208 0 546 164z" />
<glyph unicode="&#x4f5;" horiz-adv-x="1144" d="M589 1369q-32 0 -52.5 20.5t-20.5 52.5q0 38 25.5 64.5t63.5 26.5q32 0 52 -20.5t20 -52.5q0 -38 -25.5 -64.5t-62.5 -26.5zM911 1369q-32 0 -52 20.5t-20 52.5q0 38 25.5 64.5t62.5 26.5q32 0 52.5 -20.5t20.5 -52.5q0 -38 -26 -64.5t-63 -26.5zM1095 1093l-288 -1093 h-80l123 465q-246 -114 -416 -114q-136 0 -218 61t-82 177q0 36 16 100l106 404h80l-111 -419q-11 -44 -11 -76q0 -172 230 -172q101 0 215.5 35t212.5 90l143 542h80z" />
<glyph unicode="&#x4f8;" horiz-adv-x="1954" d="M1096 1921q0 34 23 58t56 24t56 -24t23 -58t-23 -58t-56 -24t-56 24t-23 58zM1438 1921q0 34 23.5 58t55.5 24q33 0 56.5 -24t23.5 -58t-23.5 -58t-56.5 -24q-32 0 -55.5 24t-23.5 58zM835 924q89 0 165.5 -14.5t140.5 -45t109 -76t70 -110.5t25 -146q0 -252 -199.5 -392 t-544.5 -140h-496l428 1604h85l-182 -680h399zM1913 1604h85l-429 -1604h-84zM210 77h378q326 0 500 118t174 337q0 67 -22.5 121t-62 90t-94.5 59.5t-117.5 34t-134.5 10.5h-415z" />
<glyph unicode="&#x4f9;" horiz-adv-x="1675" d="M909 1369q-32 0 -52.5 20.5t-20.5 52.5q0 38 25.5 64.5t63.5 26.5q32 0 52 -20.5t20 -52.5q0 -38 -25.5 -64.5t-62.5 -26.5zM1231 1369q-32 0 -52 20.5t-20 52.5q0 38 25.5 64.5t62.5 26.5q32 0 52.5 -20.5t20.5 -52.5q0 -38 -26 -64.5t-63 -26.5zM311 651h401 q174 0 268 -73t94 -204q0 -178 -140 -276t-384 -98h-490l288 1093h80zM159 73h383q208 0 328.5 77t120.5 224q0 44 -16 79t-43.5 58t-64.5 38.5t-76.5 22t-83.5 6.5h-415zM1257 0l288 1093h81l-288 -1093h-81z" />
<glyph unicode="&#xe3f;" horiz-adv-x="1498" d="M570 0h-465l429 1604h459l58 221h81l-59 -224q181 -17 290 -110.5t109 -245.5q0 -92 -36.5 -169t-99.5 -129t-140.5 -85t-165.5 -45q151 -35 238 -121t87 -224q0 -206 -174 -339t-487 -133h-42l-55 -209h-82zM973 1527h-376l-178 -670h378zM876 858q238 9 374 110.5 t136 270.5q0 126 -89 199.5t-245 85.5zM777 779h-381l-186 -702h382zM671 77h25q273 0 424 111.5t151 291.5q0 136 -113.5 213.5t-302.5 85.5z" />
<glyph unicode="&#x1e20;" horiz-adv-x="1772" d="M1483 1878l-19 -75h-683l19 75h683zM887 670l20 77h825q-22 -176 -101.5 -322t-197 -241.5t-263 -148t-300.5 -52.5q-199 0 -354 87t-240 242.5t-85 353.5q0 129 33.5 252.5t92.5 228t143 193t183 150.5t215 96.5t236 34.5t224.5 -32.5t175.5 -84.5t125.5 -119.5 t83.5 -133.5t40 -130l-78 -23q-9 43 -27 90.5t-62 114.5t-103.5 117.5t-159.5 87t-222 36.5q-143 0 -272 -49t-227 -134.5t-170 -196t-109.5 -238.5t-37.5 -258q0 -270 166 -440t432 -170q200 0 355.5 81.5t259.5 217.5q114 147 147 313h-748z" />
<glyph unicode="&#x1e21;" horiz-adv-x="1396" d="M1139 1388l-19 -75h-683l19 75h683zM1050 -37q-63 -241 -223 -375.5t-400 -134.5q-101 0 -184.5 28t-138.5 73t-93 104t-55.5 118.5t-19.5 118.5l78 16q0 -42 10 -87.5t39 -99.5t73.5 -96t120.5 -70.5t172 -28.5q206 0 346 114.5t199 337.5l79 299h-2 q-65 -103 -202 -182.5t-288 -79.5q-186 0 -313 130.5t-127 320.5q0 175 79.5 322.5t220.5 234.5t311 87q90 0 170 -29.5t136 -78t93 -109t50 -124.5h1l85 321h79zM1143 647q0 165 -115 277.5t-296 112.5q-116 0 -215.5 -46.5t-167 -124.5t-106 -179.5t-38.5 -211.5 q0 -164 106 -272.5t265 -108.5q115 0 222 50.5t181.5 130t119 178.5t44.5 194z" />
<glyph unicode="&#x1e30;" horiz-adv-x="1323" d="M921 1750l323 353h99l-341 -353h-81zM1195 0l-687 824l1067 780h-126l-1020 -745h-10l199 745h-85l-428 -1604h84l218 813h10l667 -813h111z" />
<glyph unicode="&#x1e31;" horiz-adv-x="1034" d="M307 619l708 474h136l-765 -503l506 -590h-104l-491 577h-5l-152 -577h-80l439 1668h80l-276 -1049h4zM1031 1633l-323 -353h81l341 353h-99z" />
<glyph unicode="&#x1e60;" d="M872 1842q-32 0 -53 20.5t-21 52.5q0 38 26.5 64.5t63.5 26.5q32 0 53 -20.5t21 -52.5q0 -38 -26.5 -64.5t-63.5 -26.5zM630 -19q103 0 196 28.5t166.5 82.5t117 139.5t43.5 191.5q0 72 -28.5 133t-83.5 109t-106.5 80t-127.5 70l-114 57q-49 24 -81.5 42.5t-76.5 49.5 t-70.5 61.5t-45.5 72.5t-19 88q0 114 63.5 197t160 121t210.5 38q79 0 144.5 -19.5t108.5 -53t74.5 -72.5t48 -81.5t23.5 -77t7 -63.5l80 15q0 98 -56 199q-57 101 -163 165.5t-265 64.5q-102 0 -195.5 -29t-166 -83t-116 -138.5t-43.5 -186.5q0 -57 22.5 -109.5t54 -89.5 t81 -74t87 -58t88.5 -47l115 -58q39 -19 62 -31t59 -34t58.5 -39.5t49 -43.5t41 -51.5t25 -58.5t10.5 -69q0 -89 -36.5 -159.5t-98.5 -113.5t-138.5 -65.5t-160.5 -22.5q-192 0 -318.5 135.5t-125.5 331.5l-81 -14q0 -145 68.5 -266.5t188.5 -192.5t264 -71z" />
<glyph unicode="&#x1e61;" horiz-adv-x="1004" d="M634 1369q-32 0 -53 20.5t-21 52.5q0 38 26.5 64.5t63.5 26.5q32 0 53 -20.5t21 -52.5q0 -38 -26.5 -64.5t-63.5 -26.5zM577 1113q75 0 137.5 -20t103.5 -51t70.5 -71.5t44 -79t18.5 -75.5l-76 -20q-4 29 -14.5 58t-34 63t-55 59.5t-83 43t-114.5 17.5 q-73 0 -137.5 -23.5t-109.5 -77.5t-45 -129q0 -66 47.5 -108.5t125.5 -75.5l149 -63q230 -97 230 -262q0 -77 -32.5 -139t-87.5 -100t-122 -58t-140 -20q-104 0 -184.5 34t-125.5 88.5t-67.5 114t-22.5 118.5l79 19q-1 -51 16.5 -101.5t53.5 -95.5t101.5 -73t151.5 -28 q75 0 141 24t112 79.5t46 132.5q0 38 -16.5 70.5t-47 57t-60 41t-69.5 33.5l-140 60q-98 42 -158.5 100t-60.5 145q0 99 56.5 172t140 107t179.5 34z" />
<glyph unicode="&#x1e80;" horiz-adv-x="2273" d="M1330 2103l138 -353h-65l-155 353h82zM2485 1604h-92l-872 -1502l-75 1502h-81l-850 -1502l-93 1502h-84l105 -1604h92l843 1475l73 -1475h92z" />
<glyph unicode="&#x1e81;" horiz-adv-x="1753" d="M928 1633l138 -353h-65l-155 353h82zM1171 0h-84l-92 981l-607 -981h-82l-102 1093h81l86 -993l611 993h80l89 -993l603 993h88z" />
<glyph unicode="&#x1e82;" horiz-adv-x="2273" d="M1392 1750l323 353h99l-341 -353h-81zM2485 1604h-92l-872 -1502l-75 1502h-81l-850 -1502l-93 1502h-84l105 -1604h92l843 1475l73 -1475h92z" />
<glyph unicode="&#x1e83;" horiz-adv-x="1753" d="M981 1280l323 353h99l-341 -353h-81zM1171 0h-84l-92 981l-607 -981h-82l-102 1093h81l86 -993l611 993h80l89 -993l603 993h88z" />
<glyph unicode="&#x1e84;" horiz-adv-x="2273" d="M1218 1921q0 34 23 58t56 24t56 -24t23 -58t-23 -58t-56 -24t-56 24t-23 58zM1560 1921q0 34 23.5 58t55.5 24q33 0 56.5 -24t23.5 -58t-23.5 -58t-56.5 -24q-32 0 -55.5 24t-23.5 58zM2485 1604h-92l-872 -1502l-75 1502h-81l-850 -1502l-93 1502h-84l105 -1604h92 l843 1475l73 -1475h92z" />
<glyph unicode="&#x1e85;" horiz-adv-x="1753" d="M940 1369q-32 0 -52.5 20.5t-20.5 52.5q0 38 25.5 64.5t63.5 26.5q32 0 52 -20.5t20 -52.5q0 -38 -25.5 -64.5t-62.5 -26.5zM1262 1369q-32 0 -52 20.5t-20 52.5q0 38 25.5 64.5t62.5 26.5q32 0 52.5 -20.5t20.5 -52.5q0 -38 -26 -64.5t-63 -26.5zM1171 0h-84l-92 981 l-607 -981h-82l-102 1093h81l86 -993l611 993h80l89 -993l603 993h88z" />
<glyph unicode="&#x1e90;" horiz-adv-x="1243" d="M1035 0h-1117l20 75l1390 1452h-969l20 77h1079l-22 -76l-1387 -1451h1007zM1010 2041l-315 -291h-87l364 353h89l181 -352h-73z" />
<glyph unicode="&#x1e91;" horiz-adv-x="1005" d="M-67 0l18 69l1000 953h-731l19 71h835l-18 -68l-997 -954h750l-19 -71h-857zM769 1571l-315 -291h-87l364 353h89l181 -352h-73z" />
<glyph unicode="&#x1ebc;" horiz-adv-x="1338" d="M1424 1929q-33 -74 -85 -125.5t-119 -51.5q-39 0 -79 21.5t-67 47.5t-64.5 47.5t-72.5 21.5q-84 0 -149 -126l-54 25q85 171 211 171q43 0 84.5 -21.5t68.5 -47t62.5 -47t67.5 -21.5q45 0 82 37.5t61 87.5zM210 77l187 702h803l21 78h-804l178 670h875l20 77h-957 l-428 -1604h967l20 77h-882z" />
<glyph unicode="&#x1ebd;" horiz-adv-x="1251" d="M1128 1459q-33 -74 -85 -125.5t-119 -51.5q-39 0 -79 21.5t-67 47.5t-64.5 47.5t-72.5 21.5q-84 0 -149 -126l-54 25q85 171 211 171q43 0 84.5 -21.5t68.5 -47t62.5 -47t67.5 -21.5q45 0 82 37.5t61 87.5zM1144 533q10 76 10 116q0 215 -114.5 339.5t-328.5 124.5 q-118 0 -229 -55t-190.5 -143.5t-127.5 -204.5t-48 -235q0 -213 134 -353t346 -140q339 0 511 313l-66 37q-148 -275 -438 -275q-180 0 -292 119t-112 302q0 28 3 55h942zM1070 606h-859q19 109 95.5 210t184.5 162t214 61q179 0 273 -105t94 -284q0 -14 -2 -44z" />
<glyph unicode="&#x1ef2;" horiz-adv-x="1470" d="M928 2103l138 -353h-65l-155 353h82zM618 0h-85l187 697l-379 907h92l345 -839l793 839h111l-884 -927z" />
<glyph unicode="&#x1ef3;" horiz-adv-x="1181" d="M722 1633l138 -353h-65l-155 353h82zM48 -539l380 541l-233 1091h86l208 -1009l694 1009h96l-1133 -1632h-98z" />
<glyph unicode="&#x2000;" horiz-adv-x="1132" />
<glyph unicode="&#x2001;" horiz-adv-x="2265" />
<glyph unicode="&#x2002;" horiz-adv-x="1132" />
<glyph unicode="&#x2003;" horiz-adv-x="2265" />
<glyph unicode="&#x2004;" horiz-adv-x="755" />
<glyph unicode="&#x2005;" horiz-adv-x="566" />
<glyph unicode="&#x2006;" horiz-adv-x="377" />
<glyph unicode="&#x2007;" horiz-adv-x="377" />
<glyph unicode="&#x2008;" horiz-adv-x="283" />
<glyph unicode="&#x2009;" horiz-adv-x="453" />
<glyph unicode="&#x200a;" horiz-adv-x="125" />
<glyph unicode="&#x2010;" horiz-adv-x="939" d="M791 610h-601l20 79h601z" />
<glyph unicode="&#x2011;" horiz-adv-x="939" d="M791 610h-601l20 79h601z" />
<glyph unicode="&#x2012;" horiz-adv-x="939" d="M791 610h-601l20 79h601z" />
<glyph unicode="&#x2013;" horiz-adv-x="1278" d="M209 686h940l-19 -74h-941z" />
<glyph unicode="&#x2014;" horiz-adv-x="2124" d="M209 686h1786l-19 -74h-1787z" />
<glyph unicode="&#x2018;" horiz-adv-x="507" d="M626 1616l-16 -57q-77 -15 -129.5 -71.5t-62.5 -150.5q25 17 57 17q34 0 57 -19.5t23 -52.5q0 -41 -31.5 -70.5t-73.5 -29.5q-46 0 -70 31.5t-24 80.5q0 141 80 225.5t190 96.5z" />
<glyph unicode="&#x2019;" horiz-adv-x="510" d="M346 1182l14 57q78 13 131.5 69t63.5 152q-26 -16 -57 -16q-34 0 -57 19.5t-23 52.5q0 41 31 70.5t71 29.5q48 0 72 -31.5t24 -81.5q0 -72 -23 -132t-62 -99t-86.5 -62t-98.5 -28z" />
<glyph unicode="&#x201a;" horiz-adv-x="541" d="M-2 -274l15 55q77 14 130.5 70.5t63.5 150.5q-25 -14 -59 -14t-57 19t-23 52q0 40 32 69.5t72 29.5q49 0 72 -31t23 -82q0 -140 -80 -224.5t-189 -94.5z" />
<glyph unicode="&#x201c;" horiz-adv-x="822" d="M626 1616l-16 -57q-77 -15 -129.5 -71.5t-62.5 -150.5q25 17 57 17q34 0 57 -19.5t23 -52.5q0 -41 -31.5 -70.5t-73.5 -29.5q-46 0 -70 31.5t-24 80.5q0 141 80 225.5t190 96.5zM942 1616l-15 -57q-78 -15 -131 -71.5t-63 -150.5q25 17 57 17q34 0 57 -19.5t23 -52.5 q0 -41 -31 -70.5t-73 -29.5q-47 0 -71 31.5t-24 80.5q0 141 80.5 225.5t190.5 96.5z" />
<glyph unicode="&#x201d;" horiz-adv-x="825" d="M661 1182l15 57q78 13 131 69t63 152q-26 -16 -57 -16q-34 0 -57 19.5t-23 52.5q0 41 31.5 70.5t73.5 29.5q46 0 70 -31.5t24 -81.5q0 -141 -80.5 -225t-190.5 -96zM346 1182l14 57q78 13 131.5 69t63.5 152q-26 -16 -57 -16q-34 0 -57 19.5t-23 52.5q0 41 31 70.5 t71 29.5q48 0 72 -31.5t24 -81.5q0 -72 -23 -132t-62 -99t-86.5 -62t-98.5 -28z" />
<glyph unicode="&#x201e;" horiz-adv-x="854" d="M314 -274l14 55q77 14 130.5 70.5t64.5 150.5q-24 -14 -60 -14q-34 0 -57 19t-23 52q0 40 32.5 69.5t72.5 29.5q48 0 72 -31t24 -82q0 -140 -80.5 -224.5t-189.5 -94.5zM-2 -274l15 55q77 14 130.5 70.5t63.5 150.5q-25 -14 -59 -14t-57 19t-23 52q0 40 32 69.5t72 29.5 q49 0 72 -31t23 -82q0 -140 -80 -224.5t-189 -94.5z" />
<glyph unicode="&#x2020;" horiz-adv-x="1254" d="M528 0h-80l252 955h-412l19 74h412l129 489h80l-129 -489h414l-19 -74h-415z" />
<glyph unicode="&#x2021;" horiz-adv-x="1254" d="M420 -422h-79l111 423h-452l20 75h452l250 948h-453l20 73h452l110 420h80l-111 -420h455l-20 -73h-454l-249 -948h454l-20 -75h-454z" />
<glyph unicode="&#x2022;" horiz-adv-x="1066" d="M586 390q-148 0 -252 104.5t-104 252.5q0 147 104.5 254.5t251.5 107.5q146 0 250.5 -107.5t104.5 -254.5q0 -148 -104 -252.5t-251 -104.5z" />
<glyph unicode="&#x2026;" horiz-adv-x="1452" d="M144 -16q-35 0 -57.5 22t-22.5 57q0 41 28.5 70t68.5 29q35 0 58 -22.5t23 -57.5q0 -41 -28.5 -69.5t-69.5 -28.5zM618 -16q-35 0 -57.5 22t-22.5 57q0 41 28.5 70t69.5 29q35 0 57.5 -22.5t22.5 -57.5q0 -41 -28.5 -69.5t-69.5 -28.5zM1093 -16q-35 0 -57.5 22t-22.5 57 q0 41 28.5 70t68.5 29q35 0 58 -22.5t23 -57.5q0 -41 -28.5 -69.5t-69.5 -28.5z" />
<glyph unicode="&#x202f;" horiz-adv-x="453" />
<glyph unicode="&#x2030;" horiz-adv-x="2771" d="M993 1297q0 -166 -113 -281.5t-277 -115.5q-138 0 -229.5 89t-91.5 232q0 164 113 281.5t276 117.5q138 0 230 -91t92 -232zM405 0h-96l1389 1604h93zM923 1298q0 106 -72 179t-182 73q-92 0 -166 -48.5t-112.5 -124t-38.5 -159.5q0 -107 72.5 -178t181.5 -71 q137 0 227 98t90 231zM1822 387q0 -166 -113 -281.5t-277 -115.5q-138 0 -229.5 89t-91.5 232q0 164 113 281.5t276 117.5q138 0 230 -91t92 -232zM1752 388q0 106 -72 179t-182 73q-92 0 -166 -48.5t-112.5 -124t-38.5 -159.5q0 -107 72.5 -178t181.5 -71q137 0 227 98 t90 231zM2640 387q0 -166 -113 -281.5t-277 -115.5q-138 0 -229.5 89t-91.5 232q0 164 113 281.5t276 117.5q138 0 230 -91t92 -232zM2570 388q0 106 -72 179t-182 73q-92 0 -166 -48.5t-112.5 -124t-38.5 -159.5q0 -107 72.5 -178t181.5 -71q137 0 227 98t90 231z" />
<glyph unicode="&#x2039;" horiz-adv-x="704" d="M135 617l469 364l45 -58l-410 -318l233 -301l-58 -45z" />
<glyph unicode="&#x203a;" horiz-adv-x="701" d="M617 623l-468 -364l-46 58l411 318l-234 301l59 45z" />
<glyph unicode="&#x203d;" horiz-adv-x="1134" d="M1210 1264q0 -33 -5.5 -64t-21 -63.5t-28 -57t-41.5 -58.5t-45.5 -54t-56.5 -57.5t-57.5 -53.5t-65.5 -58.5t-65 -57.5q-104 -92 -167.5 -166.5t-82.5 -147.5h-84l212 805h82l-156 -593h3q55 73 161 168q19 17 62.5 55t67 60t60.5 58.5t57.5 65.5t42.5 65.5t32 74 t10 76.5q0 123 -98 202.5t-238 79.5q-97 0 -181 -35.5t-139.5 -93t-87 -130t-31.5 -146.5l-85 7q4 97 45.5 184t110 151.5t166 102.5t207.5 38q173 0 295 -102.5t122 -254.5zM358 64q0 34 23.5 57.5t55.5 23.5q33 0 56.5 -23.5t23.5 -57.5t-23.5 -58t-56.5 -24 q-32 0 -55.5 24t-23.5 58z" />
<glyph unicode="&#x2042;" horiz-adv-x="1913" d="M708 985l298 216l-316 202l36 55l302 -214l91 368l66 -18l-112 -362l369 28l3 -65l-376 -12l145 -338l-62 -24l-123 339l-280 -227zM123 125l298 216l-317 203l37 54l302 -214l90 368l67 -18l-113 -362l369 29l4 -66l-376 -12l145 -337l-62 -24l-124 338l-279 -227z M1048 125l298 216l-317 203l37 54l302 -214l90 368l67 -18l-113 -362l369 29l4 -66l-376 -12l145 -337l-62 -24l-123 338l-280 -227z" />
<glyph unicode="&#x2044;" horiz-adv-x="1150" d="M5 0h-96l1389 1604h93z" />
<glyph unicode="&#x2051;" horiz-adv-x="1075" d="M388 985l298 216l-316 202l36 55l302 -214l91 368l66 -18l-112 -362l369 28l3 -65l-376 -12l145 -338l-62 -24l-123 339l-280 -227zM160 125l298 216l-316 203l36 54l302 -214l90 368l67 -18l-112 -362l369 29l3 -66l-376 -12l145 -337l-62 -24l-123 338l-280 -227z" />
<glyph unicode="&#x205f;" horiz-adv-x="566" />
<glyph unicode="&#x20a4;" d="M1163 366q-28 -161 -146 -263.5t-280 -102.5h-727l22 80q184 120 282 235.5t128 239.5h-275l20 75h267q2 34 2 50q0 71 -25 233h-180l20 76h149q-9 74 -9 124q0 223 127.5 364t347.5 141q132 0 230.5 -58t138.5 -163q25 -66 25 -141v-19l-81 -11q0 4 0.5 11t0.5 10 q0 140 -87 218t-230 78q-184 0 -285.5 -121t-101.5 -309q0 -56 10 -124h526l-20 -76h-497q24 -166 24 -228q0 -28 -3 -55h401l-20 -75h-392q-37 -151 -143.5 -272.5t-237.5 -205.5h585q135 0 231.5 85t120.5 219z" />
<glyph unicode="&#x20a9;" horiz-adv-x="2341" d="M2070 823h223l-18 -71h-246l-442 -752h-92l-37 753h-448l-430 -753h-92l-49 752h-247l19 71h223l-51 781h84l48 -782h452l443 782h80l39 -782h454l454 782h92zM1454 822l-32 653l-373 -653h405zM928 753h-409l40 -651zM1943 753h-411l33 -651z" />
<glyph unicode="&#x20ab;" horiz-adv-x="1448" d="M108 439q0 103 29.5 203t84.5 184.5t129 149t168 101t196 36.5q99 0 181.5 -31t137 -83t88.5 -113t49 -129h1l155 588h-426l19 73h426l66 250h80l-66 -250h152l-19 -73h-152l-354 -1345h-80l69 258h-2q-68 -108 -201 -191.5t-291 -83.5q-191 0 -315.5 129.5t-124.5 326.5 zM723 1039q-115 0 -216 -51.5t-169 -134.5t-107 -188.5t-39 -213.5q0 -172 103.5 -283t265.5 -111q114 0 221.5 53.5t182.5 136t120 184t45 197.5q0 177 -112.5 294t-294.5 117zM-41 -279h1020l-19 -72h-1020z" />
<glyph unicode="&#x20ac;" horiz-adv-x="1920" d="M1746 543l77 -30q-101 -242 -306.5 -386t-484.5 -144q-267 0 -453.5 166.5t-218.5 433.5h-238l21 78h212q0 3 -0.5 11t-0.5 12q0 129 38 260h-185l20 77h191q103 264 335 432t517 168q156 0 295.5 -65.5t236 -189t120.5 -282.5l-78 -24q-22 142 -105.5 252.5t-208.5 171 t-270 60.5q-247 0 -450 -146.5t-300 -376.5h832l-47 -77h-813q-41 -125 -41 -257v-26h704l-45 -78h-652q31 -234 190.5 -379.5t402.5 -145.5t424.5 132.5t280.5 352.5z" />
<glyph unicode="&#x20ae;" horiz-adv-x="1334" d="M976 1526l-156 -585l448 179l-23 -84l-448 -179l-66 -249l448 179l-23 -84l-448 -179l-140 -524h-84l130 486l-449 -180l23 86l448 179l66 248l-448 -180l23 86l448 179l166 622h-540l21 78h1155l-21 -78h-530z" />
<glyph unicode="&#x20b1;" horiz-adv-x="1565" d="M242 0h-84l292 1093h-181l21 78h180l116 433h384q255 0 392 -109t137 -302q0 -4 -0.5 -11.5t-0.5 -10.5h153l-21 -78h-141q-39 -202 -231 -317.5t-498 -115.5h-342zM1415 1188q0 138 -85 224q-115 115 -363 115h-319l-95 -357h861q0 3 0.5 9t0.5 9zM437 737h332 q268 0 432.5 96t202.5 261h-871z" />
<glyph unicode="&#x20b4;" horiz-adv-x="1423" d="M282 1019h862q126 119 126 265q0 62 -28 113t-74 82t-101.5 47.5t-113.5 16.5q-152 0 -295 -92.5t-217 -210.5l-69 43q93 141 250.5 238.5t333.5 97.5q175 0 286.5 -92t111.5 -246q0 -75 -33 -147.5t-78 -114.5h156l-20 -75h-1117zM420 604q-46 -51 -71 -84t-46.5 -85 t-21.5 -107q0 -68 30 -121t79.5 -83.5t107.5 -46.5t120 -16q94 0 175.5 24t146.5 69.5t115 97t97 118.5l71 -42q-56 -80 -116 -139.5t-134 -107t-164 -72t-194 -24.5q-184 0 -301.5 89t-117.5 251q0 152 129 279h-154l20 77h1117l-21 -77h-867z" />
<glyph unicode="&#x20b8;" horiz-adv-x="1382" d="M1556 1604l-21 -78h-1155l21 78h1155zM597 0h-84l311 1165h-540l21 78h1155l-21 -78h-530z" />
<glyph unicode="&#x20b9;" horiz-adv-x="1300" d="M905 1531q101 -29 174 -117t73 -213v-20h217l-20 -75h-206q-28 -142 -127 -237q-169 -166 -483 -182l372 -687h-99l-363 680h-267l21 78h257q343 0 504 162q77 78 101 186h-768l20 75h757v13q0 158 -115.5 245.5t-334.5 87.5h-215l21 77h1048l-20 -75z" />
<glyph unicode="&#x20ba;" horiz-adv-x="1294" d="M1246 675q-26 -142 -101 -264t-192 -214t-284 -144.5t-364 -52.5h-91l165 618l-2 -2l-258 -102l23 84l260 104l66 248l-2 -2l-258 -102l23 84l260 104l152 570h84l-142 -533l524 212l-22 -84l-525 -212l-66 -247l525 211l-23 -84l-524 -211l-154 -577q122 0 230 21.5 t189 57.5t149 86t114 104t81 114.5t53.5 114t27.5 105.5z" />
<glyph unicode="&#x20bd;" horiz-adv-x="1442" d="M371 374h414l-20 -76h-414l-79 -298h-85l80 298h-198l21 76h197l76 286h-197l20 76h197l232 868h364q255 0 392 -109t137 -302q0 -245 -197.5 -389t-541.5 -144h-322zM1424 1188q0 139 -85 224q-115 115 -362 115h-300l-211 -790h312q305 0 475.5 123.5t170.5 327.5z" />
<glyph unicode="&#x2113;" horiz-adv-x="945" d="M310 339q-15 -57 -15 -102q0 -180 242 -180q56 0 143 19l-20 -76q-79 -19 -141 -19q-63 0 -115.5 12t-97 39t-69 75.5t-24.5 114.5q0 49 18 119l52 196q-106 -40 -208 -66l22 80q114 34 208 73l161 610q37 138 122 218t221 80q110 0 176 -66t66 -175q0 -98 -40 -192 t-104.5 -169t-155 -144t-183 -120.5t-197.5 -96.5zM395 658q115 52 211 112.5t181.5 139t134.5 176t49 203.5q0 77 -45.5 123t-119.5 46q-106 0 -170.5 -64.5t-92.5 -173.5z" />
<glyph unicode="&#x2116;" horiz-adv-x="2608" d="M589 1504l-402 -1504h-82l428 1604h100l680 -1495l399 1495h84l-429 -1604h-93zM2617 1045q0 -115 -58.5 -219t-162 -169.5t-225.5 -65.5q-149 0 -245 95t-96 240q0 84 34 166.5t92 146t142 102.5t176 39q150 0 246.5 -95t96.5 -240zM2538 1037q0 122 -73.5 198 t-196.5 76q-97 0 -181.5 -54t-132 -140.5t-47.5 -180.5q0 -122 75.5 -198.5t197.5 -76.5q98 0 181 54t130 140.5t47 181.5zM2391 236h-726l18 70h726z" />
<glyph unicode="&#x2122;" horiz-adv-x="2091" d="M715 1531l-225 -852h-82l224 852h-282l19 73h647l-20 -73h-281zM2070 1537h-4l-592 -858h-69l-152 849h-4l-223 -849h-77l243 925h119l147 -832l574 832h135l-244 -925h-79z" />
<glyph unicode="&#x212e;" horiz-adv-x="1841" d="M539 245q88 -91 218.5 -139.5t262.5 -48.5q213 0 370.5 89t245.5 253l67 -37q-88 -175 -267 -277.5t-416 -102.5q-182 0 -332 64.5t-249.5 177t-153.5 264.5t-54 327q0 224 98 407.5t279.5 291.5t411.5 108q171 0 318 -61t249 -167t160.5 -252.5t59.5 -314.5h-1268v-582z M1504 1358q-90 93 -223 141.5t-264 48.5q-280 0 -478 -186l-1 -462h966v458z" />
<glyph unicode="&#x2153;" horiz-adv-x="1823" d="M244 0h-96l1389 1604h93zM530 671h-77l223 851l-337 -151l-25 59l385 174h76zM1304 -19q-74 0 -133 27.5t-92.5 70.5t-49.5 90t-14 90l74 14q-2 -38 10 -75.5t36.5 -70.5t69 -54t101.5 -21q111 0 190 65t79 174q0 187 -241 187h-18l-18 64l387 324h-500l18 70h599 l-20 -74l-381 -320q78 -6 138 -40q113 -63 113 -208q0 -98 -51.5 -171t-129 -107.5t-167.5 -34.5z" />
<glyph unicode="&#x2154;" horiz-adv-x="2158" d="M156 671q46 220 319 355l192 95q203 101 203 238q0 84 -55 140.5t-157 56.5q-53 0 -96.5 -17.5t-71 -44.5t-46.5 -61t-27 -67t-8 -63l-75 7q0 50 20 102.5t58 100.5t103.5 79t145.5 31q134 0 210.5 -78t76.5 -184q0 -92 -65 -168t-179 -132l-193 -94q-185 -91 -243 -225 h545l-19 -71h-638zM528 0h-96l1389 1604h93zM1638 -19q-74 0 -133 27.5t-92.5 70.5t-49.5 90t-14 90l74 14q-2 -38 10 -75.5t36.5 -70.5t69 -54t101.5 -21q111 0 190 65t79 174q0 187 -241 187h-18l-18 64l387 324h-500l18 70h599l-20 -74l-381 -320q78 -6 138 -40 q113 -63 113 -208q0 -98 -51.5 -171t-129 -107.5t-167.5 -34.5z" />
<glyph unicode="&#x215b;" horiz-adv-x="1876" d="M243 0h-96l1389 1604h93zM531 671h-77l223 851l-337 -151l-25 59l385 174h76zM1780 717q0 -88 -68.5 -155t-173.5 -94q76 -31 124.5 -87.5t48.5 -125.5q0 -120 -103 -197t-263 -77q-150 0 -247 69.5t-97 181.5q0 97 80 167t204 96q-64 32 -104.5 82t-40.5 111 q0 114 97 189.5t238 75.5q128 0 216.5 -66t88.5 -170zM1707 715q0 72 -66 120.5t-168 48.5q-115 0 -187.5 -56.5t-72.5 -140.5q0 -73 63 -125t160 -52q120 0 195.5 60.5t75.5 144.5zM1635 255q0 81 -72 137.5t-189 56.5q-131 0 -214 -63.5t-83 -149.5q0 -84 73 -135.5 t196 -51.5q135 0 212 58t77 148z" />
<glyph unicode="&#x215c;" horiz-adv-x="2080" d="M485 649q-74 0 -133 27.5t-92.5 70.5t-49.5 89.5t-14 89.5l75 15q-3 -52 17 -100.5t72 -85t127 -36.5q112 0 190.5 65t78.5 175q0 187 -241 187h-17l-19 64l388 324h-501l18 70h599l-19 -74l-382 -320q78 -6 138 -40q113 -64 113 -209q0 -144 -104 -228t-244 -84zM447 0 h-96l1389 1604h93zM1984 717q0 -88 -68.5 -155t-173.5 -94q76 -31 124.5 -87.5t48.5 -125.5q0 -120 -103 -197t-263 -77q-150 0 -247 69.5t-97 181.5q0 97 80 167t204 96q-64 32 -104.5 82t-40.5 111q0 114 97 189.5t238 75.5q128 0 216.5 -66t88.5 -170zM1911 715 q0 72 -66 120.5t-168 48.5q-115 0 -187.5 -56.5t-72.5 -140.5q0 -73 63 -125t160 -52q120 0 195.5 60.5t75.5 144.5zM1839 255q0 81 -72 137.5t-189 56.5q-131 0 -214 -63.5t-83 -149.5q0 -84 73 -135.5t196 -51.5q135 0 212 58t77 148z" />
<glyph unicode="&#x215d;" horiz-adv-x="2057" d="M534 1534l-151 -341q95 77 206 77q119 0 192.5 -80t73.5 -190q0 -154 -103 -252.5t-255 -98.5q-130 0 -214.5 77.5t-83.5 195.5l74 15q-1 -99 63.5 -158.5t162.5 -59.5q123 0 201 78.5t78 201.5q0 85 -54 143.5t-145 58.5q-117 0 -230 -94l-66 30l207 467h481l-19 -70 h-418zM423 0h-96l1389 1604h93zM1960 717q0 -88 -68.5 -155t-173.5 -94q76 -31 124.5 -87.5t48.5 -125.5q0 -120 -103 -197t-263 -77q-150 0 -247 69.5t-97 181.5q0 97 80 167t204 96q-64 32 -104.5 82t-40.5 111q0 114 97 189.5t238 75.5q128 0 216.5 -66t88.5 -170z M1887 715q0 72 -66 120.5t-168 48.5q-115 0 -187.5 -56.5t-72.5 -140.5q0 -73 63 -125t160 -52q120 0 195.5 60.5t75.5 144.5zM1815 255q0 81 -72 137.5t-189 56.5q-131 0 -214 -63.5t-83 -149.5q0 -84 73 -135.5t196 -51.5q135 0 212 58t77 148z" />
<glyph unicode="&#x215e;" horiz-adv-x="1936" d="M244 0h-96l1389 1604h93zM270 671l619 862h-540l19 71h627l-21 -77l-610 -856h-94zM1841 717q0 -88 -68.5 -155t-173.5 -94q76 -31 124.5 -87.5t48.5 -125.5q0 -120 -103 -197t-263 -77q-150 0 -247 69.5t-97 181.5q0 97 80 167t204 96q-64 32 -104.5 82t-40.5 111 q0 114 97 189.5t238 75.5q128 0 216.5 -66t88.5 -170zM1768 715q0 72 -66 120.5t-168 48.5q-115 0 -187.5 -56.5t-72.5 -140.5q0 -73 63 -125t160 -52q120 0 195.5 60.5t75.5 144.5zM1696 255q0 81 -72 137.5t-189 56.5q-131 0 -214 -63.5t-83 -149.5q0 -84 73 -135.5 t196 -51.5q135 0 212 58t77 148z" />
<glyph unicode="&#x2190;" horiz-adv-x="1359" d="M654 1318l54 -52l-466 -484h1121v-75h-1121l466 -483l-54 -53l-541 560v27z" />
<glyph unicode="&#x2191;" horiz-adv-x="1359" d="M1334 830l-53 -54l-483 467v-1121h-75v1121l-483 -467l-53 54l560 541h27z" />
<glyph unicode="&#x2192;" horiz-adv-x="1359" d="M822 171l-54 53l466 483h-1121v75h1122l-467 484l54 52l541 -560v-27z" />
<glyph unicode="&#x2193;" horiz-adv-x="1359" d="M145 663l53 54l483 -466v1121h75l1 -1122l483 467l52 -54l-560 -541h-27z" />
<glyph unicode="&#x2196;" horiz-adv-x="1359" d="M1108 1209l1 -75l-671 -11l792 -793l-53 -53l-792 792l-12 -671h-76l14 779l19 19z" />
<glyph unicode="&#x2197;" horiz-adv-x="1359" d="M1140 398h-75l-12 671l-792 -792l-54 53l793 793l-672 11l1 75l779 -13l19 -19z" />
<glyph unicode="&#x2198;" horiz-adv-x="1359" d="M360 277l-1 75l672 11l-793 793l54 53l792 -792l12 671h75l-13 -779l-19 -19z" />
<glyph unicode="&#x2199;" horiz-adv-x="1359" d="M317 1088h76l12 -671l792 792l53 -53l-792 -793l671 -11l-1 -75l-778 13l-19 19z" />
<glyph unicode="&#x21a9;" horiz-adv-x="2057" d="M2044 965q0 -265 -172.5 -425.5t-460.5 -160.5h-1235l466 -483l-54 -53l-541 560v27l541 560l54 -52l-467 -484h1233q161 0 285 58t196.5 175t72.5 278q0 248 -150.5 378t-409.5 130h-397v75h401q298 0 468 -158.5t170 -424.5z" />
<glyph unicode="&#x21b0;" horiz-adv-x="1772" d="M1480 0v595q0 123 -31 207t-96 133.5t-155.5 71t-218.5 21.5h-625l467 -484l-54 -52l-541 560v27l541 560l54 -53l-467 -483h634q296 0 434.5 -122.5t138.5 -386.5v-594h-81z" />
<glyph unicode="&#x21b1;" horiz-adv-x="1429" d="M161 594q0 264 138.5 386.5t434.5 122.5h634l-466 483l53 53l541 -560v-27l-541 -560l-53 52l466 484h-624q-129 0 -219.5 -21.5t-155.5 -71t-96 -133.5t-31 -207v-595h-81v594z" />
<glyph unicode="&#x21b2;" horiz-adv-x="1431" d="M1417 1010q0 -264 -138.5 -386t-434.5 -122h-634l467 -484l-54 -52l-541 560v27l541 559l54 -52l-467 -483h625q128 0 218.5 21.5t155.5 71t96 133t31 206.5v595h81v-594z" />
<glyph unicode="&#x21b3;" horiz-adv-x="1771" d="M439 1604v-595q0 -123 31 -206.5t96 -133t155.5 -71t219.5 -21.5h624l-467 483l54 52l541 -559v-27l-541 -560l-54 52l467 484h-634q-296 0 -434.5 122t-138.5 386v594h81z" />
<glyph unicode="&#x21b4;" horiz-adv-x="1998" d="M939 1604q265 0 387 -138.5t122 -434.5v-634l483 467l53 -54l-560 -541h-27l-560 541l52 54l484 -467v624q0 129 -21.5 219.5t-71 155.5t-133.5 96t-207 31h-595v81h594z" />
<glyph unicode="&#x2202;" horiz-adv-x="1333" d="M546 -17q-195 0 -318 123t-123 318q0 122 47.5 231t127.5 186t190.5 122.5t232.5 45.5q276 0 455 -224q22 115 22 226q0 244 -119 388t-363 145q-123 0 -262 -41l-16 74q143 44 282 44q141 0 249.5 -44.5t176.5 -126t102 -191.5t34 -244q0 -153 -41 -328 q-26 -112 -66 -212t-100 -191.5t-133.5 -157t-170.5 -104.5t-207 -39zM1139 691q-87 119 -193.5 180.5t-246.5 61.5q-104 0 -198.5 -40t-162.5 -107.5t-108.5 -161t-40.5 -195.5q0 -164 101 -266.5t263 -102.5q96 0 182.5 38.5t151 101t116.5 145.5t85 169.5t51 176.5z" />
<glyph unicode="&#x2206;" horiz-adv-x="1679" d="M1082 1604h93l279 -1604h-1509zM95 76h1265l-250 1437z" />
<glyph unicode="&#x220f;" horiz-adv-x="1397" d="M905 0h-85l408 1527h-531l-408 -1527h-84l408 1527h-266l21 77h1230l-20 -77h-266z" />
<glyph unicode="&#x2211;" horiz-adv-x="1217" d="M85 77h898l-21 -77h-1014l20 79l874 746l-457 707l19 72h983l-20 -76h-890l465 -717z" />
<glyph unicode="&#x2212;" horiz-adv-x="1352" d="M1221 732h-994l20 74h994z" />
<glyph unicode="&#x221a;" horiz-adv-x="1426" d="M514 1260l258 -1160l861 1862h81l-910 -1962h-92l-265 1185h-240l20 75h287z" />
<glyph unicode="&#x221e;" horiz-adv-x="2070" d="M1545 259q-54 0 -106 18t-88.5 39.5t-83.5 67t-69.5 71t-68.5 83t-60 73.5q-21 -21 -65.5 -66.5t-70.5 -71t-68.5 -64t-77.5 -61t-78.5 -45.5t-89.5 -33.5t-95 -10.5q-155 0 -254.5 105.5t-99.5 263.5q0 118 55 220t154.5 164t219.5 62q45 0 87.5 -11t81.5 -34.5t70 -47 t67 -62t58.5 -64.5t58.5 -70t53 -64q19 19 56 56.5t60 60.5t61 58t66 57t67 47.5t73 39.5t74.5 24t80.5 10q158 0 257.5 -109t99.5 -268q0 -182 -123.5 -310t-301.5 -128zM594 999q-145 0 -248 -111.5t-103 -256.5q0 -128 79 -212t206 -84q48 0 98 17t89 40t86.5 62.5 t77.5 69t76 76.5t68 68q-8 9 -41.5 51.5t-46.5 58t-46.5 53t-53.5 54.5t-53.5 43.5t-60 38.5t-60.5 22t-67 10zM1612 999q-45 0 -95 -18t-88.5 -41t-89 -65.5t-78 -70t-76.5 -77t-64 -64.5q18 -22 56 -69.5t61.5 -76t63.5 -67.5t73.5 -61t78.5 -38t92 -16q148 0 249 107 t101 252q0 128 -79 216.5t-205 88.5z" />
<glyph unicode="&#x222b;" horiz-adv-x="760" d="M210 -275q-36 -134 -117 -201t-215 -67q-71 0 -121 21l17 68q50 -14 108 -14q95 0 159.5 48t94.5 163l420 1597q36 134 117 201t215 67q71 0 121 -21l-17 -68q-56 14 -108 14q-95 0 -159.5 -48t-94.5 -163z" />
<glyph unicode="&#x2236;" horiz-adv-x="549" d="M446 1111q-35 0 -57.5 22t-22.5 57q0 41 28 70t69 29q35 0 58 -22t23 -57q0 -41 -28.5 -70t-69.5 -29zM196 163q-35 0 -57.5 22t-22.5 57q0 41 28.5 70t68.5 29q35 0 58 -22.5t23 -57.5q0 -41 -28.5 -69.5t-69.5 -28.5z" />
<glyph unicode="&#x2248;" horiz-adv-x="1278" d="M556 1139q55 0 104.5 -21t87 -51.5t73 -61t76 -51.5t82.5 -21q91 0 202 88l37 -49q-53 -52 -119.5 -83.5t-134.5 -31.5q-48 0 -94.5 21t-83.5 51.5t-73.5 61t-81 52t-90.5 21.5q-88 1 -200 -90l-36 50q117 115 251 115zM435 684q55 0 104.5 -21t87 -51.5t73 -61 t76.5 -51.5t83 -21q93 0 202 88l36 -50q-52 -51 -119 -82.5t-135 -31.5q-48 0 -94 21t-83 51.5t-74 60.5t-81.5 51.5t-90.5 21.5q-88 1 -199 -89l-37 50q119 115 251 115z" />
<glyph unicode="&#x2260;" horiz-adv-x="1300" d="M863 973l-230 -406h495l-20 -77h-519l-129 -232l-62 32l112 200h-343l20 77h367l230 406h-490l20 77h511l156 274l61 -29l-140 -245h354l-21 -77h-372z" />
<glyph unicode="&#x2264;" horiz-adv-x="1356" d="M1344 1181l-1036 -421l814 -423l-20 -78l-886 468l22 81l1131 465zM1036 0h-1011l19 73h1011z" />
<glyph unicode="&#x2265;" horiz-adv-x="1336" d="M150 351l1036 421l-814 423l20 78l886 -468l-22 -81l-1131 -465zM1066 0h-1011l19 73h1011z" />
<glyph unicode="&#x25a0;" horiz-adv-x="1860" d="M1658 1457v-1457h-1451v1457h1451z" />
<glyph unicode="&#x25a1;" horiz-adv-x="1958" d="M207 0v1457h1451v-1457h-1451zM1577 1380h-1289v-1303h1289v1303z" />
<glyph unicode="&#x25b2;" horiz-adv-x="1716" d="M0 0l862 1495l854 -1495h-1716z" />
<glyph unicode="&#x25b3;" horiz-adv-x="1716" d="M858 1474l844 -1474h-1687zM149 77h1416l-707 1237z" />
<glyph unicode="&#x25ca;" horiz-adv-x="1466" d="M484 0l-382 803l809 801h85l382 -800l-811 -804h-83zM198 788l337 -708l747 740l-338 708z" />
<glyph unicode="&#x25cb;" horiz-adv-x="1665" d="M834 -28q-155 0 -296 60t-242.5 161t-161.5 241.5t-60 295.5t60 295.5t162 242.5t242.5 162t295.5 60q154 0 294.5 -60t241.5 -162t161 -242.5t60 -295.5t-59.5 -295.5t-161 -241.5t-241.5 -161t-295 -60zM834 1413q-185 0 -341.5 -92t-247 -249t-90.5 -342t90.5 -342 t247 -249t341.5 -92q137 0 261.5 54.5t214 146.5t142.5 218t53 264t-53 264t-142.5 218t-214 146.5t-261.5 54.5z" />
<glyph unicode="&#x25cf;" horiz-adv-x="1665" d="M74 730q0 155 60 295.5t161 242.5t241.5 162t294.5 60q155 0 295.5 -60t242.5 -162t162 -242.5t60 -295.5t-60 -295.5t-162 -241.5t-242.5 -161t-295.5 -60q-154 0 -294.5 60t-241.5 161t-161 241.5t-60 295.5z" />
<glyph unicode="&#x25fc;" horiz-adv-x="1095" d="M0 1095h1095v-1095h-1095v1095z" />
<glyph unicode="&#x2605;" horiz-adv-x="1716" d="M1049 907h618l-500 -363l191 -587l-500 363l-501 -359l192 583l-499 363h617l191 588z" />
<glyph unicode="&#x2611;" horiz-adv-x="1958" d="M1658 1438v-1438h-1451v1457h1372l249 427l67 -39zM1577 1299l-607 -1043l-494 593l62 53l422 -508l574 986h-1246v-1303h1289v1222z" />
<glyph unicode="&#x2612;" horiz-adv-x="1860" d="M207 0v1457h1451v-1457h-1451zM1577 1380h-1289v-1303h1289v1303zM931 672l-376 -385l-53 55l377 385l-376 382l54 54l375 -381l371 380l53 -53l-372 -382l372 -377l-53 -55z" />
<glyph unicode="&#x2639;" horiz-adv-x="1665" d="M1591 730q0 -155 -59.5 -295.5t-161 -241.5t-241.5 -161t-295 -60t-296 60t-242.5 161t-161.5 241.5t-60 295.5t60 295.5t162 242.5t242.5 162t295.5 60q154 0 294.5 -60t241.5 -162t161 -242.5t60 -295.5zM1505 730q0 138 -53 264t-142.5 218t-214 146.5t-261.5 54.5 q-185 0 -341.5 -92t-247 -249t-90.5 -342t90.5 -342t247 -249t341.5 -92q137 0 261.5 54.5t214 146.5t142.5 218t53 264zM756 940q0 -45 -32 -76.5t-77 -31.5t-76.5 31.5t-31.5 76.5t31.5 77t76.5 32t77 -32t32 -77zM1126 940q0 -45 -31.5 -76.5t-76.5 -31.5t-77 31.5 t-32 76.5t32 77t77 32t76.5 -32t31.5 -77zM1227 340q-10 110 -71.5 194.5t-146 126t-176.5 41.5t-176.5 -41.5t-145.5 -126t-71 -194.5h71q15 119 106.5 201.5t216.5 82.5q124 0 215.5 -82.5t106.5 -201.5h71z" />
<glyph unicode="&#x263a;" horiz-adv-x="1665" d="M1591 730q0 -155 -59.5 -295.5t-161 -241.5t-241.5 -161t-295 -60t-296 60t-242.5 161t-161.5 241.5t-60 295.5t60 295.5t162 242.5t242.5 162t295.5 60q154 0 294.5 -60t241.5 -162t161 -242.5t60 -295.5zM1505 730q0 138 -53 264t-142.5 218t-214 146.5t-261.5 54.5 q-185 0 -341.5 -92t-247 -249t-90.5 -342t90.5 -342t247 -249t341.5 -92q137 0 261.5 54.5t214 146.5t142.5 218t53 264zM756 940q0 -45 -32 -76.5t-77 -31.5t-76.5 31.5t-31.5 76.5t31.5 77t76.5 32t77 -32t32 -77zM1126 940q0 -45 -31.5 -76.5t-76.5 -31.5t-77 31.5 t-32 76.5t32 77t77 32t76.5 -32t31.5 -77zM1227 679q-10 -110 -71.5 -194.5t-146 -125.5t-176.5 -41q-68 0 -134 24.5t-121.5 69t-92.5 114.5t-45 153h71q15 -118 106.5 -200.5t216.5 -82.5q124 0 215.5 82.5t106.5 200.5h71z" />
<glyph unicode="&#x263b;" horiz-adv-x="1665" d="M1591 730q0 -155 -60 -295.5t-161 -241.5t-241.5 -161t-294.5 -60q-155 0 -295.5 60t-242.5 161t-162 241.5t-60 295.5t60 295.5t162 242.5t242.5 162t295.5 60q154 0 294.5 -60t241.5 -162t161 -242.5t60 -295.5zM756 940q0 45 -32 77t-77 32t-76.5 -32t-31.5 -77 t31.5 -76.5t76.5 -31.5t77 31.5t32 76.5zM1126 940q0 45 -31.5 77t-76.5 32t-77 -32t-32 -77t32 -76.5t77 -31.5t76.5 31.5t31.5 76.5zM1156 679q-15 -118 -106.5 -200.5t-215.5 -82.5q-125 0 -216.5 82.5t-106.5 200.5h-71q8 -83 45 -153t92.5 -114.5t121.5 -69t134 -24.5 q92 0 176.5 41t146 125.5t71.5 194.5h-71z" />
<glyph unicode="&#x2665;" horiz-adv-x="1785" d="M7 983q0 198 134.5 334t332.5 136q117 0 216.5 -58t147.5 -161q50 106 149.5 162.5t221.5 56.5q194 0 327 -138t133 -332q0 -125 -55.5 -253t-139 -232.5t-199.5 -208t-219.5 -176.5t-217.5 -141h-1q-93 56 -179.5 116t-184.5 138.5t-178 164.5t-147 180.5t-104 200.5 t-37 211z" />
<glyph unicode="&#x2713;" horiz-adv-x="1929" d="M76 590l57 56l483 -536l1174 1298l56 -56l-1231 -1362z" />
<glyph unicode="&#x2715;" horiz-adv-x="1546" d="M769 673l-641 -645l-53 53l642 647l-640 641l53 52l640 -640l634 640l53 -52l-635 -642l648 -646l-52 -54z" />
<glyph unicode="&#x2e18;" horiz-adv-x="1103" d="M764 1031q0 -34 -23 -58t-56 -24t-56 24t-23 58t23 58t56 24t56 -24t23 -58zM-88 -170q0 33 5.5 64t21 63.5t28 57t41.5 58.5t45.5 54t56.5 57.5t57.5 53.5t65.5 58.5t65 57.5q104 93 167.5 167.5t82.5 147.5h84l-212 -806h-82l156 593h-2q-60 -77 -162 -168 q-18 -16 -62.5 -55t-67 -60t-60 -58t-58 -65.5t-42.5 -65t-32 -74t-10 -76.5q0 -123 98 -203t239 -80q96 0 180 35.5t139.5 93.5t87 130t31.5 146l85 -6q-5 -129 -73.5 -238t-189 -174t-266.5 -65q-173 0 -295 102.5t-122 254.5z" />
<glyph unicode="&#xe09d;" horiz-adv-x="1297" d="M873 294q-15 -57 -15 -104q0 -71 42.5 -98t118.5 -27q34 0 87 11l-20 -76q-51 -11 -84 -11q-226 0 -226 194q0 52 19 125l188 712h-518l-269 -1020h-80l268 1020h-205l20 73h205l82 312q36 134 117 201t215 67q77 0 123 -20l-20 -75q-40 19 -106 19q-95 0 -159.5 -48 t-94.5 -163l-77 -293h518l82 312h82l-84 -312h282l-19 -73h-281z" />
<glyph unicode="&#xf653;" horiz-adv-x="1032" d="M880 794q-5 29 -16.5 59t-33 63.5t-59.5 61.5t-87 42l-116 -442l44 -19q228 -97 228 -258q0 -101 -56.5 -174.5t-140.5 -106.5t-182 -33q-17 0 -47 2l-52 -198h-81l56 211q-92 23 -156 81.5t-90 123t-26 131.5l78 19q-1 -57 19 -111.5t70.5 -103t125.5 -67.5l121 459 l-49 21q-45 20 -80.5 41t-68 50.5t-50.5 68t-18 83.5q0 98 56 170.5t139 106t178 33.5q14 0 42 -2l52 198h80l-56 -211q80 -21 138 -71.5t83 -103.5t30 -105zM611 1032q-10 1 -29 1q-72 0 -136 -23.5t-108.5 -77t-44.5 -127.5q0 -35 14 -64t42 -51t53.5 -36.5t62.5 -31.5 l34 -15zM548 504l-116 -441q10 -1 31 -1q55 0 106.5 14t95 41.5t69.5 74t26 104.5q0 38 -16.5 70t-47 56t-59 40t-68.5 33z" />
<glyph unicode="&#xf730;" horiz-adv-x="1301" d="M581 -18q-211 0 -334.5 136t-123.5 348q0 121 48.5 238.5t129 207.5t193.5 145.5t235 55.5q194 0 327.5 -139t133.5 -345q0 -163 -82.5 -312.5t-224 -242t-302.5 -92.5zM590 57q134 0 254 80.5t190.5 211t70.5 272.5q0 182 -109 300t-272 118q-101 0 -197 -48.5 t-165.5 -126.5t-112 -181t-42.5 -208q0 -187 100.5 -302.5t282.5 -115.5z" />
<glyph unicode="&#xf731;" horiz-adv-x="658" d="M230 0l264 999l-316 -136l-24 67l373 163h71l-288 -1093h-80z" />
<glyph unicode="&#xf732;" horiz-adv-x="973" d="M912 805q0 -206 -286 -346l-223 -110q-235 -115 -291 -274h641l-19 -75h-740q55 257 370 412l224 110q115 56 179 124t64 157q0 99 -67.5 168t-187.5 69q-62 0 -113.5 -20.5t-84.5 -52.5t-56 -72.5t-33 -79.5t-10 -75l-79 8q1 46 15.5 95t45 97.5t73.5 86.5t107 62 t139 24q79 0 143.5 -26.5t105 -70.5t62 -98.5t21.5 -112.5z" />
<glyph unicode="&#xf733;" horiz-adv-x="969" d="M484 633q102 -9 170 -48q130 -72 130 -240q0 -113 -59.5 -197.5t-149.5 -125t-194 -40.5q-69 0 -127 21t-96.5 55t-65 76.5t-37.5 85t-9 81.5l79 15q-2 -44 13 -88.5t44.5 -84t82 -64t118.5 -24.5q132 0 227 78.5t95 208.5q0 223 -289 223h-18l-20 70l461 384h-593l19 74 h694l-21 -80z" />
<glyph unicode="&#xf734;" horiz-adv-x="1058" d="M655 0h-79l67 252h-639l22 86l829 755h88l-202 -767h169l-20 -74h-168zM111 326h551l174 662z" />
<glyph unicode="&#xf735;" horiz-adv-x="968" d="M431 1020l-184 -413h1q114 95 250 95q140 0 223.5 -92.5t83.5 -220.5q0 -179 -119.5 -293t-296.5 -114q-148 0 -244 88t-101 224l79 16q0 -117 77 -186t193 -69q146 0 239 93.5t93 238.5q0 102 -65.5 172t-174.5 70q-134 0 -267 -111l-76 33l240 542l558 -1l-20 -72h-489 z" />
<glyph unicode="&#xf736;" horiz-adv-x="1035" d="M547 709q108 0 192 -55q67 -43 106 -113t39 -154q0 -163 -121 -284t-297 -121q-84 0 -155.5 33t-116.5 86q-85 100 -85 257q0 105 25.5 211t78 204t125.5 174t175.5 121t219.5 45q137 0 248 -62l-34 -66q-117 56 -215 56q-115 0 -212.5 -50.5t-168.5 -137.5 q-55 -67 -96 -159.5t-57 -181.5h1q57 89 151.5 143t196.5 54zM542 637q-139 0 -245 -91t-106 -220q0 -122 78.5 -196.5t200.5 -74.5q146 0 240 97.5t94 231.5q0 114 -74.5 183.5t-187.5 69.5z" />
<glyph unicode="&#xf737;" horiz-adv-x="860" d="M188 0h-101l729 1019h-631l19 74h725l-23 -81z" />
<glyph unicode="&#xf738;" horiz-adv-x="1082" d="M977 840q0 -103 -83.5 -182.5t-205.5 -107.5q94 -33 151 -101.5t57 -150.5q0 -140 -120 -228t-307 -88q-176 0 -288.5 79.5t-112.5 208.5q0 114 94.5 197.5t242.5 111.5q-81 38 -127.5 96.5t-46.5 130.5q0 131 113 219t277 88q150 0 253 -76.5t103 -196.5zM897 845 q0 84 -79 140t-199 56q-135 0 -221.5 -65t-86.5 -163q0 -86 75.5 -148t187.5 -62q141 0 232 72t91 170zM814 298q0 96 -87 164.5t-225 68.5q-155 0 -253 -77t-98 -179q0 -100 86.5 -160t232.5 -60q160 0 252 68t92 175z" />
<glyph unicode="&#xf739;" horiz-adv-x="1037" d="M939 735q0 -144 -48 -288t-138 -253q-175 -212 -436 -212q-150 0 -252 64l35 67q111 -58 217 -58q115 0 212 49.5t168 136.5q55 67 95.5 159.5t57.5 182.5h-1q-57 -89 -152 -144t-197 -55q-109 0 -193 54q-66 43 -104.5 114.5t-38.5 155.5q0 79 32 153t86.5 129.5t133 89 t165.5 33.5q84 0 155.5 -32.5t117.5 -86.5q85 -102 85 -259zM857 769q0 122 -79 196.5t-202 74.5q-146 0 -239.5 -98t-93.5 -232q0 -113 74 -183.5t187 -70.5q139 0 246 91.5t107 221.5z" />
</font>
</defs>
</svg>
