<?xml version="1.0" standalone="no"?>
<!DOCTYPE svg PUBLIC "-//W3C//DTD SVG 1.1//EN" "http://www.w3.org/Graphics/SVG/1.1/DTD/svg11.dtd" >
<svg xmlns="http://www.w3.org/2000/svg">
<metadata></metadata>
<defs>
<font id="gorditabold_italic" horiz-adv-x="1308" >
<font-face units-per-em="2048" ascent="1638" descent="-410" />
<missing-glyph horiz-adv-x="515" />
<glyph unicode="ff" horiz-adv-x="1664" d="M1782 1093l-72 -271h-269l-217 -822h-323l216 822h-451l-216 -822h-324l217 822h-219l72 271h218l47 163q21 73 45.5 129t64.5 112.5t91.5 93.5t127 60t169.5 23q141 0 209 -40l-68 -260q-48 21 -102 21q-178 0 -227 -176l-35 -126h453l47 163q21 73 45.5 129t64.5 112.5 t91 93.5t126.5 60t169.5 23q140 0 210 -40l-68 -260q-49 21 -102 21q-179 0 -228 -176l-35 -126h272z" />
<glyph unicode="fi" horiz-adv-x="1514" d="M900 0l217 822h-451l-216 -822h-324l217 822h-219l72 271h218l47 163q21 73 45.5 129t64.5 112.5t91.5 93.5t127 60t169.5 23q141 0 209 -40l-68 -260q-48 21 -102 21q-178 0 -227 -176l-35 -126h778l-290 -1093h-324zM1476 1674q75 0 125.5 -47.5t50.5 -122.5 q1 -96 -66 -162t-163 -66q-75 0 -125.5 48t-50.5 123q-1 94 66.5 160.5t162.5 66.5z" />
<glyph unicode="fl" horiz-adv-x="1511" d="M1116 822h-450l-216 -822h-324l217 822h-219l72 271h218l47 163q21 73 45.5 129t64.5 112.5t91.5 93.5t127 60t169.5 23q141 0 209 -40l-68 -260q-48 21 -102 21q-178 0 -227 -176l-35 -126h451l152 575h324l-440 -1668h-324z" />
<glyph unicode="ffi" horiz-adv-x="2292" d="M1678 0l217 822h-454l-216 -822h-324l217 822h-452l-216 -822h-324l217 822h-219l72 271h218l47 163q21 73 45.5 129t64.5 112.5t91.5 93.5t127 60t169.5 23q141 0 209 -40l-68 -260q-48 21 -102 21q-178 0 -227 -176l-35 -126h453l47 163q21 73 45.5 129t64.5 112.5 t91.5 93.5t127 60t169.5 23q141 0 209 -40l-68 -260q-48 21 -102 21q-178 0 -227 -176l-35 -126h782l-291 -1093h-324zM2254 1674q75 0 125.5 -47.5t50.5 -122.5q1 -96 -66 -162t-163 -66q-75 0 -125.5 48t-50.5 123q-1 94 66.5 160.5t162.5 66.5z" />
<glyph unicode="ffl" horiz-adv-x="2289" d="M1188 1093l47 163q21 73 45.5 129t64.5 112.5t91.5 93.5t127 60t169.5 23q141 0 209 -40l-68 -260q-48 21 -102 21q-178 0 -227 -176l-35 -126h454l152 575h324l-440 -1668h-324l217 822h-453l-216 -822h-324l217 822h-451l-216 -822h-324l217 822h-219l72 271h218 l47 163q21 73 45.5 129t64.5 112.5t91.5 93.5t127 60t169.5 23q141 0 209 -40l-68 -260q-48 21 -102 21q-178 0 -227 -176l-35 -126h452z" />
<glyph horiz-adv-x="0" />
<glyph horiz-adv-x="0" />
<glyph unicode="&#xd;" horiz-adv-x="515" />
<glyph unicode=" "  horiz-adv-x="515" />
<glyph unicode="&#x09;" horiz-adv-x="515" />
<glyph unicode="&#xa0;" horiz-adv-x="515" />
<glyph unicode="!" horiz-adv-x="701" d="M814 1604l-311 -1049h-295l248 1049h358zM287 372q76 0 126 -47t51 -123q0 -95 -67 -161t-163 -66q-75 0 -125 47.5t-51 122.5q0 94 67 160.5t162 66.5z" />
<glyph unicode="&#x22;" horiz-adv-x="1052" d="M656 1271l-188 -415h-141l-12 442q-4 131 49.5 213.5t163.5 82.5q78 0 126 -45.5t48 -110.5q0 -68 -46 -167zM1131 1271l-188 -415h-141l-12 442q-4 131 49.5 213.5t163.5 82.5q78 0 126 -45.5t48 -110.5q0 -68 -46 -167z" />
<glyph unicode="#" horiz-adv-x="1669" d="M1702 988h-301l-120 -341h289l-64 -233h-308l-145 -414h-255l145 414h-350l-145 -414h-256l145 414h-275l62 233h295l120 341h-282l63 234h302l135 383h256l-135 -383h350l135 383h255l-135 -383h282zM1150 993h-356l-123 -349h357z" />
<glyph unicode="$" horiz-adv-x="1435" d="M1456 1141l-308 -52q0 70 -33 125.5t-86 80.5l-98 -369l4 -1q79 -31 144 -69.5t122 -90.5t89.5 -121.5t32.5 -148.5q0 -104 -34 -190t-92 -145t-137.5 -99.5t-170 -58.5t-189.5 -17l-17 1l-52 -195h-195l59 220q-89 23 -163 65t-131.5 103t-89 146t-30.5 185v17l311 55 v-11q-1 -97 49.5 -172t131.5 -107l104 388h-1q-64 25 -116 52.5t-104 67t-87 83.5t-57 102.5t-22 124.5q0 119 51.5 217.5t136.5 161t191.5 97t220.5 34.5h35l54 205h195l-63 -236q158 -48 251.5 -162.5t93.5 -285.5zM847 612l-92 -346q52 3 101.5 22.5t87.5 61t38 95.5 q0 105 -135 167zM760 992l90 337q-84 -4 -153.5 -56.5t-69.5 -137.5q0 -51 37 -84.5t96 -58.5z" />
<glyph unicode="%" horiz-adv-x="1872" d="M1556 1604h295l-1390 -1604h-297zM687 1620q143 0 231.5 -88t88.5 -222q0 -107 -52.5 -201.5t-150 -153.5t-217.5 -59q-138 0 -228.5 86t-90.5 224q0 109 54.5 204t151.5 152.5t213 57.5zM504 1232q0 -50 30.5 -80t82.5 -30q64 0 108.5 50t44.5 112q0 50 -30 80t-83 30 q-65 0 -109 -50t-44 -112zM1434 715q142 0 230.5 -88t88.5 -222q0 -107 -52.5 -201.5t-150 -153.5t-217.5 -59q-137 0 -227.5 86t-90.5 224q0 168 121.5 291t297.5 123zM1251 327q0 -50 30 -80t82 -30q64 0 109 50t45 112q0 50 -30.5 80t-83.5 30q-65 0 -108.5 -50 t-43.5 -112z" />
<glyph unicode="&#x26;" horiz-adv-x="1521" d="M996 809l-72 -27l133 -222q95 108 149 210l249 -124q-48 -96 -139 -208q-59 -73 -110 -124l189 -314h-346l-74 123q-226 -146 -444 -146q-93 0 -176 25.5t-148.5 75t-104 129.5t-38.5 182q0 74 26 142.5t68.5 122t102 100.5t121 81.5t131.5 62.5l-12 22q-46 79 -70 141 t-24 132q0 128 74.5 230t188.5 154.5t240 52.5q120 0 219.5 -48.5t159.5 -142t60 -214.5q0 -74 -30 -141t-81 -119t-112 -91t-130 -65zM583 261q114 0 253 96l-191 320q-45 -17 -84 -37.5t-79.5 -50.5t-64 -69.5t-23.5 -83.5q0 -84 53 -129.5t136 -45.5zM716 1195 q0 -66 48 -148l27 -45l117 44q57 21 95.5 63.5t38.5 98.5q0 64 -47.5 101t-113.5 37q-69 0 -117 -41.5t-48 -109.5z" />
<glyph unicode="'" horiz-adv-x="577" d="M656 1271l-188 -415h-141l-13 442q-3 131 50.5 213.5t163.5 82.5q78 0 126 -45.5t48 -110.5t-46 -167z" />
<glyph unicode="(" horiz-adv-x="982" d="M429 591q0 -203 94.5 -388t256.5 -321l-164 -162q-216 146 -345 378t-129 489q0 224 76 423t211 350t316.5 260.5t396.5 168.5l93 -202q-134 -56 -249 -124t-219.5 -160t-178 -197t-116.5 -237.5t-43 -277.5z" />
<glyph unicode=")" horiz-adv-x="984" d="M677 918q0 203 -94.5 388t-256.5 321l164 162q216 -146 345 -378t129 -489q0 -224 -76 -423t-211.5 -350t-317 -260.5t-396.5 -168.5l-92 202q134 56 249 124t219.5 160t178 196.5t116.5 237t43 278.5z" />
<glyph unicode="*" horiz-adv-x="1066" d="M1135 1088l-278 -16l98 -259l-194 -76l-104 262l-219 -176l-130 162l214 176l-233 153l114 173l232 -151l74 275l208 -55l-73 -275l277 15z" />
<glyph unicode="+" horiz-adv-x="1264" d="M1279 897l-79 -298h-390l-107 -401h-305l107 401h-399l79 298h400l106 397h305l-106 -397h389z" />
<glyph unicode="," horiz-adv-x="670" d="M-56 -388l40 147q109 12 187.5 78.5t96.5 158.5q-28 -12 -63 -12q-79 0 -127 46.5t-48 123.5q0 98 68.5 157.5t161.5 59.5q102 0 158.5 -68t56.5 -173q0 -100 -41 -193t-110.5 -163.5t-169 -114.5t-210.5 -47z" />
<glyph unicode="-" horiz-adv-x="947" d="M805 507h-676l85 316h676z" />
<glyph unicode="." horiz-adv-x="645" d="M231 -24q-87 0 -143 55t-56 142q0 102 70 174.5t172 72.5q87 0 144 -55.5t57 -142.5q0 -102 -71 -174t-173 -72z" />
<glyph unicode="/" horiz-adv-x="1213" d="M1435 1669l-1166 -1679h-325l1164 1679h327z" />
<glyph unicode="0" horiz-adv-x="1584" d="M986 1628q143 0 255.5 -52t182.5 -141.5t106 -204.5t36 -246q0 -145 -34.5 -288.5t-104.5 -272t-166 -227.5t-229.5 -157.5t-284.5 -58.5q-145 0 -257 48t-182 135t-105.5 202.5t-35.5 255.5q0 144 34 287.5t103 273t165 229t230 158.5t287 59zM509 641q0 -58 6 -105.5 t24 -94t46.5 -77.5t76 -50.5t110.5 -19.5q103 0 191.5 67t143.5 170t86 218t31 218q0 347 -273 347q-103 0 -190 -67t-140 -170t-82.5 -217.5t-29.5 -218.5z" />
<glyph unicode="1" horiz-adv-x="1021" d="M1117 1604l-428 -1604h-335l320 1197l-360 -178l-124 252l651 333h276z" />
<glyph unicode="2" horiz-adv-x="1404" d="M1098 1120q0 90 -62 145t-158 55q-49 0 -95 -16t-87.5 -50t-66.5 -95.5t-25 -142.5l-329 37q0 133 52 243.5t139 182t199.5 110.5t235.5 39q128 0 231.5 -40t167.5 -107t98 -151.5t34 -178.5q0 -108 -33 -196.5t-96.5 -155t-139 -115t-177.5 -93.5l-287 -126 q-159 -70 -206 -165h737l-80 -300h-1159q30 265 175 439.5t398 283.5l226 97q137 60 193 100q115 84 115 200z" />
<glyph unicode="3" horiz-adv-x="1407" d="M616 -24q-110 0 -209.5 35t-174.5 98t-119.5 158.5t-44.5 208.5q0 23 1 34l349 41l-1 -19q-3 -113 61.5 -183t178.5 -70q121 0 207 77.5t86 192.5q0 84 -62 139t-154 55q-81 0 -155 -34l-101 241l539 357h-697l79 297h1122l-91 -344l-463 -308q147 -42 237 -145t90 -251 q0 -110 -37 -205t-101.5 -163t-151 -116.5t-185 -72t-203.5 -23.5z" />
<glyph unicode="4" horiz-adv-x="1498" d="M1353 319h-224l-85 -318l-326 -1l85 318h-792l98 368l957 918h406l-264 -988h224zM882 615l162 605l-632 -605h470z" />
<glyph unicode="5" horiz-adv-x="1374" d="M618 -20q-238 0 -396.5 142.5t-156.5 361.5l337 63q-2 -24 -2 -37q0 -97 68 -161t169 -64q129 0 217.5 81.5t88.5 198.5q0 91 -62 147.5t-165 56.5q-65 0 -132 -33.5t-103 -68.5l-285 134l345 803h936l-80 -298h-663l-148 -346q135 81 296 81q176 0 289 -121.5 t113 -306.5q0 -119 -35 -221t-97 -177t-146 -128.5t-182.5 -80t-205.5 -26.5z" />
<glyph unicode="6" horiz-adv-x="1468" d="M1126 1629q129 0 248 -27t201 -80l-159 -283q-132 87 -330 87q-91 0 -193.5 -40.5t-185.5 -109.5q-136 -113 -175 -268q68 63 168 99t194 36q214 0 348.5 -123.5t134.5 -320.5q0 -176 -90.5 -319.5t-240 -221.5t-324.5 -78q-254 0 -406 152q-79 79 -120.5 193.5 t-41.5 246.5q0 229 82 440t235 360q126 122 293.5 189.5t361.5 67.5zM485 487q0 -97 71.5 -154.5t170.5 -57.5q123 0 215 80.5t92 201.5q0 98 -70.5 154.5t-169.5 56.5q-75 0 -146 -36.5t-117 -102t-46 -142.5z" />
<glyph unicode="7" horiz-adv-x="1290" d="M1435 1318l-992 -1318h-394l997 1305h-786l80 299h1175z" />
<glyph unicode="8" horiz-adv-x="1432" d="M684 -20q-108 0 -210.5 32.5t-183.5 90t-130.5 144.5t-49.5 188q0 91 31.5 165t87.5 125.5t121.5 86.5t146.5 58l1 3q-88 48 -142.5 127.5t-54.5 181.5q0 127 76.5 229.5t210.5 159.5t299 57q146 0 268.5 -48.5t200 -148t77.5 -232.5q0 -147 -94.5 -251.5t-250.5 -146.5 v-3q219 -113 219 -340q0 -142 -85.5 -252t-226.5 -168t-311 -58zM1095 1157q0 90 -71 141.5t-159 51.5q-89 0 -164 -60t-75 -146q0 -90 70.5 -143t158.5 -53q94 0 167 61.5t73 147.5zM709 258q60 0 119.5 23t105 76.5t45.5 127.5q0 44 -16.5 80.5t-43 60.5t-61 41t-69 24 t-68.5 7q-42 0 -87.5 -14t-86.5 -40.5t-67 -71t-26 -99.5q0 -54 24.5 -96.5t63 -67.5t82 -38t85.5 -13z" />
<glyph unicode="9" horiz-adv-x="1473" d="M507 -20q-131 0 -257.5 27.5t-207.5 79.5l153 284q60 -39 156 -62.5t196 -23.5q185 0 342.5 121t201.5 295q-67 -62 -170 -98.5t-198 -36.5q-207 0 -345.5 124t-138.5 320q0 110 35 208.5t97 172.5t144.5 128.5t180 82.5t200.5 28q170 0 299.5 -79.5t197.5 -216.5 t68 -310q0 -171 -39.5 -326.5t-119.5 -286t-192.5 -227t-267 -150.5t-335.5 -54zM1130 1120q0 98 -70.5 155t-173.5 57q-122 0 -214 -80t-92 -200q0 -98 70.5 -155t170.5 -57q117 0 213 82.5t96 197.5z" />
<glyph unicode=":" horiz-adv-x="690" d="M235 -24q-87 0 -143 55t-56 142q0 102 70 174.5t172 72.5q87 0 144 -55.5t57 -142.5q0 -102 -71.5 -174t-172.5 -72zM421 675q-87 0 -143 55.5t-56 142.5q0 102 70.5 174t171.5 72q87 0 144 -55.5t57 -142.5q0 -102 -71 -174t-173 -72z" />
<glyph unicode=";" horiz-adv-x="707" d="M422 675q-87 0 -143 55.5t-56 142.5q0 102 70.5 174t172.5 72q87 0 143.5 -55.5t56.5 -142.5q0 -102 -71 -174t-173 -72zM-48 -388l40 147q109 12 187.5 78.5t96.5 158.5q-28 -12 -63 -12q-79 0 -127.5 46.5t-48.5 123.5q0 98 69 157.5t161 59.5q103 0 159.5 -68 t56.5 -173q0 -100 -41 -193t-110.5 -163.5t-169 -114.5t-210.5 -47z" />
<glyph unicode="&#x3c;" horiz-adv-x="1300" d="M170 871l1198 491l-86 -324l-788 -306l-1 -5l627 -307l-76 -290l-941 489z" />
<glyph unicode="=" horiz-adv-x="1303" d="M1256 881h-1019l79 297h1019zM1105 317h-1019l80 299h1019z" />
<glyph unicode="&#x3e;" horiz-adv-x="1303" d="M1251 621l-1199 -491l86 323l788 307l1 5l-626 306l75 291l941 -489z" />
<glyph unicode="?" horiz-adv-x="1236" d="M801 542h-304q0 34 4 61q10 62 41 117t73 95.5t90.5 78t95 72t84.5 69t61.5 77t23.5 88.5q0 66 -49 99.5t-118 33.5q-103 0 -175 -79t-72 -193l-314 26q0 158 84.5 283.5t222 192t299.5 66.5q86 0 167 -24.5t147.5 -71t106.5 -122t40 -168.5q0 -78 -22.5 -144.5 t-60.5 -114.5t-85 -90t-98 -81t-97 -77.5t-85.5 -88.5t-59.5 -105zM632 372q76 0 126.5 -47.5t50.5 -122.5q0 -95 -67 -161t-162 -66q-76 0 -126.5 47.5t-50.5 122.5q0 95 67 161t162 66z" />
<glyph unicode="@" horiz-adv-x="1784" d="M1263 241q-67 0 -129.5 31t-84.5 88q-46 -51 -119 -86t-139 -35q-119 0 -204.5 92t-85.5 217q0 122 63 239.5t174.5 193.5t239.5 76q59 0 111.5 -30t68.5 -83l33 105h236l-152 -511q-8 -27 -8 -51q0 -61 57 -61q84 0 152 69.5t100.5 160.5t32.5 173q0 112 -49.5 208 t-130 158.5t-181 97.5t-205.5 35q-148 0 -287.5 -63t-241 -168t-163 -248t-61.5 -295q0 -263 162 -418t424 -155q110 0 235 40t219 103l64 -123q-94 -75 -247 -122.5t-283 -47.5q-207 0 -372.5 89t-261 252.5t-95.5 373.5q0 149 46 290.5t131 256t197 201t252 134t289 47.5 q108 0 213.5 -28.5t195.5 -83t158.5 -128.5t108 -171.5t39.5 -205.5q0 -115 -35 -225t-97.5 -197.5t-159 -141t-210.5 -53.5zM975 833q-86 0 -154.5 -75.5t-68.5 -162.5q0 -55 32.5 -93t86.5 -38q86 0 154.5 81t68.5 169q0 54 -32.5 86.5t-86.5 32.5z" />
<glyph unicode="A" horiz-adv-x="1634" d="M1525 0h-340l-50 344h-688l-205 -344h-357l983 1604h410zM1092 648l-84 631l-381 -631h465z" />
<glyph unicode="B" horiz-adv-x="1548" d="M987 1301h-259l-94 -349h285q59 0 108 9t94.5 29.5t71.5 61.5t26 99q0 43 -20.5 73.5t-55.5 46.5t-73 23t-83 7zM866 667h-307l-97 -363h334q78 0 142.5 19t110.5 67.5t46 121.5q0 44 -20 75.5t-54.5 48t-72.5 24t-82 7.5zM742 0h-690l428 1604h531q80 0 154 -11.5 t146 -40.5t125.5 -72.5t86 -112.5t32.5 -156q0 -156 -94 -261t-250 -136v-1q220 -97 220 -323q0 -107 -42.5 -193t-110.5 -140.5t-160 -90.5t-185 -51t-191 -15z" />
<glyph unicode="C" horiz-adv-x="1775" d="M899 -24q-213 0 -380 87t-261.5 248.5t-94.5 373.5q0 200 79 377t210 300.5t305 195t361 71.5q138 0 253.5 -34t193.5 -88t135.5 -126.5t88 -145.5t42.5 -149l-322 -103q-7 41 -21 79t-46 86t-76.5 82t-119 58t-168.5 24q-150 0 -281 -79.5t-210 -218t-79 -301.5 q0 -202 110 -311.5t321 -109.5q68 0 127.5 13.5t103 33.5t82.5 51.5t63.5 59t48.5 65.5t35.5 61.5t25.5 55.5l309 -120q-28 -73 -71.5 -142.5t-116 -142.5t-161.5 -127.5t-215.5 -89t-270.5 -34.5z" />
<glyph unicode="D" horiz-adv-x="1706" d="M590 0h-538l428 1604h412q204 0 358.5 -48.5t251.5 -138t145 -212t48 -275.5q0 -82 -16 -166t-54 -176.5t-95 -176t-146.5 -159.5t-200 -131.5t-263.5 -88t-330 -32.5zM871 1294h-138l-262 -983h162q208 0 370 72.5t255 210.5t93 320q0 187 -127 283.5t-353 96.5z" />
<glyph unicode="E" horiz-adv-x="1361" d="M1186 307l-82 -307h-1052l429 1604h1045l-82 -307h-712l-89 -334h637l-82 -306h-637l-94 -350h719z" />
<glyph unicode="F" horiz-adv-x="1340" d="M1534 1604l-84 -313h-717l-93 -346h641l-83 -313h-641l-169 -632h-336l428 1604h1054z" />
<glyph unicode="G" horiz-adv-x="1803" d="M890 -24q-175 0 -315.5 57t-229.5 155.5t-136 226t-47 272.5q0 179 71.5 349.5t195 301.5t304.5 211t386 80q131 0 243 -32t188 -82.5t133 -116.5t87 -131t41 -129l-321 -97q-9 38 -23.5 71t-46 72t-74 67t-111 46.5t-154.5 18.5q-116 0 -222.5 -49.5t-184 -131.5 t-123.5 -195t-46 -235q0 -87 25 -161t75 -132.5t133.5 -91.5t191.5 -33q159 0 279 74.5t166 200.5h-488l71 298h843q-11 -146 -50.5 -275t-113.5 -241.5t-177.5 -193.5t-249 -127.5t-320.5 -46.5z" />
<glyph unicode="H" horiz-adv-x="1718" d="M1386 0h-336l174 651h-662l-174 -651h-336l428 1604h336l-170 -635h662l170 635h336z" />
<glyph unicode="I" horiz-adv-x="722" d="M390 0h-338l428 1604h338z" />
<glyph unicode="J" horiz-adv-x="1287" d="M494 -21q-119 0 -221 52t-164.5 149t-62.5 216q0 138 48 302l331 11q-54 -193 -54 -251q0 -73 40.5 -119t115.5 -46q87 0 149.5 54.5t85.5 140.5l299 1116h336l-309 -1156q-125 -469 -594 -469z" />
<glyph unicode="K" horiz-adv-x="1508" d="M1384 0h-381l-407 779l-208 -779h-336l428 1604h336l-180 -674l698 674h443l-841 -799z" />
<glyph unicode="L" horiz-adv-x="1232" d="M1151 311l-84 -311h-1015l428 1604h335l-345 -1293h681z" />
<glyph unicode="M" horiz-adv-x="2168" d="M1836 0h-331l293 1102h-4l-737 -1102h-217l-161 1100h-3l-294 -1100h-330l428 1604h429l164 -1067l705 1067h487z" />
<glyph unicode="N" horiz-adv-x="1787" d="M1456 0h-369l-403 1119l-299 -1119h-333l428 1604h382l394 -1102l294 1102h332z" />
<glyph unicode="O" horiz-adv-x="1863" d="M505 705q0 -188 114 -300.5t310 -112.5q121 0 229.5 52.5t184 138t119.5 195t44 222.5q0 189 -112.5 300.5t-312.5 111.5q-125 0 -234.5 -53.5t-183 -140t-116 -195t-42.5 -218.5zM1120 1629q162 0 299 -54.5t231 -149t146.5 -224.5t52.5 -280q0 -145 -45 -285 t-130.5 -258.5t-201 -209t-266.5 -141.5t-316 -51q-154 0 -288 51.5t-231 143t-153 224.5t-56 289q0 186 74 359t200 302t305 206.5t379 77.5z" />
<glyph unicode="P" horiz-adv-x="1446" d="M814 568h-274l-151 -568h-337l428 1604h472q250 0 394 -91q187 -119 187 -364q0 -181 -96 -314.5t-257.5 -200t-365.5 -66.5zM953 1293h-219l-113 -422h228q155 0 247 65t92 182q0 81 -62 128q-59 47 -173 47z" />
<glyph unicode="Q" horiz-adv-x="1867" d="M1849 921q0 -188 -74.5 -363.5t-210.5 -308.5l118 -170l-266 -176l-111 165q-195 -92 -415 -92q-154 0 -288 51.5t-231 143t-153 224.5t-56 289q0 186 74 359t200 302t305 206.5t379 77.5q162 0 299 -54.5t231 -149t146.5 -224.5t52.5 -280zM1506 900q0 189 -112.5 300.5 t-312.5 111.5q-125 0 -234.5 -53.5t-183 -140t-116 -195t-42.5 -218.5q0 -188 114 -300.5t310 -112.5q105 0 198 38l-212 304l268 179l194 -290q129 170 129 377z" />
<glyph unicode="R" horiz-adv-x="1524" d="M966 1293h-238l-110 -415h252q95 0 171.5 24t127 79.5t50.5 136.5q0 175 -253 175zM1102 620l216 -620h-357l-190 576h-234l-154 -576h-331l428 1604h495q180 0 300 -43q146 -53 218 -158.5t72 -250.5q0 -205 -119.5 -337.5t-343.5 -194.5z" />
<glyph unicode="S" horiz-adv-x="1433" d="M1466 1144l-311 -52q0 113 -76.5 177t-202.5 64q-95 0 -171.5 -51.5t-76.5 -143.5q0 -31 14 -55.5t41 -43t49.5 -29.5t55.5 -23l153 -60q79 -31 145 -70t123.5 -92t90 -123t32.5 -150q0 -131 -52 -232t-141 -161.5t-200 -91t-237 -30.5q-96 0 -186.5 20.5t-171 63.5 t-140.5 104.5t-94 149.5t-33 192v17l314 56v-11q-1 -136 93 -222.5t232 -86.5q44 0 88.5 10t87 30t69 57t26.5 84q0 62 -40.5 103.5t-121.5 74.5l-147 58q-391 155 -391 436q0 97 34 181t92.5 144.5t136 104t165 65t179.5 21.5q118 0 221 -31.5t181.5 -90.5t124 -152.5 t45.5 -210.5z" />
<glyph unicode="T" horiz-adv-x="1374" d="M1536 1287h-479l-343 -1287h-336l343 1287h-478l85 317h1293z" />
<glyph unicode="U" horiz-adv-x="1629" d="M739 -21q-88 0 -167 16.5t-150.5 54.5t-123.5 95t-82.5 142.5t-30.5 191.5q0 107 36 237l237 888h337l-246 -921q-23 -88 -23 -160q0 -108 68.5 -170t177.5 -62q143 0 240.5 99.5t138.5 255.5l257 958h334l-269 -1003q-30 -110 -68.5 -198.5t-99.5 -169.5t-138.5 -135.5 t-186 -86.5t-241.5 -32z" />
<glyph unicode="V" horiz-adv-x="1614" d="M1876 1603l-1002 -1603h-384l-208 1603h345l136 -1204l737 1204h376z" />
<glyph unicode="W" horiz-adv-x="2465" d="M1443 0l-54 1124h-3l-624 -1124h-363l-89 1604h344l35 -1141l628 1141h353l59 -1148l611 1148h363l-891 -1604h-369z" />
<glyph unicode="X" horiz-adv-x="1543" d="M1408 0h-379l-234 565l-513 -565h-415l792 836l-351 768h374l222 -517l465 517h435l-765 -799z" />
<glyph unicode="Y" horiz-adv-x="1543" d="M1803 1604l-845 -989l-166 -615h-337l170 634l-311 970h371l179 -662l543 662h396z" />
<glyph unicode="Z" horiz-adv-x="1398" d="M465 305h788l-81 -305h-1227l77 292l1040 1008h-737l80 304h1170l-77 -286z" />
<glyph unicode="[" horiz-adv-x="922" d="M641 -258h-663l543 2033h663l-67 -249h-389l-409 -1535h388z" />
<glyph unicode="\" horiz-adv-x="1130" d="M657 -10l-299 1679h273l299 -1679h-273z" />
<glyph unicode="]" horiz-adv-x="922" d="M525 -258h-663l67 249h389l410 1535h-389l66 249h663z" />
<glyph unicode="^" horiz-adv-x="1338" d="M1368 923h-302l-150 425l-372 -425h-346l643 681h244z" />
<glyph unicode="_" horiz-adv-x="1133" d="M887 -391h-1133l70 259h1133z" />
<glyph unicode="`" horiz-adv-x="605" d="M510 1275l-223 384h352l114 -384h-243z" />
<glyph unicode="a" horiz-adv-x="1409" d="M507 -21q-132 0 -230 66.5t-145.5 171t-47.5 230.5q0 139 50 264t134 213t195.5 139t230.5 51q237 0 348 -184l43 163h321l-235 -894q-22 -80 -27 -161q-2 -9 0 -38h-322v36q3 45 10 80l-4 1q-82 -69 -155.5 -103.5t-165.5 -34.5zM416 477q0 -99 64.5 -154.5t165.5 -55.5 q133 0 227.5 107t94.5 242q0 98 -68.5 155.5t-168.5 57.5q-89 0 -162.5 -52t-113 -132.5t-39.5 -167.5z" />
<glyph unicode="b" horiz-adv-x="1407" d="M12 0l439 1668h324l-181 -684l4 -2q72 61 146 96.5t166 35.5q133 0 231 -66t145.5 -170.5t47.5 -231.5q0 -138 -51 -262.5t-135 -212.5t-196.5 -140t-232.5 -52q-234 0 -347 183h-3l-42 -162h-315zM450 480q0 -99 67.5 -156t165.5 -57q125 0 221.5 101.5t96.5 250.5 q0 98 -62 154t-168 56q-87 0 -162 -51t-117 -131.5t-42 -166.5z" />
<glyph unicode="c" horiz-adv-x="1287" d="M626 -24q-154 0 -274.5 58.5t-192 174.5t-71.5 273q0 128 52.5 245.5t139.5 203t206.5 136t248.5 50.5q217 0 356 -109t164 -270l-294 -84q-13 69 -78.5 120.5t-159.5 51.5q-131 0 -223.5 -97.5t-92.5 -236.5q0 -101 61 -163t168 -62q98 0 172 50.5t105 116.5l277 -105 q-65 -156 -217 -254.5t-347 -98.5z" />
<glyph unicode="d" horiz-adv-x="1411" d="M1559 1668l-387 -1468q-23 -89 -26 -162q-2 -14 -1 -38h-320q-2 23 0 36q1 37 10 82l-4 2q-77 -68 -152.5 -104.5t-169.5 -36.5q-100 0 -181.5 38.5t-134 103.5t-80.5 149t-28 177q0 139 50.5 264t134 213t195.5 139t231 51q233 0 346 -180l193 734h324zM418 477 q0 -100 64.5 -155t165.5 -55q133 0 227.5 107t94.5 242q0 98 -68.5 155.5t-168.5 57.5q-89 0 -162.5 -52t-113 -132.5t-39.5 -167.5z" />
<glyph unicode="e" horiz-adv-x="1292" d="M395 458q0 -102 74 -158.5t170 -56.5q91 0 157.5 42.5t100.5 109.5l251 -116q-84 -151 -220.5 -227t-307.5 -76q-231 0 -382 141t-151 363q0 131 53 250t140 203t201.5 134t234.5 50q144 0 258.5 -55t181.5 -162t67 -250q0 -92 -33 -192h-795zM432 669h482q1 8 1 23 q0 84 -60 126.5t-149 42.5t-168.5 -54t-105.5 -138z" />
<glyph unicode="f" horiz-adv-x="888" d="M771 1219l-35 -126h271l-72 -271h-269l-216 -822h-324l217 822h-219l72 271h218l47 163q21 73 45.5 129t64.5 112.5t91.5 93.5t127 60t169.5 23q141 0 209 -40l-68 -260q-48 21 -102 21q-180 0 -227 -176z" />
<glyph unicode="g" horiz-adv-x="1413" d="M805 29l29 112q-130 -119 -318 -119q-123 0 -221.5 61.5t-152 164.5t-53.5 225q0 134 51.5 255t135 204t190.5 131.5t216 48.5q123 0 212.5 -40.5t158.5 -137.5l42 159h318l-282 -1067q-26 -98 -61 -179t-90.5 -156t-125 -126t-167.5 -81.5t-216 -30.5q-137 0 -246.5 40 t-175.5 106t-100.5 145t-34.5 164l300 59q0 -96 66 -167t192 -71q118 0 206 76t127 224zM638 299q124 0 218.5 96t94.5 231q0 91 -61.5 147.5t-157.5 56.5q-129 0 -221.5 -97.5t-92.5 -231.5q0 -92 59.5 -147t160.5 -55z" />
<glyph unicode="h" horiz-adv-x="1305" d="M593 983h1q63 59 143 95.5t162 36.5q147 0 234 -89t87 -234q0 -68 -37 -213l-153 -579h-323l156 590q14 54 14 97q0 65 -40 98.5t-110 33.5q-94 0 -151.5 -61t-82.5 -154l-157 -604h-324l438 1668h324z" />
<glyph unicode="i" horiz-adv-x="625" d="M625 1093l-289 -1093h-325l289 1093h325zM587 1674q76 0 126 -47t51 -123q0 -96 -67 -162t-162 -66q-76 0 -126 47.5t-50 123.5q-1 94 66.5 160.5t161.5 66.5z" />
<glyph unicode="j" horiz-adv-x="641" d="M-2 -114l318 1207h324l-338 -1287q-45 -172 -157.5 -259t-277.5 -87q-68 0 -128.5 13t-91.5 34l66 253q52 -22 107 -22q138 0 178 148zM605 1674q75 0 125.5 -47.5t50.5 -122.5q0 -95 -67.5 -161.5t-162.5 -66.5q-76 0 -126 47.5t-50 123.5q0 94 67.5 160.5t162.5 66.5z " />
<glyph unicode="k" horiz-adv-x="1266" d="M1128 0h-372l-279 525h-3l-138 -525h-324l440 1670h323l-262 -999h3l452 422h441l-604 -533z" />
<glyph unicode="l" horiz-adv-x="625" d="M336 0h-324l439 1668h324z" />
<glyph unicode="m" horiz-adv-x="1980" d="M1407 819q-170 0 -227 -215l-159 -604h-322l155 589q14 54 14 97q0 133 -142 133q-93 0 -149.5 -59.5t-81.5 -155.5l-159 -604h-323l287 1093h315l-28 -116l3 -1q71 69 151.5 104t152.5 35q95 0 171 -44t106 -129q82 76 188 124.5t219 48.5q150 0 234 -90t84 -233 q0 -75 -38 -212l-151 -580h-324l156 590q14 51 14 97q0 67 -39.5 99.5t-106.5 32.5z" />
<glyph unicode="n" horiz-adv-x="1306" d="M1031 0h-324l157 590q14 54 14 97q0 66 -41 99t-109 33q-92 0 -150 -59.5t-84 -155.5l-158 -604h-323l286 1093h315l-28 -116l3 -1q63 60 145 99.5t165 39.5q144 0 233 -87t89 -236q0 -73 -37 -213z" />
<glyph unicode="o" horiz-adv-x="1346" d="M734 1117q237 0 386 -137t149 -370q0 -130 -52.5 -248t-140 -202.5t-206.5 -134t-247 -49.5q-112 0 -210 35t-170.5 99t-114 160.5t-41.5 212.5q0 165 84.5 310.5t234.5 234.5t328 89zM634 267q130 0 223 99.5t93 235.5q0 101 -64 162.5t-165 61.5q-135 0 -225.5 -100.5 t-90.5 -233.5q0 -98 59.5 -161.5t169.5 -63.5z" />
<glyph unicode="p" horiz-adv-x="1408" d="M-130 -540l430 1633h315l-30 -115l4 -1q77 64 153 100.5t169 36.5q133 0 231 -66t145 -170.5t48 -231.5q0 -139 -50.5 -264t-135 -213t-197 -139t-232.5 -51q-226 0 -341 174h-3l-182 -693h-324zM451 480q0 -99 67.5 -156t165.5 -57q125 0 221.5 101.5t96.5 250.5 q0 98 -62 154t-168 56q-87 0 -162 -51t-117 -131.5t-42 -166.5z" />
<glyph unicode="q" horiz-adv-x="1409" d="M978 -540h-323l171 652l-2 1q-76 -65 -149.5 -99.5t-165.5 -34.5q-100 0 -181.5 38.5t-134 103.5t-80.5 149t-28 177q0 139 50.5 264t134 213t195.5 139t231 51q238 0 352 -188l44 167h316zM418 477q0 -100 64.5 -155t165.5 -55q133 0 227.5 107t94.5 242 q0 98 -68.5 155.5t-168.5 57.5q-89 0 -162.5 -52t-113 -132.5t-39.5 -167.5z" />
<glyph unicode="r" horiz-adv-x="872" d="M975 1094l-84 -319q-52 14 -98 14q-118 0 -210 -80.5t-131 -229.5l-126 -479h-314l288 1093h303l-42 -159h3q129 171 328 171q44 0 83 -11z" />
<glyph unicode="s" horiz-adv-x="1068" d="M474 225q55 0 96.5 27t41.5 72q0 58 -74 88l-121 47q-242 93 -242 285q0 107 62.5 194.5t162.5 134.5t213 47q77 0 152.5 -24.5t136 -68t98 -111.5t37.5 -147l-285 -31q0 61 -43 99t-100 38q-50 0 -88.5 -26t-38.5 -68q0 -58 69 -84l112 -44q59 -23 102.5 -47t83.5 -59.5 t61 -83.5t21 -108q0 -115 -67 -203t-172 -132t-226 -44q-90 0 -170 23t-143.5 66.5t-101 113t-37.5 155.5v9l285 45q-2 -76 49.5 -119.5t125.5 -43.5z" />
<glyph unicode="t" horiz-adv-x="928" d="M647 817l-108 -407q-7 -28 -7 -49q0 -103 132 -103q60 0 107 13l-68 -256q-69 -30 -171 -30q-154 0 -244 69t-90 218q0 72 20 144l106 401h-210l73 276h214l91 343h318l-90 -343h266l-76 -276h-263z" />
<glyph unicode="u" d="M417 -22q-140 0 -231 88t-91 235q0 68 38 214l153 578h323l-156 -589q-14 -48 -14 -97q0 -67 41 -100t109 -33q92 0 150 60t83 156l159 603h322l-233 -893q-23 -89 -27 -162v-38h-323v36q4 50 11 82h-4q-62 -60 -144.5 -100t-165.5 -40z" />
<glyph unicode="v" horiz-adv-x="1262" d="M1386 1093l-732 -1093h-325l-153 1093h326l79 -719l455 719h350z" />
<glyph unicode="w" horiz-adv-x="1827" d="M1201 1093l25 -679l383 679h334l-632 -1093h-317l-37 694l-408 -694h-313l-51 1093h320l19 -673l381 673h296z" />
<glyph unicode="x" horiz-adv-x="1188" d="M1303 1093l-524 -550l251 -543h-360l-122 308l-275 -308h-383l538 564l-256 529h363l119 -300l265 300h384z" />
<glyph unicode="y" horiz-adv-x="1256" d="M1381 1093l-1063 -1632h-350l358 553l-147 1079h322l79 -717l442 717h359z" />
<glyph unicode="z" horiz-adv-x="1105" d="M875 0h-925l66 250l644 571h-478l72 272h902l-65 -245l-653 -575h509z" />
<glyph unicode="{" horiz-adv-x="919" d="M638 -258h-136q-59 0 -111 8.5t-99.5 29.5t-81.5 53t-54.5 81.5t-20.5 112.5q0 97 48 218l74 191q22 55 22 94q0 25 -9 43.5t-27.5 29.5t-35.5 17.5t-45.5 9t-43 3t-41.5 0.5l66 251q50 0 86 4t72 16t60 33t41.5 57t24.5 87l34 238q19 131 62 219.5t115.5 140.5t166 74 t224.5 22h146l-66 -249h-111q-55 0 -96.5 -9t-70.5 -30t-48.5 -45t-32.5 -64.5t-20.5 -76t-15.5 -91.5l-29 -201q-17 -118 -87.5 -176.5t-196.5 -76.5l-1 -1q167 -38 167 -192q0 -57 -25 -123l-57 -148q-54 -140 -54 -198q0 -34 15 -56t42.5 -31.5t52 -12.5t59.5 -3h104z " />
<glyph unicode="|" horiz-adv-x="650" d="M259 -238h-275l551 2063h275z" />
<glyph unicode="}" horiz-adv-x="918" d="M404 1775h136q59 0 111 -8.5t99.5 -29.5t81.5 -53t54.5 -81.5t20.5 -112.5q0 -99 -48 -218l-74 -191q-21 -57 -21 -94q0 -22 8 -39t18 -27.5t30 -18t33.5 -11t39.5 -5.5t36.5 -2h35.5l-66 -251q-50 0 -86 -4t-72 -16t-60 -33t-41.5 -57t-24.5 -87l-34 -239 q-19 -131 -62 -219t-115.5 -140t-166 -74t-224.5 -22h-146l66 249h111q66 0 113 15t75.5 38.5t48 67.5t28.5 85t19 109l29 201q17 119 87.5 177.5t196.5 75.5l1 2q-167 38 -167 191q0 60 26 124l56 148q54 140 54 198q0 34 -14.5 56t-42.5 31.5t-52.5 12.5t-58.5 3h-105z " />
<glyph unicode="~" horiz-adv-x="1315" d="M888 392q-48 0 -98.5 17.5t-92.5 42t-82 49t-80 42t-72 17.5q-46 0 -83 -29t-76 -79l-173 168q139 225 341 225q65 0 133 -26t114 -57.5t96 -57.5t83 -26q46 0 83 29.5t75 78.5l173 -168q-137 -226 -341 -226z" />
<glyph unicode="&#xa1;" horiz-adv-x="667" d="M407 720q-76 0 -126 47t-50 123q-1 95 66 161t163 66q75 0 125.5 -47.5t50.5 -122.5q0 -94 -67 -160.5t-162 -66.5zM487 537l-249 -1049h-358l311 1049h296z" />
<glyph unicode="&#xa2;" horiz-adv-x="1337" d="M546 285l143 540q-115 -19 -192 -113.5t-77 -219.5q0 -73 33 -127.5t93 -79.5zM628 -24l-49 -185h-167l55 207q-166 45 -265 170.5t-99 313.5q0 171 88 318t237.5 232.5t321.5 84.5h12l49 187h166l-54 -208q146 -39 236.5 -136t109.5 -221l-292 -83q-9 47 -44.5 88.5 t-89.5 64.5l-142 -540q80 13 140.5 60.5t86.5 102.5l277 -104q-66 -156 -218.5 -254.5t-346.5 -97.5h-12z" />
<glyph unicode="&#xa3;" horiz-adv-x="1462" d="M412 665h-243l66 261h156q-8 59 -8 110q0 264 163 422t442 158q226 0 352 -136t103 -351l-328 -33q8 86 -33.5 150t-132.5 64q-112 0 -166 -71.5t-54 -190.5q0 -52 10 -122h395l-66 -261h-313q-26 -241 -228 -351h293q197 0 227 187l312 -52q-29 -203 -165 -326 t-364 -123h-841l79 301q149 34 240 131t104 233z" />
<glyph unicode="&#xa4;" horiz-adv-x="1554" d="M1014 130q-111 -56 -230 -56q-118 0 -229 56l-178 -179l-195 196l173 172q-62 108 -62 235q0 123 60 236l-171 175l195 194l178 -180q111 56 229 56q126 0 228 -56l177 178l195 -193l-171 -174q63 -107 63 -236q0 -121 -62 -237l172 -172l-195 -196zM782 756 q-89 0 -147 -57t-58 -146t58 -145.5t147 -56.5t147.5 56.5t58.5 145.5t-58.5 146t-147.5 57z" />
<glyph unicode="&#xa5;" horiz-adv-x="1601" d="M1165 848h348l-56 -211h-468l-42 -156h468l-56 -211h-469l-73 -270h-333l72 270h-467l57 211h466l42 156h-467l57 211h358l-241 756h371l158 -668l524 668h396z" />
<glyph unicode="&#xa6;" horiz-adv-x="644" d="M807 1825l-214 -799h-275l214 799h275zM-19 -238l213 800h275l-213 -800h-275z" />
<glyph unicode="&#xa7;" horiz-adv-x="1410" d="M841 319q0 38 -42 63t-149 55l-127 36q-355 100 -355 312q0 113 82 192.5t245 113.5q-95 88 -95 194q0 152 143.5 248.5t365.5 96.5q202 0 345 -91t198 -232l-235 -111q-33 77 -117.5 132t-206.5 55q-76 0 -124 -26.5t-48 -71.5q0 -37 40.5 -62t140.5 -53l127 -36 q80 -23 141.5 -49.5t114.5 -64t81 -88.5t28 -113q0 -113 -81.5 -191t-246.5 -112q96 -82 96 -197q0 -152 -143.5 -248t-366.5 -96q-234 0 -384.5 101t-188.5 247l241 104q10 -25 24 -48.5t42.5 -53.5t64.5 -52t93.5 -37t125.5 -15q76 0 123.5 26.5t47.5 71.5zM641 957 q-63 0 -111 -34.5t-48 -86.5q0 -46 43.5 -75t139.5 -58l62 -19q125 -37 194 -37q63 0 111 34.5t48 86.5q0 46 -43.5 75t-137.5 57l-63 19q-130 38 -195 38z" />
<glyph unicode="&#xa8;" horiz-adv-x="875" d="M459 1593q65 0 105.5 -40t40.5 -102q0 -75 -55 -131.5t-137 -56.5q-63 0 -104.5 39t-41.5 102q0 76 56 132.5t136 56.5zM921 1593q65 0 105.5 -40t40.5 -102q0 -75 -55 -131.5t-137 -56.5q-63 0 -104.5 39t-41.5 102q0 76 56 132.5t136 56.5z" />
<glyph unicode="&#xa9;" horiz-adv-x="1881" d="M1009 -20q-165 0 -316 65t-260.5 175t-174.5 262t-65 320q0 167 66 320.5t177 264t263 176t317 65.5q166 0 317.5 -64.5t262 -174t176.5 -262t66 -319.5t-67 -320.5t-179 -264.5t-265 -177t-318 -66zM1014 1494q-181 0 -337 -92.5t-248 -252t-92 -345.5q0 -139 54.5 -267 t145.5 -220.5t216 -147.5t261 -55t261.5 55t217 147.5t146.5 220.5t55 267q0 140 -55 268t-146.5 220t-217 147t-261.5 55zM1506 630q-29 -107 -105.5 -184t-173.5 -112.5t-204 -35.5q-228 0 -375 143t-147 360q0 214 152.5 361t374.5 147q106 0 202 -35.5t171 -112 t98 -182.5l-257 -78q-18 61 -75.5 104.5t-141.5 43.5q-98 0 -165 -66.5t-67 -178.5q0 -107 64.5 -176t167.5 -69q87 0 143.5 43.5t79.5 106.5z" />
<glyph unicode="&#xaa;" horiz-adv-x="1136" d="M609 780q-137 0 -215.5 95t-78.5 230q0 195 126.5 329t297.5 134q165 0 241 -127l30 113h223l-163 -621q-16 -61 -19 -112v-26h-223q-2 15 0 25q0 24 7 55l-4 1q-57 -48 -107.5 -72t-114.5 -24zM546 1126q0 -69 44.5 -107.5t115.5 -38.5q92 0 157.5 74.5t65.5 167.5 q0 68 -47.5 108t-117.5 40q-93 0 -155.5 -75t-62.5 -169zM177 607h814l-52 -199h-815z" />
<glyph unicode="&#xab;" horiz-adv-x="1379" d="M426 589l229 -289l-192 -154l-375 472l580 471l149 -183zM984 589l229 -289l-192 -154l-374 472l579 471l149 -183z" />
<glyph unicode="&#xac;" horiz-adv-x="1466" d="M1084 856h-905l78 289h1226l-177 -664h-322z" />
<glyph unicode="&#xad;" horiz-adv-x="947" d="M805 507h-676l85 316h676z" />
<glyph unicode="&#xae;" horiz-adv-x="1370" d="M826 494q-153 0 -282 75.5t-204 204.5t-75 282t75 282.5t204 205t282 75.5t282.5 -75.5t205 -205t75.5 -282.5t-75.5 -282t-205 -204.5t-282.5 -75.5zM826 1517q-124 0 -228.5 -61.5t-165.5 -167.5t-61 -232q0 -191 133.5 -325.5t321.5 -134.5q124 0 229 61.5 t166.5 167.5t61.5 231q0 126 -61.5 232t-166.5 167.5t-229 61.5zM958 735l-118 231h-97v-231h-133v644h254q99 0 163.5 -53t64.5 -151q0 -135 -121 -184l133 -256h-146zM957 1172q0 43 -29.5 61.5t-73.5 18.5h-111v-160h112q42 0 72 19.5t30 60.5z" />
<glyph unicode="&#xb0;" horiz-adv-x="948" d="M619 844q-152 0 -250 96.5t-98 248.5q0 177 123 303t300 126q152 0 251 -97t99 -248q0 -178 -124 -303.5t-301 -125.5zM635 1063q77 0 131.5 59.5t54.5 136.5q0 60 -41 99.5t-101 39.5q-77 0 -130.5 -57.5t-53.5 -135.5q0 -62 39 -102t101 -40z" />
<glyph unicode="&#xb1;" horiz-adv-x="1350" d="M890 771l-91 -343h-290l92 343h-405l79 294h404l91 339h289l-90 -339h394l-79 -294h-394zM76 284h1068l-75 -284h-1068z" />
<glyph unicode="&#xb2;" horiz-adv-x="970" d="M218 872l15 65q30 130 122.5 231t219.5 151l151 59q63 25 101.5 59t38.5 88q0 39 -27.5 60.5t-77.5 21.5q-70 0 -111 -54t-41 -109l-233 31q24 160 137 254.5t278 94.5q141 0 231 -80t90 -197q0 -59 -18.5 -110.5t-47.5 -87.5t-72 -67.5t-82 -51.5t-88 -40l-138 -55 q-70 -28 -84 -50h412l-57 -213h-719z" />
<glyph unicode="&#xb3;" horiz-adv-x="934" d="M594 853q-95 0 -170 33t-120 103t-43 168l234 29q-6 -121 121 -121q57 0 96.5 30.5t39.5 87.5q0 39 -29 61t-69 22q-36 0 -79 -13l-66 164l270 175h-399l56 209h704l-53 -203l-276 -185q95 -27 141 -90t46 -132q0 -153 -118.5 -245.5t-285.5 -92.5z" />
<glyph unicode="&#xb4;" horiz-adv-x="641" d="M212 1275l331 385h390l-439 -385h-282z" />
<glyph unicode="&#xb5;" horiz-adv-x="1368" d="M465 -17q-29 0 -64.5 11t-47.5 23l-92 -353h-315l376 1429h324l-157 -589q-13 -50 -13 -97q0 -67 41 -100t109 -33q92 0 149.5 59.5t83.5 156.5l158 603h323l-233 -893q-26 -99 -27 -162q-2 -14 -1 -38h-322q-2 23 0 36q0 30 10 82h-3q-62 -59 -140.5 -97t-158.5 -38z " />
<glyph unicode="&#xb6;" horiz-adv-x="1182" d="M245 1115q0 97 35 181.5t107 155t197 111.5t289 41h386l-428 -1604h-328l197 738q-221 5 -338 100.5t-117 276.5z" />
<glyph unicode="&#xb7;" horiz-adv-x="661" d="M338 424q-87 0 -143.5 55.5t-56.5 142.5q0 102 70.5 174t172.5 72q87 0 144 -55.5t57 -142.5q0 -102 -71.5 -174t-172.5 -72z" />
<glyph unicode="&#xb9;" horiz-adv-x="766" d="M711 872h-275l171 651l-214 -107l-89 178l412 207h240z" />
<glyph unicode="&#xba;" horiz-adv-x="1104" d="M767 1571q165 0 268 -95.5t103 -257.5q0 -120 -61.5 -222t-164.5 -160t-222 -58q-161 0 -266.5 95.5t-105.5 256.5q0 176 131 308.5t318 132.5zM698 980q90 0 154.5 69t64.5 163q0 71 -44.5 114t-114.5 43q-94 0 -156.5 -70.5t-62.5 -162.5q0 -68 41 -112t118 -44z M175 607h807l-52 -199h-807z" />
<glyph unicode="&#xbb;" horiz-adv-x="1381" d="M445 645l-229 290l192 154l375 -472l-580 -471l-149 183zM1003 645l-229 290l192 154l375 -472l-580 -471l-148 183z" />
<glyph unicode="&#xbc;" horiz-adv-x="2209" d="M944 1604l-245 -930h-275l171 652l-215 -107l-88 178l412 207h240zM2024 169h-150l-44 -169h-242l44 169h-469l70 267l537 493h305l-145 -548h150zM1688 381l80 300l-329 -300h249zM1684 1604h295l-1390 -1604h-297z" />
<glyph unicode="&#xbd;" horiz-adv-x="2214" d="M1962 0h-719l14 65q30 130 123 231t220 151l151 60q140 54 140 146q0 39 -27.5 60.5t-77.5 21.5q-70 0 -111 -54t-41 -109l-233 32q24 160 137 254t278 94q141 0 231 -80t90 -197q0 -74 -26.5 -133.5t-74.5 -102t-96 -69.5t-111 -52l-138 -54q-72 -32 -84 -51h412z M943 1604l-244 -930l-275 1l171 651l-215 -107l-88 178l412 207h239zM1686 1604h295l-1390 -1604h-297z" />
<glyph unicode="&#xbe;" horiz-adv-x="2262" d="M533 655q-147 0 -241.5 79.5t-90.5 225.5l233 28q-3 -58 26 -89t95 -31q57 0 97 30.5t40 87.5q0 38 -29.5 60t-69.5 22t-79 -13l-66 164l270 176h-398l55 209h704l-53 -203l-276 -186q95 -26 141 -89t46 -132q0 -153 -118 -246t-286 -93zM2093 169h-150l-44 -169h-242 l44 169h-469l70 267l537 493h305l-145 -548h150zM1757 381l80 300l-329 -300h249zM1790 1604h295l-1390 -1604h-297z" />
<glyph unicode="&#xbf;" horiz-adv-x="1216" d="M603 720q-75 0 -125.5 47.5t-50.5 122.5q0 95 67 161t162 66q75 0 125.5 -47.5t50.5 -122.5q0 -94 -67 -160.5t-162 -66.5zM738 551q0 -35 -4 -62q-10 -62 -41 -116.5t-73 -95.5t-90.5 -78.5t-95 -71.5t-84.5 -69t-61.5 -77t-23.5 -89q0 -66 49 -99.5t119 -33.5 q102 0 174 79t72 194l314 -27q0 -119 -49.5 -221.5t-132.5 -172t-193 -108.5t-230 -39q-87 0 -168 24.5t-147 70.5t-106 121.5t-40 168.5q0 78 22.5 144.5t60.5 114.5t84.5 90t98 81.5t97 77.5t85.5 88.5t60 105.5h303z" />
<glyph unicode="&#xc0;" horiz-adv-x="1634" d="M1107 2135l114 -384h-243l-223 384h352zM1278 1604h-410l-983 -1604h357l205 344h688l50 -344h340zM627 648l381 631l84 -631h-465z" />
<glyph unicode="&#xc1;" horiz-adv-x="1634" d="M967 1751l331 385h390l-439 -385h-282zM1135 344h-688l-205 -344h-357l983 1604h410l247 -1604h-340zM627 648h465l-84 631z" />
<glyph unicode="&#xc2;" horiz-adv-x="1634" d="M1333 2105l155 -357h-260l-75 187l-175 -187h-284l341 357h298zM1135 344h-688l-205 -344h-357l983 1604h410l247 -1604h-340zM627 648h465l-84 631z" />
<glyph unicode="&#xc3;" horiz-adv-x="1634" d="M1263 1748q-46 0 -88 15t-67 33.5t-57 33.5t-60 15q-59 0 -89 -95h-199l12 51q29 121 101.5 193t190.5 72q55 0 104 -24t89.5 -47.5t73.5 -23.5q22 0 39 7.5t28.5 24.5t16.5 27.5t13 31.5h192l-13 -52q-65 -262 -287 -262zM1135 344h-688l-205 -344h-357l983 1604h410 l247 -1604h-340zM627 648h465l-84 631z" />
<glyph unicode="&#xc4;" horiz-adv-x="1634" d="M902 2062q65 0 105.5 -40t40.5 -101q0 -76 -54.5 -132t-137.5 -56q-63 0 -104 38.5t-41 101.5q0 77 55 133t136 56zM1384 2062q65 0 105.5 -40t40.5 -101q0 -76 -54.5 -132t-137.5 -56q-63 0 -104 38.5t-41 101.5q0 77 55 133t136 56zM1135 344h-688l-205 -344h-357 l983 1604h410l247 -1604h-340zM627 648h465l-84 631z" />
<glyph unicode="&#xc5;" horiz-adv-x="1634" d="M1525 0h-340l-50 344h-688l-205 -344h-357l946 1544q-30 58 -30 128q0 140 101.5 242.5t249.5 102.5q118 0 192 -73.5t74 -184.5q0 -76 -32.5 -145.5t-90.5 -118.5zM1130 1842q-59 0 -102 -46t-43 -105q0 -48 28 -75.5t76 -27.5q58 0 102 46t44 105q0 49 -28 76t-77 27z M1092 648l-84 631l-381 -631h465z" />
<glyph unicode="&#xc6;" horiz-adv-x="2195" d="M226 0h-386l1252 1604h1268l-82 -307h-706l-89 -333h631l-82 -307h-631l-93 -350h712l-82 -307h-1045l85 320h-508zM1221 1301l-515 -673h355l180 673h-20z" />
<glyph unicode="&#xc7;" horiz-adv-x="1775" d="M939 292q68 0 127.5 13.5t103 33.5t82.5 51.5t63.5 59t48.5 65.5t35.5 61.5t25.5 55.5l309 -120q-25 -66 -63.5 -129.5t-100.5 -131t-138 -121t-182 -93.5t-226 -54q21 -53 21 -119q0 -197 -118 -298t-320 -101q-92 0 -166 22l54 207q51 -9 94 -9q100 0 153 68.5 t53 176.5q0 22 -5 52q-282 33 -454.5 222.5t-172.5 480.5q0 200 79 377t210 300.5t305 195t361 71.5q138 0 253.5 -34t193.5 -88t135.5 -126.5t88 -145.5t42.5 -149l-322 -103q-7 41 -21 79t-46 86t-76.5 82t-119 58t-168.5 24q-150 0 -281 -79.5t-210 -218t-79 -301.5 q0 -202 110 -311.5t321 -109.5z" />
<glyph unicode="&#xc8;" horiz-adv-x="1361" d="M1039 2135l114 -384h-243l-223 384h352zM467 307l94 350h637l82 306h-637l89 334h712l82 307h-1045l-429 -1604h1052l82 307h-719z" />
<glyph unicode="&#xc9;" horiz-adv-x="1361" d="M882 1751l331 385h390l-439 -385h-282zM52 0l429 1604h1045l-82 -307h-712l-89 -334h637l-82 -306h-637l-94 -350h719l-82 -307h-1052z" />
<glyph unicode="&#xca;" horiz-adv-x="1361" d="M1261 2105l155 -357h-260l-75 187l-175 -187h-284l341 357h298zM52 0l429 1604h1045l-82 -307h-712l-89 -334h637l-82 -306h-637l-94 -350h719l-82 -307h-1052z" />
<glyph unicode="&#xcb;" horiz-adv-x="1361" d="M841 2052q65 0 105.5 -40t40.5 -101q0 -76 -54.5 -132t-137.5 -56q-63 0 -104.5 38.5t-41.5 101.5q0 77 55.5 133t136.5 56zM1323 2052q65 0 105.5 -40t40.5 -101q0 -76 -54.5 -132t-137.5 -56q-63 0 -104.5 38.5t-41.5 101.5q0 77 55.5 133t136.5 56zM52 0l429 1604 h1045l-82 -307h-712l-89 -334h637l-82 -306h-637l-94 -350h719l-82 -307h-1052z" />
<glyph unicode="&#xcc;" horiz-adv-x="722" d="M696 2135l114 -384h-243l-223 384h352zM818 1604h-338l-428 -1604h338z" />
<glyph unicode="&#xcd;" horiz-adv-x="722" d="M547 1751l331 385h390l-439 -385h-282zM480 1604h338l-428 -1604h-338z" />
<glyph unicode="&#xce;" horiz-adv-x="722" d="M903 2105l155 -357h-260l-75 187l-175 -187h-284l341 357h298zM480 1604h338l-428 -1604h-338z" />
<glyph unicode="&#xcf;" horiz-adv-x="722" d="M502 2062q65 0 105.5 -40t40.5 -101q0 -76 -54.5 -132t-137.5 -56q-63 0 -104 38.5t-41 101.5q0 77 55 133t136 56zM955 2062q65 0 105.5 -40t40.5 -101q0 -76 -54.5 -132t-137.5 -56q-63 0 -104 38.5t-41 101.5q0 77 55 133t136 56zM480 1604h338l-428 -1604h-338z" />
<glyph unicode="&#xd0;" horiz-adv-x="1771" d="M117 0l175 657h-196l81 304h196l172 643h412q204 0 358.5 -48.5t251.5 -138t145 -212t48 -275.5q0 -82 -16 -166t-54 -176.5t-95 -176t-146.5 -159.5t-200 -131.5t-263.5 -88t-330 -32.5h-538zM798 1294l-89 -333h346l-81 -304h-346l-92 -346h162q208 0 370 72.5 t255 210.5t93 320q0 187 -127 283.5t-353 96.5h-138z" />
<glyph unicode="&#xd1;" horiz-adv-x="1787" d="M1373 1748q-46 0 -88 15t-67 33.5t-57 33.5t-60 15q-59 0 -89 -95h-199l12 51q29 121 101.5 193t190.5 72q55 0 104 -24t89.5 -47.5t73.5 -23.5q22 0 39 7.5t28.5 24.5t16.5 27.5t13 31.5h192l-13 -52q-30 -121 -100.5 -191.5t-186.5 -70.5zM684 1119l-299 -1119h-333 l428 1604h382l394 -1102l294 1102h332l-426 -1604h-369z" />
<glyph unicode="&#xd2;" horiz-adv-x="1863" d="M1131 2135l114 -384h-243l-223 384h352zM1120 1629q-200 0 -379 -77.5t-305 -206.5t-200 -302t-74 -359q0 -156 56 -289t153 -224.5t231 -143t288 -51.5q165 0 316 51t266.5 141.5t201 209t130.5 258.5t45 285q0 150 -52.5 280t-146.5 224.5t-231 149t-299 54.5zM505 705 q0 110 42.5 218.5t116 195t183 140t234.5 53.5q200 0 312.5 -111.5t112.5 -300.5q0 -113 -44 -222.5t-119.5 -195t-184 -138t-229.5 -52.5q-196 0 -310 112.5t-114 300.5z" />
<glyph unicode="&#xd3;" horiz-adv-x="1863" d="M989 1751l331 385h390l-439 -385h-282zM1120 1629q162 0 299 -54.5t231 -149t146.5 -224.5t52.5 -280q0 -145 -45 -285t-130.5 -258.5t-201 -209t-266.5 -141.5t-316 -51q-154 0 -288 51.5t-231 143t-153 224.5t-56 289q0 186 74 359t200 302t305 206.5t379 77.5z M505 705q0 -188 114 -300.5t310 -112.5q121 0 229.5 52.5t184 138t119.5 195t44 222.5q0 189 -112.5 300.5t-312.5 111.5q-125 0 -234.5 -53.5t-183 -140t-116 -195t-42.5 -218.5z" />
<glyph unicode="&#xd4;" horiz-adv-x="1863" d="M1385 2105l155 -357h-260l-75 187l-175 -187h-284l341 357h298zM1120 1629q162 0 299 -54.5t231 -149t146.5 -224.5t52.5 -280q0 -145 -45 -285t-130.5 -258.5t-201 -209t-266.5 -141.5t-316 -51q-154 0 -288 51.5t-231 143t-153 224.5t-56 289q0 186 74 359t200 302 t305 206.5t379 77.5zM505 705q0 -188 114 -300.5t310 -112.5q121 0 229.5 52.5t184 138t119.5 195t44 222.5q0 189 -112.5 300.5t-312.5 111.5q-125 0 -234.5 -53.5t-183 -140t-116 -195t-42.5 -218.5z" />
<glyph unicode="&#xd5;" horiz-adv-x="1863" d="M1319 1748q-46 0 -88 15t-67 33.5t-57 33.5t-60 15q-59 0 -89 -95h-199l12 51q29 121 101.5 193t190.5 72q55 0 104 -24t89.5 -47.5t73.5 -23.5q22 0 39 7.5t28.5 24.5t16.5 27.5t13 31.5h192l-13 -52q-65 -262 -287 -262zM1120 1629q162 0 299 -54.5t231 -149 t146.5 -224.5t52.5 -280q0 -145 -45 -285t-130.5 -258.5t-201 -209t-266.5 -141.5t-316 -51q-154 0 -288 51.5t-231 143t-153 224.5t-56 289q0 186 74 359t200 302t305 206.5t379 77.5zM505 705q0 -188 114 -300.5t310 -112.5q121 0 229.5 52.5t184 138t119.5 195t44 222.5 q0 189 -112.5 300.5t-312.5 111.5q-125 0 -234.5 -53.5t-183 -140t-116 -195t-42.5 -218.5z" />
<glyph unicode="&#xd6;" horiz-adv-x="1863" d="M979 2062q65 0 105.5 -40t40.5 -101q0 -76 -54.5 -132t-137.5 -56q-63 0 -104 38.5t-41 101.5q0 77 55 133t136 56zM1461 2062q65 0 105.5 -40t40.5 -101q0 -76 -54.5 -132t-137.5 -56q-63 0 -104 38.5t-41 101.5q0 77 55.5 133t135.5 56zM1120 1629q162 0 299 -54.5 t231 -149t146.5 -224.5t52.5 -280q0 -145 -45 -285t-130.5 -258.5t-201 -209t-266.5 -141.5t-316 -51q-154 0 -288 51.5t-231 143t-153 224.5t-56 289q0 186 74 359t200 302t305 206.5t379 77.5zM505 705q0 -188 114 -300.5t310 -112.5q121 0 229.5 52.5t184 138t119.5 195 t44 222.5q0 189 -112.5 300.5t-312.5 111.5q-125 0 -234.5 -53.5t-183 -140t-116 -195t-42.5 -218.5z" />
<glyph unicode="&#xd7;" horiz-adv-x="1361" d="M708 551l-474 -376l-165 209l482 381l-279 379l226 165l273 -370l479 379l165 -210l-486 -384l276 -374l-226 -167z" />
<glyph unicode="&#xd8;" horiz-adv-x="1862" d="M1732 1322q117 -176 117 -401q0 -145 -45 -285t-130.5 -258.5t-201 -209t-266.5 -141.5t-316 -51q-262 0 -455 143l-181 -173l-156 163l181 173q-117 176 -117 402q0 186 74 359t200 302t305 206.5t379 77.5q265 0 458 -144l182 178l157 -163zM1083 1322q-126 0 -238 -55 t-187 -143t-118 -198.5t-43 -222.5q0 -51 12 -105t28 -83l787 746q-37 28 -103 44.5t-138 16.5zM926 282q122 0 233 54t188 141t122 199t45 226q0 117 -39 187l-785 -745q31 -26 99 -44t137 -18z" />
<glyph unicode="&#xd9;" horiz-adv-x="1629" d="M1126 2135l114 -384h-243l-223 384h352zM739 -21q133 0 241.5 32t186 86.5t138.5 135.5t99.5 169.5t68.5 198.5l269 1003h-334l-257 -958q-42 -156 -139 -255.5t-240 -99.5q-109 0 -177.5 62t-68.5 170q0 72 23 160l246 921h-337l-237 -888q-36 -137 -36 -237 q0 -106 30.5 -191.5t82.5 -142.5t123.5 -95t150.5 -54.5t167 -16.5z" />
<glyph unicode="&#xda;" horiz-adv-x="1629" d="M966 1751l331 385h390l-439 -385h-282zM739 -21q-88 0 -167 16.5t-150.5 54.5t-123.5 95t-82.5 142.5t-30.5 191.5q0 100 36 237l237 888h337l-246 -921q-23 -88 -23 -160q0 -108 68.5 -170t177.5 -62q143 0 240 99.5t139 255.5l257 958h334l-269 -1003 q-30 -110 -68.5 -198.5t-99.5 -169.5t-138.5 -135.5t-186 -86.5t-241.5 -32z" />
<glyph unicode="&#xdb;" horiz-adv-x="1629" d="M1351 2105l155 -357h-260l-75 187l-175 -187h-284l341 357h298zM739 -21q-88 0 -167 16.5t-150.5 54.5t-123.5 95t-82.5 142.5t-30.5 191.5q0 100 36 237l237 888h337l-246 -921q-23 -88 -23 -160q0 -108 68.5 -170t177.5 -62q143 0 240 99.5t139 255.5l257 958h334 l-269 -1003q-30 -110 -68.5 -198.5t-99.5 -169.5t-138.5 -135.5t-186 -86.5t-241.5 -32z" />
<glyph unicode="&#xdc;" horiz-adv-x="1629" d="M937 2062q65 0 105.5 -40t40.5 -101q0 -76 -54.5 -132t-137.5 -56q-63 0 -104.5 38.5t-41.5 101.5q0 77 55.5 133t136.5 56zM1419 2062q65 0 105.5 -40t40.5 -101q0 -76 -54.5 -132t-137.5 -56q-63 0 -104.5 38.5t-41.5 101.5q0 77 55.5 133t136.5 56zM739 -21 q-88 0 -167 16.5t-150.5 54.5t-123.5 95t-82.5 142.5t-30.5 191.5q0 100 36 237l237 888h337l-246 -921q-23 -88 -23 -160q0 -108 68.5 -170t177.5 -62q143 0 240 99.5t139 255.5l257 958h334l-269 -1003q-30 -110 -68.5 -198.5t-99.5 -169.5t-138.5 -135.5t-186 -86.5 t-241.5 -32z" />
<glyph unicode="&#xdd;" horiz-adv-x="1543" d="M920 1751l331 385h390l-439 -385h-282zM792 0h-337l170 634l-311 970h371l179 -662l543 662h396l-845 -989z" />
<glyph unicode="&#xde;" horiz-adv-x="1438" d="M879 1331q252 0 394 -90q187 -119 187 -364q0 -137 -55.5 -248t-153 -183.5t-228 -111t-282.5 -38.5h-274l-79 -296h-336l428 1604h337l-73 -273h135zM548 599h228q155 0 246.5 64.5t91.5 181.5q0 81 -61 129q-60 47 -173 47h-219z" />
<glyph unicode="&#xdf;" horiz-adv-x="1436" d="M1423 1267q0 -262 -274 -409l-66 -36q-40 -21 -55 -36t-15 -36q0 -20 11.5 -34t46.5 -38l47 -33q19 -13 38.5 -28t52 -47t56 -64.5t41.5 -78t18 -90.5q0 -83 -36.5 -152.5t-98 -114.5t-139.5 -69.5t-162 -24.5q-88 0 -157.5 23t-112 59.5t-68 84.5t-33 95.5t-0.5 94.5 l261 18q-1 -15 1.5 -31t10.5 -34t20.5 -31.5t35 -22.5t50.5 -9q47 0 80 27.5t33 68.5t-21.5 67t-77.5 60l-92 58q-53 33 -88.5 90.5t-35.5 123.5q0 103 56.5 182t151.5 122l42 18q83 37 116.5 85.5t33.5 109.5q0 73 -53 111.5t-121 38.5q-220 0 -296 -287l-288 -1098h-324 l301 1144q71 267 222.5 398t411.5 131q128 0 236.5 -51t174 -145t65.5 -210z" />
<glyph unicode="&#xe0;" horiz-adv-x="1410" d="M781 1659l114 -384h-243l-223 384h352zM507 -21q92 0 165.5 34.5t155.5 103.5l4 -1q-7 -35 -10 -80v-36h322q-2 28 0 38q0 57 27 161l235 894h-321l-43 -163q-111 184 -348 184q-119 0 -230.5 -51t-195.5 -139t-134 -213t-50 -264q0 -126 47.5 -230.5t145.5 -171 t230 -66.5zM416 477q0 87 39.5 167.5t113 132.5t162.5 52q100 0 168.5 -57.5t68.5 -155.5q0 -135 -94.5 -242t-227.5 -107q-101 0 -165.5 55.5t-64.5 154.5z" />
<glyph unicode="&#xe1;" horiz-adv-x="1410" d="M627 1275l331 385h390l-439 -385h-282zM507 -21q-132 0 -230 66.5t-145.5 171t-47.5 230.5q0 139 50 264t134 213t195.5 139t230.5 51q237 0 348 -184l43 163h321l-235 -894q-27 -104 -27 -161q-2 -9 0 -38h-322v36q3 45 10 80l-4 1q-82 -69 -155.5 -103.5t-165.5 -34.5z M416 477q0 -99 64.5 -154.5t165.5 -55.5q133 0 227.5 107t94.5 242q0 98 -68.5 155.5t-168.5 57.5q-89 0 -162.5 -52t-113 -132.5t-39.5 -167.5z" />
<glyph unicode="&#xe2;" horiz-adv-x="1410" d="M1082 1635l155 -357h-260l-75 187l-175 -187h-284l341 357h298zM507 -21q-132 0 -230 66.5t-145.5 171t-47.5 230.5q0 139 50 264t134 213t195.5 139t230.5 51q237 0 348 -184l43 163h321l-235 -894q-27 -104 -27 -161q-2 -9 0 -38h-322v36q3 45 10 80l-4 1 q-82 -69 -155.5 -103.5t-165.5 -34.5zM416 477q0 -99 64.5 -154.5t165.5 -55.5q133 0 227.5 107t94.5 242q0 98 -68.5 155.5t-168.5 57.5q-89 0 -162.5 -52t-113 -132.5t-39.5 -167.5z" />
<glyph unicode="&#xe3;" horiz-adv-x="1410" d="M1006 1278q-46 0 -88 15t-67 33.5t-57 33.5t-60 15q-59 0 -89 -95h-199l12 51q29 121 101.5 193t190.5 72q55 0 104 -24t89.5 -47.5t73.5 -23.5q22 0 39 7.5t28.5 24.5t16.5 27.5t13 31.5h192l-13 -52q-65 -262 -287 -262zM507 -21q-132 0 -230 66.5t-145.5 171 t-47.5 230.5q0 139 50 264t134 213t195.5 139t230.5 51q237 0 348 -184l43 163h321l-235 -894q-27 -104 -27 -161q-2 -9 0 -38h-322v36q3 45 10 80l-4 1q-82 -69 -155.5 -103.5t-165.5 -34.5zM416 477q0 -99 64.5 -154.5t165.5 -55.5q133 0 227.5 107t94.5 242 q0 98 -68.5 155.5t-168.5 57.5q-89 0 -162.5 -52t-113 -132.5t-39.5 -167.5z" />
<glyph unicode="&#xe4;" horiz-adv-x="1410" d="M665 1593q65 0 105.5 -40t40.5 -102q0 -75 -55 -131.5t-137 -56.5q-63 0 -104.5 39t-41.5 102q0 76 56 132.5t136 56.5zM1127 1593q65 0 105.5 -40t40.5 -102q0 -75 -55 -131.5t-137 -56.5q-63 0 -104.5 39t-41.5 102q0 76 56 132.5t136 56.5zM507 -21q-132 0 -230 66.5 t-145.5 171t-47.5 230.5q0 139 50 264t134 213t195.5 139t230.5 51q237 0 348 -184l43 163h321l-235 -894q-27 -104 -27 -161q-2 -9 0 -38h-322v36q3 45 10 80l-4 1q-82 -69 -155.5 -103.5t-165.5 -34.5zM416 477q0 -99 64.5 -154.5t165.5 -55.5q133 0 227.5 107t94.5 242 q0 98 -68.5 155.5t-168.5 57.5q-89 0 -162.5 -52t-113 -132.5t-39.5 -167.5z" />
<glyph unicode="&#xe5;" horiz-adv-x="1412" d="M1180 1579q0 -139 -100 -242.5t-251 -103.5q-115 0 -191 72t-76 187q0 140 101.5 243t249.5 103q119 0 193 -73.5t74 -185.5zM996 1560q0 48 -28 75t-76 27q-59 0 -102.5 -46t-43.5 -105q0 -48 28 -75.5t76 -27.5q59 0 102.5 46.5t43.5 105.5zM509 -21 q-100 0 -181.5 38.5t-134 103.5t-80.5 149t-28 177q0 139 50.5 264t134 213t195.5 139t231 51q237 0 348 -184l43 163h321l-235 -894q-27 -104 -27 -161q-2 -9 0 -38h-322q-2 23 0 36q0 28 10 80l-5 1q-81 -68 -154.5 -103t-165.5 -35zM418 477q0 -100 64.5 -155t165.5 -55 q133 0 227.5 107t94.5 242q0 98 -68.5 155.5t-168.5 57.5q-89 0 -162.5 -52t-113 -132.5t-39.5 -167.5z" />
<glyph unicode="&#xe6;" horiz-adv-x="1959" d="M458 212q104 0 183 62.5t101 161.5l4 19l-190 -12q-50 -3 -93 -14.5t-78 -42t-35 -75.5q0 -44 32 -71.5t76 -27.5zM1857 458h-795q0 -102 74 -158.5t170 -56.5q90 0 157 42.5t101 109.5l251 -116q-84 -151 -220.5 -227t-307.5 -76q-138 0 -247.5 54t-176.5 151 q-111 -108 -225 -155t-265 -47h-9q-149 0 -241 83.5t-92 204.5q0 73 26.5 132.5t70 99t102 68t118 42t123.5 17.5l231 14q120 7 120 108q0 50 -41.5 82.5t-116.5 32.5q-80 0 -146 -45.5t-88 -117.5l-265 80q18 61 61 119t109 108.5t164 81t212 30.5q223 0 332 -133 q160 131 340 131q144 0 258.5 -55t181.5 -162t67 -250q0 -92 -33 -192zM1099 669h485q0 3 0.5 11t0.5 11q0 85 -61.5 127.5t-150.5 42.5t-168.5 -54t-105.5 -138z" />
<glyph unicode="&#xe7;" horiz-adv-x="1287" d="M343 -535q-92 0 -166 22l54 207q51 -9 94 -9q100 0 153 68.5t53 176.5q0 23 -5 53q-197 28 -317.5 159t-120.5 340q0 128 52.5 245.5t139.5 203t206.5 136t248.5 50.5q217 0 356 -109t164 -270l-294 -84q-13 69 -78.5 120.5t-159.5 51.5q-131 0 -223.5 -97.5 t-92.5 -236.5q0 -101 61 -163t168 -62q98 0 172 50.5t105 116.5l277 -105q-53 -128 -167.5 -219t-264.5 -121q23 -53 23 -125q0 -197 -118 -298t-320 -101z" />
<glyph unicode="&#xe8;" horiz-adv-x="1292" d="M747 1659l114 -384h-243l-223 384h352zM1190 458q33 100 33 192q0 143 -67 250t-181.5 162t-258.5 55q-120 0 -234.5 -50t-201.5 -134t-140 -203t-53 -250q0 -222 151 -363t382 -141q171 0 307.5 76t220.5 227l-251 116q-34 -67 -100.5 -109.5t-157.5 -42.5 q-96 0 -170 56.5t-74 158.5h795zM432 669q26 84 105.5 138t168.5 54t149 -42.5t60 -126.5q0 -15 -1 -23h-482z" />
<glyph unicode="&#xe9;" horiz-adv-x="1292" d="M588 1275l331 385h390l-439 -385h-282zM1190 458q33 100 33 192q0 143 -67 250t-181.5 162t-258.5 55q-120 0 -234.5 -50t-201.5 -134t-140 -203t-53 -250q0 -222 151 -363t382 -141q171 0 307.5 76t220.5 227l-251 116q-34 -67 -100.5 -109.5t-157.5 -42.5 q-96 0 -170 56.5t-74 158.5h795zM432 669q26 84 105.5 138t168.5 54t149 -42.5t60 -126.5q0 -15 -1 -23h-482z" />
<glyph unicode="&#xea;" horiz-adv-x="1292" d="M985 1635l155 -357h-260l-75 187l-175 -187h-284l341 357h298zM1190 458q33 100 33 192q0 143 -67 250t-181.5 162t-258.5 55q-120 0 -234.5 -50t-201.5 -134t-140 -203t-53 -250q0 -222 151 -363t382 -141q171 0 307.5 76t220.5 227l-251 116q-34 -67 -100.5 -109.5 t-157.5 -42.5q-96 0 -170 56.5t-74 158.5h795zM432 669q26 84 105.5 138t168.5 54t149 -42.5t60 -126.5q0 -15 -1 -23h-482z" />
<glyph unicode="&#xeb;" horiz-adv-x="1292" d="M586 1593q65 0 105.5 -40t40.5 -102q0 -75 -55 -131.5t-137 -56.5q-63 0 -104.5 39t-41.5 102q0 76 56 132.5t136 56.5zM1048 1593q65 0 105.5 -40t40.5 -102q0 -75 -55 -131.5t-137 -56.5q-63 0 -104.5 39t-41.5 102q0 76 56 132.5t136 56.5zM1190 458q33 100 33 192 q0 143 -67 250t-181.5 162t-258.5 55q-120 0 -234.5 -50t-201.5 -134t-140 -203t-53 -250q0 -222 151 -363t382 -141q171 0 307.5 76t220.5 227l-251 116q-34 -67 -100.5 -109.5t-157.5 -42.5q-96 0 -170 56.5t-74 158.5h795zM432 669q26 84 105.5 138t168.5 54t149 -42.5 t60 -126.5q0 -15 -1 -23h-482z" />
<glyph unicode="&#xec;" horiz-adv-x="625" d="M511 1659l114 -384h-243l-223 384h352zM300 1093l-289 -1093h325l289 1093h-325z" />
<glyph unicode="&#xed;" horiz-adv-x="625" d="M361 1275l331 385h390l-439 -385h-282zM11 0l289 1093h325l-289 -1093h-325z" />
<glyph unicode="&#xee;" horiz-adv-x="625" d="M727 1635l155 -357h-260l-75 187l-175 -187h-284l341 357h298zM11 0l289 1093h325l-289 -1093h-325z" />
<glyph unicode="&#xef;" horiz-adv-x="625" d="M337 1593q65 0 105.5 -40t40.5 -102q0 -75 -55 -131.5t-137 -56.5q-63 0 -104.5 39t-41.5 102q0 76 56 132.5t136 56.5zM790 1593q65 0 105.5 -40t40.5 -102q0 -75 -55 -131.5t-137 -56.5q-62 0 -103.5 39t-41.5 102q0 76 55.5 132.5t135.5 56.5zM11 0l289 1093h325 l-289 -1093h-325z" />
<glyph unicode="&#xf0;" horiz-adv-x="1350" d="M651 1030q183 0 309 -107l4 4q-21 151 -160 292l-334 -148l-87 184l256 107q-99 63 -262 117l117 239q240 -81 417 -231l241 108l89 -186l-178 -77q215 -270 215 -631q0 -119 -26.5 -227t-81 -198.5t-131 -157t-182 -103.5t-229.5 -37q-152 0 -273.5 57.5t-195 172 t-73.5 267.5q0 115 45 218.5t121 177t180 116.5t219 43zM647 262q126 0 219 88.5t93 213.5q0 104 -71 162t-178 58q-124 0 -214.5 -89.5t-90.5 -213.5q0 -102 68.5 -160.5t173.5 -58.5z" />
<glyph unicode="&#xf1;" horiz-adv-x="1306" d="M1013 1278q-46 0 -88 15t-67 33.5t-57 33.5t-60 15q-59 0 -89 -95h-199l12 51q29 121 101.5 193t190.5 72q55 0 104 -24t89.5 -47.5t73.5 -23.5q22 0 39 7.5t28.5 24.5t16.5 27.5t13 31.5h192l-13 -52q-30 -121 -100.5 -191.5t-186.5 -70.5zM707 0h324l153 579 q37 140 37 213q0 149 -89 236t-233 87q-83 0 -165 -39.5t-145 -99.5l-3 1l28 116h-315l-286 -1093h323l158 604q26 96 84 155.5t150 59.5q68 0 109 -33t41 -99q0 -43 -14 -97z" />
<glyph unicode="&#xf2;" horiz-adv-x="1346" d="M774 1659l114 -384h-243l-223 384h352zM734 1117q-178 0 -328 -89t-234.5 -234.5t-84.5 -310.5q0 -116 41.5 -212.5t114 -160.5t170.5 -99t210 -35q128 0 247 49.5t206.5 134t140 202.5t52.5 248q0 233 -149 370t-386 137zM634 267q-110 0 -169.5 63.5t-59.5 161.5 q0 133 90.5 233.5t225.5 100.5q101 0 165 -61.5t64 -162.5q0 -136 -93 -235.5t-223 -99.5z" />
<glyph unicode="&#xf3;" horiz-adv-x="1346" d="M610 1275l331 385h390l-439 -385h-282zM734 1117q-178 0 -328 -89t-234.5 -234.5t-84.5 -310.5q0 -116 41.5 -212.5t114 -160.5t170.5 -99t210 -35q128 0 247 49.5t206.5 134t140 202.5t52.5 248q0 233 -149 370t-386 137zM634 267q-110 0 -169.5 63.5t-59.5 161.5 q0 133 90.5 233.5t225.5 100.5q101 0 165 -61.5t64 -162.5q0 -136 -93 -235.5t-223 -99.5z" />
<glyph unicode="&#xf4;" horiz-adv-x="1346" d="M1021 1635l155 -357h-260l-75 187l-175 -187h-284l341 357h298zM734 1117q-178 0 -328 -89t-234.5 -234.5t-84.5 -310.5q0 -116 41.5 -212.5t114 -160.5t170.5 -99t210 -35q128 0 247 49.5t206.5 134t140 202.5t52.5 248q0 233 -149 370t-386 137zM634 267 q-110 0 -169.5 63.5t-59.5 161.5q0 133 90.5 233.5t225.5 100.5q101 0 165 -61.5t64 -162.5q0 -136 -93 -235.5t-223 -99.5z" />
<glyph unicode="&#xf5;" horiz-adv-x="1346" d="M962 1278q-46 0 -88 15t-67 33.5t-57 33.5t-60 15q-59 0 -89 -95h-199l12 51q29 121 101.5 193t190.5 72q55 0 104 -24t89.5 -47.5t73.5 -23.5q22 0 39 7.5t28.5 24.5t16.5 27.5t13 31.5h192l-13 -52q-65 -262 -287 -262zM734 1117q-178 0 -328 -89t-234.5 -234.5 t-84.5 -310.5q0 -116 41.5 -212.5t114 -160.5t170.5 -99t210 -35q128 0 247 49.5t206.5 134t140 202.5t52.5 248q0 233 -149 370t-386 137zM634 267q-110 0 -169.5 63.5t-59.5 161.5q0 133 90.5 233.5t225.5 100.5q101 0 165 -61.5t64 -162.5q0 -136 -93 -235.5t-223 -99.5z " />
<glyph unicode="&#xf6;" horiz-adv-x="1346" d="M614 1593q65 0 105.5 -40t40.5 -102q0 -75 -55 -131.5t-137 -56.5q-63 0 -104.5 39t-41.5 102q0 76 56 132.5t136 56.5zM1076 1593q65 0 105.5 -40t40.5 -102q0 -75 -55 -131.5t-137 -56.5q-63 0 -104.5 39t-41.5 102q0 76 56 132.5t136 56.5zM734 1117q-178 0 -328 -89 t-234.5 -234.5t-84.5 -310.5q0 -116 41.5 -212.5t114 -160.5t170.5 -99t210 -35q128 0 247 49.5t206.5 134t140 202.5t52.5 248q0 233 -149 370t-386 137zM634 267q-110 0 -169.5 63.5t-59.5 161.5q0 133 90.5 233.5t225.5 100.5q101 0 165 -61.5t64 -162.5 q0 -136 -93 -235.5t-223 -99.5z" />
<glyph unicode="&#xf7;" horiz-adv-x="1206" d="M814 1408q70 0 113 -43t43 -108q0 -81 -58.5 -141.5t-146.5 -60.5q-67 0 -111 42t-44 109q0 82 59 142t145 60zM193 899h1019l-78 -295h-1019zM562 449q69 0 112.5 -43t43.5 -108q0 -81 -58.5 -141.5t-146.5 -60.5q-67 0 -111 42t-44 109q0 82 59 142t145 60z" />
<glyph unicode="&#xf8;" horiz-adv-x="1346" d="M1182 910q88 -126 88 -300t-89 -320.5t-237.5 -230t-319.5 -83.5q-191 0 -332 96l-148 -140l-111 117l143 137q-88 124 -88 297q0 123 50 239t135 203t206.5 139.5t255.5 52.5q193 0 331 -93l145 138l112 -117zM730 835q-97 0 -174 -50t-117.5 -128t-40.5 -167 q0 -48 12 -89l430 413q-48 21 -110 21zM628 258q139 0 235 102t96 243q0 50 -14 92l-430 -415q49 -22 113 -22z" />
<glyph unicode="&#xf9;" d="M851 1659l114 -384h-243l-223 384h352zM417 -22q-140 0 -231 88t-91 235q0 68 38 214l153 578h323l-156 -589q-14 -48 -14 -97q0 -67 41 -100t109 -33q92 0 150 60t83 156l159 603h322l-233 -893q-23 -89 -27 -162v-38h-323v36q4 50 11 82h-4q-62 -60 -144.5 -100 t-165.5 -40z" />
<glyph unicode="&#xfa;" d="M689 1275l331 385h390l-439 -385h-282zM417 -22q-140 0 -231 88t-91 235q0 68 38 214l153 578h323l-156 -589q-14 -48 -14 -97q0 -67 41 -100t109 -33q92 0 150 60t83 156l159 603h322l-233 -893q-23 -89 -27 -162v-38h-323v36q4 50 11 82h-4q-62 -60 -144.5 -100 t-165.5 -40z" />
<glyph unicode="&#xfb;" d="M1057 1635l155 -357h-260l-75 187l-175 -187h-284l341 357h298zM417 -22q-140 0 -231 88t-91 235q0 68 38 214l153 578h323l-156 -589q-14 -48 -14 -97q0 -67 41 -100t109 -33q92 0 150 60t83 156l159 603h322l-233 -893q-23 -89 -27 -162v-38h-323v36q4 50 11 82h-4 q-62 -60 -144.5 -100t-165.5 -40z" />
<glyph unicode="&#xfc;" d="M656 1593q65 0 105.5 -40t40.5 -102q0 -75 -55 -131.5t-137 -56.5q-63 0 -104.5 39t-41.5 102q0 76 56 132.5t136 56.5zM1118 1593q65 0 105.5 -40t40.5 -102q0 -75 -55 -131.5t-137 -56.5q-63 0 -104.5 39t-41.5 102q0 76 56 132.5t136 56.5zM417 -22q-140 0 -231 88 t-91 235q0 68 38 214l153 578h323l-156 -589q-14 -48 -14 -97q0 -67 41 -100t109 -33q92 0 150 60t83 156l159 603h322l-233 -893q-23 -89 -27 -162v-38h-323v36q4 50 11 82h-4q-62 -60 -144.5 -100t-165.5 -40z" />
<glyph unicode="&#xfd;" horiz-adv-x="1256" d="M694 1275l331 385h390l-439 -385h-282zM-32 -539l358 553l-147 1079h322l79 -717l442 717h359l-1063 -1632h-350z" />
<glyph unicode="&#xfe;" horiz-adv-x="1408" d="M774 1668l-180 -683l3 -1q73 61 147.5 95.5t166.5 34.5q133 0 231 -66t145 -170.5t48 -231.5q0 -139 -50.5 -264t-135 -213t-197 -139t-232.5 -51q-226 0 -341 174h-3l-182 -693h-324l581 2208h323zM451 480q0 -99 67.5 -156t165.5 -57q60 0 117.5 26.5t102 72.5 t71.5 112.5t27 140.5q0 98 -62 154t-168 56q-87 0 -162 -51t-117 -131.5t-42 -166.5z" />
<glyph unicode="&#xff;" horiz-adv-x="1256" d="M664 1593q65 0 105.5 -40t40.5 -102q0 -75 -55 -131.5t-137 -56.5q-63 0 -104.5 39t-41.5 102q0 76 56 132.5t136 56.5zM1126 1593q65 0 105.5 -40t40.5 -102q0 -75 -55 -131.5t-137 -56.5q-63 0 -104.5 39t-41.5 102q0 76 56 132.5t136 56.5zM-32 -539l358 553 l-147 1079h322l79 -717l442 717h359l-1063 -1632h-350z" />
<glyph unicode="&#x100;" horiz-adv-x="1634" d="M782 2016h746l-64 -239h-746zM1135 344h-688l-205 -344h-357l983 1604h410l247 -1604h-340zM627 648h465l-84 631z" />
<glyph unicode="&#x101;" horiz-adv-x="1410" d="M527 1526h746l-64 -239h-746zM507 -21q-132 0 -230 66.5t-145.5 171t-47.5 230.5q0 139 50 264t134 213t195.5 139t230.5 51q237 0 348 -184l43 163h321l-235 -894q-27 -104 -27 -161q-2 -9 0 -38h-322v36q3 45 10 80l-4 1q-82 -69 -155.5 -103.5t-165.5 -34.5zM416 477 q0 -99 64.5 -154.5t165.5 -55.5q133 0 227.5 107t94.5 242q0 98 -68.5 155.5t-168.5 57.5q-89 0 -162.5 -52t-113 -132.5t-39.5 -167.5z" />
<glyph unicode="&#x102;" horiz-adv-x="1634" d="M1126 1759q-151 0 -250.5 94.5t-99.5 243.5v28h235q-1 -65 33.5 -106.5t98.5 -41.5t110 41.5t67 106.5h242q-42 -161 -158.5 -263.5t-277.5 -102.5zM1135 344h-688l-205 -344h-357l983 1604h410l247 -1604h-340zM627 648h465l-84 631z" />
<glyph unicode="&#x103;" horiz-adv-x="1410" d="M837 1269q-151 0 -250.5 94.5t-99.5 243.5v28h235q-1 -65 33.5 -106.5t98.5 -41.5t110 41.5t67 106.5h242q-42 -161 -158.5 -263.5t-277.5 -102.5zM507 -21q-132 0 -230 66.5t-145.5 171t-47.5 230.5q0 139 50 264t134 213t195.5 139t230.5 51q237 0 348 -184l43 163h321 l-235 -894q-27 -104 -27 -161q-2 -9 0 -38h-322q-2 23 0 36q0 28 10 80l-4 1q-82 -69 -155.5 -103.5t-165.5 -34.5zM416 477q0 -99 64.5 -154.5t165.5 -55.5q133 0 227.5 107t94.5 242q0 98 -68.5 155.5t-168.5 57.5q-89 0 -162.5 -52t-113 -132.5t-39.5 -167.5z" />
<glyph unicode="&#x104;" horiz-adv-x="1634" d="M1368 -534q-53 -10 -125 -10q-50 0 -96.5 12t-87 36.5t-65 67.5t-24.5 99q0 43 20 85.5t46 74t70 67t73 55t75 47.5h-69l-50 344h-688l-205 -344h-357l983 1604h410l247 -1604q-37 -18 -76.5 -42t-85 -57.5t-74.5 -72.5t-29 -73q0 -47 42 -72t92 -25q9 0 25 2zM627 648 h465l-84 631z" />
<glyph unicode="&#x105;" horiz-adv-x="1412" d="M989 -534q-52 -10 -126 -10q-49 0 -95.5 12t-87.5 36.5t-65.5 67.5t-24.5 99q0 43 20 85.5t46 74t70 67t73 55t75 47.5h-50q-2 23 0 36q0 28 10 80l-5 1q-81 -68 -154.5 -103t-165.5 -35q-100 0 -181.5 38.5t-134 103.5t-80.5 149t-28 177q0 139 50.5 264t134 213 t195.5 139t231 51q237 0 348 -184l43 163h321l-235 -894q-27 -104 -27 -161q-2 -9 0 -38q-37 -18 -76.5 -42t-85 -57.5t-74.5 -72.5t-29 -73q0 -47 41.5 -72t92.5 -25q8 0 24 2zM418 477q0 -100 64.5 -155t165.5 -55q133 0 227.5 107t94.5 242q0 98 -68.5 155.5t-168.5 57.5 q-89 0 -162.5 -52t-113 -132.5t-39.5 -167.5z" />
<glyph unicode="&#x106;" horiz-adv-x="1775" d="M999 1751l331 385h390l-439 -385h-282zM899 -24q-213 0 -380 87t-261.5 248.5t-94.5 373.5q0 200 79 377t210 300.5t305 195t361 71.5q138 0 253.5 -34t193.5 -88t135.5 -126.5t88 -145.5t42.5 -149l-322 -103q-7 41 -21 79t-46 86t-76.5 82t-119 58t-168.5 24 q-150 0 -281 -79.5t-210 -218t-79 -301.5q0 -202 110 -311.5t321 -109.5q68 0 127.5 13.5t103 33.5t82.5 51.5t63.5 59t48.5 65.5t35.5 61.5t25.5 55.5l309 -120q-28 -73 -71.5 -142.5t-116 -142.5t-161.5 -127.5t-215.5 -89t-270.5 -34.5z" />
<glyph unicode="&#x107;" horiz-adv-x="1287" d="M583 1275l331 385h390l-439 -385h-282zM626 -24q-154 0 -274.5 58.5t-192 174.5t-71.5 273q0 128 52.5 245.5t139.5 203t206.5 136t248.5 50.5q217 0 356 -109t164 -270l-294 -84q-13 69 -78.5 120.5t-159.5 51.5q-131 0 -223.5 -97.5t-92.5 -236.5q0 -101 61 -163 t168 -62q98 0 172 50.5t105 116.5l277 -105q-65 -156 -217 -254.5t-347 -98.5z" />
<glyph unicode="&#x108;" horiz-adv-x="1775" d="M1390 2105l155 -357h-260l-75 187l-175 -187h-284l341 357h298zM899 -24q-213 0 -380 87t-261.5 248.5t-94.5 373.5q0 200 79 377t210 300.5t305 195t361 71.5q138 0 253.5 -34t193.5 -88t135.5 -126.5t88 -145.5t42.5 -149l-322 -103q-7 41 -21 79t-46 86t-76.5 82 t-119 58t-168.5 24q-150 0 -281 -79.5t-210 -218t-79 -301.5q0 -202 110 -311.5t321 -109.5q68 0 127.5 13.5t103 33.5t82.5 51.5t63.5 59t48.5 65.5t35.5 61.5t25.5 55.5l309 -120q-28 -73 -71.5 -142.5t-116 -142.5t-161.5 -127.5t-215.5 -89t-270.5 -34.5z" />
<glyph unicode="&#x109;" horiz-adv-x="1287" d="M1030 1635l155 -357h-260l-75 187l-175 -187h-284l341 357h298zM626 -24q-154 0 -274.5 58.5t-192 174.5t-71.5 273q0 128 52.5 245.5t139.5 203t206.5 136t248.5 50.5q217 0 356 -109t164 -270l-294 -84q-13 69 -78.5 120.5t-159.5 51.5q-131 0 -223.5 -97.5 t-92.5 -236.5q0 -101 61 -163t168 -62q98 0 172 50.5t105 116.5l277 -105q-65 -156 -217 -254.5t-347 -98.5z" />
<glyph unicode="&#x10a;" horiz-adv-x="1775" d="M1213 2126q77 0 124.5 -47.5t47.5 -120.5q0 -89 -64.5 -155.5t-161.5 -66.5q-75 0 -124 46t-49 120q0 91 66 157.5t161 66.5zM899 -24q-213 0 -380 87t-261.5 248.5t-94.5 373.5q0 200 79 377t210 300.5t305 195t361 71.5q138 0 253.5 -34t193.5 -88t135.5 -126.5 t88 -145.5t42.5 -149l-322 -103q-7 41 -21 79t-46 86t-76.5 82t-119 58t-168.5 24q-150 0 -281 -79.5t-210 -218t-79 -301.5q0 -202 110 -311.5t321 -109.5q68 0 127.5 13.5t103 33.5t82.5 51.5t63.5 59t48.5 65.5t35.5 61.5t25.5 55.5l309 -120q-28 -73 -71.5 -142.5 t-116 -142.5t-161.5 -127.5t-215.5 -89t-270.5 -34.5z" />
<glyph unicode="&#x10b;" horiz-adv-x="1287" d="M842 1654q77 0 124.5 -47.5t47.5 -119.5q0 -89 -64.5 -155.5t-162.5 -66.5q-75 0 -123.5 46t-48.5 120q0 90 66 156.5t161 66.5zM626 -24q-154 0 -274.5 58.5t-192 174.5t-71.5 273q0 128 52.5 245.5t139.5 203t206.5 136t248.5 50.5q217 0 356 -109t164 -270l-294 -84 q-13 69 -78.5 120.5t-159.5 51.5q-131 0 -223.5 -97.5t-92.5 -236.5q0 -101 61 -163t168 -62q98 0 172 50.5t105 116.5l277 -105q-65 -156 -217 -254.5t-347 -98.5z" />
<glyph unicode="&#x10c;" horiz-adv-x="1775" d="M1025 1748l-155 357h260l75 -187l175 187h284l-341 -357h-298zM899 -24q-213 0 -380 87t-261.5 248.5t-94.5 373.5q0 200 79 377t210 300.5t305 195t361 71.5q138 0 253.5 -34t193.5 -88t135.5 -126.5t88 -145.5t42.5 -149l-322 -103q-7 41 -21 79t-46 86t-76.5 82 t-119 58t-168.5 24q-150 0 -281 -79.5t-210 -218t-79 -301.5q0 -202 110 -311.5t321 -109.5q68 0 127.5 13.5t103 33.5t82.5 51.5t63.5 59t48.5 65.5t35.5 61.5t25.5 55.5l309 -120q-28 -73 -71.5 -142.5t-116 -142.5t-161.5 -127.5t-215.5 -89t-270.5 -34.5z" />
<glyph unicode="&#x10d;" horiz-adv-x="1287" d="M663 1278l-155 357h260l75 -187l175 187h284l-341 -357h-298zM626 -24q-154 0 -274.5 58.5t-192 174.5t-71.5 273q0 128 52.5 245.5t139.5 203t206.5 136t248.5 50.5q217 0 356 -109t164 -270l-294 -84q-13 69 -78.5 120.5t-159.5 51.5q-131 0 -223.5 -97.5t-92.5 -236.5 q0 -101 61 -163t168 -62q98 0 172 50.5t105 116.5l277 -105q-65 -156 -217 -254.5t-347 -98.5z" />
<glyph unicode="&#x10e;" horiz-adv-x="1706" d="M813 1748l-155 357h260l75 -187l175 187h284l-341 -357h-298zM52 0l428 1604h412q204 0 358.5 -48.5t251.5 -138t145 -212t48 -275.5q0 -82 -16 -166t-54 -176.5t-95 -176t-146.5 -159.5t-200 -131.5t-263.5 -88t-330 -32.5h-538zM733 1294l-262 -983h162q208 0 370 72.5 t255 210.5t93 320q0 187 -127 283.5t-353 96.5h-138z" />
<glyph unicode="&#x10f;" horiz-adv-x="1451" d="M1558 1190l158 479h334l-268 -479h-224zM1235 1668l-193 -734q-113 180 -346 180q-119 0 -231 -51t-195.5 -139t-134 -213t-50.5 -264q0 -93 28 -177t80.5 -149t134 -103.5t181.5 -38.5q94 0 169.5 36.5t152.5 104.5l4 -2q-10 -52 -10 -82q-2 -13 0 -36h320q-1 24 1 38 q1 67 26 162l387 1468h-324zM418 477q0 87 39.5 167.5t113 132.5t162.5 52q100 0 168.5 -57.5t68.5 -155.5q0 -135 -94.5 -242t-227.5 -107q-101 0 -165.5 55t-64.5 155z" />
<glyph unicode="&#x110;" horiz-adv-x="1771" d="M117 0l175 657h-196l81 304h196l172 643h412q204 0 358.5 -48.5t251.5 -138t145 -212t48 -275.5q0 -82 -16 -166t-54 -176.5t-95 -176t-146.5 -159.5t-200 -131.5t-263.5 -88t-330 -32.5h-538zM798 1294l-89 -333h346l-81 -304h-346l-92 -346h162q208 0 370 72.5 t255 210.5t93 320q0 187 -127 283.5t-353 96.5h-138z" />
<glyph unicode="&#x111;" horiz-adv-x="1410" d="M1591 1270h-137l-282 -1070q-25 -95 -26 -162q-2 -14 -1 -38h-320q-2 23 0 36q0 30 10 82l-4 2q-77 -68 -152.5 -104.5t-169.5 -36.5q-100 0 -181.5 38.5t-134 103.5t-80.5 149t-28 177q0 139 50.5 264t134 213t195.5 139t231 51q233 0 346 -180l88 336h-320l57 215h320 l48 183h324l-48 -183h136zM648 267q133 0 227.5 107t94.5 242q0 98 -68.5 155.5t-168.5 57.5q-89 0 -162.5 -52t-113 -132.5t-39.5 -167.5q0 -100 64.5 -155t165.5 -55z" />
<glyph unicode="&#x112;" horiz-adv-x="1361" d="M709 2016h746l-64 -239h-746zM52 0l429 1604h1045l-82 -307h-712l-89 -334h637l-82 -306h-637l-94 -350h719l-82 -307h-1052z" />
<glyph unicode="&#x113;" horiz-adv-x="1292" d="M458 1526h746l-64 -239h-746zM1190 458q33 100 33 192q0 143 -67 250t-181.5 162t-258.5 55q-120 0 -234.5 -50t-201.5 -134t-140 -203t-53 -250q0 -222 151 -363t382 -141q171 0 307.5 76t220.5 227l-251 116q-34 -67 -100.5 -109.5t-157.5 -42.5q-96 0 -170 56.5 t-74 158.5h795zM432 669q26 84 105.5 138t168.5 54t149 -42.5t60 -126.5q0 -15 -1 -23h-482z" />
<glyph unicode="&#x116;" horiz-adv-x="1361" d="M1089 2126q77 0 125 -47.5t48 -120.5q0 -89 -65 -155.5t-162 -66.5q-75 0 -123.5 46t-48.5 120q0 91 65.5 157.5t160.5 66.5zM52 0l429 1604h1045l-82 -307h-712l-89 -334h637l-82 -306h-637l-94 -350h719l-82 -307h-1052z" />
<glyph unicode="&#x117;" horiz-adv-x="1292" d="M817 1654q77 0 125 -47.5t48 -119.5q0 -89 -65 -155.5t-162 -66.5q-75 0 -124 46t-49 120q0 90 66 156.5t161 66.5zM1190 458q33 100 33 192q0 143 -67 250t-181.5 162t-258.5 55q-120 0 -234.5 -50t-201.5 -134t-140 -203t-53 -250q0 -222 151 -363t382 -141 q171 0 307.5 76t220.5 227l-251 116q-34 -67 -100.5 -109.5t-157.5 -42.5q-96 0 -170 56.5t-74 158.5h795zM432 669q26 84 105.5 138t168.5 54t149 -42.5t60 -126.5q0 -15 -1 -23h-482z" />
<glyph unicode="&#x118;" horiz-adv-x="1361" d="M947 -534q-52 -10 -126 -10q-49 0 -95.5 12t-87 36.5t-65 67.5t-24.5 99q0 43 20 85.5t46 74t70 67t73 55t75 47.5h-781l429 1604h1045l-82 -307h-712l-89 -334h637l-82 -306h-637l-94 -350h719l-82 -307q-37 -18 -76.5 -42t-85 -57.5t-74.5 -72.5t-29 -73q0 -47 42 -72 t92 -25q9 0 25 2z" />
<glyph unicode="&#x119;" horiz-adv-x="1292" d="M646 -534q-53 -10 -126 -10q-49 0 -95.5 12t-87 36.5t-65 67.5t-24.5 99q0 40 17 80t41 70.5t62 63t68.5 53.5t71.5 47q-188 33 -304.5 167.5t-116.5 327.5q0 131 53 250t140 203t201.5 134t234.5 50q144 0 258.5 -55t181.5 -162t67 -250q0 -92 -33 -192h-795 q0 -102 74 -158.5t170 -56.5q91 0 157.5 42.5t100.5 109.5l251 -116q-119 -216 -346 -279q-37 -18 -76.5 -42t-85 -57.5t-74 -72.5t-28.5 -73q0 -47 41.5 -72t92.5 -25q7 0 25 2zM914 669q1 8 1 23q0 84 -60 126.5t-149 42.5t-168.5 -54t-105.5 -138h482z" />
<glyph unicode="&#x11a;" horiz-adv-x="1361" d="M891 1748l-155 357h260l75 -187l175 187h284l-341 -357h-298zM52 0l429 1604h1045l-82 -307h-712l-89 -334h637l-82 -306h-637l-94 -350h719l-82 -307h-1052z" />
<glyph unicode="&#x11b;" horiz-adv-x="1292" d="M646 1278l-155 357h260l75 -187l175 187h284l-341 -357h-298zM1190 458q33 100 33 192q0 143 -67 250t-181.5 162t-258.5 55q-120 0 -234.5 -50t-201.5 -134t-140 -203t-53 -250q0 -222 151 -363t382 -141q171 0 307.5 76t220.5 227l-251 116q-34 -67 -100.5 -109.5 t-157.5 -42.5q-96 0 -170 56.5t-74 158.5h795zM432 669q26 84 105.5 138t168.5 54t149 -42.5t60 -126.5q0 -15 -1 -23h-482z" />
<glyph unicode="&#x11c;" horiz-adv-x="1803" d="M1379 2105l155 -357h-260l-75 187l-175 -187h-284l341 357h298zM890 -24q-175 0 -315.5 57t-229.5 155.5t-136 226t-47 272.5q0 179 71.5 349.5t195 301.5t304.5 211t386 80q131 0 243 -32t188 -82.5t133 -116.5t87 -131t41 -129l-321 -97q-9 38 -23.5 71t-46 72t-74 67 t-111 46.5t-154.5 18.5q-116 0 -222.5 -49.5t-184 -131.5t-123.5 -195t-46 -235q0 -87 25 -161t75 -132.5t133.5 -91.5t191.5 -33q159 0 279 74.5t166 200.5h-488l71 298h843q-11 -146 -50.5 -275t-113.5 -241.5t-177.5 -193.5t-249 -127.5t-320.5 -46.5z" />
<glyph unicode="&#x11d;" horiz-adv-x="1413" d="M1081 1635l155 -357h-260l-75 187l-175 -187h-284l341 357h298zM834 141q-130 -119 -318 -119q-123 0 -221.5 61.5t-152 164.5t-53.5 225q0 134 51.5 255t135 204t190.5 131.5t216 48.5q123 0 212.5 -40.5t158.5 -137.5l42 159h318l-282 -1067q-26 -98 -61 -179 t-90.5 -156t-125 -126t-167.5 -81.5t-216 -30.5q-137 0 -246.5 40t-175.5 106t-100.5 145t-34.5 164l300 59q0 -96 66 -167t192 -71q118 0 206 76t127 224zM638 299q124 0 218.5 96t94.5 231q0 91 -61.5 147.5t-157.5 56.5q-129 0 -221.5 -97.5t-92.5 -231.5 q0 -92 59.5 -147t160.5 -55z" />
<glyph unicode="&#x11e;" horiz-adv-x="1803" d="M1164 1759q-151 0 -250.5 94.5t-99.5 243.5v28h235q-1 -65 33.5 -106.5t98.5 -41.5t110 41.5t67 106.5h242q-42 -161 -158.5 -263.5t-277.5 -102.5zM890 -24q-175 0 -315.5 57t-229.5 155.5t-136 226t-47 272.5q0 179 71.5 349.5t195 301.5t304.5 211t386 80 q131 0 243 -32t188 -82.5t133 -116.5t87 -131t41 -129l-321 -97q-9 38 -23.5 71t-46 72t-74 67t-111 46.5t-154.5 18.5q-116 0 -222.5 -49.5t-184 -131.5t-123.5 -195t-46 -235q0 -87 25 -161t75 -132.5t133.5 -91.5t191.5 -33q159 0 279 74.5t166 200.5h-488l71 298h843 q-11 -146 -50.5 -275t-113.5 -241.5t-177.5 -193.5t-249 -127.5t-320.5 -46.5z" />
<glyph unicode="&#x11f;" horiz-adv-x="1413" d="M893 1269q-151 0 -250.5 94.5t-99.5 243.5v28h235q-1 -65 33.5 -106.5t98.5 -41.5t110 41.5t67 106.5h242q-42 -161 -158.5 -263.5t-277.5 -102.5zM834 141q-130 -119 -318 -119q-123 0 -221.5 61.5t-152 164.5t-53.5 225q0 134 51.5 255t135 204t190.5 131.5t216 48.5 q123 0 212.5 -40.5t158.5 -137.5l42 159h318l-282 -1067q-26 -98 -61 -179t-90.5 -156t-125 -126t-167.5 -81.5t-216 -30.5q-137 0 -246.5 40t-175.5 106t-100.5 145t-34.5 164l300 59q0 -96 66 -167t192 -71q118 0 206 76t127 224zM638 299q124 0 218.5 96t94.5 231 q0 91 -61.5 147.5t-157.5 56.5q-129 0 -221.5 -97.5t-92.5 -231.5q0 -92 59.5 -147t160.5 -55z" />
<glyph unicode="&#x120;" horiz-adv-x="1803" d="M1227 2126q77 0 125 -47.5t48 -120.5q0 -89 -64.5 -155.5t-162.5 -66.5q-75 0 -123.5 46t-48.5 120q0 91 65.5 157.5t160.5 66.5zM890 -24q-175 0 -315.5 57t-229.5 155.5t-136 226t-47 272.5q0 179 71.5 349.5t195 301.5t304.5 211t386 80q131 0 243 -32t188 -82.5 t133 -116.5t87 -131t41 -129l-321 -97q-9 38 -23.5 71t-46 72t-74 67t-111 46.5t-154.5 18.5q-116 0 -222.5 -49.5t-184 -131.5t-123.5 -195t-46 -235q0 -87 25 -161t75 -132.5t133.5 -91.5t191.5 -33q159 0 279 74.5t166 200.5h-488l71 298h843q-11 -146 -50.5 -275 t-113.5 -241.5t-177.5 -193.5t-249 -127.5t-320.5 -46.5z" />
<glyph unicode="&#x121;" horiz-adv-x="1413" d="M904 1654q77 0 124.5 -47.5t47.5 -119.5q0 -89 -64.5 -155.5t-162.5 -66.5q-75 0 -123.5 46t-48.5 120q0 90 66 156.5t161 66.5zM834 141q-130 -119 -318 -119q-123 0 -221.5 61.5t-152 164.5t-53.5 225q0 134 51.5 255t135 204t190.5 131.5t216 48.5q123 0 212.5 -40.5 t158.5 -137.5l42 159h318l-282 -1067q-26 -98 -61 -179t-90.5 -156t-125 -126t-167.5 -81.5t-216 -30.5q-137 0 -246.5 40t-175.5 106t-100.5 145t-34.5 164l300 59q0 -96 66 -167t192 -71q118 0 206 76t127 224zM638 299q124 0 218.5 96t94.5 231q0 91 -61.5 147.5 t-157.5 56.5q-129 0 -221.5 -97.5t-92.5 -231.5q0 -92 59.5 -147t160.5 -55z" />
<glyph unicode="&#x122;" horiz-adv-x="1803" d="M890 -24q-175 0 -315.5 57t-229.5 155.5t-136 226t-47 272.5q0 179 71.5 349.5t195 301.5t304.5 211t386 80q131 0 243 -32t188 -82.5t133 -116.5t87 -131t41 -129l-321 -97q-9 38 -23.5 71t-46 72t-74 67t-111 46.5t-154.5 18.5q-116 0 -222.5 -49.5t-184 -131.5 t-123.5 -195t-46 -235q0 -87 25 -161t75 -132.5t133.5 -91.5t191.5 -33q159 0 279 74.5t166 200.5h-488l71 298h843q-11 -146 -50.5 -275t-113.5 -241.5t-177.5 -193.5t-249 -127.5t-320.5 -46.5zM602 -672q90 10 154.5 64.5t79.5 129.5q-22 -9 -52 -9q-65 0 -105 38 t-40 101q0 80 57 129.5t133 49.5q84 0 130.5 -56t46.5 -142q0 -110 -56.5 -206.5t-157.5 -156.5t-223 -63z" />
<glyph unicode="&#x123;" horiz-adv-x="1413" d="M1093 1765q-90 -10 -154.5 -64.5t-79.5 -130.5q21 10 52 10q65 0 105 -38.5t40 -101.5q0 -80 -57 -129t-133 -49q-84 0 -130.5 56t-46.5 142q0 168 126 294.5t310 131.5zM834 141q-130 -119 -318 -119q-123 0 -221.5 61.5t-152 164.5t-53.5 225q0 134 51.5 255t135 204 t190.5 131.5t216 48.5q123 0 212.5 -40.5t158.5 -137.5l42 159h318l-282 -1067q-26 -98 -61 -179t-90.5 -156t-125 -126t-167.5 -81.5t-216 -30.5q-137 0 -246.5 40t-175.5 106t-100.5 145t-34.5 164l300 59q0 -96 66 -167t192 -71q118 0 206 76t127 224zM638 299 q124 0 218.5 96t94.5 231q0 91 -61.5 147.5t-157.5 56.5q-129 0 -221.5 -97.5t-92.5 -231.5q0 -92 59.5 -147t160.5 -55z" />
<glyph unicode="&#x126;" horiz-adv-x="1749" d="M1890 1200h-168l-320 -1200h-336l174 651h-662l-174 -651h-336l320 1200h-169l59 215h168l50 189h336l-50 -189h661l51 189h336l-50 -189h169zM1386 1200h-662l-61 -231h661z" />
<glyph unicode="&#x127;" horiz-adv-x="1305" d="M899 1115q147 0 234.5 -89t87.5 -234q0 -64 -38 -213l-152 -579h-324l156 590q14 54 14 97q0 65 -40 98.5t-110 33.5q-94 0 -151.5 -61t-81.5 -154l-158 -604h-323l333 1270h-136l57 215h135l48 183h324l-48 -183h322l-57 -215h-322l-75 -287q64 59 143.5 95.5 t161.5 36.5z" />
<glyph unicode="&#x128;" horiz-adv-x="722" d="M852 1748q-46 0 -88 15t-67 33.5t-57 33.5t-60 15q-59 0 -89 -95h-199l12 51q29 121 101.5 193t190.5 72q55 0 104 -24t89.5 -47.5t73.5 -23.5q22 0 39 7.5t28.5 24.5t16.5 27.5t13 31.5h192l-13 -52q-66 -262 -287 -262zM480 1604h338l-428 -1604h-338z" />
<glyph unicode="&#x129;" horiz-adv-x="625" d="M667 1278q-46 0 -88 15t-67 33.5t-57 33.5t-60 15q-59 0 -89 -95h-199l12 51q29 121 101.5 193t190.5 72q55 0 104 -24t89.5 -47.5t73.5 -23.5q22 0 39 7.5t28.5 24.5t16.5 27.5t13 31.5h192l-13 -52q-30 -121 -100.5 -191.5t-186.5 -70.5zM11 0l289 1093h325l-289 -1093 h-325z" />
<glyph unicode="&#x12a;" horiz-adv-x="722" d="M365 2016h730l-64 -239h-730zM480 1604h338l-428 -1604h-338z" />
<glyph unicode="&#x12b;" horiz-adv-x="625" d="M210 1526h700l-63 -239h-700zM11 0l289 1093h325l-289 -1093h-325z" />
<glyph unicode="&#x12c;" horiz-adv-x="722" d="M670 1759q-151 0 -250.5 94.5t-99.5 243.5v28h235q-1 -65 33.5 -106.5t98.5 -41.5t110 41.5t67 106.5h242q-42 -161 -158.5 -263.5t-277.5 -102.5zM480 1604h338l-428 -1604h-338z" />
<glyph unicode="&#x12d;" horiz-adv-x="625" d="M524 1269q-151 0 -250.5 94.5t-99.5 243.5v28h235q-1 -65 33.5 -106.5t98.5 -41.5t110 41.5t67 106.5h242q-42 -161 -158.5 -263.5t-277.5 -102.5zM11 0l289 1093h325l-289 -1093h-325z" />
<glyph unicode="&#x12e;" horiz-adv-x="721" d="M233 -534q-52 -10 -126 -10q-49 0 -95.5 12t-87 36.5t-65 67.5t-24.5 99q0 43 19.5 85.5t45.5 74t70 67t73.5 55t74.5 47.5h-66l428 1604h338l-429 -1604q-37 -19 -76 -42.5t-84.5 -57t-74.5 -72.5t-29 -73q0 -47 42 -72t92 -25q9 0 25 2z" />
<glyph unicode="&#x12f;" horiz-adv-x="625" d="M587 1674q76 0 126.5 -47.5t50.5 -122.5q1 -95 -66.5 -161.5t-162.5 -66.5q-76 0 -126 47.5t-50 123.5q-1 94 66.5 160.5t161.5 66.5zM179 -534q-53 -10 -126 -10q-49 0 -95.5 12t-87 36.5t-65 67.5t-24.5 99q0 43 19.5 85.5t45.5 74t70 67t73.5 55t74.5 47.5h-53 l289 1093h325l-289 -1093q-37 -18 -76.5 -42t-85 -57.5t-74.5 -72.5t-29 -73q0 -47 41.5 -72t92.5 -25q7 0 25 2z" />
<glyph unicode="&#x130;" horiz-adv-x="722" d="M748 2126q77 0 125 -47.5t48 -120.5q0 -89 -65 -155.5t-162 -66.5q-75 0 -123.5 46t-48.5 120q0 91 65.5 157.5t160.5 66.5zM480 1604h338l-428 -1604h-338z" />
<glyph unicode="&#x131;" horiz-adv-x="625" d="M11 0l289 1093h325l-289 -1093h-325z" />
<glyph unicode="&#x132;" horiz-adv-x="1414" d="M502 458q0 -76 39 -120.5t115 -44.5q86 0 148 54t85 141l299 1116h336l-309 -1156q-125 -469 -596 -469q-119 0 -221.5 52t-166 149t-63.5 216q0 92 22 185l336 16q-24 -96 -24 -139zM582 809h-336l210 787h336z" />
<glyph unicode="&#x136;" horiz-adv-x="1508" d="M596 779l-208 -779h-336l428 1604h336l-180 -674l698 674h443l-841 -799l448 -805h-381zM401 -672q90 10 154.5 64.5t78.5 129.5q-22 -9 -51 -9q-66 0 -105.5 38t-39.5 101q0 80 57 129.5t132 49.5q85 0 131.5 -56t46.5 -142q0 -169 -126.5 -295t-310.5 -131z" />
<glyph unicode="&#x137;" horiz-adv-x="1266" d="M477 525h-3l-138 -525h-324l440 1670h323l-262 -999h3l452 422h441l-604 -533l323 -560h-372zM260 -672q90 10 154.5 64.5t78.5 129.5q-22 -9 -51 -9q-66 0 -105.5 38t-39.5 101q0 80 57 129.5t132 49.5q85 0 131.5 -56t46.5 -142q0 -169 -126.5 -295t-310.5 -131z" />
<glyph unicode="&#x139;" horiz-adv-x="1232" d="M564 1751l331 385h390l-439 -385h-282zM52 0l428 1604h335l-345 -1293h681l-84 -311h-1015z" />
<glyph unicode="&#x13a;" horiz-adv-x="625" d="M502 1817l331 385h390l-439 -385h-282zM451 1668h324l-439 -1668h-324z" />
<glyph unicode="&#x13b;" horiz-adv-x="1232" d="M52 0l428 1604h335l-345 -1293h681l-84 -311h-1015zM262 -672q90 10 154.5 64.5t78.5 129.5q-22 -9 -51 -9q-66 0 -105.5 38t-39.5 101q0 80 57 129.5t132 49.5q85 0 131.5 -56t46.5 -142q0 -169 -126.5 -295t-310.5 -131z" />
<glyph unicode="&#x13c;" horiz-adv-x="625" d="M451 1668h324l-439 -1668h-324zM-141 -672q90 10 154.5 64.5t78.5 129.5q-22 -9 -51 -9q-66 0 -105.5 38t-39.5 101q0 80 57 129.5t132 49.5q85 0 131.5 -56t46.5 -142q0 -169 -126.5 -295t-310.5 -131z" />
<glyph unicode="&#x13d;" horiz-adv-x="1250" d="M975 1170l158 479h334l-268 -479h-224zM52 0l428 1604h335l-345 -1293h681l-84 -311h-1015z" />
<glyph unicode="&#x13e;" horiz-adv-x="665" d="M774 1190l158 479h334l-268 -479h-224zM451 1668h324l-439 -1668h-324z" />
<glyph unicode="&#x13f;" horiz-adv-x="1253" d="M52 0l428 1604h335l-345 -1293h681l-84 -311h-1015zM1104 998q76 0 126.5 -47.5t50.5 -122.5q0 -96 -66.5 -162t-162.5 -66q-76 0 -126 47.5t-50 123.5q0 94 67 160.5t161 66.5z" />
<glyph unicode="&#x140;" horiz-adv-x="992" d="M451 1668h324l-439 -1668h-324zM885 958q76 0 126.5 -47.5t50.5 -122.5q0 -95 -66.5 -161.5t-162.5 -66.5q-75 0 -125.5 48t-50.5 123q0 94 67 160.5t161 66.5z" />
<glyph unicode="&#x141;" horiz-adv-x="1307" d="M126 0l155 581l-237 -96l82 306l237 96l192 717h335l-151 -565l465 188l-82 -306l-465 -188l-112 -422h680l-83 -311h-1016z" />
<glyph unicode="&#x142;" horiz-adv-x="889" d="M278 493l-236 -113l81 308l236 111l229 869h324l-183 -692l237 115l-80 -306l-237 -112l-177 -673h-324z" />
<glyph unicode="&#x143;" horiz-adv-x="1787" d="M1063 1751l331 385h390l-439 -385h-282zM684 1119l-299 -1119h-333l428 1604h382l394 -1102l294 1102h332l-426 -1604h-369z" />
<glyph unicode="&#x144;" horiz-adv-x="1306" d="M682 1275l331 385h390l-439 -385h-282zM707 0h324l153 579q37 140 37 213q0 149 -89 236t-233 87q-83 0 -165 -39.5t-145 -99.5l-3 1l28 116h-315l-286 -1093h323l158 604q26 96 84 155.5t150 59.5q68 0 109 -33t41 -99q0 -43 -14 -97z" />
<glyph unicode="&#x145;" horiz-adv-x="1787" d="M684 1119l-299 -1119h-333l428 1604h382l394 -1102l294 1102h332l-426 -1604h-369zM494 -672q90 10 154.5 64.5t78.5 129.5q-22 -9 -51 -9q-66 0 -105.5 38t-39.5 101q0 80 57 129.5t132 49.5q85 0 131.5 -56t46.5 -142q0 -169 -126.5 -295t-310.5 -131z" />
<glyph unicode="&#x146;" horiz-adv-x="1306" d="M230 -672q90 10 154.5 64.5t79.5 129.5q-23 -9 -52 -9q-65 0 -105 38t-40 101q0 80 57 129.5t132 49.5q85 0 131.5 -56t46.5 -142q0 -169 -126.5 -295t-310.5 -131zM1031 0h-324l157 590q14 54 14 97q0 66 -41 99t-109 33q-92 0 -150 -59.5t-84 -155.5l-158 -604h-323 l286 1093h315l-28 -116l3 -1q63 60 145 99.5t165 39.5q144 0 233 -87t89 -236q0 -73 -37 -213z" />
<glyph unicode="&#x147;" horiz-adv-x="1787" d="M1069 1748l-155 357h260l75 -187l175 187h284l-341 -357h-298zM684 1119l-299 -1119h-333l428 1604h382l394 -1102l294 1102h332l-426 -1604h-369z" />
<glyph unicode="&#x148;" horiz-adv-x="1306" d="M706 1278l-155 357h260l75 -187l175 187h284l-341 -357h-298zM707 0h324l153 579q37 140 37 213q0 149 -89 236t-233 87q-83 0 -165 -39.5t-145 -99.5l-3 1l28 116h-315l-286 -1093h323l158 604q26 96 84 155.5t150 59.5q68 0 109 -33t41 -99q0 -43 -14 -97z" />
<glyph unicode="&#x14a;" horiz-adv-x="1787" d="M955 -540q-68 0 -128 13t-91 34l67 253q52 -22 110 -22q73 0 115.5 36.5t62.5 111.5l27 100l-432 1140l-301 -1126h-333l428 1604h382l401 -1078l287 1078h332l-478 -1799q-46 -171 -162 -258t-287 -87z" />
<glyph unicode="&#x14b;" horiz-adv-x="1306" d="M864 590q14 54 14 97q0 66 -41 99t-109 33q-92 0 -150.5 -60t-83.5 -155l-158 -604h-323l286 1093h315l-28 -116l3 -1q63 60 145 99.5t165 39.5q144 0 233 -87t89 -236q0 -73 -37 -213l-204 -773q-46 -172 -158 -259t-278 -87q-67 0 -127.5 13t-91.5 34l66 253 q52 -22 109 -22q138 0 178 148z" />
<glyph unicode="&#x14c;" horiz-adv-x="1863" d="M846 2016h746l-64 -239h-746zM1120 1629q162 0 299 -54.5t231 -149t146.5 -224.5t52.5 -280q0 -145 -45 -285t-130.5 -258.5t-201 -209t-266.5 -141.5t-316 -51q-154 0 -288 51.5t-231 143t-153 224.5t-56 289q0 186 74 359t200 302t305 206.5t379 77.5zM505 705 q0 -188 114 -300.5t310 -112.5q121 0 229.5 52.5t184 138t119.5 195t44 222.5q0 189 -112.5 300.5t-312.5 111.5q-125 0 -234.5 -53.5t-183 -140t-116 -195t-42.5 -218.5z" />
<glyph unicode="&#x14d;" horiz-adv-x="1346" d="M483 1526h746l-64 -239h-746zM734 1117q-178 0 -328 -89t-234.5 -234.5t-84.5 -310.5q0 -116 41.5 -212.5t114 -160.5t170.5 -99t210 -35q128 0 247 49.5t206.5 134t140 202.5t52.5 248q0 233 -149 370t-386 137zM634 267q-110 0 -169.5 63.5t-59.5 161.5 q0 133 90.5 233.5t225.5 100.5q101 0 165 -61.5t64 -162.5q0 -136 -93 -235.5t-223 -99.5z" />
<glyph unicode="&#x150;" horiz-adv-x="1863" d="M797 1745l330 385h386l-439 -385h-277zM1273 1745l331 385h385l-439 -385h-277zM1120 1629q162 0 299 -54.5t231 -149t146.5 -224.5t52.5 -280q0 -145 -45 -285t-130.5 -258.5t-201 -209t-266.5 -141.5t-316 -51q-154 0 -288 51.5t-231 143t-153 224.5t-56 289 q0 186 74 359t200 302t305 206.5t379 77.5zM505 705q0 -188 114 -300.5t310 -112.5q121 0 229.5 52.5t184 138t119.5 195t44 222.5q0 189 -112.5 300.5t-312.5 111.5q-125 0 -234.5 -53.5t-183 -140t-116 -195t-42.5 -218.5z" />
<glyph unicode="&#x151;" horiz-adv-x="1346" d="M399 1275l330 385h386l-439 -385h-277zM875 1275l331 385h385l-439 -385h-277zM734 1117q-178 0 -328 -89t-234.5 -234.5t-84.5 -310.5q0 -116 41.5 -212.5t114 -160.5t170.5 -99t210 -35q128 0 247 49.5t206.5 134t140 202.5t52.5 248q0 233 -149 370t-386 137zM634 267 q-110 0 -169.5 63.5t-59.5 161.5q0 133 90.5 233.5t225.5 100.5q101 0 165 -61.5t64 -162.5q0 -136 -93 -235.5t-223 -99.5z" />
<glyph unicode="&#x152;" horiz-adv-x="2581" d="M1120 1629q190 0 321.5 -72.5t204.5 -202.5l67 250h1033l-82 -307h-702l-89 -334h627l-82 -306h-627l-94 -350h709l-82 -307h-1040l39 137q-208 -161 -458 -161q-200 0 -359.5 87.5t-251.5 250t-92 370.5q0 186 74 359t200 302t305 206.5t379 77.5zM505 705 q0 -188 114 -300.5t310 -112.5q121 0 230 53.5t184.5 139t120 195t44.5 220.5q0 190 -113.5 301t-314.5 111q-124 0 -233.5 -53.5t-183 -140t-116 -195t-42.5 -218.5z" />
<glyph unicode="&#x153;" horiz-adv-x="2147" d="M1250 458q0 -102 74 -158.5t170 -56.5q91 0 157.5 42.5t100.5 109.5l251 -116q-84 -151 -220.5 -227t-307.5 -76q-135 0 -239 51t-167 145q-84 -93 -197.5 -144.5t-245.5 -51.5q-151 0 -272.5 59.5t-193.5 176.5t-72 271q0 123 49 238.5t133 203t205 140t258 52.5 q140 0 245 -50t168 -145q81 92 191.5 143.5t233.5 51.5q221 0 364 -126t143 -341q0 -90 -32 -192h-796zM1769 669v5q0 84 -51 135.5t-157 51.5q-86 0 -166.5 -53t-107.5 -139h482zM633 267q133 0 225.5 95t92.5 238q0 100 -65.5 163t-161.5 63q-143 0 -230.5 -97.5 t-87.5 -234.5q0 -97 60.5 -162t166.5 -65z" />
<glyph unicode="&#x154;" horiz-adv-x="1524" d="M1090 1751h-281l330 385l390 -1zM1102 620q224 62 343.5 194.5t119.5 337.5q0 145 -72 250.5t-218 158.5q-120 43 -300 43h-495l-428 -1604h331l154 576h234l190 -576h357zM966 1293q253 0 253 -175q0 -81 -50.5 -136.5t-127 -79.5t-171.5 -24h-252l110 415h238z" />
<glyph unicode="&#x155;" horiz-adv-x="872" d="M516 1275l331 385h390l-439 -385h-282zM891 775q-52 14 -98 14q-118 0 -210 -80.5t-131 -229.5l-126 -479h-314l288 1093h303l-42 -159h3q129 171 328 171q44 0 83 -11z" />
<glyph unicode="&#x156;" horiz-adv-x="1524" d="M1318 0h-357l-190 576h-234l-154 -576h-331l428 1604h495q180 0 300 -43q146 -53 218 -158.5t72 -250.5q0 -205 -119.5 -337.5t-343.5 -194.5zM728 1293l-110 -415h252q95 0 171.5 24t127 79.5t50.5 136.5q0 175 -253 175h-238zM369 -672q90 10 154.5 64.5t78.5 129.5 q-22 -9 -51 -9q-66 0 -105.5 38t-39.5 101q0 80 57 129.5t132 49.5q85 0 131.5 -56t46.5 -142q0 -169 -126.5 -295t-310.5 -131z" />
<glyph unicode="&#x157;" horiz-adv-x="872" d="M891 775q-52 14 -98 14q-118 0 -210 -80.5t-131 -229.5l-126 -479h-314l288 1093h303l-42 -159h3q129 171 328 171q44 0 83 -11zM-131 -672q90 10 154.5 64.5t78.5 129.5q-22 -9 -51 -9q-66 0 -105.5 38t-39.5 101q0 80 57 129.5t132 49.5q85 0 131.5 -56t46.5 -142 q0 -169 -126.5 -295t-310.5 -131z" />
<glyph unicode="&#x158;" horiz-adv-x="1524" d="M1169 1748h-297l-155 357h259l75 -187l175 187h284zM1102 620l216 -620h-357l-190 576h-234l-154 -576h-331l428 1604h495q180 0 300 -43q146 -53 218 -158.5t72 -250.5q0 -205 -119.5 -337.5t-343.5 -194.5zM966 1293h-238l-110 -415h252q95 0 171.5 24t127 79.5 t50.5 136.5q0 175 -253 175z" />
<glyph unicode="&#x159;" horiz-adv-x="872" d="M524 1278l-155 357h260l75 -187l175 187h284l-341 -357h-298zM891 775q-52 14 -98 14q-118 0 -210 -80.5t-131 -229.5l-126 -479h-314l288 1093h303l-42 -159h3q129 171 328 171q44 0 83 -11z" />
<glyph unicode="&#x15a;" horiz-adv-x="1433" d="M1036 1751h-281l330 385l390 -1zM1155 1092l311 52q0 117 -45.5 210.5t-124 152.5t-181.5 90.5t-221 31.5q-91 0 -179 -21.5t-165.5 -65t-136 -104t-92.5 -144.5t-34 -181q0 -281 391 -436l147 -58q81 -33 121.5 -74.5t40.5 -103.5q0 -47 -26.5 -84t-69 -57t-87 -30 t-88.5 -10q-138 0 -232 86.5t-93 222.5v11l-314 -56v-17q-1 -104 33 -192t94 -149.5t140.5 -104.5t171 -63.5t186.5 -20.5q126 0 237 30.5t200 91t141 161.5t52 232q0 80 -32.5 150t-90 123t-123.5 92t-145 70l-153 60q-33 12 -55.5 23t-49.5 29.5t-41 43t-14 55.5 q0 92 76.5 143.5t171.5 51.5q126 0 202.5 -64t76.5 -177z" />
<glyph unicode="&#x15b;" horiz-adv-x="1068" d="M486 1275l331 385h390l-439 -385h-282zM474 225q55 0 96.5 27t41.5 72q0 58 -74 88l-121 47q-242 93 -242 285q0 107 62.5 194.5t162.5 134.5t213 47q77 0 152.5 -24.5t136 -68t98 -111.5t37.5 -147l-285 -31q0 61 -43 99t-100 38q-50 0 -88.5 -26t-38.5 -68 q0 -58 69 -84l112 -44q60 -24 103 -48t83 -59t61 -83t21 -108q0 -115 -67 -203t-172 -132t-226 -44q-90 0 -170 23t-143.5 66.5t-101 113t-37.5 155.5v9l285 45q-2 -76 49.5 -119.5t125.5 -43.5z" />
<glyph unicode="&#x15c;" horiz-adv-x="1433" d="M1176 2105l155 -357h-260l-75 187l-175 -187h-284l341 357h298zM1155 1092l311 52q0 117 -45.5 210.5t-124 152.5t-181.5 90.5t-221 31.5q-91 0 -179 -21.5t-165.5 -65t-136 -104t-92.5 -144.5t-34 -181q0 -281 391 -436l147 -58q81 -33 121.5 -74.5t40.5 -103.5 q0 -47 -26.5 -84t-69 -57t-87 -30t-88.5 -10q-138 0 -232 86.5t-93 222.5v11l-314 -56v-17q-1 -104 33 -192t94 -149.5t140.5 -104.5t171 -63.5t186.5 -20.5q126 0 237 30.5t200 91t141 161.5t52 232q0 80 -32.5 150t-90 123t-123.5 92t-145 70l-153 60q-33 12 -55.5 23 t-49.5 29.5t-41 43t-14 55.5q0 92 76.5 143.5t171.5 51.5q126 0 202.5 -64t76.5 -177z" />
<glyph unicode="&#x15d;" horiz-adv-x="1068" d="M891 1635l155 -357h-260l-75 187l-175 -187h-284l341 357h298zM474 225q55 0 96.5 27t41.5 72q0 58 -74 88l-121 47q-242 93 -242 285q0 107 62.5 194.5t162.5 134.5t213 47q77 0 152.5 -24.5t136 -68t98 -111.5t37.5 -147l-285 -31q0 61 -43 99t-100 38q-50 0 -88.5 -26 t-38.5 -68q0 -58 69 -84l112 -44q60 -24 103 -48t83 -59t61 -83t21 -108q0 -115 -67 -203t-172 -132t-226 -44q-90 0 -170 23t-143.5 66.5t-101 113t-37.5 155.5v9l285 45q-2 -76 49.5 -119.5t125.5 -43.5z" />
<glyph unicode="&#x15e;" horiz-adv-x="1433" d="M398 -535q-92 0 -166 22l54 207q51 -9 94 -9q100 0 153 68.5t53 176.5q0 24 -5 56q-83 12 -157 39t-138.5 71.5t-111 103t-72.5 137.5t-25 170v17l314 56v-11q-1 -136 93 -222.5t232 -86.5q44 0 88.5 10t87 30t69 57t26.5 84q0 62 -40.5 103.5t-121.5 74.5l-147 58 q-390 154 -390 436q0 97 34 181t92.5 144.5t135.5 104t165 65t179 21.5q118 0 221 -31.5t181.5 -90.5t124 -152.5t45.5 -210.5l-311 -52q0 113 -76 177t-203 64q-95 0 -171 -51.5t-76 -143.5q0 -31 14 -55.5t40.5 -43t49 -29.5t55.5 -23l153 -60q79 -31 145 -70t123.5 -92 t90 -123t32.5 -150q0 -93 -27 -172t-74 -136t-113 -99t-141.5 -66.5t-161.5 -34.5q21 -53 21 -120q0 -197 -118 -298t-320 -101z" />
<glyph unicode="&#x15f;" horiz-adv-x="1068" d="M663 653q60 -24 103 -48t83 -59t61 -83t21 -108q0 -146 -103 -244t-258 -126q21 -50 21 -121q0 -197 -118 -298t-320 -101q-91 0 -165 22l54 207q51 -9 93 -9q100 0 153 68.5t53 176.5q0 35 -5 59q-143 29 -232.5 118t-89.5 227v9l285 45q-2 -76 49.5 -119.5t125.5 -43.5 q55 0 96.5 27t41.5 72q0 58 -74 88l-121 47q-242 93 -242 285q0 107 62.5 194.5t162.5 134.5t213 47q77 0 152.5 -24.5t136 -68t98 -111.5t37.5 -147l-285 -31q0 61 -43 99t-100 38q-50 0 -88.5 -26t-38.5 -68q0 -58 69 -84z" />
<glyph unicode="&#x160;" horiz-adv-x="1433" d="M800 1756l-155 357h260l75 -187l175 187h284l-341 -357h-298zM1155 1092q0 113 -76.5 177t-202.5 64q-95 0 -171.5 -51.5t-76.5 -143.5q0 -30 14 -55t42 -43.5t49 -28.5t55 -24l153 -60q79 -31 144.5 -70t123.5 -92t90.5 -123t32.5 -150q0 -131 -52 -232t-141 -161.5 t-200 -91t-237 -30.5q-121 0 -231 33.5t-199 97t-142 167t-53 232.5v17l314 56v-11q0 -136 93.5 -222.5t231.5 -86.5q44 0 88.5 10t87 30t69 57t26.5 84q0 62 -41 104t-121 74l-147 58q-391 155 -391 436q0 97 34 181t92.5 144.5t136 104t165 65t179.5 21.5q118 0 221 -31.5 t181.5 -90.5t124 -152.5t45.5 -210.5z" />
<glyph unicode="&#x161;" horiz-adv-x="1068" d="M525 1282l-155 357h260l75 -187l175 187h284l-341 -357h-298zM474 225q55 0 96.5 27t41.5 72q0 58 -74 88l-121 47q-242 93 -242 285q0 107 62.5 194.5t162.5 134.5t213 47q77 0 152.5 -24.5t136 -68t98 -111.5t37.5 -147l-285 -31q0 61 -43 99t-100 38q-50 0 -88.5 -26 t-38.5 -68q0 -58 69 -84l112 -44q60 -24 103 -48t83 -59t61 -83t21 -108q0 -115 -67 -203t-172 -132t-226 -44q-90 0 -170 23t-143.5 66.5t-101 113t-37.5 155.5v9l285 45q-2 -76 49.5 -119.5t125.5 -43.5z" />
<glyph unicode="&#x162;" horiz-adv-x="1374" d="M290 -535q-92 0 -166 22l54 207q51 -9 94 -9q100 0 153 68.5t53 176.5q0 46 -9 70h-91l343 1287h-478l85 317h1293l-85 -317h-479l-343 -1287h-15q29 -50 29 -136q0 -197 -118 -298t-320 -101z" />
<glyph unicode="&#x163;" horiz-adv-x="928" d="M131 -535q-92 0 -166 22l54 207q51 -9 94 -9q100 0 153 68.5t53 176.5q0 50 -16 112q-105 73 -105 230q0 66 20 144l106 401h-210l73 276h214l91 343h318l-90 -343h266l-76 -276h-263l-108 -407q-7 -28 -7 -49q0 -103 132 -103q60 0 107 13l-68 -256q-63 -28 -160 -30 q25 -55 23 -126q-2 -197 -117.5 -295.5t-317.5 -98.5z" />
<glyph unicode="&#x164;" horiz-adv-x="1374" d="M808 1748l-155 357h260l75 -187l175 187h284l-341 -357h-298zM714 0h-336l343 1287h-478l85 317h1293l-85 -317h-479z" />
<glyph unicode="&#x165;" horiz-adv-x="928" d="M878 1200l154 469h334l-264 -469h-224zM910 817l76 276h-266l90 343h-318l-91 -343h-214l-73 -276h210l-106 -401q-20 -78 -20 -144q0 -149 90 -218t244 -69q102 0 171 30l68 256q-47 -13 -107 -13q-132 0 -132 103q0 21 7 49l108 407h263z" />
<glyph unicode="&#x166;" horiz-adv-x="1411" d="M275 540l71 267h267l127 476h-481l86 321h1293l-86 -321h-481l-127 -476h266l-71 -267h-266l-144 -540h-331l144 540h-267z" />
<glyph unicode="&#x167;" horiz-adv-x="935" d="M39 436l55 211h192l45 170h-210l73 276h214l91 343h318l-90 -343h266l-76 -276h-263l-45 -170h202l-55 -211h-203l-7 -26q-7 -28 -7 -49q0 -103 132 -103q60 0 107 13l-68 -256q-69 -30 -171 -30q-154 0 -244 69t-90 218q0 66 20 144l5 20h-191z" />
<glyph unicode="&#x168;" horiz-adv-x="1629" d="M1292 1748q-46 0 -88 15t-67 33.5t-57 33.5t-60 15q-59 0 -89 -95h-199l12 51q29 121 101.5 193t190.5 72q55 0 104 -24t89.5 -47.5t73.5 -23.5q22 0 39 7.5t28.5 24.5t16.5 27.5t13 31.5h192l-13 -52q-66 -262 -287 -262zM739 -21q-88 0 -167 16.5t-150.5 54.5 t-123.5 95t-82.5 142.5t-30.5 191.5q0 100 36 237l237 888h337l-246 -921q-23 -88 -23 -160q0 -108 68.5 -170t177.5 -62q143 0 240 99.5t139 255.5l257 958h334l-269 -1003q-30 -110 -68.5 -198.5t-99.5 -169.5t-138.5 -135.5t-186 -86.5t-241.5 -32z" />
<glyph unicode="&#x169;" d="M996 1278q-46 0 -88 15t-67 33.5t-57 33.5t-60 15q-59 0 -89 -95h-199l12 51q29 121 101.5 193t190.5 72q55 0 104 -24t89.5 -47.5t73.5 -23.5q22 0 39 7.5t28.5 24.5t16.5 27.5t13 31.5h192l-13 -52q-30 -121 -100.5 -191.5t-186.5 -70.5zM417 -22q-140 0 -231 88 t-91 235q0 68 38 214l153 578h323l-156 -589q-14 -48 -14 -97q0 -67 41 -100t109 -33q92 0 150 60t83 156l159 603h322l-233 -893q-23 -89 -27 -162v-38h-323v36q4 50 11 82h-4q-62 -60 -144.5 -100t-165.5 -40z" />
<glyph unicode="&#x16a;" horiz-adv-x="1629" d="M821 2016h746l-64 -239h-746zM739 -21q-88 0 -167 16.5t-150.5 54.5t-123.5 95t-82.5 142.5t-30.5 191.5q0 100 36 237l237 888h337l-246 -921q-23 -88 -23 -160q0 -108 68.5 -170t177.5 -62q143 0 240 99.5t139 255.5l257 958h334l-269 -1003q-30 -110 -68.5 -198.5 t-99.5 -169.5t-138.5 -135.5t-186 -86.5t-241.5 -32z" />
<glyph unicode="&#x16b;" d="M517 1526h746l-64 -239h-746zM417 -22q-140 0 -231 88t-91 235q0 68 38 214l153 578h323l-156 -589q-14 -48 -14 -97q0 -67 41 -100t109 -33q92 0 150 60t83 156l159 603h322l-233 -893q-23 -89 -27 -162v-38h-323v36q4 50 11 82h-4q-62 -60 -144.5 -100t-165.5 -40z" />
<glyph unicode="&#x16e;" horiz-adv-x="1629" d="M1494 2048q0 -139 -100 -242.5t-251 -103.5q-115 0 -191 72t-76 187q0 140 101.5 243t249.5 103q119 0 193 -73.5t74 -185.5zM1310 2029q0 48 -28 75t-76 27q-59 0 -102.5 -46t-43.5 -105q0 -48 28 -75.5t76 -27.5q59 0 102.5 46.5t43.5 105.5zM739 -21q-88 0 -167 16.5 t-150.5 54.5t-123.5 95t-82.5 142.5t-30.5 191.5q0 100 36 237l237 888h337l-246 -921q-23 -88 -23 -160q0 -108 68.5 -170t177.5 -62q143 0 240 99.5t139 255.5l257 958h334l-269 -1003q-30 -110 -68.5 -198.5t-99.5 -169.5t-138.5 -135.5t-186 -86.5t-241.5 -32z" />
<glyph unicode="&#x16f;" d="M1212 1579q0 -139 -100 -242.5t-251 -103.5q-115 0 -191 72t-76 187q0 140 101.5 243t249.5 103q119 0 193 -73.5t74 -185.5zM1028 1560q0 48 -28 75t-76 27q-59 0 -102.5 -46t-43.5 -105q0 -48 28 -75.5t76 -27.5q59 0 102.5 46.5t43.5 105.5zM417 -22q-140 0 -231 88 t-91 235q0 68 38 214l153 578h323l-156 -589q-14 -48 -14 -97q0 -67 41 -100t109 -33q92 0 150 60t83 156l159 603h322l-233 -893q-23 -89 -27 -162v-38h-323v36q4 50 11 82h-4q-62 -60 -144.5 -100t-165.5 -40z" />
<glyph unicode="&#x170;" horiz-adv-x="1629" d="M736 1745l330 385l386 -1l-439 -384h-277zM1212 1745l331 385l385 -1l-439 -384h-277zM739 -21q-88 0 -167 16.5t-150.5 54.5t-123.5 95t-82.5 142.5t-30.5 191.5q0 100 36 237l237 888h337l-246 -921q-23 -88 -23 -160q0 -108 68.5 -170t177.5 -62q143 0 240 99.5 t139 255.5l257 958h334l-269 -1003q-30 -110 -68.5 -198.5t-99.5 -169.5t-138.5 -135.5t-186 -86.5t-241.5 -32z" />
<glyph unicode="&#x171;" d="M449 1275l330 385h386l-439 -385h-277zM925 1275l331 385h385l-439 -385h-277zM417 -22q-140 0 -231 88t-91 235q0 68 38 214l153 578h323l-156 -589q-14 -48 -14 -97q0 -67 41 -100t109 -33q92 0 150 60t83 156l159 603h322l-233 -893q-23 -89 -27 -162v-38h-323v36 q4 50 11 82h-4q-62 -60 -144.5 -100t-165.5 -40z" />
<glyph unicode="&#x172;" horiz-adv-x="1629" d="M656 -17q-98 10 -180 42.5t-149 90.5t-104.5 150.5t-37.5 212.5q0 100 36 237l237 888h337l-246 -921q-23 -88 -23 -160q0 -108 68.5 -170t177.5 -62q143 0 240 99.5t139 255.5l257 958h334l-269 -1003q-31 -116 -73.5 -208.5t-105.5 -174.5t-153.5 -138t-205.5 -81 q-36 -21 -70 -44.5t-74 -57t-64.5 -71t-24.5 -71.5q0 -47 42 -72t92 -25q31 0 89 12l-49 -186q-69 -28 -191 -28q-49 0 -96.5 12t-89 35.5t-67 64.5t-25.5 94q0 159 249 321z" />
<glyph unicode="&#x173;" d="M886 -534q-53 -10 -126 -10q-49 0 -95.5 12t-87 36.5t-65 67.5t-24.5 99q0 43 20 85.5t46 74t70 67t73 55t75 47.5h-52v36q4 50 11 82h-4q-62 -60 -144.5 -100t-165.5 -40q-141 0 -231.5 88t-90.5 235q0 68 38 214l153 578h323l-156 -589q-14 -54 -14 -97q0 -67 41 -100 t109 -33q92 0 149.5 59.5t83.5 156.5l159 603h322l-233 -893q-23 -89 -27 -162v-38q-37 -18 -76.5 -42t-85 -57.5t-74.5 -72.5t-29 -73q0 -47 42 -72t92 -25q9 0 25 2z" />
<glyph unicode="&#x174;" horiz-adv-x="2465" d="M1743 2105l155 -357h-260l-75 187l-175 -187h-284l341 357h298zM1386 1124l-624 -1124h-363l-89 1604h344l35 -1141l628 1141h353l59 -1148l611 1148h363l-891 -1604h-369l-54 1124h-3z" />
<glyph unicode="&#x175;" horiz-adv-x="1827" d="M1322 1635l155 -357h-260l-75 187l-175 -187h-284l341 357h298zM1609 1093h334l-632 -1093h-317l-37 694l-408 -694h-313l-51 1093h320l19 -673l381 673h296l25 -679z" />
<glyph unicode="&#x176;" horiz-adv-x="1543" d="M1298 2105l155 -357h-260l-75 187l-175 -187h-284l341 357h298zM792 0h-337l170 634l-311 970h371l179 -662l543 662h396l-845 -989z" />
<glyph unicode="&#x177;" horiz-adv-x="1256" d="M1019 1635l155 -357h-260l-75 187l-175 -187h-284l341 357h298zM-32 -539l358 553l-147 1079h322l79 -717l442 717h359l-1063 -1632h-350z" />
<glyph unicode="&#x178;" horiz-adv-x="1543" d="M871 2062q65 0 105.5 -40t40.5 -101q0 -76 -54.5 -132t-137.5 -56q-63 0 -104 38.5t-41 101.5q0 77 55 133t136 56zM1353 2062q65 0 105.5 -40t40.5 -101q0 -76 -54.5 -132t-137.5 -56q-63 0 -104 38.5t-41 101.5q0 77 55 133t136 56zM792 0h-337l170 634l-311 970h371 l179 -662l543 662h396l-845 -989z" />
<glyph unicode="&#x179;" horiz-adv-x="1398" d="M856 1751l331 385h390l-439 -385h-282zM1172 0h-1227l77 292l1040 1008h-737l80 304h1170l-77 -286l-1033 -1013h788z" />
<glyph unicode="&#x17a;" horiz-adv-x="1105" d="M599 1275l331 385h390l-439 -385h-282zM16 250l644 571h-478l72 272h902l-65 -245l-653 -575h509l-72 -273h-925z" />
<glyph unicode="&#x17b;" horiz-adv-x="1398" d="M1074 2126q77 0 125 -47.5t48 -120.5q0 -89 -65 -155.5t-162 -66.5q-75 0 -124 46t-49 120q0 91 66 157.5t161 66.5zM1172 0h-1227l77 292l1040 1008h-737l80 304h1170l-77 -286l-1033 -1013h788z" />
<glyph unicode="&#x17c;" horiz-adv-x="1105" d="M798 1654q77 0 125 -47.5t48 -119.5q0 -89 -65 -155.5t-162 -66.5q-75 0 -123.5 46t-48.5 120q0 90 65.5 156.5t160.5 66.5zM16 250l644 571h-478l72 272h902l-65 -245l-653 -575h509l-72 -273h-925z" />
<glyph unicode="&#x17d;" horiz-adv-x="1398" d="M866 1748l-155 357h260l75 -187l175 187h284l-341 -357h-298zM1172 0h-1227l77 292l1040 1008h-737l80 304h1170l-77 -286l-1033 -1013h788z" />
<glyph unicode="&#x17e;" horiz-adv-x="1105" d="M597 1278l-155 357h260l75 -187l175 187h284l-341 -357h-298zM16 250l644 571h-478l72 272h902l-65 -245l-653 -575h509l-72 -273h-925z" />
<glyph unicode="&#x192;" horiz-adv-x="1285" d="M599 823h-201l71 270h255l73 156q36 77 80.5 136.5t111 113t162.5 82.5t214 29q106 0 162 -21l-71 -268q-72 16 -131 16q-80 0 -141 -43t-96 -119l-38 -82h249l-71 -270h-303l-222 -486q-35 -76 -80 -135.5t-112 -111.5t-163.5 -80.5t-215.5 -28.5q-99 0 -164 23l71 269 q69 -18 133 -18q82 0 142.5 42.5t95.5 118.5z" />
<glyph unicode="&#x1b5;" horiz-adv-x="1405" d="M704 951l361 349h-737l80 304h1170l-77 -286l-377 -367h292l-72 -279h-502l-374 -367h788l-81 -305h-1227l77 292l395 380h-273l73 279h484z" />
<glyph unicode="&#x1b6;" horiz-adv-x="1106" d="M442 631l219 198h-478l71 264h902l-63 -236l-258 -226h203l-44 -164h-333l-225 -202h509l-70 -265h-925l64 242l252 225h-185l44 164h317z" />
<glyph unicode="&#x1cd;" horiz-adv-x="1634" d="M980 1756l-155 357h260l75 -187l175 187h284l-341 -357h-298zM1135 344h-688l-205 -344h-357l983 1604h410l247 -1604h-340zM627 648h465l-84 631z" />
<glyph unicode="&#x1ce;" horiz-adv-x="1410" d="M706 1278l-155 357h260l75 -187l175 187h284l-341 -357h-298zM507 -21q-132 0 -230 66.5t-145.5 171t-47.5 230.5q0 139 50 264t134 213t195.5 139t230.5 51q237 0 348 -184l43 163h321l-235 -894q-27 -104 -27 -161q-2 -9 0 -38h-322v36q3 45 10 80l-4 1 q-82 -69 -155.5 -103.5t-165.5 -34.5zM416 477q0 -99 64.5 -154.5t165.5 -55.5q133 0 227.5 107t94.5 242q0 98 -68.5 155.5t-168.5 57.5q-89 0 -162.5 -52t-113 -132.5t-39.5 -167.5z" />
<glyph unicode="&#x1cf;" horiz-adv-x="722" d="M539 1748l-155 357h260l75 -187l175 187h284l-341 -357h-298zM480 1604h338l-428 -1604h-338z" />
<glyph unicode="&#x1d0;" horiz-adv-x="625" d="M368 1278l-155 357h260l75 -187l175 187h284l-341 -357h-298zM11 0l289 1093h325l-289 -1093h-325z" />
<glyph unicode="&#x1d1;" horiz-adv-x="1863" d="M1026 1748l-155 357h260l75 -187l175 187h284l-341 -357h-298zM1120 1629q162 0 299 -54.5t231 -149t146.5 -224.5t52.5 -280q0 -145 -45 -285t-130.5 -258.5t-201 -209t-266.5 -141.5t-316 -51q-154 0 -288 51.5t-231 143t-153 224.5t-56 289q0 186 74 359t200 302 t305 206.5t379 77.5zM505 705q0 -188 114 -300.5t310 -112.5q121 0 229.5 52.5t184 138t119.5 195t44 222.5q0 189 -112.5 300.5t-312.5 111.5q-125 0 -234.5 -53.5t-183 -140t-116 -195t-42.5 -218.5z" />
<glyph unicode="&#x1d2;" horiz-adv-x="1346" d="M655 1278l-155 357h260l75 -187l175 187h284l-341 -357h-298zM734 1117q-178 0 -328 -89t-234.5 -234.5t-84.5 -310.5q0 -116 41.5 -212.5t114 -160.5t170.5 -99t210 -35q128 0 247 49.5t206.5 134t140 202.5t52.5 248q0 233 -149 370t-386 137zM634 267 q-110 0 -169.5 63.5t-59.5 161.5q0 133 90.5 233.5t225.5 100.5q101 0 165 -61.5t64 -162.5q0 -136 -93 -235.5t-223 -99.5z" />
<glyph unicode="&#x1d3;" horiz-adv-x="1629" d="M984 1748l-155 357h260l75 -187l175 187h284l-341 -357h-298zM739 -21q-88 0 -167 16.5t-150.5 54.5t-123.5 95t-82.5 142.5t-30.5 191.5q0 100 36 237l237 888h337l-246 -921q-23 -88 -23 -160q0 -108 68.5 -170t177.5 -62q143 0 240 99.5t139 255.5l257 958h334 l-269 -1003q-29 -110 -68 -199t-100 -170t-138.5 -135t-186 -86t-241.5 -32z" />
<glyph unicode="&#x1d4;" d="M701 1278l-155 357h260l75 -187l175 187h284l-341 -357h-298zM417 -22q-140 0 -231 88t-91 235q0 68 38 214l153 578h323l-156 -589q-14 -48 -14 -97q0 -67 41 -100t109 -33q92 0 150 60t83 156l159 603h322l-233 -893q-23 -89 -27 -162v-38h-323v36q4 50 11 82h-4 q-62 -60 -144.5 -100t-165.5 -40z" />
<glyph unicode="&#x1d5;" horiz-adv-x="1629" d="M739 -21q-88 0 -167 16.5t-150.5 54.5t-123.5 95t-82.5 142.5t-30.5 191.5q0 100 36 237l237 888h337l-246 -921q-23 -88 -23 -160q0 -108 68.5 -170t177.5 -62q143 0 240 99.5t139 255.5l257 958h334l-269 -1003q-29 -110 -68 -199t-100 -170t-138.5 -135t-186 -86 t-241.5 -32zM892 2347h746l-64 -240h-745zM923 2013q65 0 105 -40.5t40 -102.5q0 -74 -55 -130.5t-137 -56.5q-62 0 -104 39t-42 101q0 77 55.5 133.5t137.5 56.5zM1404 2013q65 0 105.5 -40.5t40.5 -102.5q0 -75 -54.5 -131t-138.5 -56q-62 0 -103.5 39t-41.5 101 q0 76 56 133t136 57z" />
<glyph unicode="&#x1d6;" d="M594 1876h747l-65 -240h-746zM633 1522q66 0 106.5 -40.5t40.5 -101.5q0 -76 -55 -132t-137 -56q-64 0 -105 38.5t-41 102.5q0 77 55 133t136 56zM1096 1522q65 0 105 -40.5t40 -101.5q0 -76 -54.5 -132t-137.5 -56q-63 0 -104.5 39t-41.5 102q0 77 56 133t137 56z M417 -22q-140 0 -231 88t-91 235q0 68 38 214l153 578h323l-156 -589q-14 -48 -14 -97q0 -67 41 -100t109 -33q92 0 150 60t83 156l159 603h322l-233 -893q-23 -89 -27 -162v-38h-323v36q4 50 11 82h-4q-62 -60 -144.5 -100t-165.5 -40z" />
<glyph unicode="&#x1d7;" horiz-adv-x="1629" d="M739 -21q-88 0 -167 16.5t-150.5 54.5t-123.5 95t-82.5 142.5t-30.5 191.5q0 100 36 237l237 888h337l-246 -921q-23 -88 -23 -160q0 -108 68.5 -170t177.5 -62q143 0 240 99.5t139 255.5l257 958h334l-269 -1003q-30 -110 -68.5 -198.5t-99.5 -169.5t-138.5 -135.5 t-186 -86.5t-241.5 -32zM1037 2066l311 365h385l-416 -365h-280zM926 2013q65 0 105 -40.5t40 -102.5q0 -74 -55 -130.5t-137 -56.5q-63 0 -104.5 39t-41.5 101q0 77 55.5 133.5t137.5 56.5zM1407 2013q65 0 105.5 -40.5t40.5 -102.5q0 -75 -54.5 -131t-138.5 -56 q-62 0 -103.5 39t-41.5 101q0 76 56 133t136 57z" />
<glyph unicode="&#x1d8;" d="M745 1595l332 385h389l-438 -385h-283zM633 1522q66 0 106.5 -40.5t40.5 -101.5q0 -76 -55 -132t-137 -56q-64 0 -105 38.5t-41 102.5q0 77 55 133t136 56zM1096 1522q65 0 105 -40.5t40 -101.5q0 -76 -54.5 -132t-137.5 -56q-63 0 -104.5 39t-41.5 102q0 77 56 133 t137 56zM417 -22q-140 0 -231 88t-91 235q0 68 38 214l153 578h323l-156 -589q-14 -48 -14 -97q0 -67 41 -100t109 -33q92 0 150 60t83 156l159 603h322l-233 -893q-23 -89 -27 -162v-38h-323v36q4 50 11 82h-4q-62 -60 -144.5 -100t-165.5 -40z" />
<glyph unicode="&#x1d9;" horiz-adv-x="1629" d="M739 -21q-88 0 -167 16.5t-150.5 54.5t-123.5 95t-82.5 142.5t-30.5 191.5q0 100 36 237l237 888h337l-246 -921q-23 -88 -23 -160q0 -108 68.5 -170t177.5 -62q143 0 240 99.5t139 255.5l257 958h334l-269 -1003q-30 -110 -68.5 -198.5t-99.5 -169.5t-138.5 -135.5 t-186 -86.5t-241.5 -32zM1024 2066l-153 357h260l73 -187l177 187h282l-340 -357h-299zM926 2013q65 0 105 -40.5t40 -102.5q0 -74 -55 -130.5t-137 -56.5q-63 0 -104.5 39t-41.5 101q0 77 55.5 133.5t137.5 56.5zM1407 2013q65 0 105.5 -40.5t40.5 -102.5q0 -75 -54.5 -131 t-138.5 -56q-62 0 -103.5 39t-41.5 101q0 76 56 133t136 57z" />
<glyph unicode="&#x1da;" d="M743 1595l-153 359h260l74 -189l176 189h282l-340 -359h-299zM633 1522q66 0 106.5 -40.5t40.5 -101.5q0 -76 -55 -132t-137 -56q-64 0 -105 38.5t-41 102.5q0 77 55 133t136 56zM1096 1522q65 0 105 -40.5t40 -101.5q0 -76 -54.5 -132t-137.5 -56q-63 0 -104.5 39 t-41.5 102q0 77 56 133t137 56zM417 -22q-140 0 -231 88t-91 235q0 68 38 214l153 578h323l-156 -589q-14 -48 -14 -97q0 -67 41 -100t109 -33q92 0 150 60t83 156l159 603h322l-233 -893q-23 -89 -27 -162v-38h-323v36q4 50 11 82h-4q-62 -60 -144.5 -100t-165.5 -40z" />
<glyph unicode="&#x1db;" horiz-adv-x="1629" d="M739 -21q-88 0 -167 16.5t-150.5 54.5t-123.5 95t-82.5 142.5t-30.5 191.5q0 100 36 237l237 888h337l-246 -921q-23 -88 -23 -160q0 -108 68.5 -170t177.5 -62q143 0 240 99.5t139 255.5l257 958h334l-269 -1003q-29 -110 -68 -199t-100 -170t-138.5 -135t-186 -86 t-241.5 -32zM1190 2429l109 -363h-244l-209 363h344zM926 2013q65 0 105 -40.5t40 -102.5q0 -74 -55 -130.5t-137 -56.5q-63 0 -104.5 39t-41.5 101q0 77 55.5 133.5t137.5 56.5zM1407 2013q65 0 105.5 -40.5t40.5 -102.5q0 -75 -54.5 -131t-138.5 -56q-62 0 -103.5 39 t-41.5 101q0 76 56 133t136 57z" />
<glyph unicode="&#x1dc;" d="M893 1980l115 -385h-244l-223 385h352zM633 1522q66 0 106.5 -40.5t40.5 -101.5q0 -76 -55 -132t-137 -56q-64 0 -105 38.5t-41 102.5q0 77 55 133t136 56zM1096 1522q65 0 105 -40.5t40 -101.5q0 -76 -54.5 -132t-137.5 -56q-63 0 -104.5 39t-41.5 102q0 77 56 133 t137 56zM417 -22q-140 0 -231 88t-91 235q0 68 38 214l153 578h323l-156 -589q-14 -48 -14 -97q0 -67 41 -100t109 -33q92 0 150 60t83 156l159 603h322l-233 -893q-23 -89 -27 -162v-38h-323v36q4 50 11 82h-4q-62 -60 -144.5 -100t-165.5 -40z" />
<glyph unicode="&#x1e6;" horiz-adv-x="1803" d="M1019 1748l-155 357h260l75 -187l175 187h284l-341 -357h-298zM890 -24q-175 0 -315.5 57t-229.5 155.5t-136 226t-47 272.5q0 179 71.5 349.5t195 301.5t304.5 211t386 80q131 0 243 -32t188 -82.5t133 -116.5t87 -131t41 -129l-321 -97q-9 38 -23.5 71t-46 72t-74 67 t-111 46.5t-154.5 18.5q-116 0 -222.5 -49.5t-184 -131.5t-123.5 -195t-46 -235q0 -87 25 -161t75 -132.5t133.5 -91.5t191.5 -33q159 0 279 74.5t166 200.5h-488l71 298h843q-11 -146 -50.5 -275t-113.5 -241.5t-177.5 -193.5t-249 -127.5t-320.5 -46.5z" />
<glyph unicode="&#x1e7;" horiz-adv-x="1413" d="M720 1278l-155 357h260l75 -187l175 187h284l-341 -357h-298zM834 141q-130 -119 -318 -119q-123 0 -221.5 61.5t-152 164.5t-53.5 225q0 134 51.5 255t135 204t190.5 131.5t216 48.5q123 0 212.5 -40.5t158.5 -137.5l42 159h318l-282 -1067q-26 -98 -61 -179t-90.5 -156 t-125 -126t-167.5 -81.5t-216 -30.5q-137 0 -246.5 40t-175.5 106t-100.5 145t-34.5 164l300 59q0 -96 66 -167t192 -71q118 0 206 76t127 224zM638 299q124 0 218.5 96t94.5 231q0 91 -61.5 147.5t-157.5 56.5q-129 0 -221.5 -97.5t-92.5 -231.5q0 -92 59.5 -147t160.5 -55 z" />
<glyph unicode="&#x1e8;" horiz-adv-x="1508" d="M949 1748l-155 357h260l75 -187l175 187h284l-341 -357h-298zM596 779l-208 -779h-336l428 1604h336l-180 -674l698 674h443l-841 -799l448 -805h-381z" />
<glyph unicode="&#x1e9;" horiz-adv-x="1266" d="M477 525h-3l-138 -525h-324l440 1670h323l-262 -999h3l452 422h441l-604 -533l323 -560h-372zM1010 1278l-155 357h260l75 -187l175 187h284l-341 -357h-298z" />
<glyph unicode="&#x1f4;" horiz-adv-x="1803" d="M980 1751l331 385h390l-439 -385h-282zM890 -24q-175 0 -315.5 57t-229.5 155.5t-136 226t-47 272.5q0 179 71.5 349.5t195 301.5t304.5 211t386 80q131 0 243 -32t188 -82.5t133 -116.5t87 -131t41 -129l-321 -97q-9 38 -23.5 71t-46 72t-74 67t-111 46.5t-154.5 18.5 q-116 0 -222.5 -49.5t-184 -131.5t-123.5 -195t-46 -235q0 -87 25 -161t75 -132.5t133.5 -91.5t191.5 -33q159 0 279 74.5t166 200.5h-488l71 298h843q-11 -146 -50.5 -275t-113.5 -241.5t-177.5 -193.5t-249 -127.5t-320.5 -46.5z" />
<glyph unicode="&#x1f5;" horiz-adv-x="1413" d="M591 1275l331 385h390l-439 -385h-282zM834 141q-130 -119 -318 -119q-123 0 -221.5 61.5t-152 164.5t-53.5 225q0 134 51.5 255t135 204t190.5 131.5t216 48.5q123 0 212.5 -40.5t158.5 -137.5l42 159h318l-282 -1067q-26 -98 -61 -179t-90.5 -156t-125 -126 t-167.5 -81.5t-216 -30.5q-137 0 -246.5 40t-175.5 106t-100.5 145t-34.5 164l300 59q0 -96 66 -167t192 -71q118 0 206 76t127 224zM638 299q124 0 218.5 96t94.5 231q0 91 -61.5 147.5t-157.5 56.5q-129 0 -221.5 -97.5t-92.5 -231.5q0 -92 59.5 -147t160.5 -55z" />
<glyph unicode="&#x1fa;" horiz-adv-x="1634" d="M1407 1838q11 -38 11 -79q0 -76 -32.5 -145.5t-90.5 -118.5l230 -1495h-340l-50 344h-688l-205 -344h-357l946 1544q-30 58 -30 128q0 140 101.5 242.5t249.5 102.5q60 0 111 -20l198 231h390zM1130 1842q-59 0 -102 -46t-43 -105q0 -48 28 -75.5t76 -27.5q58 0 102 46 t44 105q0 49 -28 76t-77 27zM627 648h465l-84 631z" />
<glyph unicode="&#x1fb;" horiz-adv-x="1412" d="M1180 1579q0 -139 -100 -242.5t-251 -103.5q-115 0 -191 72t-76 187q0 140 101.5 243t249.5 103q62 0 113 -21l197 230h390l-444 -388q11 -39 11 -80zM996 1560q0 48 -28 75t-76 27q-59 0 -102.5 -46t-43.5 -105q0 -48 28 -75.5t76 -27.5q59 0 102.5 46.5t43.5 105.5z M509 -21q-100 0 -181.5 38.5t-134 103.5t-80.5 149t-28 177q0 139 50.5 264t134 213t195.5 139t231 51q237 0 348 -184l43 163h321l-235 -894q-27 -104 -27 -161q-2 -9 0 -38h-322q-2 23 0 36q0 28 10 80l-5 1q-81 -68 -154.5 -103t-165.5 -35zM418 477q0 -100 64.5 -155 t165.5 -55q133 0 227.5 107t94.5 242q0 98 -68.5 155.5t-168.5 57.5q-89 0 -162.5 -52t-113 -132.5t-39.5 -167.5z" />
<glyph unicode="&#x1fc;" horiz-adv-x="2195" d="M1333 1751l331 385h390l-439 -385h-282zM226 0h-386l1252 1604h1268l-82 -307h-706l-89 -333h631l-82 -307h-631l-93 -350h712l-82 -307h-1045l85 320h-508zM1221 1301l-515 -673h355l180 673h-20z" />
<glyph unicode="&#x1fd;" horiz-adv-x="1959" d="M947 1275l331 385h390l-439 -385h-282zM458 212q-44 0 -76 27.5t-32 71.5q0 45 35 75.5t78 42t93 14.5l190 12l-4 -19q-22 -99 -101 -161.5t-183 -62.5zM1062 458h795q33 100 33 192q0 143 -67 250t-181.5 162t-258.5 55q-180 0 -340 -131q-109 133 -332 133 q-114 0 -212 -30.5t-164 -81t-109 -108.5t-61 -119l265 -80q22 72 88 117.5t146 45.5q75 0 116.5 -32.5t41.5 -82.5q0 -101 -120 -108l-231 -14q-64 -4 -123.5 -17.5t-118 -42t-102 -68t-70 -99t-26.5 -132.5q0 -121 92 -204.5t241 -83.5h9q151 0 265 47t225 155 q67 -97 176.5 -151t247.5 -54q171 0 307.5 76t220.5 227l-251 116q-34 -67 -101 -109.5t-157 -42.5q-96 0 -170 56.5t-74 158.5zM1099 669q26 84 105.5 138t168.5 54t150.5 -42.5t61.5 -127.5q0 -3 -0.5 -11t-0.5 -11h-485z" />
<glyph unicode="&#x1fe;" horiz-adv-x="1862" d="M989 1751l331 385h390l-439 -385h-282zM1732 1322q117 -176 117 -401q0 -145 -45 -285t-130.5 -258.5t-201 -209t-266.5 -141.5t-316 -51q-262 0 -455 143l-181 -173l-156 163l181 173q-117 176 -117 402q0 186 74 359t200 302t305 206.5t379 77.5q265 0 458 -144 l182 178l157 -163zM1083 1322q-126 0 -238 -55t-187 -143t-118 -198.5t-43 -222.5q0 -51 12 -105t28 -83l787 746q-37 28 -103 44.5t-138 16.5zM926 282q122 0 233 54t188 141t122 199t45 226q0 117 -39 187l-785 -745q31 -26 99 -44t137 -18z" />
<glyph unicode="&#x1ff;" horiz-adv-x="1346" d="M612 1275l331 385h390l-439 -385h-282zM1182 910q88 -126 88 -300t-89 -320.5t-237.5 -230t-319.5 -83.5q-191 0 -332 96l-148 -140l-111 117l143 137q-88 124 -88 297q0 123 50 239t135 203t206.5 139.5t255.5 52.5q193 0 331 -93l145 138l112 -117zM730 835 q-97 0 -174 -50t-117.5 -128t-40.5 -167q0 -48 12 -89l430 413q-48 21 -110 21zM628 258q139 0 235 102t96 243q0 50 -14 92l-430 -415q49 -22 113 -22z" />
<glyph unicode="&#x218;" horiz-adv-x="1433" d="M336 -793l33 121q90 10 154.5 64.5t78.5 129.5q-22 -9 -51 -9q-66 0 -105.5 38t-39.5 101q0 80 57 129.5t132 49.5q85 0 131.5 -56t46.5 -142q0 -169 -126.5 -295t-310.5 -131zM1466 1144l-311 -52q0 113 -76.5 177t-202.5 64q-95 0 -171.5 -51.5t-76.5 -143.5 q0 -31 14 -55.5t41 -43t49.5 -29.5t55.5 -23l153 -60q79 -31 145 -70t123.5 -92t90 -123t32.5 -150q0 -131 -52 -232t-141 -161.5t-200 -91t-237 -30.5q-96 0 -186.5 20.5t-171 63.5t-140.5 104.5t-94 149.5t-33 192v17l314 56v-11q-1 -136 93 -222.5t232 -86.5 q44 0 88.5 10t87 30t69 57t26.5 84q0 62 -40.5 103.5t-121.5 74.5l-147 58q-391 155 -391 436q0 97 34 181t92.5 144.5t136 104t165.5 65t179 21.5q118 0 221 -31.5t181.5 -90.5t124 -152.5t45.5 -210.5z" />
<glyph unicode="&#x219;" horiz-adv-x="1068" d="M474 225q55 0 96.5 27t41.5 72q0 58 -74 88l-121 47q-242 93 -242 285q0 107 62.5 194.5t162.5 134.5t213 47q77 0 152.5 -24.5t136 -68t98 -111.5t37.5 -147l-285 -31q0 61 -43 99t-100 38q-50 0 -88.5 -26t-38.5 -68q0 -58 69 -84l112 -44q60 -24 103 -48t83 -59 t61 -83t21 -108q0 -115 -67 -203t-172 -132t-226 -44q-90 0 -170 23t-143.5 66.5t-101 113t-37.5 155.5v9l285 45q-2 -76 49.5 -119.5t125.5 -43.5zM141 -672q90 10 154.5 64.5t78.5 129.5q-22 -9 -51 -9q-66 0 -105.5 38t-39.5 101q0 80 57 129.5t132 49.5q85 0 131.5 -56 t46.5 -142q0 -169 -126.5 -295t-310.5 -131z" />
<glyph unicode="&#x21a;" horiz-adv-x="1374" d="M714 0h-336l343 1287h-478l85 317h1293l-85 -317h-479zM230 -672q90 10 154.5 64.5t79.5 129.5q-22 -9 -52 -9q-65 0 -105 38t-40 101q0 80 57 129.5t133 49.5q84 0 130.5 -56t46.5 -142q0 -110 -56.5 -206.5t-157.5 -156.5t-223 -63z" />
<glyph unicode="&#x21b;" horiz-adv-x="928" d="M539 410q-7 -28 -7 -49q0 -103 132 -103q60 0 107 13l-68 -256q-69 -30 -171 -30q-154 0 -244 69t-90 218q0 66 20 144l106 401h-210l73 276h214l91 343h318l-90 -343h266l-76 -276h-263zM94 -672q90 10 154.5 64.5t78.5 129.5q-22 -9 -51 -9q-66 0 -105.5 38t-39.5 101 q0 80 57 129.5t132 49.5q85 0 131.5 -56t46.5 -142q0 -169 -126.5 -295t-310.5 -131z" />
<glyph unicode="&#x237;" horiz-adv-x="641" d="M316 1093h324l-338 -1287q-45 -172 -157.5 -259t-277.5 -87q-68 0 -128.5 13t-91.5 34l66 253q52 -22 107 -22q138 0 178 148z" />
<glyph unicode="&#x300;" horiz-adv-x="0" d="M119 1659l114 -384h-243l-223 384h352z" />
<glyph unicode="&#x301;" horiz-adv-x="0" d="M-812 1275l331 385h390l-439 -385h-282z" />
<glyph unicode="&#x302;" horiz-adv-x="0" d="M242 1635l155 -357h-260l-75 187l-175 -187h-284l341 357h298z" />
<glyph unicode="&#x303;" horiz-adv-x="0" d="M130 1278q-46 0 -88 15t-67 33.5t-57 33.5t-60 15q-59 0 -89 -95h-199l12 51q29 121 101.5 193t190.5 72q55 0 104 -24t89.5 -47.5t73.5 -23.5q22 0 39 7.5t28.5 24.5t16.5 27.5t13 31.5h192l-13 -52q-65 -262 -287 -262z" />
<glyph unicode="&#x304;" horiz-adv-x="0" d="M-341 1526h746l-64 -239h-746z" />
<glyph unicode="&#x306;" horiz-adv-x="0" d="M-43 1269q-151 0 -250.5 94.5t-99.5 243.5v28h235q-1 -65 33.5 -106.5t98.5 -41.5t110 41.5t67 106.5h242q-42 -161 -158.5 -263.5t-277.5 -102.5z" />
<glyph unicode="&#x307;" horiz-adv-x="0" d="M33 1654q77 0 124.5 -47.5t47.5 -119.5q0 -89 -64.5 -155.5t-162.5 -66.5q-75 0 -123.5 46t-48.5 120q0 90 66 156.5t161 66.5z" />
<glyph unicode="&#x308;" horiz-adv-x="0" d="M-208 1593q65 0 105.5 -40t40.5 -102q0 -75 -55 -131.5t-137 -56.5q-63 0 -104.5 39t-41.5 102q0 76 56 132.5t136 56.5zM254 1593q65 0 105.5 -40t40.5 -102q0 -75 -55 -131.5t-137 -56.5q-63 0 -104.5 39t-41.5 102q0 76 56 132.5t136 56.5z" />
<glyph unicode="&#x30a;" horiz-adv-x="0" d="M309 1579q0 -139 -100 -242.5t-251 -103.5q-115 0 -191 72t-76 187q0 140 101.5 243t249.5 103q119 0 193 -73.5t74 -185.5zM125 1560q0 48 -28 75t-76 27q-59 0 -102.5 -46t-43.5 -105q0 -48 28 -75.5t76 -27.5q59 0 102.5 46.5t43.5 105.5z" />
<glyph unicode="&#x30b;" horiz-adv-x="0" d="M-596 1275l330 385h386l-439 -385h-277zM-120 1275l331 385h385l-439 -385h-277z" />
<glyph unicode="&#x30c;" horiz-adv-x="0" d="M-242 1278l-155 357h260l75 -187l175 187h284l-341 -357h-298z" />
<glyph unicode="&#x312;" horiz-adv-x="0" d="M232 1765q-90 -10 -154 -64.5t-79 -130.5q21 10 52 10q65 0 104.5 -38.5t39.5 -101.5q0 -80 -56.5 -129t-132.5 -49q-84 0 -130.5 56t-46.5 142q0 168 126 294.5t310 131.5z" />
<glyph unicode="&#x326;" horiz-adv-x="0" d="M-222 -672q90 10 154.5 64.5t78.5 129.5q-22 -9 -51 -9q-66 0 -105.5 38t-39.5 101q0 80 57 129.5t132 49.5q85 0 131.5 -56t46.5 -142q0 -169 -126.5 -295t-310.5 -131z" />
<glyph unicode="&#x327;" horiz-adv-x="0" d="M-136 -535q-92 0 -166 22l54 207q51 -9 94 -9q100 0 153 68.5t53 176.5q0 46 -9 70h230q13 -21 21 -61.5t8 -74.5q0 -197 -118 -298t-320 -101z" />
<glyph unicode="&#x328;" horiz-adv-x="0" d="M121 -534q-53 -10 -126 -10q-49 0 -95.5 12t-87.5 36.5t-65.5 67.5t-24.5 99q0 43 20 85.5t46 74t70 67t73 55t75 47.5h272q-37 -18 -76.5 -42t-85 -57.5t-74.5 -72.5t-29 -73q0 -47 41.5 -72t92.5 -25q7 0 25 2z" />
<glyph unicode="&#x398;" horiz-adv-x="1863" d="M1120 1629q162 0 299 -54.5t231 -149t146.5 -224.5t52.5 -280q0 -145 -45 -285t-130.5 -258.5t-201 -209t-266.5 -141.5t-316 -51q-154 0 -288 51.5t-231 143t-153 224.5t-56 289q0 186 74 359t200 302t305 206.5t379 77.5zM502 705q0 -189 115 -302t312 -113 q121 0 230.5 53t185 138.5t120 195.5t44.5 223q0 190 -114 302t-314 112q-125 0 -235.5 -54t-184.5 -140.5t-116.5 -195.5t-42.5 -219zM1419 964h-740l-83 -308l741 1z" />
<glyph unicode="&#x3a9;" horiz-adv-x="1834" d="M1093 1313q-111 0 -211.5 -43.5t-173 -116.5t-115 -172.5t-42.5 -206.5q0 -121 74 -202t196 -110l-123 -462h-699l76 282h392l11 39q-122 59 -196 184t-74 269q0 159 52 298t141.5 239.5t207.5 172.5t252 108t273 36t256.5 -37t198 -99t137 -144.5t83 -171.5t26.5 -182 q0 -148 -77 -288.5t-209.5 -244t-293.5 -150.5l-7 -29h392l-75 -282h-699l122 461q86 5 176.5 50t162.5 114t118.5 162.5t46.5 186.5q0 158 -110.5 248.5t-288.5 90.5z" />
<glyph unicode="&#x3b8;" horiz-adv-x="1500" d="M1495 1043q0 -118 -26 -242.5t-73.5 -243t-120 -223t-161 -183.5t-202 -125t-236.5 -46q-132 0 -234 47.5t-166 133t-96.5 199t-32.5 249.5q0 118 25.5 242t72.5 243t119.5 224t160.5 184.5t202.5 125.5t239.5 46q110 0 199.5 -34.5t150 -93.5t101 -140t59 -172 t18.5 -191zM522 967h655q2 20 2 58q0 58 -5 105.5t-21 97t-41.5 83t-70 55t-103.5 21.5q-94 0 -180 -61.5t-144.5 -154.5t-91.5 -204zM1121 700h-656q-3 -36 -3 -70q0 -56 6 -104.5t21.5 -97.5t41 -83t67 -55.5t96.5 -21.5q73 0 141 35.5t121.5 96t95.5 137t69 163.5z" />
<glyph unicode="&#x3c0;" horiz-adv-x="1549" d="M1170 410q-7 -28 -7 -49q0 -102 131 -102q55 0 107 13l-67 -254q-69 -30 -171 -30q-153 0 -242 69t-89 216q0 66 20 143l105 403h-289l-215 -819h-321l215 819h-217l72 274h1374l-73 -274h-225z" />
<glyph unicode="&#x401;" horiz-adv-x="1361" d="M841 2052q65 0 105.5 -40t40.5 -101q0 -76 -54.5 -132t-137.5 -56q-63 0 -104.5 38.5t-41.5 101.5q0 77 55.5 133t136.5 56zM1323 2052q65 0 105.5 -40t40.5 -101q0 -76 -54.5 -132t-137.5 -56q-63 0 -104.5 38.5t-41.5 101.5q0 77 55.5 133t136.5 56zM52 0l429 1604 h1045l-82 -307h-712l-89 -334h637l-82 -306h-637l-94 -350h719l-82 -307h-1052z" />
<glyph unicode="&#x402;" horiz-adv-x="1735" d="M1054 -64q-136 0 -242 33l76 288q54 -16 114 -16q143 0 236 76t93 217q0 90 -62 137.5t-155 47.5q-185 0 -350 -114l-160 -605h-334l348 1303h-369l81 301h1281l-81 -301h-578l-107 -398q221 121 431 121q181 0 295 -121t114 -303q0 -181 -78.5 -332.5t-224 -242.5 t-328.5 -91z" />
<glyph unicode="&#x403;" horiz-adv-x="1241" d="M805 1745l331 385l390 -1l-439 -384h-282zM388 0h-336l428 1604h1005l-83 -310h-669z" />
<glyph unicode="&#x404;" horiz-adv-x="1781" d="M938 284q68 0 128 13.5t104 34.5t84 52.5t65.5 60.5t49.5 66.5t37 62.5t26 56l305 -118q-28 -72 -72.5 -142t-119 -143t-165.5 -127.5t-218.5 -89t-271.5 -34.5q-213 0 -377.5 85.5t-256 246t-91.5 372.5q0 204 76 382t204 301.5t301.5 194.5t364.5 71q138 0 254 -34 t194 -89t136 -128.5t88.5 -146.5t42.5 -149l-315 -99q-7 42 -20 80t-44 87t-74.5 84.5t-117.5 60t-168 24.5q-171 0 -319 -100.5t-216 -257.5h661l-75 -300h-625q14 -180 121.5 -278.5t303.5 -98.5z" />
<glyph unicode="&#x405;" horiz-adv-x="1435" d="M1466 1144l-311 -52q0 113 -76 177t-203 64q-95 0 -171 -51.5t-76 -143.5q0 -31 14 -55.5t40.5 -43t49 -29.5t55.5 -23l153 -60q79 -31 145 -70t123.5 -92t90 -123t32.5 -150q0 -131 -52 -232t-141 -161.5t-200 -91t-237 -30.5q-96 0 -186.5 20.5t-171 63.5t-140.5 104.5 t-94 149.5t-33 192v17l314 56v-11q-1 -136 93 -222.5t232 -86.5q44 0 88.5 10t87 30t69 57t26.5 84q0 62 -40.5 103.5t-121.5 74.5l-147 58q-390 154 -390 436q0 97 34 181t92.5 144.5t135.5 104t165 65t179 21.5q118 0 221 -31.5t181.5 -90.5t124 -152.5t45.5 -210.5z" />
<glyph unicode="&#x406;" horiz-adv-x="722" d="M480 1604h338l-428 -1604h-338z" />
<glyph unicode="&#x407;" horiz-adv-x="722" d="M502 2062q65 0 105.5 -40t40.5 -101q0 -76 -54.5 -132t-137.5 -56q-63 0 -104 38.5t-41 101.5q0 77 55 133t136 56zM955 2062q65 0 105.5 -40t40.5 -101q0 -76 -54.5 -132t-137.5 -56q-63 0 -104 38.5t-41 101.5q0 77 55 133t136 56zM480 1604h338l-428 -1604h-338z" />
<glyph unicode="&#x408;" horiz-adv-x="1286" d="M494 -21q-119 0 -221 52t-164.5 149t-62.5 216q0 138 48 302l331 11q-54 -193 -54 -251q0 -73 40.5 -119t115.5 -46q87 0 149.5 54.5t85.5 140.5l299 1116h336l-309 -1156q-125 -469 -594 -469z" />
<glyph unicode="&#x409;" horiz-adv-x="2505" d="M1894 702h-323l-104 -391h311q151 0 239.5 58t89.5 173q0 72 -57.5 116t-155.5 44zM1048 0l345 1294h-432l-167 -452q-119 -322 -241 -509.5t-276.5 -271.5t-359.5 -68h-6l79 297q67 0 124 29t106.5 82t100 144t96.5 198.5t103 263.5l220 597h1072l-162 -606h263 q131 0 235 -33t169.5 -90t100 -132t34.5 -161q0 -261 -190.5 -421.5t-533.5 -160.5h-680z" />
<glyph unicode="&#x40a;" horiz-adv-x="2500" d="M1050 0l179 672h-662l-179 -672h-336l428 1604h336l-171 -640h662l171 640h336l-171 -640h281q242 0 381.5 -114t139.5 -291q0 -109 -36.5 -200.5t-100.5 -157t-152.5 -111.5t-193.5 -68t-221 -22h-691zM1882 682h-314l-101 -376h310q150 0 235.5 55t85.5 166 q0 69 -54.5 112t-161.5 43z" />
<glyph unicode="&#x40b;" horiz-adv-x="1760" d="M847 911q223 114 431 114q192 0 304 -87t113 -247q0 -74 -19 -143l-144 -548h-334l112 421q19 70 19 125q0 83 -50.5 128t-149.5 45q-92 0 -190.5 -27.5t-172.5 -78.5l-162 -613h-334l348 1303h-369l81 301h1281l-81 -301h-578z" />
<glyph unicode="&#x40c;" horiz-adv-x="1508" d="M958 1751l331 385h390l-439 -385h-282zM596 779l-208 -779h-336l428 1604h336l-180 -674l698 674h443l-841 -799l448 -805h-381z" />
<glyph unicode="&#x40e;" horiz-adv-x="1482" d="M1076 1754q-164 0 -256 101t-95 274l191 33q34 -188 184 -188q152 0 235 188l181 -32q-51 -175 -163.5 -275.5t-276.5 -100.5zM282 1604l311 -1110q-74 -94 -169 -157t-192 -63q-78 0 -164 28l-79 -291q118 -36 221 -36q372 0 706 454l863 1175h-382l-562 -774l-199 774 h-354z" />
<glyph unicode="&#x40f;" horiz-adv-x="1705" d="M1373 0h-494l-90 -336h-327l90 336h-500l429 1604h336l-346 -1293h650l345 1293h336z" />
<glyph unicode="&#x410;" horiz-adv-x="1634" d="M1525 0h-340l-50 344h-688l-205 -344h-357l983 1604h410zM1092 648l-84 631l-381 -631h465z" />
<glyph unicode="&#x411;" horiz-adv-x="1546" d="M480 1604h1144l-80 -302h-810l-90 -338h307q243 0 381.5 -112.5t138.5 -291.5q0 -177 -91 -304.5t-251.5 -191.5t-374.5 -64h-702zM915 684h-345l-101 -375h342q45 0 86 5.5t84 20.5t74 39t50.5 64t19.5 92q0 71 -57 112.5t-153 41.5z" />
<glyph unicode="&#x412;" horiz-adv-x="1548" d="M987 1301h-259l-94 -349h285q59 0 108 9t94.5 29.5t71.5 61.5t26 99q0 43 -20.5 73.5t-55.5 46.5t-73 23t-83 7zM866 667h-307l-97 -363h334q78 0 142.5 19t110.5 67.5t46 121.5q0 44 -20 75.5t-54.5 48t-72.5 24t-82 7.5zM742 0h-690l428 1604h531q80 0 154 -11.5 t146 -40.5t125.5 -72.5t86 -112.5t32.5 -156q0 -156 -94 -261t-250 -136v-1q220 -97 220 -323q0 -107 -42.5 -193t-110.5 -140.5t-160 -90.5t-185 -51t-191 -15z" />
<glyph unicode="&#x413;" horiz-adv-x="1241" d="M388 0h-336l428 1604h1005l-83 -310h-669z" />
<glyph unicode="&#x414;" horiz-adv-x="1862" d="M800 1604h1081l-347 -1300h168l-171 -640h-327l90 336h-1081l-90 -336h-326l171 640q90 2 180 60t168 157.5t144.5 223.5t119.5 267zM1200 307l266 997h-444l-130 -347q-192 -511 -447 -650h755z" />
<glyph unicode="&#x415;" horiz-adv-x="1361" d="M52 0l429 1604h1045l-82 -307h-712l-89 -334h637l-82 -306h-637l-94 -350h719l-82 -307h-1052z" />
<glyph unicode="&#x416;" horiz-adv-x="2271" d="M831 0l208 779h-10l-717 -779h-453l834 858l-383 746h354l385 -752l10 1l201 751h332l-201 -752h11l725 752h414l-809 -826l404 -778h-377l-378 779h-9l-208 -779h-333z" />
<glyph unicode="&#x417;" horiz-adv-x="1409" d="M1527 1604l-90 -345l-472 -307q149 -44 242.5 -147.5t93.5 -248.5q0 -137 -56.5 -249t-152 -183.5t-217 -109.5t-256.5 -38q-149 0 -277 59t-209 175t-81 266q0 5 0.5 16.5t0.5 18.5l351 42l-1 -21q-3 -111 66 -181t183 -70q116 0 207 77.5t91 190.5q0 81 -68 137 t-153 56q-77 0 -156 -34l-101 242l541 355h-709l80 299h1143z" />
<glyph unicode="&#x418;" horiz-adv-x="1772" d="M480 1604h333l-296 -1111l960 1111h391l-428 -1604h-333l301 1122l-963 -1122h-393z" />
<glyph unicode="&#x419;" horiz-adv-x="1772" d="M1222 1754q-164 0 -256 101t-95 274l191 33q34 -188 184 -188q152 0 235 188l181 -32q-51 -175 -163.5 -275.5t-276.5 -100.5zM1408 1122l-301 -1122h333l428 1604h-391l-960 -1111l296 1111h-333l-428 -1604h393z" />
<glyph unicode="&#x41a;" horiz-adv-x="1508" d="M596 779l-208 -779h-336l428 1604h336l-180 -674l698 674h443l-841 -799l448 -805h-381z" />
<glyph unicode="&#x41b;" horiz-adv-x="1716" d="M795 842q-176 -479 -375 -676t-502 -173h-6l79 297q67 0 124 29t106.5 82t100 144t96.5 198.5t103 263.5l220 597h1072l-429 -1604h-335l346 1294h-433z" />
<glyph unicode="&#x41c;" horiz-adv-x="2168" d="M1836 0h-331l293 1102h-4l-737 -1102h-217l-161 1100h-3l-294 -1100h-330l428 1604h429l164 -1067l705 1067h487z" />
<glyph unicode="&#x41d;" horiz-adv-x="1718" d="M1224 651h-662l-174 -651h-336l428 1604h336l-170 -635h662l170 635h336l-428 -1604h-336z" />
<glyph unicode="&#x41e;" horiz-adv-x="1863" d="M1120 1629q162 0 299 -54.5t231 -149t146.5 -224.5t52.5 -280q0 -145 -45 -285t-130.5 -258.5t-201 -209t-266.5 -141.5t-316 -51q-154 0 -288 51.5t-231 143t-153 224.5t-56 289q0 186 74 359t200 302t305 206.5t379 77.5zM505 705q0 -188 114 -300.5t310 -112.5 q121 0 229.5 52.5t184 138t119.5 195t44 222.5q0 189 -112.5 300.5t-312.5 111.5q-125 0 -234.5 -53.5t-183 -140t-116 -195t-42.5 -218.5z" />
<glyph unicode="&#x41f;" horiz-adv-x="1705" d="M1383 1295h-650l-346 -1295h-335l428 1604h1321l-428 -1604h-336z" />
<glyph unicode="&#x420;" horiz-adv-x="1445" d="M814 568h-274l-151 -568h-337l428 1604h472q250 0 394 -91q187 -119 187 -364q0 -181 -96 -314.5t-257.5 -200t-365.5 -66.5zM953 1293h-219l-113 -422h228q155 0 247 65t92 182q0 81 -62 128q-59 47 -173 47z" />
<glyph unicode="&#x421;" horiz-adv-x="1776" d="M899 -24q-213 0 -380 87t-261.5 248.5t-94.5 373.5q0 200 79 377t210 300.5t305 195t361 71.5q138 0 253.5 -34t193.5 -88t135.5 -126.5t88 -145.5t42.5 -149l-322 -103q-7 41 -21 79t-46 86t-76.5 82t-119 58t-168.5 24q-150 0 -281 -79.5t-210 -218t-79 -301.5 q0 -202 110 -311.5t321 -109.5q68 0 127.5 13.5t103 33.5t82.5 51.5t63.5 59t48.5 65.5t35.5 61.5t25.5 55.5l309 -120q-28 -73 -71.5 -142.5t-116 -142.5t-161.5 -127.5t-215.5 -89t-270.5 -34.5z" />
<glyph unicode="&#x422;" horiz-adv-x="1371" d="M713 0h-336l343 1287h-478l85 317h1293l-85 -317h-479z" />
<glyph unicode="&#x423;" horiz-adv-x="1482" d="M593 494l-311 1110h354l199 -774l562 774h382l-863 -1175q-334 -454 -706 -454q-103 0 -221 36l79 291q86 -28 164 -28q97 0 192 63t169 157z" />
<glyph unicode="&#x424;" horiz-adv-x="2101" d="M1521 1654l-38 -145q294 -15 454.5 -175.5t160.5 -418.5q0 -144 -46.5 -270.5t-129.5 -221t-195 -163t-246 -103.5t-280 -35h-89l-46 -172h-336l46 172q-197 12 -336.5 92.5t-207 209.5t-67.5 295q0 181 72.5 331.5t196 250t287 154t346.5 54.5h79l39 145h336zM1066 1206 h-46q-138 0 -253 -51t-187.5 -156t-72.5 -246q0 -148 94 -235t256 -94zM1193 425h54q138 0 251.5 50.5t185 155t71.5 246.5q0 152 -94.5 237.5t-258.5 91.5z" />
<glyph unicode="&#x425;" horiz-adv-x="1543" d="M1408 0h-379l-234 565l-513 -565h-415l792 836l-351 768h374l222 -517l465 517h435l-765 -799z" />
<glyph unicode="&#x426;" horiz-adv-x="1783" d="M471 311h650l345 1293h336l-345 -1293h168l-173 -647h-327l90 336h-1163l429 1604h336z" />
<glyph unicode="&#x427;" horiz-adv-x="1570" d="M1238 0h-337l171 636q-276 -123 -474 -123q-179 0 -280 96.5t-101 273.5q0 76 25 169l147 552h336l-129 -492q-17 -63 -17 -112q0 -94 53.5 -132.5t150.5 -38.5q174 0 370 111l177 664h336z" />
<glyph unicode="&#x428;" horiz-adv-x="2498" d="M480 1604h336l-345 -1293h553l346 1293h335l-345 -1293h552l345 1293h337l-428 -1604h-2114z" />
<glyph unicode="&#x429;" horiz-adv-x="2575" d="M480 1604h336l-345 -1293h553l345 1293h336l-345 -1293h552l345 1293h337l-345 -1293h168l-173 -647h-327l90 336h-1955z" />
<glyph unicode="&#x42a;" horiz-adv-x="1735" d="M1042 1604l-162 -606h262q131 0 235.5 -33t170 -90t100 -132t34.5 -161q0 -261 -190.5 -421.5t-533.5 -160.5h-681l346 1295h-382l82 309h719zM1123 702h-322l-105 -391h311q151 0 240 58t89 173q0 73 -57.5 116.5t-155.5 43.5z" />
<glyph unicode="&#x42b;" horiz-adv-x="2277" d="M917 998q131 0 235.5 -33t170 -90t100 -132t34.5 -161q0 -128 -48 -234.5t-138 -184t-228 -120.5t-310 -43h-681l428 1604h336l-162 -606h263zM2373 1604h-338l-428 -1604h338zM471 311h311q151 0 240 58t89 173q0 73 -57.5 116.5t-155.5 43.5h-323z" />
<glyph unicode="&#x42c;" horiz-adv-x="1510" d="M917 998q131 0 235.5 -33t170 -90t100 -132t34.5 -161q0 -128 -48 -234.5t-138 -184t-228 -120.5t-310 -43h-681l428 1604h336l-162 -606h263zM471 311h311q151 0 240 58t89 173q0 73 -57.5 116.5t-155.5 43.5h-323z" />
<glyph unicode="&#x42d;" horiz-adv-x="1767" d="M1020 1629q171 0 311 -57.5t230 -156t139 -225.5t49 -269q0 -124 -30.5 -243.5t-86.5 -224t-139.5 -192.5t-186 -151t-230 -98.5t-266.5 -35.5q-181 0 -333 63.5t-252.5 182.5t-126.5 275l316 99q32 -151 150.5 -231.5t286.5 -80.5q170 0 307.5 104t201.5 273h-634 l73 299h605q-6 97 -56.5 177.5t-146 131t-220.5 50.5q-155 0 -285.5 -83.5t-193.5 -220.5l-305 118q53 123 144.5 219.5t202 156t232 90t244.5 30.5z" />
<glyph unicode="&#x42e;" horiz-adv-x="2472" d="M1759 1629q211 0 371 -91t244 -249.5t84 -359.5q0 -182 -68.5 -354.5t-188 -305t-295.5 -213t-377 -80.5q-145 0 -272 47t-222 132.5t-151 215t-60 285.5h-260l-175 -656h-337l428 1604h337l-176 -658h222q42 141 126.5 265.5t199.5 217t263 146.5t307 54zM1162 698 q0 -190 108 -302.5t294 -112.5q116 0 220.5 54.5t176 142t113.5 198.5t42 224q0 191 -104 304t-295 113q-121 0 -226.5 -54.5t-176.5 -143t-111.5 -199.5t-40.5 -224z" />
<glyph unicode="&#x42f;" horiz-adv-x="1505" d="M490 656q-238 104 -238 371t201.5 422t536.5 155h612l-429 -1604h-336l155 582h-191l-456 -582h-399zM957 1300q-171 0 -266 -66t-95 -185q0 -85 64.5 -131t176.5 -46h233l114 428h-227z" />
<glyph unicode="&#x430;" horiz-adv-x="1410" d="M507 -21q-132 0 -230 66.5t-145.5 171t-47.5 230.5q0 139 50 264t134 213t195.5 139t230.5 51q237 0 348 -184l43 163h321l-235 -894q-22 -80 -27 -161q-2 -9 0 -38h-322v36q3 45 10 80l-4 1q-82 -69 -155.5 -103.5t-165.5 -34.5zM416 477q0 -99 64.5 -154.5t165.5 -55.5 q133 0 227.5 107t94.5 242q0 98 -68.5 155.5t-168.5 57.5q-89 0 -162.5 -52t-113 -132.5t-39.5 -167.5z" />
<glyph unicode="&#x431;" horiz-adv-x="1407" d="M679 -23q-246 0 -389 166t-143 438q0 308 115 541.5t342 368.5q76 45 174 72t237 51l325 56l31 -268l-368 -70q-76 -14 -135.5 -31t-128.5 -50t-120.5 -77t-98 -113.5t-74.5 -157.5l5 -2q75 83 183 128.5t231 45.5q206 0 332.5 -140t126.5 -345q0 -173 -87.5 -314 t-235 -220t-322.5 -79zM691 267q134 0 224 91.5t90 228.5q0 101 -65 165.5t-171 64.5q-123 0 -216 -94t-93 -226q0 -107 69 -168.5t162 -61.5z" />
<glyph unicode="&#x432;" horiz-adv-x="1309" d="M686 0h-674l288 1093h576q190 0 282.5 -74.5t92.5 -189.5q0 -106 -69.5 -178.5t-192.5 -100.5v-1q79 -24 128 -80.5t49 -139.5q0 -147 -124 -238t-356 -91zM449 457l-58 -217h280q84 0 133.5 33.5t49.5 90.5q0 45 -38.5 69t-106.5 24h-260zM557 871l-55 -210h243 q87 0 135.5 32t48.5 89q0 89 -138 89h-234z" />
<glyph unicode="&#x433;" horiz-adv-x="1008" d="M336 0h-324l288 1093h817l-72 -274h-493z" />
<glyph unicode="&#x434;" horiz-adv-x="1500" d="M488 1093h926l-217 -822h144l-160 -607h-300l88 336h-753l-89 -336h-300l160 609q207 0 410 566zM876 271l146 553h-314l-29 -86q-19 -56 -45.5 -115t-65 -128.5t-90 -129t-105.5 -92.5l1 -2h502z" />
<glyph unicode="&#x435;" horiz-adv-x="1292" d="M395 458q0 -102 74 -158.5t170 -56.5q91 0 157.5 42.5t100.5 109.5l251 -116q-84 -151 -220.5 -227t-307.5 -76q-231 0 -382 141t-151 363q0 131 53 250t140 203t201.5 134t234.5 50q144 0 258.5 -55t181.5 -162t67 -250q0 -92 -33 -192h-795zM432 669h482q1 8 1 23 q0 84 -60 126.5t-149 42.5t-168.5 -54t-105.5 -138z" />
<glyph unicode="&#x436;" horiz-adv-x="1877" d="M1250 1094l-132 -500h7l481 500h396l-554 -569l268 -525h-358l-249 536h-7l-140 -536h-322l140 528h-7l-469 -528h-423l565 595l-264 499h340l266 -508h7l133 508h322z" />
<glyph unicode="&#x437;" horiz-adv-x="1107" d="M735 652q116 -21 176 -93t60 -165q0 -124 -68.5 -220t-182 -146.5t-250.5 -50.5q-83 0 -161 23t-143.5 67.5t-103 118.5t-32.5 166l276 45q-2 -79 43.5 -122t130.5 -43q73 0 127 37t54 107q0 47 -37 73.5t-93 26.5q-58 0 -127 -25l-63 178l331 200h-511l68 264h894 l-66 -252z" />
<glyph unicode="&#x438;" horiz-adv-x="1351" d="M919 654h-3l-580 -654h-326l292 1093h317l-172 -654h2l581 654h322l-291 -1093h-318z" />
<glyph unicode="&#x439;" horiz-adv-x="1351" d="M891 1266q-164 0 -256 101t-95 274l191 33q34 -188 184 -188q152 0 235 188l181 -32q-51 -175 -163.5 -275.5t-276.5 -100.5zM919 654h-3l-580 -654h-326l292 1093h317l-172 -654h2l581 654h322l-291 -1093h-318z" />
<glyph unicode="&#x43a;" horiz-adv-x="1284" d="M466 484h-4l-128 -484h-322l287 1093h323l-121 -460h3l492 460h425l-623 -569l360 -524h-377z" />
<glyph unicode="&#x43b;" horiz-adv-x="1383" d="M62 -10q-92 0 -127 15l68 258q39 -3 72 14t61 48.5t60 96t60.5 134.5t71.5 186l130 351h925l-288 -1093h-323l216 824h-306l-100 -275q-34 -93 -73 -172.5t-88.5 -152t-104 -123.5t-120 -81t-134.5 -30z" />
<glyph unicode="&#x43c;" horiz-adv-x="1703" d="M1297 747h-4l-464 -747h-221l-85 741h-4l-195 -741h-312l288 1093h427l77 -716l456 716h443l-288 -1093h-314z" />
<glyph unicode="&#x43d;" horiz-adv-x="1322" d="M820 416h-376l-109 -416h-323l287 1093h323l-108 -412h375l109 412h324l-288 -1093h-324z" />
<glyph unicode="&#x43e;" horiz-adv-x="1346" d="M734 1117q237 0 386 -137t149 -370q0 -130 -52.5 -248t-140 -202.5t-206.5 -134t-247 -49.5q-112 0 -210 35t-170.5 99t-114 160.5t-41.5 212.5q0 165 84.5 310.5t234.5 234.5t328 89zM634 267q130 0 223 99.5t93 235.5q0 101 -64 162.5t-165 61.5q-135 0 -225.5 -100.5 t-90.5 -233.5q0 -98 59.5 -161.5t169.5 -63.5z" />
<glyph unicode="&#x43f;" horiz-adv-x="1317" d="M921 819h-369l-215 -819h-325l288 1093h1017l-288 -1093h-323z" />
<glyph unicode="&#x440;" horiz-adv-x="1408" d="M-131 -540l430 1633h315l-30 -115l4 -1q77 64 153 100.5t169 36.5q133 0 231 -66t145 -170.5t48 -231.5q0 -139 -50.5 -264t-135 -213t-197 -139t-232.5 -51q-226 0 -341 174h-3l-182 -693h-324zM450 480q0 -99 67.5 -156t165.5 -57q125 0 221.5 101.5t96.5 250.5 q0 98 -62 154t-168 56q-87 0 -162 -51t-117 -131.5t-42 -166.5z" />
<glyph unicode="&#x441;" horiz-adv-x="1287" d="M626 -24q-154 0 -274.5 58.5t-192 174.5t-71.5 273q0 128 52.5 245.5t139.5 203t206.5 136t248.5 50.5q217 0 356 -109t164 -270l-294 -84q-13 69 -78.5 120.5t-159.5 51.5q-131 0 -223.5 -97.5t-92.5 -236.5q0 -101 61 -163t168 -62q98 0 172 50.5t105 116.5l277 -105 q-65 -156 -217 -254.5t-347 -98.5z" />
<glyph unicode="&#x442;" horiz-adv-x="1059" d="M555 0h-326l216 819h-327l72 274h981l-73 -274h-327z" />
<glyph unicode="&#x443;" horiz-adv-x="1256" d="M-32 -539l358 553l-147 1079h322l79 -717l442 717h359l-1063 -1632h-350z" />
<glyph unicode="&#x444;" horiz-adv-x="1886" d="M983 70l-150 -570h-321l148 566q-126 -87 -252 -87q-152 0 -240 114t-88 298q0 104 24 206.5t73 195t117.5 163t164.5 112t207 41.5q137 0 243 -100l168 639h322l-167 -632q135 93 255 93q152 0 240 -116.5t88 -301.5q0 -130 -39 -255.5t-110.5 -228t-185.5 -165.5 t-251 -63q-152 0 -246 91zM707 834q-75 0 -135 -40t-95 -102.5t-53 -131t-18 -133.5q0 -78 45 -124.5t120 -46.5q80 0 151 41l129 491q-64 46 -144 46zM1188 255q60 0 111.5 26t85.5 68t58 96t35 108t11 105q0 79 -45.5 127.5t-119.5 48.5q-84 0 -151 -42l-129 -491 q63 -46 144 -46z" />
<glyph unicode="&#x445;" horiz-adv-x="1188" d="M1030 0h-360l-122 308l-275 -308h-383l538 564l-256 529h363l119 -300l265 300h384l-524 -550z" />
<glyph unicode="&#x446;" horiz-adv-x="1400" d="M1101 275h139l-160 -611h-302l89 336h-855l287 1093h324l-216 -818h370l216 818h324z" />
<glyph unicode="&#x447;" horiz-adv-x="1241" d="M953 0h-324l100 372q-67 -26 -155 -43.5t-156 -17.5q-144 0 -226 77t-82 206q0 53 16 114l101 385h326l-84 -325q-14 -50 -14 -82q0 -52 31.5 -79t87.5 -27q125 0 223 52l120 461h323z" />
<glyph unicode="&#x448;" horiz-adv-x="1975" d="M300 1094h324l-216 -819h352l216 819h323l-215 -819h351l216 819h324l-288 -1094h-1675z" />
<glyph unicode="&#x449;" horiz-adv-x="2059" d="M1758 273h141l-161 -611h-301l89 338h-1514l288 1094h323l-216 -819h353l215 819h324l-216 -819h351l216 819h324z" />
<glyph unicode="&#x44a;" horiz-adv-x="1467" d="M975 759q190 0 300 -88.5t110 -230.5q0 -203 -148 -321.5t-402 -118.5h-596l215 817h-342l72 276h666l-88 -334h213zM702 529l-74 -280h195q112 0 176.5 43.5t64.5 124.5q0 49 -40.5 80.5t-112.5 31.5h-209z" />
<glyph unicode="&#x44b;" horiz-adv-x="1864" d="M609 0h-597l288 1093h324l-88 -334h213q189 0 299 -88.5t110 -230.5q0 -203 -147.5 -321.5t-401.5 -118.5zM685 529h-210l-74 -280h195q112 0 177 43.5t65 124.5q0 49 -40.5 80.5t-112.5 31.5zM1864 1093l-289 -1093h-324l289 1093h324z" />
<glyph unicode="&#x44c;" horiz-adv-x="1241" d="M12 0l288 1093h324l-88 -334h213q189 0 299 -88.5t110 -230.5q0 -203 -147.5 -321.5t-401.5 -118.5h-597zM475 529l-74 -280h195q112 0 177 43.5t65 124.5q0 49 -40.5 80.5t-112.5 31.5h-210z" />
<glyph unicode="&#x44d;" horiz-adv-x="1281" d="M576 -25q-92 0 -178 23t-159 67t-124.5 116t-68.5 163l285 86q25 -85 93 -128.5t159 -43.5q83 0 155 51t113 133h-370l54 220h351q-16 75 -79 123t-148 48q-90 0 -166.5 -43t-111.5 -123l-275 87q38 115 128 199t202.5 124t234.5 40q243 0 387 -138.5t144 -370.5 q0 -132 -50.5 -250.5t-135.5 -201.5t-200 -132t-240 -49z" />
<glyph unicode="&#x44e;" horiz-adv-x="1852" d="M1276 1117q122 0 218 -38.5t157 -106.5t93 -158t32 -195q0 -123 -48 -240t-130 -206t-200 -143t-250 -54q-215 0 -353.5 114.5t-149.5 324.5h-200l-109 -415h-324l288 1093h324l-110 -416h160q21 61 58 121.5t93 118t122.5 102t152 71.5t176.5 27zM1159 267 q131 0 217 100t86 239q0 99 -55 161t-157 62q-129 0 -214.5 -104t-85.5 -240q0 -100 54 -159t155 -59z" />
<glyph unicode="&#x44f;" horiz-adv-x="1307" d="M1018 0h-322l87 333h-162l-286 -333h-380l346 392q-85 37 -126 107.5t-41 161.5q0 196 148 314.5t388 118.5h636zM843 560l75 286h-218q-115 0 -178.5 -44.5t-63.5 -125.5q0 -59 43 -87.5t117 -28.5h225z" />
<glyph unicode="&#x451;" horiz-adv-x="1292" d="M586 1593q65 0 105.5 -40t40.5 -102q0 -75 -55 -131.5t-137 -56.5q-63 0 -104.5 39t-41.5 102q0 76 56 132.5t136 56.5zM1048 1593q65 0 105.5 -40t40.5 -102q0 -75 -55 -131.5t-137 -56.5q-63 0 -104.5 39t-41.5 102q0 76 56 132.5t136 56.5zM1190 458q33 100 33 192 q0 143 -67 250t-181.5 162t-258.5 55q-120 0 -234.5 -50t-201.5 -134t-140 -203t-53 -250q0 -222 151 -363t382 -141q171 0 307.5 76t220.5 227l-251 116q-34 -67 -100.5 -109.5t-157.5 -42.5q-96 0 -170 56.5t-74 158.5h795zM432 669q26 84 105.5 138t168.5 54t149 -42.5 t60 -126.5q0 -15 -1 -23h-482z" />
<glyph unicode="&#x452;" horiz-adv-x="1271" d="M725 1485h322l-57 -215h-321l-76 -287q64 59 143.5 95.5t161.5 36.5q147 0 234.5 -89t87.5 -234q0 -61 -38 -213l-183 -699q-51 -195 -191.5 -307t-320.5 -112q-99 0 -166 23l68 261q20 -4 46 -4q95 0 165.5 59t99.5 171l163 619q13 50 13 97q0 65 -40 98.5t-110 33.5 q-94 0 -151 -61t-82 -154l-158 -604h-323l333 1270h-136l57 215h136l48 183h324z" />
<glyph unicode="&#x453;" horiz-adv-x="1008" d="M573 1275l331 385h390l-439 -385h-282zM336 0h-324l288 1093h817l-72 -274h-493z" />
<glyph unicode="&#x454;" horiz-adv-x="1284" d="M1253 743l-286 -81q-16 70 -81.5 121t-160.5 51q-89 0 -168.5 -47.5t-121.5 -124.5h371l-54 -220h-349q14 -84 75 -133.5t162 -49.5q98 0 170.5 50t105.5 117l271 -102q-66 -154 -219.5 -251t-347.5 -97q-234 0 -383.5 136t-149.5 367q0 174 86.5 321t234 232t319.5 85 q217 0 359 -108t167 -266z" />
<glyph unicode="&#x455;" horiz-adv-x="1069" d="M474 225q55 0 96.5 27t41.5 72q0 58 -74 88l-121 47q-242 93 -242 285q0 107 62.5 194.5t162.5 134.5t213 47q77 0 152.5 -24.5t136 -68t98 -111.5t37.5 -147l-285 -31q0 61 -43 99t-100 38q-50 0 -88.5 -26t-38.5 -68q0 -58 69 -84l112 -44q60 -24 103 -48t83 -59 t61 -83t21 -108q0 -115 -67 -203t-172 -132t-226 -44q-90 0 -170 23t-143.5 66.5t-101 113t-37.5 155.5v9l285 45q-2 -76 49.5 -119.5t125.5 -43.5z" />
<glyph unicode="&#x456;" horiz-adv-x="625" d="M587 1674q76 0 126.5 -47.5t50.5 -122.5q1 -95 -66.5 -161.5t-162.5 -66.5q-76 0 -126 47.5t-50 123.5q-1 94 66.5 160.5t161.5 66.5zM336 0h-325l289 1093h325z" />
<glyph unicode="&#x457;" horiz-adv-x="625" d="M337 1593q65 0 105.5 -40t40.5 -102q0 -75 -55 -131.5t-137 -56.5q-63 0 -104.5 39t-41.5 102q0 76 56 132.5t136 56.5zM790 1593q65 0 105.5 -40t40.5 -102q0 -75 -55 -131.5t-137 -56.5q-62 0 -103.5 39t-41.5 102q0 76 55.5 132.5t135.5 56.5zM11 0l289 1093h325 l-289 -1093h-325z" />
<glyph unicode="&#x458;" horiz-adv-x="641" d="M605 1674q75 0 125.5 -47.5t50.5 -122.5q0 -95 -67.5 -161.5t-162.5 -66.5q-76 0 -126 47.5t-50 123.5q0 94 67.5 160.5t162.5 66.5zM640 1093l-338 -1287q-45 -172 -157.5 -259t-277.5 -87q-68 0 -128.5 13t-91.5 34l66 253q52 -22 107 -22q138 0 178 148l318 1207h324z " />
<glyph unicode="&#x459;" horiz-adv-x="2000" d="M62 -10q-92 0 -127 15l68 258q39 -3 72 14t61 48.5t60 96t60.5 134.5t71.5 186l130 351h926l-88 -334h213q189 0 299 -88.5t110 -230.5q0 -203 -147.5 -321.5t-401.5 -118.5h-597l217 824h-307l-100 -275q-34 -93 -73 -172.5t-88.5 -152t-104 -123.5t-120 -81t-134.5 -30 zM1445 529h-210l-74 -280h195q112 0 177 43.5t65 124.5q0 49 -40.5 80.5t-112.5 31.5z" />
<glyph unicode="&#x45a;" horiz-adv-x="1940" d="M1303 0h-586l126 480h-382l-126 -480h-323l287 1093h323l-91 -348h378l92 348h323l-92 -348h209q198 0 307.5 -87t109.5 -226q0 -202 -151.5 -317t-403.5 -115zM1348 539h-170l-80 -297h158q133 0 205 45.5t72 128.5q0 58 -51.5 90.5t-133.5 32.5z" />
<glyph unicode="&#x45b;" horiz-adv-x="1304" d="M725 1485h322l-57 -215h-322l-75 -287q64 59 143.5 95.5t161.5 36.5q147 0 234.5 -89t87.5 -234q0 -76 -38 -213l-152 -579h-324l156 590q14 47 14 97q0 65 -40 98.5t-110 33.5q-94 0 -151.5 -61t-81.5 -154l-158 -604h-323l333 1270h-136l57 215h135l48 183h324z" />
<glyph unicode="&#x45c;" horiz-adv-x="1284" d="M670 1275l331 385h390l-439 -385h-282zM466 484h-4l-128 -484h-322l287 1093h323l-121 -460h3l492 460h425l-623 -569l360 -524h-377z" />
<glyph unicode="&#x45e;" horiz-adv-x="1256" d="M835 1266q-164 0 -256 101t-95 274l191 33q34 -188 184 -188q152 0 235 188l181 -32q-51 -175 -163.5 -275.5t-276.5 -100.5zM-32 -539l358 553l-147 1079h322l79 -717l442 717h359l-1063 -1632h-350z" />
<glyph unicode="&#x45f;" horiz-adv-x="1318" d="M1030 0h-354l-89 -336h-301l88 336h-362l288 1093h323l-215 -817h372l215 817h323z" />
<glyph unicode="&#x490;" horiz-adv-x="1241" d="M388 0h-336l428 1604h679l88 331h327l-172 -641h-669z" />
<glyph unicode="&#x491;" horiz-adv-x="1008" d="M336 0h-324l288 1093h516l90 343h302l-163 -617h-493z" />
<glyph unicode="&#x496;" horiz-adv-x="2335" d="M1726 -336l90 336h-57l-378 779h-9l-208 -779h-333l208 779h-10l-717 -779h-453l834 858l-383 746h354l385 -752l10 1l201 751h332l-201 -752h11l725 752h414l-809 -826l243 -467h251l-173 -647h-327z" />
<glyph unicode="&#x497;" horiz-adv-x="1928" d="M1331 -336l89 336h-62l-249 536h-7l-140 -536h-322l140 528h-7l-469 -528h-423l565 595l-264 499h340l266 -508h7l133 508h322l-132 -500h7l481 500h396l-554 -569l128 -250h217l-160 -611h-302z" />
<glyph unicode="&#x498;" horiz-adv-x="1409" d="M372 -336l89 331q-179 43 -294 170.5t-115 310.5q0 5 0.5 16.5t0.5 18.5l351 42l-1 -21q-5 -111 64.5 -181t184.5 -70q116 0 207 77.5t91 190.5q0 81 -68 137t-153 56q-77 0 -156 -34l-101 242l541 355h-709l80 299h1143l-90 -345l-472 -307q149 -44 242.5 -147.5 t93.5 -248.5q0 -227 -144.5 -374t-369.5 -190l-88 -328h-327z" />
<glyph unicode="&#x499;" horiz-adv-x="1107" d="M237 -336l88 331q-134 34 -218.5 125.5t-76.5 231.5l276 45q-2 -79 43.5 -122t130.5 -43q73 0 127 37t54 107q0 47 -37 73.5t-93 26.5q-58 0 -127 -25l-63 178l331 200h-511l68 264h894l-66 -252l-322 -189q116 -21 176 -93t60 -165q0 -149 -95.5 -254.5t-249.5 -143.5 l-87 -332h-302z" />
<glyph unicode="&#x49a;" horiz-adv-x="1576" d="M973 -336l91 336h-61l-407 779l-208 -779h-336l428 1604h336l-180 -674l698 674h443l-841 -799l275 -494h262l-173 -647h-327z" />
<glyph unicode="&#x49b;" horiz-adv-x="1344" d="M773 -336l90 336h-82l-315 484h-4l-128 -484h-322l287 1093h323l-121 -460h3l492 460h425l-623 -569l171 -249h266l-160 -611h-302z" />
<glyph unicode="&#x4a2;" horiz-adv-x="1795" d="M1137 -336l91 336h-178l174 651h-662l-174 -651h-336l428 1604h336l-170 -635h662l170 635h336l-345 -1293h168l-173 -647h-327z" />
<glyph unicode="&#x4a3;" horiz-adv-x="1406" d="M784 -336l89 336h-163l110 416h-376l-109 -416h-323l287 1093h323l-108 -412h375l109 412h324l-216 -818h140l-160 -611h-302z" />
<glyph unicode="&#x4aa;" horiz-adv-x="1776" d="M650 -336l88 326q-261 46 -418 232t-157 463q0 200 79 377t210 300.5t305 195t361 71.5q138 0 253.5 -34t193.5 -88t135.5 -126.5t88 -145.5t42.5 -149l-322 -103q-7 41 -21 79t-46 86t-76.5 82t-119 58t-168.5 24q-150 0 -281 -79.5t-210 -218t-79 -301.5 q0 -202 110 -311.5t321 -109.5q68 0 127.5 13.5t103 33.5t82.5 51.5t63.5 59t48.5 65.5t35.5 61.5t25.5 55.5l309 -120q-24 -64 -60.5 -125.5t-95.5 -127t-130.5 -118.5t-171 -94.5t-212.5 -58.5l-87 -324h-327z" />
<glyph unicode="&#x4ab;" horiz-adv-x="1286" d="M380 -336l88 330q-173 41 -277 168t-104 320q0 128 52.5 245.5t139.5 203t206.5 136t248.5 50.5q217 0 356 -109t164 -270l-294 -84q-13 69 -78.5 120.5t-159.5 51.5q-131 0 -223.5 -97.5t-92.5 -236.5q0 -101 61 -163t168 -62q98 0 172 50.5t105 116.5l277 -105 q-52 -126 -163 -216t-258 -122l-86 -327h-302z" />
<glyph unicode="&#x4ac;" horiz-adv-x="1381" d="M464 -336l90 336h-177l343 1287h-478l85 317h1293l-85 -317h-479l-260 -976h168l-173 -647h-327z" />
<glyph unicode="&#x4ad;" horiz-adv-x="1071" d="M305 -336l89 336h-165l216 819h-327l72 274h981l-73 -274h-327l-144 -545l1 1h139l-160 -611h-302z" />
<glyph unicode="&#x4b2;" horiz-adv-x="1606" d="M998 -336l90 336h-59l-234 565l-513 -565h-415l792 836l-351 768h374l222 -517l465 517h435l-765 -799l226 -494h233l-173 -647h-327z" />
<glyph unicode="&#x4b3;" horiz-adv-x="1240" d="M645 -336l90 336h-65l-122 308l-275 -308h-383l538 564l-256 529h363l119 -300l265 300h384l-524 -550l124 -268h204l-160 -611h-302z" />
<glyph unicode="&#x4b6;" horiz-adv-x="1648" d="M990 -336l90 336h-179l171 636q-276 -123 -474 -123q-179 0 -280 96.5t-101 273.5q0 76 25 169l147 552h336l-129 -492q-17 -63 -17 -112q0 -94 53.5 -132.5t150.5 -38.5q174 0 370 111l177 664h336l-345 -1293h169l-173 -647h-327z" />
<glyph unicode="&#x4b7;" horiz-adv-x="1324" d="M702 -336l89 336h-162l100 372q-67 -26 -155 -43.5t-156 -17.5q-144 0 -226 77t-82 206q0 53 16 114l101 385h326l-84 -325q-14 -58 -14 -82q0 -52 31.5 -79t87.5 -27q125 0 223 52l120 461h323l-215 -818h139l-160 -611h-302z" />
<glyph unicode="&#x4c0;" horiz-adv-x="722" d="M480 1604h338l-428 -1604h-338z" />
<glyph unicode="&#x4c1;" horiz-adv-x="2271" d="M1490 1754q-164 0 -256 101t-95 274l191 33q34 -188 184 -188q152 0 235 188l181 -32q-51 -175 -163.5 -275.5t-276.5 -100.5zM1029 779l-717 -779h-453l834 858l-383 746h354l385 -752l10 1l201 751h332l-201 -752h11l725 752h414l-809 -826l404 -778h-377l-378 779h-9 l-208 -779h-333l208 779h-10z" />
<glyph unicode="&#x4c2;" horiz-adv-x="1877" d="M1147 1266q-164 0 -256 101t-95 274l191 33q34 -188 184 -188q152 0 235 188l181 -32q-51 -175 -163.5 -275.5t-276.5 -100.5zM1250 1094l-132 -500h7l481 500h396l-554 -569l268 -525h-358l-249 536h-7l-140 -536h-322l140 528h-7l-469 -528h-423l565 595l-264 499h340 l266 -508h7l133 508h322z" />
<glyph unicode="&#x4cf;" horiz-adv-x="626" d="M12 0l289 1093h325l-289 -1093h-325z" />
<glyph unicode="&#x4d0;" horiz-adv-x="1634" d="M1137 1754q-164 0 -256 101t-95 274l191 33q34 -188 184 -188q152 0 235 188l181 -32q-51 -175 -163.5 -275.5t-276.5 -100.5zM1135 344h-688l-205 -344h-357l983 1604h410l247 -1604h-340zM627 648h465l-84 631z" />
<glyph unicode="&#x4d1;" horiz-adv-x="1410" d="M826 1266q-164 0 -256 101t-95 274l191 33q34 -188 184 -188q152 0 235 188l181 -32q-51 -175 -163.5 -275.5t-276.5 -100.5zM507 -21q-132 0 -230 66.5t-145.5 171t-47.5 230.5q0 139 50 264t134 213t195.5 139t230.5 51q237 0 348 -184l43 163h321l-235 -894 q-27 -104 -27 -161q-2 -9 0 -38h-322v36q3 45 10 80l-4 1q-82 -69 -155.5 -103.5t-165.5 -34.5zM416 477q0 -99 64.5 -154.5t165.5 -55.5q133 0 227.5 107t94.5 242q0 98 -68.5 155.5t-168.5 57.5q-89 0 -162.5 -52t-113 -132.5t-39.5 -167.5z" />
<glyph unicode="&#x4d2;" horiz-adv-x="1634" d="M902 2062q65 0 105.5 -40t40.5 -101q0 -76 -54.5 -132t-137.5 -56q-63 0 -104 38.5t-41 101.5q0 77 55 133t136 56zM1384 2062q65 0 105.5 -40t40.5 -101q0 -76 -54.5 -132t-137.5 -56q-63 0 -104 38.5t-41 101.5q0 77 55 133t136 56zM1135 344h-688l-205 -344h-357 l983 1604h410l247 -1604h-340zM627 648h465l-84 631z" />
<glyph unicode="&#x4d3;" horiz-adv-x="1410" d="M665 1593q65 0 105.5 -40t40.5 -102q0 -75 -55 -131.5t-137 -56.5q-63 0 -104.5 39t-41.5 102q0 76 56 132.5t136 56.5zM1127 1593q65 0 105.5 -40t40.5 -102q0 -75 -55 -131.5t-137 -56.5q-63 0 -104.5 39t-41.5 102q0 76 56 132.5t136 56.5zM507 -21q-132 0 -230 66.5 t-145.5 171t-47.5 230.5q0 139 50 264t134 213t195.5 139t230.5 51q237 0 348 -184l43 163h321l-235 -894q-27 -104 -27 -161q-2 -9 0 -38h-322v36q3 45 10 80l-4 1q-82 -69 -155.5 -103.5t-165.5 -34.5zM416 477q0 -99 64.5 -154.5t165.5 -55.5q133 0 227.5 107t94.5 242 q0 98 -68.5 155.5t-168.5 57.5q-89 0 -162.5 -52t-113 -132.5t-39.5 -167.5z" />
<glyph unicode="&#x4d4;" horiz-adv-x="2196" d="M227 0h-386l1252 1604h1268l-82 -307h-706l-89 -333h631l-82 -307h-631l-93 -350h712l-82 -307h-1045l85 320h-508zM1222 1301l-515 -673h355l180 673h-20z" />
<glyph unicode="&#x4d5;" horiz-adv-x="1959" d="M458 212q104 0 183 62.5t101 161.5l4 19l-190 -12q-50 -3 -93 -14.5t-78 -42t-35 -75.5q0 -44 32 -71.5t76 -27.5zM1857 458h-795q0 -102 74 -158.5t170 -56.5q90 0 157 42.5t101 109.5l251 -116q-84 -151 -220.5 -227t-307.5 -76q-138 0 -247.5 54t-176.5 151 q-111 -108 -225 -155t-265 -47h-9q-149 0 -241 83.5t-92 204.5q0 73 26.5 132.5t70 99t102 68t118 42t123.5 17.5l231 14q120 7 120 108q0 50 -41.5 82.5t-116.5 32.5q-80 0 -146 -45.5t-88 -117.5l-265 80q18 61 61 119t109 108.5t164 81t212 30.5q223 0 332 -133 q160 131 340 131q144 0 258.5 -55t181.5 -162t67 -250q0 -92 -33 -192zM1099 669h485q0 3 0.5 11t0.5 11q0 85 -61.5 127.5t-150.5 42.5t-168.5 -54t-105.5 -138z" />
<glyph unicode="&#x4d6;" horiz-adv-x="1361" d="M1060 1754q-164 0 -256 101t-95 274l191 33q34 -188 184 -188q152 0 235 188l181 -32q-51 -175 -163.5 -275.5t-276.5 -100.5zM52 0l429 1604h1045l-82 -307h-712l-89 -334h637l-82 -306h-637l-94 -350h719l-82 -307h-1052z" />
<glyph unicode="&#x4d7;" horiz-adv-x="1292" d="M831 1266q-164 0 -256 101t-95 274l191 33q34 -188 184 -188q152 0 235 188l181 -32q-51 -175 -163.5 -275.5t-276.5 -100.5zM1190 458q33 100 33 192q0 143 -67 250t-181.5 162t-258.5 55q-120 0 -234.5 -50t-201.5 -134t-140 -203t-53 -250q0 -222 151 -363t382 -141 q171 0 307.5 76t220.5 227l-251 116q-34 -67 -100.5 -109.5t-157.5 -42.5q-96 0 -170 56.5t-74 158.5h795zM432 669q26 84 105.5 138t168.5 54t149 -42.5t60 -126.5q0 -15 -1 -23h-482z" />
<glyph unicode="&#x4dc;" horiz-adv-x="2271" d="M1279 2062q66 0 106 -40t40 -101q0 -76 -54.5 -132t-137.5 -56q-63 0 -104 38.5t-41 101.5q0 77 55 133t136 56zM1732 2062q66 0 106 -40t40 -101q0 -76 -54.5 -132t-137.5 -56q-63 0 -104 38.5t-41 101.5q0 77 55 133t136 56zM1029 779l-717 -779h-453l834 858l-383 746 h354l385 -752l10 1l201 751h332l-201 -752h11l725 752h414l-809 -826l404 -778h-377l-378 779h-9l-208 -779h-333l208 779h-10z" />
<glyph unicode="&#x4dd;" horiz-adv-x="1877" d="M948 1593q65 0 105.5 -40t40.5 -102q0 -75 -55 -131.5t-137 -56.5q-63 0 -104.5 39t-41.5 102q0 76 56 132.5t136 56.5zM1410 1593q65 0 105.5 -40t40.5 -102q0 -75 -55 -131.5t-137 -56.5q-63 0 -104.5 39t-41.5 102q0 76 56 132.5t136 56.5zM1250 1094l-132 -500h7 l481 500h396l-554 -569l268 -525h-358l-249 536h-7l-140 -536h-322l140 528h-7l-469 -528h-423l565 595l-264 499h340l266 -508h7l133 508h322z" />
<glyph unicode="&#x4de;" horiz-adv-x="1409" d="M792 2062q65 0 105.5 -40t40.5 -101q0 -76 -54.5 -132t-137.5 -56q-63 0 -104 38.5t-41 101.5q0 77 55 133t136 56zM1274 2062q65 0 105.5 -40t40.5 -101q0 -76 -54.5 -132t-137.5 -56q-63 0 -104 38.5t-41 101.5q0 77 55 133t136 56zM965 952q149 -44 242.5 -147.5 t93.5 -248.5q0 -137 -56.5 -249t-152 -183.5t-217 -109.5t-256.5 -38q-149 0 -277 59t-209 175t-81 266q0 5 0.5 16.5t0.5 18.5l351 42l-1 -21q-5 -111 64.5 -181t184.5 -70q116 0 207 77.5t91 190.5q0 81 -68 137t-153 56q-77 0 -156 -34l-101 242l541 355h-709l80 299 h1143l-90 -345z" />
<glyph unicode="&#x4df;" horiz-adv-x="1107" d="M535 1593q65 0 105.5 -40t40.5 -102q0 -75 -55 -131.5t-137 -56.5q-63 0 -104.5 39t-41.5 102q0 76 56 132.5t136 56.5zM997 1593q65 0 105.5 -40t40.5 -102q0 -75 -55 -131.5t-137 -56.5q-63 0 -104.5 39t-41.5 102q0 76 56 132.5t136 56.5zM735 652q116 -21 176 -93 t60 -165q0 -124 -68.5 -220t-182 -146.5t-250.5 -50.5q-83 0 -161 23t-143.5 67.5t-103 118.5t-32.5 166l276 45q-2 -79 43.5 -122t130.5 -43q73 0 127 37t54 107q0 47 -37 73.5t-93 26.5q-58 0 -127 -25l-63 178l331 200h-511l68 264h894l-66 -252z" />
<glyph unicode="&#x4e2;" horiz-adv-x="1772" d="M891 2016h746l-64 -239h-746zM480 1604h333l-296 -1111l960 1111h391l-428 -1604h-333l301 1122l-963 -1122h-393z" />
<glyph unicode="&#x4e3;" horiz-adv-x="1351" d="M919 654h-3l-580 -654h-326l292 1093h317l-172 -654h2l581 654h322l-291 -1093h-318zM566 1526h746l-64 -239h-746z" />
<glyph unicode="&#x4e4;" horiz-adv-x="1772" d="M1004 2062q65 0 105.5 -40t40.5 -101q0 -76 -54.5 -132t-137.5 -56q-63 0 -104 38.5t-41 101.5q0 77 55 133t136 56zM1486 2062q65 0 105.5 -40t40.5 -101q0 -76 -54.5 -132t-137.5 -56q-63 0 -104 38.5t-41 101.5q0 77 55 133t136 56zM480 1604h333l-296 -1111l960 1111 h391l-428 -1604h-333l301 1122l-963 -1122h-393z" />
<glyph unicode="&#x4e5;" horiz-adv-x="1351" d="M683 1593q65 0 105.5 -40t40.5 -102q0 -75 -55 -131.5t-137 -56.5q-63 0 -104.5 39t-41.5 102q0 76 56 132.5t136 56.5zM1145 1593q65 0 105.5 -40t40.5 -102q0 -75 -55 -131.5t-137 -56.5q-63 0 -104.5 39t-41.5 102q0 76 56 132.5t136 56.5zM919 654h-3l-580 -654h-326 l292 1093h317l-172 -654h2l581 654h322l-291 -1093h-318z" />
<glyph unicode="&#x4e6;" horiz-adv-x="1863" d="M979 2062q65 0 105.5 -40t40.5 -101q0 -76 -54.5 -132t-137.5 -56q-63 0 -104 38.5t-41 101.5q0 77 55 133t136 56zM1461 2062q65 0 105.5 -40t40.5 -101q0 -76 -54.5 -132t-137.5 -56q-63 0 -104 38.5t-41 101.5q0 77 55.5 133t135.5 56zM1120 1629q162 0 299 -54.5 t231 -149t146.5 -224.5t52.5 -280q0 -145 -45 -285t-130.5 -258.5t-201 -209t-266.5 -141.5t-316 -51q-154 0 -288 51.5t-231 143t-153 224.5t-56 289q0 186 74 359t200 302t305 206.5t379 77.5zM505 705q0 -188 114 -300.5t310 -112.5q121 0 229.5 52.5t184 138t119.5 195 t44 222.5q0 189 -112.5 300.5t-312.5 111.5q-125 0 -234.5 -53.5t-183 -140t-116 -195t-42.5 -218.5z" />
<glyph unicode="&#x4e7;" horiz-adv-x="1346" d="M612 1593q65 0 105.5 -40t40.5 -102q0 -75 -55 -131.5t-137 -56.5q-63 0 -104.5 39t-41.5 102q0 76 56 132.5t136 56.5zM1074 1593q65 0 105.5 -40t40.5 -102q0 -75 -55 -131.5t-137 -56.5q-63 0 -104.5 39t-41.5 102q0 76 56 132.5t136 56.5zM734 1117q-178 0 -328 -89 t-234.5 -234.5t-84.5 -310.5q0 -116 41.5 -212.5t114 -160.5t170.5 -99t210 -35q128 0 247 49.5t206.5 134t140 202.5t52.5 248q0 233 -149 370t-386 137zM634 267q-110 0 -169.5 63.5t-59.5 161.5q0 133 90.5 233.5t225.5 100.5q101 0 165 -61.5t64 -162.5 q0 -136 -93 -235.5t-223 -99.5z" />
<glyph unicode="&#x4e8;" horiz-adv-x="1863" d="M1120 1629q162 0 299 -54.5t231 -149t146.5 -224.5t52.5 -280q0 -145 -45 -285t-130.5 -258.5t-201 -209t-266.5 -141.5t-316 -51q-154 0 -288 51.5t-231 143t-153 224.5t-56 289q0 186 74 359t200 302t305 206.5t379 77.5zM1519 946q-7 172 -124.5 276.5t-312.5 104.5 q-186 0 -334.5 -110.5t-208.5 -270.5h980zM490 664q4 -175 124 -281t313 -106q184 0 333.5 110.5t210.5 276.5h-981z" />
<glyph unicode="&#x4e9;" horiz-adv-x="1346" d="M734 1117q237 0 386 -137t149 -370q0 -130 -52.5 -248t-140 -202.5t-206.5 -134t-247 -49.5q-112 0 -210 35t-170.5 99t-114 160.5t-41.5 212.5q0 165 84.5 310.5t234.5 234.5t328 89zM428 647h532q-8 88 -75 145.5t-160 57.5q-99 0 -181 -58t-116 -145zM925 441h-529 q10 -84 72.5 -139.5t162.5 -55.5q94 0 176 55t118 140z" />
<glyph unicode="&#x4ea;" horiz-adv-x="1863" d="M979 2062q65 0 105.5 -40t40.5 -101q0 -76 -54.5 -132t-137.5 -56q-63 0 -104 38.5t-41 101.5q0 77 55 133t136 56zM1461 2062q65 0 105.5 -40t40.5 -101q0 -76 -54.5 -132t-137.5 -56q-63 0 -104 38.5t-41 101.5q0 77 55.5 133t135.5 56zM1120 1629q162 0 299 -54.5 t231 -149t146.5 -224.5t52.5 -280q0 -145 -45 -285t-130.5 -258.5t-201 -209t-266.5 -141.5t-316 -51q-154 0 -288 51.5t-231 143t-153 224.5t-56 289q0 186 74 359t200 302t305 206.5t379 77.5zM1519 946q-7 172 -124.5 276.5t-312.5 104.5q-186 0 -334.5 -110.5 t-208.5 -270.5h980zM490 664q4 -175 124 -281t313 -106q184 0 333.5 110.5t210.5 276.5h-981z" />
<glyph unicode="&#x4eb;" horiz-adv-x="1346" d="M614 1593q65 0 105.5 -40t40.5 -102q0 -75 -55 -131.5t-137 -56.5q-63 0 -104.5 39t-41.5 102q0 76 56 132.5t136 56.5zM1076 1593q65 0 105.5 -40t40.5 -102q0 -75 -55 -131.5t-137 -56.5q-63 0 -104.5 39t-41.5 102q0 76 56 132.5t136 56.5zM734 1117q-178 0 -328 -89 t-234.5 -234.5t-84.5 -310.5q0 -116 41.5 -212.5t114 -160.5t170.5 -99t210 -35q128 0 247 49.5t206.5 134t140 202.5t52.5 248q0 233 -149 370t-386 137zM428 647q34 87 116 145t181 58q93 0 160 -57.5t75 -145.5h-532zM925 441q-36 -85 -118 -140t-176 -55 q-100 0 -162.5 55.5t-72.5 139.5h529z" />
<glyph unicode="&#x4ec;" horiz-adv-x="1767" d="M856 2062q65 0 105.5 -40t40.5 -101q0 -76 -54.5 -132t-137.5 -56q-63 0 -104 38.5t-41 101.5q0 77 55 133t136 56zM1338 2062q65 0 105.5 -40t40.5 -101q0 -76 -54.5 -132t-137.5 -56q-63 0 -104 38.5t-41 101.5q0 77 55 133t136 56zM1020 1629q171 0 311 -57.5 t230 -156t139 -225.5t49 -269q0 -124 -30.5 -243.5t-86.5 -224t-139.5 -192.5t-186 -151t-230 -98.5t-266.5 -35.5q-181 0 -333 63.5t-252.5 182.5t-126.5 275l316 99q32 -151 150.5 -231.5t286.5 -80.5q170 0 307.5 104t201.5 273h-634l73 299h605q-6 97 -56.5 177.5 t-146 131t-220.5 50.5q-155 0 -285.5 -83.5t-193.5 -220.5l-305 118q53 123 144.5 219.5t202 156t232 90t244.5 30.5z" />
<glyph unicode="&#x4ed;" horiz-adv-x="1281" d="M482 1263q-63 0 -104.5 39t-41.5 102q0 76 56 132.5t136 56.5q65 0 105.5 -40t40.5 -102q0 -75 -55 -131.5t-137 -56.5zM944 1263q-63 0 -104.5 39t-41.5 102q0 76 56 132.5t136 56.5q65 0 105.5 -40t40.5 -102q0 -75 -55 -131.5t-137 -56.5zM671 1117q243 0 387 -138.5 t144 -370.5q0 -132 -50.5 -250.5t-135.5 -201.5t-200 -132t-240 -49q-92 0 -178 23t-159 67t-124.5 116t-68.5 163l285 86q25 -85 93 -128.5t159 -43.5q83 0 155.5 51.5t113.5 132.5h-371l54 220h351q-15 75 -78.5 123t-148.5 48q-90 0 -166.5 -43t-111.5 -123l-275 87 q38 115 128 199t202.5 124t234.5 40z" />
<glyph unicode="&#x4ee;" horiz-adv-x="1482" d="M778 2016h746l-64 -239h-746zM636 1604l199 -774l562 774h382l-863 -1175q-334 -454 -706 -454q-103 0 -221 36l79 291q86 -28 164 -28q97 0 192 63t169 157l-311 1110h354z" />
<glyph unicode="&#x4ef;" horiz-adv-x="1256" d="M486 1526h746l-64 -239h-746zM-32 -539l358 553l-147 1079h322l79 -717l442 717h359l-1063 -1632h-350z" />
<glyph unicode="&#x4f0;" horiz-adv-x="1482" d="M871 2062q65 0 105.5 -40t40.5 -101q0 -76 -54.5 -132t-137.5 -56q-63 0 -104 38.5t-41 101.5q0 77 55 133t136 56zM1353 2062q65 0 105.5 -40t40.5 -101q0 -76 -54.5 -132t-137.5 -56q-63 0 -104 38.5t-41 101.5q0 77 55 133t136 56zM636 1604l199 -774l562 774h382 l-863 -1175q-334 -454 -706 -454q-103 0 -221 36l79 291q86 -28 164 -28q97 0 192 63t169 157l-311 1110h354z" />
<glyph unicode="&#x4f1;" horiz-adv-x="1256" d="M664 1593q65 0 105.5 -40t40.5 -102q0 -75 -55 -131.5t-137 -56.5q-63 0 -104.5 39t-41.5 102q0 76 56 132.5t136 56.5zM1126 1593q65 0 105.5 -40t40.5 -102q0 -75 -55 -131.5t-137 -56.5q-63 0 -104.5 39t-41.5 102q0 76 56 132.5t136 56.5zM-32 -539l358 553 l-147 1079h322l79 -717l442 717h359l-1063 -1632h-350z" />
<glyph unicode="&#x4f2;" horiz-adv-x="1482" d="M673 1745l330 385l386 -1l-439 -384h-277zM1149 1745l331 385l385 -1l-439 -384h-277zM636 1604l199 -774l562 774h382l-863 -1175q-334 -454 -706 -454q-103 0 -221 36l79 291q86 -28 164 -28q97 0 192 63t169 157l-311 1110h354z" />
<glyph unicode="&#x4f3;" horiz-adv-x="1256" d="M413 1275l330 385h386l-439 -385h-277zM889 1275l331 385h385l-439 -385h-277zM-32 -539l358 553l-147 1079h322l79 -717l442 717h359l-1063 -1632h-350z" />
<glyph unicode="&#x4f4;" horiz-adv-x="1570" d="M893 2062q65 0 105.5 -40t40.5 -101q0 -76 -54.5 -132t-137.5 -56q-63 0 -104 38.5t-41 101.5q0 77 55 133t136 56zM1375 2062q65 0 105.5 -40t40.5 -101q0 -76 -54.5 -132t-137.5 -56q-63 0 -104 38.5t-41 101.5q0 77 55 133t136 56zM1072 636q-276 -123 -474 -123 q-179 0 -280 96.5t-101 273.5q0 76 25 169l147 552h336l-129 -492q-17 -63 -17 -112q0 -94 53.5 -132.5t150.5 -38.5q174 0 370 111l177 664h336l-428 -1604h-337z" />
<glyph unicode="&#x4f5;" horiz-adv-x="1241" d="M595 1593q65 0 105.5 -40t40.5 -102q0 -75 -55 -131.5t-137 -56.5q-63 0 -104.5 39t-41.5 102q0 76 56 132.5t136 56.5zM1057 1593q65 0 105.5 -40t40.5 -102q0 -75 -55 -131.5t-137 -56.5q-63 0 -104.5 39t-41.5 102q0 76 56 132.5t136 56.5zM729 372 q-67 -26 -155 -43.5t-156 -17.5q-144 0 -226 77t-82 206q0 53 16 114l101 385h326l-84 -325q-14 -58 -14 -82q0 -52 31.5 -79t87.5 -27q125 0 223 52l120 461h323l-287 -1093h-324z" />
<glyph unicode="&#x4f8;" horiz-adv-x="2277" d="M1269 2062q65 0 105.5 -40t40.5 -101q0 -76 -54.5 -132t-137.5 -56q-63 0 -104 38.5t-41 101.5q0 77 55 133t136 56zM1751 2062q65 0 105.5 -40t40.5 -101q0 -76 -54.5 -132t-137.5 -56q-63 0 -104 38.5t-41 101.5q0 77 55 133t136 56zM917 998q131 0 235.5 -33t170 -90 t100 -132t34.5 -161q0 -128 -48 -234.5t-138 -184t-228 -120.5t-310 -43h-681l428 1604h336l-162 -606h263zM2373 1604h-338l-428 -1604h338zM471 311h311q151 0 240 58t89 173q0 73 -57.5 116.5t-155.5 43.5h-323z" />
<glyph unicode="&#x4f9;" horiz-adv-x="1864" d="M887 1593q65 0 105.5 -40t40.5 -102q0 -75 -55 -131.5t-137 -56.5q-63 0 -104.5 39t-41.5 102q0 76 56 132.5t136 56.5zM1349 1593q65 0 105.5 -40t40.5 -102q0 -75 -55 -131.5t-137 -56.5q-63 0 -104.5 39t-41.5 102q0 76 56 132.5t136 56.5zM609 0q254 0 401.5 118.5 t147.5 321.5q0 142 -110 230.5t-299 88.5h-213l88 334h-324l-288 -1093h597zM685 529q72 0 112.5 -31.5t40.5 -80.5q0 -81 -65 -124.5t-177 -43.5h-195l74 280h210zM1575 0l289 1093h-324l-289 -1093h324z" />
<glyph unicode="&#xe3f;" horiz-adv-x="1548" d="M1555 1211q0 -156 -94 -261t-250 -136v-1q220 -97 220 -323q0 -107 -42.5 -193t-110.5 -140.5t-160 -90.5t-185 -51t-191 -15h-33l-37 -141h-152l38 141h-506l428 1604h506l37 137l154 2l-41 -147q85 -11 157 -37.5t132.5 -71t95 -115t34.5 -161.5zM634 952h181l93 349 h-180zM960 953q259 14 259 198q0 125 -167 146zM462 304h180l97 363h-180zM796 304q78 0 142.5 19t110.5 67.5t46 121.5q0 41 -18 71.5t-49.5 47.5t-66.5 25.5t-77 10.5l-97 -363h9z" />
<glyph unicode="&#x1e20;" horiz-adv-x="1803" d="M831 1996h746l-64 -239h-746zM890 -24q-175 0 -315.5 57t-229.5 155.5t-136 226t-47 272.5q0 179 71.5 349.5t195 301.5t304.5 211t386 80q131 0 243 -32t188 -82.5t133 -116.5t87 -131t41 -129l-321 -97q-9 38 -23.5 71t-46 72t-74 67t-111 46.5t-154.5 18.5 q-116 0 -222.5 -49.5t-184 -131.5t-123.5 -195t-46 -235q0 -87 25 -161t75 -132.5t133.5 -91.5t191.5 -33q159 0 279 74.5t166 200.5h-488l71 298h843q-11 -146 -50.5 -275t-113.5 -241.5t-177.5 -193.5t-249 -127.5t-320.5 -46.5z" />
<glyph unicode="&#x1e21;" horiz-adv-x="1413" d="M542 1526h746l-64 -239h-746zM834 141q-130 -119 -318 -119q-123 0 -221.5 61.5t-152 164.5t-53.5 225q0 134 51.5 255t135 204t190.5 131.5t216 48.5q123 0 212.5 -40.5t158.5 -137.5l42 159h318l-282 -1067q-26 -98 -61 -179t-90.5 -156t-125 -126t-167.5 -81.5 t-216 -30.5q-137 0 -246.5 40t-175.5 106t-100.5 145t-34.5 164l300 59q0 -96 66 -167t192 -71q118 0 206 76t127 224zM638 299q124 0 218.5 96t94.5 231q0 91 -61.5 147.5t-157.5 56.5q-129 0 -221.5 -97.5t-92.5 -231.5q0 -92 59.5 -147t160.5 -55z" />
<glyph unicode="&#x1e30;" horiz-adv-x="1508" d="M958 1751l331 385h390l-439 -385h-282zM596 779l-208 -779h-336l428 1604h336l-180 -674l698 674h443l-841 -799l448 -805h-381z" />
<glyph unicode="&#x1e31;" horiz-adv-x="1266" d="M477 525h-3l-138 -525h-324l440 1670h323l-262 -999h3l452 422h441l-604 -533l323 -560h-372zM865 1275l331 385h390l-439 -385h-282z" />
<glyph unicode="&#x1e60;" horiz-adv-x="1433" d="M1000 2126q77 0 125 -47.5t48 -120.5q0 -89 -65 -155.5t-162 -66.5q-75 0 -124 46t-49 120q0 91 66 157.5t161 66.5zM1466 1144q0 117 -45.5 210.5t-124 152.5t-181.5 90.5t-221 31.5q-91 0 -179 -21.5t-165.5 -65t-136 -104t-92.5 -144.5t-34 -181q0 -281 391 -436 l147 -58q80 -32 121 -74t41 -104q0 -47 -26.5 -84t-69 -57t-87 -30t-88.5 -10q-138 0 -231.5 86.5t-93.5 222.5v11l-314 -56v-17q0 -104 35 -192t94.5 -149.5t139.5 -104.5t170 -63.5t186 -20.5q126 0 237 30.5t200 91t141 161.5t52 232q0 80 -32.5 150t-90 123t-123.5 92 t-145 70l-153 60q-34 13 -55.5 23.5t-49 29t-41.5 43.5t-14 55q0 92 76.5 143.5t171.5 51.5q126 0 202.5 -64t76.5 -177z" />
<glyph unicode="&#x1e61;" horiz-adv-x="1068" d="M726 1654q77 0 124.5 -47.5t47.5 -119.5q0 -89 -64.5 -155.5t-162.5 -66.5q-75 0 -123.5 46t-48.5 120q0 90 66 156.5t161 66.5zM474 225q55 0 96.5 27t41.5 72q0 58 -74 88l-121 47q-242 93 -242 285q0 107 62.5 194.5t162.5 134.5t213 47q77 0 152.5 -24.5t136 -68 t98 -111.5t37.5 -147l-285 -31q0 61 -43 99t-100 38q-50 0 -88.5 -26t-38.5 -68q0 -58 69 -84l112 -44q60 -24 103 -48t83 -59t61 -83t21 -108q0 -115 -67 -203t-172 -132t-226 -44q-90 0 -170 23t-143.5 66.5t-101 113t-37.5 155.5v9l285 45q-2 -76 49.5 -119.5 t125.5 -43.5z" />
<glyph unicode="&#x1e80;" horiz-adv-x="2465" d="M1521 2135l114 -384h-243l-223 384h352zM1386 1124l-624 -1124h-363l-89 1604h344l35 -1141l628 1141h353l59 -1148l611 1148h363l-891 -1604h-369l-54 1124h-3z" />
<glyph unicode="&#x1e81;" horiz-adv-x="1827" d="M1084 1659l114 -384h-243l-223 384h352zM1609 1093h334l-632 -1093h-317l-37 694l-408 -694h-313l-51 1093h320l19 -673l381 673h296l25 -679z" />
<glyph unicode="&#x1e82;" horiz-adv-x="2465" d="M1391 1751l331 385h390l-439 -385h-282zM1386 1124l-624 -1124h-363l-89 1604h344l35 -1141l628 1141h353l59 -1148l611 1148h363l-891 -1604h-369l-54 1124h-3z" />
<glyph unicode="&#x1e83;" horiz-adv-x="1827" d="M935 1275l331 385h390l-439 -385h-282zM1609 1093h334l-632 -1093h-317l-37 694l-408 -694h-313l-51 1093h320l19 -673l381 673h296l25 -679z" />
<glyph unicode="&#x1e84;" horiz-adv-x="2465" d="M1329 2052q65 0 105.5 -40t40.5 -101q0 -76 -54.5 -132t-137.5 -56q-63 0 -104.5 38.5t-41.5 101.5q0 77 55.5 133t136.5 56zM1811 2052q65 0 105.5 -40t40.5 -101q0 -76 -54.5 -132t-137.5 -56q-63 0 -104.5 38.5t-41.5 101.5q0 77 55.5 133t136.5 56zM1386 1124 l-624 -1124h-363l-89 1604h344l35 -1141l628 1141h353l59 -1148l611 1148h363l-891 -1604h-369l-54 1124h-3z" />
<glyph unicode="&#x1e85;" horiz-adv-x="1827" d="M918 1593q65 0 105.5 -40t40.5 -102q0 -75 -55 -131.5t-137 -56.5q-63 0 -104.5 39t-41.5 102q0 76 56 132.5t136 56.5zM1380 1593q65 0 105.5 -40t40.5 -102q0 -75 -55 -131.5t-137 -56.5q-63 0 -104.5 39t-41.5 102q0 76 56 132.5t136 56.5zM1609 1093h334l-632 -1093 h-317l-37 694l-408 -694h-313l-51 1093h320l19 -673l381 673h296l25 -679z" />
<glyph unicode="&#x1e90;" horiz-adv-x="1398" d="M1232 2105l155 -357h-260l-75 187l-175 -187h-284l341 357h298zM1172 0h-1227l77 292l1040 1008h-737l80 304h1170l-77 -286l-1033 -1013h788z" />
<glyph unicode="&#x1e91;" horiz-adv-x="1105" d="M961 1635l155 -357h-260l-75 187l-175 -187h-284l341 357h298zM16 250l644 571h-478l72 272h902l-65 -245l-653 -575h509l-72 -273h-925z" />
<glyph unicode="&#x1ebc;" horiz-adv-x="1361" d="M1190 1748q-46 0 -88 15t-67 33.5t-57 33.5t-60 15q-59 0 -89 -95h-199l12 51q29 121 101.5 193t190.5 72q55 0 104 -24t89.5 -47.5t73.5 -23.5q22 0 39 7.5t28.5 24.5t16.5 27.5t13 31.5h192l-13 -52q-65 -262 -287 -262zM52 0l429 1604h1045l-82 -307h-712l-89 -334 h637l-82 -306h-637l-94 -350h719l-82 -307h-1052z" />
<glyph unicode="&#x1ebd;" horiz-adv-x="1292" d="M937 1278q-46 0 -88 15t-67 33.5t-57 33.5t-60 15q-59 0 -89 -95h-199l12 51q29 121 101.5 193t190.5 72q55 0 104 -24t89.5 -47.5t73.5 -23.5q22 0 39 7.5t28.5 24.5t16.5 27.5t13 31.5h192l-13 -52q-65 -262 -287 -262zM1190 458q33 100 33 192q0 143 -67 250 t-181.5 162t-258.5 55q-120 0 -234.5 -50t-201.5 -134t-140 -203t-53 -250q0 -222 151 -363t382 -141q171 0 307.5 76t220.5 227l-251 116q-34 -67 -100.5 -109.5t-157.5 -42.5q-96 0 -170 56.5t-74 158.5h795zM432 669q26 84 105.5 138t168.5 54t149 -42.5t60 -126.5 q0 -15 -1 -23h-482z" />
<glyph unicode="&#x1ef2;" horiz-adv-x="1543" d="M1079 2135l114 -384h-243l-223 384h352zM792 0h-337l170 634l-311 970h371l179 -662l543 662h396l-845 -989z" />
<glyph unicode="&#x1ef3;" horiz-adv-x="1256" d="M800 1659l114 -384h-243l-223 384h352zM-32 -539l358 553l-147 1079h322l79 -717l442 717h359l-1063 -1632h-350z" />
<glyph unicode="&#x2000;" horiz-adv-x="1215" />
<glyph unicode="&#x2001;" horiz-adv-x="2431" />
<glyph unicode="&#x2002;" horiz-adv-x="1215" />
<glyph unicode="&#x2003;" horiz-adv-x="2431" />
<glyph unicode="&#x2004;" horiz-adv-x="810" />
<glyph unicode="&#x2005;" horiz-adv-x="607" />
<glyph unicode="&#x2006;" horiz-adv-x="405" />
<glyph unicode="&#x2007;" horiz-adv-x="405" />
<glyph unicode="&#x2008;" horiz-adv-x="303" />
<glyph unicode="&#x2009;" horiz-adv-x="486" />
<glyph unicode="&#x200a;" horiz-adv-x="135" />
<glyph unicode="&#x2010;" horiz-adv-x="947" d="M805 507h-676l85 316h676z" />
<glyph unicode="&#x2011;" horiz-adv-x="947" d="M805 507h-676l85 316h676z" />
<glyph unicode="&#x2012;" horiz-adv-x="947" d="M805 507h-676l85 316h676z" />
<glyph unicode="&#x2013;" horiz-adv-x="1273" d="M213 819h1001l-82 -308h-1001z" />
<glyph unicode="&#x2014;" horiz-adv-x="2058" d="M213 819h1786l-82 -308h-1786z" />
<glyph unicode="&#x2018;" horiz-adv-x="661" d="M749 1473q-109 -12 -187.5 -78.5t-96.5 -158.5q28 12 63 12q79 0 127 -46.5t48 -123.5q0 -98 -68.5 -157.5t-161.5 -59.5q-102 0 -158.5 68t-56.5 173q0 100 41 193t110.5 163.5t169 114.5t210.5 47z" />
<glyph unicode="&#x2019;" horiz-adv-x="664" d="M293 1003q109 12 187.5 78.5t96.5 158.5q-28 -12 -63 -12q-79 0 -127 46.5t-48 123.5q0 98 68.5 157.5t161.5 59.5q102 0 158.5 -68t56.5 -173q0 -100 -41 -193t-110.5 -163.5t-169 -114.5t-210.5 -47z" />
<glyph unicode="&#x201a;" horiz-adv-x="670" d="M-16 -241q109 12 187.5 78.5t96.5 158.5q-28 -12 -63 -12q-79 0 -127 46.5t-48 123.5q0 98 68.5 157.5t161.5 59.5q102 0 158.5 -68t56.5 -173q0 -100 -41 -193t-110.5 -163.5t-169 -114.5t-210.5 -47z" />
<glyph unicode="&#x201c;" horiz-adv-x="1221" d="M749 1473q-109 -12 -187.5 -78.5t-96.5 -158.5q28 12 63 12q79 0 127 -46.5t48 -123.5q0 -98 -68.5 -157.5t-161.5 -59.5q-102 0 -158.5 68t-56.5 173q0 100 41 193t110.5 163.5t169 114.5t210.5 47zM1309 1473q-109 -12 -187.5 -78.5t-96.5 -158.5q28 12 63 12 q79 0 127 -46.5t48 -123.5q0 -98 -68.5 -157.5t-161.5 -59.5q-102 0 -158.5 68t-56.5 173q0 100 41 193t110.5 163.5t169 114.5t210.5 47z" />
<glyph unicode="&#x201d;" horiz-adv-x="1224" d="M293 1003q109 12 187.5 78.5t96.5 158.5q-28 -12 -63 -12q-79 0 -127 46.5t-48 123.5q0 98 68.5 157.5t161.5 59.5q102 0 158.5 -68t56.5 -173q0 -100 -41 -193t-110.5 -163.5t-169 -114.5t-210.5 -47zM853 1003q109 12 187.5 78.5t96.5 158.5q-28 -12 -63 -12 q-79 0 -127 46.5t-48 123.5q0 98 68.5 157.5t161.5 59.5q102 0 158.5 -68t56.5 -173q0 -100 -41 -193t-110.5 -163.5t-169 -114.5t-210.5 -47z" />
<glyph unicode="&#x201e;" horiz-adv-x="1230" d="M-16 -241q109 12 187.5 78.5t96.5 158.5q-28 -12 -63 -12q-79 0 -127 46.5t-48 123.5q0 98 68.5 157.5t161.5 59.5q102 0 158.5 -68t56.5 -173q0 -100 -41 -193t-110.5 -163.5t-169 -114.5t-210.5 -47zM544 -241q109 12 187.5 78.5t96.5 158.5q-28 -12 -63 -12 q-79 0 -127 46.5t-48 123.5q0 98 68.5 157.5t161.5 59.5q102 0 158.5 -68t56.5 -173q0 -100 -41 -193t-110.5 -163.5t-169 -114.5t-210.5 -47z" />
<glyph unicode="&#x2020;" horiz-adv-x="1435" d="M738 1h-325l223 836h-384l78 291h384l104 389h325l-104 -389h386l-78 -291h-386z" />
<glyph unicode="&#x2021;" horiz-adv-x="1435" d="M628 -423h-325l113 424h-434l77 291h434l137 511h-434l77 291h434l113 422h325l-113 -422h436l-77 -291h-436l-137 -511h436l-77 -291h-436z" />
<glyph unicode="&#x2022;" horiz-adv-x="1004" d="M607 1108q141 0 229 -87.5t88 -219.5q0 -164 -119 -287.5t-298 -123.5q-136 0 -226 85.5t-90 222.5q0 166 121 288t295 122z" />
<glyph unicode="&#x2026;" horiz-adv-x="2056" d="M257 -24q-91 0 -156.5 65t-65.5 155q0 92 65 157.5t157 65.5q93 0 157.5 -65t64.5 -158q0 -90 -64.5 -155t-157.5 -65zM960 -24q-91 0 -156.5 65t-65.5 155q0 92 65 157.5t157 65.5q93 0 157 -65t64 -158q0 -91 -64.5 -155.5t-156.5 -64.5zM1663 -24q-91 0 -156 65 t-65 155q0 92 65 157.5t156 65.5q93 0 157.5 -65t64.5 -158q0 -90 -64.5 -155t-157.5 -65z" />
<glyph unicode="&#x202f;" horiz-adv-x="486" />
<glyph unicode="&#x2030;" horiz-adv-x="2660" d="M687 1620q143 0 231.5 -88t88.5 -222q0 -107 -52.5 -201.5t-150 -153.5t-217.5 -59q-138 0 -228.5 86t-90.5 224q0 109 54.5 204t151.5 152.5t213 57.5zM461 0h-297l1392 1604h295zM504 1232q0 -50 30.5 -80t82.5 -30q64 0 108.5 50t44.5 112q0 50 -30 80t-83 30 q-65 0 -109 -50t-44 -112zM1433 716q143 0 231.5 -88t88.5 -222q0 -107 -52.5 -201.5t-150 -153.5t-217.5 -59q-138 0 -228.5 86t-90.5 224q0 109 54.5 204t151.5 152.5t213 57.5zM1250 328q0 -50 30.5 -80t82.5 -30q64 0 108.5 50t44.5 112q0 50 -30 80t-83 30 q-65 0 -109 -50t-44 -112zM2225 716q143 0 231.5 -88t88.5 -222q0 -107 -52.5 -201.5t-150 -153.5t-217.5 -59q-138 0 -228.5 86t-90.5 224q0 109 54.5 204t151.5 152.5t213 57.5zM2042 328q0 -50 30.5 -80t82.5 -30q64 0 108.5 50t44.5 112q0 50 -30 80t-83 30 q-65 0 -109 -50t-44 -112z" />
<glyph unicode="&#x2039;" horiz-adv-x="821" d="M426 589l229 -289l-192 -154l-375 472l580 471l149 -183z" />
<glyph unicode="&#x203a;" horiz-adv-x="822" d="M444 645l-229 290l192 154l375 -472l-580 -471l-148 183z" />
<glyph unicode="&#x203d;" horiz-adv-x="1224" d="M843 1629q123 0 225.5 -43t167.5 -132t65 -209q0 -70 -28 -141t-71 -129t-106.5 -123.5t-121.5 -116t-129.5 -116.5t-118.5 -117h-263l124 639h289l-51 -235h5q60 48 109.5 127t49.5 146q0 87 -54.5 127t-145.5 40q-90 0 -164 -58.5t-97 -145.5l-273 30q12 105 67.5 193 t137.5 145t181 88t202 31zM527 372q-95 0 -162 -66t-67 -161q0 -75 50.5 -122.5t125.5 -47.5q95 0 162 66t67 161q0 75 -50.5 122.5t-125.5 47.5z" />
<glyph unicode="&#x2042;" horiz-adv-x="1894" d="M1266 887l-176 -70l-95 238l-198 -161l-120 147l194 160l-213 139l104 157l212 -136l65 250l190 -49l-66 -250l252 14l14 -188l-253 -17zM677 31l-176 -70l-96 238l-198 -161l-119 147l194 161l-213 138l103 158l212 -137l66 251l189 -50l-65 -250l252 15l14 -189 l-253 -16zM1604 31l-176 -70l-95 238l-198 -161l-120 147l194 161l-213 138l104 158l212 -137l65 251l190 -50l-66 -250l252 15l14 -189l-253 -16z" />
<glyph unicode="&#x2044;" horiz-adv-x="1297" d="M177 0h-297l1392 1604h295z" />
<glyph unicode="&#x2051;" horiz-adv-x="1019" d="M927 887l-176 -70l-96 238l-198 -161l-119 147l194 160l-213 139l103 157l212 -136l65 250l190 -49l-66 -250l252 14l14 -188l-253 -17zM698 31l-176 -70l-96 238l-198 -161l-119 147l194 161l-213 138l104 158l212 -137l65 251l190 -50l-66 -250l252 15l14 -189 l-253 -16z" />
<glyph unicode="&#x205f;" horiz-adv-x="607" />
<glyph unicode="&#x20a4;" horiz-adv-x="1467" d="M1119 1096q5 55 -9 101.5t-54 79.5t-102 33q-113 0 -166.5 -71.5t-53.5 -190.5q0 -19 1 -28h381l-47 -175h-315q7 -49 9 -97h280l-47 -175h-255q-50 -173 -209 -259h293q197 0 227 187l312 -52q-29 -203 -165 -326t-364 -123h-841l78 301q122 27 206.5 98.5t119.5 173.5 h-249l47 175h222q-1 18 -11 97h-185l46 175h119v16q0 264 163.5 422t442.5 158q226 0 352 -136t103 -351z" />
<glyph unicode="&#x20a9;" horiz-adv-x="2603" d="M2475 1063h154l-56 -212h-216l-71 -128h252l-56 -212h-313l-284 -511h-369l-54 1124h-3l-625 -1124h-362l-29 511h-322l57 212h253l-7 128h-212l57 212h143l-30 541h344l35 -1141l628 1141h354l58 -1148l611 1148h363z" />
<glyph unicode="&#x20ab;" horiz-adv-x="1489" d="M1587 1270h-126l-282 -1070q-22 -87 -27 -162v-38h-320q-2 17 0 36q0 39 10 82l-4 2q-78 -68 -153.5 -104.5t-168.5 -36.5q-100 0 -181.5 38.5t-134 103.5t-80.5 149t-28 177q0 139 50.5 264t134 213t195.5 139t231 51q233 0 346 -180l88 336h-300l56 215h301l48 183h324 l-48 -183h126zM655 267q133 0 227 107t94 242q0 98 -68.5 155.5t-168.5 57.5q-89 0 -162 -52t-112.5 -132.5t-39.5 -167.5q0 -100 64.5 -155t165.5 -55zM10 -142h1122l-73 -276h-1122z" />
<glyph unicode="&#x20ac;" horiz-adv-x="1983" d="M2001 1087l-320 -102q-8 41 -21.5 79.5t-46 86t-77.5 82t-119.5 58t-168.5 23.5q-144 0 -271 -68t-191 -173h557l-96 -206h-552q-16 -65 -19 -123h520l-96 -206h-398q32 -117 136.5 -183t269.5 -66q79 0 146 16.5t116 47t85.5 62.5t65 76t44 72t31.5 66l307 -118 q-28 -73 -71.5 -142.5t-116 -142.5t-161.5 -127t-215 -88.5t-270 -34.5q-188 0 -341 68t-252.5 195.5t-130.5 298.5h-241l55 206h175q5 67 16 123h-169l54 206h181q115 252 353.5 404t518.5 152q138 0 253.5 -33.5t193.5 -87.5t135.5 -126.5t88 -145.5t42.5 -149z" />
<glyph unicode="&#x20ae;" horiz-adv-x="1461" d="M1103 1287l-79 -295l419 129l-58 -217l-418 -129l-37 -137l419 129l-58 -216l-418 -129l-113 -422h-336l82 310l-417 -129l57 216l418 129l37 137l-418 -129l58 217l417 128l109 408h-478l85 317h1293l-85 -317h-479z" />
<glyph unicode="&#x20b1;" horiz-adv-x="1677" d="M1723 990h-127q-57 -201 -246 -311.5t-452 -110.5h-274l-151 -568h-337l264 990h-171l49 184h171l115 430h472q250 0 394 -91q177 -112 186 -339h157zM818 1293l-33 -123h481q-18 65 -77 94t-139 29h-232zM946 871q219 0 294 123h-502l-33 -123h241z" />
<glyph unicode="&#x20b4;" horiz-adv-x="1555" d="M258 1092h869q18 18 31 50.5t13 59.5q0 39 -19 67t-52 42.5t-68.5 20.5t-76.5 6q-75 0 -155.5 -43t-141.5 -104l-222 200q226 238 576 238q88 0 170 -22t152 -65t112.5 -116t42.5 -166q0 -104 -39 -168h140l-56 -211h-1333zM561 540q-56 -63 -56 -135q0 -40 21 -69 t56 -42.5t70 -19.5t73 -6q214 0 404 180l221 -208q-163 -149 -313 -206.5t-372 -57.5q-91 0 -175 20t-157.5 61t-118 114.5t-44.5 170.5q0 120 56 198h-116l56 211h1334l-57 -211h-882z" />
<glyph unicode="&#x20b8;" horiz-adv-x="1487" d="M1672 1604l-84 -315h-1293l84 315h1293zM765 0h-336l224 841h-478l84 315h1293l-84 -315h-479z" />
<glyph unicode="&#x20b9;" horiz-adv-x="1350" d="M1151 1317q58 -61 66 -135h220l-51 -189h-188q-80 -273 -441 -373l215 -620h-358l-183 576h-306l80 300h329q231 0 309 117h-607l51 189h583q-36 115 -238 115h-314l82 307h1150l-77 -287h-322z" />
<glyph unicode="&#x20ba;" horiz-adv-x="1526" d="M1492 687q-140 -687 -957 -687h-329l144 541l-253 -101l60 226l254 102l37 140l-253 -101l61 226l253 102l125 469h335l-85 -319l430 173l-60 -227l-430 -172l-38 -140l430 172l-60 -227l-430 -172l-106 -398q470 0 550 425z" />
<glyph unicode="&#x20bd;" horiz-adv-x="1565" d="M663 568l-39 -148h356l-54 -202h-356l-58 -218h-337l58 218h-190l54 202h190l39 146h-190l80 301h190l197 737h452q250 0 394 -91q187 -119 187 -364q0 -181 -96.5 -314.5t-257.5 -200t-365 -66.5h-254zM744 871h208q155 0 247 65t92 182q0 81 -62 128q-60 47 -173 47 h-199z" />
<glyph unicode="&#x2113;" horiz-adv-x="985" d="M504 519q-30 -107 -30 -155q0 -73 42 -99.5t117 -26.5q85 0 175 33l-67 -255q-91 -35 -213 -35q-155 0 -248.5 77.5t-93.5 228.5q0 61 17 128q-103 -29 -171 -40l70 263q95 23 174 55l130 487q93 353 398 353q128 0 215 -73t87 -200q0 -110 -58.5 -227t-150.5 -213.5 t-193 -173.5t-200 -127zM780 1281q-75 0 -101 -97l-89 -338q89 62 152.5 150.5t88.5 190.5q6 24 6 37q0 57 -57 57z" />
<glyph unicode="&#x2116;" horiz-adv-x="2786" d="M684 1119l-299 -1119h-333l428 1604h382l394 -1102l294 1102h332l-426 -1604h-369zM2349 608q-160 0 -265 96t-105 259q0 114 57 214.5t159 161.5t225 61q164 0 267 -96t103 -259q0 -120 -60 -221t-161.5 -158.5t-219.5 -57.5zM2412 1152q-73 0 -122.5 -55t-49.5 -128 q0 -50 29.5 -81.5t86.5 -31.5q70 0 121 54t51 129q0 52 -31.5 82.5t-84.5 30.5zM1778 197l66 247h786l-66 -247h-786z" />
<glyph unicode="&#x2122;" horiz-adv-x="2193" d="M609 679h-227l191 725h-261l53 200h747l-52 -200h-261zM2007 1298h-8l-381 -619h-147l-68 624h-7l-164 -624h-215l243 925h300l59 -583l357 583h331l-244 -925h-219z" />
<glyph unicode="&#x212e;" horiz-adv-x="1823" d="M1005 -24q-184 0 -335 65t-251 179t-154.5 266.5t-54.5 328.5q0 168 58 317t160.5 258.5t252.5 173.5t324 64q230 0 412.5 -108.5t281.5 -292.5t99 -408v-18h-1238v-520q80 -83 202.5 -131.5t242.5 -48.5q209 0 359.5 89t231.5 253l108 -60q-85 -187 -269.5 -297 t-429.5 -110zM1452 1331q-80 83 -203.5 128.5t-246.5 45.5q-261 0 -442 -171v-407h892v404z" />
<glyph unicode="&#x2153;" horiz-adv-x="2202" d="M1979 1604l-1391 -1604h-297l1393 1604h295zM698 675h-275l172 651l-215 -107l-89 178l413 207h239zM1648 -24q-95 0 -170 33t-120 103.5t-43 168.5l234 28q-3 -58 26 -89t95 -31q57 0 96.5 30.5t39.5 87.5q0 38 -29 60t-69 22q-42 0 -79 -13l-66 164l270 176h-399 l56 209h704l-53 -203l-276 -186q95 -26 141 -89t46 -132q0 -153 -118.5 -246t-285.5 -93z" />
<glyph unicode="&#x2154;" horiz-adv-x="2289" d="M138 675l14 65q28 129 121.5 230.5t221.5 151.5l151 59q63 25 101.5 59t38.5 88q0 39 -27.5 60.5t-77.5 21.5q-71 0 -111.5 -54t-40.5 -109l-233 31q24 160 137 254.5t278 94.5q141 0 231 -80t90 -197q0 -74 -26.5 -133.5t-75 -101.5t-96.5 -69.5t-111 -52.5l-137 -55 q-69 -27 -84 -50h411l-56 -213h-719zM2063 1604l-1390 -1604h-297l1392 1604h295zM1736 -24q-95 0 -170 33t-120 103.5t-43 168.5l234 28q-3 -58 26 -89t95 -31q57 0 96.5 30.5t39.5 87.5q0 38 -29 60t-69 22t-79 -13l-66 164l270 176h-398l55 209h704l-53 -203l-276 -186 q95 -26 141 -89t46 -132q0 -153 -118.5 -246t-285.5 -93z" />
<glyph unicode="&#x215b;" horiz-adv-x="2266" d="M697 675h-275l171 651l-214 -107l-89 178l412 207h240zM1981 1604l-1391 -1604h-297l1393 1604h295zM2006 456q108 -55 108 -186q0 -132 -115.5 -212t-277.5 -80q-90 0 -172 32t-137.5 98t-55.5 150q0 179 205 254q-41 24 -66.5 67.5t-25.5 98.5q0 121 108 198t264 77 q141 0 244.5 -70.5t103.5 -194.5q0 -79 -47.5 -138t-135.5 -94zM1833 749q-47 0 -85.5 -28t-38.5 -64q0 -38 35.5 -62.5t82.5 -24.5q49 0 85.5 29t36.5 65q0 38 -34.5 61.5t-81.5 23.5zM1739 382q-51 0 -95 -28.5t-44 -74.5q0 -45 40.5 -71.5t90.5 -26.5q53 0 96.5 28.5 t43.5 76.5q0 45 -40 70.5t-92 25.5z" />
<glyph unicode="&#x215c;" horiz-adv-x="2370" d="M533 655q-96 0 -170.5 33t-119.5 103.5t-43 168.5l234 28q-3 -58 26 -89t95 -31q57 0 96.5 30.5t39.5 87.5q0 38 -29 60t-69 22q-42 0 -79 -13l-66 164l270 176h-399l55 209h705l-53 -203l-276 -186q95 -26 141 -89t46 -132q0 -153 -118.5 -246t-285.5 -93zM2085 1604 l-1390 -1604h-297l1392 1604h295zM2110 456q108 -56 108 -186q0 -88 -56 -156t-145 -102t-193 -34q-90 0 -172 32t-137 97.5t-55 150.5q0 179 205 254q-41 25 -67 68t-26 98q0 121 108 198t265 77q141 0 244 -70.5t103 -194.5q0 -79 -47.5 -138t-134.5 -94zM1936 749 q-47 0 -85 -28t-38 -64q0 -38 35.5 -62.5t81.5 -24.5q49 0 85.5 29t36.5 65q0 38 -34.5 61.5t-81.5 23.5zM1842 382q-51 0 -94.5 -28.5t-43.5 -74.5q0 -45 40 -71.5t90 -26.5q53 0 96.5 28.5t43.5 76.5q0 45 -40 70.5t-92 25.5z" />
<glyph unicode="&#x215d;" horiz-adv-x="2303" d="M518 655q-65 0 -125.5 18.5t-110 53t-76.5 93t-19 130.5l228 41q-5 -53 25.5 -88.5t86.5 -35.5q64 0 111.5 43.5t47.5 107.5q0 43 -30 66.5t-73 23.5q-78 0 -135 -61l-195 61l213 496h585l-54 -208h-399l-68 -160q78 60 182 60q97 0 160.5 -71.5t63.5 -178.5 q0 -173 -122 -282t-296 -109zM2052 1604l-1391 -1604h-297l1393 1604h295zM2043 456q108 -56 108 -186q0 -88 -56 -156t-145 -102t-193 -34q-90 0 -172 32t-137 97.5t-55 150.5q0 179 205 254q-41 25 -67 68t-26 98q0 121 108 198t265 77q90 0 167.5 -29t128.5 -90.5 t51 -145.5q0 -79 -47.5 -138t-134.5 -94zM1869 749q-47 0 -85 -28t-38 -64q0 -38 35.5 -62.5t81.5 -24.5q49 0 85.5 29t36.5 65q0 38 -34.5 61.5t-81.5 23.5zM1775 382q-51 0 -94.5 -28.5t-43.5 -74.5q0 -45 40 -71.5t90 -26.5q53 0 96.5 28.5t43.5 76.5q0 45 -40 70.5 t-92 25.5z" />
<glyph unicode="&#x215e;" horiz-adv-x="2192" d="M1894 1604l-1391 -1604h-297l1393 1604h295zM512 675h-318l551 715h-435l56 213h729l-57 -214zM1933 456q108 -55 108 -186q0 -88 -55.5 -156t-144.5 -102t-194 -34q-90 0 -172 32t-137 97.5t-55 150.5q0 179 205 254q-41 25 -67 68t-26 98q0 121 108 198t265 77 q141 0 244 -70.5t103 -194.5q0 -79 -47.5 -138t-134.5 -94zM1759 749q-47 0 -85 -28t-38 -64q0 -38 35.5 -62.5t81.5 -24.5q49 0 86 29t37 65q0 38 -35 61.5t-82 23.5zM1665 382q-51 0 -94.5 -28.5t-43.5 -74.5q0 -45 40 -71.5t91 -26.5q52 0 95.5 28.5t43.5 76.5 q0 45 -40 70.5t-92 25.5z" />
<glyph unicode="&#x2190;" horiz-adv-x="1359" d="M892 1233q-223 -242 -314 -333h770v-308h-770q63 -63 120 -123.5t113 -121.5t83 -90l-196 -184l-599 649v46l599 651z" />
<glyph unicode="&#x2191;" horiz-adv-x="1359" d="M898 892v-770h-308v770l-335 -316l-183 196l649 599h46l650 -599l-186 -194z" />
<glyph unicode="&#x2192;" horiz-adv-x="1359" d="M1378 768v-46l-599 -649l-196 184q27 29 83 90t113 121.5t120 123.5h-770v308h770q-91 91 -314 333l194 186z" />
<glyph unicode="&#x2193;" horiz-adv-x="1359" d="M246 915q221 -202 333 -313v769h308v-769q63 63 122.5 119t123.5 114.5t89 81.5l184 -195l-649 -600h-46l-651 600z" />
<glyph unicode="&#x2196;" horiz-adv-x="1359" d="M1186 959q-292 -14 -458 -14l545 -544l-218 -218l-544 544q0 -89 -2 -171.5t-6.5 -167t-5.5 -121.5l-268 9l35 882l32 33l884 36z" />
<glyph unicode="&#x2197;" horiz-adv-x="1359" d="M1145 1191l33 -33l35 -882l-269 -9q-1 33 -5 120.5t-6 169t-2 170.5l-545 -544l-217 218l544 544q-165 0 -457 14l5 268z" />
<glyph unicode="&#x2198;" horiz-adv-x="1359" d="M269 451q336 13 457 14l-544 544l217 218l545 -544q0 89 2 170t6 168t5 121l269 -8l-35 -882l-33 -33l-884 -36z" />
<glyph unicode="&#x2199;" horiz-adv-x="1359" d="M312 219l-32 33l-35 882l268 8q1 -37 5.5 -121.5t6.5 -166.5t2 -171l544 544l218 -218l-545 -544q123 -1 458 -14l-6 -268z" />
<glyph unicode="&#x21a9;" horiz-adv-x="2208" d="M1477 585q171 0 283 100.5t112 256.5q0 162 -109 260.5t-292 98.5h-401v303h421q157 0 290.5 -51t225.5 -139.5t143.5 -210.5t51.5 -261q0 -140 -51.5 -262t-143 -211t-225.5 -140.5t-291 -51.5h-971q63 -62 120 -123t112 -121.5t83 -90.5l-196 -183l-599 648v46l599 651 l194 -186q-223 -242 -314 -333h958z" />
<glyph unicode="&#x21b0;" horiz-adv-x="2003" d="M1476 0v607q0 153 -98.5 234t-271.5 81h-408q109 -110 314 -334l-194 -185l-599 650v46l599 649l196 -184q-27 -29 -82.5 -90t-112.5 -121.5t-120 -122.5h420q322 0 504.5 -158t182.5 -439v-633h-330z" />
<glyph unicode="&#x21b1;" horiz-adv-x="1660" d="M153 633q0 281 182.5 439t504.5 158h420q-63 62 -120 122.5t-112.5 121.5t-82.5 90l196 184l599 -649v-46l-599 -650l-194 185q12 13 61.5 67.5t74.5 81.5t75.5 80t102.5 105h-408q-173 0 -271.5 -81t-98.5 -234v-607h-330v633z" />
<glyph unicode="&#x21b2;" horiz-adv-x="1660" d="M1655 972q0 -281 -182.5 -439t-504.5 -158h-420q63 -62 120 -123t112 -121.5t83 -90.5l-196 -184l-599 649v46l599 650l194 -185q-223 -242 -314 -333h408q174 0 272 80.5t98 233.5v607h330v-632z" />
<glyph unicode="&#x21b3;" horiz-adv-x="2003" d="M674 1604v-607q0 -153 98 -233.5t272 -80.5h408q-52 52 -101.5 103.5t-78 82.5t-72 79t-62.5 68l194 185l599 -650v-46l-599 -649l-196 184q28 30 83 90.5t112 121.5t120 123h-420q-322 0 -504.5 158t-182.5 439v632h330z" />
<glyph unicode="&#x21b4;" horiz-adv-x="2129" d="M972 1605q281 0 439 -182.5t158 -504.5v-421q63 63 122.5 119t123.5 114.5t89 81.5l184 -195l-649 -599h-46l-651 599l186 193q221 -202 333 -313v407q0 174 -80.5 272.5t-233.5 98.5h-608v330h633z" />
<glyph unicode="&#x2202;" horiz-adv-x="1412" d="M718 1018q193 0 322 -103q4 29 4 64q0 157 -77 255.5t-229 98.5q-72 0 -152 -21t-145 -56l-62 275q91 47 204.5 71.5t222.5 24.5q115 0 209.5 -32.5t161.5 -91t113 -140.5t68 -181t22 -212q0 -150 -31 -292.5t-96.5 -269.5t-159 -222t-226.5 -150.5t-290 -55.5 q-80 0 -153.5 17.5t-136.5 54.5t-110 90t-73.5 128.5t-26.5 165.5q0 130 52 240.5t140.5 184.5t204.5 115.5t244 41.5zM732 735q-81 0 -150.5 -30t-115.5 -92t-46 -144q0 -87 62.5 -140t150.5 -53q136 0 228 98t125 241q-40 55 -111 87.5t-143 32.5z" />
<glyph unicode="&#x2206;" horiz-adv-x="1774" d="M980 1604h398l186 -1604h-1627zM491 304h721l-103 968z" />
<glyph unicode="&#x220f;" horiz-adv-x="1648" d="M1175 0h-333l348 1304h-315l-348 -1304h-333l348 1304h-252l80 300h1485l-80 -300h-252z" />
<glyph unicode="&#x2211;" horiz-adv-x="1386" d="M-30 0l83 311l661 520l-370 479l79 294h1137l-80 -300h-729l392 -512l-628 -492h697l-81 -300h-1161z" />
<glyph unicode="&#x2212;" d="M162 601l79 296h1019l-79 -296h-1019z" />
<glyph unicode="&#x221a;" horiz-adv-x="1548" d="M157 1018l69 256h451l203 -898l721 1586h262l-892 -1962h-299l-230 1018h-285z" />
<glyph unicode="&#x221e;" horiz-adv-x="2077" d="M1491 213q-55 0 -108 17t-92 39t-86 63.5t-74.5 70.5t-73.5 80q-50 -42 -70 -58.5t-67 -52.5t-74 -52.5t-72.5 -41.5t-81.5 -36t-82.5 -20t-92.5 -9q-171 0 -276 105.5t-105 276.5q0 106 41.5 202.5t111 167t166.5 112.5t203 42q68 0 129.5 -21.5t118.5 -66.5t94 -82 t93 -101q46 39 69.5 58.5t68 54t73.5 52t73 41.5t81 36t83 20.5t93 8.5q173 0 277 -106t104 -278q0 -142 -70.5 -262.5t-191 -190t-262.5 -69.5zM635 859q-87 0 -153.5 -65t-66.5 -152q0 -71 47 -120t117 -49q24 0 49.5 6t52.5 20.5t47 26t49.5 35.5t43 35t43.5 38.5 t37 33.5q-3 3 -20.5 23.5t-22.5 26.5t-22 25t-25 26t-25.5 23t-28 22.5t-27.5 17.5t-31 15.5t-31 8t-33 3.5zM1575 859q-21 0 -44.5 -6t-43 -14t-45.5 -24t-42 -27t-43 -33.5t-38 -31.5t-38 -33.5t-32 -29.5q2 -3 26 -30t30 -33.5t28.5 -29.5t33.5 -31l33 -24t38 -22 t38 -11.5t43 -5.5q85 0 151.5 66.5t66.5 151.5q0 71 -46 119.5t-116 48.5z" />
<glyph unicode="&#x222b;" horiz-adv-x="952" d="M500 1213q20 73 43.5 130t64 113t91.5 93t126.5 60t169.5 23q137 0 210 -42l-67 -253q-44 15 -102 15q-181 0 -227 -175l-349 -1305q-20 -73 -43.5 -130t-64 -113t-91.5 -93t-126.5 -60t-169.5 -23q-136 0 -210 41l67 254q44 -15 102 -15q178 0 226 175z" />
<glyph unicode="&#x2236;" horiz-adv-x="723" d="M487 854q-87 0 -143 55.5t-56 142.5q0 102 70.5 174t171.5 72q87 0 144 -55.5t57 -142.5q0 -102 -71 -174t-173 -72zM301 155q-87 0 -143 55t-56 142q0 102 70 174.5t172 72.5q87 0 144 -55.5t57 -142.5q0 -102 -71.5 -174t-172.5 -72z" />
<glyph unicode="&#x2248;" horiz-adv-x="1343" d="M1346 1013q-141 -219 -342 -219q-58 0 -121 26t-108 57.5t-98 57.5t-93 26q-78 0 -163 -105l-160 160q141 219 342 219q65 0 131.5 -26t111 -57t94 -57t83.5 -26q47 0 85.5 28t77.5 76zM863 264q-58 0 -121 26t-108 57.5t-98 57.5t-93 26q-80 0 -163 -105l-160 160 q141 219 341 219q65 0 131.5 -26t111 -57t94 -57t83.5 -26q47 0 85.5 28t77.5 76l160 -160q-141 -219 -341 -219z" />
<glyph unicode="&#x2260;" horiz-adv-x="1303" d="M917 881l-156 -265h433l-78 -297h-529l-194 -335l-195 109l132 226h-253l78 297h350l155 265h-435l77 294h527l186 315l197 -102l-126 -213h256l-78 -294h-347z" />
<glyph unicode="&#x2264;" horiz-adv-x="1356" d="M271 1055l1169 385l-83 -316l-752 -218l-1 -5l635 -223l-76 -289l-964 390zM1140 284h-1072l-75 -284h1072z" />
<glyph unicode="&#x2265;" horiz-adv-x="1348" d="M206 705l752 222l1 5l-636 219l77 289l966 -385l-73 -276l-1170 -390zM1163 284h-1072l-75 -284h1072z" />
<glyph unicode="&#x25a0;" horiz-adv-x="1860" d="M1658 1457v-1457h-1451v1457h1451z" />
<glyph unicode="&#x25a1;" horiz-adv-x="1860" d="M207 1457h1451v-1457h-1451v1457zM428 1240v-1025h1003v1025h-1003z" />
<glyph unicode="&#x25b2;" horiz-adv-x="1716" d="M0 0l862 1495l854 -1495h-1716z" />
<glyph unicode="&#x25b3;" horiz-adv-x="1716" d="M858 1487l853 -1487h-1705zM388 217h938l-468 824z" />
<glyph unicode="&#x25ca;" horiz-adv-x="1510" d="M365 1l-361 803l790 800h340l361 -800l-789 -803h-341zM405 781l200 -451l488 498l-200 451z" />
<glyph unicode="&#x25cb;" horiz-adv-x="1665" d="M834 -28q-155 0 -295.5 60t-242.5 161t-162 241.5t-60 295.5t60 295.5t162 242.5t242.5 162t295.5 60q154 0 294.5 -60t241.5 -162t161 -242.5t60 -295.5t-60 -295.5t-161 -241.5t-241.5 -161t-294.5 -60zM834 1271q-146 0 -270 -72.5t-196 -197t-72 -271.5t72 -271.5 t196 -197t270 -72.5q144 0 266 72.5t193 197t71 271.5t-71 271.5t-193 197t-266 72.5z" />
<glyph unicode="&#x25cf;" horiz-adv-x="1665" d="M74 730q0 155 60 295.5t161 242.5t241.5 162t294.5 60q155 0 295.5 -60t242.5 -162t162 -242.5t60 -295.5t-60 -295.5t-162 -241.5t-242.5 -161t-295.5 -60q-154 0 -294.5 60t-241.5 161t-161 241.5t-60 295.5z" />
<glyph unicode="&#x25fc;" horiz-adv-x="1095" d="M0 1095h1095v-1095h-1095v1095z" />
<glyph unicode="&#x2605;" horiz-adv-x="1716" d="M1049 907h618l-500 -363l191 -587l-500 363l-501 -359l192 583l-499 363h617l191 588z" />
<glyph unicode="&#x2611;" horiz-adv-x="1958" d="M1658 1324v-1324h-1451v1457h1256l265 463l204 -122zM424 211h564l-553 668l181 157l357 -435l368 643h-917v-1033zM1434 936l-419 -725h419v725z" />
<glyph unicode="&#x2612;" horiz-adv-x="1860" d="M207 0v1457h1451v-1457h-1451zM1434 1244h-1010v-1033h1010v1033zM931 568l-316 -319l-157 159l316 319l-316 316l159 157l314 -314l312 314l157 -157l-312 -316l312 -312l-157 -159z" />
<glyph unicode="&#x2639;" horiz-adv-x="1665" d="M834 -28q-155 0 -295.5 60t-242.5 161t-162 241.5t-60 295.5t60 295.5t162 242.5t242.5 162t295.5 60q154 0 294.5 -60t241.5 -162t161 -242.5t60 -295.5t-60 -295.5t-161 -241.5t-241.5 -161t-294.5 -60zM834 1306q-156 0 -288 -77.5t-208.5 -210t-76.5 -288.5 t76.5 -288.5t208.5 -210t288 -77.5q154 0 284 77.5t205.5 210t75.5 288.5t-75.5 288.5t-205.5 210t-284 77.5zM783 930q0 -56 -40 -96h-192q-40 42 -40 96q0 56 40 96t96 40t96 -40t40 -96zM1153 930q0 -55 -39 -96h-191q-41 43 -41 96q0 56 40 96t96 40t95.5 -40t39.5 -96z M1076 369q-12 94 -84.5 152.5t-158.5 58.5q-88 0 -161 -58t-85 -153h-159q20 159 136 260t269 101q151 0 266.5 -102t135.5 -259h-159z" />
<glyph unicode="&#x263a;" horiz-adv-x="1665" d="M834 -28q-155 0 -295.5 60t-242.5 161t-162 241.5t-60 295.5t60 295.5t162 242.5t242.5 162t295.5 60q154 0 294.5 -60t241.5 -162t161 -242.5t60 -295.5t-60 -295.5t-161 -241.5t-241.5 -161t-294.5 -60zM834 1306q-156 0 -288 -77.5t-208.5 -210t-76.5 -288.5 t76.5 -288.5t208.5 -210t288 -77.5q154 0 284 77.5t205.5 210t75.5 288.5t-75.5 288.5t-205.5 210t-284 77.5zM783 930q0 -56 -40 -95.5t-96 -39.5t-96 39.5t-40 95.5t40 96t96 40t96 -40t40 -96zM1153 930q0 -56 -39.5 -95.5t-95.5 -39.5t-96 39.5t-40 95.5t40 96t96 40 t95.5 -40t39.5 -96zM1235 679q-20 -157 -135.5 -259t-266.5 -102q-153 0 -269 101t-136 260h159q12 -95 85 -153t161 -58q86 0 158.5 58.5t84.5 152.5h159z" />
<glyph unicode="&#x263b;" horiz-adv-x="1665" d="M834 -28q-155 0 -295.5 60t-242.5 161t-162 241.5t-60 295.5t60 295.5t162 242.5t242.5 162t295.5 60q154 0 294.5 -60t241.5 -162t161 -242.5t60 -295.5t-60 -295.5t-161 -241.5t-241.5 -161t-294.5 -60zM783 930q0 56 -40 96t-96 40t-96 -40t-40 -96t40 -95.5t96 -39.5 t96 39.5t40 95.5zM1153 930q0 56 -39.5 96t-95.5 40t-96 -40t-40 -96t40 -95.5t96 -39.5t95.5 39.5t39.5 95.5zM1076 679q-12 -94 -84.5 -152.5t-158.5 -58.5q-88 0 -161 58t-85 153h-159q20 -159 136 -260t269 -101q151 0 266.5 102t135.5 259h-159z" />
<glyph unicode="&#x2665;" horiz-adv-x="1785" d="M7 983q0 198 134.5 334t332.5 136q117 0 216.5 -58t147.5 -161q50 106 149.5 162.5t221.5 56.5q194 0 327 -138t133 -332q0 -125 -55.5 -253t-139 -232.5t-199.5 -208t-219.5 -176.5t-217.5 -141h-1q-93 56 -179.5 116t-184.5 138.5t-178 164.5t-147 180.5t-104 200.5 t-37 211z" />
<glyph unicode="&#x2713;" horiz-adv-x="1929" d="M31 628l166 157l442 -477l1061 1157l166 -163l-1234 -1334z" />
<glyph unicode="&#x2715;" horiz-adv-x="1546" d="M770 564l-569 -573l-161 163l569 573l-569 569l163 161l567 -567l563 567l161 -161l-563 -569l575 -573l-161 -163z" />
<glyph unicode="&#x2e18;" horiz-adv-x="1199" d="M693 722q-75 0 -125.5 47.5t-50.5 122.5q0 95 67 161t162 66q75 0 125.5 -47.5t50.5 -122.5q0 -95 -67 -161t-162 -66zM377 -535q103 0 202 31t181 88t137.5 145t67.5 193l-273 30q-23 -87 -97 -145.5t-164 -58.5q-91 0 -145.5 40t-54.5 127q0 67 49.5 146t109.5 127h5 l-51 -235h289l124 639h-263q-47 -51 -118.5 -117t-129.5 -116.5t-121.5 -116t-106.5 -123.5t-71 -129t-28 -141q0 -120 65 -209t167.5 -132t225.5 -43z" />
<glyph unicode="&#xe008;" horiz-adv-x="1584" d="M986 1628q143 0 255.5 -52t182.5 -141.5t106 -204.5t36 -246q0 -145 -34.5 -288.5t-104.5 -272t-166 -227.5t-229.5 -157.5t-284.5 -58.5q-145 0 -257 48t-182 135t-105.5 202.5t-35.5 255.5q0 144 34 287.5t103 273t165 229t230 158.5t287 59zM951 1314q-103 0 -190 -67 t-140 -170t-82.5 -217.5t-29.5 -218.5q0 -32 1 -48l625 656q-67 65 -184 65zM772 294q103 0 191.5 67t143.5 170t86 218t31 218q0 32 -1 48l-630 -659q64 -62 179 -62z" />
<glyph unicode="&#xe09d;" horiz-adv-x="1720" d="M1332 410q-7 -28 -7 -49q0 -103 131 -103q61 0 108 13l-68 -256q-69 -30 -171 -30q-155 0 -245 69t-90 218q0 66 20 144l108 406h-452l-216 -822h-324l217 822h-219l72 271h218l47 163q21 73 45.5 129t64.5 112.5t91.5 93.5t127 60t169.5 23q141 0 209 -40l-68 -260 q-48 21 -102 21q-178 0 -227 -176l-35 -126h458l90 343h319l-91 -343h266l-74 -271h-263z" />
<glyph unicode="&#xf633;" horiz-adv-x="1783" d="M1303 392q-67 0 -129.5 31t-84.5 88q-46 -51 -119 -86t-139 -35q-118 -1 -204 91.5t-86 216.5q0 122 63 239.5t174.5 194t239.5 76.5q59 0 111.5 -30t68.5 -83l33 105l236 -1l-152 -511q-8 -26 -8 -51q0 -60 57 -60q84 0 152 69.5t100.5 160.5t32.5 173q0 112 -49.5 208 t-130 158t-181 97t-205.5 35q-148 0 -287.5 -63t-241 -168t-163 -247.5t-61.5 -294.5q0 -263 162 -418t424 -155q110 0 235 39.5t219 102.5l64 -122q-94 -76 -247.5 -123.5t-282.5 -47.5q-207 0 -372.5 89t-261 253t-95.5 374q0 187 72.5 358t194.5 296t292 199.5t356 74.5 q108 0 213.5 -28.5t195.5 -83t158.5 -128.5t108 -171.5t39.5 -205.5q0 -115 -35 -224.5t-97.5 -197t-159 -141t-210.5 -53.5zM1015 983q-86 0 -154.5 -75.5t-68.5 -161.5q0 -55 32.5 -93t86.5 -38q86 0 154.5 81t68.5 169q0 54 -32.5 86t-86.5 32z" />
<glyph unicode="&#xf653;" horiz-adv-x="1091" d="M675 653q60 -24 103 -48t83 -59t61 -83t21 -108q0 -156 -116.5 -257t-285.5 -119l-49 -188h-263l57 214q-118 39 -189 123t-71 206v9l285 45q-2 -76 49.5 -119.5t125.5 -43.5q55 0 96.5 27t41.5 72q0 58 -74 88l-121 47q-242 93 -242 285q0 100 55 183.5t143.5 132 t193.5 58.5l49 186h262l-60 -228q98 -45 158.5 -124t60.5 -183l-285 -31q0 61 -43 99t-100 38q-50 0 -88.5 -26t-38.5 -68q0 -58 69 -84z" />
<glyph unicode="&#xf730;" horiz-adv-x="1342" d="M623 -25q-240 0 -384 143t-144 366q0 121 50 236.5t134.5 203t202.5 141t247 53.5q241 0 385 -142.5t144 -365.5q0 -121 -50.5 -237t-134.5 -203.5t-202.5 -141t-247.5 -53.5zM712 828q-66 0 -125 -32.5t-97.5 -82t-61 -108.5t-22.5 -113q0 -107 66 -166.5t172 -59.5 q66 0 124.5 32t96.5 82t59.5 108.5t21.5 113.5q0 108 -64 167t-170 59z" />
<glyph unicode="&#xf731;" horiz-adv-x="888" d="M255 0l202 766l-253 -125l-104 209l485 243h282l-288 -1093h-324z" />
<glyph unicode="&#xf732;" horiz-adv-x="1074" d="M-10 77q34 152 143.5 271t259.5 178l178 70q164 64 164 173q0 46 -32.5 71t-90.5 25q-83 0 -131 -63.5t-48 -128.5l-274 37q28 188 161 299t327 111q165 0 271.5 -94t106.5 -231q0 -70 -22 -130.5t-56 -103.5t-84 -80t-96.5 -60.5t-104.5 -46.5l-162 -64q-82 -33 -98 -59 h483l-66 -251h-846z" />
<glyph unicode="&#xf733;" horiz-adv-x="1061" d="M434 -23q-173 0 -284 93.5t-107 265.5l275 33q-8 -142 142 -142q67 0 114 36t47 103q0 46 -34 71.5t-82 25.5t-93 -15l-78 193l318 206h-469l65 246h829l-63 -239l-325 -218q77 -21 129 -66.5t72 -94.5t20 -100q0 -120 -67 -212.5t-174.5 -139t-234.5 -46.5z" />
<glyph unicode="&#xf734;" horiz-adv-x="1176" d="M775 0h-284l52 199h-553l83 314l632 580h358l-170 -645h176l-66 -249h-175zM316 448h293l93 354z" />
<glyph unicode="&#xf735;" horiz-adv-x="1041" d="M414 -23q-60 0 -118 13t-110 41.5t-90.5 68.5t-58 98t-12.5 126l268 48q-5 -62 30.5 -103.5t101.5 -41.5q75 0 131 51t56 126q0 50 -35.5 78t-85.5 28q-92 0 -159 -72l-229 72l250 583h688l-63 -244h-469l-81 -188q93 70 215 70q113 0 188 -84t75 -210q0 -136 -67.5 -242 t-179.5 -162t-245 -56z" />
<glyph unicode="&#xf736;" horiz-adv-x="1105" d="M691 1117q96 0 195 -28t173 -80l-117 -220q-115 82 -248 82q-102 0 -184 -61.5t-109 -161.5l3 -1q87 80 225 80q147 0 246 -89.5t99 -234.5q0 -186 -134 -306.5t-322 -120.5q-201 0 -315.5 120t-114.5 321q0 128 43.5 253t119.5 224.5t191.5 161t248.5 61.5zM504 224 q70 0 121.5 49t51.5 119q0 58 -39.5 90t-98.5 32q-69 0 -119.5 -49.5t-50.5 -118.5q0 -57 38.5 -89.5t96.5 -32.5z" />
<glyph unicode="&#xf737;" horiz-adv-x="1000" d="M15 0l649 842h-513l66 251h858l-66 -252l-620 -841h-374z" />
<glyph unicode="&#xf738;" horiz-adv-x="1096" d="M816 538q126 -65 126 -217q0 -104 -65.5 -183.5t-169 -119.5t-226.5 -40q-78 0 -153.5 22.5t-136.5 63.5t-98.5 104t-37.5 138q0 210 240 298q-48 28 -78 79.5t-30 114.5q0 142 126 232t309 90q78 0 150 -20t130 -57.5t92.5 -98t34.5 -135.5q0 -92 -55.5 -161 t-157.5 -110zM613 881q-55 0 -100 -32.5t-45 -75.5q0 -45 41.5 -73t95.5 -28q58 0 101 33.5t43 76.5q0 45 -40.5 72t-95.5 27zM502 451q-60 0 -111 -33t-51 -87q0 -53 47 -83.5t106 -30.5q62 0 113 33t51 89q0 53 -47 82.5t-108 29.5z" />
<glyph unicode="&#xf739;" horiz-adv-x="1108" d="M436 -24q-109 0 -192.5 20t-177.5 85l117 221q107 -80 250 -80q101 0 180 63t106 165l-2 1q-44 -40 -106.5 -62t-124.5 -22q-147 0 -246 91t-99 236q0 123 63 221t166.5 150t225.5 52q200 0 315.5 -123t115.5 -325q0 -129 -41.5 -252t-115 -221.5t-187 -159t-247.5 -60.5 zM611 870q-70 0 -122 -49.5t-52 -118.5q0 -58 40 -90t99 -32q69 0 119 49.5t50 118.5q0 57 -38 89.5t-96 32.5z" />
<glyph horiz-adv-x="1634" d="M1458 2048q0 -139 -100 -242.5t-251 -103.5q-115 0 -191 72t-76 187q0 140 101.5 243t249.5 103q119 0 193 -73.5t74 -185.5zM1274 2029q0 48 -28 75t-76 27q-59 0 -102.5 -46t-43.5 -105q0 -48 28 -75.5t76 -27.5q59 0 102.5 46.5t43.5 105.5zM1135 344h-688l-205 -344 h-357l983 1604h410l247 -1604h-340zM627 648h465l-84 631z" />
<glyph horiz-adv-x="1775" d="M844 -546q-204 0 -298 144l133 107q57 -80 157 -80q34 0 64.5 17t30.5 48q0 30 -23 44.5t-56 14.5q-46 0 -87 -15l-81 128l105 121q-282 33 -454 222t-172 480q0 200 79 377t210 300.5t305 195t361 71.5q138 0 253.5 -34t193.5 -88t135.5 -126.5t88 -145.5t42.5 -149 l-322 -103q-7 41 -21 79t-46 86t-76.5 82t-119 58t-168.5 24q-150 0 -281 -79.5t-210 -218t-79 -301.5q0 -202 110 -311.5t321 -109.5q68 0 127.5 13.5t103 33.5t82.5 51.5t63.5 59t48.5 65.5t35.5 61.5t25.5 55.5l309 -120q-26 -68 -66 -134t-106.5 -136t-147.5 -124 t-195 -92t-243 -47l-82 -95q100 1 163.5 -50.5t63.5 -150.5q0 -104 -84.5 -166.5t-192.5 -62.5z" />
<glyph horiz-adv-x="2317" d="M962 0q-204 0 -358.5 48.5t-251.5 138t-145 212t-48 275.5q0 82 16 166t54 176.5t95 176t146 159.5t200 131.5t263.5 88t329.5 32.5h1220l-82 -307h-696l-89 -334h620l-81 -306h-621l-93 -350h701l-82 -307h-1098zM1105 310l263 983h-148q-207 0 -369.5 -72.5 t-255.5 -210.5t-93 -320q0 -187 127.5 -283.5t353.5 -96.5h122z" />
</font>
</defs>
</svg>
