<?xml version="1.0" standalone="no"?>
<!DOCTYPE svg PUBLIC "-//W3C//DTD SVG 1.1//EN" "http://www.w3.org/Graphics/SVG/1.1/DTD/svg11.dtd" >
<svg xmlns="http://www.w3.org/2000/svg">
<metadata></metadata>
<defs>
<font id="gorditablack_italic" horiz-adv-x="1412" >
<font-face units-per-em="2048" ascent="1638" descent="-410" />
<missing-glyph horiz-adv-x="480" />
<glyph unicode="ff" horiz-adv-x="1750" d="M1841 1351q-88 0 -136.5 -42.5t-74.5 -128.5l-26 -87h269l-85 -318h-264l-207 -775h-388l207 775h-431l-207 -775h-387l207 775h-202l85 318h199l42 152q54 196 189.5 312.5t360.5 116.5q146 0 216 -44l-80 -302q-49 23 -105 23q-88 0 -138 -43t-74 -128l-25 -87h433 l42 152q54 196 189.5 312.5t360.5 116.5q146 0 216 -44l-81 -302q-47 23 -105 23z" />
<glyph unicode="fi" horiz-adv-x="1582" d="M1530 1692q89 0 147 -56.5t58 -145.5q0 -104 -72.5 -176.5t-176.5 -72.5q-88 0 -145.5 56t-57.5 145q0 103 72 176.5t175 73.5zM1312 0h-392l207 775h-421l-207 -775h-388l207 775h-201l85 318h199l42 152q54 196 189.5 312.5t360.5 116.5q146 0 216 -44l-81 -302 q-47 23 -105 23q-88 0 -136.5 -42.5t-74.5 -128.5l-26 -87h818z" />
<glyph unicode="fl" horiz-adv-x="1583" d="M1758 1669l-446 -1669h-393l207 775h-420l-207 -775h-388l207 775h-201l85 318h199l42 152q54 196 189.5 312.5t360.5 116.5q146 0 216 -44l-81 -302q-47 23 -105 23q-88 0 -136.5 -42.5t-74.5 -128.5l-26 -87h425l154 576h393z" />
<glyph unicode="ffi" horiz-adv-x="2388" d="M2336 1692q89 0 147 -56.5t58 -145.5q0 -104 -72.5 -176.5t-176.5 -72.5q-88 0 -145.5 56t-57.5 145q0 103 72 176.5t175 73.5zM2118 0h-392l207 775h-418l-207 -775h-388l207 775h-422l-207 -775h-387l207 775h-202l85 318h199l42 152q54 196 189.5 312.5t360.5 116.5 q146 0 216 -44l-80 -302q-49 23 -105 23q-88 0 -138 -43t-74 -128l-25 -87h424l42 152q54 196 189.5 312.5t360.5 116.5q146 0 216 -44l-81 -302q-47 23 -105 23q-88 0 -136.5 -42.5t-74.5 -128.5l-26 -87h815z" />
<glyph unicode="ffl" horiz-adv-x="2387" d="M2563 1669l-446 -1669h-393l207 775h-418l-207 -775h-388l207 775h-420l-207 -775h-387l207 775h-202l85 318h199l42 152q54 196 189.5 312.5t360.5 116.5q146 0 216 -44l-80 -302q-49 23 -105 23q-88 0 -138 -43t-74 -128l-25 -87h422l42 152q54 196 189.5 312.5 t360.5 116.5q146 0 216 -44l-81 -302q-47 23 -105 23q-88 0 -136.5 -42.5t-74.5 -128.5l-26 -87h423l154 576h393z" />
<glyph horiz-adv-x="0" />
<glyph horiz-adv-x="0" />
<glyph unicode="&#xd;" horiz-adv-x="480" />
<glyph unicode=" "  horiz-adv-x="480" />
<glyph unicode="&#x09;" horiz-adv-x="480" />
<glyph unicode="&#xa0;" horiz-adv-x="480" />
<glyph unicode="!" horiz-adv-x="723" d="M252 -25q-88 0 -144.5 55.5t-56.5 143.5q0 102 71.5 175t173.5 73q88 0 145.5 -56t57.5 -143q0 -103 -72 -175.5t-175 -72.5zM859 1604l-316 -1059h-354l251 1059h419z" />
<glyph unicode="&#x22;" horiz-adv-x="1100" d="M680 1259l-213 -413h-155l-14 453q-3 127 58.5 211t179.5 84q75 0 131.5 -43t59.5 -113q2 -86 -47 -179zM1196 1259l-213 -413h-156l-13 453q-4 127 57.5 211t179.5 84q75 0 132 -43t59 -113q4 -84 -46 -179z" />
<glyph unicode="#" horiz-adv-x="1651" d="M691 656h304l105 299h-301zM1074 0h-321l117 327h-293l-117 -327h-324l118 327h-209l87 333h242l105 291h-230l91 333h255l110 304h323l-109 -304l292 -1l108 305h323l-107 -305h223l-91 -332h-250l-102 -291h235l-88 -333h-269z" />
<glyph unicode="$" horiz-adv-x="1445" d="M657 -8l-54 -201l-152 -1l59 223q-89 22 -164.5 61.5t-135.5 97t-94 138.5t-34 177q0 17 2 47l354 63q-3 -19 -3 -39q0 -82 45.5 -139.5t120.5 -81.5l83 313l-24 8q-177 54 -284 171t-107 258q0 128 53.5 231.5t142 167.5t197.5 98t227 34q17 0 49 -2l56 210l152 1 l-62 -231q101 -24 178 -74.5t120.5 -114.5t65 -130.5t21.5 -133.5l-370 -61q0 33 -9.5 65t-34.5 65t-63 52l-80 -300l29 -9q103 -31 183 -83t126.5 -113t69.5 -123.5t23 -122.5q0 -249 -171.5 -386t-459.5 -137q-19 0 -55 2zM934 476q0 88 -117 133l-76 -285q96 9 144.5 55 t48.5 97zM675 1135q0 -89 104 -130l75 282q-90 -7 -134.5 -55t-44.5 -97z" />
<glyph unicode="%" horiz-adv-x="2202" d="M647 0l1391 1604h-340l-1393 -1604h342zM631 840q-172 0 -273.5 98t-101.5 249q0 112 58 211t162.5 160.5t229.5 61.5q174 0 278 -98t104 -248q0 -84 -35.5 -163t-95.5 -139t-145.5 -96t-180.5 -36zM657 1096q63 0 107 45.5t44 103.5q0 51 -34 85t-92 34q-62 0 -104 -45 t-42 -103q0 -51 32.5 -85.5t88.5 -34.5zM1638 -12q-173 0 -274 97.5t-101 249.5q0 83 34.5 162t93.5 138.5t143.5 95.5t178.5 36q174 0 278 -98t104 -248q0 -83 -35.5 -162t-95.5 -139t-145.5 -96t-180.5 -36zM1664 243q63 0 107 46t44 103q0 51 -34.5 85.5t-91.5 34.5 q-62 0 -104 -45t-42 -103q0 -51 32.5 -86t88.5 -35z" />
<glyph unicode="&#x26;" horiz-adv-x="1529" d="M1216 776l259 -128q-93 -177 -258 -327l198 -321h-374l-78 127q-241 -150 -455 -150q-96 0 -178.5 25t-146 73.5t-100 126.5t-36.5 177q0 71 27.5 138.5t72 121t105.5 102t122 83t127 62.5q-110 181 -110 303q0 79 28.5 149.5t78 123t114 91t138 58t148.5 19.5 q89 0 170 -28.5t142.5 -79t98 -127.5t36.5 -169q0 -139 -91 -244.5t-232 -165.5l-83 -35l125 -208q89 89 152 203zM395 429q0 -72 51.5 -108.5t126.5 -36.5q111 0 247 88l-172 286q-46 -19 -81.5 -37.5t-79 -48t-68 -66t-24.5 -77.5zM798 1016l111 47q45 19 76 56t31 82 q0 56 -41 90.5t-98 34.5q-63 0 -107.5 -38t-44.5 -100q0 -52 46 -127z" />
<glyph unicode="'" horiz-adv-x="583" d="M679 1259l-213 -413h-155l-13 453q-4 127 57.5 211t179.5 84q75 0 131.5 -43t59.5 -113q2 -86 -47 -179z" />
<glyph unicode="(" horiz-adv-x="987" d="M1238 1563q-377 -163 -579 -412.5t-202 -555.5q0 -182 87 -364.5t260 -323.5l-191 -195q-232 152 -357 388.5t-125 484.5q0 286 119.5 529t347 418t540.5 261z" />
<glyph unicode=")" horiz-adv-x="986" d="M-130 -57q377 163 579 412.5t202 555.5q0 182 -86.5 364.5t-260.5 322.5l192 196q155 -102 265.5 -248t163 -305t52.5 -321q0 -286 -119.5 -528.5t-347 -418t-540.5 -261.5z" />
<glyph unicode="*" horiz-adv-x="1071" d="M1142 1067l-260 -16l92 -241l-224 -87l-97 244l-205 -164l-150 187l200 163l-218 143l131 199l217 -140l69 256l238 -63l-68 -257l258 14z" />
<glyph unicode="+" horiz-adv-x="1256" d="M1280 911l-87 -326h-379l-104 -387h-341l104 387h-379l87 326l379 1l102 382h341l-102 -383h379z" />
<glyph unicode="," horiz-adv-x="680" d="M-67 -395l44 162q119 18 199.5 76.5t103.5 144.5q-18 -10 -70 -10q-86 0 -139.5 53t-53.5 142q0 98 72.5 163.5t173.5 65.5q117 0 178.5 -73.5t61.5 -192.5q0 -138 -86.5 -262.5t-218.5 -196.5t-265 -72z" />
<glyph unicode="-" horiz-adv-x="923" d="M792 503h-676l87 326h676z" />
<glyph unicode="." horiz-adv-x="650" d="M236 -22q-94 0 -154.5 59.5t-60.5 152.5q0 110 76 188t186 78q94 0 155.5 -60t61.5 -154q0 -110 -77 -187t-187 -77z" />
<glyph unicode="/" horiz-adv-x="1240" d="M1468 1669l-1165 -1679h-365l1164 1679h366z" />
<glyph unicode="0" horiz-adv-x="1585" d="M987 1631q185 0 321.5 -87.5t204 -232.5t67.5 -326q0 -120 -25.5 -241.5t-73 -233.5t-121 -209.5t-163.5 -169.5t-206.5 -113.5t-244.5 -41.5q-188 0 -323.5 84t-203 228.5t-67.5 332.5q0 120 25.5 240.5t73.5 233t121.5 210.5t164 170.5t206.5 114t244 41.5zM567 639 q0 -135 54 -212.5t169 -77.5q75 0 139 44t106 112.5t72 153t43.5 163.5t13.5 145q0 132 -56.5 211.5t-170.5 79.5q-63 0 -118 -31t-94 -83t-70.5 -116.5t-50 -134.5t-28 -134.5t-9.5 -119.5z" />
<glyph unicode="1" horiz-adv-x="1070" d="M1189 1604l-428 -1604h-404l294 1100l-322 -162l-155 316l685 350h330z" />
<glyph unicode="2" d="M580 754l215 92q144 62 203 125t59 139q0 66 -51 114t-141 48q-24 0 -49 -4t-60.5 -20t-61.5 -42.5t-45 -77t-19 -117.5l-366 39q0 118 38.5 216.5t102 164.5t147 112t171.5 66.5t177 20.5q136 0 243.5 -41.5t172 -111t98 -154t33.5 -177.5q0 -96 -29 -178t-71.5 -138.5 t-108 -107t-121.5 -80.5t-129 -62l-268 -117q-41 -18 -75 -37t-52 -34t-30.5 -27t-16.5 -19l-4 -6h713l-90 -340h-1186q62 523 601 754z" />
<glyph unicode="3" horiz-adv-x="1426" d="M628 -24q-157 0 -286 63t-204 179t-75 262q0 29 4 61l379 40q-4 -21 -4 -49q0 -92 58.5 -151.5t153.5 -59.5q111 0 188.5 67t77.5 176q0 81 -51 127t-144 46q-65 0 -131 -28l-114 266l488 290h-665l85 339h1169l-93 -369l-430 -258q138 -40 217 -146t79 -243 q0 -140 -58 -257t-155.5 -193.5t-223.5 -119t-265 -42.5z" />
<glyph unicode="4" horiz-adv-x="1554" d="M1412 298h-236l-76 -298h-398l76 298h-781l110 406l944 900h474l-258 -966h239zM868 638l140 527l-555 -527h415z" />
<glyph unicode="5" horiz-adv-x="1401" d="M500 670l-310 145l337 789h984l-91 -339h-676l-126 -293l3 -1q129 75 288 75q190 0 302 -120t112 -312q0 -186 -98.5 -334.5t-257 -227.5t-342.5 -79q-248 0 -408 140t-160 384l370 67q0 -5 -0.5 -15t-0.5 -15q0 -99 59 -158t161 -59q104 0 182.5 67t78.5 179 q0 82 -60 130.5t-145 48.5q-102 0 -202 -72z" />
<glyph unicode="6" horiz-adv-x="1492" d="M1162 1631q141 0 256 -30.5t189 -80.5l-176 -318q-135 78 -311 78q-182 0 -332.5 -104.5t-200.5 -266.5h3q89 72 175.5 107.5t189.5 35.5q188 0 321 -126t133 -313q0 -186 -91 -333t-245.5 -226.5t-341.5 -79.5q-267 0 -429 166.5t-162 439.5q0 212 73.5 403.5t204 335 t324 228t420.5 84.5zM529 497q0 -84 62.5 -133t148.5 -49q107 0 186 69t79 173q0 85 -61 133t-148 48q-101 0 -184 -70.5t-83 -170.5z" />
<glyph unicode="7" horiz-adv-x="1324" d="M1464 1270l-952 -1270h-465l950 1255h-755l93 349h1218z" />
<glyph unicode="8" horiz-adv-x="1451" d="M1459 1191q0 -76 -28 -141t-77.5 -112.5t-106 -81.5t-124.5 -58l-1 -2q97 -48 157.5 -135t60.5 -195q0 -99 -40 -182.5t-105.5 -139t-152 -94.5t-177.5 -56.5t-184 -17.5q-85 0 -167.5 16.5t-158.5 52.5t-133.5 87.5t-92 127.5t-34.5 167q0 83 31 155.5t84 125t115.5 90 t132.5 60.5l1 2q-176 128 -176 305q0 92 36.5 170.5t98 132t141.5 91t165.5 55t172.5 17.5q104 0 202 -27.5t179.5 -79.5t131 -138.5t49.5 -194.5zM1051 1142q0 72 -53 111t-129 39q-79 0 -136.5 -50t-57.5 -128q0 -71 53 -110t126 -39q81 0 139 49t58 128zM950 508 q0 78 -65.5 124t-146.5 46q-92 0 -161.5 -52.5t-69.5 -141.5q0 -83 62.5 -125.5t149.5 -42.5q96 0 163.5 49.5t67.5 142.5z" />
<glyph unicode="9" horiz-adv-x="1496" d="M489 -26q-142 0 -261.5 30.5t-192.5 79.5l176 318q65 -37 152 -57.5t168 -20.5q182 0 332 105.5t200 267.5l-3 1q-177 -145 -369 -145q-123 0 -228 58t-168 160.5t-63 225.5q0 183 91.5 328.5t246 225t340.5 79.5q261 0 426 -171t165 -444q0 -212 -71.5 -401.5 t-200.5 -331.5t-321 -225t-419 -83zM1113 1107q0 84 -62.5 133.5t-149.5 49.5q-106 0 -185 -69t-79 -174q0 -84 61 -132.5t148 -48.5q101 0 184 70.5t83 170.5z" />
<glyph unicode=":" horiz-adv-x="689" d="M238 -22q-94 0 -155 59.5t-61 152.5q0 110 76.5 188t185.5 78q94 0 155.5 -60t61.5 -154q0 -110 -77 -187t-186 -77zM415 641q-94 0 -154.5 59.5t-60.5 153.5q0 110 76 187.5t186 77.5q94 0 155.5 -60t61.5 -153q0 -110 -77 -187.5t-187 -77.5z" />
<glyph unicode=";" horiz-adv-x="709" d="M-70 -395l44 162q119 18 199.5 76.5t103.5 144.5q-18 -10 -70 -10q-86 0 -139.5 53t-53.5 142q0 98 72.5 163.5t173.5 65.5q117 0 178.5 -73.5t61.5 -192.5q0 -138 -86.5 -262.5t-218.5 -196.5t-265 -72zM426 641q-94 0 -154.5 59.5t-60.5 153.5q0 110 76 187.5t186 77.5 q94 0 155.5 -60t61.5 -153q0 -110 -77 -187.5t-187 -77.5z" />
<glyph unicode="&#x3c;" horiz-adv-x="1303" d="M1287 1010l-768 -274l619 -285l-87 -324l-955 485l73 274l1214 486z" />
<glyph unicode="=" horiz-adv-x="1300" d="M1257 850h-1042l86 322h1042zM1118 327h-1043l86 320h1042z" />
<glyph unicode="&#x3e;" horiz-adv-x="1305" d="M909 765l-622 283l87 324l954 -486l-73 -274l-1214 -485l97 362z" />
<glyph unicode="?" horiz-adv-x="1255" d="M581 -25q-88 0 -145 55.5t-57 143.5q0 102 71.5 175t173.5 73q88 0 145.5 -56t57.5 -143q0 -104 -71.5 -176t-174.5 -72zM643 848l136 106q78 61 118.5 110t40.5 103q0 59 -43 87.5t-104 28.5q-83 0 -136 -68t-53 -153l-362 44q0 120 52.5 220.5t139 166t195 101.5 t223.5 36q91 0 176 -24t154.5 -71t111.5 -124t42 -174q0 -115 -53 -205.5t-127 -151.5l-142 -116q-91 -75 -127 -120t-50 -109h-361q0 84 48 170t121 143z" />
<glyph unicode="@" horiz-adv-x="1794" d="M1200 1043h240q-164 -499 -164 -564q0 -60 55 -60q63 0 119 41t91.5 103t55.5 131t20 128q0 148 -84.5 263.5t-214.5 174.5t-276 59q-152 0 -292.5 -63.5t-241.5 -169t-161 -248t-60 -294.5q0 -250 167 -410t424 -160q112 0 237.5 39.5t220.5 103.5l67 -128 q-96 -77 -251 -125t-286 -48q-152 0 -287.5 52.5t-236 144.5t-159.5 227t-59 292q0 189 72 362.5t194.5 300.5t295 202.5t364.5 75.5q105 0 209.5 -27.5t198 -82.5t165.5 -129.5t114 -175t42 -213.5q0 -85 -22 -172t-66.5 -166.5t-104.5 -141t-142.5 -98.5t-174.5 -37 q-67 0 -130.5 30t-85.5 86q-44 -51 -117.5 -85t-141.5 -34q-125 0 -207.5 95.5t-82.5 223.5t64.5 245t176 189t237.5 72q58 0 114 -28t71 -78zM1097 702q0 52 -31.5 83.5t-84.5 31.5q-84 0 -151 -74.5t-67 -159.5q0 -53 31 -90t84 -37q84 0 151.5 80t67.5 166z" />
<glyph unicode="A" horiz-adv-x="1676" d="M1581 0h-418l-42 295h-640l-185 -295h-435l1011 1604h461zM1076 637l-75 525l-315 -525h390z" />
<glyph unicode="B" horiz-adv-x="1548" d="M836 650h-238l-81 -302h269q65 0 120 17t93 57.5t38 98.5q0 129 -201 129zM961 1258h-202l-76 -290h225q106 0 178 40.5t72 127.5q0 122 -197 122zM723 0h-693l428 1604h531q49 0 95 -3t106 -13t111 -26.5t102 -46.5t86.5 -69t58 -97.5t22.5 -130.5q0 -159 -103 -267.5 t-260 -140.5v-3q116 -36 180.5 -121t64.5 -198q0 -106 -45 -194t-133.5 -154t-229 -103t-321.5 -37z" />
<glyph unicode="C" horiz-adv-x="1770" d="M151 694q0 189 76 362t203.5 299t303.5 201t367 75q105 0 197.5 -18t162 -49t128 -74t99 -91.5t71 -104t48 -108t26.5 -107.5l-392 -122q-11 55 -35 102.5t-66.5 93.5t-115.5 73t-167 27q-99 0 -190.5 -46.5t-155.5 -121t-102 -169.5t-38 -191q0 -166 103 -268t280 -102 q72 0 136.5 20t110.5 50.5t84.5 71.5t62 78t40.5 75l360 -140q-28 -71 -72.5 -141t-118.5 -142.5t-164 -127t-216 -89t-267 -34.5q-158 0 -297.5 53t-241.5 146.5t-161 228t-59 290.5z" />
<glyph unicode="D" horiz-adv-x="1694" d="M590 0h-559l425 1604h438q182 0 327.5 -41t252 -122.5t163.5 -211.5t57 -301q0 -179 -72.5 -351.5t-215.5 -304.5q-295 -272 -816 -272zM1270 896q0 335 -416 335h-90l-230 -857h107q139 0 251 35t180.5 89.5t115 125.5t64.5 138.5t18 133.5z" />
<glyph unicode="E" horiz-adv-x="1405" d="M1154 0h-1124l428 1604h1118l-96 -359h-714l-71 -262h651l-93 -346h-650l-74 -276h721z" />
<glyph unicode="F" horiz-adv-x="1379" d="M1573 1604l-98 -368h-710l-78 -290h643l-94 -354h-643l-157 -592h-406l428 1604h1115z" />
<glyph unicode="G" horiz-adv-x="1789" d="M1797 1145l-395 -119q-22 95 -108.5 164.5t-232.5 69.5q-132 0 -248 -77.5t-183.5 -201.5t-67.5 -258q0 -164 102.5 -272t287.5 -108q132 0 233.5 59t151.5 157h-462l76 317h850q-5 -140 -42.5 -270.5t-110.5 -245.5t-175.5 -201t-246 -135.5t-312.5 -49.5 q-223 0 -396 91t-268.5 255t-95.5 373q0 197 76.5 372t205 298t303 194.5t365.5 71.5q132 0 244 -31t187.5 -79.5t132.5 -114t87 -129.5t42 -130z" />
<glyph unicode="H" horiz-adv-x="1741" d="M1431 0h-405l168 625h-593l-166 -625h-406l429 1604h405l-163 -606h593l161 606h405z" />
<glyph unicode="I" horiz-adv-x="744" d="M434 0h-404l428 1604h405z" />
<glyph unicode="J" horiz-adv-x="1321" d="M526 -23q-98 0 -185.5 28t-156.5 81t-110 137.5t-41 189.5q0 21 2.5 45.5t5 41.5t10.5 50t11 45t14.5 54t14.5 52l389 25q-4 -18 -18 -71.5t-23 -96t-9 -70.5q0 -69 35.5 -101.5t97.5 -32.5q69 0 119 45t69 117l290 1088h411l-299 -1114q-66 -247 -221.5 -380 t-405.5 -133z" />
<glyph unicode="K" horiz-adv-x="1563" d="M1437 0h-452l-343 766l-204 -766h-408l428 1604h408l-182 -680h2l645 680h516l-801 -813z" />
<glyph unicode="L" horiz-adv-x="1266" d="M1202 368l-98 -368h-1074l428 1604h406l-330 -1236h668z" />
<glyph unicode="M" horiz-adv-x="2163" d="M1853 0h-398l271 1014h-4l-654 -1014h-244l-133 1008h-4l-269 -1008h-388l428 1604h498l132 -984l634 984h559z" />
<glyph unicode="N" horiz-adv-x="1778" d="M1468 0h-442l-326 995h-2l-266 -995h-402l428 1604h454l318 -980h1l263 980h402z" />
<glyph unicode="O" horiz-adv-x="1868" d="M1104 1631q169 0 312 -55.5t241 -151.5t153 -227t55 -280q0 -194 -77 -369t-206 -300t-303.5 -198.5t-362.5 -73.5q-149 0 -285 47.5t-243 135.5t-171 226.5t-64 306.5q0 194 76.5 369t205 299.5t303.5 197.5t366 73zM573 724q0 -173 107.5 -271t269.5 -98 q134 0 249 75.5t180.5 197.5t65.5 256q0 158 -103 263.5t-275 105.5q-100 0 -192 -45t-158 -118t-105 -169.5t-39 -196.5z" />
<glyph unicode="P" horiz-adv-x="1461" d="M848 555h-264l-149 -555h-406l429 1604h500q240 0 381 -76q108 -58 164 -155.5t56 -223.5q0 -17 -0.5 -30t-5 -51.5t-13.5 -70.5t-28 -78.5t-45.5 -86t-70 -82.5t-97.5 -77q-185 -118 -451 -118zM936 1250h-169l-92 -352h168q57 0 107.5 10.5t96 33t72 64.5t26.5 99 q0 60 -41 96q-53 49 -168 49z" />
<glyph unicode="Q" horiz-adv-x="1872" d="M1104 1631q169 0 312 -55.5t241 -151.5t153 -227t55 -280q0 -193 -73 -360.5t-205 -296.5l118 -159l-284 -187l-105 152q-194 -90 -400 -90q-149 0 -285 47.5t-243 135.5t-171 226.5t-64 306.5q0 194 76.5 369t205 299.5t303.5 197.5t366 73zM570 719q0 -172 108.5 -272 t271.5 -100q71 0 141 26l-186 257l282 188l163 -238q95 141 95 301q0 161 -102.5 266.5t-275.5 105.5q-99 0 -192 -45.5t-159 -119.5t-106 -171t-40 -198z" />
<glyph unicode="R" horiz-adv-x="1529" d="M917 0l-164 564h-166l-151 -564h-406l428 1604h499q353 0 510 -152q118 -114 118 -308q0 -185 -107 -324.5t-332 -205.5l180 -614h-409zM954 1255h-183l-93 -347h194q128 0 212.5 51.5t84.5 148.5q0 56 -34 94q-50 53 -181 53z" />
<glyph unicode="S" horiz-adv-x="1444" d="M941 470q0 17 -5 33.5t-19 37.5t-45 40t-76 33l-134 41q-180 55 -288.5 174t-108.5 262q0 105 35.5 194t96.5 152t142 107.5t171.5 65.5t185.5 21q126 0 228.5 -30.5t168.5 -79.5t110.5 -113.5t63.5 -129t19 -130.5l-377 -62q0 35 -11 69t-35 67t-70.5 53.5t-108.5 20.5 q-54 0 -96.5 -16.5t-65 -41.5t-33.5 -50t-11 -48q0 -101 133 -141l137 -42q105 -32 186.5 -85t128.5 -115t70.5 -125.5t23.5 -124.5q0 -253 -174 -391.5t-468 -138.5q-93 0 -183 19t-173.5 59.5t-146 98.5t-100 142.5t-37.5 184.5q0 32 2 48l360 63q-3 -20 -3 -39 q0 -110 78 -175t190 -65q119 0 179 50t60 107z" />
<glyph unicode="T" horiz-adv-x="1380" d="M1535 1236h-452l-329 -1236h-407l331 1236h-453l98 368h1308z" />
<glyph unicode="U" horiz-adv-x="1638" d="M1772 1604l-271 -1012q-83 -313 -261.5 -464t-492.5 -151q-150 0 -263.5 39.5t-181.5 108.5t-102.5 162.5t-34 200t31.5 223.5l238 893h409l-246 -922q-40 -151 12.5 -240.5t190.5 -89.5q228 0 307 300l254 952h410z" />
<glyph unicode="V" horiz-adv-x="1611" d="M1859 1604l-957 -1604h-426l-195 1604h437l99 -1051l596 1051h446z" />
<glyph unicode="W" horiz-adv-x="2460" d="M1432 0l-65 1070h-2l-576 -1070h-410l-92 1604h412l31 -1014h6l548 1014h390l77 -1017h5l515 1017h430l-853 -1604h-416z" />
<glyph unicode="X" horiz-adv-x="1582" d="M1467 0h-444l-214 515l-466 -515h-486l778 840l-338 763h445l193 -469l423 469h484l-734 -792z" />
<glyph unicode="Y" horiz-adv-x="1558" d="M1843 1604l-852 -1014l-157 -590h-406l168 635l-293 969h431l158 -589l473 589h478z" />
<glyph unicode="Z" horiz-adv-x="1425" d="M570 360h717l-98 -360h-1247l90 342l954 905h-678l97 357h1210l-90 -339z" />
<glyph unicode="[" horiz-adv-x="938" d="M664 -265h-703l544 2041h704l-75 -279h-380l-396 -1483h380z" />
<glyph unicode="\" horiz-adv-x="1199" d="M656 -10l-302 1679h346l304 -1679h-348z" />
<glyph unicode="]" horiz-adv-x="939" d="M557 -265h-703l74 279h381l396 1483h-381l74 279h704z" />
<glyph unicode="^" horiz-adv-x="1352" d="M1388 923h-343l-135 405l-348 -405h-374l624 681h318z" />
<glyph unicode="_" horiz-adv-x="1194" d="M948 -391h-1193l77 289h1193z" />
<glyph unicode="`" horiz-adv-x="677" d="M584 1275l-306 402h404l176 -402h-274z" />
<glyph unicode="a" d="M786 118h-4q-144 -140 -316 -140q-124 0 -216 64t-136.5 164t-44.5 218q0 137 48 264.5t128.5 221t192 149.5t233.5 56q216 0 331 -161h2l38 139h390l-239 -893q-22 -87 -27 -162v-38h-391v36q4 50 11 82zM651 321q105 0 185 81.5t80 196.5q0 77 -52 125t-133 48 q-109 0 -188 -82.5t-79 -196.5q0 -78 50.5 -125t136.5 -47z" />
<glyph unicode="b" horiz-adv-x="1410" d="M1351 670q0 -144 -49.5 -273.5t-131.5 -220.5t-191 -144.5t-226 -53.5q-221 0 -335 169h-4l-39 -147h-386l446 1669h389l-183 -688h4q143 134 310 134q75 0 143.5 -26.5t126 -78.5t92 -140t34.5 -200zM692 323q107 0 185.5 82t78.5 197q0 78 -50.5 125t-133.5 47 q-109 0 -188.5 -83.5t-79.5 -194.5q0 -78 52.5 -125.5t135.5 -47.5z" />
<glyph unicode="c" horiz-adv-x="1279" d="M622 -25q-254 0 -400 141t-146 372q0 130 54 248t143.5 201.5t210 132.5t250.5 49q118 0 215.5 -34t161.5 -92t103 -128.5t51 -148.5l-359 -102q-13 70 -60.5 114t-129.5 44q-114 0 -187.5 -82.5t-73.5 -189.5q0 -80 51.5 -129.5t141.5 -49.5q76 0 134 41t86 102 l326 -123q-65 -157 -221 -261.5t-351 -104.5z" />
<glyph unicode="d" d="M1585 1669l-392 -1469q-22 -79 -27 -162v-38h-391q-2 17 0 36q1 37 10 82h-3q-146 -140 -316 -140q-124 0 -216.5 64t-136.5 164t-44 218q0 137 48 264.5t128.5 221t192 149.5t233.5 56q216 0 330 -161h3l191 715h390zM650 321q106 0 186 81.5t80 196.5q0 77 -52 125 t-134 48q-109 0 -187.5 -82.5t-78.5 -196.5q0 -78 50.5 -125t135.5 -47z" />
<glyph unicode="e" horiz-adv-x="1294" d="M1192 449h-752q0 -78 63 -124t135 -46q68 0 127.5 27t90.5 84l303 -138q-34 -63 -84.5 -112.5t-105 -79.5t-117 -49.5t-116.5 -27t-108 -7.5q-242 0 -398 139t-156 369q0 126 54 243.5t144 203t213 136.5t255 51q97 0 186 -30.5t158.5 -86.5t110.5 -142t41 -189 q0 -111 -44 -221zM723 821q-72 0 -142.5 -42.5t-99.5 -113.5h388q8 16 8 33q0 61 -43 92t-111 31z" />
<glyph unicode="f" horiz-adv-x="931" d="M1208 1630l-80 -302q-49 23 -105 23q-88 0 -137 -42.5t-75 -128.5l-25 -87h268l-85 -318h-264l-207 -775h-387l207 775h-202l85 318h199l42 152q54 196 189.5 312.5t360.5 116.5q146 0 216 -44z" />
<glyph unicode="g" horiz-adv-x="1404" d="M467 -218q107 0 180.5 72t108.5 201l23 85h-1q-79 -59 -146.5 -89t-160.5 -30q-165 0 -281.5 123.5t-116.5 297.5q0 132 47 255.5t126 213.5t188 144.5t227 54.5q223 0 337 -164h2l40 147h386l-278 -1042q-40 -155 -85 -239q-93 -172 -243 -265.5t-351 -93.5 q-116 0 -212.5 27.5t-161.5 73.5t-110 107t-65.5 125.5t-20.5 130.5l352 69q0 -89 57.5 -146.5t158.5 -57.5zM647 342q101 0 178 78.5t77 187.5q0 74 -50 120.5t-128 46.5q-105 0 -180.5 -79.5t-75.5 -188.5q0 -75 48.5 -120t130.5 -45z" />
<glyph unicode="h" horiz-adv-x="1333" d="M1078 0h-389l154 576q9 40 9 67q0 56 -30.5 86.5t-86.5 30.5q-154 0 -201 -179l-155 -581h-390l446 1669h386l-185 -697h4q146 144 315 144q154 0 233.5 -91.5t79.5 -232.5q0 -87 -32 -201z" />
<glyph unicode="i" horiz-adv-x="652" d="M674 1093l-292 -1093h-393l292 1093h393zM556 1241q-89 0 -146 56t-57 145q0 103 71.5 176.5t175.5 73.5q88 0 146 -56.5t58 -145.5q0 -104 -72.5 -176.5t-175.5 -72.5z" />
<glyph unicode="j" horiz-adv-x="668" d="M690 1093l-327 -1227q-54 -203 -177.5 -304.5t-330.5 -101.5q-45 0 -116 16t-107 41l77 292q46 -24 99 -24q140 0 175 130l314 1178h393zM573 1241q-88 0 -145.5 56t-57.5 145q0 103 72 176.5t175 73.5q89 0 147 -56.5t58 -145.5q0 -104 -72.5 -176.5t-176.5 -72.5z" />
<glyph unicode="k" horiz-adv-x="1307" d="M522 538l-143 -538h-390l446 1669h389l-273 -1023h6l412 447h484l-528 -542l243 -551h-423z" />
<glyph unicode="l" horiz-adv-x="652" d="M382 0h-393l446 1669h392z" />
<glyph unicode="m" horiz-adv-x="2007" d="M1066 0h-389l155 579q9 38 9 66q0 54 -28 84.5t-83 30.5q-76 0 -125 -48.5t-71 -129.5l-155 -582h-390l292 1093h387l-33 -120h4q147 142 312 142q211 0 279 -180q170 181 395 181q154 0 236 -85.5t82 -235.5q0 -86 -32 -202l-159 -593h-386l152 579q10 37 10 66 q0 115 -111 115q-148 0 -197 -179z" />
<glyph unicode="n" horiz-adv-x="1333" d="M1078 0h-389l154 576q9 40 9 67q0 56 -30.5 86.5t-86.5 30.5q-154 0 -201 -179l-155 -581h-390l292 1093h387l-32 -121h4q146 144 315 144q154 0 233.5 -91.5t79.5 -232.5q0 -87 -32 -201z" />
<glyph unicode="o" horiz-adv-x="1339" d="M639 321q106 0 180.5 80t74.5 190q0 82 -51.5 131.5t-133.5 49.5q-109 0 -182 -81t-73 -189q0 -78 48 -129.5t137 -51.5zM618 -25q-252 0 -398 143t-146 366q0 122 50 237.5t135.5 203t208.5 140.5t261 53q127 0 231 -39t172.5 -107t105.5 -160.5t37 -200.5 q0 -123 -49.5 -239t-135.5 -203.5t-209.5 -140.5t-262.5 -53z" />
<glyph unicode="p" horiz-adv-x="1410" d="M1351 670q0 -144 -49.5 -273.5t-131.5 -220.5t-191 -144.5t-226 -53.5q-221 0 -335 169h-4l-183 -687h-386l436 1633h390l-30 -112h4q143 134 310 134q75 0 143.5 -26.5t126 -78.5t92 -140t34.5 -200zM692 323q107 0 185.5 82t78.5 197q0 78 -50.5 125t-133.5 47 q-109 0 -188.5 -83.5t-79.5 -194.5q0 -78 52.5 -125.5t135.5 -47.5z" />
<glyph unicode="q" horiz-adv-x="1409" d="M466 -22q-124 0 -216 64t-136.5 164t-44.5 218q0 137 48 264.5t128.5 221t192 149.5t233.5 56q216 0 330 -161h3l37 139h390l-436 -1633h-386l176 658h-3q-146 -140 -316 -140zM650 321q106 0 186 81.5t80 196.5q0 77 -52 125t-134 48q-109 0 -187.5 -82.5t-78.5 -196.5 q0 -78 50.5 -125t135.5 -47z" />
<glyph unicode="r" horiz-adv-x="945" d="M1051 1087l-101 -377q-55 21 -122 21q-54 0 -99.5 -11t-89.5 -37.5t-78 -78t-54 -125.5l-129 -479h-389l292 1093h386l-37 -137h3q132 150 319 150q60 0 99 -19z" />
<glyph unicode="s" horiz-adv-x="1099" d="M620 1118q109 0 196.5 -32.5t138.5 -83.5t77.5 -107.5t26.5 -109.5v-7l-327 -37q0 53 -36.5 80t-79.5 27q-50 0 -74 -25t-24 -48q0 -42 63 -63l108 -35q48 -15 86.5 -32.5t77.5 -46t65.5 -62.5t43 -84t16.5 -109q0 -70 -32.5 -135t-92.5 -117.5t-155.5 -84t-211.5 -31.5 q-107 0 -192.5 24t-136.5 60.5t-85 84t-47 89.5t-13 81v17l316 51q-2 -58 44.5 -95t110.5 -37q61 0 89.5 25t28.5 53q0 51 -82 78l-76 26q-50 17 -89 35t-78.5 45t-65.5 59t-42.5 77t-16.5 98q0 159 134 265.5t335 106.5z" />
<glyph unicode="t" horiz-adv-x="962" d="M814 318l-81 -307q-86 -29 -211 -29q-150 0 -242.5 80.5t-92.5 227.5q0 66 19 136l92 345h-205l86 322h215l95 355h380l-95 -355h253l-86 -322h-253l-88 -330q-7 -25 -7 -44q0 -90 120 -90q49 0 101 11z" />
<glyph unicode="u" horiz-adv-x="1336" d="M709 121h-5q-146 -143 -314 -143q-152 0 -233 91.5t-81 231.5q0 79 32 201l158 591h389l-153 -576q-10 -37 -10 -67q0 -56 30.5 -86.5t86.5 -30.5q154 0 201 179l156 581h389l-238 -893q-22 -79 -27 -162q-2 -9 0 -38h-392v39q4 50 11 82z" />
<glyph unicode="v" horiz-adv-x="1292" d="M622 461l390 632h417l-730 -1093h-387l-147 1093h396z" />
<glyph unicode="w" horiz-adv-x="1861" d="M946 586l-348 -586h-369l-57 1093h383l12 -587h2l349 587h316l39 -591h2l339 591h377l-640 -1093h-370l-32 586h-3z" />
<glyph unicode="x" horiz-adv-x="1289" d="M1154 0h-423l-131 289l-258 -289h-466l556 565l-279 528h428l125 -285l254 285h457l-543 -553z" />
<glyph unicode="y" horiz-adv-x="1281" d="M1417 1093l-1037 -1632h-406l337 537l-144 1095h384l68 -648h2l385 648h411z" />
<glyph unicode="z" horiz-adv-x="1139" d="M911 0h-968l86 309l575 464h-435l84 320h943l-76 -288l-604 -486h479z" />
<glyph unicode="{" horiz-adv-x="959" d="M568 446l-50 -134q-19 -50 -30 -82.5t-19 -67.5t-6.5 -55.5t9.5 -40.5t27.5 -30.5t50 -16.5t74.5 -6h134l-74 -278h-147q-268 0 -364.5 133t-1.5 389l64 172q16 43 17.5 74t-9 50.5t-35.5 30.5t-57.5 15.5t-80.5 4.5l82 308q122 1 182 36t77 138l34 211 q18 113 53.5 195.5t85.5 137t122 87t155 46t193 13.5h175l-75 -279h-131q-61 0 -105 -13t-73 -35t-50 -62t-33.5 -83.5t-24.5 -110.5l-30 -161q-10 -56 -28.5 -98.5t-52 -79.5t-89 -60.5t-132.5 -32.5v-7q71 -15 115 -45t59.5 -72t12.5 -89t-24 -102z" />
<glyph unicode="|" horiz-adv-x="661" d="M286 -238h-319l551 2063h319z" />
<glyph unicode="}" horiz-adv-x="960" d="M515 1066l51 133q16 44 26 73t18.5 61.5t9.5 52.5t-2 40.5t-14.5 32.5t-30.5 21.5t-47.5 13.5t-66.5 4h-134l75 278h147q267 0 363.5 -133t1.5 -389l-64 -172q-16 -43 -17.5 -73.5t9 -50t36 -31t58 -15.5t80.5 -5l-82 -307q-123 -2 -183 -37t-76 -138l-35 -210 q-23 -141 -70.5 -235t-126 -147.5t-176.5 -75.5t-236 -22h-174l74 279h131q61 0 105 13t73 35t50.5 62t33.5 83.5t25 110.5l29 161q10 56 28.5 98.5t52.5 79.5t89 60.5t132 33.5v6q-70 15 -114.5 45t-60 72t-12.5 89.5t24 102.5z" />
<glyph unicode="~" horiz-adv-x="1355" d="M895 415q-49 0 -96.5 16.5t-83.5 40.5t-69 47.5t-67 40t-63 16.5q-59 0 -112.5 -37t-93.5 -88l-203 192q90 127 190.5 200.5t227.5 73.5q64 0 127 -25.5t103.5 -55.5t83.5 -55.5t71 -25.5q104 0 197 121l207 -188q-58 -82 -115 -138.5t-136.5 -95.5t-167.5 -39z" />
<glyph unicode="&#xa1;" horiz-adv-x="686" d="M462 1119q88 0 144.5 -55.5t56.5 -143.5q0 -103 -71.5 -175.5t-173.5 -72.5q-88 0 -145.5 56t-57.5 143q0 103 72 175.5t175 72.5zM525 548l-251 -1058h-419l316 1058h354z" />
<glyph unicode="&#xa2;" horiz-adv-x="1333" d="M610 -23l-49 -186h-146l54 205q-179 43 -277.5 174t-98.5 318q0 130 54 248t143.5 201.5t209.5 132t249 47.5h15l49 187h147l-54 -204q160 -38 256 -144t117 -240l-357 -101q-20 107 -110 144l-115 -436q64 9 112.5 47.5t74.5 91.5l323 -122q-66 -156 -221 -259.5 t-349 -103.5h-27zM563 341l113 426q-93 -20 -149.5 -97t-56.5 -170q0 -114 93 -159z" />
<glyph unicode="&#xa3;" horiz-adv-x="1482" d="M814 0h-840l86 325q127 26 226 131.5t115 234.5h-232l69 261h151v20q0 302 157 480t433 178q134 0 247 -49.5t184.5 -149t71.5 -229.5q0 -15 -6 -75l-385 -42q2 15 2 44q0 66 -37.5 111t-108.5 45q-51 0 -88 -21t-57.5 -56t-30 -75t-9.5 -85q0 -43 5 -96h387l-70 -261 h-311q-36 -227 -233 -343h248q115 0 184 50.5t93 159.5l334 -57q-18 -105 -64 -195t-118 -159t-175.5 -108t-227.5 -39z" />
<glyph unicode="&#xa4;" horiz-adv-x="1550" d="M289 554q0 125 57 230l-170 174l206 205l176 -179q106 53 224 53q126 0 222 -53l177 178l205 -205l-169 -173q59 -100 59 -230q0 -120 -59 -232l172 -170l-206 -207l-177 179q-106 -52 -224 -52q-117 0 -224 52l-177 -178l-205 207l172 172q-59 100 -59 229zM588 553 q0 -83 54 -135.5t138 -52.5t138 52.5t54 135.5q0 84 -54 136.5t-138 52.5t-138 -52.5t-54 -136.5z" />
<glyph unicode="&#xa5;" horiz-adv-x="1632" d="M1018 536h440l-62 -234h-441l-80 -302h-406l80 302h-438l63 234h438l32 121h-437l62 235h341l-257 712h444l149 -515l424 515h475l-638 -712h347l-63 -235h-441z" />
<glyph unicode="&#xa6;" horiz-adv-x="655" d="M515 1825h319l-214 -799h-318zM178 562h318l-213 -800h-319z" />
<glyph unicode="&#xa7;" horiz-adv-x="1406" d="M794 334q0 34 -37 56.5t-132 51.5l-125 38q-342 105 -342 309q0 226 303 297q-88 96 -88 194q0 150 143 250.5t386 100.5q351 0 523 -230l-233 -183q-120 130 -299 130q-59 0 -95 -19.5t-36 -57.5q0 -33 36 -55.5t124 -49.5l124 -39q350 -108 350 -312q0 -224 -302 -297 q87 -97 87 -192q0 -152 -142.5 -251.5t-386.5 -99.5q-171 0 -301.5 60t-210.5 172l226 181q116 -133 295 -133q61 0 97 20t36 59zM884 880l-55 18q-156 51 -212 51q-55 0 -92.5 -25.5t-37.5 -70.5q0 -38 38.5 -65.5t124.5 -57.5l47 -16q161 -58 242 -58q52 0 90 25.5 t38 67.5t-42.5 70.5t-140.5 60.5z" />
<glyph unicode="&#xa8;" horiz-adv-x="1095" d="M516 1262q-80 0 -132 50.5t-52 130.5q0 94 65.5 160.5t158.5 66.5q80 0 132.5 -51t52.5 -131q0 -95 -65.5 -160.5t-159.5 -65.5zM1048 1262q-80 0 -131.5 50.5t-51.5 130.5q0 94 65 160.5t158 66.5q81 0 133.5 -51t52.5 -131q0 -94 -66 -160t-160 -66z" />
<glyph unicode="&#xa9;" horiz-adv-x="1864" d="M1007 -21q-166 0 -318 64t-263 173.5t-177 263t-66 324.5q0 168 66 321t177 263.5t263 176t318 65.5q168 0 320.5 -65t263 -175t175.5 -262.5t65 -320.5t-66 -321.5t-177 -264t-263 -176.5t-318 -66zM1006 1491q-138 0 -263 -54t-215 -145.5t-143 -218.5t-53 -266 t54 -266.5t145 -220t215.5 -147.5t259.5 -55q136 0 260 53t215 144t145 218.5t54 270.5q0 186 -89.5 344t-245 250.5t-339.5 92.5zM1501 639q-45 -162 -174.5 -251.5t-301.5 -89.5q-146 0 -267.5 64t-193.5 181.5t-72 264.5q0 143 74 259t196 179.5t264 63.5 q167 0 300.5 -90t168.5 -247l-304 -92q-19 55 -63 87t-102 32q-79 0 -132 -57t-53 -137t53.5 -137.5t132.5 -57.5q57 0 102 32.5t67 87.5z" />
<glyph unicode="&#xaa;" horiz-adv-x="1123" d="M784 875q-101 -97 -216 -97q-129 0 -203 91t-74 220q0 196 124 339t296 143q146 0 226 -113h6l26 98h272l-166 -623q-16 -60 -19 -113v-27h-273v9v10v6q1 27 8 57h-7zM696 1017q74 0 130 57t56 137q0 54 -36.5 87.5t-93.5 33.5q-76 0 -130.5 -58t-54.5 -137 q0 -55 35 -87.5t94 -32.5zM170 617h821l-64 -240h-821z" />
<glyph unicode="&#xab;" horiz-adv-x="1432" d="M656 310l-224 -171l-356 478l604 472l160 -206l-389 -303zM1261 310l-224 -171l-356 478l604 472l160 -206l-389 -303z" />
<glyph unicode="&#xac;" horiz-adv-x="1480" d="M1067 847h-903l86 320h1266l-185 -694h-364z" />
<glyph unicode="&#xad;" horiz-adv-x="923" d="M792 503h-676l87 326h676z" />
<glyph unicode="&#xae;" horiz-adv-x="1345" d="M1380 1069q0 -153 -75 -282t-204.5 -204.5t-282.5 -75.5t-282.5 75.5t-204.5 204.5t-75 282t75 282.5t204.5 205t282.5 75.5t282.5 -75.5t204.5 -205t75 -282.5zM1254 1071q0 184 -128 314t-309 130t-309 -130t-128 -314t128 -314t309 -130t309 130t128 314zM1103 747 h-173l-114 227h-66v-227h-163v645h265q110 0 175.5 -53t65.5 -154q0 -135 -119 -184zM750 1252v-140h89q91 0 91 67q0 33 -22 53t-69 20h-89z" />
<glyph unicode="&#xb0;" horiz-adv-x="958" d="M618 807q-160 0 -263 101t-103 260q0 187 129.5 318.5t315.5 131.5q160 0 264 -101.5t104 -260.5q0 -123 -59.5 -226t-162.5 -163t-225 -60zM643 1057q72 0 122 50.5t50 121.5q0 61 -40.5 100t-101.5 39q-71 0 -120.5 -50.5t-49.5 -122.5q0 -61 39.5 -99.5t100.5 -38.5z " />
<glyph unicode="&#xb1;" horiz-adv-x="1351" d="M830 457h-340l86 323h-380l88 326h379l86 322h341l-86 -322h379l-87 -326h-379zM68 300h1100l-88 -330h-1100z" />
<glyph unicode="&#xb2;" horiz-adv-x="987" d="M204 871l14 69q28 141 121 232.5t242 152.5l134 55q49 20 91.5 54t42.5 75q0 31 -26.5 47.5t-57.5 16.5q-61 0 -100 -45t-39 -105l-268 31q23 162 151 265t297 103q60 0 119 -17.5t108 -49t79.5 -82.5t30.5 -113q0 -228 -315 -366q-154 -62 -189 -83h395l-64 -240h-766z " />
<glyph unicode="&#xb3;" horiz-adv-x="957" d="M612 1096q47 0 88.5 28.5t41.5 68.5q0 35 -25.5 52t-57.5 17q-43 0 -96 -21l-64 167l236 144h-369l66 249h752l-58 -219l-246 -151q64 -23 109 -88.5t45 -135.5q0 -84 -37 -153.5t-98.5 -112.5t-136 -66.5t-153.5 -23.5q-100 0 -181 27t-134 89.5t-53 152.5q0 17 1 25 l264 76v-7q0 -49 29 -83.5t77 -34.5z" />
<glyph unicode="&#xb4;" horiz-adv-x="824" d="M260 1275l338 402h434l-458 -402h-314z" />
<glyph unicode="&#xb5;" horiz-adv-x="1396" d="M303 1093h389l-154 -576q-9 -40 -9 -67q0 -56 30.5 -86.5t86.5 -30.5q154 0 201 179l155 581h390l-238 -893q-24 -86 -27 -162q-2 -9 0 -38h-392v39q4 50 11 82h-2q-70 -67 -133 -101.5t-132 -34.5q-24 0 -51.5 8.5t-39.5 20.5l-97 -363h-373z" />
<glyph unicode="&#xb6;" horiz-adv-x="1228" d="M237 1093q0 101 36 189.5t110 162t202.5 116.5t297.5 43h442l-428 -1604h-391l189 709q-226 17 -342 109t-116 275z" />
<glyph unicode="&#xb7;" horiz-adv-x="661" d="M337 410q-94 0 -155 59.5t-61 153.5q0 110 76.5 187.5t185.5 77.5q94 0 155.5 -60t61.5 -153q0 -110 -77 -187.5t-186 -77.5z" />
<glyph unicode="&#xb9;" horiz-adv-x="816" d="M775 871h-324l155 594l-220 -106l-105 212l468 229h270z" />
<glyph unicode="&#xba;" horiz-adv-x="1079" d="M678 779q-175 0 -276 99t-101 253q0 114 58 214.5t163.5 162.5t232.5 62q175 0 276 -99t101 -252q0 -85 -34.5 -165t-93.5 -141t-144.5 -97.5t-181.5 -36.5zM692 1018q73 0 125 55.5t52 131.5q0 57 -36 91.5t-92 34.5q-76 0 -126.5 -56.5t-50.5 -130.5q0 -54 33.5 -90 t94.5 -36zM974 617h-811l-64 -240h811z" />
<glyph unicode="&#xbb;" horiz-adv-x="1432" d="M219 924l224 171l356 -478l-604 -472l-160 206l389 302zM824 924l224 171l356 -478l-604 -472l-160 206l389 302z" />
<glyph unicode="&#xbc;" horiz-adv-x="2467" d="M774 675h-323l155 593l-220 -106l-105 213l468 229h270zM927 0h-347l1052 1604h345zM2141 147l-39 -147h-310l40 147h-496l81 302l549 480h384l-145 -543h133l-64 -239h-133zM1968 657l-306 -271h233z" />
<glyph unicode="&#xbd;" horiz-adv-x="2426" d="M774 675h-323l155 594l-220 -107l-105 213l468 229h270zM926 0h-347l1052 1604h345zM1415 0l14 69q28 140 121 230.5t242 153.5l134 56q51 22 92.5 54.5t41.5 73.5q0 31 -26.5 47.5t-57.5 16.5q-61 0 -100 -44.5t-39 -104.5l-268 31q23 161 151 264t298 103 q82 0 157 -28.5t127 -90t52 -143.5q0 -229 -314 -366q-155 -61 -190 -83h395l-64 -239h-766z" />
<glyph unicode="&#xbe;" horiz-adv-x="2466" d="M560 899q47 0 88.5 28.5t41.5 69.5q0 35 -26 52t-58 17q-39 0 -95 -22l-65 167l237 144h-370l67 249h752l-59 -219l-245 -151q64 -23 109 -88.5t45 -134.5q0 -84 -37 -153.5t-98.5 -113t-136 -67t-153.5 -23.5q-100 0 -181 27t-134 90t-53 153v25l265 76v-8 q0 -49 29 -83.5t77 -34.5zM947 0h-347l1052 1604h345zM2160 147l-39 -147h-309l39 147h-496l81 302l549 480h384l-145 -543h133l-64 -239h-133zM1987 657l-305 -271h233z" />
<glyph unicode="&#xbf;" horiz-adv-x="1237" d="M676 1119q87 0 144 -56t57 -143q0 -103 -71.5 -175.5t-173.5 -72.5q-88 0 -145.5 56t-57.5 143q0 103 72 175.5t175 72.5zM477 140q-78 -61 -118.5 -110t-40.5 -103q0 -59 43 -87.5t105 -28.5q82 0 135 67.5t54 152.5l361 -44q0 -120 -52.5 -220.5t-139 -165.5t-195 -101 t-223.5 -36q-91 0 -176 24t-154.5 71t-111.5 124t-42 174q0 115 53 205.5t127 151.5l142 116q90 73 127 118.5t51 109.5h360q0 -84 -48 -170.5t-120 -141.5z" />
<glyph unicode="&#xc0;" horiz-adv-x="1676" d="M1083 2147l176 -402h-274l-306 402h404zM1333 1604h-461l-1011 -1604h435l185 295h640l42 -295h418zM686 637l315 525l75 -525h-390z" />
<glyph unicode="&#xc1;" horiz-adv-x="1676" d="M967 1745l338 402h434l-458 -402h-314zM1121 295h-640l-185 -295h-435l1011 1604h461l248 -1604h-418zM686 637h390l-75 525z" />
<glyph unicode="&#xc2;" horiz-adv-x="1676" d="M1263 1748l-70 208l-180 -208h-324l361 388h351l162 -388h-300zM1333 1604h-461l-1011 -1604h435l185 295h640l42 -295h418zM686 637l315 525l75 -525h-390z" />
<glyph unicode="&#xc3;" horiz-adv-x="1676" d="M1317 1748q-49 0 -93.5 17.5t-72 38t-62 38t-64.5 17.5q-21 0 -37.5 -10t-28 -28t-18 -33.5t-13.5 -36.5h-216l18 70q33 131 114.5 211t203.5 80q45 0 89 -17t72 -37t62.5 -37t63.5 -17q30 0 52 17t31 34.5t22 51.5h208q-14 -59 -19 -79q-34 -126 -115 -203t-197 -77z M1121 295h-640l-185 -295h-435l1011 1604h461l248 -1604h-418zM686 637h390l-75 525z" />
<glyph unicode="&#xc4;" horiz-adv-x="1676" d="M1068 1976q0 -88 -58 -146t-146 -58t-145.5 58t-57.5 146q0 87 58 145.5t145 58.5t145.5 -58.5t58.5 -145.5zM1660 1976q0 -88 -58 -146t-146 -58t-145.5 58t-57.5 146q0 87 58 145.5t145 58.5t145.5 -58.5t58.5 -145.5zM1121 295h-640l-185 -295h-435l1011 1604h461 l248 -1604h-418zM686 637h390l-75 525z" />
<glyph unicode="&#xc5;" horiz-adv-x="1676" d="M1581 0h-418l-42 295h-640l-185 -295h-435l970 1538q-27 56 -27 125q0 141 98 241t239 100q122 0 202.5 -78.5t80.5 -199.5t-77 -216zM1127 1813q-55 0 -93 -39t-38 -95q0 -46 28.5 -74t74.5 -28q56 0 94.5 39t38.5 95q0 45 -29.5 73.5t-75.5 28.5zM1076 637l-75 525 l-315 -525h390z" />
<glyph unicode="&#xc6;" horiz-adv-x="2238" d="M309 0h-463l1173 1604h1390l-95 -359h-710l-70 -262h644l-92 -346h-644l-75 -276h716l-96 -361h-1107l68 254h-457zM1195 1256l-467 -660h312l176 660h-21z" />
<glyph unicode="&#xc7;" horiz-adv-x="1770" d="M790 -16q-137 19 -254.5 79t-202.5 151t-133.5 215t-48.5 265q0 189 76 362t203.5 299t303.5 201t367 75q105 0 197.5 -18t162 -49t128 -74t99 -91.5t71 -104t48 -108t26.5 -107.5l-392 -122q-11 55 -35 102.5t-66.5 93.5t-115.5 73t-167 27q-99 0 -190.5 -46.5 t-155.5 -121t-102 -169.5t-38 -191q0 -166 103 -268t280 -102q72 0 136.5 20t110.5 50.5t84.5 71.5t62 78t40.5 75l360 -140q-25 -64 -64 -127.5t-102 -130.5t-139.5 -120.5t-181.5 -94t-223 -54.5q19 -48 19 -127q0 -102 -35.5 -180t-99 -125.5t-145.5 -71.5t-181 -24 q-103 0 -167 24l57 218q56 -8 93 -8q98 0 157 69.5t59 169.5q0 26 -5 56z" />
<glyph unicode="&#xc8;" horiz-adv-x="1405" d="M1005 2147l176 -402h-274l-306 402h404zM1250 361h-721l74 276h650l93 346h-651l71 262h714l96 359h-1118l-428 -1604h1124z" />
<glyph unicode="&#xc9;" horiz-adv-x="1405" d="M869 1745l338 402h434l-458 -402h-314zM458 1604h1118l-96 -359h-714l-71 -262h651l-93 -346h-650l-74 -276h721l-96 -361h-1124z" />
<glyph unicode="&#xca;" horiz-adv-x="1405" d="M1175 1748l-70 208l-180 -208h-324l361 388h351l162 -388h-300zM1250 361h-721l74 276h650l93 346h-651l71 262h714l96 359h-1118l-428 -1604h1124z" />
<glyph unicode="&#xcb;" horiz-adv-x="1405" d="M809 1772q-81 0 -132.5 50.5t-51.5 131.5q0 93 65.5 159.5t158.5 66.5q80 0 132.5 -51t52.5 -131q0 -94 -65.5 -160t-159.5 -66zM1361 1772q-81 0 -132.5 50.5t-51.5 131.5q0 93 65.5 159.5t158.5 66.5q80 0 132.5 -51t52.5 -131q0 -94 -65.5 -160t-159.5 -66zM458 1604 h1118l-96 -359h-714l-71 -262h651l-93 -346h-650l-74 -276h721l-96 -361h-1124z" />
<glyph unicode="&#xcc;" horiz-adv-x="744" d="M668 2147l176 -402h-274l-306 402h404zM863 1604h-405l-428 -1604h404z" />
<glyph unicode="&#xcd;" horiz-adv-x="744" d="M539 1747l338 402h434l-458 -402h-314zM458 1604h405l-429 -1604h-404z" />
<glyph unicode="&#xce;" horiz-adv-x="744" d="M823 1748l-70 208l-180 -208h-324l361 388h351l162 -388h-300zM863 1604h-405l-428 -1604h404z" />
<glyph unicode="&#xcf;" horiz-adv-x="744" d="M463 1772q-81 0 -132.5 50.5t-51.5 131.5q0 93 65.5 159.5t158.5 66.5q80 0 132.5 -51t52.5 -131q0 -94 -65.5 -160t-159.5 -66zM1007 1772q-81 0 -132.5 50.5t-51.5 131.5q0 93 65.5 159.5t158.5 66.5q80 0 132.5 -51t52.5 -131q0 -94 -65.5 -160t-159.5 -66zM458 1604 h405l-429 -1604h-404z" />
<glyph unicode="&#xd0;" horiz-adv-x="1760" d="M265 637h-187l92 343h186l166 624h437q182 0 327.5 -41t252 -122.5t163.5 -211.5t57 -301q0 -180 -72 -352t-215 -304q-296 -272 -816 -272h-559zM1335 896q0 80 -24.5 141t-64 98t-95.5 59.5t-111 31t-119 8.5h-92l-69 -254h288l-92 -343h-288l-70 -263h109 q139 0 250.5 35t180.5 89.5t115 125.5t64 138.5t18 133.5z" />
<glyph unicode="&#xd1;" horiz-adv-x="1778" d="M1396 1748q-49 0 -93.5 17.5t-72 38t-62 38t-64.5 17.5q-21 0 -37.5 -10t-28 -28t-18 -33.5t-13.5 -36.5h-216l18 70q33 131 114.5 211t203.5 80q45 0 89 -17t72 -37t62.5 -37t63.5 -17q30 0 52 17t31 34.5t22 51.5h208q-14 -59 -19 -79q-34 -126 -115 -203t-197 -77z M700 995h-2l-266 -995h-402l428 1604h454l318 -980h1l263 980h402l-428 -1604h-442z" />
<glyph unicode="&#xd2;" horiz-adv-x="1868" d="M1103 2147l176 -402h-274l-306 402h404zM1104 1631q-191 0 -366 -73t-303.5 -197.5t-205 -299.5t-76.5 -369q0 -168 64 -306.5t171 -226.5t243 -135.5t285 -47.5q188 0 362.5 73.5t303.5 198.5t206 300t77 369q0 149 -55 280t-153 227t-241 151.5t-312 55.5zM573 724 q0 100 39 196.5t105 169.5t158 118t192 45q172 0 275 -105.5t103 -263.5q0 -134 -65.5 -256t-180.5 -197.5t-249 -75.5q-162 0 -269.5 98t-107.5 271z" />
<glyph unicode="&#xd3;" horiz-adv-x="1868" d="M962 1745l338 402h434l-458 -402h-314zM1104 1631q169 0 312 -55.5t241 -151.5t153 -227t55 -280q0 -194 -77 -369t-206 -300t-303.5 -198.5t-362.5 -73.5q-149 0 -285 47.5t-243 135.5t-171 226.5t-64 306.5q0 194 76.5 369t205 299.5t303.5 197.5t366 73zM573 724 q0 -173 107.5 -271t269.5 -98q134 0 249 75.5t180.5 197.5t65.5 256q0 158 -103 263.5t-275 105.5q-100 0 -192 -45t-158 -118t-105 -169.5t-39 -196.5z" />
<glyph unicode="&#xd4;" horiz-adv-x="1868" d="M1281 1748l-70 208l-180 -208h-324l361 388h351l162 -388h-300zM1104 1631q-191 0 -366 -73t-303.5 -197.5t-205 -299.5t-76.5 -369q0 -168 64 -306.5t171 -226.5t243 -135.5t285 -47.5q188 0 362.5 73.5t303.5 198.5t206 300t77 369q0 149 -55 280t-153 227t-241 151.5 t-312 55.5zM573 724q0 100 39 196.5t105 169.5t158 118t192 45q172 0 275 -105.5t103 -263.5q0 -134 -65.5 -256t-180.5 -197.5t-249 -75.5q-162 0 -269.5 98t-107.5 271z" />
<glyph unicode="&#xd5;" horiz-adv-x="1868" d="M1348 1748q-49 0 -93.5 17.5t-72 38t-62 38t-64.5 17.5q-21 0 -37.5 -10t-28 -28t-18 -33.5t-13.5 -36.5h-216l18 70q33 131 114.5 211t203.5 80q45 0 89 -17t72 -37t62.5 -37t63.5 -17q30 0 52 17t31 34.5t22 51.5h208q-14 -59 -19 -79q-34 -126 -115 -203t-197 -77z M1104 1631q169 0 312 -55.5t241 -151.5t153 -227t55 -280q0 -194 -77 -369t-206 -300t-303.5 -198.5t-362.5 -73.5q-149 0 -285 47.5t-243 135.5t-171 226.5t-64 306.5q0 194 76.5 369t205 299.5t303.5 197.5t366 73zM573 724q0 -173 107.5 -271t269.5 -98q134 0 249 75.5 t180.5 197.5t65.5 256q0 158 -103 263.5t-275 105.5q-100 0 -192 -45t-158 -118t-105 -169.5t-39 -196.5z" />
<glyph unicode="&#xd6;" horiz-adv-x="1868" d="M896 1772q-81 0 -132.5 50.5t-51.5 131.5q0 93 65.5 159.5t158.5 66.5q80 0 132.5 -51t52.5 -131q0 -94 -65.5 -160t-159.5 -66zM1448 1772q-81 0 -132.5 50.5t-51.5 131.5q0 93 65.5 159.5t158.5 66.5q80 0 132.5 -51t52.5 -131q0 -94 -65.5 -160t-159.5 -66zM1104 1631 q169 0 312 -55.5t241 -151.5t153 -227t55 -280q0 -194 -77 -369t-206 -300t-303.5 -198.5t-362.5 -73.5q-149 0 -285 47.5t-243 135.5t-171 226.5t-64 306.5q0 194 76.5 369t205 299.5t303.5 197.5t366 73zM573 724q0 -173 107.5 -271t269.5 -98q134 0 249 75.5t180.5 197.5 t65.5 256q0 158 -103 263.5t-275 105.5q-100 0 -192 -45t-158 -118t-105 -169.5t-39 -196.5z" />
<glyph unicode="&#xd7;" horiz-adv-x="1299" d="M629 408l-457 -362l-163 223l457 363l-263 362l249 197l262 -364l462 364l163 -223l-459 -362l263 -361l-249 -197z" />
<glyph unicode="&#xd8;" horiz-adv-x="1867" d="M915 -24q-261 0 -460 134l-195 -186l-168 174l186 180q-125 176 -125 413q0 195 76.5 370t205 299.5t304 197.5t366.5 73q267 0 462 -133l191 184l168 -175l-187 -180q126 -179 126 -409q0 -155 -49.5 -300t-138.5 -260t-206.5 -202t-261 -133.5t-294.5 -46.5zM1428 1037 l-675 -650q85 -45 196 -45q103 0 197.5 46.5t161.5 121.5t107 174t40 202q0 82 -27 151zM1069 1266q-102 0 -196.5 -46.5t-162 -121.5t-107.5 -174t-40 -202q0 -84 27 -155l681 650q-89 49 -202 49z" />
<glyph unicode="&#xd9;" horiz-adv-x="1638" d="M1103 2147l176 -402h-274l-306 402h404zM1361 1604l-254 -952q-81 -300 -307 -300q-138 0 -190.5 89.5t-12.5 240.5l246 922h-409l-238 -893q-31 -117 -31.5 -223.5t34 -200t102.5 -162.5t181.5 -108.5t263.5 -39.5q211 0 361 70.5t243.5 203.5t149.5 341l271 1012h-410z " />
<glyph unicode="&#xda;" horiz-adv-x="1638" d="M964 1745l338 402h434l-458 -402h-314zM1500 592q-84 -313 -262.5 -464t-491.5 -151q-150 0 -263.5 39.5t-181.5 108.5t-102.5 162.5t-34 200t31.5 223.5l238 893h409l-246 -922q-40 -151 12.5 -240.5t190.5 -89.5q226 0 307 300l254 952h410z" />
<glyph unicode="&#xdb;" horiz-adv-x="1638" d="M1263 1748l-70 208l-180 -208h-324l361 388h351l162 -388h-300zM1361 1604l-254 -952q-81 -300 -307 -300q-138 0 -190.5 89.5t-12.5 240.5l246 922h-409l-238 -893q-31 -117 -31.5 -223.5t34 -200t102.5 -162.5t181.5 -108.5t263.5 -39.5q313 0 491.5 151t262.5 464 l271 1012h-410z" />
<glyph unicode="&#xdc;" horiz-adv-x="1638" d="M892 1772q-81 0 -132.5 50.5t-51.5 131.5q0 93 65.5 159.5t158.5 66.5q80 0 132.5 -51t52.5 -131q0 -94 -65.5 -160t-159.5 -66zM1444 1772q-81 0 -132.5 50.5t-51.5 131.5q0 93 65.5 159.5t158.5 66.5q80 0 132.5 -51t52.5 -131q0 -94 -65.5 -160t-159.5 -66zM1500 592 q-56 -208 -149.5 -341t-243.5 -203.5t-361 -70.5q-150 0 -263.5 39.5t-181.5 108.5t-102.5 162.5t-34 200t31.5 223.5l238 893h409l-246 -922q-40 -151 12.5 -240.5t190.5 -89.5q226 0 307 300l254 952h410z" />
<glyph unicode="&#xdd;" horiz-adv-x="1558" d="M915 1745l338 402h434l-458 -402h-314zM834 0h-406l168 635l-293 969h431l158 -589l473 589h478l-852 -1014z" />
<glyph unicode="&#xde;" horiz-adv-x="1452" d="M883 1337q242 0 381 -75q108 -59 164 -156.5t56 -223.5q0 -18 -0.5 -30.5t-5 -51t-13 -70t-28 -78.5t-45.5 -86t-69.5 -82.5t-97.5 -77.5q-184 -116 -451 -117l-265 -1l-77 -288h-403l429 1604h403l-71 -267h93zM600 631h168q57 0 107.5 10.5t96 33t72.5 65t27 99.5 t-41 96q-54 49 -168 49h-170z" />
<glyph unicode="&#xdf;" horiz-adv-x="1464" d="M994 338q0 15 -4 27.5t-15.5 24t-17 16t-25 16t-21.5 13.5l-59 38q-161 103 -161 243q0 185 215 308l52 30q129 75 129 161q0 62 -47.5 92t-117.5 30q-94 0 -160.5 -65t-96.5 -178l-293 -1094h-383l306 1147q71 267 248.5 396.5t438.5 129.5q98 0 183 -24.5t154 -73.5 t109 -131.5t40 -189.5q0 -108 -71 -207.5t-172 -163.5l-77 -48q-38 -25 -52.5 -39.5t-14.5 -33.5q0 -17 9 -29t36 -34l43 -36q38 -32 61.5 -53.5t51 -53t42 -59.5t25 -65t10.5 -79q0 -72 -28 -134.5t-75 -106.5t-108 -76t-127 -47t-132 -15q-95 0 -173.5 28t-132 94.5 t-53.5 163.5q0 38 8 81l273 16q-3 -12 -3 -25q0 -38 25.5 -57.5t64.5 -19.5q40 0 68 26.5t28 56.5z" />
<glyph unicode="&#xe0;" d="M714 1677l176 -402h-274l-306 402h404zM786 118q-7 -32 -11 -82v-36h391v38q5 75 27 162l239 893h-390l-38 -139h-2q-115 161 -331 161q-122 0 -233.5 -56t-192 -149.5t-128.5 -221t-48 -264.5q0 -118 44 -218t136.5 -164t216.5 -64q172 0 316 140h4zM651 321 q-86 0 -136.5 47t-50.5 125q0 114 79 196.5t188 82.5q81 0 133 -48t52 -125q0 -115 -80 -196.5t-185 -81.5z" />
<glyph unicode="&#xe1;" d="M586 1275l338 402h434l-458 -402h-314zM782 118q-144 -140 -316 -140q-124 0 -216.5 64t-136.5 164t-44 218q0 137 48 264.5t128.5 221t192 149.5t233.5 56q216 0 331 -161h2l38 139h390l-239 -893q-22 -87 -27 -162v-38h-391v36q4 50 11 82h-4zM651 321q105 0 185 81.5 t80 196.5q0 77 -52 125t-133 48q-109 0 -188 -82.5t-79 -196.5q0 -78 50.5 -125t136.5 -47z" />
<glyph unicode="&#xe2;" d="M941 1278l-70 208l-180 -208h-324l361 388h351l162 -388h-300zM786 118q-7 -32 -11 -82v-36h391v38q5 75 27 162l239 893h-390l-38 -139h-2q-115 161 -331 161q-122 0 -233.5 -56t-192 -149.5t-128.5 -221t-48 -264.5q0 -118 44 -218t136.5 -164t216.5 -64q172 0 316 140 h4zM651 321q-86 0 -136.5 47t-50.5 125q0 114 79 196.5t188 82.5q81 0 133 -48t52 -125q0 -115 -80 -196.5t-185 -81.5z" />
<glyph unicode="&#xe3;" d="M1045 1278q-49 0 -93.5 17.5t-72 38t-62 38t-64.5 17.5q-21 0 -37.5 -10t-28 -28t-18 -33.5t-13.5 -36.5h-216l18 70q33 131 114.5 211t203.5 80q45 0 89 -17t72 -37t62.5 -37t63.5 -17q30 0 52 17t31 34.5t22 51.5h208q-14 -59 -19 -79q-34 -126 -115 -203t-197 -77z M782 118q-144 -140 -316 -140q-124 0 -216.5 64t-136.5 164t-44 218q0 137 48 264.5t128.5 221t192 149.5t233.5 56q216 0 331 -161h2l38 139h390l-239 -893q-22 -87 -27 -162v-38h-391v36q4 50 11 82h-4zM651 321q105 0 185 81.5t80 196.5q0 77 -52 125t-133 48 q-109 0 -188 -82.5t-79 -196.5q0 -78 50.5 -125t136.5 -47z" />
<glyph unicode="&#xe4;" d="M640 1262q-80 0 -132 50.5t-52 130.5q0 94 65.5 160.5t158.5 66.5q80 0 132.5 -51t52.5 -131q0 -95 -65.5 -160.5t-159.5 -65.5zM1172 1262q-80 0 -131.5 50.5t-51.5 130.5q0 94 65 160.5t158 66.5q81 0 133.5 -51t52.5 -131q0 -94 -66 -160t-160 -66zM782 118 q-144 -140 -316 -140q-124 0 -216.5 64t-136.5 164t-44 218q0 137 48 264.5t128.5 221t192 149.5t233.5 56q216 0 331 -161h2l38 139h390l-239 -893q-22 -87 -27 -162v-38h-391v36q4 50 11 82h-4zM651 321q105 0 185 81.5t80 196.5q0 77 -52 125t-133 48q-109 0 -188 -82.5 t-79 -196.5q0 -78 50.5 -125t136.5 -47z" />
<glyph unicode="&#xe5;" d="M886 1244q-122 0 -201.5 77.5t-79.5 199.5q0 141 98 241t239 100q122 0 202.5 -78.5t80.5 -199.5q0 -142 -98.5 -241t-240.5 -99zM929 1671q-55 0 -93.5 -39t-38.5 -95q0 -46 28.5 -74t74.5 -28q56 0 94.5 38.5t38.5 94.5q0 46 -29 74.5t-75 28.5zM782 118 q-144 -140 -316 -140q-124 0 -216.5 64t-136.5 164t-44 218q0 137 48 264.5t128.5 221t192 149.5t233.5 56q216 0 331 -161h2l38 139h390l-239 -893q-22 -87 -27 -162v-38h-391v36q4 50 11 82h-4zM651 321q105 0 185 81.5t80 196.5q0 77 -52 125t-133 48q-109 0 -188 -82.5 t-79 -196.5q0 -78 50.5 -125t136.5 -47z" />
<glyph unicode="&#xe6;" horiz-adv-x="1933" d="M1362 821q-72 0 -142.5 -42.5t-99.5 -113.5h389q8 19 8 33q0 61 -43 92t-112 31zM725 1119q90 0 175.5 -26.5t145.5 -78.5q163 104 333 104q97 0 186.5 -30.5t158.5 -86.5t110.5 -142t41.5 -189q0 -108 -45 -221h-751q0 -78 62.5 -124t134.5 -46q68 0 128 27t91 84 l302 -138q-34 -63 -84.5 -112.5t-105 -79.5t-117 -49.5t-116.5 -27t-108 -7.5q-138 0 -252 47.5t-189 135.5q-103 -105 -210.5 -144.5t-261.5 -39.5h-8q-133 0 -229 79t-96 213q0 73 28.5 132.5t73 97.5t103.5 65.5t115.5 40t114.5 17.5l226 17q44 4 77 31t33 68 q0 44 -37 66t-84 22q-73 0 -125 -39t-72 -99l-331 105q19 51 53 97.5t86 89t116 73.5t148.5 49.5t178.5 18.5zM507 249q73 0 128 41.5t70 113.5l8 42l-137 -14q-31 -3 -54 -8t-49 -15.5t-40 -31t-14 -48.5q0 -33 25 -56.5t63 -23.5z" />
<glyph unicode="&#xe7;" horiz-adv-x="1279" d="M648 321q75 0 133.5 41t86.5 102l325 -123q-58 -139 -187 -238t-296 -122q18 -49 18 -125q0 -102 -35.5 -180t-99 -125.5t-146 -71.5t-181.5 -24q-102 0 -167 24l58 218q56 -8 92 -8q99 0 158 69.5t59 169.5q0 36 -7 65q-182 42 -282.5 173.5t-100.5 321.5q0 130 54 248 t143.5 201.5t210 132.5t250.5 49q118 0 215.5 -34t161.5 -92t103 -128.5t51 -148.5l-359 -102q-13 69 -61 113.5t-129 44.5q-115 0 -188 -82t-73 -190q0 -80 51.5 -129.5t141.5 -49.5z" />
<glyph unicode="&#xe8;" horiz-adv-x="1294" d="M734 1677l176 -402h-274l-306 402h404zM1192 449q44 110 44 221q0 103 -41 189t-110.5 142t-158.5 86.5t-186 30.5q-132 0 -255 -51t-213 -136.5t-144 -203t-54 -243.5q0 -230 156 -369t398 -139q54 0 108 7.5t116.5 27t117 49.5t105 79.5t84.5 112.5l-303 138 q-31 -57 -90.5 -84t-127.5 -27q-72 0 -135 46t-63 124h752zM723 821q68 0 111 -31t43 -92q0 -17 -8 -33h-388q29 71 99.5 113.5t142.5 42.5z" />
<glyph unicode="&#xe9;" horiz-adv-x="1294" d="M615 1275l338 402h434l-458 -402h-314zM440 449q0 -78 63 -124t135 -46q68 0 127.5 27t90.5 84l303 -138q-34 -63 -84.5 -112.5t-105 -79.5t-117 -49.5t-116.5 -27t-108 -7.5q-242 0 -398 139t-156 369q0 126 54 243.5t144 203t213 136.5t255 51q97 0 186 -30.5 t158.5 -86.5t110.5 -142t41 -189q0 -111 -44 -221h-752zM723 821q-72 0 -142.5 -42.5t-99.5 -113.5h388q8 16 8 33q0 61 -43 92t-111 31z" />
<glyph unicode="&#xea;" horiz-adv-x="1294" d="M903 1278l-70 208l-180 -208h-324l361 388h351l162 -388h-300zM1192 449q44 110 44 221q0 103 -41 189t-110.5 142t-158.5 86.5t-186 30.5q-132 0 -255 -51t-213 -136.5t-144 -203t-54 -243.5q0 -230 156 -369t398 -139q54 0 108 7.5t116.5 27t117 49.5t105 79.5 t84.5 112.5l-303 138q-31 -57 -90.5 -84t-127.5 -27q-72 0 -135 46t-63 124h752zM723 821q68 0 111 -31t43 -92q0 -17 -8 -33h-388q29 71 99.5 113.5t142.5 42.5z" />
<glyph unicode="&#xeb;" horiz-adv-x="1294" d="M523 1262q-80 0 -132 50.5t-52 130.5q0 94 65.5 160.5t158.5 66.5q80 0 132.5 -51t52.5 -131q0 -95 -65.5 -160.5t-159.5 -65.5zM1055 1262q-80 0 -131.5 50.5t-51.5 130.5q0 94 65 160.5t158 66.5q81 0 133.5 -51t52.5 -131q0 -94 -65.5 -160t-160.5 -66zM440 449 q0 -78 63 -124t135 -46q68 0 127.5 27t90.5 84l303 -138q-34 -63 -84.5 -112.5t-105 -79.5t-117 -49.5t-116.5 -27t-108 -7.5q-242 0 -398 139t-156 369q0 126 54 243.5t144 203t213 136.5t255 51q97 0 186 -30.5t158.5 -86.5t110.5 -142t41 -189q0 -111 -44 -221h-752z M723 821q-72 0 -142.5 -42.5t-99.5 -113.5h388q8 16 8 33q0 61 -43 92t-111 31z" />
<glyph unicode="&#xec;" horiz-adv-x="651" d="M481 1677l176 -402h-274l-306 402h404zM-11 0l292 1093h392l-292 -1093h-392z" />
<glyph unicode="&#xed;" horiz-adv-x="651" d="M354 1275l338 402h434l-458 -402h-314zM-11 0l292 1093h392l-292 -1093h-392z" />
<glyph unicode="&#xee;" horiz-adv-x="651" d="M648 1278l-70 208l-180 -208h-324l361 388h351l162 -388h-300zM-11 0l292 1093h392l-292 -1093h-392z" />
<glyph unicode="&#xef;" horiz-adv-x="655" d="M285 1262q-80 0 -132 50.5t-52 130.5q0 94 65.5 160.5t158.5 66.5q80 0 132.5 -51t52.5 -131q0 -95 -65.5 -160.5t-159.5 -65.5zM817 1262q-80 0 -131.5 50.5t-51.5 130.5q0 94 65 160.5t158 66.5q81 0 133.5 -51t52.5 -131q0 -94 -65.5 -160t-160.5 -66zM-11 0l292 1093 h396l-292 -1093h-396z" />
<glyph unicode="&#xf0;" horiz-adv-x="1338" d="M629 1028q77 0 165.5 -28t151.5 -72l4 4q-23 152 -166 280l-319 -141l-86 184l223 93v2q-73 47 -242 104l127 264q243 -84 422 -229l238 106l90 -186q-129 -54 -174 -76q215 -268 215 -633q0 -113 -24 -217t-76 -196.5t-127.5 -161t-185.5 -108.5t-242 -40q-89 0 -170 20 t-150 61.5t-119.5 101t-79 143t-28.5 182.5q0 111 42.5 211t115.5 173t176 116t219 43zM639 315q105 0 179.5 83t74.5 194q0 81 -51 132.5t-131 51.5q-110 0 -184 -83t-74 -191q0 -79 48.5 -133t137.5 -54z" />
<glyph unicode="&#xf1;" horiz-adv-x="1333" d="M1060 1278q-49 0 -93.5 17.5t-72 38t-62 38t-64.5 17.5q-21 0 -37.5 -10t-28 -28t-18 -33.5t-13.5 -36.5h-216l18 70q33 131 114.5 211t203.5 80q45 0 89 -17t72 -37t62.5 -37t63.5 -17q30 0 52 17t31 34.5t22 51.5h208q-14 -59 -19 -79q-34 -126 -115 -203t-197 -77z M843 576q9 33 9 67q0 56 -30.5 86.5t-86.5 30.5q-154 0 -201 -179l-155 -581h-390l292 1093h387l-32 -121h4q146 144 315 144q154 0 233.5 -91.5t79.5 -232.5q0 -79 -32 -201l-158 -591h-389z" />
<glyph unicode="&#xf2;" horiz-adv-x="1339" d="M735 1677l176 -402h-274l-306 402h404zM618 -25q-252 0 -398 143t-146 366q0 122 50 237.5t135.5 203t208.5 140.5t261 53q127 0 231 -39t172.5 -107t105.5 -160.5t37 -200.5q0 -123 -49.5 -239t-135.5 -203.5t-209.5 -140.5t-262.5 -53zM639 321q106 0 180.5 80 t74.5 190q0 82 -51.5 131.5t-133.5 49.5q-109 0 -182 -81t-73 -189q0 -78 48 -129.5t137 -51.5z" />
<glyph unicode="&#xf3;" horiz-adv-x="1339" d="M607 1275l338 402h434l-458 -402h-314zM618 -25q139 0 262.5 53t209.5 140.5t135.5 203.5t49.5 239q0 108 -37 200.5t-105.5 160.5t-172.5 107t-231 39q-138 0 -261 -53t-208.5 -140.5t-135.5 -203t-50 -237.5q0 -223 146 -366t398 -143zM639 321q-89 0 -137 51.5 t-48 129.5q0 108 73 189t182 81q82 0 133.5 -49.5t51.5 -131.5q0 -110 -74.5 -190t-180.5 -80z" />
<glyph unicode="&#xf4;" horiz-adv-x="1339" d="M894 1278l-70 208l-180 -208h-324l361 388h351l162 -388h-300zM618 -25q-252 0 -398 143t-146 366q0 122 50 237.5t135.5 203t208.5 140.5t261 53q127 0 231 -39t172.5 -107t105.5 -160.5t37 -200.5q0 -123 -49.5 -239t-135.5 -203.5t-209.5 -140.5t-262.5 -53zM639 321 q106 0 180.5 80t74.5 190q0 82 -51.5 131.5t-133.5 49.5q-109 0 -182 -81t-73 -189q0 -78 48 -129.5t137 -51.5z" />
<glyph unicode="&#xf5;" horiz-adv-x="1339" d="M1002 1278q-49 0 -93.5 17.5t-72 38t-62 38t-64.5 17.5q-21 0 -37.5 -10t-28 -28t-18 -33.5t-13.5 -36.5h-216l18 70q33 131 114.5 211t203.5 80q45 0 89 -17t72 -37t62.5 -37t63.5 -17q30 0 52 17t31 34.5t22 51.5h208q-14 -59 -19 -79q-34 -126 -115 -203t-197 -77z M618 -25q139 0 262.5 53t209.5 140.5t135.5 203.5t49.5 239q0 108 -37 200.5t-105.5 160.5t-172.5 107t-231 39q-138 0 -261 -53t-208.5 -140.5t-135.5 -203t-50 -237.5q0 -223 146 -366t398 -143zM639 321q-89 0 -137 51.5t-48 129.5q0 108 73 189t182 81q82 0 133.5 -49.5 t51.5 -131.5q0 -110 -74.5 -190t-180.5 -80z" />
<glyph unicode="&#xf6;" horiz-adv-x="1339" d="M556 1262q-80 0 -132 50.5t-52 130.5q0 94 65.5 160.5t158.5 66.5q80 0 132.5 -51t52.5 -131q0 -95 -65.5 -160.5t-159.5 -65.5zM1088 1262q-80 0 -131.5 50.5t-51.5 130.5q0 94 65 160.5t158 66.5q81 0 133.5 -51t52.5 -131q0 -94 -66 -160t-160 -66zM618 -25 q139 0 262.5 53t209.5 140.5t135.5 203.5t49.5 239q0 108 -37 200.5t-105.5 160.5t-172.5 107t-231 39q-138 0 -261 -53t-208.5 -140.5t-135.5 -203t-50 -237.5q0 -223 146 -366t398 -143zM639 321q-89 0 -137 51.5t-48 129.5q0 108 73 189t182 81q82 0 133.5 -49.5 t51.5 -131.5q0 -110 -74.5 -190t-180.5 -80z" />
<glyph unicode="&#xf7;" horiz-adv-x="1240" d="M793 1046q-90 0 -143 51t-53 129q0 90 68.5 157.5t167.5 67.5q90 0 143.5 -51t53.5 -129q0 -90 -69 -157.5t-168 -67.5zM1265 914h-1082l-87 -324h1083zM528 53q-90 0 -143.5 51t-53.5 129q0 90 68.5 157.5t167.5 67.5q90 0 143.5 -51t53.5 -129q0 -90 -68.5 -157.5 t-167.5 -67.5z" />
<glyph unicode="&#xf8;" horiz-adv-x="1339" d="M619 -23q-201 0 -338 96l-151 -143l-107 114l144 137q-91 127 -91 306q0 121 50 235.5t135.5 202t209 140.5t261.5 53q204 0 342 -96l150 141l108 -114l-146 -138q90 -128 90 -304q0 -121 -49.5 -235t-135 -201.5t-209.5 -140.5t-263 -53zM902 658l-355 -335 q40 -17 92 -17q112 0 192 86t80 202q0 36 -9 64zM713 787q-116 0 -194 -87.5t-78 -200.5q0 -35 9 -66l356 335q-39 19 -93 19z" />
<glyph unicode="&#xf9;" horiz-adv-x="1336" d="M790 1677l176 -402h-274l-306 402h404zM709 121q-7 -32 -11 -82v-39h392q-2 28 0 38q0 58 27 162l238 893h-389l-156 -581q-47 -179 -201 -179q-56 0 -86.5 30.5t-30.5 86.5q0 30 10 67l153 576h-389l-158 -591q-32 -122 -32 -201q0 -141 80 -232t234 -91q168 0 314 143 h5z" />
<glyph unicode="&#xfa;" horiz-adv-x="1336" d="M659 1275l338 402h434l-458 -402h-314zM704 121q-146 -143 -314 -143q-154 0 -234 91t-80 232q0 79 32 201l158 591h389l-153 -576q-10 -37 -10 -67q0 -56 30.5 -86.5t86.5 -30.5q154 0 201 179l156 581h389l-238 -893q-27 -104 -27 -162q-2 -9 0 -38h-392v39q4 50 11 82 h-5z" />
<glyph unicode="&#xfb;" horiz-adv-x="1336" d="M985 1278l-70 208l-180 -208h-324l361 388h351l162 -388h-300zM709 121q-7 -32 -11 -82v-39h392q-2 28 0 38q0 58 27 162l238 893h-389l-156 -581q-47 -179 -201 -179q-56 0 -86.5 30.5t-30.5 86.5q0 30 10 67l153 576h-389l-158 -591q-32 -122 -32 -201q0 -141 80 -232 t234 -91q168 0 314 143h5z" />
<glyph unicode="&#xfc;" horiz-adv-x="1336" d="M615 1262q-80 0 -132 50.5t-52 130.5q0 94 65.5 160.5t158.5 66.5q80 0 132.5 -51t52.5 -131q0 -95 -65.5 -160.5t-159.5 -65.5zM1147 1262q-80 0 -131.5 50.5t-51.5 130.5q0 94 65 160.5t158 66.5q81 0 133.5 -51t52.5 -131q0 -94 -65.5 -160t-160.5 -66zM704 121 q-146 -143 -314 -143q-154 0 -234 91t-80 232q0 79 32 201l158 591h389l-153 -576q-10 -37 -10 -67q0 -56 30.5 -86.5t86.5 -30.5q154 0 201 179l156 581h389l-238 -893q-27 -104 -27 -162q-2 -9 0 -38h-392v39q4 50 11 82h-5z" />
<glyph unicode="&#xfd;" horiz-adv-x="1281" d="M666 1275l338 402h434l-458 -402h-314zM-26 -539l337 537l-144 1095h384l68 -648h2l385 648h411l-1037 -1632h-406z" />
<glyph unicode="&#xfe;" horiz-adv-x="1410" d="M1351 670q0 -144 -49.5 -273.5t-131.5 -220.5t-191 -144.5t-226 -53.5q-221 0 -335 169h-4l-183 -687h-386l590 2209h389l-183 -688h4q143 134 310 134q75 0 143.5 -26.5t126 -78.5t92 -140t34.5 -200zM692 323q107 0 185.5 82t78.5 197q0 78 -50.5 125t-133.5 47 q-109 0 -188.5 -83.5t-79.5 -194.5q0 -78 52.5 -125.5t135.5 -47.5z" />
<glyph unicode="&#xff;" horiz-adv-x="1281" d="M585 1262q-80 0 -132 50.5t-52 130.5q0 94 65.5 160.5t158.5 66.5q80 0 132.5 -51t52.5 -131q0 -95 -65.5 -160.5t-159.5 -65.5zM1117 1262q-80 0 -131.5 50.5t-51.5 130.5q0 94 65 160.5t158 66.5q81 0 133.5 -51t52.5 -131q0 -94 -65.5 -160t-160.5 -66zM-26 -539 l337 537l-144 1095h384l68 -648h2l385 648h411l-1037 -1632h-406z" />
<glyph unicode="&#x100;" horiz-adv-x="1676" d="M820 2056h790l-74 -279h-790zM1121 295h-640l-185 -295h-435l1011 1604h461l248 -1604h-418zM686 637h390l-75 525z" />
<glyph unicode="&#x101;" d="M560 1566h790l-74 -279h-790zM782 118q-144 -140 -316 -140q-124 0 -216.5 64t-136.5 164t-44 218q0 137 48 264.5t128.5 221t192 149.5t233.5 56q216 0 331 -161h2l38 139h390l-239 -893q-22 -87 -27 -162v-38h-391v36q4 50 11 82h-4zM651 321q105 0 185 81.5t80 196.5 q0 77 -52 125t-133 48q-109 0 -188 -82.5t-79 -196.5q0 -78 50.5 -125t136.5 -47z" />
<glyph unicode="&#x102;" horiz-adv-x="1676" d="M1621 2154q-53 -175 -178 -285t-300 -110q-156 0 -264 94.5t-108 248.5q0 26 3 52h262q-5 -67 29 -111.5t101 -44.5t113.5 44t70.5 112h271zM1333 1604h-461l-1011 -1604h435l185 295h640l42 -295h418zM686 637l315 525l75 -525h-390z" />
<glyph unicode="&#x103;" d="M1355 1664q-53 -175 -178 -285t-300 -110q-156 0 -264 94.5t-108 248.5q0 26 3 52h262q-5 -67 29 -111.5t101 -44.5t113.5 44t70.5 112h271zM786 118q-7 -32 -11 -82v-36h391v38q5 75 27 162l239 893h-390l-38 -139h-2q-115 161 -331 161q-122 0 -233.5 -56t-192 -149.5 t-128.5 -221t-48 -264.5q0 -118 44 -218t136.5 -164t216.5 -64q172 0 316 140h4zM651 321q-86 0 -136.5 47t-50.5 125q0 114 79 196.5t188 82.5q81 0 133 -48t52 -125q0 -115 -80 -196.5t-185 -81.5z" />
<glyph unicode="&#x104;" horiz-adv-x="1676" d="M1579 0q-34 -16 -74 -40.5t-85.5 -58t-75.5 -72.5t-30 -72q0 -39 37.5 -59.5t81.5 -20.5q12 0 34 2l-57 -214q-50 -9 -121 -9q-50 0 -98 11.5t-91.5 34.5t-70 64.5t-26.5 94.5q0 178 266 339h-106l-42 295h-640l-185 -295h-435l1011 1604h461l248 -1604h-2zM1076 637 l-75 525l-315 -525h390z" />
<glyph unicode="&#x105;" d="M1432 1093l-239 -893q-22 -87 -27 -162v-38q-34 -16 -74.5 -40.5t-85.5 -58t-75 -72.5t-30 -72q0 -39 37.5 -59.5t80.5 -20.5q11 0 35 2l-57 -214q-50 -9 -121 -9q-50 0 -98.5 11.5t-92 34.5t-70 64.5t-26.5 94.5q0 177 266 339h-80v36q4 50 11 82h-4 q-144 -140 -316 -140q-124 0 -216 64t-136.5 164t-44.5 218q0 137 48 264.5t128.5 221t192 149.5t233.5 56q216 0 331 -161h2l38 139h390zM651 321q105 0 185 81.5t80 196.5q0 77 -52 125t-133 48q-109 0 -188 -82.5t-79 -196.5q0 -78 50.5 -125t136.5 -47z" />
<glyph unicode="&#x106;" horiz-adv-x="1770" d="M967 1745l338 402h434l-458 -402h-314zM151 694q0 189 76 362t203.5 299t303.5 201t367 75q105 0 197.5 -18t162 -49t128 -74t99 -91.5t71 -104t48 -108t26.5 -107.5l-392 -122q-11 55 -35 102.5t-66.5 93.5t-115.5 73t-167 27q-99 0 -190.5 -46.5t-155.5 -121 t-102 -169.5t-38 -191q0 -166 103 -268t280 -102q72 0 136.5 20t110.5 50.5t84.5 71.5t62 78t40.5 75l360 -140q-28 -71 -72.5 -141t-118.5 -142.5t-164 -127t-216 -89t-267 -34.5q-158 0 -297.5 53t-241.5 146.5t-161 228t-59 290.5z" />
<glyph unicode="&#x107;" horiz-adv-x="1279" d="M605 1275l338 402h434l-458 -402h-314zM622 -25q-254 0 -400 141t-146 372q0 130 54 248t143.5 201.5t210 132.5t250.5 49q118 0 215.5 -34t161.5 -92t103 -128.5t51 -148.5l-359 -102q-13 70 -60.5 114t-129.5 44q-114 0 -187.5 -82.5t-73.5 -189.5q0 -80 51.5 -129.5 t141.5 -49.5q76 0 134 41t86 102l326 -123q-65 -157 -221 -261.5t-351 -104.5z" />
<glyph unicode="&#x108;" horiz-adv-x="1770" d="M1256 1748l-70 208l-180 -208h-324l361 388h351l162 -388h-300zM151 694q0 -156 59 -290.5t161 -228t241.5 -146.5t297.5 -53q141 0 267 34.5t216 89t164 127t118.5 142.5t72.5 141l-360 140q-17 -38 -40.5 -75t-62 -78t-84.5 -71.5t-110.5 -50.5t-136.5 -20 q-177 0 -280 102t-103 268q0 96 38 191t102 169.5t155.5 121t190.5 46.5q94 0 167 -27t115.5 -73t66.5 -93.5t35 -102.5l392 122q-9 55 -26.5 107.5t-48 108t-71 104t-99 91.5t-128 74t-162 49t-197.5 18q-191 0 -367 -75t-303.5 -201t-203.5 -299t-76 -362z" />
<glyph unicode="&#x109;" horiz-adv-x="1278" d="M902 1278l-70 208l-180 -208h-324l361 388h351l162 -388h-300zM621 -25q195 0 351 104.5t221 261.5l-326 123q-28 -61 -86 -102t-134 -41q-90 0 -141.5 49.5t-51.5 129.5q0 107 73 189.5t188 82.5q82 0 129.5 -44t60.5 -114l359 102q-12 78 -51 148.5t-103 128.5 t-161.5 92t-215.5 34q-130 0 -250.5 -49t-210 -132.5t-143.5 -201.5t-54 -248q0 -231 146 -372t400 -141z" />
<glyph unicode="&#x10a;" horiz-adv-x="1770" d="M1131 1751q-88 0 -145.5 56t-57.5 145q0 103 72 176.5t175 73.5q89 0 147 -56.5t58 -145.5q0 -104 -72.5 -176.5t-176.5 -72.5zM151 694q0 189 76 362t203.5 299t303.5 201t367 75q105 0 197.5 -18t162 -49t128 -74t99 -91.5t71 -104t48 -108t26.5 -107.5l-392 -122 q-11 55 -35 102.5t-66.5 93.5t-115.5 73t-167 27q-99 0 -190.5 -46.5t-155.5 -121t-102 -169.5t-38 -191q0 -166 103 -268t280 -102q72 0 136.5 20t110.5 50.5t84.5 71.5t62 78t40.5 75l360 -140q-28 -71 -72.5 -141t-118.5 -142.5t-164 -127t-216 -89t-267 -34.5 q-158 0 -297.5 53t-241.5 146.5t-161 228t-59 290.5z" />
<glyph unicode="&#x10b;" horiz-adv-x="1278" d="M771 1241q-88 0 -145.5 56t-57.5 145q0 103 72 176.5t175 73.5q89 0 147 -56.5t58 -145.5q0 -104 -72.5 -176.5t-176.5 -72.5zM621 -25q-254 0 -400 141t-146 372q0 130 54 248t143.5 201.5t210 132.5t250.5 49q118 0 215.5 -34t161.5 -92t103 -128.5t51 -148.5 l-359 -102q-13 70 -60.5 114t-129.5 44q-115 0 -188 -82.5t-73 -189.5q0 -80 51.5 -129.5t141.5 -49.5q76 0 134 41t86 102l326 -123q-65 -157 -221 -261.5t-351 -104.5z" />
<glyph unicode="&#x10c;" horiz-adv-x="1770" d="M1110 2136l70 -207l180 207h324l-361 -387h-351l-162 387h300zM151 694q0 -156 59 -290.5t161 -228t241.5 -146.5t297.5 -53q141 0 267 34.5t216 89t164 127t118.5 142.5t72.5 141l-360 140q-17 -38 -40.5 -75t-62 -78t-84.5 -71.5t-110.5 -50.5t-136.5 -20 q-177 0 -280 102t-103 268q0 96 38 191t102 169.5t155.5 121t190.5 46.5q94 0 167 -27t115.5 -73t66.5 -93.5t35 -102.5l392 122q-9 55 -26.5 107.5t-48 108t-71 104t-99 91.5t-128 74t-162 49t-197.5 18q-191 0 -367 -75t-303.5 -201t-203.5 -299t-76 -362z" />
<glyph unicode="&#x10d;" horiz-adv-x="1278" d="M756 1666l70 -207l180 207h324l-361 -387h-351l-162 387h300zM621 -25q195 0 351 104.5t221 261.5l-326 123q-28 -61 -86 -102t-134 -41q-90 0 -141.5 49.5t-51.5 129.5q0 107 73 189.5t188 82.5q82 0 129.5 -44t60.5 -114l359 102q-12 78 -51 148.5t-103 128.5 t-161.5 92t-215.5 34q-130 0 -250.5 -49t-210 -132.5t-143.5 -201.5t-54 -248q0 -231 146 -372t400 -141z" />
<glyph unicode="&#x10e;" horiz-adv-x="1694" d="M951 2136l70 -207l180 207h324l-361 -387h-351l-162 387h300zM590 0q521 0 816 272q143 132 215.5 304.5t72.5 351.5q0 171 -57 301t-163.5 211.5t-252 122.5t-327.5 41h-438l-425 -1604h559zM1270 896q0 -66 -18 -133.5t-64.5 -138.5t-115 -125.5t-180.5 -89.5t-251 -35 h-107l230 857h90q416 0 416 -335z" />
<glyph unicode="&#x10f;" horiz-adv-x="1452" d="M1585 1669l-392 -1469q-22 -87 -27 -162v-38h-391q-2 17 0 36q0 30 10 82h-3q-146 -140 -316 -140q-124 0 -216.5 64t-136.5 164t-44 218q0 137 48 264.5t128.5 221t192 149.5t233.5 56q216 0 330 -161h3l191 715h390zM1859 1190l237 479h-402l-128 -479h293zM650 321 q106 0 186 81.5t80 196.5q0 77 -52 125t-134 48q-109 0 -187.5 -82.5t-78.5 -196.5q0 -78 50.5 -125t135.5 -47z" />
<glyph unicode="&#x110;" horiz-adv-x="1760" d="M265 637h-187l92 343h186l166 624h437q182 0 327.5 -41t252 -122.5t163.5 -211.5t57 -301q0 -180 -72 -352t-215 -304q-296 -272 -816 -272h-559zM1335 896q0 80 -24.5 141t-64 98t-95.5 59.5t-111 31t-119 8.5h-92l-69 -254h288l-92 -343h-288l-70 -263h109 q139 0 250.5 35t180.5 89.5t115 125.5t64 138.5t18 133.5z" />
<glyph unicode="&#x111;" d="M1621 1245h-149l-279 -1045q-27 -104 -27 -162q-2 -9 0 -38h-392v36q4 50 11 82h-4q-144 -140 -315 -140q-124 0 -216.5 64t-136.5 164t-44 218q0 137 48 264.5t128.5 221t192 149.5t232.5 56q216 0 331 -161h3l78 291h-313l70 260h312l44 164h390l-44 -164h149zM650 321 q106 0 186 81.5t80 196.5q0 77 -52 125t-134 48q-109 0 -187.5 -82.5t-78.5 -196.5q0 -78 50.5 -125t135.5 -47z" />
<glyph unicode="&#x112;" horiz-adv-x="1405" d="M731 2056h790l-74 -279h-790zM458 1604h1118l-96 -359h-714l-71 -262h651l-93 -346h-650l-74 -276h721l-96 -361h-1124z" />
<glyph unicode="&#x113;" horiz-adv-x="1294" d="M472 1566h790l-74 -279h-790zM440 449q0 -78 63 -124t135 -46q68 0 127.5 27t90.5 84l303 -138q-34 -63 -84.5 -112.5t-105 -79.5t-117 -49.5t-116.5 -27t-108 -7.5q-242 0 -398 139t-156 369q0 126 54 243.5t144 203t213 136.5t255 51q97 0 186 -30.5t158.5 -86.5 t110.5 -142t41 -189q0 -111 -44 -221h-752zM723 821q-72 0 -142.5 -42.5t-99.5 -113.5h388q8 16 8 33q0 61 -43 92t-111 31z" />
<glyph unicode="&#x116;" horiz-adv-x="1405" d="M1046 1751q-88 0 -145.5 56t-57.5 145q0 103 72 176.5t175 73.5q89 0 147 -56.5t58 -145.5q0 -104 -72.5 -176.5t-176.5 -72.5zM458 1604h1118l-96 -359h-714l-71 -262h651l-93 -346h-650l-74 -276h721l-96 -361h-1124z" />
<glyph unicode="&#x117;" horiz-adv-x="1294" d="M773 1241q-88 0 -145.5 56t-57.5 145q0 103 72 176.5t175 73.5q89 0 147 -56.5t58 -145.5q0 -104 -72.5 -176.5t-176.5 -72.5zM440 449q0 -78 63 -124t135 -46q68 0 127.5 27t90.5 84l303 -138q-34 -63 -84.5 -112.5t-105 -79.5t-117 -49.5t-116.5 -27t-108 -7.5 q-242 0 -398 139t-156 369q0 126 54 243.5t144 203t213 136.5t255 51q97 0 186 -30.5t158.5 -86.5t110.5 -142t41 -189q0 -111 -44 -221h-752zM723 821q-72 0 -142.5 -42.5t-99.5 -113.5h388q8 16 8 33q0 61 -43 92t-111 31z" />
<glyph unicode="&#x118;" horiz-adv-x="1404" d="M766 1245l-71 -262h651l-93 -346h-650l-75 -276h722l-97 -361q-34 -16 -74.5 -40.5t-85.5 -58t-75 -72.5t-30 -72q0 -39 37.5 -59.5t80.5 -20.5q11 0 35 2l-57 -214q-50 -9 -121 -9q-50 0 -98.5 11.5t-92 34.5t-70 64.5t-26.5 94.5q0 177 266 339h-812l428 1604h1117 l-95 -359h-714z" />
<glyph unicode="&#x119;" horiz-adv-x="1294" d="M1236 670q0 -111 -44 -221h-752q0 -78 63 -124t135 -46q68 0 127.5 27t90.5 84l303 -138q-103 -194 -351 -255q-35 -17 -75 -41.5t-84 -57.5t-73 -71t-29 -70q0 -39 37.5 -59.5t81.5 -20.5q12 0 34 2l-57 -214q-50 -9 -121 -9q-50 0 -98 11.5t-91.5 34.5t-70 64.5 t-26.5 94.5q0 171 250 329q-187 38 -299.5 169t-112.5 325q0 126 54 243.5t144 203t213 136.5t255 51q97 0 186 -30.5t158.5 -86.5t110.5 -142t41 -189zM869 665q8 16 8 33q0 61 -43 92t-111 31q-72 0 -142.5 -42.5t-99.5 -113.5h388z" />
<glyph unicode="&#x11a;" horiz-adv-x="1405" d="M1028 2136l70 -207l180 207h324l-361 -387h-351l-162 387h300zM1250 361h-721l74 276h650l93 346h-651l71 262h714l96 359h-1118l-428 -1604h1124z" />
<glyph unicode="&#x11b;" horiz-adv-x="1294" d="M761 1666l70 -207l180 207h324l-361 -387h-351l-162 387h300zM1192 449q44 110 44 221q0 103 -41 189t-110.5 142t-158.5 86.5t-186 30.5q-132 0 -255 -51t-213 -136.5t-144 -203t-54 -243.5q0 -230 156 -369t398 -139q54 0 108 7.5t116.5 27t117 49.5t105 79.5 t84.5 112.5l-303 138q-31 -57 -90.5 -84t-127.5 -27q-72 0 -135 46t-63 124h752zM723 821q68 0 111 -31t43 -92q0 -17 -8 -33h-388q29 71 99.5 113.5t142.5 42.5z" />
<glyph unicode="&#x11c;" horiz-adv-x="1789" d="M1256 1748l-70 208l-180 -208h-324l361 388h351l162 -388h-300zM1797 1145q-12 66 -42 130t-87 129.5t-132.5 114t-187.5 79.5t-244 31q-191 0 -365.5 -71.5t-303 -194.5t-205 -298t-76.5 -372q0 -209 95.5 -373t268.5 -255t396 -91q169 0 312.5 49.5t246 135.5 t175.5 201t110.5 245.5t42.5 270.5h-850l-76 -317h462q-50 -98 -151.5 -157t-233.5 -59q-185 0 -287.5 108t-102.5 272q0 134 67.5 258t183.5 201.5t248 77.5q146 0 232.5 -69.5t108.5 -164.5z" />
<glyph unicode="&#x11d;" horiz-adv-x="1404" d="M1005 1278l-70 208l-180 -208h-324l361 388h351l162 -388h-300zM466 -218q107 0 181 72.5t109 200.5l23 85h-1q-80 -59 -147.5 -89t-160.5 -30q-108 0 -199.5 56.5t-144.5 153.5t-53 211q0 132 47 255.5t126 213.5t188 144.5t227 54.5q221 0 337 -164h2l40 147h386 l-278 -1042q-43 -160 -85 -239q-94 -173 -244 -266t-351 -93q-115 0 -211.5 27.5t-161.5 73.5t-110 107t-65.5 125.5t-20.5 130.5l352 69q0 -89 57.5 -146.5t157.5 -57.5zM647 342q101 0 178 78.5t77 187.5q0 74 -50 120.5t-129 46.5q-105 0 -180 -79.5t-75 -188.5 q0 -75 48.5 -120t130.5 -45z" />
<glyph unicode="&#x11e;" horiz-adv-x="1789" d="M1613 2154q-53 -175 -178 -285t-300 -110q-156 0 -264 94.5t-108 248.5q0 26 3 52h262q-5 -67 29 -111.5t101 -44.5t113.5 44t70.5 112h271zM1797 1145q-12 66 -42 130t-87 129.5t-132.5 114t-187.5 79.5t-244 31q-191 0 -365.5 -71.5t-303 -194.5t-205 -298t-76.5 -372 q0 -209 95.5 -373t268.5 -255t396 -91q169 0 312.5 49.5t246 135.5t175.5 201t110.5 245.5t42.5 270.5h-850l-76 -317h462q-50 -98 -151.5 -157t-233.5 -59q-185 0 -287.5 108t-102.5 272q0 134 67.5 258t183.5 201.5t248 77.5q146 0 232.5 -69.5t108.5 -164.5z" />
<glyph unicode="&#x11f;" horiz-adv-x="1404" d="M1352 1664q-53 -175 -178 -285t-300 -110q-156 0 -264 94.5t-108 248.5q0 26 3 52h262q-5 -67 29 -111.5t101 -44.5t113.5 44t70.5 112h271zM466 -218q107 0 181 72.5t109 200.5l23 85h-1q-80 -59 -147.5 -89t-160.5 -30q-108 0 -199.5 56.5t-144.5 153.5t-53 211 q0 132 47 255.5t126 213.5t188 144.5t227 54.5q221 0 337 -164h2l40 147h386l-278 -1042q-43 -160 -85 -239q-94 -173 -244 -266t-351 -93q-115 0 -211.5 27.5t-161.5 73.5t-110 107t-65.5 125.5t-20.5 130.5l352 69q0 -89 57.5 -146.5t157.5 -57.5zM647 342q101 0 178 78.5 t77 187.5q0 74 -50 120.5t-129 46.5q-105 0 -180 -79.5t-75 -188.5q0 -75 48.5 -120t130.5 -45z" />
<glyph unicode="&#x120;" horiz-adv-x="1789" d="M1131 1751q-88 0 -145.5 56t-57.5 145q0 103 72 176.5t175 73.5q89 0 147 -56.5t58 -145.5q0 -104 -72.5 -176.5t-176.5 -72.5zM1402 1026q-22 95 -108.5 164.5t-232.5 69.5q-132 0 -248 -77.5t-183.5 -201.5t-67.5 -258q0 -164 102.5 -272t287.5 -108q132 0 233.5 59 t151.5 157h-462l76 317h850q-5 -140 -42.5 -270.5t-110.5 -245.5t-175.5 -201t-246 -135.5t-312.5 -49.5q-223 0 -396 91t-268.5 255t-95.5 373q0 197 76.5 372t205 298t303 194.5t365.5 71.5q132 0 244 -31t187.5 -79.5t132.5 -114t87 -129.5t42 -130z" />
<glyph unicode="&#x121;" horiz-adv-x="1404" d="M897 1241q-88 0 -145.5 56t-57.5 145q0 103 72 176.5t175 73.5q89 0 147 -56.5t58 -145.5q0 -104 -72.5 -176.5t-176.5 -72.5zM466 -218q107 0 181 72.5t109 200.5l23 85h-1q-80 -59 -147.5 -89t-160.5 -30q-108 0 -199.5 56.5t-144.5 153.5t-53 211q0 132 47 255.5 t126 213.5t188 144.5t227 54.5q221 0 337 -164h2l40 147h386l-278 -1042q-43 -160 -85 -239q-94 -173 -244 -266t-351 -93q-115 0 -211.5 27.5t-161.5 73.5t-110 107t-65.5 125.5t-20.5 130.5l352 69q0 -89 57.5 -146.5t157.5 -57.5zM647 342q101 0 178 78.5t77 187.5 q0 74 -50 120.5t-129 46.5q-105 0 -180 -79.5t-75 -188.5q0 -75 48.5 -120t130.5 -45z" />
<glyph unicode="&#x122;" horiz-adv-x="1789" d="M1402 1026q-22 95 -108.5 164.5t-232.5 69.5q-132 0 -248 -77.5t-183.5 -201.5t-67.5 -258q0 -164 102.5 -272t287.5 -108q132 0 233.5 59t151.5 157h-462l76 317h850q-5 -140 -42.5 -270.5t-110.5 -245.5t-175.5 -201t-246 -135.5t-312.5 -49.5q-223 0 -396 91 t-268.5 255t-95.5 373q0 197 76.5 372t205 298t303 194.5t365.5 71.5q132 0 244 -31t187.5 -79.5t132.5 -114t87 -129.5t42 -130zM575 -678q33 0 69.5 8.5t76.5 26.5t73 53t50 82q-32 -20 -78 -20q-73 0 -118.5 46t-45.5 120q0 82 62.5 137t146.5 55q99 0 151 -61.5 t52 -161.5q0 -117 -58.5 -205.5t-152.5 -140.5q-125 -73 -260 -66z" />
<glyph unicode="&#x123;" horiz-adv-x="1404" d="M466 -218q107 0 181 72.5t109 200.5l23 85h-1q-80 -59 -147.5 -89t-160.5 -30q-108 0 -199.5 56.5t-144.5 153.5t-53 211q0 132 47 255.5t126 213.5t188 144.5t227 54.5q221 0 337 -164h2l40 147h386l-278 -1042q-43 -160 -85 -239q-94 -173 -244 -266t-351 -93 q-115 0 -211.5 27.5t-161.5 73.5t-110 107t-65.5 125.5t-20.5 130.5l352 69q0 -89 57.5 -146.5t157.5 -57.5zM647 342q101 0 178 78.5t77 187.5q0 74 -50 120.5t-129 46.5q-105 0 -180 -79.5t-75 -188.5q0 -75 48.5 -120t130.5 -45zM1139 1772q-46 0 -95 -13.5t-101 -54 t-75 -102.5q42 20 80 20q74 0 118 -46t44 -120q0 -84 -61.5 -139t-145.5 -55q-99 0 -151 62.5t-52 162.5q0 116 58 204t151 142q132 75 260 63z" />
<glyph unicode="&#x126;" horiz-adv-x="1824" d="M1966 1171h-181l-312 -1171h-404l164 615h-595l-164 -615h-404l312 1171h-178l71 269h179l44 164h404l-44 -164h596l44 164h403l-44 -164h181zM1382 1171h-595l-49 -183h595z" />
<glyph unicode="&#x127;" horiz-adv-x="1334" d="M955 1116q154 0 234 -91.5t80 -232.5q0 -79 -32 -201l-158 -591h-389l153 576q10 37 10 67q0 56 -30.5 86.5t-86.5 30.5q-154 0 -201 -179l-156 -581h-389l332 1245h-149l69 260h149l44 164h387l-44 -164h315l-69 -260h-315l-72 -273h3q147 144 315 144z" />
<glyph unicode="&#x128;" horiz-adv-x="744" d="M879 1748q-49 0 -93.5 17.5t-72 38t-62 38t-64.5 17.5q-21 0 -37.5 -10t-28 -28t-18 -33.5t-13.5 -36.5h-216l18 70q33 131 114.5 211t203.5 80q45 0 89 -17t72 -37t62.5 -37t63.5 -17q30 0 52 17t31 34.5t22 51.5h208q-14 -59 -19 -79q-34 -126 -115 -203t-197 -77z M458 1604h405l-429 -1604h-404z" />
<glyph unicode="&#x129;" horiz-adv-x="655" d="M700 1278q-49 0 -93.5 17.5t-72 38t-62 38t-64.5 17.5q-21 0 -37.5 -10t-28 -28t-18 -33.5t-13.5 -36.5h-216l18 70q33 131 114.5 211t203.5 80q45 0 89 -17t72 -37t62.5 -37t63.5 -17q30 0 52 17t31 34.5t22 51.5h208q-14 -59 -19 -79q-34 -126 -115 -203t-197 -77z M-11 0l292 1093h396l-292 -1093h-396z" />
<glyph unicode="&#x12a;" horiz-adv-x="744" d="M412 2056h730l-74 -279h-730zM458 1604h405l-429 -1604h-404z" />
<glyph unicode="&#x12b;" horiz-adv-x="652" d="M248 1566h700l-74 -279h-701zM-10 0l291 1093h393l-292 -1093h-392z" />
<glyph unicode="&#x12c;" horiz-adv-x="744" d="M1216 2154q-53 -175 -178 -285t-300 -110q-156 0 -264 94.5t-108 248.5q0 26 3 52h262q-5 -67 29 -111.5t101 -44.5t113.5 44t70.5 112h271zM863 1604h-405l-428 -1604h404z" />
<glyph unicode="&#x12d;" horiz-adv-x="656" d="M1049 1664q-53 -175 -178 -285t-301 -110q-156 0 -264 94.5t-108 248.5q0 26 3 52h262q-5 -67 29 -111.5t101 -44.5t114 43.5t71 112.5h271zM281 1093l-292 -1093h397l292 1093h-397z" />
<glyph unicode="&#x12e;" horiz-adv-x="744" d="M435 0q-34 -16 -74.5 -40.5t-86 -58t-75.5 -72.5t-30 -72q0 -39 37.5 -59.5t81.5 -20.5q11 0 35 2l-57 -214q-50 -9 -121 -9q-50 0 -98.5 11.5t-92 34.5t-70 64.5t-26.5 94.5q0 177 266 339h-94l428 1604h405l-429 -1604h1z" />
<glyph unicode="&#x12f;" horiz-adv-x="651" d="M600 1692q88 0 146 -56.5t58 -145.5q0 -104 -72.5 -176.5t-176.5 -72.5q-88 0 -145.5 56t-57.5 145q0 103 72 176.5t176 73.5zM673 1093l-292 -1093h1q-34 -16 -74.5 -40.5t-86 -58t-75.5 -72.5t-30 -72q0 -39 37.5 -59.5t81.5 -20.5q29 0 52 4l-57 -213 q-57 -12 -139 -12q-50 0 -98 11.5t-91.5 34.5t-70 64.5t-26.5 94.5q0 178 266 339h-82l292 1093h392z" />
<glyph unicode="&#x130;" horiz-adv-x="744" d="M697 1751q-88 0 -145.5 56t-57.5 145q0 103 72 176.5t175 73.5q89 0 147 -56.5t58 -145.5q0 -104 -72.5 -176.5t-176.5 -72.5zM458 1604h405l-429 -1604h-404z" />
<glyph unicode="&#x131;" horiz-adv-x="651" d="M-11 0l292 1093h392l-292 -1093h-392z" />
<glyph unicode="&#x132;" horiz-adv-x="1444" d="M161 586l413 14q-18 -76 -18 -112q0 -134 131 -134q69 0 118.5 45t68.5 117l290 1088h411l-299 -1114q-138 -513 -635 -513q-119 0 -216.5 35.5t-159.5 95.5t-95.5 138t-33.5 166q0 81 25 174zM435 1604l-213 -795h409l212 795h-408z" />
<glyph unicode="&#x136;" horiz-adv-x="1563" d="M642 766l-204 -766h-408l428 1604h408l-182 -680h2l645 680h516l-801 -813l391 -791h-452zM389 -678q33 0 69.5 8.5t76.5 26.5t73 53t50 82q-32 -20 -78 -20q-73 0 -118.5 46t-45.5 120q0 82 62.5 137t146.5 55q99 0 151 -61.5t52 -161.5q0 -117 -58.5 -205.5 t-152.5 -140.5q-125 -73 -260 -66z" />
<glyph unicode="&#x137;" horiz-adv-x="1307" d="M-11 0l446 1669h389l-273 -1023h6l412 447h484l-528 -542l243 -551h-423l-223 538l-143 -538h-390zM202 -678q33 0 69.5 8.5t76.5 26.5t73 53t50 82q-32 -20 -78 -20q-73 0 -118.5 46t-45.5 120q0 82 62.5 137t146.5 55q99 0 151 -61.5t52 -161.5q0 -117 -58.5 -205.5 t-152.5 -140.5q-125 -73 -260 -66z" />
<glyph unicode="&#x139;" horiz-adv-x="1266" d="M553 1745l338 402h434l-458 -402h-314zM30 0l428 1604h406l-330 -1236h668l-98 -368h-1074z" />
<glyph unicode="&#x13a;" horiz-adv-x="652" d="M513 1807l338 402h434l-458 -402h-314zM435 1669h392l-445 -1669h-393z" />
<glyph unicode="&#x13b;" horiz-adv-x="1266" d="M30 0l428 1604h406l-330 -1236h668l-98 -368h-1074zM238 -678q33 0 69.5 8.5t76.5 26.5t73 53t50 82q-32 -20 -78 -20q-73 0 -118.5 46t-45.5 120q0 82 62.5 137t146.5 55q99 0 151 -61.5t52 -161.5q0 -117 -58.5 -205.5t-152.5 -140.5q-125 -73 -260 -66z" />
<glyph unicode="&#x13c;" horiz-adv-x="652" d="M435 1669h392l-445 -1669h-393zM-168 -678q33 0 69.5 8.5t76.5 26.5t73 53t50 82q-32 -20 -78 -20q-73 0 -118.5 46t-45.5 120q0 82 62.5 137t146.5 55q99 0 151 -61.5t52 -161.5q0 -117 -58.5 -205.5t-152.5 -140.5q-125 -73 -260 -66z" />
<glyph unicode="&#x13d;" horiz-adv-x="1299" d="M1012 1170l127 479h403l-238 -479h-292zM30 0l428 1604h406l-330 -1236h668l-98 -368h-1074z" />
<glyph unicode="&#x13e;" horiz-adv-x="692" d="M435 1669h392l-445 -1669h-393zM809 1190l128 479h402l-237 -479h-293z" />
<glyph unicode="&#x13f;" horiz-adv-x="1285" d="M30 0l428 1604h406l-330 -1236h668l-98 -368h-1074zM1078 608q-89 0 -146 56t-57 145q0 103 71.5 176.5t175.5 73.5q88 0 146 -56.5t58 -145.5q0 -104 -72.5 -176.5t-175.5 -72.5z" />
<glyph unicode="&#x140;" horiz-adv-x="1032" d="M435 1669h392l-445 -1669h-393zM850 418q-89 0 -146 56t-57 145q0 103 71.5 176.5t175.5 73.5q88 0 146 -56.5t58 -145.5q0 -104 -72.5 -176.5t-175.5 -72.5z" />
<glyph unicode="&#x141;" horiz-adv-x="1370" d="M1311 368l-98 -368h-1079l146 546l-236 -95l95 357l237 95l187 701h403l-139 -519l471 189l-96 -359l-470 -188l-96 -359h675z" />
<glyph unicode="&#x142;" horiz-adv-x="950" d="M947 759l-237 -103l-175 -656h-394l123 461l-236 -103l95 357l236 101l228 853h393l-176 -659l237 104z" />
<glyph unicode="&#x143;" horiz-adv-x="1778" d="M1052 1745l338 402h434l-458 -402h-314zM700 995h-2l-266 -995h-402l428 1604h454l318 -980h1l263 980h402l-428 -1604h-442z" />
<glyph unicode="&#x144;" horiz-adv-x="1333" d="M699 1275l338 402h434l-458 -402h-314zM843 576q9 33 9 67q0 56 -30.5 86.5t-86.5 30.5q-154 0 -201 -179l-155 -581h-390l292 1093h387l-32 -121h4q146 144 315 144q154 0 233.5 -91.5t79.5 -232.5q0 -79 -32 -201l-158 -591h-389z" />
<glyph unicode="&#x145;" horiz-adv-x="1778" d="M700 995h-2l-266 -995h-402l428 1604h454l318 -980h1l263 980h402l-428 -1604h-442zM431 -678q33 0 69.5 8.5t76.5 26.5t73 53t50 82q-32 -20 -78 -20q-73 0 -118.5 46t-45.5 120q0 82 62.5 137t146.5 55q99 0 151 -61.5t52 -161.5q0 -117 -58.5 -205.5t-152.5 -140.5 q-125 -73 -260 -66z" />
<glyph unicode="&#x146;" horiz-adv-x="1333" d="M843 576q9 33 9 67q0 56 -30.5 86.5t-86.5 30.5q-154 0 -201 -179l-155 -581h-390l292 1093h387l-32 -121h4q146 144 315 144q154 0 233.5 -91.5t79.5 -232.5q0 -79 -32 -201l-158 -591h-389zM180 -678q33 0 69.5 8.5t76.5 26.5t73 53t50 82q-32 -20 -78 -20 q-73 0 -118.5 46t-45.5 120q0 82 62.5 137t146.5 55q99 0 151 -61.5t52 -161.5q0 -117 -58.5 -205.5t-152.5 -140.5q-125 -73 -260 -66z" />
<glyph unicode="&#x147;" horiz-adv-x="1778" d="M1191 2136l70 -207l180 207h324l-361 -387h-351l-162 387h300zM1896 1604h-402l-263 -980h-1l-318 980h-454l-428 -1604h402l266 995h2l326 -995h442z" />
<glyph unicode="&#x148;" horiz-adv-x="1333" d="M842 1666l70 -207l180 207h324l-361 -387h-351l-162 387h300zM1236 591q32 122 32 201q0 141 -79.5 232.5t-233.5 91.5q-169 0 -315 -144h-4l32 121h-387l-292 -1093h390l155 581q47 179 201 179q56 0 86.5 -30.5t30.5 -86.5q0 -34 -9 -67l-154 -576h389z" />
<glyph unicode="&#x14a;" horiz-adv-x="1776" d="M702 999h-2l-268 -999h-402l428 1604h454l323 -960h1l258 960h402l-460 -1715q-25 -94 -70 -170t-113.5 -135t-167.5 -91.5t-221 -32.5q-146 0 -216 44l81 302q49 -23 105 -23q95 0 142.5 41.5t69.5 129.5l8 32z" />
<glyph unicode="&#x14b;" horiz-adv-x="1333" d="M843 576q9 33 9 67q0 56 -30.5 86.5t-86.5 30.5q-154 0 -201 -179l-155 -581h-390l292 1093h387l-32 -121h4q146 144 315 144q154 0 233.5 -91.5t79.5 -232.5q0 -79 -32 -201l-189 -701q-25 -94 -69.5 -170t-110.5 -135.5t-160.5 -92t-210.5 -32.5q-146 0 -216 44l80 302 q49 -23 105 -23q89 0 138.5 42.5t72.5 128.5z" />
<glyph unicode="&#x14c;" horiz-adv-x="1868" d="M817 2056h790l-74 -279h-790zM1104 1631q169 0 312 -55.5t241 -151.5t153 -227t55 -280q0 -194 -77 -369t-206 -300t-303.5 -198.5t-362.5 -73.5q-149 0 -285 47.5t-243 135.5t-171 226.5t-64 306.5q0 194 76.5 369t205 299.5t303.5 197.5t366 73zM573 724 q0 -173 107.5 -271t269.5 -98q134 0 249 75.5t180.5 197.5t65.5 256q0 158 -103 263.5t-275 105.5q-100 0 -192 -45t-158 -118t-105 -169.5t-39 -196.5z" />
<glyph unicode="&#x14d;" horiz-adv-x="1339" d="M514 1566h790l-74 -279h-790zM618 -25q139 0 262.5 53t209.5 140.5t135.5 203.5t49.5 239q0 108 -37 200.5t-105.5 160.5t-172.5 107t-231 39q-138 0 -261 -53t-208.5 -140.5t-135.5 -203t-50 -237.5q0 -223 146 -366t398 -143zM639 321q-89 0 -137 51.5t-48 129.5 q0 108 73 189t182 81q82 0 133.5 -49.5t51.5 -131.5q0 -110 -74.5 -190t-180.5 -80z" />
<glyph unicode="&#x150;" horiz-adv-x="1868" d="M701 1745l338 402h434l-458 -402h-314zM1227 1745l338 402h434l-458 -402h-314zM1104 1631q169 0 312 -55.5t241 -151.5t153 -227t55 -280q0 -194 -77 -369t-206 -300t-303.5 -198.5t-362.5 -73.5q-149 0 -285 47.5t-243 135.5t-171 226.5t-64 306.5q0 194 76.5 369 t205 299.5t303.5 197.5t366 73zM573 724q0 -173 107.5 -271t269.5 -98q134 0 249 75.5t180.5 197.5t65.5 256q0 158 -103 263.5t-275 105.5q-100 0 -192 -45t-158 -118t-105 -169.5t-39 -196.5z" />
<glyph unicode="&#x151;" horiz-adv-x="1340" d="M348 1275l338 402h434l-458 -402h-314zM874 1275l338 402h434l-458 -402h-314zM619 -25q-252 0 -398 143t-146 366q0 122 50 237.5t135.5 203t208.5 140.5t261 53q127 0 231 -39t172.5 -107t105.5 -160.5t37 -200.5q0 -123 -49.5 -239t-135.5 -203.5t-209.5 -140.5 t-262.5 -53zM640 321q106 0 180.5 80t74.5 190q0 82 -51.5 131.5t-133.5 49.5q-109 0 -182 -81t-73 -189q0 -78 48 -129.5t137 -51.5z" />
<glyph unicode="&#x152;" horiz-adv-x="2601" d="M1251 93q-175 -117 -366 -117q-113 0 -219.5 29.5t-199.5 89.5t-163 144t-110 201t-40 252q0 194 76.5 369t205 299.5t303.5 197.5t366 73q180 0 306 -66t188 -174l57 213h1117l-96 -359h-716l-71 -262h653l-92 -346h-652l-75 -276h723l-96 -361h-1124zM573 724 q0 -173 107 -271t270 -98q134 0 249.5 76.5t181.5 199.5t66 258q0 158 -102 261t-278 103q-100 0 -192 -45t-158 -118t-105 -169.5t-39 -196.5z" />
<glyph unicode="&#x153;" horiz-adv-x="2102" d="M2045 670q0 -108 -45 -221h-751q0 -78 62.5 -124t134.5 -46q68 0 128 27t91 84l302 -138q-34 -63 -84.5 -112.5t-105 -79.5t-117 -49.5t-116.5 -27t-108 -7.5q-260 0 -399 162q-166 -163 -416 -163t-398 143.5t-148 365.5q0 123 49 238t133.5 202.5t207.5 140.5t262 53 q267 0 396 -166q177 166 425 166q97 0 186.5 -30.5t158.5 -86.5t110.5 -142t41.5 -189zM1678 665q8 19 8 33q0 61 -43 92t-112 31q-72 0 -142.5 -42.5t-99.5 -113.5h389zM638 321q108 0 182.5 76t74.5 191q0 81 -52.5 132.5t-130.5 51.5q-111 0 -184 -76.5t-73 -188.5 q0 -74 48 -130t135 -56z" />
<glyph unicode="&#x154;" horiz-adv-x="1529" d="M1121 1745h-314l338 402h434zM1585 1144q0 -89 -25 -168t-76 -149t-137.5 -124.5t-201.5 -87.5l181 -615h-409l-164 564h-166l-151 -564h-406l428 1604h499q353 0 510 -152q118 -114 118 -308zM872 908q128 0 212.5 51.5t84.5 148.5q0 56 -34 94q-50 53 -181 53h-183 l-93 -347h194z" />
<glyph unicode="&#x155;" horiz-adv-x="945" d="M534 1275l338 402h434l-458 -402h-314zM950 710q-55 21 -122 21q-54 0 -99.5 -11t-89.5 -37.5t-78 -78t-54 -125.5l-129 -479h-389l292 1093h386l-37 -137h3q132 150 319 150q60 0 99 -19z" />
<glyph unicode="&#x156;" horiz-adv-x="1529" d="M1585 1144q0 -89 -25 -168t-76 -149t-137.5 -124.5t-201.5 -87.5l181 -615h-409l-164 564h-166l-151 -564h-406l428 1604h499q353 0 510 -152q118 -114 118 -308zM872 908q128 0 212.5 51.5t84.5 148.5q0 56 -34 94q-50 53 -181 53h-183l-93 -347h194zM352 -678 q33 0 69.5 8.5t76.5 26.5t73 53t50 82q-32 -20 -78 -20q-73 0 -118.5 46t-45.5 120q0 82 62.5 137t146.5 55q99 0 151 -61.5t52 -161.5q0 -117 -58.5 -205.5t-152.5 -140.5q-125 -73 -260 -66z" />
<glyph unicode="&#x157;" horiz-adv-x="945" d="M950 710q-55 21 -122 21q-54 0 -99.5 -11t-89.5 -37.5t-78 -78t-54 -125.5l-129 -479h-389l292 1093h386l-37 -137h3q132 150 319 150q60 0 99 -19zM-129 -678q33 0 69.5 8.5t76.5 26.5t73 53t50 82q-32 -20 -78 -20q-73 0 -118.5 46t-45.5 120q0 82 62.5 137t146.5 55 q99 0 151 -61.5t52 -161.5q0 -117 -58.5 -205.5t-152.5 -140.5q-125 -73 -260 -66z" />
<glyph unicode="&#x158;" horiz-adv-x="1529" d="M1182 1749h-351l-162 387h300l70 -207l180 207h324zM1585 1144q0 -89 -25 -168t-76 -149t-137.5 -124.5t-201.5 -87.5l181 -615h-409l-164 564h-166l-151 -564h-406l428 1604h499q353 0 510 -152q118 -114 118 -308zM872 908q128 0 212.5 51.5t84.5 148.5q0 56 -34 94 q-50 53 -181 53h-183l-93 -347h194z" />
<glyph unicode="&#x159;" horiz-adv-x="945" d="M662 1666l70 -207l180 207h324l-361 -387h-351l-162 387h300zM1051 1087q-39 19 -99 19q-187 0 -319 -150h-3l37 137h-386l-292 -1093h389l129 479q20 74 54 125.5t78 78t89.5 37.5t99.5 11q67 0 122 -21z" />
<glyph unicode="&#x15a;" horiz-adv-x="1444" d="M769 1745l338 402h434l-458 -402h-314zM941 470q0 17 -5 33.5t-19 37.5t-45 40t-76 33l-134 41q-180 55 -288.5 174t-108.5 262q0 105 35.5 194t96.5 152t142 107.5t171.5 65.5t185.5 21q126 0 228.5 -30.5t168.5 -79.5t110.5 -113.5t63.5 -129t19 -130.5l-377 -62 q0 35 -11 69t-35 67t-70.5 53.5t-108.5 20.5q-54 0 -96.5 -16.5t-65 -41.5t-33.5 -50t-11 -48q0 -100 133 -141l137 -42q85 -26 154.5 -66t116 -85.5t78.5 -97.5t46 -102t14 -99q0 -253 -174 -391.5t-468 -138.5q-93 0 -183 19t-173.5 59.5t-146 98.5t-100 142.5 t-37.5 184.5q0 32 2 48l360 63q-3 -20 -3 -39q0 -110 78 -175t190 -65q119 0 179 50t60 107z" />
<glyph unicode="&#x15b;" horiz-adv-x="1099" d="M477 1275l338 402h434l-458 -402h-314zM620 1118q-201 0 -335 -106.5t-134 -265.5q0 -53 16.5 -98t42.5 -77t65.5 -59t78.5 -45t89 -35l76 -26q82 -27 82 -78q0 -28 -28.5 -53t-89.5 -25q-64 0 -110.5 37t-44.5 95l-316 -51v-17q0 -39 13 -81t47 -89.5t85 -84 t136.5 -60.5t192.5 -24q116 0 211.5 31.5t155.5 84t92.5 117.5t32.5 135q0 59 -16.5 108.5t-43 84t-65.5 62.5t-77.5 45.5t-86.5 33.5l-108 35q-63 21 -63 63q0 23 24 48t74 25q43 0 79.5 -27t36.5 -80l327 37v7q0 53 -26.5 109.5t-77.5 107.5t-138.5 83.5t-196.5 32.5z" />
<glyph unicode="&#x15c;" horiz-adv-x="1444" d="M1052 1748l-70 208l-180 -208h-324l361 388h351l162 -388h-300zM941 470q0 -57 -60 -107t-179 -50q-112 0 -190 65t-78 175q0 19 3 39l-360 -63q-2 -16 -2 -48q0 -100 37.5 -184.5t100 -142.5t146 -98.5t173.5 -59.5t183 -19q294 0 468 138.5t174 391.5q0 49 -14 99 t-46 102t-78.5 97.5t-116 85.5t-154.5 66l-137 42q-133 41 -133 141q0 23 11 48t33.5 50t65 41.5t96.5 16.5q62 0 108.5 -20.5t70.5 -53.5t35 -67t11 -69l377 62q0 66 -19 130.5t-63.5 129t-110.5 113.5t-168.5 79.5t-228.5 30.5q-95 0 -185.5 -21t-171.5 -65.5t-142 -107.5 t-96.5 -152t-35.5 -194q0 -143 108.5 -262t288.5 -174l134 -41q45 -14 76 -33t45 -40t19 -37.5t5 -33.5z" />
<glyph unicode="&#x15d;" horiz-adv-x="1099" d="M775 1278l-70 208l-180 -208h-324l361 388h351l162 -388h-300zM620 1118q109 0 196.5 -32.5t138.5 -83.5t77.5 -107.5t26.5 -109.5v-7l-327 -37q0 53 -36.5 80t-79.5 27q-50 0 -74 -25t-24 -48q0 -42 63 -63l108 -35q48 -16 86.5 -33.5t77.5 -45.5t65.5 -62.5t43 -84 t16.5 -108.5q0 -70 -32.5 -135t-92.5 -117.5t-155.5 -84t-211.5 -31.5q-107 0 -192.5 24t-136.5 60.5t-85 84t-47 89.5t-13 81v17l316 51q-2 -58 44.5 -95t110.5 -37q61 0 89.5 25t28.5 53q0 51 -82 78l-76 26q-50 17 -89 35t-78.5 45t-65.5 59t-42.5 77t-16.5 98 q0 159 134 265.5t335 106.5z" />
<glyph unicode="&#x15e;" horiz-adv-x="1445" d="M950 957q105 -32 186 -85t128.5 -115t71 -125.5t23.5 -124.5q0 -230 -145.5 -366t-396.5 -159q19 -51 19 -126q0 -192 -124 -296.5t-338 -104.5q-104 0 -167 24l58 218q80 -8 92 -8q78 0 132.5 45.5t73.5 114t4 141.5q-99 17 -185 55t-155.5 97t-110 146.5t-40.5 192.5 q0 16 2 48l360 63q-3 -20 -3 -39q0 -110 78.5 -175t190.5 -65q118 0 178 50t60 107q0 17 -5 33.5t-19 37.5t-45 40t-76 33l-133 41q-181 56 -289.5 174.5t-108.5 261.5q0 105 35.5 194t96.5 152t142 107.5t171.5 65.5t185.5 21q126 0 228.5 -30.5t168.5 -79.5t110.5 -113.5 t63.5 -129t19 -130.5l-377 -62q0 35 -11 69t-35 67t-70.5 53.5t-108.5 20.5q-54 0 -96.5 -16.5t-65 -41.5t-33.5 -50t-11 -48q0 -101 133 -141z" />
<glyph unicode="&#x15f;" horiz-adv-x="1099" d="M616 848q-50 0 -73.5 -25t-23.5 -48q0 -43 62 -63l108 -35q48 -16 86.5 -33.5t77.5 -45.5t65.5 -62.5t43 -84t16.5 -108.5q0 -128 -101.5 -230.5t-280.5 -129.5q19 -49 19 -127q0 -102 -35.5 -180t-99 -125.5t-145.5 -71.5t-181 -24q-103 0 -168 24l58 218q56 -8 92 -8 q99 0 158 69.5t59 169.5q0 29 -6 59q-75 13 -135 42t-96.5 63.5t-60.5 75.5t-33.5 77t-9.5 69v17l316 51q-2 -58 44.5 -95t110.5 -37q61 0 89.5 25t28.5 53q0 51 -82 78l-76 26q-50 17 -89 35t-78.5 45t-65.5 59t-42.5 77t-16.5 98q0 159 134 265.5t335 106.5 q88 0 163 -21.5t124.5 -56.5t85 -79.5t51.5 -89t16 -86.5v-7l-328 -37q0 53 -36.5 80t-79.5 27z" />
<glyph unicode="&#x160;" horiz-adv-x="1444" d="M895 2144l70 -207l180 207h324l-361 -387h-351l-162 387h300zM941 470q0 -57 -60 -107t-179 -50q-112 0 -190 65t-78 175q0 19 3 39l-360 -63q-2 -16 -2 -48q0 -100 37.5 -184.5t100 -142.5t146 -98.5t173.5 -59.5t183 -19q294 0 468 138.5t174 391.5q0 49 -14 99 t-46 102t-78.5 97.5t-116 85.5t-154.5 66l-137 42q-133 41 -133 141q0 23 11 48t33.5 50t65 41.5t96.5 16.5q62 0 108.5 -20.5t70.5 -53.5t35 -67t11 -69l377 62q0 66 -19 130.5t-63.5 129t-110.5 113.5t-168.5 79.5t-228.5 30.5q-95 0 -185.5 -21t-171.5 -65.5t-142 -107.5 t-96.5 -152t-35.5 -194q0 -143 108.5 -262t288.5 -174l134 -41q45 -14 76 -33t45 -40t19 -37.5t5 -33.5z" />
<glyph unicode="&#x161;" horiz-adv-x="1099" d="M614 1666l70 -207l180 207h324l-361 -387h-351l-162 387h300zM620 1118q109 0 196.5 -32.5t138.5 -83.5t77.5 -107.5t26.5 -109.5v-7l-327 -37q0 53 -36.5 80t-79.5 27q-50 0 -74 -25t-24 -48q0 -42 63 -63l108 -35q48 -16 86.5 -33.5t77.5 -45.5t65.5 -62.5t43 -84 t16.5 -108.5q0 -70 -32.5 -135t-92.5 -117.5t-155.5 -84t-211.5 -31.5q-107 0 -192.5 24t-136.5 60.5t-85 84t-47 89.5t-13 81v17l316 51q-2 -58 44.5 -95t110.5 -37q61 0 89.5 25t28.5 53q0 51 -82 78l-76 26q-50 17 -89 35t-78.5 45t-65.5 59t-42.5 77t-16.5 98 q0 159 134 265.5t335 106.5z" />
<glyph unicode="&#x162;" horiz-adv-x="1380" d="M1631 1604l-96 -368h-452l-329 -1236h-14q27 -48 27 -144q0 -192 -124 -296.5t-338 -104.5q-104 0 -167 24l57 218q83 -8 93 -8q80 0 135 47.5t73 118.5t0 145h-149l331 1236h-453l98 368h1308z" />
<glyph unicode="&#x163;" horiz-adv-x="962" d="M600 441q-7 -25 -7 -44q0 -90 120 -90q49 0 101 11l-81 -307q-74 -25 -173 -28q19 -51 19 -127q0 -192 -124 -296.5t-338 -104.5q-104 0 -167 24l58 218q41 -8 92 -8q61 0 108.5 28t72 73t33.5 101t-7 112q-7 31 -13 47q-107 83 -107 240q0 66 19 136l92 345h-205l86 322 h215l95 355h380l-95 -355h253l-86 -322h-253z" />
<glyph unicode="&#x164;" horiz-adv-x="1380" d="M991 2136l70 -207l180 207h324l-361 -387h-351l-162 387h300zM1631 1604h-1308l-98 -368h453l-331 -1236h407l329 1236h452z" />
<glyph unicode="&#x165;" horiz-adv-x="962" d="M939 1200l127 479h403l-238 -479h-292zM733 11q-86 -29 -211 -29q-150 0 -242.5 80.5t-92.5 227.5q0 66 19 136l92 345h-205l86 322h215l95 355h380l-95 -355h253l-86 -322h-253l-88 -330q-7 -25 -7 -44q0 -90 120 -90q49 0 101 11z" />
<glyph unicode="&#x166;" horiz-adv-x="1414" d="M1550 1236h-453l-114 -426h240l-73 -273h-240l-143 -537h-404l143 537h-240l73 273h240l114 426h-454l98 368h1311z" />
<glyph unicode="&#x167;" horiz-adv-x="968" d="M87 648h184l33 123h-205l86 322h215l95 355h380l-95 -355h253l-86 -322h-253l-33 -123h184l-57 -213h-184q-5 -22 -5 -38q0 -90 120 -90q49 0 101 11l-81 -307q-86 -29 -211 -29q-150 0 -242.5 80.5t-92.5 227.5q0 50 19 136l2 9h-184z" />
<glyph unicode="&#x168;" horiz-adv-x="1638" d="M1501 592q-56 -208 -149.5 -341t-243.5 -203.5t-361 -70.5q-150 0 -263.5 39.5t-181.5 108.5t-102.5 162.5t-34 200t31.5 223.5l238 893h409l-246 -922q-40 -151 12.5 -240.5t190.5 -89.5q226 0 307 300l254 952h410zM1320 1748q-49 0 -93.5 17.5t-72 38t-62 38 t-64.5 17.5q-21 0 -37.5 -10t-28 -28t-18 -33.5t-13.5 -36.5h-216l18 70q35 131 115.5 211t202.5 80q45 0 89 -17t72 -37t62.5 -37t63.5 -17q30 0 52 17t31 34.5t22 51.5h208l-19 -79q-30 -125 -112.5 -202.5t-199.5 -77.5z" />
<glyph unicode="&#x169;" horiz-adv-x="1336" d="M1028 1278q-49 0 -93.5 17.5t-72 38t-62 38t-64.5 17.5q-21 0 -37.5 -10t-28 -28t-18 -33.5t-13.5 -36.5h-216l18 70q33 131 114.5 211t203.5 80q45 0 89 -17t72 -37t62.5 -37t63.5 -17q30 0 52 17t31 34.5t22 51.5h208q-14 -59 -19 -79q-34 -126 -115 -203t-197 -77z M704 121q-146 -143 -314 -143q-154 0 -234 91t-80 232q0 79 32 201l158 591h389l-153 -576q-10 -37 -10 -67q0 -56 30.5 -86.5t86.5 -30.5q154 0 201 179l156 581h389l-238 -893q-27 -104 -27 -162q-2 -9 0 -38h-392v39q4 50 11 82h-5z" />
<glyph unicode="&#x16a;" horiz-adv-x="1638" d="M825 2056h790l-74 -279h-790zM1500 592q-84 -313 -262.5 -464t-491.5 -151q-150 0 -263.5 39.5t-181.5 108.5t-102.5 162.5t-34 200t31.5 223.5l238 893h409l-246 -922q-40 -151 12.5 -240.5t190.5 -89.5q226 0 307 300l254 952h410z" />
<glyph unicode="&#x16b;" horiz-adv-x="1336" d="M532 1566h790l-74 -279h-790zM704 121q-146 -143 -314 -143q-154 0 -234 91t-80 232q0 79 32 201l158 591h389l-153 -576q-10 -37 -10 -67q0 -56 30.5 -86.5t86.5 -30.5q154 0 201 179l156 581h389l-238 -893q-27 -104 -27 -162q-2 -9 0 -38h-392v39q4 50 11 82h-5z" />
<glyph unicode="&#x16e;" horiz-adv-x="1638" d="M1124 1734q-122 0 -201.5 77.5t-79.5 199.5q0 141 98 241t239 100q122 0 202.5 -78.5t80.5 -199.5q0 -142 -98.5 -241t-240.5 -99zM1167 2161q-55 0 -93.5 -39t-38.5 -95q0 -46 28.5 -74t74.5 -28q56 0 94.5 38.5t38.5 94.5q0 46 -29 74.5t-75 28.5zM1500 592 q-56 -208 -149.5 -341t-243.5 -203.5t-361 -70.5q-150 0 -263.5 39.5t-181.5 108.5t-102.5 162.5t-34 200t31.5 223.5l238 893h409l-246 -922q-40 -151 12.5 -240.5t190.5 -89.5q226 0 307 300l254 952h410z" />
<glyph unicode="&#x16f;" horiz-adv-x="1336" d="M885 1244q-122 0 -201.5 77.5t-79.5 199.5q0 141 98 241t239 100q122 0 202.5 -78.5t80.5 -199.5q0 -142 -98.5 -241t-240.5 -99zM928 1671q-55 0 -93.5 -39t-38.5 -95q0 -46 28.5 -74t74.5 -28q55 0 94 38.5t39 94.5q0 46 -29 74.5t-75 28.5zM704 121 q-146 -143 -314 -143q-154 0 -234 91t-80 232q0 79 32 201l158 591h389l-153 -576q-10 -37 -10 -67q0 -56 30.5 -86.5t86.5 -30.5q154 0 201 179l156 581h389l-238 -893q-27 -104 -27 -162q-2 -9 0 -38h-392v39q4 50 11 82h-5z" />
<glyph unicode="&#x170;" horiz-adv-x="1638" d="M696 1745l338 402h434l-458 -402h-314zM1222 1745l338 402h434l-458 -402h-314zM1500 592q-56 -208 -149.5 -341t-243.5 -203.5t-361 -70.5q-150 0 -263.5 39.5t-181.5 108.5t-102.5 162.5t-34 200t31.5 223.5l238 893h409l-246 -922q-40 -151 12.5 -240.5t190.5 -89.5 q226 0 307 300l254 952h410z" />
<glyph unicode="&#x171;" horiz-adv-x="1336" d="M432 1275l338 402h434l-458 -402h-314zM958 1275l338 402h434l-458 -402h-314zM704 121q-146 -143 -314 -143q-154 0 -234 91t-80 232q0 79 32 201l158 591h389l-153 -576q-10 -37 -10 -67q0 -56 30.5 -86.5t86.5 -30.5q154 0 201 179l156 581h389l-238 -893 q-27 -104 -27 -162q-2 -9 0 -38h-392v39q4 50 11 82h-5z" />
<glyph unicode="&#x172;" horiz-adv-x="1638" d="M1771 1604l-270 -1012q-69 -260 -203.5 -407.5t-355.5 -190.5q-51 -26 -103 -60t-101 -85t-49 -92q0 -39 37.5 -59.5t81.5 -20.5q12 0 34 2l-57 -214q-50 -9 -121 -9q-50 0 -98 11.5t-91.5 34.5t-70 64.5t-26.5 94.5q0 167 242 324q-120 16 -210 63t-143 115.5t-79 157 t-23 186.5t31 204l239 893h409l-246 -922q-40 -151 12 -240.5t191 -89.5q226 0 307 300l254 952h409z" />
<glyph unicode="&#x173;" horiz-adv-x="1336" d="M1356 1093l-239 -893q-22 -87 -27 -162v-38q-34 -16 -74.5 -40.5t-86 -58t-75.5 -72.5t-30 -72q0 -39 37.5 -59.5t81.5 -20.5q11 0 35 2l-57 -214q-50 -9 -122 -9q-50 0 -98 11.5t-91.5 34.5t-70 64.5t-26.5 94.5q0 178 266 339h-80v39q3 48 10 82h-4 q-146 -143 -315 -143q-104 0 -176.5 45t-105 116t-32.5 162q0 79 32 201l158 591h390l-154 -576q-9 -33 -9 -67q0 -56 30 -86.5t87 -30.5q80 0 129.5 48.5t71.5 130.5l155 581h390z" />
<glyph unicode="&#x174;" horiz-adv-x="2460" d="M1623 1748l-70 208l-180 -208h-324l361 388h351l162 -388h-300zM1365 1070l-576 -1070h-410l-92 1604h412l31 -1014h6l548 1014h390l77 -1017h5l515 1017h430l-853 -1604h-416l-65 1070h-2z" />
<glyph unicode="&#x175;" horiz-adv-x="1861" d="M1258 1278l-70 208l-180 -208h-324l361 388h351l162 -388h-300zM229 0l-57 1093h383l12 -587h2l349 587h316l39 -591h2l339 591h377l-640 -1093h-370l-32 586h-3l-348 -586h-369z" />
<glyph unicode="&#x176;" horiz-adv-x="1558" d="M1210 1748l-70 208l-180 -208h-324l361 388h351l162 -388h-300zM834 0h-406l168 635l-293 969h431l158 -589l473 589h478l-852 -1014z" />
<glyph unicode="&#x177;" horiz-adv-x="1281" d="M964 1278l-70 208l-180 -208h-324l361 388h351l162 -388h-300zM-26 -539l337 537l-144 1095h384l68 -648h2l385 648h411l-1037 -1632h-406z" />
<glyph unicode="&#x178;" horiz-adv-x="1558" d="M792 1772q-81 0 -132.5 50.5t-51.5 131.5q0 93 65.5 159.5t158.5 66.5q80 0 132.5 -51t52.5 -131q0 -94 -65.5 -160t-159.5 -66zM1344 1772q-81 0 -132.5 50.5t-51.5 131.5q0 93 65.5 159.5t158.5 66.5q80 0 132.5 -51t52.5 -131q0 -94 -65.5 -160t-159.5 -66zM834 0 h-406l168 635l-293 969h431l158 -589l473 589h478l-852 -1014z" />
<glyph unicode="&#x179;" horiz-adv-x="1425" d="M856 1745l338 402h434l-458 -402h-314zM1189 0h-1247l90 342l954 905h-678l97 357h1210l-90 -339l-955 -905h717z" />
<glyph unicode="&#x17a;" horiz-adv-x="1139" d="M588 1275l338 402h434l-458 -402h-314zM29 309l575 464h-435l84 320h943l-76 -288l-604 -486h479l-84 -319h-968z" />
<glyph unicode="&#x17b;" horiz-adv-x="1425" d="M1036 1751q-88 0 -145.5 56t-57.5 145q0 103 72 176.5t175 73.5q89 0 147 -56.5t58 -145.5q0 -104 -72.5 -176.5t-176.5 -72.5zM1189 0h-1247l90 342l954 905h-678l97 357h1210l-90 -339l-955 -905h717z" />
<glyph unicode="&#x17c;" horiz-adv-x="1139" d="M780 1241q-88 0 -145.5 56t-57.5 145q0 103 72 176.5t175 73.5q89 0 147 -56.5t58 -145.5q0 -104 -72.5 -176.5t-176.5 -72.5zM29 309l575 464h-435l84 320h943l-76 -288l-604 -486h479l-84 -319h-968z" />
<glyph unicode="&#x17d;" horiz-adv-x="1425" d="M1029 2134l70 -207l180 207h324l-361 -387h-351l-162 387h300zM1525 1265l90 339h-1210l-97 -357h678l-954 -905l-90 -342h1247l98 360h-717z" />
<glyph unicode="&#x17e;" horiz-adv-x="1139" d="M732 1666l70 -207l180 207h324l-361 -387h-351l-162 387h300zM995 319h-479l604 486l76 288h-943l-84 -320h435l-575 -464l-86 -309h968z" />
<glyph unicode="&#x192;" horiz-adv-x="1298" d="M757 374q-183 -399 -592 -399q-110 0 -207 29l84 314q37 -16 61.5 -21.5t74.5 -5.5q75 0 128.5 39.5t81.5 101.5l158 344h-193l81 317h256l54 118q183 399 590 399q116 0 206 -33l-84 -312q-81 28 -146 28q-66 0 -119.5 -40.5t-80.5 -100.5l-27 -59h241l-81 -317h-303z " />
<glyph unicode="&#x1b5;" horiz-adv-x="1428" d="M1289 360l-98 -360h-1247l87 335l383 362h-269l59 223h440l344 327h-678l97 357h1210l-88 -330l-375 -354h283l-60 -223h-452l-353 -337h717z" />
<glyph unicode="&#x1b6;" horiz-adv-x="1138" d="M113 613h292l203 172h-435l80 308h943l-68 -263l-259 -217h206l-35 -134h-325l-202 -171h479l-81 -308h-968l81 290l226 189h-172z" />
<glyph unicode="&#x1cd;" horiz-adv-x="1676" d="M1117 2144l70 -207l180 207h324l-361 -387h-351l-162 387h300zM1333 1604h-461l-1011 -1604h435l185 295h640l42 -295h418zM686 637l315 525l75 -525h-390z" />
<glyph unicode="&#x1ce;" d="M854 1666l70 -207l180 207h324l-361 -387h-351l-162 387h300zM786 118q-7 -32 -11 -82v-36h391v38q5 75 27 162l239 893h-390l-38 -139h-2q-115 161 -331 161q-122 0 -233.5 -56t-192 -149.5t-128.5 -221t-48 -264.5q0 -118 44 -218t136.5 -164t216.5 -64q172 0 316 140 h4zM651 321q-86 0 -136.5 47t-50.5 125q0 114 79 196.5t188 82.5q81 0 133 -48t52 -125q0 -115 -80 -196.5t-185 -81.5z" />
<glyph unicode="&#x1cf;" horiz-adv-x="744" d="M659 2136l70 -207l180 207h324l-361 -387h-351l-162 387h300zM863 1604h-405l-428 -1604h404z" />
<glyph unicode="&#x1d0;" horiz-adv-x="655" d="M431 1666l70 -207l180 207h324l-361 -387h-351l-162 387h300zM281 1093l-292 -1093h396l292 1093h-396z" />
<glyph unicode="&#x1d1;" horiz-adv-x="1868" d="M1104 2136l70 -207l180 207h324l-361 -387h-351l-162 387h300zM1104 1631q169 0 312 -55.5t241 -151.5t153 -227t55 -280q0 -194 -77 -369t-206 -300t-303.5 -198.5t-362.5 -73.5q-149 0 -285 47.5t-243 135.5t-171 226.5t-64 306.5q0 194 76.5 369t205 299.5 t303.5 197.5t366 73zM573 724q0 -173 107.5 -271t269.5 -98q134 0 249 75.5t180.5 197.5t65.5 256q0 158 -103 263.5t-275 105.5q-100 0 -192 -45t-158 -118t-105 -169.5t-39 -196.5z" />
<glyph unicode="&#x1d2;" horiz-adv-x="1340" d="M749 1666l70 -207l180 207h324l-361 -387h-351l-162 387h300zM619 -25q-252 0 -398 143t-146 366q0 122 50 237.5t135.5 203t208.5 140.5t261 53q127 0 231 -39t172.5 -107t105.5 -160.5t37 -200.5q0 -123 -49.5 -239t-135.5 -203.5t-209.5 -140.5t-262.5 -53zM640 321 q106 0 180.5 80t74.5 190q0 82 -51.5 131.5t-133.5 49.5q-109 0 -182 -81t-73 -189q0 -78 48 -129.5t137 -51.5z" />
<glyph unicode="&#x1d3;" horiz-adv-x="1638" d="M1108 2136l70 -207l180 207h324l-361 -387h-351l-162 387h300zM1501 592q-56 -208 -149.5 -341t-243.5 -203.5t-361 -70.5q-150 0 -263.5 39.5t-181.5 108.5t-102.5 162.5t-34 200t31.5 223.5l238 893h409l-246 -922q-40 -151 12.5 -240.5t190.5 -89.5q226 0 307 300 l254 952h410z" />
<glyph unicode="&#x1d4;" horiz-adv-x="1336" d="M829 1666l70 -207l180 207h324l-361 -387h-351l-162 387h300zM704 121q-146 -143 -314 -143q-154 0 -234 91t-80 232q0 79 32 201l158 591h389l-153 -576q-10 -37 -10 -67q0 -56 30.5 -86.5t86.5 -30.5q154 0 201 179l156 581h389l-238 -893q-27 -104 -27 -162 q-2 -9 0 -38h-392v39q4 50 11 82h-5z" />
<glyph unicode="&#x1d5;" horiz-adv-x="1638" d="M1500 592q-56 -208 -149.5 -341t-243.5 -203.5t-361 -70.5q-150 0 -263.5 39.5t-181.5 108.5t-102.5 162.5t-34 200t31.5 223.5l238 893h409l-246 -922q-40 -151 12.5 -240.5t190.5 -89.5q226 0 307 300l254 952h410zM936 2443h788l-73 -278h-791zM883 1681 q-79 0 -131 50.5t-52 130.5q0 94 65.5 160.5t158.5 66.5q80 0 132 -51.5t52 -130.5q0 -95 -65 -160.5t-160 -65.5zM1436 1681q-80 0 -131.5 50.5t-51.5 130.5q0 94 64.5 160.5t159.5 66.5q80 0 132 -51.5t52 -130.5q0 -95 -65 -160.5t-160 -65.5z" />
<glyph unicode="&#x1d6;" horiz-adv-x="1336" d="M704 121q-146 -143 -314 -143q-154 0 -234 91t-80 232q0 79 32 201l158 591h389l-153 -576q-10 -37 -10 -67q0 -56 30.5 -86.5t86.5 -30.5q154 0 201 179l156 581h389l-238 -893q-27 -104 -27 -162q-2 -9 0 -38h-392v39q4 50 11 82h-5zM655 1974h791l-74 -278h-790z M598 1192q-80 0 -132 50.5t-52 129.5q0 94 65.5 160.5t159.5 66.5q79 0 131.5 -50.5t52.5 -131.5q0 -94 -65 -159.5t-160 -65.5zM1130 1192q-80 0 -132 50.5t-52 129.5q0 94 65 160.5t158 66.5q82 0 134.5 -50.5t52.5 -131.5q0 -94 -66 -159.5t-160 -65.5z" />
<glyph unicode="&#x1d7;" horiz-adv-x="1638" d="M1500 592q-56 -208 -149.5 -341t-243.5 -203.5t-361 -70.5q-150 0 -263.5 39.5t-181.5 108.5t-102.5 162.5t-34 200t31.5 223.5l238 893h409l-246 -922q-40 -151 12.5 -240.5t190.5 -89.5q226 0 307 300l254 952h410zM1044 2124l314 373h426l-426 -373h-314zM883 1681 q-79 0 -131 50.5t-52 130.5q0 94 65.5 160.5t158.5 66.5q80 0 132 -51.5t52 -130.5q0 -95 -65 -160.5t-160 -65.5zM1436 1681q-80 0 -131.5 50.5t-51.5 130.5q0 94 64.5 160.5t159.5 66.5q80 0 132 -51.5t52 -130.5q0 -95 -65 -160.5t-160 -65.5z" />
<glyph unicode="&#x1d8;" horiz-adv-x="1336" d="M704 121q-146 -143 -314 -143q-154 0 -234 91t-80 232q0 79 32 201l158 591h389l-153 -576q-10 -37 -10 -67q0 -56 30.5 -86.5t86.5 -30.5q154 0 201 179l156 581h389l-238 -893q-27 -104 -27 -162q-2 -9 0 -38h-392v39q4 50 11 82h-5zM762 1657l338 401h434l-459 -401 h-313zM598 1192q-80 0 -132 50.5t-52 129.5q0 94 65.5 160.5t159.5 66.5q79 0 131.5 -50.5t52.5 -131.5q0 -94 -65 -159.5t-160 -65.5zM1130 1192q-80 0 -132 50.5t-52 129.5q0 94 65 160.5t158 66.5q82 0 134.5 -50.5t52.5 -131.5q0 -94 -66 -159.5t-160 -65.5z" />
<glyph unicode="&#x1d9;" horiz-adv-x="1638" d="M1500 592q-56 -208 -149.5 -341t-243.5 -203.5t-361 -70.5q-150 0 -263.5 39.5t-181.5 108.5t-102.5 162.5t-34 200t31.5 223.5l238 893h409l-246 -922q-40 -151 12.5 -240.5t190.5 -89.5q226 0 307 300l254 952h410zM1200 2497l72 -173l153 173h310l-328 -332h-336 l-158 332h287zM883 1681q-79 0 -131 50.5t-52 130.5q0 94 65.5 160.5t158.5 66.5q80 0 132 -51.5t52 -130.5q0 -95 -65 -160.5t-160 -65.5zM1436 1681q-80 0 -131.5 50.5t-51.5 130.5q0 94 64.5 160.5t159.5 66.5q80 0 132 -51.5t52 -130.5q0 -95 -65 -160.5t-160 -65.5z " />
<glyph unicode="&#x1da;" horiz-adv-x="1336" d="M704 121q-146 -143 -314 -143q-154 0 -234 91t-80 232q0 79 32 201l158 591h389l-153 -576q-10 -37 -10 -67q0 -56 30.5 -86.5t86.5 -30.5q154 0 201 179l156 581h389l-238 -893q-27 -104 -27 -162q-2 -9 0 -38h-392q-2 25 0 39q0 34 11 82h-5zM911 2044l72 -207l178 207 h326l-363 -387h-350l-162 387h299zM598 1192q-80 0 -132 50.5t-52 129.5q0 94 65.5 160.5t159.5 66.5q79 0 131.5 -50.5t52.5 -131.5q0 -94 -65 -159.5t-160 -65.5zM1130 1192q-80 0 -132 50.5t-52 129.5q0 94 65 160.5t158 66.5q82 0 134.5 -50.5t52.5 -131.5 q0 -94 -66 -159.5t-160 -65.5z" />
<glyph unicode="&#x1db;" horiz-adv-x="1638" d="M1500 592q-56 -208 -149.5 -341t-243.5 -203.5t-361 -70.5q-150 0 -263.5 39.5t-181.5 108.5t-102.5 162.5t-34 200t31.5 223.5l238 893h409l-246 -922q-40 -151 12.5 -240.5t190.5 -89.5q226 0 307 300l254 952h410zM1190 2499l164 -375h-275l-284 375h395zM883 1681 q-79 0 -131 50.5t-52 130.5q0 94 65.5 160.5t158.5 66.5q80 0 132 -51.5t52 -130.5q0 -95 -65 -160.5t-160 -65.5zM1436 1681q-80 0 -131.5 50.5t-51.5 130.5q0 94 64.5 160.5t159.5 66.5q80 0 132 -51.5t52 -130.5q0 -95 -65 -160.5t-160 -65.5z" />
<glyph unicode="&#x1dc;" horiz-adv-x="1336" d="M704 121q-146 -143 -314 -143q-154 0 -234 91t-80 232q0 79 32 201l158 591h389l-153 -576q-10 -37 -10 -67q0 -56 30.5 -86.5t86.5 -30.5q154 0 201 179l156 581h389l-238 -893q-27 -104 -27 -162q-2 -9 0 -38h-392v39q4 50 11 82h-5zM899 2058l176 -401h-274l-305 401 h403zM598 1192q-80 0 -132 50.5t-52 129.5q0 94 65.5 160.5t159.5 66.5q79 0 131.5 -50.5t52.5 -131.5q0 -94 -65 -159.5t-160 -65.5zM1130 1192q-80 0 -132 50.5t-52 129.5q0 94 65 160.5t158 66.5q82 0 134.5 -50.5t52.5 -131.5q0 -94 -66 -159.5t-160 -65.5z" />
<glyph unicode="&#x1e6;" horiz-adv-x="1789" d="M1115 2136l70 -207l180 207h324l-361 -387h-351l-162 387h300zM1797 1145q-12 66 -42 130t-87 129.5t-132.5 114t-187.5 79.5t-244 31q-191 0 -365.5 -71.5t-303 -194.5t-205 -298t-76.5 -372q0 -209 95.5 -373t268.5 -255t396 -91q169 0 312.5 49.5t246 135.5t175.5 201 t110.5 245.5t42.5 270.5h-850l-76 -317h462q-50 -98 -151.5 -157t-233.5 -59q-185 0 -287.5 108t-102.5 272q0 134 67.5 258t183.5 201.5t248 77.5q146 0 232.5 -69.5t108.5 -164.5z" />
<glyph unicode="&#x1e7;" horiz-adv-x="1404" d="M835 1666l70 -207l180 207h324l-361 -387h-351l-162 387h300zM466 -218q107 0 181 72.5t109 200.5l23 85h-1q-80 -59 -147.5 -89t-160.5 -30q-108 0 -199.5 56.5t-144.5 153.5t-53 211q0 132 47 255.5t126 213.5t188 144.5t227 54.5q221 0 337 -164h2l40 147h386 l-278 -1042q-43 -160 -85 -239q-94 -173 -244 -266t-351 -93q-115 0 -211.5 27.5t-161.5 73.5t-110 107t-65.5 125.5t-20.5 130.5l352 69q0 -89 57.5 -146.5t157.5 -57.5zM647 342q101 0 178 78.5t77 187.5q0 74 -50 120.5t-129 46.5q-105 0 -180 -79.5t-75 -188.5 q0 -75 48.5 -120t130.5 -45z" />
<glyph unicode="&#x1e8;" horiz-adv-x="1563" d="M1065 2136l70 -207l180 207h324l-361 -387h-351l-162 387h300zM1046 791l801 813h-516l-645 -680h-2l182 680h-408l-428 -1604h408l204 766l343 -766h452z" />
<glyph unicode="&#x1e9;" horiz-adv-x="1307" d="M-11 0l446 1669h389l-273 -1023h6l412 447h484l-528 -542l243 -551h-423l-223 538l-143 -538h-390zM1417 1279l361 387h-324l-180 -207l-70 207h-300l162 -387h351z" />
<glyph unicode="&#x1f4;" horiz-adv-x="1789" d="M963 1745l338 402h434l-458 -402h-314zM1402 1026q-22 95 -108.5 164.5t-232.5 69.5q-132 0 -248 -77.5t-183.5 -201.5t-67.5 -258q0 -164 102.5 -272t287.5 -108q132 0 233.5 59t151.5 157h-462l76 317h850q-5 -140 -42.5 -270.5t-110.5 -245.5t-175.5 -201t-246 -135.5 t-312.5 -49.5q-223 0 -396 91t-268.5 255t-95.5 373q0 197 76.5 372t205 298t303 194.5t365.5 71.5q132 0 244 -31t187.5 -79.5t132.5 -114t87 -129.5t42 -130z" />
<glyph unicode="&#x1f5;" horiz-adv-x="1404" d="M575 1275l338 402h434l-458 -402h-314zM466 -218q-100 0 -157.5 57.5t-57.5 146.5l-352 -69q0 -66 20.5 -130.5t65.5 -125.5t110 -107t161.5 -73.5t211.5 -27.5q201 0 351 93t244 266q42 79 85 239l278 1042h-386l-40 -147h-2q-116 164 -337 164q-118 0 -227 -54.5 t-188 -144.5t-126 -213.5t-47 -255.5q0 -114 53 -211t144.5 -153.5t199.5 -56.5q93 0 160.5 30t147.5 89h1l-23 -85q-35 -128 -109 -200.5t-181 -72.5zM647 342q-82 0 -130.5 45t-48.5 120q0 109 75 188.5t180 79.5q79 0 129 -46.5t50 -120.5q0 -109 -77 -187.5t-178 -78.5z " />
<glyph unicode="&#x1fa;" horiz-adv-x="1676" d="M1417 1793q7 -29 7 -67q0 -121 -77 -216l234 -1510h-418l-42 295h-640l-185 -295h-435l970 1538q-27 56 -27 125q0 141 98 241t239 100q67 0 124 -26l199 238h434zM1127 1813q-55 0 -93 -39t-38 -95q0 -46 28.5 -74t74.5 -28q56 0 94.5 39t38.5 95q0 45 -29.5 73.5 t-75.5 28.5zM686 637h390l-75 525z" />
<glyph unicode="&#x1fb;" d="M1218 1650q7 -29 7 -66q0 -142 -98.5 -241t-240.5 -99q-122 0 -201.5 77.5t-79.5 199.5q0 141 98 241t239 100q68 0 125 -26l200 238h434zM929 1671q-55 0 -93.5 -39t-38.5 -95q0 -46 28.5 -74t74.5 -28q56 0 94.5 38.5t38.5 94.5q0 46 -29 74.5t-75 28.5zM782 118 q-144 -140 -316 -140q-124 0 -216.5 64t-136.5 164t-44 218q0 137 48 264.5t128.5 221t192 149.5t233.5 56q216 0 331 -161h2l38 139h390l-239 -893q-22 -87 -27 -162v-38h-391v36q4 50 11 82h-4zM651 321q105 0 185 81.5t80 196.5q0 77 -52 125t-133 48q-109 0 -188 -82.5 t-79 -196.5q0 -78 50.5 -125t136.5 -47z" />
<glyph unicode="&#x1fc;" horiz-adv-x="2238" d="M1327 1745l338 402h434l-458 -402h-314zM309 0h-463l1173 1604h1390l-95 -359h-710l-70 -262h644l-92 -346h-644l-75 -276h716l-96 -361h-1107l68 254h-457zM1195 1256l-467 -660h312l176 660h-21z" />
<glyph unicode="&#x1fd;" horiz-adv-x="1933" d="M944 1275l338 402h434l-458 -402h-314zM725 1119q90 0 175.5 -26.5t145.5 -78.5q163 104 333 104q131 0 242.5 -51.5t183 -155.5t71.5 -241q0 -108 -45 -221h-751q0 -78 62.5 -124t134.5 -46q68 0 128 27t91 84l302 -138q-34 -63 -84.5 -112.5t-105 -79.5t-117 -49.5 t-116.5 -27t-108 -7.5q-138 0 -252 47.5t-189 135.5q-103 -105 -210.5 -144.5t-261.5 -39.5h-8q-133 0 -229 79t-96 213q0 73 28.5 132.5t73 97.5t103.5 65.5t115.5 40.5t114.5 17l226 17q44 3 77 30.5t33 68.5q0 44 -37 66t-84 22q-73 0 -125 -39t-72 -99l-331 105 q19 51 53 97.5t86 89t116 73.5t148.5 49.5t178.5 18.5zM1362 821q-72 0 -142.5 -42.5t-99.5 -113.5h389q8 19 8 33q0 61 -43 92t-112 31zM507 249q73 0 128.5 41.5t69.5 113.5l8 42l-137 -14q-31 -3 -54 -8t-49 -15.5t-40 -31t-14 -48.5q0 -33 25 -56.5t63 -23.5z" />
<glyph unicode="&#x1fe;" horiz-adv-x="1867" d="M963 1745l338 402h434l-458 -402h-314zM915 -24q151 0 294.5 46.5t261 133.5t206.5 202t138.5 260t49.5 300q0 230 -126 409l187 180l-168 175l-191 -184q-195 133 -462 133q-191 0 -366.5 -73t-304 -197.5t-205 -299.5t-76.5 -370q0 -237 125 -413l-186 -180l168 -174 l195 186q199 -134 460 -134zM753 387l675 650q27 -69 27 -151q0 -103 -40 -202t-107 -174t-161.5 -121.5t-197.5 -46.5q-111 0 -196 45zM1069 1266q113 0 202 -49l-681 -650q-27 71 -27 155q0 103 40 202t107.5 174t162 121.5t196.5 46.5z" />
<glyph unicode="&#x1ff;" horiz-adv-x="1339" d="M611 1275l338 402h434l-458 -402h-314zM619 -23q139 0 263 53t209.5 140.5t135 201.5t49.5 235q0 176 -90 304l146 138l-108 114l-150 -141q-138 96 -342 96q-138 0 -261.5 -53t-209 -140.5t-135.5 -202t-50 -235.5q0 -179 91 -306l-144 -137l107 -114l151 143 q137 -96 338 -96zM547 323l355 335q9 -29 9 -64q0 -116 -80 -202t-192 -86q-52 0 -92 17zM713 787q54 0 93 -19l-356 -335q-9 31 -9 66q0 113 78 200.5t194 87.5z" />
<glyph unicode="&#x218;" horiz-adv-x="1444" d="M941 470q0 17 -5 33.5t-19 37.5t-45 40t-76 33l-134 41q-180 55 -288.5 174t-108.5 262q0 105 35.5 194t96.5 152t142 107.5t171.5 65.5t185.5 21q126 0 228.5 -30.5t168.5 -79.5t110.5 -113.5t63.5 -129t19 -130.5l-377 -62q0 35 -11 69t-35 67t-70.5 53.5t-108.5 20.5 q-54 0 -96.5 -16.5t-65 -41.5t-33.5 -50t-11 -48q0 -100 133 -141l137 -42q85 -26 154.5 -66t116 -85.5t78.5 -97.5t46 -102t14 -99q0 -253 -174 -391.5t-468 -138.5q-93 0 -183 19t-173.5 59.5t-146 98.5t-100 142.5t-37.5 184.5q0 32 2 48l360 63q-3 -20 -3 -39 q0 -110 78 -175t190 -65q119 0 179 50t60 107zM348 -678q33 0 69.5 8.5t76.5 26.5t73 53t50 82q-32 -20 -78 -20q-73 0 -118.5 46t-45.5 120q0 82 62.5 137t146.5 55q99 0 151 -61.5t52 -161.5q0 -117 -58.5 -205.5t-152.5 -140.5q-125 -73 -260 -66z" />
<glyph unicode="&#x219;" horiz-adv-x="1099" d="M620 1118q109 0 196.5 -32.5t138.5 -83.5t77.5 -107.5t26.5 -109.5v-7l-327 -37q0 53 -36.5 80t-79.5 27q-50 0 -74 -25t-24 -48q0 -42 63 -63l108 -35q48 -16 86.5 -33.5t77.5 -45.5t65.5 -62.5t43 -84t16.5 -108.5q0 -70 -32.5 -135t-92.5 -117.5t-155.5 -84 t-211.5 -31.5q-107 0 -192.5 24t-136.5 60.5t-85 84t-47 89.5t-13 81v17l316 51q-2 -58 44.5 -95t110.5 -37q61 0 89.5 25t28.5 53q0 51 -82 78l-76 26q-50 17 -89 35t-78.5 45t-65.5 59t-42.5 77t-16.5 98q0 159 134 265.5t335 106.5zM123 -678q33 0 69.5 8.5t76.5 26.5 t73 53t50 82q-32 -20 -78 -20q-73 0 -118.5 46t-45.5 120q0 82 62.5 137t146.5 55q99 0 151 -61.5t52 -161.5q0 -117 -58.5 -205.5t-152.5 -140.5q-125 -73 -260 -66z" />
<glyph unicode="&#x21a;" horiz-adv-x="1380" d="M754 0h-407l331 1236h-453l98 368h1308l-96 -368h-452zM199 -678q33 0 69.5 8.5t76.5 26.5t73 53t50 82q-32 -20 -78 -20q-73 0 -118.5 46t-45.5 120q0 82 62.5 137t146.5 55q99 0 151 -61.5t52 -161.5q0 -117 -58.5 -205.5t-152.5 -140.5q-125 -73 -260 -66z" />
<glyph unicode="&#x21b;" horiz-adv-x="962" d="M733 11q-86 -29 -211 -29q-150 0 -242.5 80.5t-92.5 227.5q0 66 19 136l92 345h-205l86 322h215l95 355h380l-95 -355h253l-86 -322h-253l-88 -330q-7 -25 -7 -44q0 -90 120 -90q49 0 101 11zM46 -678q33 0 69.5 8.5t76.5 26.5t73 53t50 82q-32 -20 -78 -20 q-73 0 -118.5 46t-45.5 120q0 82 62.5 137t146.5 55q99 0 151 -61.5t52 -161.5q0 -117 -58.5 -205.5t-152.5 -140.5q-125 -73 -260 -66z" />
<glyph unicode="&#x237;" horiz-adv-x="668" d="M690 1093l-327 -1227q-54 -203 -177.5 -304.5t-330.5 -101.5q-45 0 -116 16t-107 41l77 292q46 -24 99 -24q140 0 175 130l314 1178h393z" />
<glyph unicode="&#x300;" horiz-adv-x="0" d="M114 1677l176 -402h-274l-306 402h404z" />
<glyph unicode="&#x301;" horiz-adv-x="0" d="M-386 1275l338 402h434l-458 -402h-314z" />
<glyph unicode="&#x302;" horiz-adv-x="0" d="M137 1278l-70 208l-180 -208h-324l361 388h351l162 -388h-300z" />
<glyph unicode="&#x303;" horiz-adv-x="0" d="M137 1278q-49 0 -93.5 17.5t-72 38t-62 38t-64.5 17.5q-21 0 -37.5 -10t-28 -28t-18 -33.5t-13.5 -36.5h-216l18 70q33 131 114.5 211t203.5 80q45 0 89 -17t72 -37t62.5 -37t63.5 -17q30 0 52 17t31 34.5t22 51.5h208q-14 -59 -19 -79q-34 -126 -115 -203t-197 -77z" />
<glyph unicode="&#x304;" horiz-adv-x="0" d="M-358 1566h790l-74 -279h-790z" />
<glyph unicode="&#x306;" horiz-adv-x="0" d="M425 1664q-53 -175 -178 -285t-300 -110q-156 0 -264 94.5t-108 248.5q0 26 3 52h262q-5 -67 29 -111.5t101 -44.5t113.5 44t70.5 112h271z" />
<glyph unicode="&#x307;" horiz-adv-x="0" d="M-23 1241q-88 0 -145.5 56t-57.5 145q0 103 72 176.5t175 73.5q89 0 147 -56.5t58 -145.5q0 -104 -72.5 -176.5t-176.5 -72.5z" />
<glyph unicode="&#x308;" horiz-adv-x="0" d="M-53 1262q-80 0 -132 50.5t-52 130.5q0 94 65.5 160.5t158.5 66.5q80 0 132.5 -51t52.5 -131q0 -95 -65.5 -160.5t-159.5 -65.5zM479 1262q-80 0 -131.5 50.5t-51.5 130.5q0 94 65 160.5t158 66.5q81 0 133.5 -51t52.5 -131q0 -94 -65.5 -160t-160.5 -66z" />
<glyph unicode="&#x30a;" horiz-adv-x="0" d="M-29 1244q-122 0 -201.5 77.5t-79.5 199.5q0 141 98 241t239 100q122 0 202.5 -78.5t80.5 -199.5q0 -142 -98.5 -241t-240.5 -99zM14 1671q-55 0 -93.5 -39t-38.5 -95q0 -46 28.5 -74t74.5 -28q55 0 94 38.5t39 94.5q0 46 -29 74.5t-75 28.5z" />
<glyph unicode="&#x30b;" horiz-adv-x="0" d="M-649 1275l338 402h434l-458 -402h-314zM-123 1275l338 402h434l-458 -402h-314z" />
<glyph unicode="&#x30c;" horiz-adv-x="0" d="M-137 1666l70 -207l180 207h324l-361 -387h-351l-162 387h300z" />
<glyph unicode="&#x312;" horiz-adv-x="0" d="M236 1772q-46 0 -95 -13.5t-101 -54t-75 -102.5q42 20 80 20q74 0 118 -46t44 -120q0 -84 -61.5 -139t-145.5 -55q-99 0 -151 62.5t-52 162.5q0 116 58 204t151 142q132 75 260 63z" />
<glyph unicode="&#x326;" horiz-adv-x="0" d="M-236 -678q33 0 69.5 8.5t76.5 26.5t73 53t50 82q-32 -20 -78 -20q-73 0 -118.5 46t-45.5 120q0 82 62.5 137t146.5 55q99 0 151 -61.5t52 -161.5q0 -117 -58.5 -205.5t-152.5 -140.5q-125 -73 -260 -66z" />
<glyph unicode="&#x327;" horiz-adv-x="0" d="M287 0q27 -49 27 -144q0 -102 -35.5 -180t-99 -125.5t-145.5 -71.5t-181 -24q-103 0 -167 24l57 218q56 -8 93 -8q98 0 157 69.5t59 169.5q0 38 -9 72h244z" />
<glyph unicode="&#x328;" horiz-adv-x="0" d="M23 -243q0 -39 37.5 -59.5t81.5 -20.5q12 0 34 2l-57 -214q-50 -9 -121 -9q-50 0 -98 11.5t-91.5 34.5t-70 64.5t-26.5 94.5q0 97 75 183t190 156h311q-34 -16 -74 -40.5t-85.5 -58t-75.5 -72.5t-30 -72z" />
<glyph unicode="&#x398;" horiz-adv-x="1868" d="M1104 1631q169 0 312 -55.5t241 -151.5t153 -227t55 -280q0 -194 -77 -369t-206 -300t-303.5 -198.5t-362.5 -73.5q-149 0 -285 47.5t-243 135.5t-171 226.5t-64 306.5q0 194 76.5 369t205 299.5t303.5 197.5t366 73zM573 724q0 -173 107.5 -271t269.5 -98 q134 0 249 75.5t180.5 197.5t65.5 256q0 158 -103 263.5t-275 105.5q-100 0 -192 -45t-158 -118t-105 -169.5t-39 -196.5zM786 967h533l-83 -316h-533z" />
<glyph unicode="&#x3a9;" horiz-adv-x="1869" d="M1592 0h-728l117 440q192 27 321 167.5t129 332.5q0 139 -106.5 227t-248.5 88q-99 0 -187 -43t-149.5 -113t-97 -162t-35.5 -189q0 -111 60.5 -195t167.5 -106l-120 -447h-726l96 357h278q-80 77 -126 184t-46 219q0 180 79 343t208 277.5t298.5 182t346.5 67.5 q136 0 267 -44.5t236 -124t169.5 -201t64.5 -263.5q0 -196 -117.5 -366t-298.5 -274h243z" />
<glyph unicode="&#x3b8;" horiz-adv-x="1545" d="M703 -24q-115 0 -209.5 35t-159.5 95.5t-109.5 144t-65 178t-20.5 199.5q0 123 26 247.5t74 241.5t122.5 218.5t166 177t210 119t249.5 43.5q114 0 208.5 -36.5t159.5 -99t110 -146.5t65.5 -177t20.5 -194q0 -146 -35.5 -293.5t-108 -283t-172 -240t-237.5 -167 t-295 -62.5zM583 990h590v24q0 147 -53 228t-177 81q-125 0 -220.5 -95t-139.5 -238zM1111 675h-593q0 -7 -0.5 -20t-0.5 -19q0 -73 10.5 -126.5t35.5 -95.5t70 -63.5t109 -21.5q127 0 224.5 99t144.5 247z" />
<glyph unicode="&#x3c0;" horiz-adv-x="1606" d="M1244 439q-7 -24 -7 -44q0 -88 120 -88q51 0 98 10l-81 -306q-83 -29 -207 -29q-149 0 -237.5 80t-88.5 228q0 66 19 137l93 344h-236l-206 -771h-383l206 771h-220l86 322h1461l-86 -322h-243z" />
<glyph unicode="&#x401;" horiz-adv-x="1404" d="M808 1772q-81 0 -132.5 50.5t-51.5 131.5q0 93 65.5 159.5t158.5 66.5q80 0 132.5 -51t52.5 -131q0 -94 -65.5 -160t-159.5 -66zM1360 1772q-81 0 -132.5 50.5t-51.5 131.5q0 93 65.5 159.5t158.5 66.5q80 0 132.5 -51t52.5 -131q0 -94 -65.5 -160t-159.5 -66zM457 1604 h1118l-96 -359h-714l-71 -262h651l-93 -346h-650l-74 -276h721l-96 -361h-1124z" />
<glyph unicode="&#x402;" horiz-adv-x="1780" d="M1579 1236h-580l-80 -298q192 92 389 92q124 0 218 -63.5t142 -166t48 -226.5q0 -151 -47.5 -283.5t-133.5 -230t-213 -154t-279 -56.5q-127 0 -231 32l93 350q19 -2 62 -2q66 0 120 12.5t98.5 40t69.5 78t25 119.5q0 80 -58 125.5t-140 45.5q-133 0 -256 -64l-157 -587 h-404l330 1236h-367l98 368h1351z" />
<glyph unicode="&#x403;" horiz-adv-x="1276" d="M796 1745l338 402h434l-458 -402h-314zM434 0h-405l429 1604h1069l-99 -371h-664z" />
<glyph unicode="&#x404;" horiz-adv-x="1775" d="M954 349q72 0 136.5 20t111 50.5t86 71.5t63.5 78t41 75l354 -137q-23 -59 -59 -117t-87.5 -119t-121.5 -113t-153 -93.5t-190 -65t-225 -23.5q-158 0 -297.5 53t-241.5 147t-161 229.5t-59 292.5q0 186 76 358t203.5 298t303.5 201.5t367 75.5q145 0 265 -34t199 -88.5 t137 -128.5t87.5 -146.5t42.5 -150.5l-386 -121q-12 56 -36.5 103.5t-68 93.5t-116.5 73t-168 27q-143 0 -262 -78t-179 -207h586l-88 -328h-542q23 -137 123 -217t259 -80z" />
<glyph unicode="&#x405;" horiz-adv-x="1449" d="M942 470q0 17 -5 33.5t-19 37.5t-45 40t-76 33l-134 41q-180 55 -288.5 174t-108.5 262q0 105 35.5 194t96.5 152t142 107.5t171.5 65.5t185.5 21q126 0 228.5 -30.5t168.5 -79.5t110.5 -113.5t63.5 -129t19 -130.5l-377 -62q0 35 -11 69t-35 67t-70.5 53.5t-108.5 20.5 q-54 0 -96.5 -16.5t-65 -41.5t-33.5 -50t-11 -48q0 -100 133 -141l137 -42q85 -26 154.5 -66t116 -85.5t78.5 -97.5t46 -102t14 -99q0 -253 -174 -391.5t-468 -138.5q-93 0 -183 19t-173.5 59.5t-146 98.5t-100 142.5t-37.5 184.5q0 32 2 48l360 63q-3 -20 -3 -39 q0 -110 78 -175t190 -65q119 0 179 50t60 107z" />
<glyph unicode="&#x406;" horiz-adv-x="742" d="M457 1604h405l-429 -1604h-404z" />
<glyph unicode="&#x407;" horiz-adv-x="742" d="M462 1772q-81 0 -132.5 50.5t-51.5 131.5q0 93 65.5 159.5t158.5 66.5q80 0 132.5 -51t52.5 -131q0 -94 -65.5 -160t-159.5 -66zM1006 1772q-81 0 -132.5 50.5t-51.5 131.5q0 93 65.5 159.5t158.5 66.5q80 0 132.5 -51t52.5 -131q0 -94 -65.5 -160t-159.5 -66zM457 1604 h405l-429 -1604h-404z" />
<glyph unicode="&#x408;" horiz-adv-x="1318" d="M526 -23q-98 0 -185.5 28t-156.5 81t-110 137.5t-41 189.5q0 21 2.5 45.5t5 41.5t10.5 50t11 45t14.5 54t14.5 52l389 25q-4 -18 -18 -71.5t-23 -96t-9 -70.5q0 -69 35.5 -101.5t97.5 -32.5q69 0 119 45t69 117l290 1088h411l-299 -1114q-66 -247 -221.5 -380 t-405.5 -133z" />
<glyph unicode="&#x409;" horiz-adv-x="2605" d="M997 1246l-215 -612q-42 -118 -87 -209.5t-109 -176t-141 -139t-181.5 -86.5t-230.5 -32q-75 0 -121 15l90 347h13q69 0 126.5 24t99 62.5t80.5 103.5t65.5 127.5t59.5 154.5l279 779h1205l-151 -565h233q160 0 285.5 -51.5t197 -150.5t71.5 -229q0 -146 -55 -262 t-152.5 -191.5t-229 -115t-286.5 -39.5h-746l333 1246h-433zM1688 697l-91 -341h289q116 0 190 49.5t74 149.5q0 66 -50 104t-131 38h-281z" />
<glyph unicode="&#x40a;" horiz-adv-x="2530" d="M1861 1604l-157 -588h245q248 0 394 -120t146 -303q0 -146 -57 -261.5t-155.5 -186.5t-224.5 -108t-271 -37h-754l178 667h-593l-178 -667h-405l428 1604h405l-157 -588h593l157 588h406zM1614 681l-86 -325h297q253 0 253 190q0 67 -46 101t-126 34h-292z" />
<glyph unicode="&#x40b;" horiz-adv-x="1779" d="M1166 0l101 378q18 68 18 116q0 157 -185 157q-162 0 -274 -64l-157 -587h-404l331 1236h-368l98 368h1351l-98 -368h-580l-80 -298q194 92 389 92q87 0 162.5 -22.5t134 -66t92 -114t33.5 -160.5q0 -65 -20 -142l-140 -525h-404z" />
<glyph unicode="&#x40c;" horiz-adv-x="1563" d="M940 1745l338 402h434l-458 -402h-314zM641 766l-204 -766h-408l428 1604h408l-182 -680h2l645 680h516l-801 -813l391 -791h-452z" />
<glyph unicode="&#x40e;" horiz-adv-x="1514" d="M919 2175q8 -82 56 -132.5t128 -50.5q82 0 148.5 52.5t91.5 132.5l211 -40q-54 -170 -178.5 -277t-295.5 -107q-160 0 -265.5 99t-105.5 258q0 17 1 26zM1002 497q-65 -88 -119 -152.5t-131.5 -138.5t-151 -121t-167.5 -78.5t-192 -31.5q-120 0 -253 46l95 351 q93 -36 179 -36q168 0 316 176l-306 1092h434l165 -685l496 685h456z" />
<glyph unicode="&#x40f;" horiz-adv-x="1719" d="M1410 0h-496l-90 -336h-388l90 336h-497l428 1604h405l-329 -1233h571l330 1233h405z" />
<glyph unicode="&#x410;" horiz-adv-x="1676" d="M1121 295h-640l-185 -295h-435l1011 1604h461l248 -1604h-418zM686 637h390l-75 525z" />
<glyph unicode="&#x411;" horiz-adv-x="1548" d="M912 679h-303l-86 -323h307q109 0 180 47t71 142q0 51 -43 92.5t-126 41.5zM457 1604h1175l-94 -356h-777l-64 -239h257q244 0 390 -116.5t146 -302.5q0 -184 -91 -319t-248.5 -203t-362.5 -68h-759z" />
<glyph unicode="&#x412;" horiz-adv-x="1547" d="M835 650h-238l-81 -302h269q65 0 120 17t93 57.5t38 98.5q0 129 -201 129zM960 1258h-202l-76 -290h225q106 0 178 40.5t72 127.5q0 122 -197 122zM722 0h-693l428 1604h531q49 0 95 -3t106 -13t111 -26.5t102 -46.5t86.5 -69t58 -97.5t22.5 -130.5q0 -159 -103 -267.5 t-260 -140.5v-3q116 -36 180.5 -121t64.5 -198q0 -106 -45 -194t-133.5 -154t-229 -103t-321.5 -37z" />
<glyph unicode="&#x413;" horiz-adv-x="1276" d="M434 0h-405l429 1604h1069l-99 -371h-664z" />
<glyph unicode="&#x414;" horiz-adv-x="1923" d="M761 1604h1192l-331 -1233h167l-190 -707h-388l90 336h-1026l-91 -336h-389l188 698q81 0 161.5 45.5t149 123.5t125 177.5t96.5 210.5zM1217 371l235 874h-420l-133 -371q-26 -72 -50 -127t-62 -125t-91.5 -133.5t-119.5 -117.5h641z" />
<glyph unicode="&#x415;" horiz-adv-x="1404" d="M457 1604h1118l-96 -359h-714l-71 -262h651l-93 -346h-650l-74 -276h721l-96 -361h-1124z" />
<glyph unicode="&#x416;" horiz-adv-x="2387" d="M1055 779l-674 -779h-523l803 870l-371 734h419l365 -752l7 1l200 751h407l-200 -752h7l671 752h503l-786 -836l372 -768h-431l-349 779h-7l-208 -779h-407l208 779h-6z" />
<glyph unicode="&#x417;" horiz-adv-x="1450" d="M637 -24q-164 0 -297 63t-210.5 178.5t-77.5 262.5q0 37 3 61l379 40q-4 -32 -4 -49q0 -92 64.5 -151.5t167.5 -59.5q122 0 204 67t82 176q0 78 -58.5 120.5t-158.5 42.5q-67 0 -131 -28l-114 266l508 290h-705l87 349h1209l-95 -379l-445 -253q142 -49 228 -150t86 -234 q0 -140 -59.5 -257t-159.5 -193.5t-230 -119t-273 -42.5z" />
<glyph unicode="&#x418;" horiz-adv-x="1766" d="M457 1604h401l-259 -968h2l831 968h453l-428 -1604h-400l259 971h-3l-830 -971h-454z" />
<glyph unicode="&#x419;" horiz-adv-x="1766" d="M1085 2175q8 -82 56 -132.5t128 -50.5q82 0 148.5 52.5t91.5 132.5l211 -40q-54 -170 -178.5 -277t-295.5 -107q-160 0 -265.5 99t-105.5 258q0 17 1 26zM457 1604h401l-259 -968h2l831 968h453l-428 -1604h-400l259 971h-3l-830 -971h-454z" />
<glyph unicode="&#x41a;" horiz-adv-x="1563" d="M641 766l-204 -766h-408l428 1604h408l-182 -680h2l645 680h516l-801 -813l391 -791h-452z" />
<glyph unicode="&#x41b;" horiz-adv-x="1811" d="M2 353h13q58 0 107 15.5t89 47.5t71.5 70.5t61.5 96.5t52.5 112t49.5 130l279 779h1205l-428 -1604h-406l333 1246h-432l-215 -612q-42 -118 -87 -209.5t-109 -176t-141 -139t-181.5 -86.5t-230.5 -32q-75 0 -121 15z" />
<glyph unicode="&#x41c;" horiz-adv-x="2161" d="M1725 1014h-4l-654 -1014h-244l-133 1008h-4l-269 -1008h-388l428 1604h498l132 -984l634 984h559l-428 -1604h-398z" />
<glyph unicode="&#x41d;" horiz-adv-x="1740" d="M1194 625h-593l-166 -625h-406l429 1604h405l-163 -606h593l161 606h405l-428 -1604h-405z" />
<glyph unicode="&#x41e;" horiz-adv-x="1867" d="M1103 1631q169 0 312 -55.5t241 -151.5t153 -227t55 -280q0 -194 -77 -369t-206 -300t-303.5 -198.5t-362.5 -73.5q-149 0 -285 47.5t-243 135.5t-171 226.5t-64 306.5q0 194 76.5 369t205 299.5t303.5 197.5t366 73zM572 724q0 -173 107.5 -271t269.5 -98 q134 0 249 75.5t180.5 197.5t65.5 256q0 158 -103 263.5t-275 105.5q-100 0 -192 -45t-158 -118t-105 -169.5t-39 -196.5z" />
<glyph unicode="&#x41f;" horiz-adv-x="1720" d="M1334 1233h-569l-330 -1233h-406l429 1604h1381l-428 -1604h-406z" />
<glyph unicode="&#x420;" horiz-adv-x="1459" d="M435 0h-406l429 1604h500q240 0 381 -76q108 -58 164 -155.5t56 -223.5q0 -17 -0.5 -30t-5 -51.5t-13.5 -70.5t-28 -78.5t-45.5 -86t-70 -82.5t-97.5 -77q-185 -118 -451 -118h-264zM767 1250l-92 -352h168q57 0 107.5 10.5t96 33t72 64.5t26.5 99q0 59 -41 96 q-53 49 -168 49h-169z" />
<glyph unicode="&#x421;" horiz-adv-x="1771" d="M151 694q0 189 76 362t203.5 299t303.5 201t367 75q105 0 197.5 -18t162 -49t128 -74t99 -91.5t71 -104t48 -108t26.5 -107.5l-392 -122q-11 55 -35 102.5t-66.5 93.5t-115.5 73t-167 27q-99 0 -190.5 -46.5t-155.5 -121t-102 -169.5t-38 -191q0 -166 103 -268t280 -102 q72 0 136.5 20t110.5 50.5t84.5 71.5t62 78t40.5 75l360 -140q-28 -71 -72.5 -141t-118.5 -142.5t-164 -127t-216 -89t-267 -34.5q-158 0 -297.5 53t-241.5 146.5t-161 228t-59 290.5z" />
<glyph unicode="&#x422;" horiz-adv-x="1376" d="M752 0h-407l331 1236h-453l98 368h1308l-96 -368h-452z" />
<glyph unicode="&#x423;" horiz-adv-x="1514" d="M1002 497q-65 -88 -119 -152.5t-131.5 -138.5t-151 -121t-167.5 -78.5t-192 -31.5q-120 0 -253 46l95 351q93 -36 179 -36q168 0 316 176l-306 1092h434l165 -685l496 685h456z" />
<glyph unicode="&#x424;" horiz-adv-x="2156" d="M1170 120l-46 -170h-405l45 170q-292 24 -452 181.5t-160 410.5q0 169 64.5 316t180.5 253t286 167t372 61h80l39 145h405l-39 -145q289 -19 457.5 -175t168.5 -402q0 -183 -69 -336t-189 -257t-286 -161.5t-357 -57.5h-95zM565 755q0 -127 83 -193.5t213 -77.5l177 663 h-36q-122 0 -220 -45t-157.5 -135.5t-59.5 -211.5zM1748 872q0 125 -88.5 197.5t-216.5 72.5l-176 -658h50q188 0 309.5 102.5t121.5 285.5z" />
<glyph unicode="&#x425;" horiz-adv-x="1583" d="M809 515l-466 -515h-486l778 840l-338 763h445l193 -469l423 469h484l-734 -792l359 -811h-444z" />
<glyph unicode="&#x426;" horiz-adv-x="1810" d="M1509 371h167l-188 -707h-389l90 336h-1160l428 1604h405l-329 -1233h571l330 1233h405z" />
<glyph unicode="&#x427;" horiz-adv-x="1612" d="M1062 616q-256 -109 -448 -109q-177 0 -292 96.5t-115 276.5q0 79 33 201l138 523h407l-127 -479q-17 -64 -17 -106q0 -144 156 -144q91 0 189 27.5t173 74.5l167 627h405l-428 -1604h-405z" />
<glyph unicode="&#x428;" horiz-adv-x="2560" d="M457 1604h405l-329 -1233h504l329 1233h404l-329 -1233h505l329 1233h404l-428 -1604h-2222z" />
<glyph unicode="&#x429;" horiz-adv-x="2651" d="M2350 371h167l-189 -707h-388l90 336h-2001l428 1604h405l-329 -1233h504l329 1233h404l-329 -1233h505l329 1233h404z" />
<glyph unicode="&#x42a;" horiz-adv-x="1730" d="M1138 1039q160 0 285 -51.5t196.5 -150.5t71.5 -229q0 -193 -95.5 -332.5t-257 -207.5t-370.5 -68h-745l333 1248h-328l94 356h733l-151 -565h234zM813 697l-91 -341h290q115 0 189 49.5t74 149.5q0 66 -50 104t-131 38h-281z" />
<glyph unicode="&#x42b;" horiz-adv-x="2346" d="M712 1039h232q160 0 285.5 -51.5t197 -150.5t71.5 -229q0 -146 -55 -262t-152.5 -191.5t-229 -115t-286.5 -39.5h-746l428 1604h406zM2061 1604h405l-429 -1604h-404zM621 697l-92 -341h289q116 0 190 49.5t74 149.5q0 66 -50 104t-131 38h-280z" />
<glyph unicode="&#x42c;" horiz-adv-x="1537" d="M712 1039h232q160 0 285.5 -51.5t197 -150.5t71.5 -229q0 -146 -55 -262t-152.5 -191.5t-229 -115t-286.5 -39.5h-746l428 1604h406zM621 697l-92 -341h289q116 0 190 49.5t74 149.5q0 66 -50 104t-131 38h-280z" />
<glyph unicode="&#x42d;" horiz-adv-x="1770" d="M1589 1386q173 -196 173 -467q0 -178 -53.5 -332t-144.5 -264.5t-211.5 -190t-255.5 -118t-274 -38.5q-190 0 -349.5 66.5t-266 194t-133.5 295.5l389 123q34 -156 141 -230t254 -74q138 0 256.5 81.5t181.5 213.5h-581l87 328h544q-23 118 -125 201.5t-242 83.5 q-145 0 -258.5 -78.5t-175.5 -216.5l-358 140q74 171 208.5 292.5t292 178t327.5 56.5q173 0 322.5 -64.5t251.5 -180.5z" />
<glyph unicode="&#x42e;" horiz-adv-x="2537" d="M1822 1631q218 0 381.5 -93.5t247.5 -252.5t84 -359q0 -194 -75.5 -370.5t-201 -303t-296 -201.5t-353.5 -75q-145 0 -272 43.5t-224.5 125t-157 208.5t-67.5 285h-283l-170 -638h-406l428 1604h406l-167 -626h239q96 285 341.5 469t545.5 184zM1647 355q127 0 236 75.5 t170.5 197t61.5 256.5q0 159 -92.5 264t-254.5 105q-125 0 -233 -76.5t-169.5 -199t-61.5 -257.5q0 -172 96.5 -268.5t246.5 -96.5z" />
<glyph unicode="&#x42f;" horiz-adv-x="1524" d="M445 640q-209 116 -209 371q0 181 93 316t258.5 206t381.5 71h674l-428 -1604h-405l150 564h-149l-428 -564h-448zM953 1255q-133 0 -212.5 -56t-79.5 -148q0 -40 18.5 -70t48.5 -45t60.5 -21.5t63.5 -6.5h200l93 347h-192z" />
<glyph unicode="&#x430;" d="M786 118h-4q-144 -140 -316 -140q-124 0 -216 64t-136.5 164t-44.5 218q0 137 48 264.5t128.5 221t192 149.5t233.5 56q216 0 331 -161h2l38 139h390l-239 -893q-22 -87 -27 -162v-38h-391v36q4 50 11 82zM651 321q105 0 185 81.5t80 196.5q0 77 -52 125t-133 48 q-109 0 -188 -82.5t-79 -196.5q0 -78 50.5 -125t136.5 -47z" />
<glyph unicode="&#x431;" horiz-adv-x="1409" d="M473 905q146 167 397 167q95 0 180.5 -32.5t150 -91t102.5 -147t38 -194.5q0 -134 -52.5 -252.5t-142 -201t-210.5 -130.5t-255 -48q-261 0 -405 158t-144 419q0 90 9.5 178t38.5 199.5t76 208t129.5 192t190.5 162.5q85 53 189 81.5t274 54.5l322 51v-313l-337 -58 q-170 -29 -278 -83q-125 -62 -192.5 -148t-85.5 -171zM708 317q108 0 182 80.5t74 192.5q0 85 -53 141.5t-139 56.5q-108 0 -182 -80.5t-74 -192.5q0 -86 53 -142t139 -56z" />
<glyph unicode="&#x432;" horiz-adv-x="1321" d="M-11 0l292 1094h597q193 0 294 -70.5t101 -192.5q0 -108 -67 -180t-182 -100l-1 -2q81 -25 124.5 -82t43.5 -133q0 -160 -131.5 -247t-363.5 -87h-707zM744 664q60 0 97.5 22.5t37.5 68.5q0 66 -107 66h-181l-41 -157h194zM658 278q61 0 102 25.5t41 72.5q0 73 -114 73 h-195l-46 -171h212z" />
<glyph unicode="&#x433;" horiz-adv-x="1045" d="M378 0h-389l292 1093h879l-86 -322h-490z" />
<glyph unicode="&#x434;" horiz-adv-x="1554" d="M1469 1093l-207 -773h154l-175 -656h-355l90 336h-711l-90 -336h-355l175 654q37 1 69.5 14t60 33.5t54 58t49 76.5t49 102.5t49 123t54.5 148.5l78 219h1011zM883 320l121 453h-290q-31 -87 -51 -136.5t-52.5 -114t-71 -113t-88.5 -89.5h432z" />
<glyph unicode="&#x435;" horiz-adv-x="1294" d="M1192 449h-752q0 -78 63 -124t135 -46q68 0 127.5 27t90.5 84l303 -138q-34 -63 -84.5 -112.5t-105 -79.5t-117 -49.5t-116.5 -27t-108 -7.5q-242 0 -398 139t-156 369q0 126 54 243.5t144 203t213 136.5t255 51q97 0 186 -30.5t158.5 -86.5t110.5 -142t41 -189 q0 -111 -44 -221zM723 821q-72 0 -142.5 -42.5t-99.5 -113.5h388q8 16 8 33q0 61 -43 92t-111 31z" />
<glyph unicode="&#x436;" horiz-adv-x="1960" d="M1329 1093l-135 -505h6l428 505h459l-507 -576l228 -517h-418l-204 530h-8l-141 -530h-392l139 522h-8l-414 -522h-488l528 606l-228 487h395l225 -513h6l137 513h392z" />
<glyph unicode="&#x437;" horiz-adv-x="1121" d="M383 647l291 145l-1 6l-352 -6h-168l81 301h916l-87 -322l-271 -137q83 -24 143 -90.5t60 -149.5q0 -89 -32.5 -161t-86 -119t-126.5 -79t-150 -45.5t-160 -13.5q-106 0 -200.5 39.5t-158.5 122t-64 191.5q0 34 4 61l322 50v-16q0 -61 36 -99.5t95 -38.5q57 0 98.5 29 t41.5 81q0 37 -34.5 57.5t-79.5 20.5q-42 0 -92 -12z" />
<glyph unicode="&#x438;" horiz-adv-x="1362" d="M852 539l-498 -539h-365l292 1093h379l-140 -524l3 -2l489 526h372l-292 -1093h-380l143 537z" />
<glyph unicode="&#x439;" horiz-adv-x="1362" d="M724 1690q8 -82 56 -132.5t128 -50.5q82 0 148.5 52.5t91.5 132.5l211 -40q-54 -170 -178.5 -277t-295.5 -107q-160 0 -265.5 99t-105.5 258q0 17 1 26zM852 539l-498 -539h-365l292 1093h379l-140 -524l3 -2l489 526h372l-292 -1093h-380l143 537z" />
<glyph unicode="&#x43a;" horiz-adv-x="1343" d="M526 521h-8l-139 -521h-390l292 1093h390l-131 -489h6l467 489h485l-569 -558l277 -535h-433z" />
<glyph unicode="&#x43b;" horiz-adv-x="1439" d="M6 313q91 0 155 77t129 259l158 444h1013l-292 -1093h-390l206 771h-274l-96 -261q-28 -76 -64.5 -145t-91 -139t-118 -120.5t-148.5 -82t-180 -31.5q-68 0 -90 8z" />
<glyph unicode="&#x43c;" horiz-adv-x="1732" d="M1252 625h-4l-419 -625h-205l-81 651h-4l-174 -651h-376l292 1093h487l80 -600l404 600h502l-292 -1093h-378z" />
<glyph unicode="&#x43d;" horiz-adv-x="1348" d="M793 390h-310l-104 -390h-390l292 1093h389l-104 -391h311l104 391h389l-292 -1093h-389z" />
<glyph unicode="&#x43e;" horiz-adv-x="1339" d="M639 321q106 0 180.5 80t74.5 190q0 82 -51.5 131.5t-133.5 49.5q-109 0 -182 -81t-73 -189q0 -78 48 -129.5t137 -51.5zM618 -25q-252 0 -398 143t-146 366q0 122 50 237.5t135.5 203t208.5 140.5t261 53q127 0 231 -39t172.5 -107t105.5 -160.5t37 -200.5 q0 -123 -49.5 -239t-135.5 -203.5t-209.5 -140.5t-262.5 -53z" />
<glyph unicode="&#x43f;" horiz-adv-x="1339" d="M680 0l206 773h-304l-206 -773h-387l292 1093h1080l-292 -1093h-389z" />
<glyph unicode="&#x440;" horiz-adv-x="1410" d="M1351 670q0 -144 -49.5 -273.5t-131.5 -220.5t-191 -144.5t-226 -53.5q-221 0 -335 169h-4l-183 -687h-386l436 1633h390l-30 -112h4q143 134 310 134q75 0 143.5 -26.5t126 -78.5t92 -140t34.5 -200zM692 323q107 0 185.5 82t78.5 197q0 78 -50.5 125t-133.5 47 q-109 0 -188.5 -83.5t-79.5 -194.5q0 -78 52.5 -125.5t135.5 -47.5z" />
<glyph unicode="&#x441;" horiz-adv-x="1279" d="M622 -25q-254 0 -400 141t-146 372q0 130 54 248t143.5 201.5t210 132.5t250.5 49q118 0 215.5 -34t161.5 -92t103 -128.5t51 -148.5l-359 -102q-13 70 -60.5 114t-129.5 44q-114 0 -187.5 -82.5t-73.5 -189.5q0 -80 51.5 -129.5t141.5 -49.5q76 0 134 41t86 102 l326 -123q-65 -157 -221 -261.5t-351 -104.5z" />
<glyph unicode="&#x442;" horiz-adv-x="1130" d="M622 0h-395l206 771h-333l86 322h1061l-86 -322h-334z" />
<glyph unicode="&#x443;" horiz-adv-x="1281" d="M-26 -539l337 537l-144 1095h384l68 -648h2l385 648h411l-1037 -1632h-406z" />
<glyph unicode="&#x444;" horiz-adv-x="1941" d="M1043 65l-150 -565h-393l150 561q-115 -78 -252 -78q-83 0 -147.5 35t-103.5 95.5t-58.5 136t-19.5 162.5q0 93 22.5 189t70.5 187.5t116 163t168 115t217 43.5q145 0 241 -94l170 632h393l-170 -633q65 49 124 69.5t131 20.5q83 0 147.5 -35.5t103.5 -97t59 -137.5 t20 -162q0 -91 -22.5 -185.5t-71 -186t-116 -163.5t-166.5 -116t-214 -44q-148 0 -249 87zM469 479q0 -160 142 -160q61 0 114 25l107 400q-19 15 -55 23.5t-62 8.5q-112 0 -179 -87.5t-67 -209.5zM1483 605q0 80 -36 122t-105 42q-58 0 -118 -28l-106 -397q19 -15 56 -23.5 t64 -8.5q112 0 178.5 86.5t66.5 206.5z" />
<glyph unicode="&#x445;" horiz-adv-x="1289" d="M600 289l-258 -289h-466l556 565l-279 528h428l125 -285l254 285h457l-543 -553l280 -540h-423z" />
<glyph unicode="&#x446;" horiz-adv-x="1446" d="M1154 320h154l-175 -656h-355l90 336h-879l292 1093h389l-207 -773h302l207 773h389z" />
<glyph unicode="&#x447;" horiz-adv-x="1270" d="M701 334q-62 -24 -146 -37t-148 -13q-82 0 -150.5 29.5t-115 98t-46.5 166.5q0 47 20 119l105 396h393l-89 -330q-8 -28 -8 -66q0 -42 26.5 -65t63.5 -23q104 0 180 45l117 439h389l-291 -1093h-390z" />
<glyph unicode="&#x448;" horiz-adv-x="1991" d="M281 1093h389l-206 -773h282l206 773h389l-206 -773h280l207 773h391l-292 -1093h-1732z" />
<glyph unicode="&#x449;" horiz-adv-x="2098" d="M1806 320h154l-175 -656h-355l90 336h-1531l292 1093h389l-206 -773h281l207 773h389l-206 -773h280l207 773h391z" />
<glyph unicode="&#x44a;" horiz-adv-x="1457" d="M763 789h170q123 0 226.5 -39.5t166.5 -115.5t63 -174q0 -92 -29.5 -168.5t-80.5 -130t-121 -90t-150.5 -54t-168.5 -17.5h-676l207 776h-270l85 317h659zM692 517l-62 -229h193q76 0 126.5 33t50.5 100q0 45 -35.5 70.5t-85.5 25.5h-187z" />
<glyph unicode="&#x44b;" horiz-adv-x="1934" d="M-11 0l292 1093h389l-81 -304h169q123 0 226.5 -39.5t167 -115.5t63.5 -174q0 -114 -45 -204t-122 -145t-174.5 -83t-208.5 -28h-676zM1272 0l292 1093h392l-292 -1093h-392zM517 517l-61 -229h193q76 0 126.5 33t50.5 100q0 45 -36 70.5t-86 25.5h-187z" />
<glyph unicode="&#x44c;" horiz-adv-x="1283" d="M-11 0l292 1093h389l-81 -304h169q123 0 226.5 -39.5t167 -115.5t63.5 -174q0 -114 -45 -204t-122 -145t-174.5 -83t-208.5 -28h-676zM517 517l-61 -229h193q76 0 126.5 33t50.5 100q0 45 -36 70.5t-86 25.5h-187z" />
<glyph unicode="&#x44d;" horiz-adv-x="1246" d="M637 1119q125 0 228.5 -39.5t172 -108t106 -161t37.5 -198.5q0 -141 -57 -262.5t-149.5 -202t-210.5 -126t-241 -45.5q-67 0 -130 12t-123.5 39.5t-109.5 68t-86 101t-54 135.5l342 98q33 -128 187 -128q76 0 135 39t94 103h-293l56 209h272q-18 63 -70.5 101t-120.5 38 q-143 0 -216 -127l-309 108q73 159 221 252.5t319 93.5z" />
<glyph unicode="&#x44e;" horiz-adv-x="1903" d="M1325 1118q233 0 372 -138t139 -367q0 -131 -49 -249.5t-132 -203.5t-198 -135t-243 -50q-209 0 -356 113t-174 306h-199l-105 -394h-391l292 1093h391l-105 -394h153q67 185 233.5 302t371.5 117zM1232 321q94 0 159 87t65 185q0 82 -43 132t-121 50q-99 0 -163 -81.5 t-64 -184.5q0 -81 46 -134.5t121 -53.5z" />
<glyph unicode="&#x44f;" horiz-adv-x="1335" d="M767 327h-134l-272 -327h-445l382 414q-72 34 -119 105t-47 151q0 89 31.5 161.5t83.5 120.5t122.5 80.5t144.5 46.5t153 14h690l-292 -1093h-385zM896 801h-205q-79 0 -125.5 -32t-46.5 -92q0 -41 30.5 -63.5t86.5 -22.5h204z" />
<glyph unicode="&#x451;" horiz-adv-x="1294" d="M523 1262q-80 0 -132 50.5t-52 130.5q0 94 65.5 160.5t158.5 66.5q80 0 132.5 -51t52.5 -131q0 -95 -65.5 -160.5t-159.5 -65.5zM1055 1262q-80 0 -131.5 50.5t-51.5 130.5q0 94 65 160.5t158 66.5q81 0 133.5 -51t52.5 -131q0 -94 -65.5 -160t-160.5 -66zM440 449 q0 -78 63 -124t135 -46q68 0 127.5 27t90.5 84l303 -138q-34 -63 -84.5 -112.5t-105 -79.5t-117 -49.5t-116.5 -27t-108 -7.5q-242 0 -398 139t-156 369q0 126 54 243.5t144 203t213 136.5t255 51q97 0 186 -30.5t158.5 -86.5t110.5 -142t41 -189q0 -111 -44 -221h-752z M723 821q-72 0 -142.5 -42.5t-99.5 -113.5h388q8 16 8 33q0 61 -43 92t-111 31z" />
<glyph unicode="&#x452;" horiz-adv-x="1314" d="M463 -203q88 0 147 61t82 152l150 565q10 38 10 68q0 56 -30 86.5t-87 30.5q-80 0 -129.5 -48.5t-70.5 -129.5l-156 -582h-389l332 1245h-150l70 260h147l45 164h387l-45 -164h316l-68 -260h-315l-72 -272h2q146 143 315 143q104 0 176.5 -45t105 -116t32.5 -162 q0 -79 -31 -201l-168 -627q-27 -104 -71.5 -192t-108 -160t-153 -113t-195.5 -41q-91 0 -195 23l86 317q10 -2 31 -2z" />
<glyph unicode="&#x453;" horiz-adv-x="1045" d="M572 1275l338 402h434l-458 -402h-314zM378 0h-389l292 1093h879l-86 -322h-490z" />
<glyph unicode="&#x454;" horiz-adv-x="1277" d="M650 303q78 0 141 40.5t95 101.5l305 -116q-69 -153 -222.5 -253.5t-344.5 -100.5q-127 0 -230.5 39t-172 108.5t-105.5 165.5t-37 209q0 174 89 317.5t238 224t323 80.5q116 0 213 -33t161.5 -88.5t105 -124t54.5 -144.5l-339 -97q-17 71 -68.5 115t-135.5 44 q-78 0 -139 -38.5t-99 -102.5h291l-52 -202h-268q14 -67 65 -106t132 -39z" />
<glyph unicode="&#x455;" horiz-adv-x="1099" d="M620 1118q109 0 196.5 -32.5t138.5 -83.5t77.5 -107.5t26.5 -109.5v-7l-327 -37q0 53 -36.5 80t-79.5 27q-50 0 -74 -25t-24 -48q0 -42 63 -63l108 -35q48 -16 86.5 -33.5t77.5 -45.5t65.5 -62.5t43 -84t16.5 -108.5q0 -70 -32.5 -135t-92.5 -117.5t-155.5 -84 t-211.5 -31.5q-107 0 -192.5 24t-136.5 60.5t-85 84t-47 89.5t-13 81v17l316 51q-2 -58 44.5 -95t110.5 -37q61 0 89.5 25t28.5 53q0 51 -82 78l-76 26q-50 17 -89 35t-78.5 45t-65.5 59t-42.5 77t-16.5 98q0 159 134 265.5t335 106.5z" />
<glyph unicode="&#x456;" horiz-adv-x="652" d="M556 1241q-89 0 -146 56t-57 145q0 103 71.5 176.5t175.5 73.5q88 0 146 -56.5t58 -145.5q0 -104 -72.5 -176.5t-175.5 -72.5zM-11 0l292 1093h393l-292 -1093h-393z" />
<glyph unicode="&#x457;" horiz-adv-x="655" d="M262 1262q-80 0 -131.5 50.5t-51.5 130.5q0 94 65 160.5t158 66.5q81 0 133.5 -51t52.5 -131q0 -94 -66 -160t-160 -66zM786 1262q-81 0 -132.5 50.5t-51.5 130.5q0 94 65 160.5t159 66.5q80 0 132.5 -51t52.5 -131q0 -94 -65.5 -160t-159.5 -66zM-11 0l292 1093h396 l-292 -1093h-396z" />
<glyph unicode="&#x458;" horiz-adv-x="668" d="M573 1241q-88 0 -145.5 56t-57.5 145q0 103 72 176.5t175 73.5q89 0 147 -56.5t58 -145.5q0 -104 -72.5 -176.5t-176.5 -72.5zM297 1093l-314 -1178q-35 -130 -175 -130q-53 0 -99 24l-77 -292q36 -25 107 -41t116 -16q207 0 330.5 101.5t177.5 304.5l327 1227h-393z" />
<glyph unicode="&#x459;" horiz-adv-x="2073" d="M711 771l-96 -261q-28 -76 -64.5 -145t-91 -139t-118 -120.5t-148.5 -82t-180 -31.5q-68 0 -90 8l83 313q91 0 155 77t129 259l158 444h1013l-81 -304h169q123 0 226.5 -39.5t166.5 -115.5t63 -174q0 -92 -29.5 -168.5t-80.5 -130t-121 -90t-150.5 -54t-168.5 -17.5h-675 l205 771h-274zM1308 517l-62 -229h193q76 0 127 33t51 100q0 45 -36 70.5t-86 25.5h-187z" />
<glyph unicode="&#x45a;" horiz-adv-x="1985" d="M1915 450q0 -144 -73 -247t-196 -153t-282 -50h-675l121 461h-308l-123 -461h-390l292 1093h389l-86 -322h309l88 322h389l-87 -322h204q197 0 312.5 -89t115.5 -232zM1526 413q0 39 -35.5 64.5t-93.5 25.5h-184l-57 -215h190q79 0 129.5 29t50.5 96z" />
<glyph unicode="&#x45b;" horiz-adv-x="1333" d="M954 1116q154 0 234 -91.5t80 -232.5q0 -79 -32 -201l-158 -591h-389l153 576q10 37 10 67q0 56 -30.5 86.5t-86.5 30.5q-154 0 -201 -179l-156 -581h-389l332 1245h-149l69 260h149l44 164h387l-44 -164h315l-69 -260h-315l-72 -273h3q147 144 315 144z" />
<glyph unicode="&#x45c;" horiz-adv-x="1343" d="M691 1275l338 402h434l-458 -402h-314zM526 521h-8l-139 -521h-390l292 1093h390l-131 -489h6l467 489h485l-569 -558l277 -535h-433z" />
<glyph unicode="&#x45e;" horiz-adv-x="1281" d="M582 1690q8 -82 56 -132.5t128 -50.5q82 0 148.5 52.5t91.5 132.5l211 -40q-54 -170 -178.5 -277t-295.5 -107q-160 0 -265.5 99t-105.5 258q0 17 1 26zM1006 1093l-385 -648h-2l-68 648h-384l144 -1095l-337 -537h406l1037 1632h-411z" />
<glyph unicode="&#x45f;" horiz-adv-x="1339" d="M1069 0h-363l-90 -336h-354l89 336h-362l292 1093h389l-207 -773h302l207 773h389z" />
<glyph unicode="&#x490;" horiz-adv-x="1275" d="M435 0h-406l428 1604h680l91 341h389l-190 -712h-663z" />
<glyph unicode="&#x491;" horiz-adv-x="1045" d="M1074 771h-490l-206 -771h-389l292 1093h525l92 346h355z" />
<glyph unicode="&#x496;" horiz-adv-x="2456" d="M1783 -336l90 336h-49l-349 779h-7l-208 -779h-407l208 779h-6l-674 -779h-523l803 870l-371 734h419l365 -752l7 1l200 751h407l-200 -752h7l671 752h503l-786 -836l192 -397h285l-188 -707h-389z" />
<glyph unicode="&#x497;" horiz-adv-x="2015" d="M1368 -336l90 336h-68l-204 530h-8l-141 -530h-392l139 522h-8l-414 -522h-488l528 606l-228 487h395l225 -513h6l137 513h392l-135 -505h6l428 505h459l-507 -576l87 -197h231l-175 -656h-355z" />
<glyph unicode="&#x498;" horiz-adv-x="1450" d="M360 -336l91 335q-180 47 -289.5 175.5t-109.5 305.5q0 37 3 61l379 40q-4 -32 -4 -49q0 -92 64.5 -151.5t167.5 -59.5q122 0 204 67t82 176q0 78 -58.5 120.5t-158.5 42.5q-67 0 -131 -28l-114 266l508 290h-705l87 349h1209l-95 -379l-445 -253q142 -49 228 -150 t86 -234q0 -115 -40 -215t-111 -173.5t-165 -125t-205 -76.5l-89 -334h-389z" />
<glyph unicode="&#x499;" horiz-adv-x="1121" d="M383 647l291 145l-2 6l-350 -6h-169l81 301h916l-87 -322l-271 -137q83 -24 143 -90.5t60 -149.5q0 -86 -29.5 -156.5t-82.5 -118t-118.5 -78.5t-144.5 -48l-88 -329h-355l92 341q-111 39 -181.5 123t-70.5 201q0 34 4 61l322 50v-16q0 -61 36 -99.5t95 -38.5 q57 0 98.5 29t41.5 81q0 37 -34.5 57.5t-79.5 20.5q-42 0 -92 -12z" />
<glyph unicode="&#x49a;" horiz-adv-x="1634" d="M964 -336l91 336h-71l-343 766l-204 -766h-408l428 1604h408l-182 -680h2l645 680h516l-801 -813l208 -420h288l-188 -707h-389z" />
<glyph unicode="&#x49b;" horiz-adv-x="1400" d="M766 -336l90 336h-83l-247 521h-8l-139 -521h-390l292 1093h390l-131 -489h6l467 489h485l-569 -558l111 -215h256l-175 -656h-355z" />
<glyph unicode="&#x4a2;" horiz-adv-x="1831" d="M1120 -336l91 336h-185l168 625h-593l-166 -625h-406l429 1604h405l-163 -606h593l161 606h405l-329 -1233h167l-188 -707h-389z" />
<glyph unicode="&#x4a3;" horiz-adv-x="1455" d="M788 -336l90 336h-189l104 390h-310l-104 -390h-390l292 1093h389l-104 -391h311l104 391h389l-207 -773h155l-175 -656h-355z" />
<glyph unicode="&#x4aa;" horiz-adv-x="1771" d="M624 -336l90 334q-250 58 -406.5 246t-156.5 450q0 189 76 362t203.5 299t303.5 201t367 75q105 0 197.5 -18t162 -49t128 -74t99 -91.5t71 -104t48 -108t26.5 -107.5l-392 -122q-11 55 -35 102.5t-66.5 93.5t-115.5 73t-167 27q-99 0 -190.5 -46.5t-155.5 -121 t-102 -169.5t-38 -191q0 -166 103 -268t280 -102q72 0 136.5 20t110.5 50.5t84.5 71.5t62 78t40.5 75l360 -140q-30 -77 -82 -153t-130 -151t-191 -132t-245 -81l-87 -329h-389z" />
<glyph unicode="&#x4ab;" horiz-adv-x="1279" d="M350 -336l89 334q-172 45 -267.5 175t-95.5 315q0 130 54 248t143.5 201.5t210 132.5t250.5 49q118 0 215.5 -34t161.5 -92t103 -128.5t51 -148.5l-359 -102q-13 70 -60.5 114t-129.5 44q-114 0 -187.5 -82.5t-73.5 -189.5q0 -80 51.5 -129.5t141.5 -49.5q76 0 134 41 t86 102l326 -123q-50 -120 -155.5 -212.5t-244.5 -130.5l-89 -334h-355z" />
<glyph unicode="&#x4ac;" horiz-adv-x="1388" d="M440 -336l91 336h-186l331 1236h-453l98 368h1308l-96 -368h-452l-230 -865h166l-188 -707h-389z" />
<glyph unicode="&#x4ad;" horiz-adv-x="1142" d="M331 -336l91 336h-195l206 771h-333l86 322h1061l-86 -322h-334l-120 -451h154l-175 -656h-355z" />
<glyph unicode="&#x4b2;" horiz-adv-x="1653" d="M989 -336l90 336h-56l-214 515l-466 -515h-486l778 840l-338 763h445l193 -469l423 469h484l-734 -792l195 -440h263l-188 -707h-389z" />
<glyph unicode="&#x4b3;" horiz-adv-x="1353" d="M714 -336l91 336h-74l-131 289l-258 -289h-466l556 565l-279 528h428l125 -285l254 285h457l-543 -553l114 -220h256l-175 -656h-355z" />
<glyph unicode="&#x4b6;" horiz-adv-x="1702" d="M991 -336l91 336h-184l164 616q-256 -109 -448 -109q-177 0 -292 96.5t-115 276.5q0 79 33 201l138 523h407l-127 -479q-17 -64 -17 -106q0 -144 156 -144q91 0 189 27.5t173 74.5l167 627h405l-329 -1233h166l-188 -707h-389z" />
<glyph unicode="&#x4b7;" horiz-adv-x="1378" d="M710 -336l91 336h-190l90 334q-62 -24 -146 -37t-148 -13q-82 0 -150.5 29.5t-115 98t-46.5 166.5q0 47 20 119l105 396h393l-89 -330q-8 -28 -8 -66q0 -42 26.5 -65t63.5 -23q104 0 180 45l117 439h389l-206 -773h154l-175 -656h-355z" />
<glyph unicode="&#x4c0;" horiz-adv-x="742" d="M457 1604h405l-429 -1604h-404z" />
<glyph unicode="&#x4c1;" horiz-adv-x="2387" d="M1367 2175q8 -82 56 -132.5t128 -50.5q82 0 148.5 52.5t91.5 132.5l211 -40q-54 -170 -178.5 -277t-295.5 -107q-160 0 -265.5 99t-105.5 258q0 17 1 26zM1055 779l-674 -779h-523l803 870l-371 734h419l365 -752l7 1l200 751h407l-200 -752h7l671 752h503l-786 -836 l372 -768h-431l-349 779h-7l-208 -779h-407l208 779h-6z" />
<glyph unicode="&#x4c2;" horiz-adv-x="1960" d="M1009 1690q8 -82 56 -132.5t128 -50.5q82 0 148.5 52.5t91.5 132.5l211 -40q-54 -170 -178.5 -277t-295.5 -107q-160 0 -265.5 99t-105.5 258q0 17 1 26zM1329 1093l-135 -505h6l428 505h459l-507 -576l228 -517h-418l-204 530h-8l-141 -530h-392l139 522h-8l-414 -522 h-488l528 606l-228 487h395l225 -513h6l137 513h392z" />
<glyph unicode="&#x4cf;" horiz-adv-x="651" d="M-11 0l292 1093h392l-292 -1093h-392z" />
<glyph unicode="&#x4d0;" horiz-adv-x="1676" d="M984 2175q8 -82 56 -132.5t128 -50.5q82 0 148.5 52.5t91.5 132.5l211 -40q-54 -170 -178.5 -277t-295.5 -107q-160 0 -265.5 99t-105.5 258q0 17 1 26zM1121 295h-640l-185 -295h-435l1011 1604h461l248 -1604h-418zM686 637h390l-75 525z" />
<glyph unicode="&#x4d1;" d="M694 1690q8 -82 56 -132.5t128 -50.5q82 0 148.5 52.5t91.5 132.5l211 -40q-54 -170 -178.5 -277t-295.5 -107q-160 0 -265.5 99t-105.5 258q0 17 1 26zM782 118q-144 -140 -316 -140q-124 0 -216.5 64t-136.5 164t-44 218q0 137 48 264.5t128.5 221t192 149.5t233.5 56 q216 0 331 -161h2l38 139h390l-239 -893q-22 -87 -27 -162v-38h-391v36q4 50 11 82h-4zM651 321q105 0 185 81.5t80 196.5q0 77 -52 125t-133 48q-109 0 -188 -82.5t-79 -196.5q0 -78 50.5 -125t136.5 -47z" />
<glyph unicode="&#x4d2;" horiz-adv-x="1676" d="M1068 1976q0 -88 -58 -146t-146 -58t-145.5 58t-57.5 146q0 87 58 145.5t145 58.5t145.5 -58.5t58.5 -145.5zM1660 1976q0 -88 -58 -146t-146 -58t-145.5 58t-57.5 146q0 87 58 145.5t145 58.5t145.5 -58.5t58.5 -145.5zM1121 295h-640l-185 -295h-435l1011 1604h461 l248 -1604h-418zM686 637h390l-75 525z" />
<glyph unicode="&#x4d3;" d="M650 1262q-80 0 -132 50.5t-52 130.5q0 94 65.5 160.5t158.5 66.5q80 0 132.5 -51t52.5 -131q0 -95 -65.5 -160.5t-159.5 -65.5zM1182 1262q-80 0 -131.5 50.5t-51.5 130.5q0 94 65 160.5t158 66.5q81 0 133.5 -51t52.5 -131q0 -94 -66 -160t-160 -66zM782 118 q-144 -140 -316 -140q-124 0 -216.5 64t-136.5 164t-44 218q0 137 48 264.5t128.5 221t192 149.5t233.5 56q216 0 331 -161h2l38 139h390l-239 -893q-22 -87 -27 -162v-38h-391v36q4 50 11 82h-4zM651 321q105 0 185 81.5t80 196.5q0 77 -52 125t-133 48q-109 0 -188 -82.5 t-79 -196.5q0 -78 50.5 -125t136.5 -47z" />
<glyph unicode="&#x4d4;" horiz-adv-x="2239" d="M310 0h-463l1173 1604h1390l-95 -359h-710l-70 -262h644l-92 -346h-644l-75 -276h716l-96 -361h-1107l68 254h-457zM1196 1256l-467 -660h312l176 660h-21z" />
<glyph unicode="&#x4d5;" horiz-adv-x="1933" d="M725 1119q90 0 175.5 -26.5t145.5 -78.5q163 104 333 104q131 0 242.5 -51.5t183 -155.5t71.5 -241q0 -108 -45 -221h-751q0 -78 62.5 -124t134.5 -46q68 0 128 27t91 84l302 -138q-34 -63 -84.5 -112.5t-105 -79.5t-117 -49.5t-116.5 -27t-108 -7.5q-138 0 -252 47.5 t-189 135.5q-103 -105 -210.5 -144.5t-261.5 -39.5h-8q-133 0 -229 79t-96 213q0 73 28.5 132.5t73 97.5t103.5 65.5t115.5 40.5t114.5 17l226 17q44 3 77 30.5t33 68.5q0 44 -37 66t-84 22q-73 0 -125 -39t-72 -99l-331 105q19 51 53 97.5t86 89t116 73.5t148.5 49.5 t178.5 18.5zM1362 821q-72 0 -142.5 -42.5t-99.5 -113.5h389q8 19 8 33q0 61 -43 92t-112 31zM507 249q73 0 128.5 41.5t69.5 113.5l8 42l-137 -14q-31 -3 -54 -8t-49 -15.5t-40 -31t-14 -48.5q0 -33 25 -56.5t63 -23.5z" />
<glyph unicode="&#x4d6;" horiz-adv-x="1404" d="M906 2175q8 -82 56 -132.5t128 -50.5q82 0 148.5 52.5t91.5 132.5l211 -40q-54 -170 -178.5 -277t-295.5 -107q-160 0 -265.5 99t-105.5 258q0 17 1 26zM457 1604h1118l-96 -359h-714l-71 -262h651l-93 -346h-650l-74 -276h721l-96 -361h-1124z" />
<glyph unicode="&#x4d7;" horiz-adv-x="1294" d="M652 1690q8 -82 56 -132.5t128 -50.5q82 0 148.5 52.5t91.5 132.5l211 -40q-54 -170 -178.5 -277t-295.5 -107q-160 0 -265.5 99t-105.5 258q0 17 1 26zM440 449q0 -78 63 -124t135 -46q68 0 127.5 27t90.5 84l303 -138q-34 -63 -84.5 -112.5t-105 -79.5t-117 -49.5 t-116.5 -27t-108 -7.5q-242 0 -398 139t-156 369q0 126 54 243.5t144 203t213 136.5t255 51q97 0 186 -30.5t158.5 -86.5t110.5 -142t41 -189q0 -111 -44 -221h-752zM723 821q-72 0 -142.5 -42.5t-99.5 -113.5h388q8 16 8 33q0 61 -43 92t-111 31z" />
<glyph unicode="&#x4dc;" horiz-adv-x="2387" d="M1286 1772q-81 0 -132.5 50.5t-51.5 131.5q0 93 65.5 159.5t158.5 66.5q80 0 132.5 -51t52.5 -131q0 -94 -65.5 -160t-159.5 -66zM1830 1772q-81 0 -132.5 50.5t-51.5 131.5q0 93 65.5 159.5t158.5 66.5q80 0 132.5 -51t52.5 -131q0 -94 -65.5 -160t-159.5 -66zM1055 779 l-674 -779h-523l803 870l-371 734h419l365 -752l7 1l200 751h407l-200 -752h7l671 752h503l-786 -836l372 -768h-431l-349 779h-7l-208 -779h-407l208 779h-6z" />
<glyph unicode="&#x4dd;" horiz-adv-x="1960" d="M931 1262q-80 0 -132 50.5t-52 130.5q0 94 65.5 160.5t158.5 66.5q80 0 132.5 -51t52.5 -131q0 -95 -65.5 -160.5t-159.5 -65.5zM1463 1262q-80 0 -131.5 50.5t-51.5 130.5q0 94 65 160.5t158 66.5q81 0 133.5 -51t52.5 -131q0 -94 -65.5 -160t-160.5 -66zM1329 1093 l-135 -505h6l428 505h459l-507 -576l228 -517h-418l-204 530h-8l-141 -530h-392l139 522h-8l-414 -522h-488l528 606l-228 487h395l225 -513h6l137 513h392z" />
<glyph unicode="&#x4de;" horiz-adv-x="1450" d="M975 1976q0 -88 -58 -146t-146 -58t-145.5 58t-57.5 146q0 87 58 145.5t145 58.5t145.5 -58.5t58.5 -145.5zM1567 1976q0 -88 -58 -146t-146 -58t-145.5 58t-57.5 146q0 87 58 145.5t145 58.5t145.5 -58.5t58.5 -145.5zM637 -24q-164 0 -297 63t-210.5 178.5t-77.5 262.5 q0 37 3 61l379 40q-4 -32 -4 -49q0 -92 64.5 -151.5t167.5 -59.5q122 0 204 67t82 176q0 78 -58.5 120.5t-158.5 42.5q-67 0 -131 -28l-114 266l508 290h-705l87 349h1209l-95 -379l-445 -253q142 -49 228 -150t86 -234q0 -140 -59.5 -257t-159.5 -193.5t-230 -119 t-273 -42.5z" />
<glyph unicode="&#x4df;" horiz-adv-x="1121" d="M717 1488q0 -95 -65.5 -160.5t-159.5 -65.5q-80 0 -132 50.5t-52 130.5q0 94 65.5 160.5t158.5 66.5q80 0 132.5 -51t52.5 -131zM1250 1488q0 -94 -66 -160t-160 -66q-80 0 -131.5 50.5t-51.5 130.5q0 94 65 160.5t158 66.5q81 0 133.5 -51t52.5 -131zM383 647l291 145 l-1 6l-352 -6h-168l81 301h916l-87 -322l-271 -137q83 -24 143 -90.5t60 -149.5q0 -89 -32.5 -161t-86 -119t-126.5 -79t-150 -45.5t-160 -13.5q-106 0 -200.5 39.5t-158.5 122t-64 191.5q0 34 4 61l322 50v-16q0 -61 36 -99.5t95 -38.5q57 0 98.5 29t41.5 81 q0 37 -34.5 57.5t-79.5 20.5q-42 0 -92 -12z" />
<glyph unicode="&#x4e2;" horiz-adv-x="1766" d="M894 2056h790l-74 -279h-790zM457 1604h401l-259 -968h2l831 968h453l-428 -1604h-400l259 971h-3l-830 -971h-454z" />
<glyph unicode="&#x4e3;" horiz-adv-x="1362" d="M555 1566h790l-74 -279h-790zM852 539l-498 -539h-365l292 1093h379l-140 -524l3 -2l489 526h372l-292 -1093h-380l143 537z" />
<glyph unicode="&#x4e4;" horiz-adv-x="1766" d="M1163 1976q0 -88 -58 -146t-146 -58t-145.5 58t-57.5 146q0 87 58 145.5t145 58.5t145.5 -58.5t58.5 -145.5zM1755 1976q0 -88 -58 -146t-146 -58t-145.5 58t-57.5 146q0 87 58 145.5t145 58.5t145.5 -58.5t58.5 -145.5zM457 1604h401l-259 -968h2l831 968h453 l-428 -1604h-400l259 971h-3l-830 -971h-454z" />
<glyph unicode="&#x4e5;" horiz-adv-x="1362" d="M633 1262q-80 0 -132 50.5t-52 130.5q0 94 65.5 160.5t158.5 66.5q80 0 132.5 -51t52.5 -131q0 -95 -65.5 -160.5t-159.5 -65.5zM1165 1262q-80 0 -131.5 50.5t-51.5 130.5q0 94 65 160.5t158 66.5q81 0 133.5 -51t52.5 -131q0 -94 -65.5 -160t-160.5 -66zM852 539 l-498 -539h-365l292 1093h379l-140 -524l3 -2l489 526h372l-292 -1093h-380l143 537z" />
<glyph unicode="&#x4e6;" horiz-adv-x="1867" d="M895 1772q-81 0 -132.5 50.5t-51.5 131.5q0 93 65.5 159.5t158.5 66.5q80 0 132.5 -51t52.5 -131q0 -94 -65.5 -160t-159.5 -66zM1447 1772q-81 0 -132.5 50.5t-51.5 131.5q0 93 65.5 159.5t158.5 66.5q80 0 132.5 -51t52.5 -131q0 -94 -65.5 -160t-159.5 -66zM1103 1631 q169 0 312 -55.5t241 -151.5t153 -227t55 -280q0 -194 -77 -369t-206 -300t-303.5 -198.5t-362.5 -73.5q-149 0 -285 47.5t-243 135.5t-171 226.5t-64 306.5q0 194 76.5 369t205 299.5t303.5 197.5t366 73zM572 724q0 -173 107.5 -271t269.5 -98q134 0 249 75.5t180.5 197.5 t65.5 256q0 158 -103 263.5t-275 105.5q-100 0 -192 -45t-158 -118t-105 -169.5t-39 -196.5z" />
<glyph unicode="&#x4e7;" horiz-adv-x="1339" d="M556 1262q-80 0 -132 50.5t-52 130.5q0 94 65.5 160.5t158.5 66.5q80 0 132.5 -51t52.5 -131q0 -95 -65.5 -160.5t-159.5 -65.5zM1088 1262q-80 0 -131.5 50.5t-51.5 130.5q0 94 65 160.5t158 66.5q81 0 133.5 -51t52.5 -131q0 -94 -66 -160t-160 -66zM618 -25 q139 0 262.5 53t209.5 140.5t135.5 203.5t49.5 239q0 108 -37 200.5t-105.5 160.5t-172.5 107t-231 39q-138 0 -261 -53t-208.5 -140.5t-135.5 -203t-50 -237.5q0 -223 146 -366t398 -143zM639 321q-89 0 -137 51.5t-48 129.5q0 108 73 189t182 81q82 0 133.5 -49.5 t51.5 -131.5q0 -110 -74.5 -190t-180.5 -80z" />
<glyph unicode="&#x4e8;" horiz-adv-x="1867" d="M1103 1631q169 0 312 -55.5t241 -151.5t153 -227t55 -280q0 -194 -77 -369t-206 -300t-303.5 -198.5t-362.5 -73.5q-149 0 -285 47.5t-243 135.5t-171 226.5t-64 306.5q0 194 76.5 369t205 299.5t303.5 197.5t366 73zM1066 1253q-138 0 -260 -82.5t-176 -203.5h808 q-22 124 -123 205t-249 81zM949 355q142 0 264.5 84.5t177.5 211.5h-815q23 -142 125.5 -219t247.5 -77z" />
<glyph unicode="&#x4e9;" horiz-adv-x="1339" d="M618 -25q-252 0 -398 143t-146 366q0 122 50 237.5t135.5 203t208.5 140.5t261 53q127 0 231 -39t172.5 -107t105.5 -160.5t37 -200.5q0 -123 -49.5 -239t-135.5 -203.5t-209.5 -140.5t-262.5 -53zM896 451h-476q13 -75 67.5 -121.5t145.5 -46.5q85 0 157.5 47t105.5 121 zM454 646h473q-13 75 -71 119.5t-141 44.5q-86 0 -156.5 -46t-104.5 -118z" />
<glyph unicode="&#x4ea;" horiz-adv-x="1867" d="M895 1772q-81 0 -132.5 50.5t-51.5 131.5q0 93 65.5 159.5t158.5 66.5q80 0 132.5 -51t52.5 -131q0 -94 -65.5 -160t-159.5 -66zM1447 1772q-81 0 -132.5 50.5t-51.5 131.5q0 93 65.5 159.5t158.5 66.5q80 0 132.5 -51t52.5 -131q0 -94 -65.5 -160t-159.5 -66zM1103 1631 q169 0 312 -55.5t241 -151.5t153 -227t55 -280q0 -194 -77 -369t-206 -300t-303.5 -198.5t-362.5 -73.5q-149 0 -285 47.5t-243 135.5t-171 226.5t-64 306.5q0 194 76.5 369t205 299.5t303.5 197.5t366 73zM1066 1253q-138 0 -260 -82.5t-176 -203.5h808q-22 124 -123 205 t-249 81zM949 355q142 0 264.5 84.5t177.5 211.5h-815q23 -142 125.5 -219t247.5 -77z" />
<glyph unicode="&#x4eb;" horiz-adv-x="1339" d="M556 1262q-80 0 -132 50.5t-52 130.5q0 94 65.5 160.5t158.5 66.5q80 0 132.5 -51t52.5 -131q0 -95 -65.5 -160.5t-159.5 -65.5zM1088 1262q-80 0 -131.5 50.5t-51.5 130.5q0 94 65 160.5t158 66.5q81 0 133.5 -51t52.5 -131q0 -94 -66 -160t-160 -66zM618 -25 q-252 0 -398 143t-146 366q0 122 50 237.5t135.5 203t208.5 140.5t261 53q127 0 231 -39t172.5 -107t105.5 -160.5t37 -200.5q0 -123 -49.5 -239t-135.5 -203.5t-209.5 -140.5t-262.5 -53zM896 451h-476q13 -75 67.5 -121.5t145.5 -46.5q85 0 157.5 47t105.5 121zM454 646 h473q-13 75 -71 119.5t-141 44.5q-86 0 -156.5 -46t-104.5 -118z" />
<glyph unicode="&#x4ec;" horiz-adv-x="1770" d="M782 1772q-88 0 -145.5 58t-57.5 146q0 87 58 145.5t145 58.5t145.5 -58.5t58.5 -145.5q0 -88 -58 -146t-146 -58zM1374 1772q-88 0 -145.5 58t-57.5 146q0 87 58 145.5t145 58.5t145.5 -58.5t58.5 -145.5q0 -88 -58 -146t-146 -58zM1589 1386q173 -196 173 -467 q0 -178 -53.5 -332t-144.5 -264.5t-211.5 -190t-255.5 -118t-274 -38.5q-190 0 -349.5 66.5t-266 194t-133.5 295.5l389 123q34 -156 141 -230t254 -74q138 0 256.5 81.5t181.5 213.5h-581l87 328h544q-23 118 -125 201.5t-242 83.5q-145 0 -258.5 -78.5t-175.5 -216.5 l-358 140q74 171 208.5 292.5t292 178t327.5 56.5q173 0 322.5 -64.5t251.5 -180.5z" />
<glyph unicode="&#x4ed;" horiz-adv-x="1246" d="M407 1262q-80 0 -132 50.5t-52 130.5q0 94 65.5 160.5t158.5 66.5q81 0 133 -51t52 -131q0 -95 -65.5 -160.5t-159.5 -65.5zM939 1262q-80 0 -131.5 50.5t-51.5 130.5q0 94 65 160.5t158 66.5q81 0 133.5 -51t52.5 -131q0 -94 -65.5 -160t-160.5 -66zM637 1119 q125 0 228.5 -39.5t172 -108t106 -161t37.5 -198.5q0 -141 -57 -262.5t-149.5 -202t-210.5 -126t-241 -45.5q-67 0 -130 12t-123.5 39.5t-109.5 68t-86 101t-54 135.5l342 98q33 -128 187 -128q76 0 135 39t94 103h-293l56 209h272q-18 63 -70.5 101t-120.5 38 q-143 0 -216 -127l-309 108q73 159 221 252.5t319 93.5z" />
<glyph unicode="&#x4ee;" horiz-adv-x="1514" d="M747 2056h790l-74 -279h-790zM1002 497q-65 -88 -119 -152.5t-131.5 -138.5t-151 -121t-167.5 -78.5t-192 -31.5q-120 0 -253 46l95 351q93 -36 179 -36q168 0 316 176l-306 1092h434l165 -685l496 685h456z" />
<glyph unicode="&#x4ef;" horiz-adv-x="1281" d="M524 1566h790l-74 -279h-790zM-26 -539l337 537l-144 1095h384l68 -648h2l385 648h411l-1037 -1632h-406z" />
<glyph unicode="&#x4f0;" horiz-adv-x="1514" d="M1036 1976q0 -88 -58 -146t-146 -58t-145.5 58t-57.5 146q0 87 58 145.5t145 58.5t145.5 -58.5t58.5 -145.5zM1628 1976q0 -88 -58 -146t-146 -58t-145.5 58t-57.5 146q0 87 58 145.5t145 58.5t145.5 -58.5t58.5 -145.5zM1002 497q-65 -88 -119 -152.5t-131.5 -138.5 t-151 -121t-167.5 -78.5t-192 -31.5q-120 0 -253 46l95 351q93 -36 179 -36q168 0 316 176l-306 1092h434l165 -685l496 685h456z" />
<glyph unicode="&#x4f1;" horiz-adv-x="1281" d="M605 1262q-80 0 -132 50.5t-52 130.5q0 94 65.5 160.5t158.5 66.5q80 0 132.5 -51t52.5 -131q0 -95 -65.5 -160.5t-159.5 -65.5zM1137 1262q-80 0 -131.5 50.5t-51.5 130.5q0 94 65 160.5t158 66.5q81 0 133.5 -51t52.5 -131q0 -94 -65.5 -160t-160.5 -66zM-26 -539 l337 537l-144 1095h384l68 -648h2l385 648h411l-1037 -1632h-406z" />
<glyph unicode="&#x4f2;" horiz-adv-x="1514" d="M624 1745l338 402h434l-458 -402h-314zM1150 1745l338 402h434l-458 -402h-314zM1002 497q-65 -88 -119 -152.5t-131.5 -138.5t-151 -121t-167.5 -78.5t-192 -31.5q-120 0 -253 46l95 351q93 -36 179 -36q168 0 316 176l-306 1092h434l165 -685l496 685h456z" />
<glyph unicode="&#x4f3;" horiz-adv-x="1281" d="M355 1275l338 402h434l-458 -402h-314zM881 1275l338 402h434l-458 -402h-314zM-26 -539l337 537l-144 1095h384l68 -648h2l385 648h411l-1037 -1632h-406z" />
<glyph unicode="&#x4f4;" horiz-adv-x="1612" d="M1046 1976q0 -88 -58 -146t-146 -58t-145.5 58t-57.5 146q0 87 58 145.5t145 58.5t145.5 -58.5t58.5 -145.5zM1638 1976q0 -88 -58 -146t-146 -58t-145.5 58t-57.5 146q0 87 58 145.5t145 58.5t145.5 -58.5t58.5 -145.5zM1062 616q-256 -109 -448 -109q-177 0 -292 96.5 t-115 276.5q0 79 33 201l138 523h407l-127 -479q-17 -64 -17 -106q0 -144 156 -144q91 0 189 27.5t173 74.5l167 627h405l-428 -1604h-405z" />
<glyph unicode="&#x4f5;" horiz-adv-x="1270" d="M568 1262q-80 0 -132 50.5t-52 130.5q0 94 65.5 160.5t158.5 66.5q80 0 132.5 -51t52.5 -131q0 -95 -65.5 -160.5t-159.5 -65.5zM1100 1262q-80 0 -131.5 50.5t-51.5 130.5q0 94 65 160.5t158 66.5q81 0 133.5 -51t52.5 -131q0 -94 -66 -160t-160 -66zM701 334 q-62 -24 -146 -37t-148 -13q-82 0 -150.5 29.5t-115 98t-46.5 166.5q0 47 20 119l105 396h393l-89 -330q-8 -28 -8 -66q0 -42 26.5 -65t63.5 -23q104 0 180 45l117 439h389l-291 -1093h-390z" />
<glyph unicode="&#x4f8;" horiz-adv-x="2346" d="M1449 1976q0 -88 -58 -146t-146 -58t-145.5 58t-57.5 146q0 87 58 145.5t145 58.5t145.5 -58.5t58.5 -145.5zM2041 1976q0 -88 -58 -146t-146 -58t-145.5 58t-57.5 146q0 87 58 145.5t145 58.5t145.5 -58.5t58.5 -145.5zM712 1039h232q160 0 285.5 -51.5t197 -150.5 t71.5 -229q0 -146 -55 -262t-152.5 -191.5t-229 -115t-286.5 -39.5h-746l428 1604h406zM2061 1604h405l-429 -1604h-404zM621 697l-92 -341h289q116 0 190 49.5t74 149.5q0 66 -50 104t-131 38h-280z" />
<glyph unicode="&#x4f9;" horiz-adv-x="1934" d="M926 1262q-80 0 -132 50.5t-52 130.5q0 94 65.5 160.5t158.5 66.5q80 0 132.5 -51t52.5 -131q0 -95 -65.5 -160.5t-159.5 -65.5zM1458 1262q-80 0 -131.5 50.5t-51.5 130.5q0 94 65 160.5t158 66.5q81 0 133.5 -51t52.5 -131q0 -94 -66 -160t-160 -66zM-11 0l292 1093 h389l-81 -304h169q123 0 226.5 -39.5t167 -115.5t63.5 -174q0 -114 -45 -204t-122 -145t-174.5 -83t-208.5 -28h-676zM1272 0l292 1093h392l-292 -1093h-392zM517 517l-61 -229h193q76 0 126.5 33t50.5 100q0 45 -36 70.5t-86 25.5h-187z" />
<glyph unicode="&#xe3f;" horiz-adv-x="1559" d="M498 -210l56 210h-522l428 1604h522l59 222l152 1l-61 -230q65 -7 122.5 -21t117.5 -43t102.5 -69t70 -103.5t27.5 -142.5q0 -159 -103 -267.5t-260 -140.5v-3q116 -36 181 -121.5t65 -197.5q0 -218 -186.5 -353t-542.5 -135h-20l-56 -209zM897 1273h-136l-78 -301h134z M962 975q91 8 148.5 50t57.5 121q0 102 -128 122zM732 652h-135l-84 -312h135zM793 340q66 0 121.5 18t93.5 60t38 101q0 123 -170 132z" />
<glyph unicode="&#x1e20;" horiz-adv-x="1789" d="M814 2036h790l-74 -279h-790zM1402 1026q-22 95 -108.5 164.5t-232.5 69.5q-132 0 -248 -77.5t-183.5 -201.5t-67.5 -258q0 -164 102.5 -272t287.5 -108q132 0 233.5 59t151.5 157h-462l76 317h850q-5 -140 -42.5 -270.5t-110.5 -245.5t-175.5 -201t-246 -135.5 t-312.5 -49.5q-223 0 -396 91t-268.5 255t-95.5 373q0 197 76.5 372t205 298t303 194.5t365.5 71.5q132 0 244 -31t187.5 -79.5t132.5 -114t87 -129.5t42 -130z" />
<glyph unicode="&#x1e21;" horiz-adv-x="1404" d="M551 1566h790l-74 -279h-790zM466 -218q-100 0 -157.5 57.5t-57.5 146.5l-352 -69q0 -66 20.5 -130.5t65.5 -125.5t110 -107t161.5 -73.5t211.5 -27.5q201 0 351 93t244 266q42 79 85 239l278 1042h-386l-40 -147h-2q-116 164 -337 164q-118 0 -227 -54.5t-188 -144.5 t-126 -213.5t-47 -255.5q0 -114 53 -211t144.5 -153.5t199.5 -56.5q93 0 160.5 30t147.5 89h1l-23 -85q-35 -128 -109 -200.5t-181 -72.5zM647 342q-82 0 -130.5 45t-48.5 120q0 109 75 188.5t180 79.5q79 0 129 -46.5t50 -120.5q0 -109 -77 -187.5t-178 -78.5z" />
<glyph unicode="&#x1e30;" horiz-adv-x="1563" d="M941 1745l338 402h434l-458 -402h-314zM642 766l-204 -766h-408l428 1604h408l-182 -680h2l645 680h516l-801 -813l391 -791h-452z" />
<glyph unicode="&#x1e31;" horiz-adv-x="1307" d="M892 1275l338 402h434l-458 -402h-314zM-11 0l446 1669h389l-273 -1023h6l412 447h484l-528 -542l243 -551h-423l-223 538l-143 -538h-390z" />
<glyph unicode="&#x1e60;" horiz-adv-x="1444" d="M921 1751q-88 0 -145.5 56t-57.5 145q0 103 72 176.5t175 73.5q89 0 147 -56.5t58 -145.5q0 -104 -72.5 -176.5t-176.5 -72.5zM941 470q0 17 -5 33.5t-19 37.5t-45 40t-76 33l-134 41q-180 55 -288.5 174t-108.5 262q0 105 35.5 194t96.5 152t142 107.5t171.5 65.5 t185.5 21q126 0 228.5 -30.5t168.5 -79.5t110.5 -113.5t63.5 -129t19 -130.5l-377 -62q0 35 -11 69t-35 67t-70.5 53.5t-108.5 20.5q-54 0 -96.5 -16.5t-65 -41.5t-33.5 -50t-11 -48q0 -100 133 -141l137 -42q85 -26 154.5 -66t116 -85.5t78.5 -97.5t46 -102t14 -99 q0 -253 -174 -391.5t-468 -138.5q-93 0 -183 19t-173.5 59.5t-146 98.5t-100 142.5t-37.5 184.5q0 32 2 48l360 63q-3 -20 -3 -39q0 -110 78 -175t190 -65q119 0 179 50t60 107z" />
<glyph unicode="&#x1e61;" horiz-adv-x="1099" d="M642 1241q-88 0 -145.5 56t-57.5 145q0 103 72 176.5t175 73.5q89 0 147 -56.5t58 -145.5q0 -104 -72.5 -176.5t-176.5 -72.5zM620 1118q-201 0 -335 -106.5t-134 -265.5q0 -53 16.5 -98t42.5 -77t65.5 -59t78.5 -45t89 -35l76 -26q82 -27 82 -78q0 -28 -28.5 -53 t-89.5 -25q-64 0 -110.5 37t-44.5 95l-316 -51v-17q0 -39 13 -81t47 -89.5t85 -84t136.5 -60.5t192.5 -24q116 0 211.5 31.5t155.5 84t92.5 117.5t32.5 135q0 59 -16.5 108.5t-43 84t-65.5 62.5t-77.5 45.5t-86.5 33.5l-108 35q-63 21 -63 63q0 23 24 48t74 25 q43 0 79.5 -27t36.5 -80l327 37v7q0 53 -26.5 109.5t-77.5 107.5t-138.5 83.5t-196.5 32.5z" />
<glyph unicode="&#x1e80;" horiz-adv-x="2460" d="M1456 2147l176 -402h-274l-306 402h404zM1365 1070l-576 -1070h-410l-92 1604h412l31 -1014h6l548 1014h390l77 -1017h5l515 1017h430l-853 -1604h-416l-65 1070h-2z" />
<glyph unicode="&#x1e81;" horiz-adv-x="1861" d="M1056 1677l176 -402h-274l-306 402h404zM229 0l-57 1093h383l12 -587h2l349 587h316l39 -591h2l339 591h377l-640 -1093h-370l-32 586h-3l-348 -586h-369z" />
<glyph unicode="&#x1e82;" horiz-adv-x="2460" d="M1349 1745l338 402h434l-458 -402h-314zM1365 1070l-576 -1070h-410l-92 1604h412l31 -1014h6l548 1014h390l77 -1017h5l515 1017h430l-853 -1604h-416l-65 1070h-2z" />
<glyph unicode="&#x1e83;" horiz-adv-x="1861" d="M945 1275l338 402h434l-458 -402h-314zM229 0l-57 1093h383l12 -587h2l349 587h316l39 -591h2l339 591h377l-640 -1093h-370l-32 586h-3l-348 -586h-369z" />
<glyph unicode="&#x1e84;" horiz-adv-x="2460" d="M1472 1976q0 -88 -58 -146t-146 -58t-145.5 58t-57.5 146q0 87 58 145.5t145 58.5t145.5 -58.5t58.5 -145.5zM2064 1976q0 -88 -58 -146t-146 -58t-145.5 58t-57.5 146q0 87 58 145.5t145 58.5t145.5 -58.5t58.5 -145.5zM1365 1070l-576 -1070h-410l-92 1604h412 l31 -1014h6l548 1014h390l77 -1017h5l515 1017h430l-853 -1604h-416l-65 1070h-2z" />
<glyph unicode="&#x1e85;" horiz-adv-x="1861" d="M879 1262q-80 0 -132 50.5t-52 130.5q0 94 65.5 160.5t158.5 66.5q80 0 132.5 -51t52.5 -131q0 -95 -65.5 -160.5t-159.5 -65.5zM1411 1262q-80 0 -131.5 50.5t-51.5 130.5q0 94 65 160.5t158 66.5q81 0 133.5 -51t52.5 -131q0 -94 -65.5 -160t-160.5 -66zM229 0 l-57 1093h383l12 -587h2l349 587h316l39 -591h2l339 591h377l-640 -1093h-370l-32 586h-3l-348 -586h-369z" />
<glyph unicode="&#x1e90;" horiz-adv-x="1425" d="M1168 1748l-70 208l-180 -208h-324l361 388h351l162 -388h-300zM1525 1265l90 339h-1210l-97 -357h678l-954 -905l-90 -342h1247l98 360h-717z" />
<glyph unicode="&#x1e91;" horiz-adv-x="1139" d="M879 1278l-70 208l-180 -208h-324l361 388h351l162 -388h-300zM995 319h-479l604 486l76 288h-943l-84 -320h435l-575 -464l-86 -309h968z" />
<glyph unicode="&#x1ebc;" horiz-adv-x="1405" d="M1231 1748q-49 0 -93.5 17.5t-72 38t-62 38t-64.5 17.5q-21 0 -37.5 -10t-28 -28t-18 -33.5t-13.5 -36.5h-216l18 70q33 131 114.5 211t203.5 80q45 0 89 -17t72 -37t62.5 -37t63.5 -17q30 0 52 17t31 34.5t22 51.5h208q-14 -59 -19 -79q-34 -126 -115 -203t-197 -77z M458 1604h1118l-96 -359h-714l-71 -262h651l-93 -346h-650l-74 -276h721l-96 -361h-1124z" />
<glyph unicode="&#x1ebd;" horiz-adv-x="1294" d="M976 1278q-49 0 -93.5 17.5t-72 38t-62 38t-64.5 17.5q-21 0 -37.5 -10t-28 -28t-18 -33.5t-13.5 -36.5h-216l18 70q33 131 114.5 211t203.5 80q45 0 89 -17t72 -37t62.5 -37t63.5 -17q30 0 52 17t31 34.5t22 51.5h208q-14 -59 -19 -79q-34 -126 -115 -203t-197 -77z M440 449q0 -78 63 -124t135 -46q68 0 127.5 27t90.5 84l303 -138q-34 -63 -84.5 -112.5t-105 -79.5t-117 -49.5t-116.5 -27t-108 -7.5q-242 0 -398 139t-156 369q0 126 54 243.5t144 203t213 136.5t255 51q97 0 186 -30.5t158.5 -86.5t110.5 -142t41 -189q0 -111 -44 -221 h-752zM723 821q-72 0 -142.5 -42.5t-99.5 -113.5h388q8 16 8 33q0 61 -43 92t-111 31z" />
<glyph unicode="&#x1ef2;" horiz-adv-x="1558" d="M1042 2147l176 -402h-274l-306 402h404zM834 0h-406l168 635l-293 969h431l158 -589l473 589h478l-852 -1014z" />
<glyph unicode="&#x1ef3;" horiz-adv-x="1281" d="M790 1677l176 -402h-274l-306 402h404zM-26 -539l337 537l-144 1095h384l68 -648h2l385 648h411l-1037 -1632h-406z" />
<glyph unicode="&#x2000;" horiz-adv-x="1249" />
<glyph unicode="&#x2001;" horiz-adv-x="2499" />
<glyph unicode="&#x2002;" horiz-adv-x="1249" />
<glyph unicode="&#x2003;" horiz-adv-x="2499" />
<glyph unicode="&#x2004;" horiz-adv-x="833" />
<glyph unicode="&#x2005;" horiz-adv-x="624" />
<glyph unicode="&#x2006;" horiz-adv-x="416" />
<glyph unicode="&#x2007;" horiz-adv-x="416" />
<glyph unicode="&#x2008;" horiz-adv-x="312" />
<glyph unicode="&#x2009;" horiz-adv-x="499" />
<glyph unicode="&#x200a;" horiz-adv-x="138" />
<glyph unicode="&#x2010;" horiz-adv-x="923" d="M792 503h-676l87 326h676z" />
<glyph unicode="&#x2011;" horiz-adv-x="923" d="M792 503h-676l87 326h676z" />
<glyph unicode="&#x2012;" horiz-adv-x="923" d="M792 503h-676l87 326h676z" />
<glyph unicode="&#x2013;" horiz-adv-x="1258" d="M200 827h1015l-86 -322h-1015z" />
<glyph unicode="&#x2014;" horiz-adv-x="2043" d="M200 827h1800l-86 -322h-1800z" />
<glyph unicode="&#x2018;" horiz-adv-x="669" d="M762 1461q-119 -18 -199.5 -76.5t-103.5 -144.5q18 10 70 10q86 0 139.5 -53t53.5 -142q0 -98 -72.5 -163.5t-173.5 -65.5q-117 0 -178.5 73.5t-61.5 192.5q0 138 86.5 262.5t218.5 196.5t265 72z" />
<glyph unicode="&#x2019;" horiz-adv-x="671" d="M281 991q119 18 199.5 76.5t103.5 144.5q-18 -10 -70 -10q-86 0 -139.5 53t-53.5 142q0 98 72.5 163.5t173.5 65.5q117 0 178.5 -73.5t61.5 -192.5q0 -138 -86.5 -262.5t-218.5 -196.5t-265 -72z" />
<glyph unicode="&#x201a;" horiz-adv-x="680" d="M-23 -233q119 18 199.5 76.5t103.5 144.5q-18 -10 -70 -10q-86 0 -139.5 53t-53.5 142q0 98 72.5 163.5t173.5 65.5q117 0 178.5 -73.5t61.5 -192.5q0 -138 -86.5 -262.5t-218.5 -196.5t-265 -72z" />
<glyph unicode="&#x201c;" horiz-adv-x="1229" d="M762 1461q-119 -18 -199.5 -76.5t-103.5 -144.5q18 10 70 10q86 0 139.5 -53t53.5 -142q0 -98 -72.5 -163.5t-173.5 -65.5q-117 0 -178.5 73.5t-61.5 192.5q0 138 86.5 262.5t218.5 196.5t265 72zM1322 1461q-119 -18 -199.5 -76.5t-103.5 -144.5q18 10 70 10 q86 0 139.5 -53t53.5 -142q0 -98 -72.5 -163.5t-173.5 -65.5q-117 0 -178.5 73.5t-61.5 192.5q0 138 86.5 262.5t218.5 196.5t265 72z" />
<glyph unicode="&#x201d;" horiz-adv-x="1231" d="M281 991q119 18 199.5 76.5t103.5 144.5q-18 -10 -70 -10q-86 0 -139.5 53t-53.5 142q0 98 72.5 163.5t173.5 65.5q117 0 178.5 -73.5t61.5 -192.5q0 -138 -86.5 -262.5t-218.5 -196.5t-265 -72zM841 991q119 18 199.5 76.5t103.5 144.5q-18 -10 -70 -10q-86 0 -139.5 53 t-53.5 142q0 98 72.5 163.5t173.5 65.5q117 0 178.5 -73.5t61.5 -192.5q0 -138 -86.5 -262.5t-218.5 -196.5t-265 -72z" />
<glyph unicode="&#x201e;" horiz-adv-x="1240" d="M-23 -233q119 18 199.5 76.5t103.5 144.5q-18 -10 -70 -10q-86 0 -139.5 53t-53.5 142q0 98 72.5 163.5t173.5 65.5q117 0 178.5 -73.5t61.5 -192.5q0 -138 -86.5 -262.5t-218.5 -196.5t-265 -72zM537 -233q119 18 199.5 76.5t103.5 144.5q-18 -10 -70 -10 q-86 0 -139.5 53t-53.5 142q0 98 72.5 163.5t173.5 65.5q117 0 178.5 -73.5t61.5 -192.5q0 -138 -86.5 -262.5t-218.5 -196.5t-265 -72z" />
<glyph unicode="&#x2020;" horiz-adv-x="1453" d="M768 0h-366l217 813h-384l87 324h383l125 468h366l-125 -468h386l-87 -324h-385z" />
<glyph unicode="&#x2021;" horiz-adv-x="1453" d="M656 -421h-366l113 422h-434l87 324h434l118 445h-433l86 323h434l113 424h366l-113 -424h435l-86 -323h-436l-118 -445h435l-87 -324h-435z" />
<glyph unicode="&#x2022;" horiz-adv-x="1013" d="M526 390q-159 0 -253.5 90t-94.5 229q0 103 54 194.5t151 148.5t213 57q160 0 255 -90.5t95 -229.5q0 -159 -122 -279t-298 -120z" />
<glyph unicode="&#x2026;" horiz-adv-x="2030" d="M244 -24q-91 0 -156.5 65t-65.5 155q0 92 65 157.5t157 65.5q93 0 157.5 -65t64.5 -158q0 -90 -65 -155t-157 -65zM947 -24q-91 0 -156.5 65t-65.5 155q0 92 65 157.5t157 65.5q93 0 157 -65t64 -158q0 -91 -64.5 -155.5t-156.5 -64.5zM1650 -24q-91 0 -156 65t-65 155 q0 92 65 157.5t156 65.5q93 0 157.5 -65t64.5 -158q0 -90 -65 -155t-157 -65z" />
<glyph unicode="&#x202f;" horiz-adv-x="499" />
<glyph unicode="&#x2030;" horiz-adv-x="3088" d="M631 840q-172 0 -273.5 98t-101.5 249q0 112 58 211t162.5 160.5t229.5 61.5q174 0 278 -98t104 -248q0 -84 -35.5 -163t-95.5 -139t-145.5 -96t-180.5 -36zM305 0l1393 1604h340l-1391 -1604h-342zM657 1096q63 0 107 45.5t44 103.5q0 51 -34 85t-92 34q-62 0 -104 -45 t-42 -103q0 -51 32.5 -85.5t88.5 -34.5zM1638 -12q-172 0 -273.5 98t-101.5 249q0 112 58 211t162.5 160.5t229.5 61.5q174 0 278 -98t104 -248q0 -84 -35.5 -163t-95.5 -139t-145.5 -96t-180.5 -36zM1664 244q63 0 107 45.5t44 103.5q0 51 -34.5 85t-91.5 34 q-62 0 -104 -45t-42 -103q0 -51 32.5 -85.5t88.5 -34.5zM2526 -12q-172 0 -273.5 98t-101.5 249q0 112 58 211t162.5 160.5t229.5 61.5q174 0 278 -98t104 -248q0 -84 -35.5 -163t-95.5 -139t-145.5 -96t-180.5 -36zM2552 244q63 0 107 45.5t44 103.5q0 51 -34.5 85 t-91.5 34q-62 0 -104 -45t-42 -103q0 -51 32.5 -85.5t88.5 -34.5z" />
<glyph unicode="&#x2039;" horiz-adv-x="827" d="M656 310l-224 -171l-356 478l604 472l160 -206l-389 -303z" />
<glyph unicode="&#x203a;" horiz-adv-x="827" d="M219 924l224 171l356 -478l-604 -472l-160 206l389 302z" />
<glyph unicode="&#x203d;" horiz-adv-x="1277" d="M860 1630q208 0 347.5 -107.5t139.5 -283.5q0 -82 -20.5 -153t-50.5 -121.5t-86.5 -108.5t-104 -97.5t-129 -106.5t-137.5 -117h-380l76 486h320l-27 -130q85 70 133 136.5t48 141.5q0 65 -51 104.5t-121 39.5q-112 0 -183 -64.5t-71 -147.5l-316 36q0 89 42 175.5 t117.5 158t194.5 115.5t259 44zM600 422q87 0 144.5 -56t57.5 -143q0 -104 -71.5 -176t-174.5 -72q-88 0 -144.5 55.5t-56.5 143.5q0 102 71.5 175t173.5 73z" />
<glyph unicode="&#x2042;" horiz-adv-x="1894" d="M1271 892l-200 -79l-88 220l-183 -147l-135 168l180 147l-196 128l118 179l195 -127l62 231l214 -58l-62 -230l232 12l15 -214l-234 -14zM687 41l-201 -78l-87 220l-184 -148l-135 168l180 147l-196 129l118 178l195 -126l62 230l214 -58l-62 -230l232 12l16 -214 l-235 -14zM1617 41l-201 -78l-87 220l-184 -148l-135 168l180 147l-196 129l118 178l195 -126l62 230l214 -58l-62 -230l232 12l15 -214l-234 -14z" />
<glyph unicode="&#x2044;" horiz-adv-x="1008" d="M-120 0l1051 1604h346l-1050 -1604h-347z" />
<glyph unicode="&#x2051;" horiz-adv-x="1002" d="M928 892l-201 -79l-87 220l-184 -147l-135 168l180 147l-196 128l118 179l195 -127l62 231l214 -58l-62 -230l232 12l15 -214l-234 -14zM700 41l-201 -78l-87 220l-184 -148l-135 168l180 147l-196 129l118 178l195 -126l62 230l214 -58l-62 -230l232 12l16 -214 l-235 -14z" />
<glyph unicode="&#x205f;" horiz-adv-x="624" />
<glyph unicode="&#x20a4;" horiz-adv-x="1475" d="M1094 1085q3 23 3 44q0 64 -40.5 109.5t-108.5 45.5q-90 0 -137.5 -71.5t-47.5 -166.5q0 -22 1 -33h315l-48 -180h-253q2 -36 2 -52q0 -18 -2 -50h226l-48 -179h-225q-60 -122 -201 -204h261q228 0 278 220l324 -57q-39 -239 -200 -375t-376 -136h-839l86 325 q90 19 169.5 80.5t125.5 146.5h-226l48 179h226q0 17 -5 102h-194l48 180h138q12 283 176 450t433 167q99 0 186.5 -29.5t153 -83t104 -135t38.5 -180.5q0 -15 -6 -75z" />
<glyph unicode="&#x20a9;" horiz-adv-x="2610" d="M2497 1063h150l-60 -232h-214l-54 -102h240l-60 -232h-303l-264 -497h-417l-65 1070h-2l-576 -1070h-410l-29 497h-321l59 232h249l-6 102h-215l60 232h142l-31 541h413l31 -1014h6l548 1014h390l76 -1017h5l515 1017h430z" />
<glyph unicode="&#x20ab;" horiz-adv-x="1543" d="M1658 1252h-173l-281 -1052q-22 -87 -27 -162v-38h-391q-2 17 0 36q0 30 10 82h-3q-146 -140 -316 -140q-124 0 -216.5 64t-136.5 164t-44 218q0 137 48 264.5t128.5 221t192 149.5t233.5 56q216 0 331 -161h2l80 298h-308l68 253h307l44 164h390l-44 -164h174zM661 321 q106 0 186 81.5t80 196.5q0 77 -52 125t-134 48q-109 0 -187.5 -82.5t-78.5 -196.5q0 -78 50.5 -125t135.5 -47zM-3 -118h1121l-86 -322h-1121z" />
<glyph unicode="&#x20ac;" horiz-adv-x="1991" d="M780 538q36 -88 128 -136.5t216 -48.5q88 0 164.5 29t129 76.5t86 94t55.5 95.5l359 -138q-28 -72 -73 -142t-118.5 -142t-164 -126.5t-216 -89t-266.5 -34.5q-183 0 -340 69.5t-262.5 197.5t-140.5 295h-242l58 216h170q5 59 13 104h-156l58 216h166q114 249 349 403 t518 154q145 0 265.5 -34.5t199.5 -89.5t137 -129t87.5 -147t42.5 -151l-390 -122q-9 43 -25 82t-46.5 79.5t-71.5 69.5t-103.5 47.5t-139.5 18.5q-119 0 -219.5 -51.5t-146.5 -129.5h480l-99 -216h-486q-13 -44 -18 -104h465l-100 -216h-323z" />
<glyph unicode="&#x20ae;" horiz-adv-x="1481" d="M1136 1236l-64 -241l392 120l-66 -247l-392 -120l-29 -109l392 120l-66 -247l-392 -120l-105 -392h-400l69 259l-391 -119l65 247l392 120l29 108l-391 -119l65 247l392 120l100 373h-456l98 368h1311l-98 -368h-455z" />
<glyph unicode="&#x20b1;" horiz-adv-x="1714" d="M1765 985h-129q-56 -198 -237 -312q-185 -118 -451 -118h-264l-149 -555h-406l263 985h-170l48 181h171l117 438h500q240 0 381 -76q105 -56 160.5 -149t59.5 -213h154zM868 1253l-23 -89h401q-6 25 -22 39q-55 50 -172 50h-184zM966 894q179 0 250 93h-418l-24 -93h192z " />
<glyph unicode="&#x20b4;" horiz-adv-x="1571" d="M1092 1103q22 37 22 75q0 58 -41 87.5t-100 29.5q-79 0 -161 -51.5t-140 -121.5l-238 219q112 137 264 213.5t324 76.5q74 0 143 -11.5t135 -39t115 -69t79 -106t30 -144.5q0 -81 -34 -158h133l-63 -235h-1371l63 235h840zM1470 531h-853q-39 -44 -39 -101 q0 -61 44.5 -88.5t108.5 -27.5q110 0 219.5 55.5t186.5 143.5l236 -225q-117 -139 -293 -225t-410 -86q-72 0 -141 11.5t-137 39t-118.5 68.5t-82 104.5t-31.5 142.5q0 102 52 188h-113l63 235h1370z" />
<glyph unicode="&#x20b8;" horiz-adv-x="1499" d="M1687 1604l-97 -365h-1311l97 365h1311zM807 0h-406l202 755h-453l97 364h1311l-97 -364h-452z" />
<glyph unicode="&#x20b9;" horiz-adv-x="1350" d="M1181 1311q46 -57 54 -133h209l-50 -189h-178q-36 -130 -139.5 -227t-279.5 -147l181 -615h-410l-155 564h-302l87 324h293q90 0 168 25t122 76h-557l51 189h539q-9 23 -26 42q-54 59 -205 59h-281l86 325h1170l-78 -293h-299z" />
<glyph unicode="&#x20ba;" horiz-adv-x="1535" d="M1514 705q-29 -116 -76.5 -216.5t-123 -192t-172.5 -156t-231 -102.5t-293 -38h-434l145 542l-235 -94l68 258l236 95l26 99l-235 -94l69 257l235 94l119 447h403l-71 -266l368 148l-69 -258l-368 -147l-26 -99l367 147l-69 -259l-367 -147l-97 -362q85 0 156 25t118 64 t84 92t56.5 102t32.5 102z" />
<glyph unicode="&#x20bd;" horiz-adv-x="1596" d="M1673 1149q0 -17 -0.5 -30t-5 -51.5t-13.5 -70.5t-28 -78.5t-45.5 -86t-69.5 -82.5t-97 -77q-187 -118 -451 -118h-245l-33 -122h346l-54 -201h-345l-62 -232h-406l62 232h-189l53 201h190l32 122h-188l83 312h188l197 737h480q240 0 381 -76q108 -58 164 -155.5 t56 -223.5zM957 893q56 0 107 11t96.5 34.5t72.5 66.5t27 100q0 59 -41 96q-53 49 -168 49h-150l-92 -357h148z" />
<glyph unicode="&#x2113;" horiz-adv-x="991" d="M518 540q-2 -8 -9 -32.5t-10.5 -37.5t-8.5 -33.5t-7 -38t-2 -33.5q0 -114 187 -114q56 0 119 20l-70 -262q-96 -28 -178 -28q-157 0 -257 78t-100 230q0 54 28 152q-86 -25 -168 -28l70 263q108 19 172 43l125 474q45 170 143.5 255t269.5 85q127 0 212.5 -72.5 t85.5 -197.5q0 -91 -38 -183.5t-99 -170t-141.5 -149.5t-161 -125.5t-162.5 -94.5zM836 1220q0 50 -52 50q-71 0 -96 -94l-84 -314q85 50 158.5 158t73.5 200z" />
<glyph unicode="&#x2116;" horiz-adv-x="2721" d="M699 995h-2l-266 -995h-402l428 1604h454l318 -980h1l263 980h402l-428 -1604h-442zM2304 606q128 0 233.5 62.5t163.5 163.5t58 215q0 153 -101.5 252t-276.5 99q-96 0 -181 -36.5t-144 -97t-93.5 -140.5t-34.5 -165q0 -154 101 -253.5t275 -99.5zM2319 846 q-62 0 -95 35.5t-33 90.5q0 74 50.5 130t125.5 56q57 0 92.5 -34t35.5 -91q0 -76 -51.5 -131.5t-124.5 -55.5zM1734 191l74 278h786l-74 -278h-786z" />
<glyph unicode="&#x2122;" horiz-adv-x="2172" d="M608 679h-233l190 713h-261l56 212h755l-57 -212h-260zM1980 1264h-2l-377 -585h-140l-77 581h-2l-156 -581h-223l247 925h287l76 -567l365 567h322l-247 -925h-229z" />
<glyph unicode="&#x212e;" horiz-adv-x="1810" d="M997 -24q-184 0 -335 65t-251 179t-154.5 266.5t-54.5 328.5q0 168 58 317t160.5 258.5t252.5 173.5t324 64q230 0 412.5 -108.5t281.5 -292.5t99 -408v-18h-1238v-520q80 -83 202.5 -131.5t242.5 -48.5q209 0 359.5 89t231.5 253l108 -60q-85 -187 -269.5 -297 t-429.5 -110zM1444 1331q-80 83 -203.5 128.5t-246.5 45.5q-261 0 -442 -171v-407h892v404z" />
<glyph unicode="&#x2153;" horiz-adv-x="2484" d="M774 675h-323l155 594l-220 -107l-105 213l468 229h270zM926 0h-347l1052 1604h345zM1887 220q47 0 88.5 28.5t41.5 69.5q0 35 -26 52t-58 17q-41 0 -95 -22l-65 167l236 144h-369l66 249h752l-58 -219l-246 -150q64 -24 109 -89.5t45 -134.5q0 -84 -37 -153.5 t-98.5 -113t-136 -67t-153.5 -23.5q-74 0 -138.5 16t-116.5 47.5t-82.5 85t-30.5 121.5q0 16 1 25l265 76l-1 -8q-1 -48 28.5 -83t78.5 -35z" />
<glyph unicode="&#x2154;" horiz-adv-x="2526" d="M132 675l13 68q27 141 120.5 232.5t242.5 152.5l135 55q49 20 91 54t42 75q0 31 -26 47.5t-57 16.5q-61 0 -100 -45t-39 -104l-268 31q22 161 150 264t298 103q60 0 119 -17.5t108 -49t79.5 -82.5t30.5 -113q0 -228 -315 -366q-154 -62 -189 -83h395l-64 -239h-766z M998 0h-347l1052 1604h345zM1959 220q47 0 88.5 28.5t41.5 69.5q0 35 -26 52t-58 17q-39 0 -95 -22l-65 167l236 144h-369l67 249h751l-58 -219l-245 -150q64 -24 109 -89.5t45 -134.5q0 -84 -37.5 -153.5t-98.5 -113t-136 -67t-153 -23.5q-74 0 -139 16t-117 47.5t-82.5 85 t-30.5 121.5q0 4 0.5 12t0.5 13l265 76v-8q0 -49 29 -83.5t77 -34.5z" />
<glyph unicode="&#x215b;" horiz-adv-x="2445" d="M774 675h-323l155 594l-220 -107l-105 213l468 229h270zM926 0h-347l1052 1604h345zM2010 952q-165 0 -283.5 -84t-118.5 -212q0 -94 86 -158q-95 -30 -157 -100t-62 -165q0 -117 113.5 -187.5t281.5 -70.5q173 0 289.5 83.5t116.5 218.5q0 53 -28.5 98.5t-75.5 74.5 q85 33 138.5 95.5t53.5 147.5q0 107 -104.5 183t-249.5 76zM1987 716q32 0 60.5 -17.5t28.5 -47.5q0 -36 -33 -57t-71 -21q-32 0 -60.5 17.5t-28.5 47.5q0 37 32.5 57.5t71.5 20.5zM1890 368q37 0 72.5 -19t35.5 -54q0 -40 -38 -61t-82 -21q-37 0 -72.5 19t-35.5 53 q0 40 38 61.5t82 21.5z" />
<glyph unicode="&#x215c;" horiz-adv-x="2444" d="M558 899q47 0 88.5 28.5t41.5 69.5q0 35 -25.5 52t-57.5 17q-40 0 -96 -22l-64 167l236 144h-369l66 249h752l-58 -219l-246 -151q64 -23 109 -88.5t45 -134.5q0 -84 -37 -153.5t-98.5 -113t-136 -67t-153.5 -23.5q-100 0 -181 27t-134 90t-53 153q0 16 1 25l264 76v-8 q0 -49 29 -83.5t77 -34.5zM947 0h-348l1052 1604h345zM2030 952q-164 0 -282.5 -84t-118.5 -212q0 -96 86 -158q-96 -30 -158 -100t-62 -165q0 -117 114 -187.5t281 -70.5q173 0 289.5 83.5t116.5 218.5q0 53 -28.5 98.5t-75.5 74.5q85 33 138.5 95.5t53.5 147.5 q0 107 -104.5 183t-249.5 76zM2007 716q32 0 60.5 -17.5t28.5 -47.5q0 -36 -32.5 -57t-71.5 -21q-32 0 -60.5 17.5t-28.5 47.5q0 37 32.5 57.5t71.5 20.5zM1910 368q38 0 73.5 -19t35.5 -54q0 -40 -38.5 -61t-81.5 -21q-37 0 -73 19t-36 53q0 40 38 61.5t82 21.5z" />
<glyph unicode="&#x215d;" horiz-adv-x="2444" d="M685 1010q0 34 -26.5 54t-60.5 20q-59 0 -109 -37l-214 101l195 456h634l-67 -249h-414l-49 -112h1q72 45 166 45q107 0 176.5 -71t69.5 -181q0 -117 -65 -206t-164.5 -132.5t-214.5 -43.5q-60 0 -116.5 13.5t-109 41t-92 77.5t-56.5 116l250 113q23 -112 135 -112 q52 0 91.5 28t39.5 79zM941 0h-347l1052 1604h345zM2025 952q-165 0 -283 -84t-118 -212q0 -95 85 -158q-95 -30 -157 -100t-62 -165q0 -117 113.5 -187.5t281.5 -70.5q173 0 289.5 83.5t116.5 218.5q0 53 -28.5 98.5t-75.5 74.5q85 33 138.5 95.5t53.5 147.5 q0 107 -104.5 183t-249.5 76zM2002 716q32 0 60.5 -17.5t28.5 -47.5q0 -36 -33 -57t-71 -21q-32 0 -60.5 17.5t-28.5 47.5q0 37 32.5 57.5t71.5 20.5zM1905 368q38 0 73.5 -19t35.5 -54q0 -40 -38.5 -61t-82.5 -21q-37 0 -72.5 19t-35.5 53q0 40 38 61.5t82 21.5z" />
<glyph unicode="&#x215e;" horiz-adv-x="2261" d="M763 0h-347l1052 1604h345zM558 675h-376l484 648h-378l75 280h743l-73 -273zM1847 952q-165 0 -283.5 -84t-118.5 -212q0 -94 86 -158q-95 -30 -157 -100t-62 -165q0 -117 113.5 -187.5t281.5 -70.5q173 0 289.5 83.5t116.5 218.5q0 53 -28.5 98.5t-75.5 74.5 q85 33 138.5 95.5t53.5 147.5q0 107 -104.5 183t-249.5 76zM1824 716q32 0 60.5 -17.5t28.5 -47.5q0 -36 -33 -57t-71 -21q-32 0 -60.5 17.5t-28.5 47.5q0 37 32.5 57.5t71.5 20.5zM1727 368q37 0 72.5 -19t35.5 -54q0 -40 -38 -61t-82 -21q-37 0 -72.5 19t-35.5 53 q0 40 38 61.5t82 21.5z" />
<glyph unicode="&#x2190;" horiz-adv-x="1359" d="M1344 567h-692q169 -165 273 -274l-232 -220l-598 646v53l598 647l232 -220q-104 -109 -273 -274h692v-358z" />
<glyph unicode="&#x2191;" horiz-adv-x="1359" d="M566 122v692q-165 -169 -274 -273l-219 232l645 598h53l647 -598l-220 -232q-109 104 -274 273v-692h-358z" />
<glyph unicode="&#x2192;" horiz-adv-x="1359" d="M826 925q-169 165 -273 274l233 220l597 -647v-53l-597 -646l-233 220q104 109 273 274h-692v358h692z" />
<glyph unicode="&#x2193;" horiz-adv-x="1359" d="M913 1369v-692q114 120 274 274l219 -233l-645 -598h-53l-647 598l220 233q139 -135 274 -274v692h358z" />
<glyph unicode="&#x2196;" horiz-adv-x="1359" d="M1031 164l-490 489q3 -193 0 -387l-320 9l34 879l37 38l880 35l9 -320q-181 -4 -387 -1l490 -489z" />
<glyph unicode="&#x2197;" horiz-adv-x="1359" d="M640 906q-206 -3 -387 1l9 320l880 -35l38 -38l34 -879l-320 -9q-3 129 -1 387l-489 -489l-253 253z" />
<glyph unicode="&#x2198;" horiz-adv-x="1359" d="M419 1227l489 -490q-2 258 1 387l320 -9l-34 -879l-38 -37l-880 -35l-9 320q194 3 387 0l-489 490z" />
<glyph unicode="&#x2199;" horiz-adv-x="1359" d="M812 484q194 3 387 0l-9 -320l-880 35l-37 37l-34 879l320 9q3 -194 0 -387l490 490l253 -253z" />
<glyph unicode="&#x21a9;" horiz-adv-x="2256" d="M637 -233l-598 645v53l598 647l232 -220q-119 -124 -272 -274h909q164 0 274 88.5t110 227.5q0 144 -107 230t-283 86h-395v354h413q161 0 298.5 -51.5t233 -140.5t149.5 -212.5t54 -265.5t-53.5 -266t-148.5 -213.5t-233 -141.5t-300 -52h-920q123 -120 271 -275z" />
<glyph unicode="&#x21b0;" horiz-adv-x="2019" d="M1121 1253q207 0 366 -71t249 -209t90 -325v-648h-363v610q0 138 -95 212t-259 74h-336q138 -135 272 -275l-232 -219l-598 647v53l598 645l232 -220q-133 -139 -271 -274h347z" />
<glyph unicode="&#x21b1;" horiz-adv-x="1681" d="M1206 1253q-128 126 -272 274l233 220l598 -645v-53l-598 -647l-233 219q144 149 273 275h-336q-164 0 -259 -74t-95 -212v-610h-363v648q0 187 90 325t249 209t366 71h347z" />
<glyph unicode="&#x21b2;" horiz-adv-x="1680" d="M623 351q138 -135 271 -274l-232 -220l-598 646v53l598 647l232 -220q-140 -146 -272 -274h336q165 0 259.5 74t94.5 212v609h363v-648q0 -187 -90 -325t-249 -209t-366 -71h-347z" />
<glyph unicode="&#x21b3;" horiz-adv-x="2019" d="M1045 351q-207 0 -366 71t-249 209t-90 325v648h363v-609q0 -138 94.5 -212t259.5 -74h336q-123 119 -273 274l233 220l598 -647v-53l-598 -646l-233 220q144 148 272 274h-347z" />
<glyph unicode="&#x21b4;" horiz-adv-x="2124" d="M1589 552q128 132 274 272l220 -233l-645 -597h-53l-647 597l219 233q146 -140 274 -272v335q0 166 -74 265t-211 99h-610v353h648q187 0 325 -90t209 -248.5t71 -365.5v-348z" />
<glyph unicode="&#x2202;" horiz-adv-x="1443" d="M601 -27q-82 0 -158.5 16t-146.5 52t-121.5 88.5t-82.5 130.5t-31 173q0 131 58.5 246.5t154 193.5t219.5 123t254 45q159 0 278 -65q-2 137 -75 221.5t-208 84.5q-139 0 -333 -91l-86 302q112 61 249 99t259 38q146 0 260 -49.5t187 -138t111 -209t38 -265.5 q0 -129 -23 -251t-67 -233.5t-114 -204t-159.5 -161.5t-208 -107t-254.5 -38zM765 716q-75 0 -141 -24t-112.5 -80t-46.5 -134q0 -72 53.5 -112.5t127.5 -40.5q128 0 214 88t117 224q-36 37 -96 58t-116 21z" />
<glyph unicode="&#x2206;" horiz-adv-x="1823" d="M976 1604h455l188 -1604h-1687zM575 349h610l-93 801z" />
<glyph unicode="&#x220f;" horiz-adv-x="1684" d="M1222 0h-391l332 1245h-255l-332 -1245h-392l333 1245h-244l96 359h1525l-96 -359h-243z" />
<glyph unicode="&#x2211;" horiz-adv-x="1426" d="M55 338l633 491l-359 448l89 327h1186l-97 -363h-677l360 -450l-548 -428h634l-97 -363h-1215z" />
<glyph unicode="&#x2212;" horiz-adv-x="1305" d="M231 909h1043l-87 -324h-1042z" />
<glyph unicode="&#x221a;" horiz-adv-x="1539" d="M726 1274l178 -794h7l677 1482h278l-892 -1962h-305l-229 1012h-293l70 262h509z" />
<glyph unicode="&#x221e;" horiz-adv-x="2079" d="M1479 201q-126 0 -231.5 68.5t-207.5 184.5q-67 -55 -96.5 -78.5t-91 -65t-105 -60t-105 -34t-124.5 -15.5q-172 0 -284 108t-112 279q0 111 44 212t117.5 174t175 115.5t212.5 42.5q127 0 234.5 -69.5t207.5 -186.5q56 46 80.5 65.5t75 57.5t85 55.5t83 39t97 30 t101.5 8.5q173 0 284.5 -109t111.5 -281q0 -150 -74.5 -274.5t-201 -195.5t-276.5 -71zM644 830q-76 0 -135.5 -56.5t-59.5 -132.5q0 -58 38.5 -98.5t97.5 -40.5q36 0 74 14t82 45t64 47t64 53q-71 87 -107 117q-61 52 -118 52zM1572 830q-36 0 -75 -15t-82.5 -45 t-67.5 -49.5t-64 -53.5q69 -82 101 -109q65 -56 129 -56q74 0 133 58t59 132q0 58 -37.5 98t-95.5 40z" />
<glyph unicode="&#x222b;" horiz-adv-x="1004" d="M490 1202q25 94 69.5 169.5t110.5 135t160.5 92t210.5 32.5q144 0 216 -44l-78 -296q-49 16 -108 16q-89 0 -138.5 -42.5t-72.5 -128.5l-337 -1252q-25 -94 -69 -170t-110 -135.5t-160.5 -92.5t-210.5 -33q-145 0 -216 45l78 295q54 -16 108 -16q88 0 138 42.5t73 128.5z " />
<glyph unicode="&#x2236;" horiz-adv-x="720" d="M478 819q-94 0 -154.5 59.5t-60.5 153.5q0 110 76 187.5t186 77.5q94 0 155.5 -60t61.5 -153q0 -110 -77 -187.5t-187 -77.5zM301 156q-94 0 -155 59.5t-61 152.5q0 110 76.5 188t185.5 78q94 0 155.5 -60t61.5 -154q0 -110 -77 -187t-186 -77z" />
<glyph unicode="&#x2248;" horiz-adv-x="1374" d="M1025 789q-59 0 -122.5 25t-108.5 55.5t-96 55.5t-88 25q-46 0 -90 -30.5t-76 -74.5l-205 161q76 119 166 187.5t211 68.5q64 0 131 -25.5t112 -56t93 -56t79 -25.5q47 0 90.5 30t76.5 74l205 -160q-75 -118 -165.5 -186t-212.5 -68zM876 236q-59 0 -122.5 25t-108 55.5 t-95.5 55.5t-89 25q-46 0 -89.5 -30.5t-76.5 -74.5l-205 161q75 118 165.5 186.5t211.5 68.5q64 0 131 -25.5t112 -56t93 -56t80 -25.5q46 0 89.5 30.5t76.5 74.5l205 -161q-48 -76 -98.5 -128.5t-123.5 -88.5t-156 -36z" />
<glyph unicode="&#x2260;" horiz-adv-x="1300" d="M932 850l-139 -203h410l-85 -320h-543l-211 -313l-223 127l126 186h-191l85 320h322l138 203h-406l86 322h539l215 317l224 -129l-127 -188h192l-86 -322h-326z" />
<glyph unicode="&#x2264;" horiz-adv-x="1356" d="M1265 738l-88 -324l-986 372l88 330l1184 369l-91 -347l-750 -198l-1 -3zM61 300h1100l-88 -330h-1100z" />
<glyph unicode="&#x2265;" horiz-adv-x="1347" d="M319 1163l86 322l987 -369l-89 -330l-1185 -372l94 349l750 198l1 3zM74 300h1100l-88 -330h-1100z" />
<glyph unicode="&#x25a0;" horiz-adv-x="1860" d="M1658 1457v-1457h-1451v1457h1451z" />
<glyph unicode="&#x25a1;" horiz-adv-x="1860" d="M207 1457h1451v-1457h-1451v1457zM1418 227v1001h-978v-1001h978z" />
<glyph unicode="&#x25b2;" horiz-adv-x="1716" d="M0 0l862 1495l854 -1495h-1716z" />
<glyph unicode="&#x25b3;" horiz-adv-x="1716" d="M0 0l858 1495l858 -1495h-1716zM406 229h903l-451 794z" />
<glyph unicode="&#x25ca;" horiz-adv-x="1631" d="M422 0l-366 804l750 800h411l367 -800l-751 -804h-411zM516 789l188 -416l421 449l-187 416z" />
<glyph unicode="&#x25cb;" horiz-adv-x="1665" d="M74 730q0 155 60 295.5t162 242.5t242.5 162t295.5 60q154 0 294.5 -60t241.5 -162t161 -242.5t60 -295.5t-60 -295.5t-161 -241.5t-241.5 -161t-294.5 -60q-155 0 -295.5 60t-242.5 161t-162 241.5t-60 295.5zM309 730q0 -143 70 -264.5t191 -192.5t264 -71 q141 0 260 71t188.5 192.5t69.5 264.5t-69.5 264.5t-188.5 192.5t-260 71q-143 0 -264 -71t-191 -192.5t-70 -264.5z" />
<glyph unicode="&#x25cf;" horiz-adv-x="1665" d="M74 730q0 155 60 295.5t161 242.5t241.5 162t294.5 60q155 0 295.5 -60t242.5 -162t162 -242.5t60 -295.5t-60 -295.5t-162 -241.5t-242.5 -161t-295.5 -60q-154 0 -294.5 60t-241.5 161t-161 241.5t-60 295.5z" />
<glyph unicode="&#x25fc;" horiz-adv-x="1095" d="M0 1095h1095v-1095h-1095v1095z" />
<glyph unicode="&#x2605;" horiz-adv-x="1716" d="M1049 907h618l-500 -363l191 -587l-500 363l-501 -359l192 583l-499 363h617l191 588z" />
<glyph unicode="&#x2611;" horiz-adv-x="1958" d="M1658 1321v-1321h-1451v1457h1253l266 464l207 -124zM437 1231v-349l182 157l354 -432l358 624h-894zM1421 910l-396 -686h396v686zM437 224h540l-540 651v-651z" />
<glyph unicode="&#x2612;" horiz-adv-x="1860" d="M207 1457h1451v-1457h-1451v1457zM437 1231v-1007h984v1007h-984zM1404 415l-312 312l312 316l-161 161l-312 -315l-314 314l-163 -160l316 -316l-316 -319l161 -163l316 319l312 -312z" />
<glyph unicode="&#x2639;" horiz-adv-x="1665" d="M1591 730q0 -155 -60 -295.5t-161 -241.5t-241.5 -161t-294.5 -60q-155 0 -295.5 60t-242.5 161t-162 241.5t-60 295.5t60 295.5t162 242.5t242.5 162t295.5 60q154 0 294.5 -60t241.5 -162t161 -242.5t60 -295.5zM1386 730q0 153 -73.5 282.5t-201 205t-277.5 75.5 q-153 0 -281.5 -75.5t-203 -205t-74.5 -282.5t74.5 -282.5t203 -205t281.5 -75.5q150 0 277.5 75.5t201 205t73.5 282.5zM783 930q0 -56 -40 -95.5t-96 -39.5t-96 39.5t-40 95.5t40 96t96 40t96 -40t40 -96zM1153 930q0 -56 -39.5 -95.5t-95.5 -39.5t-96 39.5t-40 95.5 t40 96t96 40t95.5 -40t39.5 -96zM1076 369q-12 94 -84.5 152.5t-158.5 58.5q-88 0 -161 -58t-85 -153h-159q20 159 136 260t269 101q151 0 266.5 -102t135.5 -259h-159z" />
<glyph unicode="&#x263a;" horiz-adv-x="1665" d="M834 -28q-155 0 -295.5 60t-242.5 161t-162 241.5t-60 295.5t60 295.5t162 242.5t242.5 162t295.5 60q154 0 294.5 -60t241.5 -162t161 -242.5t60 -295.5t-60 -295.5t-161 -241.5t-241.5 -161t-294.5 -60zM834 1293q-153 0 -281.5 -75.5t-203 -205t-74.5 -282.5 t74.5 -282.5t203 -205t281.5 -75.5q150 0 277.5 75.5t201 205t73.5 282.5t-73.5 282.5t-201 205t-277.5 75.5zM783 930q0 -56 -40 -95.5t-96 -39.5t-96 39.5t-40 95.5t40 96t96 40t96 -40t40 -96zM1153 930q0 -56 -39.5 -95.5t-95.5 -39.5t-96 39.5t-40 95.5t40 96t96 40 t95.5 -40t39.5 -96zM1235 679q-20 -157 -135.5 -259t-266.5 -102q-153 0 -269 101t-136 260h159q12 -95 85 -153t161 -58q86 0 158.5 58.5t84.5 152.5h159z" />
<glyph unicode="&#x263b;" horiz-adv-x="1665" d="M834 -28q-155 0 -295.5 60t-242.5 161t-162 241.5t-60 295.5t60 295.5t162 242.5t242.5 162t295.5 60q154 0 294.5 -60t241.5 -162t161 -242.5t60 -295.5t-60 -295.5t-161 -241.5t-241.5 -161t-294.5 -60zM783 930q0 56 -40 96t-96 40t-96 -40t-40 -96t40 -95.5t96 -39.5 t96 39.5t40 95.5zM1153 930q0 56 -39.5 96t-95.5 40t-96 -40t-40 -96t40 -95.5t96 -39.5t95.5 39.5t39.5 95.5zM1076 679q-12 -94 -84.5 -152.5t-158.5 -58.5q-88 0 -161 58t-85 153h-159q20 -159 136 -260t269 -101q151 0 266.5 102t135.5 259h-159z" />
<glyph unicode="&#x2665;" horiz-adv-x="1785" d="M7 983q0 198 134.5 334t332.5 136q117 0 216.5 -58t147.5 -161q50 106 149.5 162.5t221.5 56.5q194 0 327 -138t133 -332q0 -125 -55.5 -253t-139 -232.5t-199.5 -208t-219.5 -176.5t-217.5 -141h-1q-93 56 -179.5 116t-184.5 138.5t-178 164.5t-147 180.5t-104 200.5 t-37 211z" />
<glyph unicode="&#x2713;" horiz-adv-x="1929" d="M30 628l169 161l440 -476l1059 1153l169 -165l-1234 -1334z" />
<glyph unicode="&#x2715;" horiz-adv-x="1546" d="M203 -10l-164 166l567 571l-567 567l166 164l565 -565l561 565l164 -164l-561 -567l573 -571l-164 -166l-573 571z" />
<glyph unicode="&#x2e18;" horiz-adv-x="1336" d="M782 672q-87 0 -144.5 56t-57.5 143q0 104 71.5 176t174.5 72q88 0 144.5 -55.5t56.5 -143.5q0 -102 -71.5 -175t-173.5 -73zM1135 -43q0 -89 -42 -175.5t-117.5 -158t-194.5 -115.5t-259 -44q-208 0 -347.5 107.5t-139.5 283.5q0 82 20.5 153t50.5 121.5t86.5 108.5 t104 97.5t129 106.5t137.5 117h380l-76 -486h-320l27 130q-85 -70 -133 -136.5t-48 -141.5q0 -65 51 -104.5t121 -39.5q112 0 183 64.5t71 147.5z" />
<glyph unicode="&#xe008;" horiz-adv-x="1585" d="M988 1631q140 0 253 -50.5t186.5 -138t113 -204.5t39.5 -252q0 -121 -25.5 -242t-73 -233.5t-121 -210t-163.5 -169.5t-206.5 -113.5t-244.5 -41.5q-188 0 -323.5 84t-202.5 228t-67 333q0 144 36 288.5t107.5 274t170 229.5t234 159t287.5 59zM938 1264 q-71 0 -133 -39.5t-103.5 -101.5t-73 -141t-47.5 -154.5t-20 -145.5l539 517q-59 65 -162 65zM791 343q89 0 162.5 59.5t118 152t70 188.5t30.5 184l-541 -521q58 -63 160 -63z" />
<glyph unicode="&#xe09d;" horiz-adv-x="1787" d="M1425 441q-7 -25 -7 -44q0 -90 120 -90q49 0 101 11l-81 -307q-87 -29 -211 -29q-150 0 -242.5 80.5t-92.5 227.5q0 66 19 136l93 349h-419l-207 -775h-387l207 775h-202l85 318h199l42 152q54 196 189.5 312.5t360.5 116.5q146 0 216 -44l-80 -302q-49 23 -105 23 q-88 0 -138 -43t-74 -128l-25 -87h433l95 355h380l-95 -355h253l-85 -318h-253z" />
<glyph unicode="&#xf633;" horiz-adv-x="1793" d="M1482 1202q-164 -499 -164 -565q0 -60 55 -60q63 0 119 41t91.5 103t55.5 131t20 128q0 148 -84.5 263.5t-214.5 174.5t-276 59q-152 0 -292.5 -63.5t-241.5 -169t-161 -248t-60 -294.5q0 -250 167 -410t424 -160q112 0 237.5 40t220.5 104l67 -129q-96 -77 -251 -125 t-286 -48q-152 0 -287.5 52.5t-236 144.5t-159.5 227t-59 292q0 189 72 362.5t194.5 300.5t295 202.5t364.5 75.5q105 0 209.5 -27.5t198 -82.5t165.5 -129.5t114 -175t42 -213.5q0 -85 -22 -172t-66.5 -166.5t-104.5 -141t-142.5 -98.5t-174.5 -37q-67 0 -130.5 30 t-85.5 86q-45 -51 -118 -85t-141 -34q-125 0 -207.5 95.5t-82.5 223.5t64.5 245t176 189t237.5 72q58 0 114 -28t71 -78l33 98h240zM1139 860q0 52 -31.5 83.5t-84.5 31.5q-84 0 -151 -74.5t-67 -159.5q0 -53 31 -90t84 -37q84 0 151.5 80t67.5 166z" />
<glyph unicode="&#xf730;" horiz-adv-x="1297" d="M588 -25q-162 0 -277 66t-171 178t-56 259q0 122 48.5 238.5t131.5 205t202.5 142.5t253.5 54q241 0 373 -137.5t132 -360.5q0 -123 -48.5 -240t-131.5 -206.5t-203 -144t-254 -54.5zM690 779q-104 0 -168.5 -80t-64.5 -190q0 -84 39.5 -139.5t122.5 -55.5q100 0 166 80 t66 193q0 87 -42.5 139.5t-118.5 52.5z" />
<glyph unicode="&#xf731;" horiz-adv-x="951" d="M277 0l183 699l-259 -126l-123 251l550 269h318l-288 -1093h-381z" />
<glyph unicode="&#xf732;" horiz-adv-x="1102" d="M-23 81q32 165 142 273t285 180l158 65q35 15 66.5 33.5t61 51t29.5 66.5q0 36 -31 55.5t-67 19.5q-72 0 -118 -53t-46 -123l-315 37q27 190 177.5 311t349.5 121q71 0 140 -20.5t127 -58t93.5 -97.5t35.5 -132q0 -269 -370 -431q-181 -72 -223 -98h465l-75 -281h-901z " />
<glyph unicode="&#xf733;" horiz-adv-x="1092" d="M457 265q55 0 103.5 33.5t48.5 80.5q0 42 -30 61.5t-68 19.5q-49 0 -112 -25l-76 197l278 169h-435l78 292h885l-69 -257l-288 -177q75 -28 128 -105t53 -159q0 -99 -44 -180.5t-115.5 -132.5t-160 -78.5t-180.5 -27.5q-118 0 -213.5 32t-158 105.5t-62.5 179.5 q0 5 0.5 15t0.5 15l312 89v-8q0 -59 34 -99t91 -40z" />
<glyph unicode="&#xf734;" horiz-adv-x="1249" d="M875 0h-364l46 173h-583l95 356l645 564h452l-170 -639h156l-75 -281h-156zM358 454h274l85 319z" />
<glyph unicode="&#xf735;" horiz-adv-x="1076" d="M596 395q0 40 -31 63.5t-71 23.5q-68 0 -128 -44l-252 119l230 536h745l-78 -292h-488l-57 -132l2 -1q86 54 195 54q125 0 206.5 -84t81.5 -213q0 -104 -44 -190.5t-117.5 -142t-167 -86t-193.5 -30.5q-70 0 -136.5 15.5t-128.5 48.5t-108.5 91t-66.5 136l295 134 q26 -132 158 -132q61 0 107.5 32.5t46.5 93.5z" />
<glyph unicode="&#xf736;" horiz-adv-x="1141" d="M701 1118q104 0 210 -29t193 -82l-143 -260q-125 85 -266 85q-83 0 -152 -38t-104 -110q85 45 209 45q72 0 139 -22t119.5 -62.5t84 -102.5t31.5 -137q0 -128 -72.5 -228t-183.5 -150.5t-237 -50.5q-207 0 -330 118.5t-123 323.5q0 133 45.5 259t125.5 224t198.5 157.5 t255.5 59.5zM404 371q0 -49 41 -78t92 -29q55 0 99.5 32.5t44.5 85.5q0 49 -40.5 78.5t-91.5 29.5q-55 0 -100 -33t-45 -86z" />
<glyph unicode="&#xf737;" horiz-adv-x="1019" d="M4 0l570 763h-446l88 330h877l-87 -322l-559 -771h-443z" />
<glyph unicode="&#xf738;" horiz-adv-x="1108" d="M652 1118q170 0 292.5 -89t122.5 -214q0 -99 -63 -172t-162 -111q55 -34 88 -88t33 -116q0 -105 -64 -186t-171.5 -124t-239.5 -43q-127 0 -231 35.5t-167.5 105t-63.5 161.5q0 112 72.5 193.5t183.5 116.5q-100 75 -100 185q0 99 65 179t172.5 123.5t232.5 43.5z M625 842q-45 0 -83.5 -24t-38.5 -67q0 -35 33.5 -55.5t71.5 -20.5q45 0 83 24.5t38 67.5q0 35 -33.5 55t-70.5 20zM512 435q-52 0 -96.5 -24.5t-44.5 -72.5q0 -40 41.5 -62.5t85.5 -22.5q31 0 62 9t55 32t24 56q0 40 -41.5 62.5t-85.5 22.5z" />
<glyph unicode="&#xf739;" horiz-adv-x="1142" d="M460 -25q-106 0 -216.5 29.5t-196.5 82.5l144 260q123 -85 265 -85q84 0 153 37.5t103 109.5q-86 -45 -209 -45q-97 0 -181 37.5t-138 113t-54 174.5q0 128 72.5 228t183.5 150.5t237 50.5q207 0 330 -118.5t123 -324.5q0 -106 -27.5 -208.5t-81.5 -191t-127.5 -156 t-171.5 -106t-208 -38.5zM748 723q0 49 -41 78t-92 29q-55 0 -100 -32.5t-45 -85.5q0 -49 40.5 -78.5t91.5 -29.5q56 0 101 32.5t45 86.5z" />
<glyph unicode="&#xf8ff;" horiz-adv-x="3415" d="M3190 1344q-48 12 -111 12q-87 0 -125 -44.5t-38 -131.5v-87h264v-318h-264v-775h-388v775h-200v318h200v92q0 219 119 354t348 135q114 0 195 -28v-302zM1500 -22q193 0 316 156h8v-134h386v1669h-390v-700h-8q-37 48 -82.5 80t-90 44.5t-73.5 17t-56 4.5 q-101 0 -195.5 -42t-166.5 -115.5t-115 -180t-43 -228.5q0 -155 65.5 -285.5t183.5 -208t261 -77.5zM878 315q-76 -6 -102 -6q-141 0 -141 127v335h253v322h-253v355h-380v-355h-215v-322h205v-376q0 -198 116.5 -305.5t309.5 -107.5q122 0 207 31v302zM1824 549 q0 -90 -64 -156t-154 -66t-154.5 66t-64.5 156q0 91 64 156t155 65q90 0 154 -65t64 -156z" />
<glyph horiz-adv-x="1676" d="M1142 1734q-122 0 -201.5 77.5t-79.5 199.5q0 141 98 241t239 100q122 0 202.5 -78.5t80.5 -199.5q0 -142 -98.5 -241t-240.5 -99zM1185 2161q-55 0 -93.5 -39t-38.5 -95q0 -46 28.5 -74t74.5 -28q56 0 94.5 38.5t38.5 94.5q0 46 -29 74.5t-75 28.5zM1121 295h-640 l-185 -295h-435l1011 1604h461l248 -1604h-418zM686 637h390l-75 525z" />
</font>
</defs>
</svg>
