<?xml version="1.0" encoding="utf-8"?>
<!-- Generator: Adobe Illustrator 19.0.1, SVG Export Plug-In . SVG Version: 6.00 Build 0)  -->
<svg version="1.1" id="Layer_1" xmlns="http://www.w3.org/2000/svg" xmlns:xlink="http://www.w3.org/1999/xlink" x="0px" y="0px"
	 viewBox="0 0 30 30" style="enable-background:new 0 0 30 30;" xml:space="preserve">
<style type="text/css">
	.st0{enable-background:new    ;}
	.st1{clip-path:url(#SVGID_2_);}
	.st2{clip-path:url(#SVGID_4_);}
	.st3{clip-path:url(#SVGID_6_);}
	.st4{clip-path:url(#SVGID_8_);fill:#047cb7;}
	.st5{clip-path:url(#SVGID_10_);}
	.st6{clip-path:url(#SVGID_12_);}
	.st7{clip-path:url(#SVGID_14_);fill:#FFFFFF;}
	.st8{clip-path:url(#SVGID_16_);}
	.st9{clip-path:url(#SVGID_18_);}
	.st10{clip-path:url(#SVGID_20_);fill:#FFFFFF;}
	.st11{clip-path:url(#SVGID_22_);}
	.st12{clip-path:url(#SVGID_24_);}
	.st13{clip-path:url(#SVGID_26_);fill:#FFFFFF;}
</style>
<g class="st0">
	<g>
		<defs>
			<rect id="SVGID_1_" width="30" height="30"/>
		</defs>
		<clipPath id="SVGID_2_">
			<use xlink:href="#SVGID_1_"  style="overflow:visible;"/>
		</clipPath>
		<g class="st1">
			<defs>
				<rect id="SVGID_3_" x="-743" y="-2220" width="1440" height="2275"/>
			</defs>
			<clipPath id="SVGID_4_">
				<use xlink:href="#SVGID_3_"  style="overflow:visible;"/>
			</clipPath>
			<g class="st2">
				<defs>
					<ellipse id="SVGID_5_" cx="15" cy="15" rx="14.5" ry="14.2"/>
				</defs>
				<clipPath id="SVGID_6_">
					<use xlink:href="#SVGID_5_"  style="overflow:visible;"/>
				</clipPath>
				<g class="st3">
					<defs>
						<rect id="SVGID_7_" width="30" height="30"/>
					</defs>
					<clipPath id="SVGID_8_">
						<use xlink:href="#SVGID_7_"  style="overflow:visible;"/>
					</clipPath>
					<rect x="-4.5" y="-4.2" class="st4" width="39.1" height="38.4"/>
				</g>
			</g>
		</g>
		<g class="st1">
			<defs>
				<rect id="SVGID_9_" x="-743" y="-2220" width="1440" height="2275"/>
			</defs>
			<clipPath id="SVGID_10_">
				<use xlink:href="#SVGID_9_"  style="overflow:visible;"/>
			</clipPath>
			<g class="st5">
				<defs>
					<rect id="SVGID_11_" x="8" y="12" width="3.3" height="9.7"/>
				</defs>
				<clipPath id="SVGID_12_">
					<use xlink:href="#SVGID_11_"  style="overflow:visible;"/>
				</clipPath>
				<g class="st6">
					<defs>
						<rect id="SVGID_13_" width="30" height="30"/>
					</defs>
					<clipPath id="SVGID_14_">
						<use xlink:href="#SVGID_13_"  style="overflow:visible;"/>
					</clipPath>
					<rect x="3" y="7" class="st7" width="13.3" height="19.7"/>
				</g>
			</g>
		</g>
		<g class="st1">
			<defs>
				<rect id="SVGID_15_" x="-743" y="-2220" width="1440" height="2275"/>
			</defs>
			<clipPath id="SVGID_16_">
				<use xlink:href="#SVGID_15_"  style="overflow:visible;"/>
			</clipPath>
			<g class="st8">
				<defs>
					<path id="SVGID_17_" d="M11.5,9c0-0.9-0.7-1.7-1.8-1.7C8.5,7.4,7.8,8.1,7.8,9c0,0.9,0.7,1.7,1.8,1.7h0
						C10.8,10.7,11.5,10,11.5,9z"/>
				</defs>
				<clipPath id="SVGID_18_">
					<use xlink:href="#SVGID_17_"  style="overflow:visible;"/>
				</clipPath>
				<g class="st9">
					<defs>
						<rect id="SVGID_19_" width="30" height="30"/>
					</defs>
					<clipPath id="SVGID_20_">
						<use xlink:href="#SVGID_19_"  style="overflow:visible;"/>
					</clipPath>
					<rect x="2.8" y="2.4" class="st10" width="13.7" height="13.3"/>
				</g>
			</g>
		</g>
		<g class="st1">
			<defs>
				<rect id="SVGID_21_" x="-743" y="-2220" width="1440" height="2275"/>
			</defs>
			<clipPath id="SVGID_22_">
				<use xlink:href="#SVGID_21_"  style="overflow:visible;"/>
			</clipPath>
			<g class="st11">
				<defs>
					<path id="SVGID_23_" d="M23.2,16.1c0-3-1.6-4.3-3.8-4.3c-1.7,0-2.5,0.9-3,1.6V12h-3.3c0,0.9,0,9.7,0,9.7h3.3v-5.4
						c0-0.3,0-0.6,0.1-0.8c0.2-0.6,0.8-1.2,1.7-1.2c1.2,0,1.7,0.9,1.7,2.2v5.2h3.3L23.2,16.1z"/>
				</defs>
				<clipPath id="SVGID_24_">
					<use xlink:href="#SVGID_23_"  style="overflow:visible;"/>
				</clipPath>
				<g class="st12">
					<defs>
						<rect id="SVGID_25_" width="30" height="30"/>
					</defs>
					<clipPath id="SVGID_26_">
						<use xlink:href="#SVGID_25_"  style="overflow:visible;"/>
					</clipPath>
					<rect x="8.1" y="6.8" class="st13" width="20" height="19.9"/>
				</g>
			</g>
		</g>
	</g>
</g>
</svg>
