<?xml version="1.0" encoding="utf-8"?>
<!-- Generator: Adobe Illustrator 19.0.1, SVG Export Plug-In . SVG Version: 6.00 Build 0)  -->
<svg version="1.1" id="Layer_1" xmlns="http://www.w3.org/2000/svg" xmlns:xlink="http://www.w3.org/1999/xlink" x="0px" y="0px"
	 viewBox="0 0 30 30" style="enable-background:new 0 0 30 30;" xml:space="preserve">
<style type="text/css">
	.st0{enable-background:new    ;}
	.st1{clip-path:url(#SVGID_2_);}
	.st2{clip-path:url(#SVGID_4_);}
	.st3{clip-path:url(#SVGID_6_);}
	.st4{clip-path:url(#SVGID_8_);fill:#999;}
	.st5{clip-path:url(#SVGID_10_);}
	.st6{clip-path:url(#SVGID_12_);}
	.st7{clip-path:url(#SVGID_14_);fill:#FFFFFF;}
</style>
<g class="st0">
	<g>
		<defs>
			<rect id="SVGID_1_" width="30" height="30"/>
		</defs>
		<clipPath id="SVGID_2_">
			<use xlink:href="#SVGID_1_"  style="overflow:visible;"/>
		</clipPath>
		<g class="st1">
			<defs>
				<rect id="SVGID_3_" x="-628" y="-2220" width="1440" height="2275"/>
			</defs>
			<clipPath id="SVGID_4_">
				<use xlink:href="#SVGID_3_"  style="overflow:visible;"/>
			</clipPath>
			<g class="st2">
				<defs>
					<ellipse id="SVGID_5_" cx="14.8" cy="15" rx="14.8" ry="14.2"/>
				</defs>
				<clipPath id="SVGID_6_">
					<use xlink:href="#SVGID_5_"  style="overflow:visible;"/>
				</clipPath>
				<g class="st3">
					<defs>
						<rect id="SVGID_7_" width="30" height="30"/>
					</defs>
					<clipPath id="SVGID_8_">
						<use xlink:href="#SVGID_7_"  style="overflow:visible;"/>
					</clipPath>
					<rect x="-5" y="-4.2" class="st4" width="39.6" height="38.4"/>
				</g>
			</g>
		</g>
		<g class="st1">
			<defs>
				<rect id="SVGID_9_" x="-628" y="-2220" width="1440" height="2275"/>
			</defs>
			<clipPath id="SVGID_10_">
				<use xlink:href="#SVGID_9_"  style="overflow:visible;"/>
			</clipPath>
			<g class="st5">
				<defs>
					<path id="SVGID_11_" d="M14.4,12.1l0,0.5l-0.5-0.1c-1.9-0.2-3.5-1-4.9-2.3L8.3,9.6L8.2,10c-0.4,1.1-0.1,2.2,0.6,3
						c0.4,0.4,0.3,0.5-0.4,0.2c-0.2-0.1-0.5-0.1-0.5-0.1c-0.1,0.1,0.2,1,0.4,1.3c0.3,0.5,0.8,1,1.4,1.3l0.5,0.2l-0.6,0
						C9,16,9,16,9.1,16.2c0.2,0.7,1,1.3,1.9,1.6l0.6,0.2l-0.6,0.3c-0.8,0.5-1.8,0.7-2.8,0.7c-0.5,0-0.8,0.1-0.8,0.1
						c0,0.1,1.3,0.7,2,0.9c2.2,0.7,4.8,0.4,6.8-0.7c1.4-0.8,2.8-2.4,3.4-3.9c0.4-0.8,0.7-2.3,0.7-3c0-0.5,0-0.5,0.6-1.1
						c0.3-0.3,0.7-0.7,0.7-0.8c0.1-0.2,0.1-0.2-0.4,0c-0.9,0.3-1,0.3-0.6-0.2c0.3-0.3,0.7-0.9,0.7-1.1c0,0-0.2,0-0.3,0.1
						c-0.2,0.1-0.6,0.3-0.9,0.3L19.6,10l-0.5-0.3c-0.3-0.2-0.7-0.4-0.9-0.4c-0.5-0.1-1.3-0.1-1.8,0C15.1,9.7,14.3,10.8,14.4,12.1z"
						/>
				</defs>
				<clipPath id="SVGID_12_">
					<use xlink:href="#SVGID_11_"  style="overflow:visible;"/>
				</clipPath>
				<g class="st6">
					<defs>
						<rect id="SVGID_13_" width="30" height="30"/>
					</defs>
					<clipPath id="SVGID_14_">
						<use xlink:href="#SVGID_13_"  style="overflow:visible;"/>
					</clipPath>
					<rect x="2.5" y="4.1" class="st7" width="24.3" height="21.4"/>
				</g>
			</g>
		</g>
	</g>
</g>
</svg>
