<?xml version="1.0" encoding="utf-8"?>
<!-- Generator: Adobe Illustrator 19.0.1, SVG Export Plug-In . SVG Version: 6.00 Build 0)  -->
<svg version="1.1" id="Layer_1" xmlns="http://www.w3.org/2000/svg" xmlns:xlink="http://www.w3.org/1999/xlink" x="0px" y="0px"
	 viewBox="0 0 30 30" style="enable-background:new 0 0 30 30;" xml:space="preserve">
<style type="text/css">
	.st0{enable-background:new    ;}
	.st1{clip-path:url(#SVGID_2_);}
	.st2{clip-path:url(#SVGID_4_);}
	.st3{clip-path:url(#SVGID_6_);}
	.st4{clip-path:url(#SVGID_8_);fill:#215454;}
	.st5{clip-path:url(#SVGID_10_);}
	.st6{clip-path:url(#SVGID_12_);}
	.st7{clip-path:url(#SVGID_14_);fill:#FFFFFF;}
	.st8{clip-path:url(#SVGID_16_);}
	.st9{clip-path:url(#SVGID_18_);}
	.st10{clip-path:url(#SVGID_20_);fill:#FFFFFF;}
</style>
<g class="st0">
	<g>
		<defs>
			<rect id="SVGID_1_" x="0" y="0" width="30" height="30"/>
		</defs>
		<clipPath id="SVGID_2_">
			<use xlink:href="#SVGID_1_"  style="overflow:visible;"/>
		</clipPath>
		<g class="st1">
			<defs>
				<rect id="SVGID_3_" x="-782" y="-2220" width="1440" height="2275"/>
			</defs>
			<clipPath id="SVGID_4_">
				<use xlink:href="#SVGID_3_"  style="overflow:visible;"/>
			</clipPath>
			<g class="st2">
				<defs>
					<ellipse id="SVGID_5_" cx="15" cy="15" rx="14.5" ry="14.2"/>
				</defs>
				<clipPath id="SVGID_6_">
					<use xlink:href="#SVGID_5_"  style="overflow:visible;"/>
				</clipPath>
				<g class="st3">
					<defs>
						<rect id="SVGID_7_" x="0" y="0" width="30" height="30"/>
					</defs>
					<clipPath id="SVGID_8_">
						<use xlink:href="#SVGID_7_"  style="overflow:visible;"/>
					</clipPath>
					<rect x="-4.5" y="-4.2" class="st4" width="39.1" height="38.4"/>
				</g>
			</g>
		</g>
		<g class="st1">
			<defs>
				<rect id="SVGID_9_" x="-782" y="-2220" width="1440" height="2275"/>
			</defs>
			<clipPath id="SVGID_10_">
				<use xlink:href="#SVGID_9_"  style="overflow:visible;"/>
			</clipPath>
			<g class="st5">
				<defs>
					<path id="SVGID_11_" d="M16.6,16.9c0.9,2,1.8,3.9,2.7,6c0.1,0.3,0.3,0.7,0.3,0.9c-0.1,0.3-0.7,0.2-1.2,0.2
						c-0.6,0-1.1,0.1-1.4,0c-0.4-0.2-0.7-1.3-0.9-1.7c-0.8-1.7-1.7-3.6-2.5-5.3c1.4-3,3-6.2,4.4-9.3c0.2-0.5,0.4-1.2,0.9-1.2
						c0.2,0,0.7,0,1.2,0c0.4,0,1.1-0.1,1.2,0.1c0.2,0.4-0.3,1-0.5,1.4C19.4,11,18,13.9,16.6,16.9"/>
				</defs>
				<clipPath id="SVGID_12_">
					<use xlink:href="#SVGID_11_"  style="overflow:visible;"/>
				</clipPath>
				<g class="st6">
					<defs>
						<rect id="SVGID_13_" x="0" y="0" width="30" height="30"/>
					</defs>
					<clipPath id="SVGID_14_">
						<use xlink:href="#SVGID_13_"  style="overflow:visible;"/>
					</clipPath>
					<rect x="8.5" y="1.5" class="st7" width="17.7" height="27.5"/>
				</g>
			</g>
		</g>
		<g class="st1">
			<defs>
				<rect id="SVGID_15_" x="-782" y="-2220" width="1440" height="2275"/>
			</defs>
			<clipPath id="SVGID_16_">
				<use xlink:href="#SVGID_15_"  style="overflow:visible;"/>
			</clipPath>
			<g class="st8">
				<defs>
					<path id="SVGID_17_" d="M9.5,19.7c-0.1,0-0.2-0.1-0.3-0.2c-0.1-0.3,0.1-0.5,0.2-0.7c0.6-1.3,1.1-2.5,1.8-3.8
						c0.1-0.2,0.3-0.5,0.3-0.6c0-0.2-0.3-0.7-0.4-0.9c-0.3-0.6-0.5-1.1-0.8-1.6c-0.1-0.2-0.3-0.5-0.3-0.9c0-0.1,0.1-0.2,0.3-0.2h2.2
						c0.4,0,0.6,0.5,0.7,0.9c0.4,0.9,0.9,1.9,1.3,2.7c-0.6,1.3-1.3,2.7-1.9,4.1c-0.2,0.4-0.4,1.2-0.9,1.3H9.5"/>
				</defs>
				<clipPath id="SVGID_18_">
					<use xlink:href="#SVGID_17_"  style="overflow:visible;"/>
				</clipPath>
				<g class="st9">
					<defs>
						<rect id="SVGID_19_" x="0" y="0" width="30" height="30"/>
					</defs>
					<clipPath id="SVGID_20_">
						<use xlink:href="#SVGID_19_"  style="overflow:visible;"/>
					</clipPath>
					<rect x="4.2" y="5.7" class="st10" width="15.3" height="19"/>
				</g>
			</g>
		</g>
	</g>
</g>
</svg>
