<?xml version="1.0" encoding="utf-8"?>
<!-- Generator: Adobe Illustrator 19.0.1, SVG Export Plug-In . SVG Version: 6.00 Build 0)  -->
<svg version="1.1" id="Layer_1" xmlns:sketch="http://www.bohemiancoding.com/sketch/ns"
	 xmlns="http://www.w3.org/2000/svg" xmlns:xlink="http://www.w3.org/1999/xlink" x="0px" y="0px" viewBox="-469 471.5 59 59"
	 style="enable-background:new -469 471.5 59 59;" xml:space="preserve">
<style type="text/css">
	.st0{fill:#de2119;}
	.st1{fill:#EEE7E8;}
	.st2{fill:#FFFFFF;}
	.st3{fill:#590d09;}
</style>
<title>youtube</title>
<desc>Created with Sketch.</desc>
<path id="Fill-1" sketch:type="MSShapeGroup" class="st0" d="M-410,501c0,16.3-13.2,29.5-29.5,29.5c-16.3,0-29.5-13.2-29.5-29.5
	c0-16.3,13.2-29.5,29.5-29.5C-423.2,471.5-410,484.7-410,501"/>
<path id="Fill-2" sketch:type="MSShapeGroup" class="st1" d="M-412,477.3L-412,477.3l1.3-0.7L-412,477.3"/>
<g>
	<path id="Fill-4" sketch:type="MSShapeGroup" class="st2" d="M-419.8,493.5c0,0-0.4-2.8-1.6-4c-1.5-1.6-3.2-1.6-4-1.7
		c-5.6-0.4-14.1-0.4-14.1-0.4h0c0,0-8.5,0-14.1,0.4c-0.8,0.1-2.5,0.1-4,1.7c-1.2,1.2-1.6,4-1.6,4s-0.4,3.3-0.4,6.5v3.1
		c0,3.3,0.4,6.5,0.4,6.5s0.4,2.8,1.6,4c1.5,1.6,3.5,1.6,4.4,1.7c3.2,0.3,13.7,0.4,13.7,0.4s8.5,0,14.1-0.4c0.8-0.1,2.5-0.1,4-1.7
		c1.2-1.2,1.6-4,1.6-4s0.4-3.3,0.4-6.5V500C-419.4,496.8-419.8,493.5-419.8,493.5 M-443.7,506.8l0-11.3l10.9,5.7L-443.7,506.8"/>
	<path id="Fill-3" sketch:type="MSShapeGroup" class="st3" d="M-443.7,495.5l9.5,6.4l1.3-0.7L-443.7,495.5"/>
</g>
</svg>
